%TF.GenerationSoftware,KiCad,Pcbnew,(6.0.11)*%
%TF.CreationDate,2024-09-03T20:48:06+02:00*%
%TF.ProjectId,tcbm2sd,7463626d-3273-4642-9e6b-696361645f70,1.2*%
%TF.SameCoordinates,Original*%
%TF.FileFunction,Drillmap*%
%TF.FilePolarity,Positive*%
%FSLAX45Y45*%
G04 Gerber Fmt 4.5, Leading zero omitted, Abs format (unit mm)*
G04 Created by KiCad (PCBNEW (6.0.11)) date 2024-09-03 20:48:06*
%MOMM*%
%LPD*%
G01*
G04 APERTURE LIST*
%ADD10C,0.200000*%
%ADD11C,0.040000*%
%ADD12C,0.080000*%
%ADD13C,0.100000*%
%ADD14C,0.110000*%
G04 APERTURE END LIST*
D10*
D11*
X12326720Y-14445600D02*
X12366720Y-14485600D01*
X12366720Y-14445600D02*
X12326720Y-14485600D01*
X12501610Y-10104870D02*
X12541610Y-10144870D01*
X12541610Y-10104870D02*
X12501610Y-10144870D01*
X12668330Y-10092860D02*
X12708330Y-10132860D01*
X12708330Y-10092860D02*
X12668330Y-10132860D01*
X12709780Y-13790790D02*
X12749780Y-13830790D01*
X12749780Y-13790790D02*
X12709780Y-13830790D01*
X12709780Y-13967980D02*
X12749780Y-14007980D01*
X12749780Y-13967980D02*
X12709780Y-14007980D01*
X12741530Y-9693190D02*
X12781530Y-9733190D01*
X12781530Y-9693190D02*
X12741530Y-9733190D01*
X12745160Y-10433870D02*
X12785160Y-10473870D01*
X12785160Y-10433870D02*
X12745160Y-10473870D01*
X12762680Y-12384170D02*
X12802680Y-12424170D01*
X12802680Y-12384170D02*
X12762680Y-12424170D01*
X12795750Y-10106400D02*
X12835750Y-10146400D01*
X12835750Y-10106400D02*
X12795750Y-10146400D01*
X12915660Y-9258950D02*
X12955660Y-9298950D01*
X12955660Y-9258950D02*
X12915660Y-9298950D01*
X13003900Y-11787180D02*
X13043900Y-11827180D01*
X13043900Y-11787180D02*
X13003900Y-11827180D01*
X13093770Y-13146340D02*
X13133770Y-13186340D01*
X13133770Y-13146340D02*
X13093770Y-13186340D01*
X13196230Y-8393020D02*
X13236230Y-8433020D01*
X13236230Y-8393020D02*
X13196230Y-8433020D01*
X13271630Y-12779180D02*
X13311630Y-12819180D01*
X13311630Y-12779180D02*
X13271630Y-12819180D01*
X13313750Y-13085710D02*
X13353750Y-13125710D01*
X13353750Y-13085710D02*
X13313750Y-13125710D01*
X13372010Y-13685580D02*
X13412010Y-13725580D01*
X13412010Y-13685580D02*
X13372010Y-13725580D01*
X13396570Y-8808370D02*
X13436570Y-8848370D01*
X13436570Y-8808370D02*
X13396570Y-8848370D01*
X13404130Y-12914610D02*
X13444130Y-12954610D01*
X13444130Y-12914610D02*
X13404130Y-12954610D01*
X13408090Y-7990350D02*
X13448090Y-8030350D01*
X13448090Y-7990350D02*
X13408090Y-8030350D01*
X13440370Y-11454110D02*
X13480370Y-11494110D01*
X13480370Y-11454110D02*
X13440370Y-11494110D01*
X13446030Y-12466050D02*
X13486030Y-12506050D01*
X13486030Y-12466050D02*
X13446030Y-12506050D01*
X13551800Y-12824970D02*
X13591800Y-12864970D01*
X13591800Y-12824970D02*
X13551800Y-12864970D01*
X13590010Y-11190380D02*
X13630010Y-11230380D01*
X13630010Y-11190380D02*
X13590010Y-11230380D01*
X13607970Y-13656010D02*
X13647970Y-13696010D01*
X13647970Y-13656010D02*
X13607970Y-13696010D01*
X13611640Y-10026150D02*
X13651640Y-10066150D01*
X13651640Y-10026150D02*
X13611640Y-10066150D01*
X13634370Y-10629030D02*
X13674370Y-10669030D01*
X13674370Y-10629030D02*
X13634370Y-10669030D01*
X13665830Y-9575620D02*
X13705830Y-9615620D01*
X13705830Y-9575620D02*
X13665830Y-9615620D01*
X13670600Y-12193710D02*
X13710600Y-12233710D01*
X13710600Y-12193710D02*
X13670600Y-12233710D01*
X13700480Y-10534430D02*
X13740480Y-10574430D01*
X13740480Y-10534430D02*
X13700480Y-10574430D01*
X13730930Y-7792730D02*
X13770930Y-7832730D01*
X13770930Y-7792730D02*
X13730930Y-7832730D01*
X13732770Y-11805450D02*
X13772770Y-11845450D01*
X13772770Y-11805450D02*
X13732770Y-11845450D01*
X13763020Y-10462010D02*
X13803020Y-10502010D01*
X13803020Y-10462010D02*
X13763020Y-10502010D01*
X13813450Y-12709330D02*
X13853450Y-12749330D01*
X13853450Y-12709330D02*
X13813450Y-12749330D01*
X13843050Y-8199020D02*
X13883050Y-8239020D01*
X13883050Y-8199020D02*
X13843050Y-8239020D01*
X13845600Y-11797460D02*
X13885600Y-11837460D01*
X13885600Y-11797460D02*
X13845600Y-11837460D01*
X13884710Y-11688260D02*
X13924710Y-11728260D01*
X13924710Y-11688260D02*
X13884710Y-11728260D01*
X13939580Y-12390120D02*
X13979580Y-12430120D01*
X13979580Y-12390120D02*
X13939580Y-12430120D01*
X13958500Y-9317600D02*
X13998500Y-9357600D01*
X13998500Y-9317600D02*
X13958500Y-9357600D01*
X13998570Y-11784670D02*
X14038570Y-11824670D01*
X14038570Y-11784670D02*
X13998570Y-11824670D01*
X14008410Y-7751950D02*
X14048410Y-7791950D01*
X14048410Y-7751950D02*
X14008410Y-7791950D01*
X14032680Y-12489160D02*
X14072680Y-12529160D01*
X14072680Y-12489160D02*
X14032680Y-12529160D01*
X14042300Y-12867470D02*
X14082300Y-12907470D01*
X14082300Y-12867470D02*
X14042300Y-12907470D01*
X14058200Y-13526160D02*
X14098200Y-13566160D01*
X14098200Y-13526160D02*
X14058200Y-13566160D01*
X14073920Y-10014420D02*
X14113920Y-10054420D01*
X14113920Y-10014420D02*
X14073920Y-10054420D01*
X14075130Y-10311560D02*
X14115130Y-10351560D01*
X14115130Y-10311560D02*
X14075130Y-10351560D01*
X14091330Y-9810890D02*
X14131330Y-9850890D01*
X14131330Y-9810890D02*
X14091330Y-9850890D01*
X14104110Y-13270990D02*
X14144110Y-13310990D01*
X14144110Y-13270990D02*
X14104110Y-13310990D01*
X14107260Y-8243450D02*
X14147260Y-8283450D01*
X14147260Y-8243450D02*
X14107260Y-8283450D01*
X14181220Y-12594730D02*
X14221220Y-12634730D01*
X14221220Y-12594730D02*
X14181220Y-12634730D01*
X14200070Y-10077290D02*
X14240070Y-10117290D01*
X14240070Y-10077290D02*
X14200070Y-10117290D01*
X14206910Y-9757510D02*
X14246910Y-9797510D01*
X14246910Y-9757510D02*
X14206910Y-9797510D01*
X14229880Y-11589900D02*
X14269880Y-11629900D01*
X14269880Y-11589900D02*
X14229880Y-11629900D01*
X14234090Y-11488560D02*
X14274090Y-11528560D01*
X14274090Y-11488560D02*
X14234090Y-11528560D01*
X14249800Y-12664220D02*
X14289800Y-12704220D01*
X14289800Y-12664220D02*
X14249800Y-12704220D01*
X14292730Y-13978160D02*
X14332730Y-14018160D01*
X14332730Y-13978160D02*
X14292730Y-14018160D01*
X14320110Y-12736640D02*
X14360110Y-12776640D01*
X14360110Y-12736640D02*
X14320110Y-12776640D01*
X14383510Y-12450580D02*
X14423510Y-12490580D01*
X14423510Y-12450580D02*
X14383510Y-12490580D01*
X14396750Y-6866070D02*
X14436750Y-6906070D01*
X14436750Y-6866070D02*
X14396750Y-6906070D01*
X14405930Y-13589400D02*
X14445930Y-13629400D01*
X14445930Y-13589400D02*
X14405930Y-13629400D01*
X14406490Y-13241730D02*
X14446490Y-13281730D01*
X14446490Y-13241730D02*
X14406490Y-13281730D01*
X14406570Y-13417620D02*
X14446570Y-13457620D01*
X14446570Y-13417620D02*
X14406570Y-13457620D01*
X14410180Y-11810720D02*
X14450180Y-11850720D01*
X14450180Y-11810720D02*
X14410180Y-11850720D01*
X14426670Y-10207840D02*
X14466670Y-10247840D01*
X14466670Y-10207840D02*
X14426670Y-10247840D01*
X14488200Y-12316310D02*
X14528200Y-12356310D01*
X14528200Y-12316310D02*
X14488200Y-12356310D01*
X14489000Y-12594420D02*
X14529000Y-12634420D01*
X14529000Y-12594420D02*
X14489000Y-12634420D01*
X14496620Y-12880380D02*
X14536620Y-12920380D01*
X14536620Y-12880380D02*
X14496620Y-12920380D01*
X14514700Y-13116600D02*
X14554700Y-13156600D01*
X14554700Y-13116600D02*
X14514700Y-13156600D01*
X14525060Y-13732630D02*
X14565060Y-13772630D01*
X14565060Y-13732630D02*
X14525060Y-13772630D01*
X14550960Y-11324940D02*
X14590960Y-11364940D01*
X14590960Y-11324940D02*
X14550960Y-11364940D01*
X14562950Y-10735080D02*
X14602950Y-10775080D01*
X14602950Y-10735080D02*
X14562950Y-10775080D01*
X14563900Y-9853400D02*
X14603900Y-9893400D01*
X14603900Y-9853400D02*
X14563900Y-9893400D01*
X14586530Y-13659140D02*
X14626530Y-13699140D01*
X14626530Y-13659140D02*
X14586530Y-13699140D01*
X14595350Y-13906760D02*
X14635350Y-13946760D01*
X14635350Y-13906760D02*
X14595350Y-13946760D01*
X14600840Y-11536270D02*
X14640840Y-11576270D01*
X14640840Y-11536270D02*
X14600840Y-11576270D01*
X14610140Y-13125200D02*
X14650140Y-13165200D01*
X14650140Y-13125200D02*
X14610140Y-13165200D01*
X14677390Y-11921290D02*
X14717390Y-11961290D01*
X14717390Y-11921290D02*
X14677390Y-11961290D01*
X14704020Y-8005610D02*
X14744020Y-8045610D01*
X14744020Y-8005610D02*
X14704020Y-8045610D01*
X14730200Y-13922810D02*
X14770200Y-13962810D01*
X14770200Y-13922810D02*
X14730200Y-13962810D01*
X14755080Y-12488710D02*
X14795080Y-12528710D01*
X14795080Y-12488710D02*
X14755080Y-12528710D01*
X14788200Y-13548560D02*
X14828200Y-13588560D01*
X14828200Y-13548560D02*
X14788200Y-13588560D01*
X14790460Y-13077930D02*
X14830460Y-13117930D01*
X14830460Y-13077930D02*
X14790460Y-13117930D01*
X14813090Y-12039520D02*
X14853090Y-12079520D01*
X14853090Y-12039520D02*
X14813090Y-12079520D01*
X14855120Y-7775460D02*
X14895120Y-7815460D01*
X14895120Y-7775460D02*
X14855120Y-7815460D01*
X14876120Y-13256570D02*
X14916120Y-13296570D01*
X14916120Y-13256570D02*
X14876120Y-13296570D01*
X14891730Y-12480120D02*
X14931730Y-12520120D01*
X14931730Y-12480120D02*
X14891730Y-12520120D01*
X14894900Y-13585360D02*
X14934900Y-13625360D01*
X14934900Y-13585360D02*
X14894900Y-13625360D01*
X14944530Y-12333920D02*
X14984530Y-12373920D01*
X14984530Y-12333920D02*
X14944530Y-12373920D01*
X14953860Y-13886030D02*
X14993860Y-13926030D01*
X14993860Y-13886030D02*
X14953860Y-13926030D01*
X14957430Y-13323090D02*
X14997430Y-13363090D01*
X14997430Y-13323090D02*
X14957430Y-13363090D01*
X14964790Y-7946270D02*
X15004790Y-7986270D01*
X15004790Y-7946270D02*
X14964790Y-7986270D01*
X14987070Y-12945610D02*
X15027070Y-12985610D01*
X15027070Y-12945610D02*
X14987070Y-12985610D01*
X15039749Y-14004221D02*
X15079749Y-14044221D01*
X15079749Y-14004221D02*
X15039749Y-14044221D01*
X15052580Y-8407220D02*
X15092580Y-8447220D01*
X15092580Y-8407220D02*
X15052580Y-8447220D01*
X15053150Y-7813750D02*
X15093150Y-7853750D01*
X15093150Y-7813750D02*
X15053150Y-7853750D01*
X15090400Y-6292500D02*
X15130400Y-6332500D01*
X15130400Y-6292500D02*
X15090400Y-6332500D01*
X15094270Y-8587600D02*
X15134270Y-8627600D01*
X15134270Y-8587600D02*
X15094270Y-8627600D01*
X15132340Y-12912330D02*
X15172340Y-12952330D01*
X15172340Y-12912330D02*
X15132340Y-12952330D01*
X15148390Y-13066360D02*
X15188390Y-13106360D01*
X15188390Y-13066360D02*
X15148390Y-13106360D01*
X15150480Y-12315160D02*
X15190480Y-12355160D01*
X15190480Y-12315160D02*
X15150480Y-12355160D01*
X15169640Y-12648620D02*
X15209640Y-12688620D01*
X15209640Y-12648620D02*
X15169640Y-12688620D01*
X15177810Y-14010830D02*
X15217810Y-14050830D01*
X15217810Y-14010830D02*
X15177810Y-14050830D01*
X15229490Y-11619950D02*
X15269490Y-11659950D01*
X15269490Y-11619950D02*
X15229490Y-11659950D01*
X15283140Y-13134380D02*
X15323140Y-13174380D01*
X15323140Y-13134380D02*
X15283140Y-13174380D01*
X15347640Y-13512570D02*
X15387640Y-13552570D01*
X15387640Y-13512570D02*
X15347640Y-13552570D01*
X15356190Y-13929030D02*
X15396190Y-13969030D01*
X15396190Y-13929030D02*
X15356190Y-13969030D01*
X15362920Y-12011460D02*
X15402920Y-12051460D01*
X15402920Y-12011460D02*
X15362920Y-12051460D01*
X15370640Y-8570280D02*
X15410640Y-8610280D01*
X15410640Y-8570280D02*
X15370640Y-8610280D01*
X15410100Y-11298260D02*
X15450100Y-11338260D01*
X15450100Y-11298260D02*
X15410100Y-11338260D01*
X15428650Y-10895780D02*
X15468650Y-10935780D01*
X15468650Y-10895780D02*
X15428650Y-10935780D01*
X15454200Y-13910230D02*
X15494200Y-13950230D01*
X15494200Y-13910230D02*
X15454200Y-13950230D01*
X15474050Y-11843150D02*
X15514050Y-11883150D01*
X15514050Y-11843150D02*
X15474050Y-11883150D01*
X15484510Y-7308060D02*
X15524510Y-7348060D01*
X15524510Y-7308060D02*
X15484510Y-7348060D01*
X15487320Y-13315510D02*
X15527320Y-13355510D01*
X15527320Y-13315510D02*
X15487320Y-13355510D01*
X15509150Y-8915300D02*
X15549150Y-8955300D01*
X15549150Y-8915300D02*
X15509150Y-8955300D01*
X15518430Y-11734680D02*
X15558430Y-11774680D01*
X15558430Y-11734680D02*
X15518430Y-11774680D01*
X15548610Y-13650490D02*
X15588610Y-13690490D01*
X15588610Y-13650490D02*
X15548610Y-13690490D01*
X15589890Y-11842940D02*
X15629890Y-11882940D01*
X15629890Y-11842940D02*
X15589890Y-11882940D01*
X15631250Y-13480520D02*
X15671250Y-13520520D01*
X15671250Y-13480520D02*
X15631250Y-13520520D01*
X15657490Y-13079440D02*
X15697490Y-13119440D01*
X15697490Y-13079440D02*
X15657490Y-13119440D01*
X15710690Y-11974540D02*
X15750690Y-12014540D01*
X15750690Y-11974540D02*
X15710690Y-12014540D01*
X15722200Y-13985990D02*
X15762200Y-14025990D01*
X15762200Y-13985990D02*
X15722200Y-14025990D01*
X15845110Y-13719720D02*
X15885110Y-13759720D01*
X15885110Y-13719720D02*
X15845110Y-13759720D01*
X15882160Y-13992870D02*
X15922160Y-14032870D01*
X15922160Y-13992870D02*
X15882160Y-14032870D01*
X15954760Y-8876810D02*
X15994760Y-8916810D01*
X15994760Y-8876810D02*
X15954760Y-8916810D01*
X15975390Y-9043280D02*
X16015390Y-9083280D01*
X16015390Y-9043280D02*
X15975390Y-9083280D01*
X16003850Y-13559700D02*
X16043850Y-13599700D01*
X16043850Y-13559700D02*
X16003850Y-13599700D01*
X16022840Y-13042150D02*
X16062840Y-13082150D01*
X16062840Y-13042150D02*
X16022840Y-13082150D01*
X16045150Y-14002860D02*
X16085150Y-14042860D01*
X16085150Y-14002860D02*
X16045150Y-14042860D01*
X16089060Y-12700920D02*
X16129060Y-12740920D01*
X16129060Y-12700920D02*
X16089060Y-12740920D01*
X16089780Y-12537450D02*
X16129780Y-12577450D01*
X16129780Y-12537450D02*
X16089780Y-12577450D01*
X16118620Y-8775260D02*
X16158620Y-8815260D01*
X16158620Y-8775260D02*
X16118620Y-8815260D01*
X16257860Y-8595290D02*
X16297860Y-8635290D01*
X16297860Y-8595290D02*
X16257860Y-8635290D01*
X16268050Y-10328900D02*
X16308050Y-10368900D01*
X16308050Y-10328900D02*
X16268050Y-10368900D01*
X16268330Y-13916730D02*
X16308330Y-13956730D01*
X16308330Y-13916730D02*
X16268330Y-13956730D01*
X16292180Y-13314040D02*
X16332180Y-13354040D01*
X16332180Y-13314040D02*
X16292180Y-13354040D01*
X16318340Y-8339990D02*
X16358340Y-8379990D01*
X16358340Y-8339990D02*
X16318340Y-8379990D01*
X16318570Y-8217770D02*
X16358570Y-8257770D01*
X16358570Y-8217770D02*
X16318570Y-8257770D01*
X16371470Y-13902790D02*
X16411470Y-13942790D01*
X16411470Y-13902790D02*
X16371470Y-13942790D01*
X16429250Y-10643230D02*
X16469250Y-10683230D01*
X16469250Y-10643230D02*
X16429250Y-10683230D01*
X16469260Y-13301100D02*
X16509260Y-13341100D01*
X16509260Y-13301100D02*
X16469260Y-13341100D01*
X16487880Y-13796180D02*
X16527880Y-13836180D01*
X16527880Y-13796180D02*
X16487880Y-13836180D01*
X16539260Y-11020490D02*
X16579260Y-11060490D01*
X16579260Y-11020490D02*
X16539260Y-11060490D01*
X16580340Y-13007710D02*
X16620340Y-13047710D01*
X16620340Y-13007710D02*
X16580340Y-13047710D01*
X16598950Y-11324980D02*
X16638950Y-11364980D01*
X16638950Y-11324980D02*
X16598950Y-11364980D01*
X16617610Y-13391510D02*
X16657610Y-13431510D01*
X16657610Y-13391510D02*
X16617610Y-13431510D01*
X16630240Y-13202350D02*
X16670240Y-13242350D01*
X16670240Y-13202350D02*
X16630240Y-13242350D01*
X16678810Y-13288750D02*
X16718810Y-13328750D01*
X16718810Y-13288750D02*
X16678810Y-13328750D01*
X16684540Y-12984800D02*
X16724540Y-13024800D01*
X16724540Y-12984800D02*
X16684540Y-13024800D01*
X16732530Y-9089800D02*
X16772530Y-9129800D01*
X16772530Y-9089800D02*
X16732530Y-9129800D01*
X16817530Y-11798350D02*
X16857530Y-11838350D01*
X16857530Y-11798350D02*
X16817530Y-11838350D01*
X16831210Y-11287140D02*
X16871210Y-11327140D01*
X16871210Y-11287140D02*
X16831210Y-11327140D01*
X16845820Y-13523970D02*
X16885820Y-13563970D01*
X16885820Y-13523970D02*
X16845820Y-13563970D01*
X17033390Y-10358820D02*
X17073390Y-10398820D01*
X17073390Y-10358820D02*
X17033390Y-10398820D01*
X17037940Y-13959310D02*
X17077940Y-13999310D01*
X17077940Y-13959310D02*
X17037940Y-13999310D01*
X17068340Y-10650480D02*
X17108340Y-10690480D01*
X17108340Y-10650480D02*
X17068340Y-10690480D01*
X17074560Y-13491710D02*
X17114560Y-13531710D01*
X17114560Y-13491710D02*
X17074560Y-13531710D01*
X17333430Y-14464300D02*
X17373430Y-14504300D01*
X17373430Y-14464300D02*
X17333430Y-14504300D01*
X17363030Y-8897040D02*
X17403030Y-8937040D01*
X17403030Y-8897040D02*
X17363030Y-8937040D01*
X17467700Y-7308060D02*
X17507700Y-7348060D01*
X17507700Y-7308060D02*
X17467700Y-7348060D01*
D12*
X12486000Y-7543800D02*
G75*
G03*
X12486000Y-7543800I-40000J0D01*
G01*
X12486000Y-9067800D02*
G75*
G03*
X12486000Y-9067800I-40000J0D01*
G01*
X12740000Y-7543800D02*
G75*
G03*
X12740000Y-7543800I-40000J0D01*
G01*
X12740000Y-9067800D02*
G75*
G03*
X12740000Y-9067800I-40000J0D01*
G01*
X12994000Y-7543800D02*
G75*
G03*
X12994000Y-7543800I-40000J0D01*
G01*
X12994000Y-9067800D02*
G75*
G03*
X12994000Y-9067800I-40000J0D01*
G01*
X13248000Y-7543800D02*
G75*
G03*
X13248000Y-7543800I-40000J0D01*
G01*
X13248000Y-9067800D02*
G75*
G03*
X13248000Y-9067800I-40000J0D01*
G01*
X13375000Y-7797800D02*
G75*
G03*
X13375000Y-7797800I-40000J0D01*
G01*
X13502000Y-7543800D02*
G75*
G03*
X13502000Y-7543800I-40000J0D01*
G01*
X13502000Y-9067800D02*
G75*
G03*
X13502000Y-9067800I-40000J0D01*
G01*
X13629000Y-7797800D02*
G75*
G03*
X13629000Y-7797800I-40000J0D01*
G01*
X13756000Y-7543800D02*
G75*
G03*
X13756000Y-7543800I-40000J0D01*
G01*
X13756000Y-9067800D02*
G75*
G03*
X13756000Y-9067800I-40000J0D01*
G01*
X14010000Y-7543800D02*
G75*
G03*
X14010000Y-7543800I-40000J0D01*
G01*
X14010000Y-9067800D02*
G75*
G03*
X14010000Y-9067800I-40000J0D01*
G01*
X14264000Y-7543800D02*
G75*
G03*
X14264000Y-7543800I-40000J0D01*
G01*
X14264000Y-9067800D02*
G75*
G03*
X14264000Y-9067800I-40000J0D01*
G01*
X14391000Y-7797800D02*
G75*
G03*
X14391000Y-7797800I-40000J0D01*
G01*
X14518000Y-7543800D02*
G75*
G03*
X14518000Y-7543800I-40000J0D01*
G01*
X14518000Y-9067800D02*
G75*
G03*
X14518000Y-9067800I-40000J0D01*
G01*
X14645000Y-7797800D02*
G75*
G03*
X14645000Y-7797800I-40000J0D01*
G01*
X14772000Y-7543800D02*
G75*
G03*
X14772000Y-7543800I-40000J0D01*
G01*
X14772000Y-9067800D02*
G75*
G03*
X14772000Y-9067800I-40000J0D01*
G01*
X15026000Y-7543800D02*
G75*
G03*
X15026000Y-7543800I-40000J0D01*
G01*
X15026000Y-9067800D02*
G75*
G03*
X15026000Y-9067800I-40000J0D01*
G01*
X15280000Y-7543800D02*
G75*
G03*
X15280000Y-7543800I-40000J0D01*
G01*
X15280000Y-9067800D02*
G75*
G03*
X15280000Y-9067800I-40000J0D01*
G01*
X15902300Y-10121900D02*
G75*
G03*
X15902300Y-10121900I-40000J0D01*
G01*
X15902300Y-10375900D02*
G75*
G03*
X15902300Y-10375900I-40000J0D01*
G01*
X15902300Y-10629900D02*
G75*
G03*
X15902300Y-10629900I-40000J0D01*
G01*
X15902300Y-10883900D02*
G75*
G03*
X15902300Y-10883900I-40000J0D01*
G01*
X15902300Y-11137900D02*
G75*
G03*
X15902300Y-11137900I-40000J0D01*
G01*
X15902300Y-11391900D02*
G75*
G03*
X15902300Y-11391900I-40000J0D01*
G01*
X15902300Y-11645900D02*
G75*
G03*
X15902300Y-11645900I-40000J0D01*
G01*
X15902300Y-11899900D02*
G75*
G03*
X15902300Y-11899900I-40000J0D01*
G01*
X15902300Y-12153900D02*
G75*
G03*
X15902300Y-12153900I-40000J0D01*
G01*
X15902300Y-12407900D02*
G75*
G03*
X15902300Y-12407900I-40000J0D01*
G01*
X15902300Y-12661900D02*
G75*
G03*
X15902300Y-12661900I-40000J0D01*
G01*
X15902300Y-12915900D02*
G75*
G03*
X15902300Y-12915900I-40000J0D01*
G01*
X15902300Y-13169900D02*
G75*
G03*
X15902300Y-13169900I-40000J0D01*
G01*
X15902300Y-13423900D02*
G75*
G03*
X15902300Y-13423900I-40000J0D01*
G01*
X17426300Y-10121900D02*
G75*
G03*
X17426300Y-10121900I-40000J0D01*
G01*
X17426300Y-10375900D02*
G75*
G03*
X17426300Y-10375900I-40000J0D01*
G01*
X17426300Y-10629900D02*
G75*
G03*
X17426300Y-10629900I-40000J0D01*
G01*
X17426300Y-10883900D02*
G75*
G03*
X17426300Y-10883900I-40000J0D01*
G01*
X17426300Y-11137900D02*
G75*
G03*
X17426300Y-11137900I-40000J0D01*
G01*
X17426300Y-11391900D02*
G75*
G03*
X17426300Y-11391900I-40000J0D01*
G01*
X17426300Y-11645900D02*
G75*
G03*
X17426300Y-11645900I-40000J0D01*
G01*
X17426300Y-11899900D02*
G75*
G03*
X17426300Y-11899900I-40000J0D01*
G01*
X17426300Y-12153900D02*
G75*
G03*
X17426300Y-12153900I-40000J0D01*
G01*
X17426300Y-12407900D02*
G75*
G03*
X17426300Y-12407900I-40000J0D01*
G01*
X17426300Y-12661900D02*
G75*
G03*
X17426300Y-12661900I-40000J0D01*
G01*
X17426300Y-12915900D02*
G75*
G03*
X17426300Y-12915900I-40000J0D01*
G01*
X17426300Y-13169900D02*
G75*
G03*
X17426300Y-13169900I-40000J0D01*
G01*
X17426300Y-13423900D02*
G75*
G03*
X17426300Y-13423900I-40000J0D01*
G01*
D13*
X12434800Y-13285130D02*
X12434800Y-13385130D01*
X12384800Y-13335130D02*
X12484800Y-13335130D01*
X12688800Y-13285130D02*
X12688800Y-13385130D01*
X12638800Y-13335130D02*
X12738800Y-13335130D01*
X12942800Y-13285130D02*
X12942800Y-13385130D01*
X12892800Y-13335130D02*
X12992800Y-13335130D01*
X13967400Y-6338100D02*
X13967400Y-6438100D01*
X13917400Y-6388100D02*
X14017400Y-6388100D01*
X13967400Y-6592100D02*
X13967400Y-6692100D01*
X13917400Y-6642100D02*
X14017400Y-6642100D01*
X14007600Y-10846600D02*
X14007600Y-10946600D01*
X13957600Y-10896600D02*
X14057600Y-10896600D01*
X14221400Y-6338100D02*
X14221400Y-6438100D01*
X14171400Y-6388100D02*
X14271400Y-6388100D01*
X14221400Y-6592100D02*
X14221400Y-6692100D01*
X14171400Y-6642100D02*
X14271400Y-6642100D01*
X14261600Y-10846600D02*
X14261600Y-10946600D01*
X14211600Y-10896600D02*
X14311600Y-10896600D01*
X14475400Y-6338100D02*
X14475400Y-6438100D01*
X14425400Y-6388100D02*
X14525400Y-6388100D01*
X14475400Y-6592100D02*
X14475400Y-6692100D01*
X14425400Y-6642100D02*
X14525400Y-6642100D01*
X14515600Y-10846600D02*
X14515600Y-10946600D01*
X14465600Y-10896600D02*
X14565600Y-10896600D01*
X14729400Y-6338100D02*
X14729400Y-6438100D01*
X14679400Y-6388100D02*
X14779400Y-6388100D01*
X14729400Y-6592100D02*
X14729400Y-6692100D01*
X14679400Y-6642100D02*
X14779400Y-6642100D01*
X14769600Y-10846600D02*
X14769600Y-10946600D01*
X14719600Y-10896600D02*
X14819600Y-10896600D01*
X14983400Y-6338100D02*
X14983400Y-6438100D01*
X14933400Y-6388100D02*
X15033400Y-6388100D01*
X14983400Y-6592100D02*
X14983400Y-6692100D01*
X14933400Y-6642100D02*
X15033400Y-6642100D01*
X15023600Y-10846600D02*
X15023600Y-10946600D01*
X14973600Y-10896600D02*
X15073600Y-10896600D01*
X15237400Y-6338100D02*
X15237400Y-6438100D01*
X15187400Y-6388100D02*
X15287400Y-6388100D01*
X15237400Y-6592100D02*
X15237400Y-6692100D01*
X15187400Y-6642100D02*
X15287400Y-6642100D01*
X15240000Y-7747800D02*
X15240000Y-7847800D01*
X15190000Y-7797800D02*
X15290000Y-7797800D01*
X15240000Y-8001800D02*
X15240000Y-8101800D01*
X15190000Y-8051800D02*
X15290000Y-8051800D01*
X15240000Y-8255800D02*
X15240000Y-8355800D01*
X15190000Y-8305800D02*
X15290000Y-8305800D01*
X15491400Y-6338100D02*
X15491400Y-6438100D01*
X15441400Y-6388100D02*
X15541400Y-6388100D01*
X15491400Y-6592100D02*
X15491400Y-6692100D01*
X15441400Y-6642100D02*
X15541400Y-6642100D01*
X15745400Y-6338100D02*
X15745400Y-6438100D01*
X15695400Y-6388100D02*
X15795400Y-6388100D01*
X15745400Y-6592100D02*
X15745400Y-6692100D01*
X15695400Y-6642100D02*
X15795400Y-6642100D01*
X15773400Y-7722400D02*
X15773400Y-7822400D01*
X15723400Y-7772400D02*
X15823400Y-7772400D01*
X15773400Y-7976400D02*
X15773400Y-8076400D01*
X15723400Y-8026400D02*
X15823400Y-8026400D01*
X15773400Y-8230400D02*
X15773400Y-8330400D01*
X15723400Y-8280400D02*
X15823400Y-8280400D01*
X15773400Y-8484400D02*
X15773400Y-8584400D01*
X15723400Y-8534400D02*
X15823400Y-8534400D01*
X15773400Y-8738400D02*
X15773400Y-8838400D01*
X15723400Y-8788400D02*
X15823400Y-8788400D01*
X15773400Y-8992400D02*
X15773400Y-9092400D01*
X15723400Y-9042400D02*
X15823400Y-9042400D01*
X15862300Y-9500400D02*
X15862300Y-9600400D01*
X15812300Y-9550400D02*
X15912300Y-9550400D01*
X16116300Y-9500400D02*
X16116300Y-9600400D01*
X16066300Y-9550400D02*
X16166300Y-9550400D01*
X16370300Y-9500400D02*
X16370300Y-9600400D01*
X16320300Y-9550400D02*
X16420300Y-9550400D01*
X16624300Y-9500400D02*
X16624300Y-9600400D01*
X16574300Y-9550400D02*
X16674300Y-9550400D01*
X16878300Y-9500400D02*
X16878300Y-9600400D01*
X16828300Y-9550400D02*
X16928300Y-9550400D01*
X17132300Y-9500400D02*
X17132300Y-9600400D01*
X17082300Y-9550400D02*
X17182300Y-9550400D01*
D14*
X12497591Y-6312691D02*
X12497591Y-6234909D01*
X12419809Y-6234909D01*
X12419809Y-6312691D01*
X12497591Y-6312691D01*
X12497591Y-6762691D02*
X12497591Y-6684909D01*
X12419809Y-6684909D01*
X12419809Y-6762691D01*
X12497591Y-6762691D01*
X13147591Y-6312691D02*
X13147591Y-6234909D01*
X13069809Y-6234909D01*
X13069809Y-6312691D01*
X13147591Y-6312691D01*
X13147591Y-6762691D02*
X13147591Y-6684909D01*
X13069809Y-6684909D01*
X13069809Y-6762691D01*
X13147591Y-6762691D01*
X16637791Y-6312691D02*
X16637791Y-6234909D01*
X16560009Y-6234909D01*
X16560009Y-6312691D01*
X16637791Y-6312691D01*
X16637791Y-6762691D02*
X16637791Y-6684909D01*
X16560009Y-6684909D01*
X16560009Y-6762691D01*
X16637791Y-6762691D01*
X17287791Y-6312691D02*
X17287791Y-6234909D01*
X17210009Y-6234909D01*
X17210009Y-6312691D01*
X17287791Y-6312691D01*
X17287791Y-6762691D02*
X17287791Y-6684909D01*
X17210009Y-6684909D01*
X17210009Y-6762691D01*
X17287791Y-6762691D01*
D10*
X12305229Y-15363336D02*
X12305229Y-15163336D01*
X12352848Y-15163336D01*
X12381419Y-15172860D01*
X12400467Y-15191908D01*
X12409991Y-15210955D01*
X12419515Y-15249050D01*
X12419515Y-15277622D01*
X12409991Y-15315717D01*
X12400467Y-15334765D01*
X12381419Y-15353812D01*
X12352848Y-15363336D01*
X12305229Y-15363336D01*
X12505229Y-15363336D02*
X12505229Y-15230003D01*
X12505229Y-15268098D02*
X12514753Y-15249050D01*
X12524277Y-15239527D01*
X12543324Y-15230003D01*
X12562372Y-15230003D01*
X12629038Y-15363336D02*
X12629038Y-15230003D01*
X12629038Y-15163336D02*
X12619515Y-15172860D01*
X12629038Y-15182384D01*
X12638562Y-15172860D01*
X12629038Y-15163336D01*
X12629038Y-15182384D01*
X12752848Y-15363336D02*
X12733800Y-15353812D01*
X12724277Y-15334765D01*
X12724277Y-15163336D01*
X12857610Y-15363336D02*
X12838562Y-15353812D01*
X12829038Y-15334765D01*
X12829038Y-15163336D01*
X13086181Y-15363336D02*
X13086181Y-15163336D01*
X13152848Y-15306193D01*
X13219515Y-15163336D01*
X13219515Y-15363336D01*
X13400467Y-15363336D02*
X13400467Y-15258574D01*
X13390943Y-15239527D01*
X13371896Y-15230003D01*
X13333800Y-15230003D01*
X13314753Y-15239527D01*
X13400467Y-15353812D02*
X13381419Y-15363336D01*
X13333800Y-15363336D01*
X13314753Y-15353812D01*
X13305229Y-15334765D01*
X13305229Y-15315717D01*
X13314753Y-15296669D01*
X13333800Y-15287146D01*
X13381419Y-15287146D01*
X13400467Y-15277622D01*
X13495705Y-15230003D02*
X13495705Y-15430003D01*
X13495705Y-15239527D02*
X13514753Y-15230003D01*
X13552848Y-15230003D01*
X13571896Y-15239527D01*
X13581419Y-15249050D01*
X13590943Y-15268098D01*
X13590943Y-15325241D01*
X13581419Y-15344288D01*
X13571896Y-15353812D01*
X13552848Y-15363336D01*
X13514753Y-15363336D01*
X13495705Y-15353812D01*
X13676658Y-15344288D02*
X13686181Y-15353812D01*
X13676658Y-15363336D01*
X13667134Y-15353812D01*
X13676658Y-15344288D01*
X13676658Y-15363336D01*
X13676658Y-15239527D02*
X13686181Y-15249050D01*
X13676658Y-15258574D01*
X13667134Y-15249050D01*
X13676658Y-15239527D01*
X13676658Y-15258574D01*
D11*
X12007610Y-15672860D02*
X12047610Y-15712860D01*
X12047610Y-15672860D02*
X12007610Y-15712860D01*
D10*
X12343324Y-15583336D02*
X12362372Y-15583336D01*
X12381419Y-15592860D01*
X12390943Y-15602384D01*
X12400467Y-15621431D01*
X12409991Y-15659527D01*
X12409991Y-15707146D01*
X12400467Y-15745241D01*
X12390943Y-15764288D01*
X12381419Y-15773812D01*
X12362372Y-15783336D01*
X12343324Y-15783336D01*
X12324277Y-15773812D01*
X12314753Y-15764288D01*
X12305229Y-15745241D01*
X12295705Y-15707146D01*
X12295705Y-15659527D01*
X12305229Y-15621431D01*
X12314753Y-15602384D01*
X12324277Y-15592860D01*
X12343324Y-15583336D01*
X12495705Y-15764288D02*
X12505229Y-15773812D01*
X12495705Y-15783336D01*
X12486181Y-15773812D01*
X12495705Y-15764288D01*
X12495705Y-15783336D01*
X12676658Y-15650003D02*
X12676658Y-15783336D01*
X12629038Y-15573812D02*
X12581419Y-15716669D01*
X12705229Y-15716669D01*
X12819515Y-15583336D02*
X12838562Y-15583336D01*
X12857610Y-15592860D01*
X12867134Y-15602384D01*
X12876658Y-15621431D01*
X12886181Y-15659527D01*
X12886181Y-15707146D01*
X12876658Y-15745241D01*
X12867134Y-15764288D01*
X12857610Y-15773812D01*
X12838562Y-15783336D01*
X12819515Y-15783336D01*
X12800467Y-15773812D01*
X12790943Y-15764288D01*
X12781419Y-15745241D01*
X12771896Y-15707146D01*
X12771896Y-15659527D01*
X12781419Y-15621431D01*
X12790943Y-15602384D01*
X12800467Y-15592860D01*
X12819515Y-15583336D01*
X13009991Y-15583336D02*
X13029038Y-15583336D01*
X13048086Y-15592860D01*
X13057610Y-15602384D01*
X13067134Y-15621431D01*
X13076658Y-15659527D01*
X13076658Y-15707146D01*
X13067134Y-15745241D01*
X13057610Y-15764288D01*
X13048086Y-15773812D01*
X13029038Y-15783336D01*
X13009991Y-15783336D01*
X12990943Y-15773812D01*
X12981419Y-15764288D01*
X12971896Y-15745241D01*
X12962372Y-15707146D01*
X12962372Y-15659527D01*
X12971896Y-15621431D01*
X12981419Y-15602384D01*
X12990943Y-15592860D01*
X13009991Y-15583336D01*
X13162372Y-15783336D02*
X13162372Y-15650003D01*
X13162372Y-15669050D02*
X13171896Y-15659527D01*
X13190943Y-15650003D01*
X13219515Y-15650003D01*
X13238562Y-15659527D01*
X13248086Y-15678574D01*
X13248086Y-15783336D01*
X13248086Y-15678574D02*
X13257610Y-15659527D01*
X13276658Y-15650003D01*
X13305229Y-15650003D01*
X13324277Y-15659527D01*
X13333800Y-15678574D01*
X13333800Y-15783336D01*
X13429038Y-15783336D02*
X13429038Y-15650003D01*
X13429038Y-15669050D02*
X13438562Y-15659527D01*
X13457610Y-15650003D01*
X13486181Y-15650003D01*
X13505229Y-15659527D01*
X13514753Y-15678574D01*
X13514753Y-15783336D01*
X13514753Y-15678574D02*
X13524277Y-15659527D01*
X13543324Y-15650003D01*
X13571896Y-15650003D01*
X13590943Y-15659527D01*
X13600467Y-15678574D01*
X13600467Y-15783336D01*
X13990943Y-15573812D02*
X13819515Y-15830955D01*
X14248086Y-15583336D02*
X14267134Y-15583336D01*
X14286181Y-15592860D01*
X14295705Y-15602384D01*
X14305229Y-15621431D01*
X14314753Y-15659527D01*
X14314753Y-15707146D01*
X14305229Y-15745241D01*
X14295705Y-15764288D01*
X14286181Y-15773812D01*
X14267134Y-15783336D01*
X14248086Y-15783336D01*
X14229038Y-15773812D01*
X14219515Y-15764288D01*
X14209991Y-15745241D01*
X14200467Y-15707146D01*
X14200467Y-15659527D01*
X14209991Y-15621431D01*
X14219515Y-15602384D01*
X14229038Y-15592860D01*
X14248086Y-15583336D01*
X14400467Y-15764288D02*
X14409991Y-15773812D01*
X14400467Y-15783336D01*
X14390943Y-15773812D01*
X14400467Y-15764288D01*
X14400467Y-15783336D01*
X14533800Y-15583336D02*
X14552848Y-15583336D01*
X14571896Y-15592860D01*
X14581419Y-15602384D01*
X14590943Y-15621431D01*
X14600467Y-15659527D01*
X14600467Y-15707146D01*
X14590943Y-15745241D01*
X14581419Y-15764288D01*
X14571896Y-15773812D01*
X14552848Y-15783336D01*
X14533800Y-15783336D01*
X14514753Y-15773812D01*
X14505229Y-15764288D01*
X14495705Y-15745241D01*
X14486181Y-15707146D01*
X14486181Y-15659527D01*
X14495705Y-15621431D01*
X14505229Y-15602384D01*
X14514753Y-15592860D01*
X14533800Y-15583336D01*
X14790943Y-15783336D02*
X14676658Y-15783336D01*
X14733800Y-15783336D02*
X14733800Y-15583336D01*
X14714753Y-15611908D01*
X14695705Y-15630955D01*
X14676658Y-15640479D01*
X14971896Y-15583336D02*
X14876658Y-15583336D01*
X14867134Y-15678574D01*
X14876658Y-15669050D01*
X14895705Y-15659527D01*
X14943324Y-15659527D01*
X14962372Y-15669050D01*
X14971896Y-15678574D01*
X14981419Y-15697622D01*
X14981419Y-15745241D01*
X14971896Y-15764288D01*
X14962372Y-15773812D01*
X14943324Y-15783336D01*
X14895705Y-15783336D01*
X14876658Y-15773812D01*
X14867134Y-15764288D01*
X15048086Y-15583336D02*
X15181419Y-15583336D01*
X15095705Y-15783336D01*
X15248086Y-15583336D02*
X15248086Y-15621431D01*
X15324277Y-15583336D02*
X15324277Y-15621431D01*
X15619515Y-15859527D02*
X15609991Y-15850003D01*
X15590943Y-15821431D01*
X15581419Y-15802384D01*
X15571896Y-15773812D01*
X15562372Y-15726193D01*
X15562372Y-15688098D01*
X15571896Y-15640479D01*
X15581419Y-15611908D01*
X15590943Y-15592860D01*
X15609991Y-15564288D01*
X15619515Y-15554765D01*
X15800467Y-15783336D02*
X15686181Y-15783336D01*
X15743324Y-15783336D02*
X15743324Y-15583336D01*
X15724277Y-15611908D01*
X15705229Y-15630955D01*
X15686181Y-15640479D01*
X15981419Y-15583336D02*
X15886181Y-15583336D01*
X15876658Y-15678574D01*
X15886181Y-15669050D01*
X15905229Y-15659527D01*
X15952848Y-15659527D01*
X15971896Y-15669050D01*
X15981419Y-15678574D01*
X15990943Y-15697622D01*
X15990943Y-15745241D01*
X15981419Y-15764288D01*
X15971896Y-15773812D01*
X15952848Y-15783336D01*
X15905229Y-15783336D01*
X15886181Y-15773812D01*
X15876658Y-15764288D01*
X16086181Y-15783336D02*
X16124277Y-15783336D01*
X16143324Y-15773812D01*
X16152848Y-15764288D01*
X16171896Y-15735717D01*
X16181419Y-15697622D01*
X16181419Y-15621431D01*
X16171896Y-15602384D01*
X16162372Y-15592860D01*
X16143324Y-15583336D01*
X16105229Y-15583336D01*
X16086181Y-15592860D01*
X16076658Y-15602384D01*
X16067134Y-15621431D01*
X16067134Y-15669050D01*
X16076658Y-15688098D01*
X16086181Y-15697622D01*
X16105229Y-15707146D01*
X16143324Y-15707146D01*
X16162372Y-15697622D01*
X16171896Y-15688098D01*
X16181419Y-15669050D01*
X16419515Y-15783336D02*
X16419515Y-15583336D01*
X16505229Y-15783336D02*
X16505229Y-15678574D01*
X16495705Y-15659527D01*
X16476658Y-15650003D01*
X16448086Y-15650003D01*
X16429038Y-15659527D01*
X16419515Y-15669050D01*
X16629038Y-15783336D02*
X16609991Y-15773812D01*
X16600467Y-15764288D01*
X16590943Y-15745241D01*
X16590943Y-15688098D01*
X16600467Y-15669050D01*
X16609991Y-15659527D01*
X16629038Y-15650003D01*
X16657610Y-15650003D01*
X16676658Y-15659527D01*
X16686181Y-15669050D01*
X16695705Y-15688098D01*
X16695705Y-15745241D01*
X16686181Y-15764288D01*
X16676658Y-15773812D01*
X16657610Y-15783336D01*
X16629038Y-15783336D01*
X16809991Y-15783336D02*
X16790943Y-15773812D01*
X16781420Y-15754765D01*
X16781420Y-15583336D01*
X16962372Y-15773812D02*
X16943324Y-15783336D01*
X16905229Y-15783336D01*
X16886181Y-15773812D01*
X16876658Y-15754765D01*
X16876658Y-15678574D01*
X16886181Y-15659527D01*
X16905229Y-15650003D01*
X16943324Y-15650003D01*
X16962372Y-15659527D01*
X16971896Y-15678574D01*
X16971896Y-15697622D01*
X16876658Y-15716669D01*
X17048086Y-15773812D02*
X17067134Y-15783336D01*
X17105229Y-15783336D01*
X17124277Y-15773812D01*
X17133800Y-15754765D01*
X17133800Y-15745241D01*
X17124277Y-15726193D01*
X17105229Y-15716669D01*
X17076658Y-15716669D01*
X17057610Y-15707146D01*
X17048086Y-15688098D01*
X17048086Y-15678574D01*
X17057610Y-15659527D01*
X17076658Y-15650003D01*
X17105229Y-15650003D01*
X17124277Y-15659527D01*
X17200467Y-15859527D02*
X17209991Y-15850003D01*
X17229039Y-15821431D01*
X17238562Y-15802384D01*
X17248086Y-15773812D01*
X17257610Y-15726193D01*
X17257610Y-15688098D01*
X17248086Y-15640479D01*
X17238562Y-15611908D01*
X17229039Y-15592860D01*
X17209991Y-15564288D01*
X17200467Y-15554765D01*
D12*
X12047610Y-15956860D02*
G75*
G03*
X12047610Y-15956860I-40000J0D01*
G01*
D10*
X12343324Y-15847336D02*
X12362372Y-15847336D01*
X12381419Y-15856860D01*
X12390943Y-15866384D01*
X12400467Y-15885431D01*
X12409991Y-15923527D01*
X12409991Y-15971146D01*
X12400467Y-16009241D01*
X12390943Y-16028288D01*
X12381419Y-16037812D01*
X12362372Y-16047336D01*
X12343324Y-16047336D01*
X12324277Y-16037812D01*
X12314753Y-16028288D01*
X12305229Y-16009241D01*
X12295705Y-15971146D01*
X12295705Y-15923527D01*
X12305229Y-15885431D01*
X12314753Y-15866384D01*
X12324277Y-15856860D01*
X12343324Y-15847336D01*
X12495705Y-16028288D02*
X12505229Y-16037812D01*
X12495705Y-16047336D01*
X12486181Y-16037812D01*
X12495705Y-16028288D01*
X12495705Y-16047336D01*
X12619515Y-15933050D02*
X12600467Y-15923527D01*
X12590943Y-15914003D01*
X12581419Y-15894955D01*
X12581419Y-15885431D01*
X12590943Y-15866384D01*
X12600467Y-15856860D01*
X12619515Y-15847336D01*
X12657610Y-15847336D01*
X12676658Y-15856860D01*
X12686181Y-15866384D01*
X12695705Y-15885431D01*
X12695705Y-15894955D01*
X12686181Y-15914003D01*
X12676658Y-15923527D01*
X12657610Y-15933050D01*
X12619515Y-15933050D01*
X12600467Y-15942574D01*
X12590943Y-15952098D01*
X12581419Y-15971146D01*
X12581419Y-16009241D01*
X12590943Y-16028288D01*
X12600467Y-16037812D01*
X12619515Y-16047336D01*
X12657610Y-16047336D01*
X12676658Y-16037812D01*
X12686181Y-16028288D01*
X12695705Y-16009241D01*
X12695705Y-15971146D01*
X12686181Y-15952098D01*
X12676658Y-15942574D01*
X12657610Y-15933050D01*
X12819515Y-15847336D02*
X12838562Y-15847336D01*
X12857610Y-15856860D01*
X12867134Y-15866384D01*
X12876658Y-15885431D01*
X12886181Y-15923527D01*
X12886181Y-15971146D01*
X12876658Y-16009241D01*
X12867134Y-16028288D01*
X12857610Y-16037812D01*
X12838562Y-16047336D01*
X12819515Y-16047336D01*
X12800467Y-16037812D01*
X12790943Y-16028288D01*
X12781419Y-16009241D01*
X12771896Y-15971146D01*
X12771896Y-15923527D01*
X12781419Y-15885431D01*
X12790943Y-15866384D01*
X12800467Y-15856860D01*
X12819515Y-15847336D01*
X13009991Y-15847336D02*
X13029038Y-15847336D01*
X13048086Y-15856860D01*
X13057610Y-15866384D01*
X13067134Y-15885431D01*
X13076658Y-15923527D01*
X13076658Y-15971146D01*
X13067134Y-16009241D01*
X13057610Y-16028288D01*
X13048086Y-16037812D01*
X13029038Y-16047336D01*
X13009991Y-16047336D01*
X12990943Y-16037812D01*
X12981419Y-16028288D01*
X12971896Y-16009241D01*
X12962372Y-15971146D01*
X12962372Y-15923527D01*
X12971896Y-15885431D01*
X12981419Y-15866384D01*
X12990943Y-15856860D01*
X13009991Y-15847336D01*
X13162372Y-16047336D02*
X13162372Y-15914003D01*
X13162372Y-15933050D02*
X13171896Y-15923527D01*
X13190943Y-15914003D01*
X13219515Y-15914003D01*
X13238562Y-15923527D01*
X13248086Y-15942574D01*
X13248086Y-16047336D01*
X13248086Y-15942574D02*
X13257610Y-15923527D01*
X13276658Y-15914003D01*
X13305229Y-15914003D01*
X13324277Y-15923527D01*
X13333800Y-15942574D01*
X13333800Y-16047336D01*
X13429038Y-16047336D02*
X13429038Y-15914003D01*
X13429038Y-15933050D02*
X13438562Y-15923527D01*
X13457610Y-15914003D01*
X13486181Y-15914003D01*
X13505229Y-15923527D01*
X13514753Y-15942574D01*
X13514753Y-16047336D01*
X13514753Y-15942574D02*
X13524277Y-15923527D01*
X13543324Y-15914003D01*
X13571896Y-15914003D01*
X13590943Y-15923527D01*
X13600467Y-15942574D01*
X13600467Y-16047336D01*
X13990943Y-15837812D02*
X13819515Y-16094955D01*
X14248086Y-15847336D02*
X14267134Y-15847336D01*
X14286181Y-15856860D01*
X14295705Y-15866384D01*
X14305229Y-15885431D01*
X14314753Y-15923527D01*
X14314753Y-15971146D01*
X14305229Y-16009241D01*
X14295705Y-16028288D01*
X14286181Y-16037812D01*
X14267134Y-16047336D01*
X14248086Y-16047336D01*
X14229038Y-16037812D01*
X14219515Y-16028288D01*
X14209991Y-16009241D01*
X14200467Y-15971146D01*
X14200467Y-15923527D01*
X14209991Y-15885431D01*
X14219515Y-15866384D01*
X14229038Y-15856860D01*
X14248086Y-15847336D01*
X14400467Y-16028288D02*
X14409991Y-16037812D01*
X14400467Y-16047336D01*
X14390943Y-16037812D01*
X14400467Y-16028288D01*
X14400467Y-16047336D01*
X14533800Y-15847336D02*
X14552848Y-15847336D01*
X14571896Y-15856860D01*
X14581419Y-15866384D01*
X14590943Y-15885431D01*
X14600467Y-15923527D01*
X14600467Y-15971146D01*
X14590943Y-16009241D01*
X14581419Y-16028288D01*
X14571896Y-16037812D01*
X14552848Y-16047336D01*
X14533800Y-16047336D01*
X14514753Y-16037812D01*
X14505229Y-16028288D01*
X14495705Y-16009241D01*
X14486181Y-15971146D01*
X14486181Y-15923527D01*
X14495705Y-15885431D01*
X14505229Y-15866384D01*
X14514753Y-15856860D01*
X14533800Y-15847336D01*
X14667134Y-15847336D02*
X14790943Y-15847336D01*
X14724277Y-15923527D01*
X14752848Y-15923527D01*
X14771896Y-15933050D01*
X14781419Y-15942574D01*
X14790943Y-15961622D01*
X14790943Y-16009241D01*
X14781419Y-16028288D01*
X14771896Y-16037812D01*
X14752848Y-16047336D01*
X14695705Y-16047336D01*
X14676658Y-16037812D01*
X14667134Y-16028288D01*
X14981419Y-16047336D02*
X14867134Y-16047336D01*
X14924277Y-16047336D02*
X14924277Y-15847336D01*
X14905229Y-15875908D01*
X14886181Y-15894955D01*
X14867134Y-15904479D01*
X15162372Y-15847336D02*
X15067134Y-15847336D01*
X15057610Y-15942574D01*
X15067134Y-15933050D01*
X15086181Y-15923527D01*
X15133800Y-15923527D01*
X15152848Y-15933050D01*
X15162372Y-15942574D01*
X15171896Y-15961622D01*
X15171896Y-16009241D01*
X15162372Y-16028288D01*
X15152848Y-16037812D01*
X15133800Y-16047336D01*
X15086181Y-16047336D01*
X15067134Y-16037812D01*
X15057610Y-16028288D01*
X15248086Y-15847336D02*
X15248086Y-15885431D01*
X15324277Y-15847336D02*
X15324277Y-15885431D01*
X15619515Y-16123527D02*
X15609991Y-16114003D01*
X15590943Y-16085431D01*
X15581419Y-16066384D01*
X15571896Y-16037812D01*
X15562372Y-15990193D01*
X15562372Y-15952098D01*
X15571896Y-15904479D01*
X15581419Y-15875908D01*
X15590943Y-15856860D01*
X15609991Y-15828288D01*
X15619515Y-15818765D01*
X15790943Y-15847336D02*
X15695705Y-15847336D01*
X15686181Y-15942574D01*
X15695705Y-15933050D01*
X15714753Y-15923527D01*
X15762372Y-15923527D01*
X15781419Y-15933050D01*
X15790943Y-15942574D01*
X15800467Y-15961622D01*
X15800467Y-16009241D01*
X15790943Y-16028288D01*
X15781419Y-16037812D01*
X15762372Y-16047336D01*
X15714753Y-16047336D01*
X15695705Y-16037812D01*
X15686181Y-16028288D01*
X15971896Y-15847336D02*
X15933800Y-15847336D01*
X15914753Y-15856860D01*
X15905229Y-15866384D01*
X15886181Y-15894955D01*
X15876658Y-15933050D01*
X15876658Y-16009241D01*
X15886181Y-16028288D01*
X15895705Y-16037812D01*
X15914753Y-16047336D01*
X15952848Y-16047336D01*
X15971896Y-16037812D01*
X15981419Y-16028288D01*
X15990943Y-16009241D01*
X15990943Y-15961622D01*
X15981419Y-15942574D01*
X15971896Y-15933050D01*
X15952848Y-15923527D01*
X15914753Y-15923527D01*
X15895705Y-15933050D01*
X15886181Y-15942574D01*
X15876658Y-15961622D01*
X16229038Y-16047336D02*
X16229038Y-15847336D01*
X16314753Y-16047336D02*
X16314753Y-15942574D01*
X16305229Y-15923527D01*
X16286181Y-15914003D01*
X16257610Y-15914003D01*
X16238562Y-15923527D01*
X16229038Y-15933050D01*
X16438562Y-16047336D02*
X16419515Y-16037812D01*
X16409991Y-16028288D01*
X16400467Y-16009241D01*
X16400467Y-15952098D01*
X16409991Y-15933050D01*
X16419515Y-15923527D01*
X16438562Y-15914003D01*
X16467134Y-15914003D01*
X16486181Y-15923527D01*
X16495705Y-15933050D01*
X16505229Y-15952098D01*
X16505229Y-16009241D01*
X16495705Y-16028288D01*
X16486181Y-16037812D01*
X16467134Y-16047336D01*
X16438562Y-16047336D01*
X16619515Y-16047336D02*
X16600467Y-16037812D01*
X16590943Y-16018765D01*
X16590943Y-15847336D01*
X16771896Y-16037812D02*
X16752848Y-16047336D01*
X16714753Y-16047336D01*
X16695705Y-16037812D01*
X16686181Y-16018765D01*
X16686181Y-15942574D01*
X16695705Y-15923527D01*
X16714753Y-15914003D01*
X16752848Y-15914003D01*
X16771896Y-15923527D01*
X16781420Y-15942574D01*
X16781420Y-15961622D01*
X16686181Y-15980669D01*
X16857610Y-16037812D02*
X16876658Y-16047336D01*
X16914753Y-16047336D01*
X16933800Y-16037812D01*
X16943324Y-16018765D01*
X16943324Y-16009241D01*
X16933800Y-15990193D01*
X16914753Y-15980669D01*
X16886181Y-15980669D01*
X16867134Y-15971146D01*
X16857610Y-15952098D01*
X16857610Y-15942574D01*
X16867134Y-15923527D01*
X16886181Y-15914003D01*
X16914753Y-15914003D01*
X16933800Y-15923527D01*
X17009991Y-16123527D02*
X17019515Y-16114003D01*
X17038562Y-16085431D01*
X17048086Y-16066384D01*
X17057610Y-16037812D01*
X17067134Y-15990193D01*
X17067134Y-15952098D01*
X17057610Y-15904479D01*
X17048086Y-15875908D01*
X17038562Y-15856860D01*
X17019515Y-15828288D01*
X17009991Y-15818765D01*
D13*
X11997610Y-16170860D02*
X11997610Y-16270860D01*
X11947610Y-16220860D02*
X12047610Y-16220860D01*
D10*
X12409991Y-16311336D02*
X12295705Y-16311336D01*
X12352848Y-16311336D02*
X12352848Y-16111336D01*
X12333800Y-16139908D01*
X12314753Y-16158955D01*
X12295705Y-16168479D01*
X12495705Y-16292288D02*
X12505229Y-16301812D01*
X12495705Y-16311336D01*
X12486181Y-16301812D01*
X12495705Y-16292288D01*
X12495705Y-16311336D01*
X12629038Y-16111336D02*
X12648086Y-16111336D01*
X12667134Y-16120860D01*
X12676658Y-16130384D01*
X12686181Y-16149431D01*
X12695705Y-16187527D01*
X12695705Y-16235146D01*
X12686181Y-16273241D01*
X12676658Y-16292288D01*
X12667134Y-16301812D01*
X12648086Y-16311336D01*
X12629038Y-16311336D01*
X12609991Y-16301812D01*
X12600467Y-16292288D01*
X12590943Y-16273241D01*
X12581419Y-16235146D01*
X12581419Y-16187527D01*
X12590943Y-16149431D01*
X12600467Y-16130384D01*
X12609991Y-16120860D01*
X12629038Y-16111336D01*
X12819515Y-16111336D02*
X12838562Y-16111336D01*
X12857610Y-16120860D01*
X12867134Y-16130384D01*
X12876658Y-16149431D01*
X12886181Y-16187527D01*
X12886181Y-16235146D01*
X12876658Y-16273241D01*
X12867134Y-16292288D01*
X12857610Y-16301812D01*
X12838562Y-16311336D01*
X12819515Y-16311336D01*
X12800467Y-16301812D01*
X12790943Y-16292288D01*
X12781419Y-16273241D01*
X12771896Y-16235146D01*
X12771896Y-16187527D01*
X12781419Y-16149431D01*
X12790943Y-16130384D01*
X12800467Y-16120860D01*
X12819515Y-16111336D01*
X13009991Y-16111336D02*
X13029038Y-16111336D01*
X13048086Y-16120860D01*
X13057610Y-16130384D01*
X13067134Y-16149431D01*
X13076658Y-16187527D01*
X13076658Y-16235146D01*
X13067134Y-16273241D01*
X13057610Y-16292288D01*
X13048086Y-16301812D01*
X13029038Y-16311336D01*
X13009991Y-16311336D01*
X12990943Y-16301812D01*
X12981419Y-16292288D01*
X12971896Y-16273241D01*
X12962372Y-16235146D01*
X12962372Y-16187527D01*
X12971896Y-16149431D01*
X12981419Y-16130384D01*
X12990943Y-16120860D01*
X13009991Y-16111336D01*
X13162372Y-16311336D02*
X13162372Y-16178003D01*
X13162372Y-16197050D02*
X13171896Y-16187527D01*
X13190943Y-16178003D01*
X13219515Y-16178003D01*
X13238562Y-16187527D01*
X13248086Y-16206574D01*
X13248086Y-16311336D01*
X13248086Y-16206574D02*
X13257610Y-16187527D01*
X13276658Y-16178003D01*
X13305229Y-16178003D01*
X13324277Y-16187527D01*
X13333800Y-16206574D01*
X13333800Y-16311336D01*
X13429038Y-16311336D02*
X13429038Y-16178003D01*
X13429038Y-16197050D02*
X13438562Y-16187527D01*
X13457610Y-16178003D01*
X13486181Y-16178003D01*
X13505229Y-16187527D01*
X13514753Y-16206574D01*
X13514753Y-16311336D01*
X13514753Y-16206574D02*
X13524277Y-16187527D01*
X13543324Y-16178003D01*
X13571896Y-16178003D01*
X13590943Y-16187527D01*
X13600467Y-16206574D01*
X13600467Y-16311336D01*
X13990943Y-16101812D02*
X13819515Y-16358955D01*
X14248086Y-16111336D02*
X14267134Y-16111336D01*
X14286181Y-16120860D01*
X14295705Y-16130384D01*
X14305229Y-16149431D01*
X14314753Y-16187527D01*
X14314753Y-16235146D01*
X14305229Y-16273241D01*
X14295705Y-16292288D01*
X14286181Y-16301812D01*
X14267134Y-16311336D01*
X14248086Y-16311336D01*
X14229038Y-16301812D01*
X14219515Y-16292288D01*
X14209991Y-16273241D01*
X14200467Y-16235146D01*
X14200467Y-16187527D01*
X14209991Y-16149431D01*
X14219515Y-16130384D01*
X14229038Y-16120860D01*
X14248086Y-16111336D01*
X14400467Y-16292288D02*
X14409991Y-16301812D01*
X14400467Y-16311336D01*
X14390943Y-16301812D01*
X14400467Y-16292288D01*
X14400467Y-16311336D01*
X14533800Y-16111336D02*
X14552848Y-16111336D01*
X14571896Y-16120860D01*
X14581419Y-16130384D01*
X14590943Y-16149431D01*
X14600467Y-16187527D01*
X14600467Y-16235146D01*
X14590943Y-16273241D01*
X14581419Y-16292288D01*
X14571896Y-16301812D01*
X14552848Y-16311336D01*
X14533800Y-16311336D01*
X14514753Y-16301812D01*
X14505229Y-16292288D01*
X14495705Y-16273241D01*
X14486181Y-16235146D01*
X14486181Y-16187527D01*
X14495705Y-16149431D01*
X14505229Y-16130384D01*
X14514753Y-16120860D01*
X14533800Y-16111336D01*
X14667134Y-16111336D02*
X14790943Y-16111336D01*
X14724277Y-16187527D01*
X14752848Y-16187527D01*
X14771896Y-16197050D01*
X14781419Y-16206574D01*
X14790943Y-16225622D01*
X14790943Y-16273241D01*
X14781419Y-16292288D01*
X14771896Y-16301812D01*
X14752848Y-16311336D01*
X14695705Y-16311336D01*
X14676658Y-16301812D01*
X14667134Y-16292288D01*
X14886181Y-16311336D02*
X14924277Y-16311336D01*
X14943324Y-16301812D01*
X14952848Y-16292288D01*
X14971896Y-16263717D01*
X14981419Y-16225622D01*
X14981419Y-16149431D01*
X14971896Y-16130384D01*
X14962372Y-16120860D01*
X14943324Y-16111336D01*
X14905229Y-16111336D01*
X14886181Y-16120860D01*
X14876658Y-16130384D01*
X14867134Y-16149431D01*
X14867134Y-16197050D01*
X14876658Y-16216098D01*
X14886181Y-16225622D01*
X14905229Y-16235146D01*
X14943324Y-16235146D01*
X14962372Y-16225622D01*
X14971896Y-16216098D01*
X14981419Y-16197050D01*
X15152848Y-16178003D02*
X15152848Y-16311336D01*
X15105229Y-16101812D02*
X15057610Y-16244669D01*
X15181419Y-16244669D01*
X15248086Y-16111336D02*
X15248086Y-16149431D01*
X15324277Y-16111336D02*
X15324277Y-16149431D01*
X15619515Y-16387527D02*
X15609991Y-16378003D01*
X15590943Y-16349431D01*
X15581419Y-16330384D01*
X15571896Y-16301812D01*
X15562372Y-16254193D01*
X15562372Y-16216098D01*
X15571896Y-16168479D01*
X15581419Y-16139908D01*
X15590943Y-16120860D01*
X15609991Y-16092288D01*
X15619515Y-16082765D01*
X15676658Y-16111336D02*
X15800467Y-16111336D01*
X15733800Y-16187527D01*
X15762372Y-16187527D01*
X15781419Y-16197050D01*
X15790943Y-16206574D01*
X15800467Y-16225622D01*
X15800467Y-16273241D01*
X15790943Y-16292288D01*
X15781419Y-16301812D01*
X15762372Y-16311336D01*
X15705229Y-16311336D01*
X15686181Y-16301812D01*
X15676658Y-16292288D01*
X15895705Y-16311336D02*
X15933800Y-16311336D01*
X15952848Y-16301812D01*
X15962372Y-16292288D01*
X15981419Y-16263717D01*
X15990943Y-16225622D01*
X15990943Y-16149431D01*
X15981419Y-16130384D01*
X15971896Y-16120860D01*
X15952848Y-16111336D01*
X15914753Y-16111336D01*
X15895705Y-16120860D01*
X15886181Y-16130384D01*
X15876658Y-16149431D01*
X15876658Y-16197050D01*
X15886181Y-16216098D01*
X15895705Y-16225622D01*
X15914753Y-16235146D01*
X15952848Y-16235146D01*
X15971896Y-16225622D01*
X15981419Y-16216098D01*
X15990943Y-16197050D01*
X16229038Y-16311336D02*
X16229038Y-16111336D01*
X16314753Y-16311336D02*
X16314753Y-16206574D01*
X16305229Y-16187527D01*
X16286181Y-16178003D01*
X16257610Y-16178003D01*
X16238562Y-16187527D01*
X16229038Y-16197050D01*
X16438562Y-16311336D02*
X16419515Y-16301812D01*
X16409991Y-16292288D01*
X16400467Y-16273241D01*
X16400467Y-16216098D01*
X16409991Y-16197050D01*
X16419515Y-16187527D01*
X16438562Y-16178003D01*
X16467134Y-16178003D01*
X16486181Y-16187527D01*
X16495705Y-16197050D01*
X16505229Y-16216098D01*
X16505229Y-16273241D01*
X16495705Y-16292288D01*
X16486181Y-16301812D01*
X16467134Y-16311336D01*
X16438562Y-16311336D01*
X16619515Y-16311336D02*
X16600467Y-16301812D01*
X16590943Y-16282765D01*
X16590943Y-16111336D01*
X16771896Y-16301812D02*
X16752848Y-16311336D01*
X16714753Y-16311336D01*
X16695705Y-16301812D01*
X16686181Y-16282765D01*
X16686181Y-16206574D01*
X16695705Y-16187527D01*
X16714753Y-16178003D01*
X16752848Y-16178003D01*
X16771896Y-16187527D01*
X16781420Y-16206574D01*
X16781420Y-16225622D01*
X16686181Y-16244669D01*
X16857610Y-16301812D02*
X16876658Y-16311336D01*
X16914753Y-16311336D01*
X16933800Y-16301812D01*
X16943324Y-16282765D01*
X16943324Y-16273241D01*
X16933800Y-16254193D01*
X16914753Y-16244669D01*
X16886181Y-16244669D01*
X16867134Y-16235146D01*
X16857610Y-16216098D01*
X16857610Y-16206574D01*
X16867134Y-16187527D01*
X16886181Y-16178003D01*
X16914753Y-16178003D01*
X16933800Y-16187527D01*
X17009991Y-16387527D02*
X17019515Y-16378003D01*
X17038562Y-16349431D01*
X17048086Y-16330384D01*
X17057610Y-16301812D01*
X17067134Y-16254193D01*
X17067134Y-16216098D01*
X17057610Y-16168479D01*
X17048086Y-16139908D01*
X17038562Y-16120860D01*
X17019515Y-16092288D01*
X17009991Y-16082765D01*
D14*
X12031501Y-16523751D02*
X12031501Y-16445969D01*
X11953719Y-16445969D01*
X11953719Y-16523751D01*
X12031501Y-16523751D01*
D10*
X12409991Y-16575336D02*
X12295705Y-16575336D01*
X12352848Y-16575336D02*
X12352848Y-16375336D01*
X12333800Y-16403908D01*
X12314753Y-16422955D01*
X12295705Y-16432479D01*
X12495705Y-16556288D02*
X12505229Y-16565812D01*
X12495705Y-16575336D01*
X12486181Y-16565812D01*
X12495705Y-16556288D01*
X12495705Y-16575336D01*
X12695705Y-16575336D02*
X12581419Y-16575336D01*
X12638562Y-16575336D02*
X12638562Y-16375336D01*
X12619515Y-16403908D01*
X12600467Y-16422955D01*
X12581419Y-16432479D01*
X12819515Y-16375336D02*
X12838562Y-16375336D01*
X12857610Y-16384860D01*
X12867134Y-16394384D01*
X12876658Y-16413431D01*
X12886181Y-16451527D01*
X12886181Y-16499146D01*
X12876658Y-16537241D01*
X12867134Y-16556288D01*
X12857610Y-16565812D01*
X12838562Y-16575336D01*
X12819515Y-16575336D01*
X12800467Y-16565812D01*
X12790943Y-16556288D01*
X12781419Y-16537241D01*
X12771896Y-16499146D01*
X12771896Y-16451527D01*
X12781419Y-16413431D01*
X12790943Y-16394384D01*
X12800467Y-16384860D01*
X12819515Y-16375336D01*
X13009991Y-16375336D02*
X13029038Y-16375336D01*
X13048086Y-16384860D01*
X13057610Y-16394384D01*
X13067134Y-16413431D01*
X13076658Y-16451527D01*
X13076658Y-16499146D01*
X13067134Y-16537241D01*
X13057610Y-16556288D01*
X13048086Y-16565812D01*
X13029038Y-16575336D01*
X13009991Y-16575336D01*
X12990943Y-16565812D01*
X12981419Y-16556288D01*
X12971896Y-16537241D01*
X12962372Y-16499146D01*
X12962372Y-16451527D01*
X12971896Y-16413431D01*
X12981419Y-16394384D01*
X12990943Y-16384860D01*
X13009991Y-16375336D01*
X13162372Y-16575336D02*
X13162372Y-16442003D01*
X13162372Y-16461050D02*
X13171896Y-16451527D01*
X13190943Y-16442003D01*
X13219515Y-16442003D01*
X13238562Y-16451527D01*
X13248086Y-16470574D01*
X13248086Y-16575336D01*
X13248086Y-16470574D02*
X13257610Y-16451527D01*
X13276658Y-16442003D01*
X13305229Y-16442003D01*
X13324277Y-16451527D01*
X13333800Y-16470574D01*
X13333800Y-16575336D01*
X13429038Y-16575336D02*
X13429038Y-16442003D01*
X13429038Y-16461050D02*
X13438562Y-16451527D01*
X13457610Y-16442003D01*
X13486181Y-16442003D01*
X13505229Y-16451527D01*
X13514753Y-16470574D01*
X13514753Y-16575336D01*
X13514753Y-16470574D02*
X13524277Y-16451527D01*
X13543324Y-16442003D01*
X13571896Y-16442003D01*
X13590943Y-16451527D01*
X13600467Y-16470574D01*
X13600467Y-16575336D01*
X13990943Y-16365812D02*
X13819515Y-16622955D01*
X14248086Y-16375336D02*
X14267134Y-16375336D01*
X14286181Y-16384860D01*
X14295705Y-16394384D01*
X14305229Y-16413431D01*
X14314753Y-16451527D01*
X14314753Y-16499146D01*
X14305229Y-16537241D01*
X14295705Y-16556288D01*
X14286181Y-16565812D01*
X14267134Y-16575336D01*
X14248086Y-16575336D01*
X14229038Y-16565812D01*
X14219515Y-16556288D01*
X14209991Y-16537241D01*
X14200467Y-16499146D01*
X14200467Y-16451527D01*
X14209991Y-16413431D01*
X14219515Y-16394384D01*
X14229038Y-16384860D01*
X14248086Y-16375336D01*
X14400467Y-16556288D02*
X14409991Y-16565812D01*
X14400467Y-16575336D01*
X14390943Y-16565812D01*
X14400467Y-16556288D01*
X14400467Y-16575336D01*
X14533800Y-16375336D02*
X14552848Y-16375336D01*
X14571896Y-16384860D01*
X14581419Y-16394384D01*
X14590943Y-16413431D01*
X14600467Y-16451527D01*
X14600467Y-16499146D01*
X14590943Y-16537241D01*
X14581419Y-16556288D01*
X14571896Y-16565812D01*
X14552848Y-16575336D01*
X14533800Y-16575336D01*
X14514753Y-16565812D01*
X14505229Y-16556288D01*
X14495705Y-16537241D01*
X14486181Y-16499146D01*
X14486181Y-16451527D01*
X14495705Y-16413431D01*
X14505229Y-16394384D01*
X14514753Y-16384860D01*
X14533800Y-16375336D01*
X14771896Y-16442003D02*
X14771896Y-16575336D01*
X14724277Y-16365812D02*
X14676658Y-16508669D01*
X14800467Y-16508669D01*
X14857610Y-16375336D02*
X14981419Y-16375336D01*
X14914753Y-16451527D01*
X14943324Y-16451527D01*
X14962372Y-16461050D01*
X14971896Y-16470574D01*
X14981419Y-16489622D01*
X14981419Y-16537241D01*
X14971896Y-16556288D01*
X14962372Y-16565812D01*
X14943324Y-16575336D01*
X14886181Y-16575336D01*
X14867134Y-16565812D01*
X14857610Y-16556288D01*
X15048086Y-16375336D02*
X15171896Y-16375336D01*
X15105229Y-16451527D01*
X15133800Y-16451527D01*
X15152848Y-16461050D01*
X15162372Y-16470574D01*
X15171896Y-16489622D01*
X15171896Y-16537241D01*
X15162372Y-16556288D01*
X15152848Y-16565812D01*
X15133800Y-16575336D01*
X15076658Y-16575336D01*
X15057610Y-16565812D01*
X15048086Y-16556288D01*
X15248086Y-16375336D02*
X15248086Y-16413431D01*
X15324277Y-16375336D02*
X15324277Y-16413431D01*
X15619515Y-16651527D02*
X15609991Y-16642003D01*
X15590943Y-16613431D01*
X15581419Y-16594384D01*
X15571896Y-16565812D01*
X15562372Y-16518193D01*
X15562372Y-16480098D01*
X15571896Y-16432479D01*
X15581419Y-16403908D01*
X15590943Y-16384860D01*
X15609991Y-16356288D01*
X15619515Y-16346765D01*
X15724277Y-16461050D02*
X15705229Y-16451527D01*
X15695705Y-16442003D01*
X15686181Y-16422955D01*
X15686181Y-16413431D01*
X15695705Y-16394384D01*
X15705229Y-16384860D01*
X15724277Y-16375336D01*
X15762372Y-16375336D01*
X15781419Y-16384860D01*
X15790943Y-16394384D01*
X15800467Y-16413431D01*
X15800467Y-16422955D01*
X15790943Y-16442003D01*
X15781419Y-16451527D01*
X15762372Y-16461050D01*
X15724277Y-16461050D01*
X15705229Y-16470574D01*
X15695705Y-16480098D01*
X15686181Y-16499146D01*
X15686181Y-16537241D01*
X15695705Y-16556288D01*
X15705229Y-16565812D01*
X15724277Y-16575336D01*
X15762372Y-16575336D01*
X15781419Y-16565812D01*
X15790943Y-16556288D01*
X15800467Y-16537241D01*
X15800467Y-16499146D01*
X15790943Y-16480098D01*
X15781419Y-16470574D01*
X15762372Y-16461050D01*
X16038562Y-16575336D02*
X16038562Y-16375336D01*
X16124277Y-16575336D02*
X16124277Y-16470574D01*
X16114753Y-16451527D01*
X16095705Y-16442003D01*
X16067134Y-16442003D01*
X16048086Y-16451527D01*
X16038562Y-16461050D01*
X16248086Y-16575336D02*
X16229038Y-16565812D01*
X16219515Y-16556288D01*
X16209991Y-16537241D01*
X16209991Y-16480098D01*
X16219515Y-16461050D01*
X16229038Y-16451527D01*
X16248086Y-16442003D01*
X16276658Y-16442003D01*
X16295705Y-16451527D01*
X16305229Y-16461050D01*
X16314753Y-16480098D01*
X16314753Y-16537241D01*
X16305229Y-16556288D01*
X16295705Y-16565812D01*
X16276658Y-16575336D01*
X16248086Y-16575336D01*
X16429038Y-16575336D02*
X16409991Y-16565812D01*
X16400467Y-16546765D01*
X16400467Y-16375336D01*
X16581419Y-16565812D02*
X16562372Y-16575336D01*
X16524277Y-16575336D01*
X16505229Y-16565812D01*
X16495705Y-16546765D01*
X16495705Y-16470574D01*
X16505229Y-16451527D01*
X16524277Y-16442003D01*
X16562372Y-16442003D01*
X16581419Y-16451527D01*
X16590943Y-16470574D01*
X16590943Y-16489622D01*
X16495705Y-16508669D01*
X16667134Y-16565812D02*
X16686181Y-16575336D01*
X16724277Y-16575336D01*
X16743324Y-16565812D01*
X16752848Y-16546765D01*
X16752848Y-16537241D01*
X16743324Y-16518193D01*
X16724277Y-16508669D01*
X16695705Y-16508669D01*
X16676658Y-16499146D01*
X16667134Y-16480098D01*
X16667134Y-16470574D01*
X16676658Y-16451527D01*
X16695705Y-16442003D01*
X16724277Y-16442003D01*
X16743324Y-16451527D01*
X16819515Y-16651527D02*
X16829039Y-16642003D01*
X16848086Y-16613431D01*
X16857610Y-16594384D01*
X16867134Y-16565812D01*
X16876658Y-16518193D01*
X16876658Y-16480098D01*
X16867134Y-16432479D01*
X16857610Y-16403908D01*
X16848086Y-16384860D01*
X16829039Y-16356288D01*
X16819515Y-16346765D01*
M02*
