%TF.GenerationSoftware,KiCad,Pcbnew,9.0.1*%
%TF.CreationDate,2025-11-08T15:48:17+01:00*%
%TF.ProjectId,tcbm2sd,7463626d-3273-4642-9e6b-696361645f70,1.4*%
%TF.SameCoordinates,Original*%
%TF.FileFunction,Drillmap*%
%TF.FilePolarity,Positive*%
%FSLAX45Y45*%
G04 Gerber Fmt 4.5, Leading zero omitted, Abs format (unit mm)*
G04 Created by KiCad (PCBNEW 9.0.1) date 2025-11-08 15:48:17*
%MOMM*%
%LPD*%
G01*
G04 APERTURE LIST*
%ADD10C,0.050000*%
%ADD11C,0.200000*%
%ADD12C,0.100000*%
%ADD13C,0.500000*%
G04 APERTURE END LIST*
D10*
X17650110Y-14050360D02*
X17450110Y-14050360D01*
X12050110Y-14050360D02*
X12050110Y-5950360D01*
X12050110Y-14050360D02*
X12250110Y-14050360D01*
X17350110Y-15050360D02*
X17450110Y-14950360D01*
X12050110Y-5950360D02*
X17650110Y-5950360D01*
X17450110Y-14950360D02*
X17450110Y-14050360D01*
X12250110Y-14950360D02*
X12250110Y-14050360D01*
X12350110Y-15050360D02*
X17350110Y-15050360D01*
X17650110Y-14050360D02*
X17650110Y-5950360D01*
X12350110Y-15050360D02*
X12250110Y-14950360D01*
D11*
D12*
X17474240Y-8037160D02*
X17574240Y-8137160D01*
X17574240Y-8037160D02*
X17474240Y-8137160D01*
X17474240Y-8835160D02*
X17574240Y-8935160D01*
X17574240Y-8835160D02*
X17474240Y-8935160D01*
D13*
X15100110Y-10200360D02*
G75*
G02*
X14600110Y-10200360I-250000J0D01*
G01*
X14600110Y-10200360D02*
G75*
G02*
X15100110Y-10200360I250000J0D01*
G01*
D11*
X12308387Y-15364344D02*
X12308387Y-15164344D01*
X12308387Y-15164344D02*
X12356006Y-15164344D01*
X12356006Y-15164344D02*
X12384577Y-15173868D01*
X12384577Y-15173868D02*
X12403625Y-15192915D01*
X12403625Y-15192915D02*
X12413149Y-15211963D01*
X12413149Y-15211963D02*
X12422672Y-15250058D01*
X12422672Y-15250058D02*
X12422672Y-15278629D01*
X12422672Y-15278629D02*
X12413149Y-15316725D01*
X12413149Y-15316725D02*
X12403625Y-15335772D01*
X12403625Y-15335772D02*
X12384577Y-15354820D01*
X12384577Y-15354820D02*
X12356006Y-15364344D01*
X12356006Y-15364344D02*
X12308387Y-15364344D01*
X12508387Y-15364344D02*
X12508387Y-15231010D01*
X12508387Y-15269106D02*
X12517911Y-15250058D01*
X12517911Y-15250058D02*
X12527434Y-15240534D01*
X12527434Y-15240534D02*
X12546482Y-15231010D01*
X12546482Y-15231010D02*
X12565530Y-15231010D01*
X12632196Y-15364344D02*
X12632196Y-15231010D01*
X12632196Y-15164344D02*
X12622672Y-15173868D01*
X12622672Y-15173868D02*
X12632196Y-15183391D01*
X12632196Y-15183391D02*
X12641720Y-15173868D01*
X12641720Y-15173868D02*
X12632196Y-15164344D01*
X12632196Y-15164344D02*
X12632196Y-15183391D01*
X12756006Y-15364344D02*
X12736958Y-15354820D01*
X12736958Y-15354820D02*
X12727434Y-15335772D01*
X12727434Y-15335772D02*
X12727434Y-15164344D01*
X12860768Y-15364344D02*
X12841720Y-15354820D01*
X12841720Y-15354820D02*
X12832196Y-15335772D01*
X12832196Y-15335772D02*
X12832196Y-15164344D01*
X13089339Y-15364344D02*
X13089339Y-15164344D01*
X13089339Y-15164344D02*
X13156006Y-15307201D01*
X13156006Y-15307201D02*
X13222672Y-15164344D01*
X13222672Y-15164344D02*
X13222672Y-15364344D01*
X13403625Y-15364344D02*
X13403625Y-15259582D01*
X13403625Y-15259582D02*
X13394101Y-15240534D01*
X13394101Y-15240534D02*
X13375053Y-15231010D01*
X13375053Y-15231010D02*
X13336958Y-15231010D01*
X13336958Y-15231010D02*
X13317911Y-15240534D01*
X13403625Y-15354820D02*
X13384577Y-15364344D01*
X13384577Y-15364344D02*
X13336958Y-15364344D01*
X13336958Y-15364344D02*
X13317911Y-15354820D01*
X13317911Y-15354820D02*
X13308387Y-15335772D01*
X13308387Y-15335772D02*
X13308387Y-15316725D01*
X13308387Y-15316725D02*
X13317911Y-15297677D01*
X13317911Y-15297677D02*
X13336958Y-15288153D01*
X13336958Y-15288153D02*
X13384577Y-15288153D01*
X13384577Y-15288153D02*
X13403625Y-15278629D01*
X13498863Y-15231010D02*
X13498863Y-15431010D01*
X13498863Y-15240534D02*
X13517911Y-15231010D01*
X13517911Y-15231010D02*
X13556006Y-15231010D01*
X13556006Y-15231010D02*
X13575053Y-15240534D01*
X13575053Y-15240534D02*
X13584577Y-15250058D01*
X13584577Y-15250058D02*
X13594101Y-15269106D01*
X13594101Y-15269106D02*
X13594101Y-15326248D01*
X13594101Y-15326248D02*
X13584577Y-15345296D01*
X13584577Y-15345296D02*
X13575053Y-15354820D01*
X13575053Y-15354820D02*
X13556006Y-15364344D01*
X13556006Y-15364344D02*
X13517911Y-15364344D01*
X13517911Y-15364344D02*
X13498863Y-15354820D01*
X13679815Y-15345296D02*
X13689339Y-15354820D01*
X13689339Y-15354820D02*
X13679815Y-15364344D01*
X13679815Y-15364344D02*
X13670292Y-15354820D01*
X13670292Y-15354820D02*
X13679815Y-15345296D01*
X13679815Y-15345296D02*
X13679815Y-15364344D01*
X13679815Y-15240534D02*
X13689339Y-15250058D01*
X13689339Y-15250058D02*
X13679815Y-15259582D01*
X13679815Y-15259582D02*
X13670292Y-15250058D01*
X13670292Y-15250058D02*
X13679815Y-15240534D01*
X13679815Y-15240534D02*
X13679815Y-15259582D01*
D12*
X11947610Y-15642860D02*
X12047610Y-15742860D01*
X12047610Y-15642860D02*
X11947610Y-15742860D01*
D11*
X12413149Y-15784344D02*
X12298863Y-15784344D01*
X12356006Y-15784344D02*
X12356006Y-15584344D01*
X12356006Y-15584344D02*
X12336958Y-15612915D01*
X12336958Y-15612915D02*
X12317911Y-15631963D01*
X12317911Y-15631963D02*
X12298863Y-15641487D01*
X12498863Y-15765296D02*
X12508387Y-15774820D01*
X12508387Y-15774820D02*
X12498863Y-15784344D01*
X12498863Y-15784344D02*
X12489339Y-15774820D01*
X12489339Y-15774820D02*
X12498863Y-15765296D01*
X12498863Y-15765296D02*
X12498863Y-15784344D01*
X12632196Y-15584344D02*
X12651244Y-15584344D01*
X12651244Y-15584344D02*
X12670292Y-15593868D01*
X12670292Y-15593868D02*
X12679815Y-15603391D01*
X12679815Y-15603391D02*
X12689339Y-15622439D01*
X12689339Y-15622439D02*
X12698863Y-15660534D01*
X12698863Y-15660534D02*
X12698863Y-15708153D01*
X12698863Y-15708153D02*
X12689339Y-15746248D01*
X12689339Y-15746248D02*
X12679815Y-15765296D01*
X12679815Y-15765296D02*
X12670292Y-15774820D01*
X12670292Y-15774820D02*
X12651244Y-15784344D01*
X12651244Y-15784344D02*
X12632196Y-15784344D01*
X12632196Y-15784344D02*
X12613149Y-15774820D01*
X12613149Y-15774820D02*
X12603625Y-15765296D01*
X12603625Y-15765296D02*
X12594101Y-15746248D01*
X12594101Y-15746248D02*
X12584577Y-15708153D01*
X12584577Y-15708153D02*
X12584577Y-15660534D01*
X12584577Y-15660534D02*
X12594101Y-15622439D01*
X12594101Y-15622439D02*
X12603625Y-15603391D01*
X12603625Y-15603391D02*
X12613149Y-15593868D01*
X12613149Y-15593868D02*
X12632196Y-15584344D01*
X12822672Y-15584344D02*
X12841720Y-15584344D01*
X12841720Y-15584344D02*
X12860768Y-15593868D01*
X12860768Y-15593868D02*
X12870292Y-15603391D01*
X12870292Y-15603391D02*
X12879815Y-15622439D01*
X12879815Y-15622439D02*
X12889339Y-15660534D01*
X12889339Y-15660534D02*
X12889339Y-15708153D01*
X12889339Y-15708153D02*
X12879815Y-15746248D01*
X12879815Y-15746248D02*
X12870292Y-15765296D01*
X12870292Y-15765296D02*
X12860768Y-15774820D01*
X12860768Y-15774820D02*
X12841720Y-15784344D01*
X12841720Y-15784344D02*
X12822672Y-15784344D01*
X12822672Y-15784344D02*
X12803625Y-15774820D01*
X12803625Y-15774820D02*
X12794101Y-15765296D01*
X12794101Y-15765296D02*
X12784577Y-15746248D01*
X12784577Y-15746248D02*
X12775053Y-15708153D01*
X12775053Y-15708153D02*
X12775053Y-15660534D01*
X12775053Y-15660534D02*
X12784577Y-15622439D01*
X12784577Y-15622439D02*
X12794101Y-15603391D01*
X12794101Y-15603391D02*
X12803625Y-15593868D01*
X12803625Y-15593868D02*
X12822672Y-15584344D01*
X13013149Y-15584344D02*
X13032196Y-15584344D01*
X13032196Y-15584344D02*
X13051244Y-15593868D01*
X13051244Y-15593868D02*
X13060768Y-15603391D01*
X13060768Y-15603391D02*
X13070292Y-15622439D01*
X13070292Y-15622439D02*
X13079815Y-15660534D01*
X13079815Y-15660534D02*
X13079815Y-15708153D01*
X13079815Y-15708153D02*
X13070292Y-15746248D01*
X13070292Y-15746248D02*
X13060768Y-15765296D01*
X13060768Y-15765296D02*
X13051244Y-15774820D01*
X13051244Y-15774820D02*
X13032196Y-15784344D01*
X13032196Y-15784344D02*
X13013149Y-15784344D01*
X13013149Y-15784344D02*
X12994101Y-15774820D01*
X12994101Y-15774820D02*
X12984577Y-15765296D01*
X12984577Y-15765296D02*
X12975053Y-15746248D01*
X12975053Y-15746248D02*
X12965530Y-15708153D01*
X12965530Y-15708153D02*
X12965530Y-15660534D01*
X12965530Y-15660534D02*
X12975053Y-15622439D01*
X12975053Y-15622439D02*
X12984577Y-15603391D01*
X12984577Y-15603391D02*
X12994101Y-15593868D01*
X12994101Y-15593868D02*
X13013149Y-15584344D01*
X13165530Y-15784344D02*
X13165530Y-15651010D01*
X13165530Y-15670058D02*
X13175053Y-15660534D01*
X13175053Y-15660534D02*
X13194101Y-15651010D01*
X13194101Y-15651010D02*
X13222673Y-15651010D01*
X13222673Y-15651010D02*
X13241720Y-15660534D01*
X13241720Y-15660534D02*
X13251244Y-15679582D01*
X13251244Y-15679582D02*
X13251244Y-15784344D01*
X13251244Y-15679582D02*
X13260768Y-15660534D01*
X13260768Y-15660534D02*
X13279815Y-15651010D01*
X13279815Y-15651010D02*
X13308387Y-15651010D01*
X13308387Y-15651010D02*
X13327434Y-15660534D01*
X13327434Y-15660534D02*
X13336958Y-15679582D01*
X13336958Y-15679582D02*
X13336958Y-15784344D01*
X13432196Y-15784344D02*
X13432196Y-15651010D01*
X13432196Y-15670058D02*
X13441720Y-15660534D01*
X13441720Y-15660534D02*
X13460768Y-15651010D01*
X13460768Y-15651010D02*
X13489339Y-15651010D01*
X13489339Y-15651010D02*
X13508387Y-15660534D01*
X13508387Y-15660534D02*
X13517911Y-15679582D01*
X13517911Y-15679582D02*
X13517911Y-15784344D01*
X13517911Y-15679582D02*
X13527434Y-15660534D01*
X13527434Y-15660534D02*
X13546482Y-15651010D01*
X13546482Y-15651010D02*
X13575053Y-15651010D01*
X13575053Y-15651010D02*
X13594101Y-15660534D01*
X13594101Y-15660534D02*
X13603625Y-15679582D01*
X13603625Y-15679582D02*
X13603625Y-15784344D01*
X13994101Y-15574820D02*
X13822673Y-15831963D01*
X14251244Y-15584344D02*
X14270292Y-15584344D01*
X14270292Y-15584344D02*
X14289339Y-15593868D01*
X14289339Y-15593868D02*
X14298863Y-15603391D01*
X14298863Y-15603391D02*
X14308387Y-15622439D01*
X14308387Y-15622439D02*
X14317911Y-15660534D01*
X14317911Y-15660534D02*
X14317911Y-15708153D01*
X14317911Y-15708153D02*
X14308387Y-15746248D01*
X14308387Y-15746248D02*
X14298863Y-15765296D01*
X14298863Y-15765296D02*
X14289339Y-15774820D01*
X14289339Y-15774820D02*
X14270292Y-15784344D01*
X14270292Y-15784344D02*
X14251244Y-15784344D01*
X14251244Y-15784344D02*
X14232196Y-15774820D01*
X14232196Y-15774820D02*
X14222673Y-15765296D01*
X14222673Y-15765296D02*
X14213149Y-15746248D01*
X14213149Y-15746248D02*
X14203625Y-15708153D01*
X14203625Y-15708153D02*
X14203625Y-15660534D01*
X14203625Y-15660534D02*
X14213149Y-15622439D01*
X14213149Y-15622439D02*
X14222673Y-15603391D01*
X14222673Y-15603391D02*
X14232196Y-15593868D01*
X14232196Y-15593868D02*
X14251244Y-15584344D01*
X14403625Y-15765296D02*
X14413149Y-15774820D01*
X14413149Y-15774820D02*
X14403625Y-15784344D01*
X14403625Y-15784344D02*
X14394101Y-15774820D01*
X14394101Y-15774820D02*
X14403625Y-15765296D01*
X14403625Y-15765296D02*
X14403625Y-15784344D01*
X14536958Y-15584344D02*
X14556006Y-15584344D01*
X14556006Y-15584344D02*
X14575054Y-15593868D01*
X14575054Y-15593868D02*
X14584577Y-15603391D01*
X14584577Y-15603391D02*
X14594101Y-15622439D01*
X14594101Y-15622439D02*
X14603625Y-15660534D01*
X14603625Y-15660534D02*
X14603625Y-15708153D01*
X14603625Y-15708153D02*
X14594101Y-15746248D01*
X14594101Y-15746248D02*
X14584577Y-15765296D01*
X14584577Y-15765296D02*
X14575054Y-15774820D01*
X14575054Y-15774820D02*
X14556006Y-15784344D01*
X14556006Y-15784344D02*
X14536958Y-15784344D01*
X14536958Y-15784344D02*
X14517911Y-15774820D01*
X14517911Y-15774820D02*
X14508387Y-15765296D01*
X14508387Y-15765296D02*
X14498863Y-15746248D01*
X14498863Y-15746248D02*
X14489339Y-15708153D01*
X14489339Y-15708153D02*
X14489339Y-15660534D01*
X14489339Y-15660534D02*
X14498863Y-15622439D01*
X14498863Y-15622439D02*
X14508387Y-15603391D01*
X14508387Y-15603391D02*
X14517911Y-15593868D01*
X14517911Y-15593868D02*
X14536958Y-15584344D01*
X14670292Y-15584344D02*
X14794101Y-15584344D01*
X14794101Y-15584344D02*
X14727435Y-15660534D01*
X14727435Y-15660534D02*
X14756006Y-15660534D01*
X14756006Y-15660534D02*
X14775054Y-15670058D01*
X14775054Y-15670058D02*
X14784577Y-15679582D01*
X14784577Y-15679582D02*
X14794101Y-15698629D01*
X14794101Y-15698629D02*
X14794101Y-15746248D01*
X14794101Y-15746248D02*
X14784577Y-15765296D01*
X14784577Y-15765296D02*
X14775054Y-15774820D01*
X14775054Y-15774820D02*
X14756006Y-15784344D01*
X14756006Y-15784344D02*
X14698863Y-15784344D01*
X14698863Y-15784344D02*
X14679816Y-15774820D01*
X14679816Y-15774820D02*
X14670292Y-15765296D01*
X14889339Y-15784344D02*
X14927435Y-15784344D01*
X14927435Y-15784344D02*
X14946482Y-15774820D01*
X14946482Y-15774820D02*
X14956006Y-15765296D01*
X14956006Y-15765296D02*
X14975054Y-15736725D01*
X14975054Y-15736725D02*
X14984577Y-15698629D01*
X14984577Y-15698629D02*
X14984577Y-15622439D01*
X14984577Y-15622439D02*
X14975054Y-15603391D01*
X14975054Y-15603391D02*
X14965530Y-15593868D01*
X14965530Y-15593868D02*
X14946482Y-15584344D01*
X14946482Y-15584344D02*
X14908387Y-15584344D01*
X14908387Y-15584344D02*
X14889339Y-15593868D01*
X14889339Y-15593868D02*
X14879816Y-15603391D01*
X14879816Y-15603391D02*
X14870292Y-15622439D01*
X14870292Y-15622439D02*
X14870292Y-15670058D01*
X14870292Y-15670058D02*
X14879816Y-15689106D01*
X14879816Y-15689106D02*
X14889339Y-15698629D01*
X14889339Y-15698629D02*
X14908387Y-15708153D01*
X14908387Y-15708153D02*
X14946482Y-15708153D01*
X14946482Y-15708153D02*
X14965530Y-15698629D01*
X14965530Y-15698629D02*
X14975054Y-15689106D01*
X14975054Y-15689106D02*
X14984577Y-15670058D01*
X15156006Y-15651010D02*
X15156006Y-15784344D01*
X15108387Y-15574820D02*
X15060768Y-15717677D01*
X15060768Y-15717677D02*
X15184577Y-15717677D01*
X15251244Y-15584344D02*
X15251244Y-15622439D01*
X15327435Y-15584344D02*
X15327435Y-15622439D01*
X15622673Y-15860534D02*
X15613149Y-15851010D01*
X15613149Y-15851010D02*
X15594101Y-15822439D01*
X15594101Y-15822439D02*
X15584578Y-15803391D01*
X15584578Y-15803391D02*
X15575054Y-15774820D01*
X15575054Y-15774820D02*
X15565530Y-15727201D01*
X15565530Y-15727201D02*
X15565530Y-15689106D01*
X15565530Y-15689106D02*
X15575054Y-15641487D01*
X15575054Y-15641487D02*
X15584578Y-15612915D01*
X15584578Y-15612915D02*
X15594101Y-15593868D01*
X15594101Y-15593868D02*
X15613149Y-15565296D01*
X15613149Y-15565296D02*
X15622673Y-15555772D01*
X15689339Y-15603391D02*
X15698863Y-15593868D01*
X15698863Y-15593868D02*
X15717911Y-15584344D01*
X15717911Y-15584344D02*
X15765530Y-15584344D01*
X15765530Y-15584344D02*
X15784578Y-15593868D01*
X15784578Y-15593868D02*
X15794101Y-15603391D01*
X15794101Y-15603391D02*
X15803625Y-15622439D01*
X15803625Y-15622439D02*
X15803625Y-15641487D01*
X15803625Y-15641487D02*
X15794101Y-15670058D01*
X15794101Y-15670058D02*
X15679816Y-15784344D01*
X15679816Y-15784344D02*
X15803625Y-15784344D01*
X16041720Y-15784344D02*
X16041720Y-15584344D01*
X16127435Y-15784344D02*
X16127435Y-15679582D01*
X16127435Y-15679582D02*
X16117911Y-15660534D01*
X16117911Y-15660534D02*
X16098863Y-15651010D01*
X16098863Y-15651010D02*
X16070292Y-15651010D01*
X16070292Y-15651010D02*
X16051244Y-15660534D01*
X16051244Y-15660534D02*
X16041720Y-15670058D01*
X16251244Y-15784344D02*
X16232197Y-15774820D01*
X16232197Y-15774820D02*
X16222673Y-15765296D01*
X16222673Y-15765296D02*
X16213149Y-15746248D01*
X16213149Y-15746248D02*
X16213149Y-15689106D01*
X16213149Y-15689106D02*
X16222673Y-15670058D01*
X16222673Y-15670058D02*
X16232197Y-15660534D01*
X16232197Y-15660534D02*
X16251244Y-15651010D01*
X16251244Y-15651010D02*
X16279816Y-15651010D01*
X16279816Y-15651010D02*
X16298863Y-15660534D01*
X16298863Y-15660534D02*
X16308387Y-15670058D01*
X16308387Y-15670058D02*
X16317911Y-15689106D01*
X16317911Y-15689106D02*
X16317911Y-15746248D01*
X16317911Y-15746248D02*
X16308387Y-15765296D01*
X16308387Y-15765296D02*
X16298863Y-15774820D01*
X16298863Y-15774820D02*
X16279816Y-15784344D01*
X16279816Y-15784344D02*
X16251244Y-15784344D01*
X16432197Y-15784344D02*
X16413149Y-15774820D01*
X16413149Y-15774820D02*
X16403625Y-15755772D01*
X16403625Y-15755772D02*
X16403625Y-15584344D01*
X16584578Y-15774820D02*
X16565530Y-15784344D01*
X16565530Y-15784344D02*
X16527435Y-15784344D01*
X16527435Y-15784344D02*
X16508387Y-15774820D01*
X16508387Y-15774820D02*
X16498863Y-15755772D01*
X16498863Y-15755772D02*
X16498863Y-15679582D01*
X16498863Y-15679582D02*
X16508387Y-15660534D01*
X16508387Y-15660534D02*
X16527435Y-15651010D01*
X16527435Y-15651010D02*
X16565530Y-15651010D01*
X16565530Y-15651010D02*
X16584578Y-15660534D01*
X16584578Y-15660534D02*
X16594101Y-15679582D01*
X16594101Y-15679582D02*
X16594101Y-15698629D01*
X16594101Y-15698629D02*
X16498863Y-15717677D01*
X16670292Y-15774820D02*
X16689340Y-15784344D01*
X16689340Y-15784344D02*
X16727435Y-15784344D01*
X16727435Y-15784344D02*
X16746482Y-15774820D01*
X16746482Y-15774820D02*
X16756006Y-15755772D01*
X16756006Y-15755772D02*
X16756006Y-15746248D01*
X16756006Y-15746248D02*
X16746482Y-15727201D01*
X16746482Y-15727201D02*
X16727435Y-15717677D01*
X16727435Y-15717677D02*
X16698863Y-15717677D01*
X16698863Y-15717677D02*
X16679816Y-15708153D01*
X16679816Y-15708153D02*
X16670292Y-15689106D01*
X16670292Y-15689106D02*
X16670292Y-15679582D01*
X16670292Y-15679582D02*
X16679816Y-15660534D01*
X16679816Y-15660534D02*
X16698863Y-15651010D01*
X16698863Y-15651010D02*
X16727435Y-15651010D01*
X16727435Y-15651010D02*
X16746482Y-15660534D01*
X16822673Y-15860534D02*
X16832197Y-15851010D01*
X16832197Y-15851010D02*
X16851244Y-15822439D01*
X16851244Y-15822439D02*
X16860768Y-15803391D01*
X16860768Y-15803391D02*
X16870292Y-15774820D01*
X16870292Y-15774820D02*
X16879816Y-15727201D01*
X16879816Y-15727201D02*
X16879816Y-15689106D01*
X16879816Y-15689106D02*
X16870292Y-15641487D01*
X16870292Y-15641487D02*
X16860768Y-15612915D01*
X16860768Y-15612915D02*
X16851244Y-15593868D01*
X16851244Y-15593868D02*
X16832197Y-15565296D01*
X16832197Y-15565296D02*
X16822673Y-15555772D01*
X17184578Y-15860534D02*
X17175054Y-15851010D01*
X17175054Y-15851010D02*
X17156006Y-15822439D01*
X17156006Y-15822439D02*
X17146483Y-15803391D01*
X17146483Y-15803391D02*
X17136959Y-15774820D01*
X17136959Y-15774820D02*
X17127435Y-15727201D01*
X17127435Y-15727201D02*
X17127435Y-15689106D01*
X17127435Y-15689106D02*
X17136959Y-15641487D01*
X17136959Y-15641487D02*
X17146483Y-15612915D01*
X17146483Y-15612915D02*
X17156006Y-15593868D01*
X17156006Y-15593868D02*
X17175054Y-15565296D01*
X17175054Y-15565296D02*
X17184578Y-15555772D01*
X17260768Y-15651010D02*
X17260768Y-15784344D01*
X17260768Y-15670058D02*
X17270292Y-15660534D01*
X17270292Y-15660534D02*
X17289340Y-15651010D01*
X17289340Y-15651010D02*
X17317911Y-15651010D01*
X17317911Y-15651010D02*
X17336959Y-15660534D01*
X17336959Y-15660534D02*
X17346483Y-15679582D01*
X17346483Y-15679582D02*
X17346483Y-15784344D01*
X17470292Y-15784344D02*
X17451244Y-15774820D01*
X17451244Y-15774820D02*
X17441721Y-15765296D01*
X17441721Y-15765296D02*
X17432197Y-15746248D01*
X17432197Y-15746248D02*
X17432197Y-15689106D01*
X17432197Y-15689106D02*
X17441721Y-15670058D01*
X17441721Y-15670058D02*
X17451244Y-15660534D01*
X17451244Y-15660534D02*
X17470292Y-15651010D01*
X17470292Y-15651010D02*
X17498864Y-15651010D01*
X17498864Y-15651010D02*
X17517911Y-15660534D01*
X17517911Y-15660534D02*
X17527435Y-15670058D01*
X17527435Y-15670058D02*
X17536959Y-15689106D01*
X17536959Y-15689106D02*
X17536959Y-15746248D01*
X17536959Y-15746248D02*
X17527435Y-15765296D01*
X17527435Y-15765296D02*
X17517911Y-15774820D01*
X17517911Y-15774820D02*
X17498864Y-15784344D01*
X17498864Y-15784344D02*
X17470292Y-15784344D01*
X17594102Y-15651010D02*
X17670292Y-15651010D01*
X17622673Y-15584344D02*
X17622673Y-15755772D01*
X17622673Y-15755772D02*
X17632197Y-15774820D01*
X17632197Y-15774820D02*
X17651244Y-15784344D01*
X17651244Y-15784344D02*
X17670292Y-15784344D01*
X17889340Y-15651010D02*
X17889340Y-15851010D01*
X17889340Y-15660534D02*
X17908387Y-15651010D01*
X17908387Y-15651010D02*
X17946483Y-15651010D01*
X17946483Y-15651010D02*
X17965530Y-15660534D01*
X17965530Y-15660534D02*
X17975054Y-15670058D01*
X17975054Y-15670058D02*
X17984578Y-15689106D01*
X17984578Y-15689106D02*
X17984578Y-15746248D01*
X17984578Y-15746248D02*
X17975054Y-15765296D01*
X17975054Y-15765296D02*
X17965530Y-15774820D01*
X17965530Y-15774820D02*
X17946483Y-15784344D01*
X17946483Y-15784344D02*
X17908387Y-15784344D01*
X17908387Y-15784344D02*
X17889340Y-15774820D01*
X18098864Y-15784344D02*
X18079816Y-15774820D01*
X18079816Y-15774820D02*
X18070292Y-15755772D01*
X18070292Y-15755772D02*
X18070292Y-15584344D01*
X18260768Y-15784344D02*
X18260768Y-15679582D01*
X18260768Y-15679582D02*
X18251245Y-15660534D01*
X18251245Y-15660534D02*
X18232197Y-15651010D01*
X18232197Y-15651010D02*
X18194102Y-15651010D01*
X18194102Y-15651010D02*
X18175054Y-15660534D01*
X18260768Y-15774820D02*
X18241721Y-15784344D01*
X18241721Y-15784344D02*
X18194102Y-15784344D01*
X18194102Y-15784344D02*
X18175054Y-15774820D01*
X18175054Y-15774820D02*
X18165530Y-15755772D01*
X18165530Y-15755772D02*
X18165530Y-15736725D01*
X18165530Y-15736725D02*
X18175054Y-15717677D01*
X18175054Y-15717677D02*
X18194102Y-15708153D01*
X18194102Y-15708153D02*
X18241721Y-15708153D01*
X18241721Y-15708153D02*
X18260768Y-15698629D01*
X18327435Y-15651010D02*
X18403625Y-15651010D01*
X18356006Y-15584344D02*
X18356006Y-15755772D01*
X18356006Y-15755772D02*
X18365530Y-15774820D01*
X18365530Y-15774820D02*
X18384578Y-15784344D01*
X18384578Y-15784344D02*
X18403625Y-15784344D01*
X18546483Y-15774820D02*
X18527435Y-15784344D01*
X18527435Y-15784344D02*
X18489340Y-15784344D01*
X18489340Y-15784344D02*
X18470292Y-15774820D01*
X18470292Y-15774820D02*
X18460768Y-15755772D01*
X18460768Y-15755772D02*
X18460768Y-15679582D01*
X18460768Y-15679582D02*
X18470292Y-15660534D01*
X18470292Y-15660534D02*
X18489340Y-15651010D01*
X18489340Y-15651010D02*
X18527435Y-15651010D01*
X18527435Y-15651010D02*
X18546483Y-15660534D01*
X18546483Y-15660534D02*
X18556006Y-15679582D01*
X18556006Y-15679582D02*
X18556006Y-15698629D01*
X18556006Y-15698629D02*
X18460768Y-15717677D01*
X18727435Y-15784344D02*
X18727435Y-15584344D01*
X18727435Y-15774820D02*
X18708387Y-15784344D01*
X18708387Y-15784344D02*
X18670292Y-15784344D01*
X18670292Y-15784344D02*
X18651245Y-15774820D01*
X18651245Y-15774820D02*
X18641721Y-15765296D01*
X18641721Y-15765296D02*
X18632197Y-15746248D01*
X18632197Y-15746248D02*
X18632197Y-15689106D01*
X18632197Y-15689106D02*
X18641721Y-15670058D01*
X18641721Y-15670058D02*
X18651245Y-15660534D01*
X18651245Y-15660534D02*
X18670292Y-15651010D01*
X18670292Y-15651010D02*
X18708387Y-15651010D01*
X18708387Y-15651010D02*
X18727435Y-15660534D01*
X18803626Y-15860534D02*
X18813149Y-15851010D01*
X18813149Y-15851010D02*
X18832197Y-15822439D01*
X18832197Y-15822439D02*
X18841721Y-15803391D01*
X18841721Y-15803391D02*
X18851245Y-15774820D01*
X18851245Y-15774820D02*
X18860768Y-15727201D01*
X18860768Y-15727201D02*
X18860768Y-15689106D01*
X18860768Y-15689106D02*
X18851245Y-15641487D01*
X18851245Y-15641487D02*
X18841721Y-15612915D01*
X18841721Y-15612915D02*
X18832197Y-15593868D01*
X18832197Y-15593868D02*
X18813149Y-15565296D01*
X18813149Y-15565296D02*
X18803626Y-15555772D01*
X12047610Y-15956860D02*
G75*
G02*
X11847610Y-15956860I-100000J0D01*
G01*
X11847610Y-15956860D02*
G75*
G02*
X12047610Y-15956860I100000J0D01*
G01*
X12403625Y-15848344D02*
X12308387Y-15848344D01*
X12308387Y-15848344D02*
X12298863Y-15943582D01*
X12298863Y-15943582D02*
X12308387Y-15934058D01*
X12308387Y-15934058D02*
X12327434Y-15924534D01*
X12327434Y-15924534D02*
X12375053Y-15924534D01*
X12375053Y-15924534D02*
X12394101Y-15934058D01*
X12394101Y-15934058D02*
X12403625Y-15943582D01*
X12403625Y-15943582D02*
X12413149Y-15962629D01*
X12413149Y-15962629D02*
X12413149Y-16010248D01*
X12413149Y-16010248D02*
X12403625Y-16029296D01*
X12403625Y-16029296D02*
X12394101Y-16038820D01*
X12394101Y-16038820D02*
X12375053Y-16048344D01*
X12375053Y-16048344D02*
X12327434Y-16048344D01*
X12327434Y-16048344D02*
X12308387Y-16038820D01*
X12308387Y-16038820D02*
X12298863Y-16029296D01*
X12498863Y-16029296D02*
X12508387Y-16038820D01*
X12508387Y-16038820D02*
X12498863Y-16048344D01*
X12498863Y-16048344D02*
X12489339Y-16038820D01*
X12489339Y-16038820D02*
X12498863Y-16029296D01*
X12498863Y-16029296D02*
X12498863Y-16048344D01*
X12632196Y-15848344D02*
X12651244Y-15848344D01*
X12651244Y-15848344D02*
X12670292Y-15857868D01*
X12670292Y-15857868D02*
X12679815Y-15867391D01*
X12679815Y-15867391D02*
X12689339Y-15886439D01*
X12689339Y-15886439D02*
X12698863Y-15924534D01*
X12698863Y-15924534D02*
X12698863Y-15972153D01*
X12698863Y-15972153D02*
X12689339Y-16010248D01*
X12689339Y-16010248D02*
X12679815Y-16029296D01*
X12679815Y-16029296D02*
X12670292Y-16038820D01*
X12670292Y-16038820D02*
X12651244Y-16048344D01*
X12651244Y-16048344D02*
X12632196Y-16048344D01*
X12632196Y-16048344D02*
X12613149Y-16038820D01*
X12613149Y-16038820D02*
X12603625Y-16029296D01*
X12603625Y-16029296D02*
X12594101Y-16010248D01*
X12594101Y-16010248D02*
X12584577Y-15972153D01*
X12584577Y-15972153D02*
X12584577Y-15924534D01*
X12584577Y-15924534D02*
X12594101Y-15886439D01*
X12594101Y-15886439D02*
X12603625Y-15867391D01*
X12603625Y-15867391D02*
X12613149Y-15857868D01*
X12613149Y-15857868D02*
X12632196Y-15848344D01*
X12822672Y-15848344D02*
X12841720Y-15848344D01*
X12841720Y-15848344D02*
X12860768Y-15857868D01*
X12860768Y-15857868D02*
X12870292Y-15867391D01*
X12870292Y-15867391D02*
X12879815Y-15886439D01*
X12879815Y-15886439D02*
X12889339Y-15924534D01*
X12889339Y-15924534D02*
X12889339Y-15972153D01*
X12889339Y-15972153D02*
X12879815Y-16010248D01*
X12879815Y-16010248D02*
X12870292Y-16029296D01*
X12870292Y-16029296D02*
X12860768Y-16038820D01*
X12860768Y-16038820D02*
X12841720Y-16048344D01*
X12841720Y-16048344D02*
X12822672Y-16048344D01*
X12822672Y-16048344D02*
X12803625Y-16038820D01*
X12803625Y-16038820D02*
X12794101Y-16029296D01*
X12794101Y-16029296D02*
X12784577Y-16010248D01*
X12784577Y-16010248D02*
X12775053Y-15972153D01*
X12775053Y-15972153D02*
X12775053Y-15924534D01*
X12775053Y-15924534D02*
X12784577Y-15886439D01*
X12784577Y-15886439D02*
X12794101Y-15867391D01*
X12794101Y-15867391D02*
X12803625Y-15857868D01*
X12803625Y-15857868D02*
X12822672Y-15848344D01*
X13013149Y-15848344D02*
X13032196Y-15848344D01*
X13032196Y-15848344D02*
X13051244Y-15857868D01*
X13051244Y-15857868D02*
X13060768Y-15867391D01*
X13060768Y-15867391D02*
X13070292Y-15886439D01*
X13070292Y-15886439D02*
X13079815Y-15924534D01*
X13079815Y-15924534D02*
X13079815Y-15972153D01*
X13079815Y-15972153D02*
X13070292Y-16010248D01*
X13070292Y-16010248D02*
X13060768Y-16029296D01*
X13060768Y-16029296D02*
X13051244Y-16038820D01*
X13051244Y-16038820D02*
X13032196Y-16048344D01*
X13032196Y-16048344D02*
X13013149Y-16048344D01*
X13013149Y-16048344D02*
X12994101Y-16038820D01*
X12994101Y-16038820D02*
X12984577Y-16029296D01*
X12984577Y-16029296D02*
X12975053Y-16010248D01*
X12975053Y-16010248D02*
X12965530Y-15972153D01*
X12965530Y-15972153D02*
X12965530Y-15924534D01*
X12965530Y-15924534D02*
X12975053Y-15886439D01*
X12975053Y-15886439D02*
X12984577Y-15867391D01*
X12984577Y-15867391D02*
X12994101Y-15857868D01*
X12994101Y-15857868D02*
X13013149Y-15848344D01*
X13165530Y-16048344D02*
X13165530Y-15915010D01*
X13165530Y-15934058D02*
X13175053Y-15924534D01*
X13175053Y-15924534D02*
X13194101Y-15915010D01*
X13194101Y-15915010D02*
X13222673Y-15915010D01*
X13222673Y-15915010D02*
X13241720Y-15924534D01*
X13241720Y-15924534D02*
X13251244Y-15943582D01*
X13251244Y-15943582D02*
X13251244Y-16048344D01*
X13251244Y-15943582D02*
X13260768Y-15924534D01*
X13260768Y-15924534D02*
X13279815Y-15915010D01*
X13279815Y-15915010D02*
X13308387Y-15915010D01*
X13308387Y-15915010D02*
X13327434Y-15924534D01*
X13327434Y-15924534D02*
X13336958Y-15943582D01*
X13336958Y-15943582D02*
X13336958Y-16048344D01*
X13432196Y-16048344D02*
X13432196Y-15915010D01*
X13432196Y-15934058D02*
X13441720Y-15924534D01*
X13441720Y-15924534D02*
X13460768Y-15915010D01*
X13460768Y-15915010D02*
X13489339Y-15915010D01*
X13489339Y-15915010D02*
X13508387Y-15924534D01*
X13508387Y-15924534D02*
X13517911Y-15943582D01*
X13517911Y-15943582D02*
X13517911Y-16048344D01*
X13517911Y-15943582D02*
X13527434Y-15924534D01*
X13527434Y-15924534D02*
X13546482Y-15915010D01*
X13546482Y-15915010D02*
X13575053Y-15915010D01*
X13575053Y-15915010D02*
X13594101Y-15924534D01*
X13594101Y-15924534D02*
X13603625Y-15943582D01*
X13603625Y-15943582D02*
X13603625Y-16048344D01*
X13994101Y-15838820D02*
X13822673Y-16095963D01*
X14251244Y-15848344D02*
X14270292Y-15848344D01*
X14270292Y-15848344D02*
X14289339Y-15857868D01*
X14289339Y-15857868D02*
X14298863Y-15867391D01*
X14298863Y-15867391D02*
X14308387Y-15886439D01*
X14308387Y-15886439D02*
X14317911Y-15924534D01*
X14317911Y-15924534D02*
X14317911Y-15972153D01*
X14317911Y-15972153D02*
X14308387Y-16010248D01*
X14308387Y-16010248D02*
X14298863Y-16029296D01*
X14298863Y-16029296D02*
X14289339Y-16038820D01*
X14289339Y-16038820D02*
X14270292Y-16048344D01*
X14270292Y-16048344D02*
X14251244Y-16048344D01*
X14251244Y-16048344D02*
X14232196Y-16038820D01*
X14232196Y-16038820D02*
X14222673Y-16029296D01*
X14222673Y-16029296D02*
X14213149Y-16010248D01*
X14213149Y-16010248D02*
X14203625Y-15972153D01*
X14203625Y-15972153D02*
X14203625Y-15924534D01*
X14203625Y-15924534D02*
X14213149Y-15886439D01*
X14213149Y-15886439D02*
X14222673Y-15867391D01*
X14222673Y-15867391D02*
X14232196Y-15857868D01*
X14232196Y-15857868D02*
X14251244Y-15848344D01*
X14403625Y-16029296D02*
X14413149Y-16038820D01*
X14413149Y-16038820D02*
X14403625Y-16048344D01*
X14403625Y-16048344D02*
X14394101Y-16038820D01*
X14394101Y-16038820D02*
X14403625Y-16029296D01*
X14403625Y-16029296D02*
X14403625Y-16048344D01*
X14603625Y-16048344D02*
X14489339Y-16048344D01*
X14546482Y-16048344D02*
X14546482Y-15848344D01*
X14546482Y-15848344D02*
X14527435Y-15876915D01*
X14527435Y-15876915D02*
X14508387Y-15895963D01*
X14508387Y-15895963D02*
X14489339Y-15905487D01*
X14698863Y-16048344D02*
X14736958Y-16048344D01*
X14736958Y-16048344D02*
X14756006Y-16038820D01*
X14756006Y-16038820D02*
X14765530Y-16029296D01*
X14765530Y-16029296D02*
X14784577Y-16000725D01*
X14784577Y-16000725D02*
X14794101Y-15962629D01*
X14794101Y-15962629D02*
X14794101Y-15886439D01*
X14794101Y-15886439D02*
X14784577Y-15867391D01*
X14784577Y-15867391D02*
X14775054Y-15857868D01*
X14775054Y-15857868D02*
X14756006Y-15848344D01*
X14756006Y-15848344D02*
X14717911Y-15848344D01*
X14717911Y-15848344D02*
X14698863Y-15857868D01*
X14698863Y-15857868D02*
X14689339Y-15867391D01*
X14689339Y-15867391D02*
X14679816Y-15886439D01*
X14679816Y-15886439D02*
X14679816Y-15934058D01*
X14679816Y-15934058D02*
X14689339Y-15953106D01*
X14689339Y-15953106D02*
X14698863Y-15962629D01*
X14698863Y-15962629D02*
X14717911Y-15972153D01*
X14717911Y-15972153D02*
X14756006Y-15972153D01*
X14756006Y-15972153D02*
X14775054Y-15962629D01*
X14775054Y-15962629D02*
X14784577Y-15953106D01*
X14784577Y-15953106D02*
X14794101Y-15934058D01*
X14965530Y-15848344D02*
X14927435Y-15848344D01*
X14927435Y-15848344D02*
X14908387Y-15857868D01*
X14908387Y-15857868D02*
X14898863Y-15867391D01*
X14898863Y-15867391D02*
X14879816Y-15895963D01*
X14879816Y-15895963D02*
X14870292Y-15934058D01*
X14870292Y-15934058D02*
X14870292Y-16010248D01*
X14870292Y-16010248D02*
X14879816Y-16029296D01*
X14879816Y-16029296D02*
X14889339Y-16038820D01*
X14889339Y-16038820D02*
X14908387Y-16048344D01*
X14908387Y-16048344D02*
X14946482Y-16048344D01*
X14946482Y-16048344D02*
X14965530Y-16038820D01*
X14965530Y-16038820D02*
X14975054Y-16029296D01*
X14975054Y-16029296D02*
X14984577Y-16010248D01*
X14984577Y-16010248D02*
X14984577Y-15962629D01*
X14984577Y-15962629D02*
X14975054Y-15943582D01*
X14975054Y-15943582D02*
X14965530Y-15934058D01*
X14965530Y-15934058D02*
X14946482Y-15924534D01*
X14946482Y-15924534D02*
X14908387Y-15924534D01*
X14908387Y-15924534D02*
X14889339Y-15934058D01*
X14889339Y-15934058D02*
X14879816Y-15943582D01*
X14879816Y-15943582D02*
X14870292Y-15962629D01*
X15079816Y-16048344D02*
X15117911Y-16048344D01*
X15117911Y-16048344D02*
X15136958Y-16038820D01*
X15136958Y-16038820D02*
X15146482Y-16029296D01*
X15146482Y-16029296D02*
X15165530Y-16000725D01*
X15165530Y-16000725D02*
X15175054Y-15962629D01*
X15175054Y-15962629D02*
X15175054Y-15886439D01*
X15175054Y-15886439D02*
X15165530Y-15867391D01*
X15165530Y-15867391D02*
X15156006Y-15857868D01*
X15156006Y-15857868D02*
X15136958Y-15848344D01*
X15136958Y-15848344D02*
X15098863Y-15848344D01*
X15098863Y-15848344D02*
X15079816Y-15857868D01*
X15079816Y-15857868D02*
X15070292Y-15867391D01*
X15070292Y-15867391D02*
X15060768Y-15886439D01*
X15060768Y-15886439D02*
X15060768Y-15934058D01*
X15060768Y-15934058D02*
X15070292Y-15953106D01*
X15070292Y-15953106D02*
X15079816Y-15962629D01*
X15079816Y-15962629D02*
X15098863Y-15972153D01*
X15098863Y-15972153D02*
X15136958Y-15972153D01*
X15136958Y-15972153D02*
X15156006Y-15962629D01*
X15156006Y-15962629D02*
X15165530Y-15953106D01*
X15165530Y-15953106D02*
X15175054Y-15934058D01*
X15251244Y-15848344D02*
X15251244Y-15886439D01*
X15327435Y-15848344D02*
X15327435Y-15886439D01*
X15622673Y-16124534D02*
X15613149Y-16115010D01*
X15613149Y-16115010D02*
X15594101Y-16086439D01*
X15594101Y-16086439D02*
X15584578Y-16067391D01*
X15584578Y-16067391D02*
X15575054Y-16038820D01*
X15575054Y-16038820D02*
X15565530Y-15991201D01*
X15565530Y-15991201D02*
X15565530Y-15953106D01*
X15565530Y-15953106D02*
X15575054Y-15905487D01*
X15575054Y-15905487D02*
X15584578Y-15876915D01*
X15584578Y-15876915D02*
X15594101Y-15857868D01*
X15594101Y-15857868D02*
X15613149Y-15829296D01*
X15613149Y-15829296D02*
X15622673Y-15819772D01*
X15803625Y-16048344D02*
X15689339Y-16048344D01*
X15746482Y-16048344D02*
X15746482Y-15848344D01*
X15746482Y-15848344D02*
X15727435Y-15876915D01*
X15727435Y-15876915D02*
X15708387Y-15895963D01*
X15708387Y-15895963D02*
X15689339Y-15905487D01*
X16041720Y-16048344D02*
X16041720Y-15848344D01*
X16127435Y-16048344D02*
X16127435Y-15943582D01*
X16127435Y-15943582D02*
X16117911Y-15924534D01*
X16117911Y-15924534D02*
X16098863Y-15915010D01*
X16098863Y-15915010D02*
X16070292Y-15915010D01*
X16070292Y-15915010D02*
X16051244Y-15924534D01*
X16051244Y-15924534D02*
X16041720Y-15934058D01*
X16251244Y-16048344D02*
X16232197Y-16038820D01*
X16232197Y-16038820D02*
X16222673Y-16029296D01*
X16222673Y-16029296D02*
X16213149Y-16010248D01*
X16213149Y-16010248D02*
X16213149Y-15953106D01*
X16213149Y-15953106D02*
X16222673Y-15934058D01*
X16222673Y-15934058D02*
X16232197Y-15924534D01*
X16232197Y-15924534D02*
X16251244Y-15915010D01*
X16251244Y-15915010D02*
X16279816Y-15915010D01*
X16279816Y-15915010D02*
X16298863Y-15924534D01*
X16298863Y-15924534D02*
X16308387Y-15934058D01*
X16308387Y-15934058D02*
X16317911Y-15953106D01*
X16317911Y-15953106D02*
X16317911Y-16010248D01*
X16317911Y-16010248D02*
X16308387Y-16029296D01*
X16308387Y-16029296D02*
X16298863Y-16038820D01*
X16298863Y-16038820D02*
X16279816Y-16048344D01*
X16279816Y-16048344D02*
X16251244Y-16048344D01*
X16432197Y-16048344D02*
X16413149Y-16038820D01*
X16413149Y-16038820D02*
X16403625Y-16019772D01*
X16403625Y-16019772D02*
X16403625Y-15848344D01*
X16584578Y-16038820D02*
X16565530Y-16048344D01*
X16565530Y-16048344D02*
X16527435Y-16048344D01*
X16527435Y-16048344D02*
X16508387Y-16038820D01*
X16508387Y-16038820D02*
X16498863Y-16019772D01*
X16498863Y-16019772D02*
X16498863Y-15943582D01*
X16498863Y-15943582D02*
X16508387Y-15924534D01*
X16508387Y-15924534D02*
X16527435Y-15915010D01*
X16527435Y-15915010D02*
X16565530Y-15915010D01*
X16565530Y-15915010D02*
X16584578Y-15924534D01*
X16584578Y-15924534D02*
X16594101Y-15943582D01*
X16594101Y-15943582D02*
X16594101Y-15962629D01*
X16594101Y-15962629D02*
X16498863Y-15981677D01*
X16660768Y-16124534D02*
X16670292Y-16115010D01*
X16670292Y-16115010D02*
X16689340Y-16086439D01*
X16689340Y-16086439D02*
X16698863Y-16067391D01*
X16698863Y-16067391D02*
X16708387Y-16038820D01*
X16708387Y-16038820D02*
X16717911Y-15991201D01*
X16717911Y-15991201D02*
X16717911Y-15953106D01*
X16717911Y-15953106D02*
X16708387Y-15905487D01*
X16708387Y-15905487D02*
X16698863Y-15876915D01*
X16698863Y-15876915D02*
X16689340Y-15857868D01*
X16689340Y-15857868D02*
X16670292Y-15829296D01*
X16670292Y-15829296D02*
X16660768Y-15819772D01*
X17022673Y-16124534D02*
X17013149Y-16115010D01*
X17013149Y-16115010D02*
X16994102Y-16086439D01*
X16994102Y-16086439D02*
X16984578Y-16067391D01*
X16984578Y-16067391D02*
X16975054Y-16038820D01*
X16975054Y-16038820D02*
X16965530Y-15991201D01*
X16965530Y-15991201D02*
X16965530Y-15953106D01*
X16965530Y-15953106D02*
X16975054Y-15905487D01*
X16975054Y-15905487D02*
X16984578Y-15876915D01*
X16984578Y-15876915D02*
X16994102Y-15857868D01*
X16994102Y-15857868D02*
X17013149Y-15829296D01*
X17013149Y-15829296D02*
X17022673Y-15819772D01*
X17098863Y-15915010D02*
X17098863Y-16048344D01*
X17098863Y-15934058D02*
X17108387Y-15924534D01*
X17108387Y-15924534D02*
X17127435Y-15915010D01*
X17127435Y-15915010D02*
X17156006Y-15915010D01*
X17156006Y-15915010D02*
X17175054Y-15924534D01*
X17175054Y-15924534D02*
X17184578Y-15943582D01*
X17184578Y-15943582D02*
X17184578Y-16048344D01*
X17308387Y-16048344D02*
X17289340Y-16038820D01*
X17289340Y-16038820D02*
X17279816Y-16029296D01*
X17279816Y-16029296D02*
X17270292Y-16010248D01*
X17270292Y-16010248D02*
X17270292Y-15953106D01*
X17270292Y-15953106D02*
X17279816Y-15934058D01*
X17279816Y-15934058D02*
X17289340Y-15924534D01*
X17289340Y-15924534D02*
X17308387Y-15915010D01*
X17308387Y-15915010D02*
X17336959Y-15915010D01*
X17336959Y-15915010D02*
X17356006Y-15924534D01*
X17356006Y-15924534D02*
X17365530Y-15934058D01*
X17365530Y-15934058D02*
X17375054Y-15953106D01*
X17375054Y-15953106D02*
X17375054Y-16010248D01*
X17375054Y-16010248D02*
X17365530Y-16029296D01*
X17365530Y-16029296D02*
X17356006Y-16038820D01*
X17356006Y-16038820D02*
X17336959Y-16048344D01*
X17336959Y-16048344D02*
X17308387Y-16048344D01*
X17432197Y-15915010D02*
X17508387Y-15915010D01*
X17460768Y-15848344D02*
X17460768Y-16019772D01*
X17460768Y-16019772D02*
X17470292Y-16038820D01*
X17470292Y-16038820D02*
X17489340Y-16048344D01*
X17489340Y-16048344D02*
X17508387Y-16048344D01*
X17727435Y-15915010D02*
X17727435Y-16115010D01*
X17727435Y-15924534D02*
X17746483Y-15915010D01*
X17746483Y-15915010D02*
X17784578Y-15915010D01*
X17784578Y-15915010D02*
X17803625Y-15924534D01*
X17803625Y-15924534D02*
X17813149Y-15934058D01*
X17813149Y-15934058D02*
X17822673Y-15953106D01*
X17822673Y-15953106D02*
X17822673Y-16010248D01*
X17822673Y-16010248D02*
X17813149Y-16029296D01*
X17813149Y-16029296D02*
X17803625Y-16038820D01*
X17803625Y-16038820D02*
X17784578Y-16048344D01*
X17784578Y-16048344D02*
X17746483Y-16048344D01*
X17746483Y-16048344D02*
X17727435Y-16038820D01*
X17936959Y-16048344D02*
X17917911Y-16038820D01*
X17917911Y-16038820D02*
X17908387Y-16019772D01*
X17908387Y-16019772D02*
X17908387Y-15848344D01*
X18098864Y-16048344D02*
X18098864Y-15943582D01*
X18098864Y-15943582D02*
X18089340Y-15924534D01*
X18089340Y-15924534D02*
X18070292Y-15915010D01*
X18070292Y-15915010D02*
X18032197Y-15915010D01*
X18032197Y-15915010D02*
X18013149Y-15924534D01*
X18098864Y-16038820D02*
X18079816Y-16048344D01*
X18079816Y-16048344D02*
X18032197Y-16048344D01*
X18032197Y-16048344D02*
X18013149Y-16038820D01*
X18013149Y-16038820D02*
X18003625Y-16019772D01*
X18003625Y-16019772D02*
X18003625Y-16000725D01*
X18003625Y-16000725D02*
X18013149Y-15981677D01*
X18013149Y-15981677D02*
X18032197Y-15972153D01*
X18032197Y-15972153D02*
X18079816Y-15972153D01*
X18079816Y-15972153D02*
X18098864Y-15962629D01*
X18165530Y-15915010D02*
X18241721Y-15915010D01*
X18194102Y-15848344D02*
X18194102Y-16019772D01*
X18194102Y-16019772D02*
X18203625Y-16038820D01*
X18203625Y-16038820D02*
X18222673Y-16048344D01*
X18222673Y-16048344D02*
X18241721Y-16048344D01*
X18384578Y-16038820D02*
X18365530Y-16048344D01*
X18365530Y-16048344D02*
X18327435Y-16048344D01*
X18327435Y-16048344D02*
X18308387Y-16038820D01*
X18308387Y-16038820D02*
X18298864Y-16019772D01*
X18298864Y-16019772D02*
X18298864Y-15943582D01*
X18298864Y-15943582D02*
X18308387Y-15924534D01*
X18308387Y-15924534D02*
X18327435Y-15915010D01*
X18327435Y-15915010D02*
X18365530Y-15915010D01*
X18365530Y-15915010D02*
X18384578Y-15924534D01*
X18384578Y-15924534D02*
X18394102Y-15943582D01*
X18394102Y-15943582D02*
X18394102Y-15962629D01*
X18394102Y-15962629D02*
X18298864Y-15981677D01*
X18565530Y-16048344D02*
X18565530Y-15848344D01*
X18565530Y-16038820D02*
X18546483Y-16048344D01*
X18546483Y-16048344D02*
X18508387Y-16048344D01*
X18508387Y-16048344D02*
X18489340Y-16038820D01*
X18489340Y-16038820D02*
X18479816Y-16029296D01*
X18479816Y-16029296D02*
X18470292Y-16010248D01*
X18470292Y-16010248D02*
X18470292Y-15953106D01*
X18470292Y-15953106D02*
X18479816Y-15934058D01*
X18479816Y-15934058D02*
X18489340Y-15924534D01*
X18489340Y-15924534D02*
X18508387Y-15915010D01*
X18508387Y-15915010D02*
X18546483Y-15915010D01*
X18546483Y-15915010D02*
X18565530Y-15924534D01*
X18641721Y-16124534D02*
X18651245Y-16115010D01*
X18651245Y-16115010D02*
X18670292Y-16086439D01*
X18670292Y-16086439D02*
X18679816Y-16067391D01*
X18679816Y-16067391D02*
X18689340Y-16038820D01*
X18689340Y-16038820D02*
X18698864Y-15991201D01*
X18698864Y-15991201D02*
X18698864Y-15953106D01*
X18698864Y-15953106D02*
X18689340Y-15905487D01*
X18689340Y-15905487D02*
X18679816Y-15876915D01*
X18679816Y-15876915D02*
X18670292Y-15857868D01*
X18670292Y-15857868D02*
X18651245Y-15829296D01*
X18651245Y-15829296D02*
X18641721Y-15819772D01*
M02*
