%TF.GenerationSoftware,KiCad,Pcbnew,(6.0.11)*%
%TF.CreationDate,2024-06-19T21:48:19+02:00*%
%TF.ProjectId,tcbm2sd,7463626d-3273-4642-9e6b-696361645f70,1.0*%
%TF.SameCoordinates,Original*%
%TF.FileFunction,Drillmap*%
%TF.FilePolarity,Positive*%
%FSLAX45Y45*%
G04 Gerber Fmt 4.5, Leading zero omitted, Abs format (unit mm)*
G04 Created by KiCad (PCBNEW (6.0.11)) date 2024-06-19 21:48:19*
%MOMM*%
%LPD*%
G01*
G04 APERTURE LIST*
%ADD10C,0.200000*%
%ADD11C,0.400000*%
G04 APERTURE END LIST*
D10*
D11*
X14650110Y-10000360D02*
X15050110Y-10400360D01*
X15050110Y-10000360D02*
X14650110Y-10400360D01*
D10*
X12305229Y-15363336D02*
X12305229Y-15163336D01*
X12352848Y-15163336D01*
X12381419Y-15172860D01*
X12400467Y-15191908D01*
X12409991Y-15210955D01*
X12419515Y-15249050D01*
X12419515Y-15277622D01*
X12409991Y-15315717D01*
X12400467Y-15334765D01*
X12381419Y-15353812D01*
X12352848Y-15363336D01*
X12305229Y-15363336D01*
X12505229Y-15363336D02*
X12505229Y-15230003D01*
X12505229Y-15268098D02*
X12514753Y-15249050D01*
X12524277Y-15239527D01*
X12543324Y-15230003D01*
X12562372Y-15230003D01*
X12629038Y-15363336D02*
X12629038Y-15230003D01*
X12629038Y-15163336D02*
X12619515Y-15172860D01*
X12629038Y-15182384D01*
X12638562Y-15172860D01*
X12629038Y-15163336D01*
X12629038Y-15182384D01*
X12752848Y-15363336D02*
X12733800Y-15353812D01*
X12724277Y-15334765D01*
X12724277Y-15163336D01*
X12857610Y-15363336D02*
X12838562Y-15353812D01*
X12829038Y-15334765D01*
X12829038Y-15163336D01*
X13086181Y-15363336D02*
X13086181Y-15163336D01*
X13152848Y-15306193D01*
X13219515Y-15163336D01*
X13219515Y-15363336D01*
X13400467Y-15363336D02*
X13400467Y-15258574D01*
X13390943Y-15239527D01*
X13371896Y-15230003D01*
X13333800Y-15230003D01*
X13314753Y-15239527D01*
X13400467Y-15353812D02*
X13381419Y-15363336D01*
X13333800Y-15363336D01*
X13314753Y-15353812D01*
X13305229Y-15334765D01*
X13305229Y-15315717D01*
X13314753Y-15296669D01*
X13333800Y-15287146D01*
X13381419Y-15287146D01*
X13400467Y-15277622D01*
X13495705Y-15230003D02*
X13495705Y-15430003D01*
X13495705Y-15239527D02*
X13514753Y-15230003D01*
X13552848Y-15230003D01*
X13571896Y-15239527D01*
X13581419Y-15249050D01*
X13590943Y-15268098D01*
X13590943Y-15325241D01*
X13581419Y-15344288D01*
X13571896Y-15353812D01*
X13552848Y-15363336D01*
X13514753Y-15363336D01*
X13495705Y-15353812D01*
X13676658Y-15344288D02*
X13686181Y-15353812D01*
X13676658Y-15363336D01*
X13667134Y-15353812D01*
X13676658Y-15344288D01*
X13676658Y-15363336D01*
X13676658Y-15239527D02*
X13686181Y-15249050D01*
X13676658Y-15258574D01*
X13667134Y-15249050D01*
X13676658Y-15239527D01*
X13676658Y-15258574D01*
X11847610Y-15592860D02*
X12047610Y-15792860D01*
X12047610Y-15592860D02*
X11847610Y-15792860D01*
X12390943Y-15650003D02*
X12390943Y-15783336D01*
X12343324Y-15573812D02*
X12295705Y-15716669D01*
X12419515Y-15716669D01*
X12495705Y-15764288D02*
X12505229Y-15773812D01*
X12495705Y-15783336D01*
X12486181Y-15773812D01*
X12495705Y-15764288D01*
X12495705Y-15783336D01*
X12629038Y-15583336D02*
X12648086Y-15583336D01*
X12667134Y-15592860D01*
X12676658Y-15602384D01*
X12686181Y-15621431D01*
X12695705Y-15659527D01*
X12695705Y-15707146D01*
X12686181Y-15745241D01*
X12676658Y-15764288D01*
X12667134Y-15773812D01*
X12648086Y-15783336D01*
X12629038Y-15783336D01*
X12609991Y-15773812D01*
X12600467Y-15764288D01*
X12590943Y-15745241D01*
X12581419Y-15707146D01*
X12581419Y-15659527D01*
X12590943Y-15621431D01*
X12600467Y-15602384D01*
X12609991Y-15592860D01*
X12629038Y-15583336D01*
X12819515Y-15583336D02*
X12838562Y-15583336D01*
X12857610Y-15592860D01*
X12867134Y-15602384D01*
X12876658Y-15621431D01*
X12886181Y-15659527D01*
X12886181Y-15707146D01*
X12876658Y-15745241D01*
X12867134Y-15764288D01*
X12857610Y-15773812D01*
X12838562Y-15783336D01*
X12819515Y-15783336D01*
X12800467Y-15773812D01*
X12790943Y-15764288D01*
X12781419Y-15745241D01*
X12771896Y-15707146D01*
X12771896Y-15659527D01*
X12781419Y-15621431D01*
X12790943Y-15602384D01*
X12800467Y-15592860D01*
X12819515Y-15583336D01*
X13009991Y-15583336D02*
X13029038Y-15583336D01*
X13048086Y-15592860D01*
X13057610Y-15602384D01*
X13067134Y-15621431D01*
X13076658Y-15659527D01*
X13076658Y-15707146D01*
X13067134Y-15745241D01*
X13057610Y-15764288D01*
X13048086Y-15773812D01*
X13029038Y-15783336D01*
X13009991Y-15783336D01*
X12990943Y-15773812D01*
X12981419Y-15764288D01*
X12971896Y-15745241D01*
X12962372Y-15707146D01*
X12962372Y-15659527D01*
X12971896Y-15621431D01*
X12981419Y-15602384D01*
X12990943Y-15592860D01*
X13009991Y-15583336D01*
X13162372Y-15783336D02*
X13162372Y-15650003D01*
X13162372Y-15669050D02*
X13171896Y-15659527D01*
X13190943Y-15650003D01*
X13219515Y-15650003D01*
X13238562Y-15659527D01*
X13248086Y-15678574D01*
X13248086Y-15783336D01*
X13248086Y-15678574D02*
X13257610Y-15659527D01*
X13276658Y-15650003D01*
X13305229Y-15650003D01*
X13324277Y-15659527D01*
X13333800Y-15678574D01*
X13333800Y-15783336D01*
X13429038Y-15783336D02*
X13429038Y-15650003D01*
X13429038Y-15669050D02*
X13438562Y-15659527D01*
X13457610Y-15650003D01*
X13486181Y-15650003D01*
X13505229Y-15659527D01*
X13514753Y-15678574D01*
X13514753Y-15783336D01*
X13514753Y-15678574D02*
X13524277Y-15659527D01*
X13543324Y-15650003D01*
X13571896Y-15650003D01*
X13590943Y-15659527D01*
X13600467Y-15678574D01*
X13600467Y-15783336D01*
X13990943Y-15573812D02*
X13819515Y-15830955D01*
X14248086Y-15583336D02*
X14267134Y-15583336D01*
X14286181Y-15592860D01*
X14295705Y-15602384D01*
X14305229Y-15621431D01*
X14314753Y-15659527D01*
X14314753Y-15707146D01*
X14305229Y-15745241D01*
X14295705Y-15764288D01*
X14286181Y-15773812D01*
X14267134Y-15783336D01*
X14248086Y-15783336D01*
X14229038Y-15773812D01*
X14219515Y-15764288D01*
X14209991Y-15745241D01*
X14200467Y-15707146D01*
X14200467Y-15659527D01*
X14209991Y-15621431D01*
X14219515Y-15602384D01*
X14229038Y-15592860D01*
X14248086Y-15583336D01*
X14400467Y-15764288D02*
X14409991Y-15773812D01*
X14400467Y-15783336D01*
X14390943Y-15773812D01*
X14400467Y-15764288D01*
X14400467Y-15783336D01*
X14600467Y-15783336D02*
X14486181Y-15783336D01*
X14543324Y-15783336D02*
X14543324Y-15583336D01*
X14524277Y-15611908D01*
X14505229Y-15630955D01*
X14486181Y-15640479D01*
X14781419Y-15583336D02*
X14686181Y-15583336D01*
X14676658Y-15678574D01*
X14686181Y-15669050D01*
X14705229Y-15659527D01*
X14752848Y-15659527D01*
X14771896Y-15669050D01*
X14781419Y-15678574D01*
X14790943Y-15697622D01*
X14790943Y-15745241D01*
X14781419Y-15764288D01*
X14771896Y-15773812D01*
X14752848Y-15783336D01*
X14705229Y-15783336D01*
X14686181Y-15773812D01*
X14676658Y-15764288D01*
X14857610Y-15583336D02*
X14990943Y-15583336D01*
X14905229Y-15783336D01*
X15162372Y-15583336D02*
X15067134Y-15583336D01*
X15057610Y-15678574D01*
X15067134Y-15669050D01*
X15086181Y-15659527D01*
X15133800Y-15659527D01*
X15152848Y-15669050D01*
X15162372Y-15678574D01*
X15171896Y-15697622D01*
X15171896Y-15745241D01*
X15162372Y-15764288D01*
X15152848Y-15773812D01*
X15133800Y-15783336D01*
X15086181Y-15783336D01*
X15067134Y-15773812D01*
X15057610Y-15764288D01*
X15248086Y-15583336D02*
X15248086Y-15621431D01*
X15324277Y-15583336D02*
X15324277Y-15621431D01*
X15619515Y-15859527D02*
X15609991Y-15850003D01*
X15590943Y-15821431D01*
X15581419Y-15802384D01*
X15571896Y-15773812D01*
X15562372Y-15726193D01*
X15562372Y-15688098D01*
X15571896Y-15640479D01*
X15581419Y-15611908D01*
X15590943Y-15592860D01*
X15609991Y-15564288D01*
X15619515Y-15554765D01*
X15800467Y-15783336D02*
X15686181Y-15783336D01*
X15743324Y-15783336D02*
X15743324Y-15583336D01*
X15724277Y-15611908D01*
X15705229Y-15630955D01*
X15686181Y-15640479D01*
X16038562Y-15783336D02*
X16038562Y-15583336D01*
X16124277Y-15783336D02*
X16124277Y-15678574D01*
X16114753Y-15659527D01*
X16095705Y-15650003D01*
X16067134Y-15650003D01*
X16048086Y-15659527D01*
X16038562Y-15669050D01*
X16248086Y-15783336D02*
X16229038Y-15773812D01*
X16219515Y-15764288D01*
X16209991Y-15745241D01*
X16209991Y-15688098D01*
X16219515Y-15669050D01*
X16229038Y-15659527D01*
X16248086Y-15650003D01*
X16276658Y-15650003D01*
X16295705Y-15659527D01*
X16305229Y-15669050D01*
X16314753Y-15688098D01*
X16314753Y-15745241D01*
X16305229Y-15764288D01*
X16295705Y-15773812D01*
X16276658Y-15783336D01*
X16248086Y-15783336D01*
X16429038Y-15783336D02*
X16409991Y-15773812D01*
X16400467Y-15754765D01*
X16400467Y-15583336D01*
X16581419Y-15773812D02*
X16562372Y-15783336D01*
X16524277Y-15783336D01*
X16505229Y-15773812D01*
X16495705Y-15754765D01*
X16495705Y-15678574D01*
X16505229Y-15659527D01*
X16524277Y-15650003D01*
X16562372Y-15650003D01*
X16581419Y-15659527D01*
X16590943Y-15678574D01*
X16590943Y-15697622D01*
X16495705Y-15716669D01*
X16657610Y-15859527D02*
X16667134Y-15850003D01*
X16686181Y-15821431D01*
X16695705Y-15802384D01*
X16705229Y-15773812D01*
X16714753Y-15726193D01*
X16714753Y-15688098D01*
X16705229Y-15640479D01*
X16695705Y-15611908D01*
X16686181Y-15592860D01*
X16667134Y-15564288D01*
X16657610Y-15554765D01*
X17019515Y-15859527D02*
X17009991Y-15850003D01*
X16990943Y-15821431D01*
X16981420Y-15802384D01*
X16971896Y-15773812D01*
X16962372Y-15726193D01*
X16962372Y-15688098D01*
X16971896Y-15640479D01*
X16981420Y-15611908D01*
X16990943Y-15592860D01*
X17009991Y-15564288D01*
X17019515Y-15554765D01*
X17095705Y-15650003D02*
X17095705Y-15783336D01*
X17095705Y-15669050D02*
X17105229Y-15659527D01*
X17124277Y-15650003D01*
X17152848Y-15650003D01*
X17171896Y-15659527D01*
X17181420Y-15678574D01*
X17181420Y-15783336D01*
X17305229Y-15783336D02*
X17286181Y-15773812D01*
X17276658Y-15764288D01*
X17267134Y-15745241D01*
X17267134Y-15688098D01*
X17276658Y-15669050D01*
X17286181Y-15659527D01*
X17305229Y-15650003D01*
X17333800Y-15650003D01*
X17352848Y-15659527D01*
X17362372Y-15669050D01*
X17371896Y-15688098D01*
X17371896Y-15745241D01*
X17362372Y-15764288D01*
X17352848Y-15773812D01*
X17333800Y-15783336D01*
X17305229Y-15783336D01*
X17429039Y-15650003D02*
X17505229Y-15650003D01*
X17457610Y-15583336D02*
X17457610Y-15754765D01*
X17467134Y-15773812D01*
X17486181Y-15783336D01*
X17505229Y-15783336D01*
X17724277Y-15650003D02*
X17724277Y-15850003D01*
X17724277Y-15659527D02*
X17743324Y-15650003D01*
X17781420Y-15650003D01*
X17800467Y-15659527D01*
X17809991Y-15669050D01*
X17819515Y-15688098D01*
X17819515Y-15745241D01*
X17809991Y-15764288D01*
X17800467Y-15773812D01*
X17781420Y-15783336D01*
X17743324Y-15783336D01*
X17724277Y-15773812D01*
X17933800Y-15783336D02*
X17914753Y-15773812D01*
X17905229Y-15754765D01*
X17905229Y-15583336D01*
X18095705Y-15783336D02*
X18095705Y-15678574D01*
X18086181Y-15659527D01*
X18067134Y-15650003D01*
X18029039Y-15650003D01*
X18009991Y-15659527D01*
X18095705Y-15773812D02*
X18076658Y-15783336D01*
X18029039Y-15783336D01*
X18009991Y-15773812D01*
X18000467Y-15754765D01*
X18000467Y-15735717D01*
X18009991Y-15716669D01*
X18029039Y-15707146D01*
X18076658Y-15707146D01*
X18095705Y-15697622D01*
X18162372Y-15650003D02*
X18238562Y-15650003D01*
X18190943Y-15583336D02*
X18190943Y-15754765D01*
X18200467Y-15773812D01*
X18219515Y-15783336D01*
X18238562Y-15783336D01*
X18381420Y-15773812D02*
X18362372Y-15783336D01*
X18324277Y-15783336D01*
X18305229Y-15773812D01*
X18295705Y-15754765D01*
X18295705Y-15678574D01*
X18305229Y-15659527D01*
X18324277Y-15650003D01*
X18362372Y-15650003D01*
X18381420Y-15659527D01*
X18390943Y-15678574D01*
X18390943Y-15697622D01*
X18295705Y-15716669D01*
X18562372Y-15783336D02*
X18562372Y-15583336D01*
X18562372Y-15773812D02*
X18543324Y-15783336D01*
X18505229Y-15783336D01*
X18486181Y-15773812D01*
X18476658Y-15764288D01*
X18467134Y-15745241D01*
X18467134Y-15688098D01*
X18476658Y-15669050D01*
X18486181Y-15659527D01*
X18505229Y-15650003D01*
X18543324Y-15650003D01*
X18562372Y-15659527D01*
X18638562Y-15859527D02*
X18648086Y-15850003D01*
X18667134Y-15821431D01*
X18676658Y-15802384D01*
X18686181Y-15773812D01*
X18695705Y-15726193D01*
X18695705Y-15688098D01*
X18686181Y-15640479D01*
X18676658Y-15611908D01*
X18667134Y-15592860D01*
X18648086Y-15564288D01*
X18638562Y-15554765D01*
M02*
