G04 #@! TF.GenerationSoftware,KiCad,Pcbnew,(6.0.11)*
G04 #@! TF.CreationDate,2024-09-03T20:48:01+02:00*
G04 #@! TF.ProjectId,tcbm2sd,7463626d-3273-4642-9e6b-696361645f70,1.2*
G04 #@! TF.SameCoordinates,Original*
G04 #@! TF.FileFunction,Soldermask,Top*
G04 #@! TF.FilePolarity,Negative*
%FSLAX46Y46*%
G04 Gerber Fmt 4.6, Leading zero omitted, Abs format (unit mm)*
G04 Created by KiCad (PCBNEW (6.0.11)) date 2024-09-03 20:48:01*
%MOMM*%
%LPD*%
G01*
G04 APERTURE LIST*
G04 Aperture macros list*
%AMRoundRect*
0 Rectangle with rounded corners*
0 $1 Rounding radius*
0 $2 $3 $4 $5 $6 $7 $8 $9 X,Y pos of 4 corners*
0 Add a 4 corners polygon primitive as box body*
4,1,4,$2,$3,$4,$5,$6,$7,$8,$9,$2,$3,0*
0 Add four circle primitives for the rounded corners*
1,1,$1+$1,$2,$3*
1,1,$1+$1,$4,$5*
1,1,$1+$1,$6,$7*
1,1,$1+$1,$8,$9*
0 Add four rect primitives between the rounded corners*
20,1,$1+$1,$2,$3,$4,$5,0*
20,1,$1+$1,$4,$5,$6,$7,0*
20,1,$1+$1,$6,$7,$8,$9,0*
20,1,$1+$1,$8,$9,$2,$3,0*%
G04 Aperture macros list end*
%ADD10RoundRect,0.250000X-0.537500X-0.425000X0.537500X-0.425000X0.537500X0.425000X-0.537500X0.425000X0*%
%ADD11R,2.000000X1.500000*%
%ADD12R,2.000000X3.800000*%
%ADD13R,1.000000X1.500000*%
%ADD14RoundRect,0.250000X-0.097227X0.574524X-0.574524X0.097227X0.097227X-0.574524X0.574524X-0.097227X0*%
%ADD15C,2.000000*%
%ADD16R,0.600000X0.450000*%
%ADD17RoundRect,0.250000X0.574524X0.097227X0.097227X0.574524X-0.574524X-0.097227X-0.097227X-0.574524X0*%
%ADD18R,1.600000X0.700000*%
%ADD19R,1.400000X1.600000*%
%ADD20R,1.400000X1.200000*%
%ADD21R,2.200000X1.200000*%
%ADD22R,1.700000X1.700000*%
%ADD23O,1.700000X1.700000*%
%ADD24RoundRect,0.250000X0.425000X-0.537500X0.425000X0.537500X-0.425000X0.537500X-0.425000X-0.537500X0*%
%ADD25RoundRect,0.250000X-0.574524X-0.097227X-0.097227X-0.574524X0.574524X0.097227X0.097227X0.574524X0*%
%ADD26RoundRect,0.150000X-0.825000X-0.150000X0.825000X-0.150000X0.825000X0.150000X-0.825000X0.150000X0*%
%ADD27RoundRect,0.075000X-0.415425X-0.521491X0.521491X0.415425X0.415425X0.521491X-0.521491X-0.415425X0*%
%ADD28RoundRect,0.075000X0.415425X-0.521491X0.521491X-0.415425X-0.415425X0.521491X-0.521491X0.415425X0*%
%ADD29R,1.600000X1.600000*%
%ADD30O,1.600000X1.600000*%
%ADD31RoundRect,0.250000X0.450000X-0.350000X0.450000X0.350000X-0.450000X0.350000X-0.450000X-0.350000X0*%
%ADD32RoundRect,0.250000X0.350000X0.450000X-0.350000X0.450000X-0.350000X-0.450000X0.350000X-0.450000X0*%
%ADD33C,5.000000*%
%ADD34RoundRect,0.163300X-0.337500X-4.512500X0.337500X-4.512500X0.337500X4.512500X-0.337500X4.512500X0*%
G04 APERTURE END LIST*
D10*
X125562500Y-136652000D03*
X128437500Y-136652000D03*
D11*
X126390000Y-122922000D03*
X126390000Y-125222000D03*
D12*
X132690000Y-125222000D03*
D11*
X126390000Y-127522000D03*
D13*
X125700000Y-102743000D03*
X127000000Y-102743000D03*
X128300000Y-102743000D03*
D14*
X154530623Y-131473377D03*
X153063377Y-132940623D03*
D15*
X165989000Y-62738000D03*
X172489000Y-62738000D03*
X172489000Y-67238000D03*
X165989000Y-67238000D03*
D16*
X165193000Y-111887000D03*
X167293000Y-111887000D03*
D17*
X154530623Y-115668623D03*
X153063377Y-114201377D03*
D13*
X125700000Y-106807000D03*
X127000000Y-106807000D03*
X128300000Y-106807000D03*
X135748000Y-98679000D03*
X137048000Y-98679000D03*
D18*
X164742400Y-81721600D03*
X164742400Y-82821600D03*
X164742400Y-83921600D03*
X164742400Y-85021600D03*
X164742400Y-86121600D03*
X164742400Y-87221600D03*
D19*
X165242400Y-77071600D03*
D20*
X165242400Y-91671600D03*
D21*
X174842400Y-91671600D03*
X174842400Y-76171600D03*
D18*
X164742400Y-88321600D03*
X164742400Y-89421600D03*
X164742400Y-90521600D03*
D22*
X124348000Y-133351300D03*
D23*
X126888000Y-133351300D03*
X129428000Y-133351300D03*
D24*
X123571000Y-125770500D03*
X123571000Y-122895500D03*
D25*
X135791377Y-131473377D03*
X137258623Y-132940623D03*
D15*
X131087000Y-62738000D03*
X124587000Y-62738000D03*
X131087000Y-67238000D03*
X124587000Y-67238000D03*
D22*
X171323000Y-95504000D03*
D23*
X168783000Y-95504000D03*
X166243000Y-95504000D03*
X163703000Y-95504000D03*
X161163000Y-95504000D03*
X158623000Y-95504000D03*
D26*
X163768000Y-123698000D03*
X163768000Y-124968000D03*
X163768000Y-126238000D03*
X163768000Y-127508000D03*
X163768000Y-128778000D03*
X163768000Y-130048000D03*
X163768000Y-131318000D03*
X168718000Y-131318000D03*
X168718000Y-130048000D03*
X168718000Y-128778000D03*
X168718000Y-127508000D03*
X168718000Y-126238000D03*
X168718000Y-124968000D03*
X168718000Y-123698000D03*
D27*
X138505357Y-124923342D03*
X138858911Y-125276895D03*
X139212464Y-125630449D03*
X139566018Y-125984002D03*
X139919571Y-126337555D03*
X140273124Y-126691109D03*
X140626678Y-127044662D03*
X140980231Y-127398215D03*
X141333785Y-127751769D03*
X141687338Y-128105322D03*
X142040891Y-128458876D03*
X142394445Y-128812429D03*
X142747998Y-129165982D03*
X143101551Y-129519536D03*
X143455105Y-129873089D03*
X143808658Y-130226643D03*
D28*
X146513342Y-130226643D03*
X146866895Y-129873089D03*
X147220449Y-129519536D03*
X147574002Y-129165982D03*
X147927555Y-128812429D03*
X148281109Y-128458876D03*
X148634662Y-128105322D03*
X148988215Y-127751769D03*
X149341769Y-127398215D03*
X149695322Y-127044662D03*
X150048876Y-126691109D03*
X150402429Y-126337555D03*
X150755982Y-125984002D03*
X151109536Y-125630449D03*
X151463089Y-125276895D03*
X151816643Y-124923342D03*
D27*
X151816643Y-122218658D03*
X151463089Y-121865105D03*
X151109536Y-121511551D03*
X150755982Y-121157998D03*
X150402429Y-120804445D03*
X150048876Y-120450891D03*
X149695322Y-120097338D03*
X149341769Y-119743785D03*
X148988215Y-119390231D03*
X148634662Y-119036678D03*
X148281109Y-118683124D03*
X147927555Y-118329571D03*
X147574002Y-117976018D03*
X147220449Y-117622464D03*
X146866895Y-117268911D03*
X146513342Y-116915357D03*
D28*
X143808658Y-116915357D03*
X143455105Y-117268911D03*
X143101551Y-117622464D03*
X142747998Y-117976018D03*
X142394445Y-118329571D03*
X142040891Y-118683124D03*
X141687338Y-119036678D03*
X141333785Y-119390231D03*
X140980231Y-119743785D03*
X140626678Y-120097338D03*
X140273124Y-120450891D03*
X139919571Y-120804445D03*
X139566018Y-121157998D03*
X139212464Y-121511551D03*
X138858911Y-121865105D03*
X138505357Y-122218658D03*
D29*
X124460000Y-90678000D03*
D30*
X127000000Y-90678000D03*
X129540000Y-90678000D03*
X132080000Y-90678000D03*
X134620000Y-90678000D03*
X137160000Y-90678000D03*
X139700000Y-90678000D03*
X142240000Y-90678000D03*
X144780000Y-90678000D03*
X147320000Y-90678000D03*
X149860000Y-90678000D03*
X152400000Y-90678000D03*
X152400000Y-75438000D03*
X149860000Y-75438000D03*
X147320000Y-75438000D03*
X144780000Y-75438000D03*
X142240000Y-75438000D03*
X139700000Y-75438000D03*
X137160000Y-75438000D03*
X134620000Y-75438000D03*
X132080000Y-75438000D03*
X129540000Y-75438000D03*
X127000000Y-75438000D03*
X124460000Y-75438000D03*
X135890000Y-77978000D03*
X133350000Y-77978000D03*
X146050000Y-77978000D03*
X143510000Y-77978000D03*
D22*
X152400000Y-77978000D03*
D23*
X152400000Y-80518000D03*
X152400000Y-83058000D03*
D31*
X169799000Y-113903000D03*
X169799000Y-111903000D03*
D22*
X150236000Y-108966000D03*
D23*
X147696000Y-108966000D03*
X145156000Y-108966000D03*
X142616000Y-108966000D03*
X140076000Y-108966000D03*
D22*
X157734000Y-77724000D03*
D23*
X157734000Y-80264000D03*
X157734000Y-82804000D03*
X157734000Y-85344000D03*
X157734000Y-87884000D03*
X157734000Y-90424000D03*
D10*
X162595700Y-73152000D03*
X165470700Y-73152000D03*
D16*
X165193000Y-113894500D03*
X167293000Y-113894500D03*
D13*
X125700000Y-98679000D03*
X127000000Y-98679000D03*
X128300000Y-98679000D03*
D23*
X157454000Y-63881000D03*
X157454000Y-66421000D03*
X154914000Y-63881000D03*
X154914000Y-66421000D03*
X152374000Y-63881000D03*
X152374000Y-66421000D03*
X149834000Y-63881000D03*
X149834000Y-66421000D03*
X147294000Y-63881000D03*
X147294000Y-66421000D03*
X144754000Y-63881000D03*
X144754000Y-66421000D03*
X142214000Y-63881000D03*
X142214000Y-66421000D03*
X139674000Y-63881000D03*
D22*
X139674000Y-66421000D03*
D29*
X158623000Y-101219000D03*
D30*
X158623000Y-103759000D03*
X158623000Y-106299000D03*
X158623000Y-108839000D03*
X158623000Y-111379000D03*
X158623000Y-113919000D03*
X158623000Y-116459000D03*
X158623000Y-118999000D03*
X158623000Y-121539000D03*
X158623000Y-124079000D03*
X158623000Y-126619000D03*
X158623000Y-129159000D03*
X158623000Y-131699000D03*
X158623000Y-134239000D03*
X173863000Y-134239000D03*
X173863000Y-131699000D03*
X173863000Y-129159000D03*
X173863000Y-126619000D03*
X173863000Y-124079000D03*
X173863000Y-121539000D03*
X173863000Y-118999000D03*
X173863000Y-116459000D03*
X173863000Y-113919000D03*
X173863000Y-111379000D03*
X173863000Y-108839000D03*
X173863000Y-106299000D03*
X173863000Y-103759000D03*
X173863000Y-101219000D03*
D32*
X159750000Y-73152000D03*
X157750000Y-73152000D03*
D14*
X137258623Y-114201377D03*
X135791377Y-115668623D03*
D33*
X148501100Y-102003600D03*
D34*
X124501100Y-145503600D03*
X126501100Y-145503600D03*
X128501100Y-145503600D03*
X130501100Y-145503600D03*
X132501100Y-145503600D03*
X134501100Y-145503600D03*
X136501100Y-145503600D03*
X138501100Y-145503600D03*
X140501100Y-145503600D03*
X142501100Y-145503600D03*
X144501100Y-145503600D03*
X146501100Y-145503600D03*
X148501100Y-145503600D03*
X150501100Y-145503600D03*
X152501100Y-145503600D03*
X154501100Y-145503600D03*
X156501100Y-145503600D03*
X158501100Y-145503600D03*
X160501100Y-145503600D03*
X162501100Y-145503600D03*
X164501100Y-145503600D03*
X166501100Y-145503600D03*
X168501100Y-145503600D03*
X170501100Y-145503600D03*
X172501100Y-145503600D03*
M02*
