G04 #@! TF.GenerationSoftware,KiCad,Pcbnew,(6.0.11)*
G04 #@! TF.CreationDate,2024-10-09T23:58:53+02:00*
G04 #@! TF.ProjectId,tcbm2sd,7463626d-3273-4642-9e6b-696361645f70,1.3*
G04 #@! TF.SameCoordinates,Original*
G04 #@! TF.FileFunction,Soldermask,Bot*
G04 #@! TF.FilePolarity,Negative*
%FSLAX46Y46*%
G04 Gerber Fmt 4.6, Leading zero omitted, Abs format (unit mm)*
G04 Created by KiCad (PCBNEW (6.0.11)) date 2024-10-09 23:58:53*
%MOMM*%
%LPD*%
G01*
G04 APERTURE LIST*
G04 Aperture macros list*
%AMRoundRect*
0 Rectangle with rounded corners*
0 $1 Rounding radius*
0 $2 $3 $4 $5 $6 $7 $8 $9 X,Y pos of 4 corners*
0 Add a 4 corners polygon primitive as box body*
4,1,4,$2,$3,$4,$5,$6,$7,$8,$9,$2,$3,0*
0 Add four circle primitives for the rounded corners*
1,1,$1+$1,$2,$3*
1,1,$1+$1,$4,$5*
1,1,$1+$1,$6,$7*
1,1,$1+$1,$8,$9*
0 Add four rect primitives between the rounded corners*
20,1,$1+$1,$2,$3,$4,$5,0*
20,1,$1+$1,$4,$5,$6,$7,0*
20,1,$1+$1,$6,$7,$8,$9,0*
20,1,$1+$1,$8,$9,$2,$3,0*%
G04 Aperture macros list end*
%ADD10C,2.100000*%
%ADD11C,2.000000*%
%ADD12R,1.700000X1.700000*%
%ADD13O,1.700000X1.700000*%
%ADD14R,1.600000X1.600000*%
%ADD15O,1.600000X1.600000*%
%ADD16C,5.000000*%
%ADD17RoundRect,0.163300X-0.337500X-4.512500X0.337500X-4.512500X0.337500X4.512500X-0.337500X4.512500X0*%
G04 APERTURE END LIST*
D10*
X173512600Y-64978300D03*
X166502600Y-64978300D03*
D11*
X167752600Y-62488300D03*
X167752600Y-68988300D03*
X172252600Y-62488300D03*
X172252600Y-68988300D03*
D12*
X124348000Y-133351300D03*
D13*
X126888000Y-133351300D03*
X129428000Y-133351300D03*
D10*
X125100600Y-64978300D03*
X132110600Y-64978300D03*
D11*
X126350600Y-62488300D03*
X126350600Y-68988300D03*
X130850600Y-68988300D03*
X130850600Y-62488300D03*
D12*
X171323000Y-95504000D03*
D13*
X168783000Y-95504000D03*
X166243000Y-95504000D03*
X163703000Y-95504000D03*
X161163000Y-95504000D03*
X158623000Y-95504000D03*
D14*
X124460000Y-90678000D03*
D15*
X127000000Y-90678000D03*
X129540000Y-90678000D03*
X132080000Y-90678000D03*
X134620000Y-90678000D03*
X137160000Y-90678000D03*
X139700000Y-90678000D03*
X142240000Y-90678000D03*
X144780000Y-90678000D03*
X147320000Y-90678000D03*
X149860000Y-90678000D03*
X152400000Y-90678000D03*
X152400000Y-75438000D03*
X149860000Y-75438000D03*
X147320000Y-75438000D03*
X144780000Y-75438000D03*
X142240000Y-75438000D03*
X139700000Y-75438000D03*
X137160000Y-75438000D03*
X134620000Y-75438000D03*
X132080000Y-75438000D03*
X129540000Y-75438000D03*
X127000000Y-75438000D03*
X124460000Y-75438000D03*
X135890000Y-77978000D03*
X133350000Y-77978000D03*
X146050000Y-77978000D03*
X143510000Y-77978000D03*
D12*
X152400000Y-77978000D03*
D13*
X152400000Y-80518000D03*
X152400000Y-83058000D03*
D12*
X157734000Y-77724000D03*
D13*
X157734000Y-80264000D03*
X157734000Y-82804000D03*
X157734000Y-85344000D03*
X157734000Y-87884000D03*
X157734000Y-90424000D03*
D12*
X139674000Y-66421000D03*
D13*
X139674000Y-63881000D03*
X142214000Y-66421000D03*
X142214000Y-63881000D03*
X144754000Y-66421000D03*
X144754000Y-63881000D03*
X147294000Y-66421000D03*
X147294000Y-63881000D03*
X149834000Y-66421000D03*
X149834000Y-63881000D03*
X152374000Y-66421000D03*
X152374000Y-63881000D03*
X154914000Y-66421000D03*
X154914000Y-63881000D03*
X157454000Y-66421000D03*
X157454000Y-63881000D03*
D14*
X158623000Y-101219000D03*
D15*
X158623000Y-103759000D03*
X158623000Y-106299000D03*
X158623000Y-108839000D03*
X158623000Y-111379000D03*
X158623000Y-113919000D03*
X158623000Y-116459000D03*
X158623000Y-118999000D03*
X158623000Y-121539000D03*
X158623000Y-124079000D03*
X158623000Y-126619000D03*
X158623000Y-129159000D03*
X158623000Y-131699000D03*
X158623000Y-134239000D03*
X173863000Y-134239000D03*
X173863000Y-131699000D03*
X173863000Y-129159000D03*
X173863000Y-126619000D03*
X173863000Y-124079000D03*
X173863000Y-121539000D03*
X173863000Y-118999000D03*
X173863000Y-116459000D03*
X173863000Y-113919000D03*
X173863000Y-111379000D03*
X173863000Y-108839000D03*
X173863000Y-106299000D03*
X173863000Y-103759000D03*
X173863000Y-101219000D03*
D16*
X148501100Y-102003600D03*
D17*
X124501100Y-145503600D03*
X168501100Y-145503600D03*
X126501100Y-145503600D03*
X170501100Y-145503600D03*
X128501100Y-145503600D03*
X172501100Y-145503600D03*
X130501100Y-145503600D03*
X132501100Y-145503600D03*
X134501100Y-145503600D03*
X136501100Y-145503600D03*
X138501100Y-145503600D03*
X140501100Y-145503600D03*
X142501100Y-145503600D03*
X144501100Y-145503600D03*
X146501100Y-145503600D03*
X148501100Y-145503600D03*
X150501100Y-145503600D03*
X152501100Y-145503600D03*
X154501100Y-145503600D03*
X156501100Y-145503600D03*
X158501100Y-145503600D03*
X160501100Y-145503600D03*
X162501100Y-145503600D03*
X164501100Y-145503600D03*
X166501100Y-145503600D03*
M02*
