M48
; DRILL file {KiCad (6.0.11)} date Wed Oct  9 23:58:56 2024
; FORMAT={-:-/ absolute / metric / decimal}
; #@! TF.CreationDate,2024-10-09T23:58:56+02:00
; #@! TF.GenerationSoftware,Kicad,Pcbnew,(6.0.11)
; #@! TF.FileFunction,Plated,1,2,PTH
FMAT,2
METRIC
; #@! TA.AperFunction,Plated,PTH,ViaDrill
T1C0.400
; #@! TA.AperFunction,Plated,PTH,ComponentDrill
T2C0.800
; #@! TA.AperFunction,Plated,PTH,ComponentDrill
T3C1.000
; #@! TA.AperFunction,Plated,PTH,ComponentDrill
T4C1.100
; #@! TA.AperFunction,Plated,PTH,ComponentDrill
T5C1.300
%
G90
G05
T1
X123.467Y-144.656
X124.812Y-100.517
X124.996Y-131.736
X125.845Y-100.971
X126.055Y-96.194
X126.902Y-105.176
X127.324Y-100.937
X127.845Y-138.018
X128.128Y-123.116
X128.241Y-140.221
X128.347Y-100.711
X128.347Y-104.775
X128.636Y-96.735
X128.698Y-84.481
X128.723Y-131.539
X130.078Y-81.664
X130.554Y-134.285
X130.931Y-131.184
X131.369Y-133.037
X131.986Y-140.016
X132.902Y-133.495
X134.981Y-80.622
X135.823Y-97.017
X135.844Y-130.087
X135.929Y-117.261
X136.121Y-81.313
X136.292Y-123.54
X136.708Y-116.588
X136.812Y-129.979
X136.858Y-73.537
X136.963Y-96.909
X137.183Y-139.0
X137.282Y-137.748
X137.35Y-121.768
X137.432Y-82.462
X138.05Y-119.354
X138.065Y-117.944
X138.084Y-126.718
X138.466Y-70.631
X138.576Y-132.251
X138.766Y-79.849
X138.935Y-138.443
X138.98Y-135.328
X139.028Y-119.171
X139.586Y-124.117
X139.928Y-130.349
X139.998Y-118.898
X140.11Y-87.902
X140.222Y-139.366
X140.48Y-81.959
X140.678Y-118.214
X140.963Y-125.333
X141.16Y-114.399
X141.299Y-108.024
X141.542Y-121.012
X141.995Y-132.829
X142.089Y-124.032
X142.214Y-115.971
X142.506Y-79.76
X143.116Y-111.154
X143.792Y-123.02
X143.859Y-133.007
X144.104Y-115.661
X144.243Y-112.847
X144.28Y-68.55
X144.374Y-93.702
X144.901Y-102.491
X145.05Y-128.948
X145.128Y-121.64
X145.2Y-113.924
X145.286Y-131.78
X145.599Y-130.335
X145.664Y-73.017
X145.756Y-126.133
X145.771Y-127.094
X145.887Y-108.626
X145.966Y-140.03
X146.004Y-128.908
X146.012Y-123.354
X146.275Y-131.58
X146.589Y-137.541
X146.663Y-133.392
X147.297Y-122.525
X147.313Y-121.397
X147.374Y-139.259
X148.071Y-78.675
X148.222Y-120.473
X148.242Y-123.915
X148.26Y-111.129
X148.365Y-139.314
X148.369Y-135.062
X148.509Y-130.173
X148.646Y-131.182
X148.881Y-97.427
X149.359Y-123.609
X149.674Y-133.38
X149.685Y-140.043
X149.744Y-82.39
X149.816Y-117.721
X149.98Y-115.277
X150.034Y-122.934
X150.156Y-77.785
X150.167Y-70.489
X150.318Y-135.45
X150.376Y-132.717
X150.591Y-86.941
X150.677Y-129.501
X151.19Y-136.344
X151.338Y-140.293
X151.341Y-117.285
X151.376Y-119.344
X151.942Y-128.129
X152.265Y-135.672
X152.757Y-126.556
X152.89Y-120.443
X152.911Y-116.058
X153.675Y-139.314
X154.235Y-109.334
X154.51Y-137.214
X154.723Y-133.856
X155.056Y-121.422
X155.066Y-76.827
X155.174Y-120.169
X155.802Y-136.059
X155.837Y-108.556
X155.987Y-119.416
X156.566Y-112.169
X156.606Y-124.65
X156.695Y-127.015
X156.767Y-137.498
X156.97Y-119.549
X157.239Y-140.331
X157.384Y-122.731
X157.508Y-114.781
X158.431Y-75.348
X158.49Y-136.775
X159.087Y-135.664
X159.514Y-139.281
X160.519Y-118.437
X160.698Y-139.368
X160.726Y-133.435
X160.983Y-73.621
X162.36Y-138.187
X162.62Y-135.302
X162.779Y-86.153
X163.022Y-89.353
X163.245Y-83.967
X163.372Y-82.833
X163.431Y-138.099
X164.279Y-134.771
X164.924Y-137.447
X164.927Y-136.421
X164.934Y-135.466
X165.879Y-137.481
X167.1Y-72.502
X167.235Y-118.281
X167.525Y-92.889
X168.232Y-114.039
X169.008Y-104.597
X170.0Y-74.558
X173.524Y-144.854
X174.842Y-92.844
X174.877Y-73.281
T2
X124.46Y-75.438
X124.46Y-90.678
X127.0Y-75.438
X127.0Y-90.678
X129.54Y-75.438
X129.54Y-90.678
X132.08Y-75.438
X132.08Y-90.678
X133.35Y-77.978
X134.62Y-75.438
X134.62Y-90.678
X135.89Y-77.978
X137.16Y-75.438
X137.16Y-90.678
X139.7Y-75.438
X139.7Y-90.678
X142.24Y-75.438
X142.24Y-90.678
X143.51Y-77.978
X144.78Y-75.438
X144.78Y-90.678
X146.05Y-77.978
X147.32Y-75.438
X147.32Y-90.678
X149.86Y-75.438
X149.86Y-90.678
X152.4Y-75.438
X152.4Y-90.678
X158.623Y-101.219
X158.623Y-103.759
X158.623Y-106.299
X158.623Y-108.839
X158.623Y-111.379
X158.623Y-113.919
X158.623Y-116.459
X158.623Y-118.999
X158.623Y-121.539
X158.623Y-124.079
X158.623Y-126.619
X158.623Y-129.159
X158.623Y-131.699
X158.623Y-134.239
X173.863Y-101.219
X173.863Y-103.759
X173.863Y-106.299
X173.863Y-108.839
X173.863Y-111.379
X173.863Y-113.919
X173.863Y-116.459
X173.863Y-118.999
X173.863Y-121.539
X173.863Y-124.079
X173.863Y-126.619
X173.863Y-129.159
X173.863Y-131.699
X173.863Y-134.239
T3
X124.348Y-133.351
X126.888Y-133.351
X129.428Y-133.351
X139.674Y-63.881
X139.674Y-66.421
X142.214Y-63.881
X142.214Y-66.421
X144.754Y-63.881
X144.754Y-66.421
X147.294Y-63.881
X147.294Y-66.421
X149.834Y-63.881
X149.834Y-66.421
X152.374Y-63.881
X152.374Y-66.421
X152.4Y-77.978
X152.4Y-80.518
X152.4Y-83.058
X154.914Y-63.881
X154.914Y-66.421
X157.454Y-63.881
X157.454Y-66.421
X157.734Y-77.724
X157.734Y-80.264
X157.734Y-82.804
X157.734Y-85.344
X157.734Y-87.884
X157.734Y-90.424
X158.623Y-95.504
X161.163Y-95.504
X163.703Y-95.504
X166.243Y-95.504
X168.783Y-95.504
X171.323Y-95.504
T4
X126.351Y-62.488
X126.351Y-68.988
X130.851Y-62.488
X130.851Y-68.988
X167.753Y-62.488
X167.753Y-68.988
X172.253Y-62.488
X172.253Y-68.988
T5
X125.101Y-64.978
X132.111Y-64.978
X166.503Y-64.978
X173.513Y-64.978
T0
M30
