G04 #@! TF.GenerationSoftware,KiCad,Pcbnew,9.0.1*
G04 #@! TF.CreationDate,2025-11-08T15:47:49+01:00*
G04 #@! TF.ProjectId,tcbm2sd,7463626d-3273-4642-9e6b-696361645f70,1.4*
G04 #@! TF.SameCoordinates,Original*
G04 #@! TF.FileFunction,Legend,Bot*
G04 #@! TF.FilePolarity,Positive*
%FSLAX46Y46*%
G04 Gerber Fmt 4.6, Leading zero omitted, Abs format (unit mm)*
G04 Created by KiCad (PCBNEW 9.0.1) date 2025-11-08 15:47:49*
%MOMM*%
%LPD*%
G01*
G04 APERTURE LIST*
G04 Aperture macros list*
%AMRoundRect*
0 Rectangle with rounded corners*
0 $1 Rounding radius*
0 $2 $3 $4 $5 $6 $7 $8 $9 X,Y pos of 4 corners*
0 Add a 4 corners polygon primitive as box body*
4,1,4,$2,$3,$4,$5,$6,$7,$8,$9,$2,$3,0*
0 Add four circle primitives for the rounded corners*
1,1,$1+$1,$2,$3*
1,1,$1+$1,$4,$5*
1,1,$1+$1,$6,$7*
1,1,$1+$1,$8,$9*
0 Add four rect primitives between the rounded corners*
20,1,$1+$1,$2,$3,$4,$5,0*
20,1,$1+$1,$4,$5,$6,$7,0*
20,1,$1+$1,$6,$7,$8,$9,0*
20,1,$1+$1,$8,$9,$2,$3,0*%
G04 Aperture macros list end*
%ADD10C,0.150000*%
%ADD11C,2.100000*%
%ADD12C,2.000000*%
%ADD13R,1.700000X1.700000*%
%ADD14C,1.700000*%
%ADD15R,1.600000X1.600000*%
%ADD16O,1.600000X1.600000*%
%ADD17RoundRect,0.250000X-0.550000X-0.550000X0.550000X-0.550000X0.550000X0.550000X-0.550000X0.550000X0*%
%ADD18C,1.600000*%
%ADD19C,5.000000*%
%ADD20RoundRect,0.125200X-0.375600X-4.550600X0.375600X-4.550600X0.375600X4.550600X-0.375600X4.550600X0*%
G04 APERTURE END LIST*
D10*
X163365363Y-100847731D02*
X163936791Y-100847731D01*
X163936791Y-100847731D02*
X164051077Y-100809636D01*
X164051077Y-100809636D02*
X164127268Y-100733445D01*
X164127268Y-100733445D02*
X164165363Y-100619160D01*
X164165363Y-100619160D02*
X164165363Y-100542969D01*
X164165363Y-101228684D02*
X163365363Y-101228684D01*
X163365363Y-101228684D02*
X163365363Y-101533446D01*
X163365363Y-101533446D02*
X163403458Y-101609636D01*
X163403458Y-101609636D02*
X163441553Y-101647731D01*
X163441553Y-101647731D02*
X163517744Y-101685827D01*
X163517744Y-101685827D02*
X163632029Y-101685827D01*
X163632029Y-101685827D02*
X163708220Y-101647731D01*
X163708220Y-101647731D02*
X163746315Y-101609636D01*
X163746315Y-101609636D02*
X163784410Y-101533446D01*
X163784410Y-101533446D02*
X163784410Y-101228684D01*
X164165363Y-102447731D02*
X164165363Y-101990588D01*
X164165363Y-102219160D02*
X163365363Y-102219160D01*
X163365363Y-102219160D02*
X163479648Y-102142969D01*
X163479648Y-102142969D02*
X163555839Y-102066779D01*
X163555839Y-102066779D02*
X163593934Y-101990588D01*
X164089172Y-102790589D02*
X164127268Y-102828684D01*
X164127268Y-102828684D02*
X164165363Y-102790589D01*
X164165363Y-102790589D02*
X164127268Y-102752493D01*
X164127268Y-102752493D02*
X164089172Y-102790589D01*
X164089172Y-102790589D02*
X164165363Y-102790589D01*
X163670125Y-102790589D02*
X163708220Y-102828684D01*
X163708220Y-102828684D02*
X163746315Y-102790589D01*
X163746315Y-102790589D02*
X163708220Y-102752493D01*
X163708220Y-102752493D02*
X163670125Y-102790589D01*
X163670125Y-102790589D02*
X163746315Y-102790589D01*
X163632029Y-103781065D02*
X164432029Y-103781065D01*
X163670125Y-103781065D02*
X163632029Y-103857255D01*
X163632029Y-103857255D02*
X163632029Y-104009636D01*
X163632029Y-104009636D02*
X163670125Y-104085827D01*
X163670125Y-104085827D02*
X163708220Y-104123922D01*
X163708220Y-104123922D02*
X163784410Y-104162017D01*
X163784410Y-104162017D02*
X164012982Y-104162017D01*
X164012982Y-104162017D02*
X164089172Y-104123922D01*
X164089172Y-104123922D02*
X164127268Y-104085827D01*
X164127268Y-104085827D02*
X164165363Y-104009636D01*
X164165363Y-104009636D02*
X164165363Y-103857255D01*
X164165363Y-103857255D02*
X164127268Y-103781065D01*
X164165363Y-104847732D02*
X163746315Y-104847732D01*
X163746315Y-104847732D02*
X163670125Y-104809637D01*
X163670125Y-104809637D02*
X163632029Y-104733446D01*
X163632029Y-104733446D02*
X163632029Y-104581065D01*
X163632029Y-104581065D02*
X163670125Y-104504875D01*
X164127268Y-104847732D02*
X164165363Y-104771541D01*
X164165363Y-104771541D02*
X164165363Y-104581065D01*
X164165363Y-104581065D02*
X164127268Y-104504875D01*
X164127268Y-104504875D02*
X164051077Y-104466779D01*
X164051077Y-104466779D02*
X163974887Y-104466779D01*
X163974887Y-104466779D02*
X163898696Y-104504875D01*
X163898696Y-104504875D02*
X163860601Y-104581065D01*
X163860601Y-104581065D02*
X163860601Y-104771541D01*
X163860601Y-104771541D02*
X163822506Y-104847732D01*
X164127268Y-105190589D02*
X164165363Y-105266780D01*
X164165363Y-105266780D02*
X164165363Y-105419161D01*
X164165363Y-105419161D02*
X164127268Y-105495351D01*
X164127268Y-105495351D02*
X164051077Y-105533447D01*
X164051077Y-105533447D02*
X164012982Y-105533447D01*
X164012982Y-105533447D02*
X163936791Y-105495351D01*
X163936791Y-105495351D02*
X163898696Y-105419161D01*
X163898696Y-105419161D02*
X163898696Y-105304875D01*
X163898696Y-105304875D02*
X163860601Y-105228685D01*
X163860601Y-105228685D02*
X163784410Y-105190589D01*
X163784410Y-105190589D02*
X163746315Y-105190589D01*
X163746315Y-105190589D02*
X163670125Y-105228685D01*
X163670125Y-105228685D02*
X163632029Y-105304875D01*
X163632029Y-105304875D02*
X163632029Y-105419161D01*
X163632029Y-105419161D02*
X163670125Y-105495351D01*
X164127268Y-105838208D02*
X164165363Y-105914399D01*
X164165363Y-105914399D02*
X164165363Y-106066780D01*
X164165363Y-106066780D02*
X164127268Y-106142970D01*
X164127268Y-106142970D02*
X164051077Y-106181066D01*
X164051077Y-106181066D02*
X164012982Y-106181066D01*
X164012982Y-106181066D02*
X163936791Y-106142970D01*
X163936791Y-106142970D02*
X163898696Y-106066780D01*
X163898696Y-106066780D02*
X163898696Y-105952494D01*
X163898696Y-105952494D02*
X163860601Y-105876304D01*
X163860601Y-105876304D02*
X163784410Y-105838208D01*
X163784410Y-105838208D02*
X163746315Y-105838208D01*
X163746315Y-105838208D02*
X163670125Y-105876304D01*
X163670125Y-105876304D02*
X163632029Y-105952494D01*
X163632029Y-105952494D02*
X163632029Y-106066780D01*
X163632029Y-106066780D02*
X163670125Y-106142970D01*
X164127268Y-107476304D02*
X164165363Y-107400113D01*
X164165363Y-107400113D02*
X164165363Y-107247732D01*
X164165363Y-107247732D02*
X164127268Y-107171542D01*
X164127268Y-107171542D02*
X164089172Y-107133447D01*
X164089172Y-107133447D02*
X164012982Y-107095351D01*
X164012982Y-107095351D02*
X163784410Y-107095351D01*
X163784410Y-107095351D02*
X163708220Y-107133447D01*
X163708220Y-107133447D02*
X163670125Y-107171542D01*
X163670125Y-107171542D02*
X163632029Y-107247732D01*
X163632029Y-107247732D02*
X163632029Y-107400113D01*
X163632029Y-107400113D02*
X163670125Y-107476304D01*
X164165363Y-107933446D02*
X164127268Y-107857256D01*
X164127268Y-107857256D02*
X164089172Y-107819161D01*
X164089172Y-107819161D02*
X164012982Y-107781065D01*
X164012982Y-107781065D02*
X163784410Y-107781065D01*
X163784410Y-107781065D02*
X163708220Y-107819161D01*
X163708220Y-107819161D02*
X163670125Y-107857256D01*
X163670125Y-107857256D02*
X163632029Y-107933446D01*
X163632029Y-107933446D02*
X163632029Y-108047732D01*
X163632029Y-108047732D02*
X163670125Y-108123923D01*
X163670125Y-108123923D02*
X163708220Y-108162018D01*
X163708220Y-108162018D02*
X163784410Y-108200113D01*
X163784410Y-108200113D02*
X164012982Y-108200113D01*
X164012982Y-108200113D02*
X164089172Y-108162018D01*
X164089172Y-108162018D02*
X164127268Y-108123923D01*
X164127268Y-108123923D02*
X164165363Y-108047732D01*
X164165363Y-108047732D02*
X164165363Y-107933446D01*
X164165363Y-108542971D02*
X163632029Y-108542971D01*
X163708220Y-108542971D02*
X163670125Y-108581066D01*
X163670125Y-108581066D02*
X163632029Y-108657256D01*
X163632029Y-108657256D02*
X163632029Y-108771542D01*
X163632029Y-108771542D02*
X163670125Y-108847733D01*
X163670125Y-108847733D02*
X163746315Y-108885828D01*
X163746315Y-108885828D02*
X164165363Y-108885828D01*
X163746315Y-108885828D02*
X163670125Y-108923923D01*
X163670125Y-108923923D02*
X163632029Y-109000114D01*
X163632029Y-109000114D02*
X163632029Y-109114399D01*
X163632029Y-109114399D02*
X163670125Y-109190590D01*
X163670125Y-109190590D02*
X163746315Y-109228685D01*
X163746315Y-109228685D02*
X164165363Y-109228685D01*
X163632029Y-109609638D02*
X164432029Y-109609638D01*
X163670125Y-109609638D02*
X163632029Y-109685828D01*
X163632029Y-109685828D02*
X163632029Y-109838209D01*
X163632029Y-109838209D02*
X163670125Y-109914400D01*
X163670125Y-109914400D02*
X163708220Y-109952495D01*
X163708220Y-109952495D02*
X163784410Y-109990590D01*
X163784410Y-109990590D02*
X164012982Y-109990590D01*
X164012982Y-109990590D02*
X164089172Y-109952495D01*
X164089172Y-109952495D02*
X164127268Y-109914400D01*
X164127268Y-109914400D02*
X164165363Y-109838209D01*
X164165363Y-109838209D02*
X164165363Y-109685828D01*
X164165363Y-109685828D02*
X164127268Y-109609638D01*
X163632029Y-110676305D02*
X164165363Y-110676305D01*
X163632029Y-110333448D02*
X164051077Y-110333448D01*
X164051077Y-110333448D02*
X164127268Y-110371543D01*
X164127268Y-110371543D02*
X164165363Y-110447733D01*
X164165363Y-110447733D02*
X164165363Y-110562019D01*
X164165363Y-110562019D02*
X164127268Y-110638210D01*
X164127268Y-110638210D02*
X164089172Y-110676305D01*
X163632029Y-110942972D02*
X163632029Y-111247734D01*
X163365363Y-111057258D02*
X164051077Y-111057258D01*
X164051077Y-111057258D02*
X164127268Y-111095353D01*
X164127268Y-111095353D02*
X164165363Y-111171543D01*
X164165363Y-111171543D02*
X164165363Y-111247734D01*
X164127268Y-111819163D02*
X164165363Y-111742972D01*
X164165363Y-111742972D02*
X164165363Y-111590591D01*
X164165363Y-111590591D02*
X164127268Y-111514401D01*
X164127268Y-111514401D02*
X164051077Y-111476305D01*
X164051077Y-111476305D02*
X163746315Y-111476305D01*
X163746315Y-111476305D02*
X163670125Y-111514401D01*
X163670125Y-111514401D02*
X163632029Y-111590591D01*
X163632029Y-111590591D02*
X163632029Y-111742972D01*
X163632029Y-111742972D02*
X163670125Y-111819163D01*
X163670125Y-111819163D02*
X163746315Y-111857258D01*
X163746315Y-111857258D02*
X163822506Y-111857258D01*
X163822506Y-111857258D02*
X163898696Y-111476305D01*
X164165363Y-112200115D02*
X163632029Y-112200115D01*
X163784410Y-112200115D02*
X163708220Y-112238210D01*
X163708220Y-112238210D02*
X163670125Y-112276305D01*
X163670125Y-112276305D02*
X163632029Y-112352496D01*
X163632029Y-112352496D02*
X163632029Y-112428686D01*
X164165363Y-113304877D02*
X163632029Y-113304877D01*
X163784410Y-113304877D02*
X163708220Y-113342972D01*
X163708220Y-113342972D02*
X163670125Y-113381067D01*
X163670125Y-113381067D02*
X163632029Y-113457258D01*
X163632029Y-113457258D02*
X163632029Y-113533448D01*
X164127268Y-114104877D02*
X164165363Y-114028686D01*
X164165363Y-114028686D02*
X164165363Y-113876305D01*
X164165363Y-113876305D02*
X164127268Y-113800115D01*
X164127268Y-113800115D02*
X164051077Y-113762019D01*
X164051077Y-113762019D02*
X163746315Y-113762019D01*
X163746315Y-113762019D02*
X163670125Y-113800115D01*
X163670125Y-113800115D02*
X163632029Y-113876305D01*
X163632029Y-113876305D02*
X163632029Y-114028686D01*
X163632029Y-114028686D02*
X163670125Y-114104877D01*
X163670125Y-114104877D02*
X163746315Y-114142972D01*
X163746315Y-114142972D02*
X163822506Y-114142972D01*
X163822506Y-114142972D02*
X163898696Y-113762019D01*
X164127268Y-114447733D02*
X164165363Y-114523924D01*
X164165363Y-114523924D02*
X164165363Y-114676305D01*
X164165363Y-114676305D02*
X164127268Y-114752495D01*
X164127268Y-114752495D02*
X164051077Y-114790591D01*
X164051077Y-114790591D02*
X164012982Y-114790591D01*
X164012982Y-114790591D02*
X163936791Y-114752495D01*
X163936791Y-114752495D02*
X163898696Y-114676305D01*
X163898696Y-114676305D02*
X163898696Y-114562019D01*
X163898696Y-114562019D02*
X163860601Y-114485829D01*
X163860601Y-114485829D02*
X163784410Y-114447733D01*
X163784410Y-114447733D02*
X163746315Y-114447733D01*
X163746315Y-114447733D02*
X163670125Y-114485829D01*
X163670125Y-114485829D02*
X163632029Y-114562019D01*
X163632029Y-114562019D02*
X163632029Y-114676305D01*
X163632029Y-114676305D02*
X163670125Y-114752495D01*
X164127268Y-115438210D02*
X164165363Y-115362019D01*
X164165363Y-115362019D02*
X164165363Y-115209638D01*
X164165363Y-115209638D02*
X164127268Y-115133448D01*
X164127268Y-115133448D02*
X164051077Y-115095352D01*
X164051077Y-115095352D02*
X163746315Y-115095352D01*
X163746315Y-115095352D02*
X163670125Y-115133448D01*
X163670125Y-115133448D02*
X163632029Y-115209638D01*
X163632029Y-115209638D02*
X163632029Y-115362019D01*
X163632029Y-115362019D02*
X163670125Y-115438210D01*
X163670125Y-115438210D02*
X163746315Y-115476305D01*
X163746315Y-115476305D02*
X163822506Y-115476305D01*
X163822506Y-115476305D02*
X163898696Y-115095352D01*
X163632029Y-115704876D02*
X163632029Y-116009638D01*
X163365363Y-115819162D02*
X164051077Y-115819162D01*
X164051077Y-115819162D02*
X164127268Y-115857257D01*
X164127268Y-115857257D02*
X164165363Y-115933447D01*
X164165363Y-115933447D02*
X164165363Y-116009638D01*
X163632029Y-116771543D02*
X163632029Y-117076305D01*
X163365363Y-116885829D02*
X164051077Y-116885829D01*
X164051077Y-116885829D02*
X164127268Y-116923924D01*
X164127268Y-116923924D02*
X164165363Y-117000114D01*
X164165363Y-117000114D02*
X164165363Y-117076305D01*
X164165363Y-117457257D02*
X164127268Y-117381067D01*
X164127268Y-117381067D02*
X164089172Y-117342972D01*
X164089172Y-117342972D02*
X164012982Y-117304876D01*
X164012982Y-117304876D02*
X163784410Y-117304876D01*
X163784410Y-117304876D02*
X163708220Y-117342972D01*
X163708220Y-117342972D02*
X163670125Y-117381067D01*
X163670125Y-117381067D02*
X163632029Y-117457257D01*
X163632029Y-117457257D02*
X163632029Y-117571543D01*
X163632029Y-117571543D02*
X163670125Y-117647734D01*
X163670125Y-117647734D02*
X163708220Y-117685829D01*
X163708220Y-117685829D02*
X163784410Y-117723924D01*
X163784410Y-117723924D02*
X164012982Y-117723924D01*
X164012982Y-117723924D02*
X164089172Y-117685829D01*
X164089172Y-117685829D02*
X164127268Y-117647734D01*
X164127268Y-117647734D02*
X164165363Y-117571543D01*
X164165363Y-117571543D02*
X164165363Y-117457257D01*
X163936791Y-118638210D02*
X163936791Y-119019163D01*
X164165363Y-118562020D02*
X163365363Y-118828687D01*
X163365363Y-118828687D02*
X164165363Y-119095353D01*
X164165363Y-119362020D02*
X163632029Y-119362020D01*
X163784410Y-119362020D02*
X163708220Y-119400115D01*
X163708220Y-119400115D02*
X163670125Y-119438210D01*
X163670125Y-119438210D02*
X163632029Y-119514401D01*
X163632029Y-119514401D02*
X163632029Y-119590591D01*
X164165363Y-120200115D02*
X163365363Y-120200115D01*
X164127268Y-120200115D02*
X164165363Y-120123924D01*
X164165363Y-120123924D02*
X164165363Y-119971543D01*
X164165363Y-119971543D02*
X164127268Y-119895353D01*
X164127268Y-119895353D02*
X164089172Y-119857258D01*
X164089172Y-119857258D02*
X164012982Y-119819162D01*
X164012982Y-119819162D02*
X163784410Y-119819162D01*
X163784410Y-119819162D02*
X163708220Y-119857258D01*
X163708220Y-119857258D02*
X163670125Y-119895353D01*
X163670125Y-119895353D02*
X163632029Y-119971543D01*
X163632029Y-119971543D02*
X163632029Y-120123924D01*
X163632029Y-120123924D02*
X163670125Y-120200115D01*
X163632029Y-120923925D02*
X164165363Y-120923925D01*
X163632029Y-120581068D02*
X164051077Y-120581068D01*
X164051077Y-120581068D02*
X164127268Y-120619163D01*
X164127268Y-120619163D02*
X164165363Y-120695353D01*
X164165363Y-120695353D02*
X164165363Y-120809639D01*
X164165363Y-120809639D02*
X164127268Y-120885830D01*
X164127268Y-120885830D02*
X164089172Y-120923925D01*
X164165363Y-121304878D02*
X163632029Y-121304878D01*
X163365363Y-121304878D02*
X163403458Y-121266782D01*
X163403458Y-121266782D02*
X163441553Y-121304878D01*
X163441553Y-121304878D02*
X163403458Y-121342973D01*
X163403458Y-121342973D02*
X163365363Y-121304878D01*
X163365363Y-121304878D02*
X163441553Y-121304878D01*
X163632029Y-121685830D02*
X164165363Y-121685830D01*
X163708220Y-121685830D02*
X163670125Y-121723925D01*
X163670125Y-121723925D02*
X163632029Y-121800115D01*
X163632029Y-121800115D02*
X163632029Y-121914401D01*
X163632029Y-121914401D02*
X163670125Y-121990592D01*
X163670125Y-121990592D02*
X163746315Y-122028687D01*
X163746315Y-122028687D02*
X164165363Y-122028687D01*
X164165363Y-122523925D02*
X164127268Y-122447735D01*
X164127268Y-122447735D02*
X164089172Y-122409640D01*
X164089172Y-122409640D02*
X164012982Y-122371544D01*
X164012982Y-122371544D02*
X163784410Y-122371544D01*
X163784410Y-122371544D02*
X163708220Y-122409640D01*
X163708220Y-122409640D02*
X163670125Y-122447735D01*
X163670125Y-122447735D02*
X163632029Y-122523925D01*
X163632029Y-122523925D02*
X163632029Y-122638211D01*
X163632029Y-122638211D02*
X163670125Y-122714402D01*
X163670125Y-122714402D02*
X163708220Y-122752497D01*
X163708220Y-122752497D02*
X163784410Y-122790592D01*
X163784410Y-122790592D02*
X164012982Y-122790592D01*
X164012982Y-122790592D02*
X164089172Y-122752497D01*
X164089172Y-122752497D02*
X164127268Y-122714402D01*
X164127268Y-122714402D02*
X164165363Y-122638211D01*
X164165363Y-122638211D02*
X164165363Y-122523925D01*
X164653318Y-100847731D02*
X165224746Y-100847731D01*
X165224746Y-100847731D02*
X165339032Y-100809636D01*
X165339032Y-100809636D02*
X165415223Y-100733445D01*
X165415223Y-100733445D02*
X165453318Y-100619160D01*
X165453318Y-100619160D02*
X165453318Y-100542969D01*
X165453318Y-101228684D02*
X164653318Y-101228684D01*
X164653318Y-101228684D02*
X164653318Y-101533446D01*
X164653318Y-101533446D02*
X164691413Y-101609636D01*
X164691413Y-101609636D02*
X164729508Y-101647731D01*
X164729508Y-101647731D02*
X164805699Y-101685827D01*
X164805699Y-101685827D02*
X164919984Y-101685827D01*
X164919984Y-101685827D02*
X164996175Y-101647731D01*
X164996175Y-101647731D02*
X165034270Y-101609636D01*
X165034270Y-101609636D02*
X165072365Y-101533446D01*
X165072365Y-101533446D02*
X165072365Y-101228684D01*
X164729508Y-101990588D02*
X164691413Y-102028684D01*
X164691413Y-102028684D02*
X164653318Y-102104874D01*
X164653318Y-102104874D02*
X164653318Y-102295350D01*
X164653318Y-102295350D02*
X164691413Y-102371541D01*
X164691413Y-102371541D02*
X164729508Y-102409636D01*
X164729508Y-102409636D02*
X164805699Y-102447731D01*
X164805699Y-102447731D02*
X164881889Y-102447731D01*
X164881889Y-102447731D02*
X164996175Y-102409636D01*
X164996175Y-102409636D02*
X165453318Y-101952493D01*
X165453318Y-101952493D02*
X165453318Y-102447731D01*
X165377127Y-102790589D02*
X165415223Y-102828684D01*
X165415223Y-102828684D02*
X165453318Y-102790589D01*
X165453318Y-102790589D02*
X165415223Y-102752493D01*
X165415223Y-102752493D02*
X165377127Y-102790589D01*
X165377127Y-102790589D02*
X165453318Y-102790589D01*
X164958080Y-102790589D02*
X164996175Y-102828684D01*
X164996175Y-102828684D02*
X165034270Y-102790589D01*
X165034270Y-102790589D02*
X164996175Y-102752493D01*
X164996175Y-102752493D02*
X164958080Y-102790589D01*
X164958080Y-102790589D02*
X165034270Y-102790589D01*
X165415223Y-103742969D02*
X165453318Y-103819160D01*
X165453318Y-103819160D02*
X165453318Y-103971541D01*
X165453318Y-103971541D02*
X165415223Y-104047731D01*
X165415223Y-104047731D02*
X165339032Y-104085827D01*
X165339032Y-104085827D02*
X165300937Y-104085827D01*
X165300937Y-104085827D02*
X165224746Y-104047731D01*
X165224746Y-104047731D02*
X165186651Y-103971541D01*
X165186651Y-103971541D02*
X165186651Y-103857255D01*
X165186651Y-103857255D02*
X165148556Y-103781065D01*
X165148556Y-103781065D02*
X165072365Y-103742969D01*
X165072365Y-103742969D02*
X165034270Y-103742969D01*
X165034270Y-103742969D02*
X164958080Y-103781065D01*
X164958080Y-103781065D02*
X164919984Y-103857255D01*
X164919984Y-103857255D02*
X164919984Y-103971541D01*
X164919984Y-103971541D02*
X164958080Y-104047731D01*
X165415223Y-104733446D02*
X165453318Y-104657255D01*
X165453318Y-104657255D02*
X165453318Y-104504874D01*
X165453318Y-104504874D02*
X165415223Y-104428684D01*
X165415223Y-104428684D02*
X165339032Y-104390588D01*
X165339032Y-104390588D02*
X165034270Y-104390588D01*
X165034270Y-104390588D02*
X164958080Y-104428684D01*
X164958080Y-104428684D02*
X164919984Y-104504874D01*
X164919984Y-104504874D02*
X164919984Y-104657255D01*
X164919984Y-104657255D02*
X164958080Y-104733446D01*
X164958080Y-104733446D02*
X165034270Y-104771541D01*
X165034270Y-104771541D02*
X165110461Y-104771541D01*
X165110461Y-104771541D02*
X165186651Y-104390588D01*
X165453318Y-105228683D02*
X165415223Y-105152493D01*
X165415223Y-105152493D02*
X165339032Y-105114398D01*
X165339032Y-105114398D02*
X164653318Y-105114398D01*
X165415223Y-105838208D02*
X165453318Y-105762017D01*
X165453318Y-105762017D02*
X165453318Y-105609636D01*
X165453318Y-105609636D02*
X165415223Y-105533446D01*
X165415223Y-105533446D02*
X165339032Y-105495350D01*
X165339032Y-105495350D02*
X165034270Y-105495350D01*
X165034270Y-105495350D02*
X164958080Y-105533446D01*
X164958080Y-105533446D02*
X164919984Y-105609636D01*
X164919984Y-105609636D02*
X164919984Y-105762017D01*
X164919984Y-105762017D02*
X164958080Y-105838208D01*
X164958080Y-105838208D02*
X165034270Y-105876303D01*
X165034270Y-105876303D02*
X165110461Y-105876303D01*
X165110461Y-105876303D02*
X165186651Y-105495350D01*
X165415223Y-106562017D02*
X165453318Y-106485826D01*
X165453318Y-106485826D02*
X165453318Y-106333445D01*
X165453318Y-106333445D02*
X165415223Y-106257255D01*
X165415223Y-106257255D02*
X165377127Y-106219160D01*
X165377127Y-106219160D02*
X165300937Y-106181064D01*
X165300937Y-106181064D02*
X165072365Y-106181064D01*
X165072365Y-106181064D02*
X164996175Y-106219160D01*
X164996175Y-106219160D02*
X164958080Y-106257255D01*
X164958080Y-106257255D02*
X164919984Y-106333445D01*
X164919984Y-106333445D02*
X164919984Y-106485826D01*
X164919984Y-106485826D02*
X164958080Y-106562017D01*
X164919984Y-106790588D02*
X164919984Y-107095350D01*
X164653318Y-106904874D02*
X165339032Y-106904874D01*
X165339032Y-106904874D02*
X165415223Y-106942969D01*
X165415223Y-106942969D02*
X165453318Y-107019159D01*
X165453318Y-107019159D02*
X165453318Y-107095350D01*
X165453318Y-107971541D02*
X164653318Y-107971541D01*
X165453318Y-108314398D02*
X165034270Y-108314398D01*
X165034270Y-108314398D02*
X164958080Y-108276303D01*
X164958080Y-108276303D02*
X164919984Y-108200112D01*
X164919984Y-108200112D02*
X164919984Y-108085826D01*
X164919984Y-108085826D02*
X164958080Y-108009636D01*
X164958080Y-108009636D02*
X164996175Y-107971541D01*
X164615223Y-109266779D02*
X165643794Y-108581065D01*
X164919984Y-109457255D02*
X165453318Y-109609636D01*
X165453318Y-109609636D02*
X165072365Y-109762017D01*
X165072365Y-109762017D02*
X165453318Y-109914398D01*
X165453318Y-109914398D02*
X164919984Y-110066779D01*
X165453318Y-110981065D02*
X164653318Y-110981065D01*
X164653318Y-110981065D02*
X164653318Y-111171541D01*
X164653318Y-111171541D02*
X164691413Y-111285827D01*
X164691413Y-111285827D02*
X164767603Y-111362017D01*
X164767603Y-111362017D02*
X164843794Y-111400112D01*
X164843794Y-111400112D02*
X164996175Y-111438208D01*
X164996175Y-111438208D02*
X165110461Y-111438208D01*
X165110461Y-111438208D02*
X165262842Y-111400112D01*
X165262842Y-111400112D02*
X165339032Y-111362017D01*
X165339032Y-111362017D02*
X165415223Y-111285827D01*
X165415223Y-111285827D02*
X165453318Y-111171541D01*
X165453318Y-111171541D02*
X165453318Y-110981065D01*
X165034270Y-111781065D02*
X165034270Y-112047731D01*
X165453318Y-112162017D02*
X165453318Y-111781065D01*
X165453318Y-111781065D02*
X164653318Y-111781065D01*
X164653318Y-111781065D02*
X164653318Y-112162017D01*
X164653318Y-112390589D02*
X165453318Y-112657256D01*
X165453318Y-112657256D02*
X164653318Y-112923922D01*
X164919984Y-113762017D02*
X164919984Y-114333446D01*
X164577127Y-113990589D02*
X165605699Y-113762017D01*
X165262842Y-114257256D02*
X165262842Y-113685827D01*
X165605699Y-114028684D02*
X164577127Y-114257256D01*
X165453318Y-114638208D02*
X165453318Y-114790589D01*
X165453318Y-114790589D02*
X165415223Y-114866779D01*
X165415223Y-114866779D02*
X165377127Y-114904875D01*
X165377127Y-114904875D02*
X165262842Y-114981065D01*
X165262842Y-114981065D02*
X165110461Y-115019160D01*
X165110461Y-115019160D02*
X164805699Y-115019160D01*
X164805699Y-115019160D02*
X164729508Y-114981065D01*
X164729508Y-114981065D02*
X164691413Y-114942970D01*
X164691413Y-114942970D02*
X164653318Y-114866779D01*
X164653318Y-114866779D02*
X164653318Y-114714398D01*
X164653318Y-114714398D02*
X164691413Y-114638208D01*
X164691413Y-114638208D02*
X164729508Y-114600113D01*
X164729508Y-114600113D02*
X164805699Y-114562017D01*
X164805699Y-114562017D02*
X164996175Y-114562017D01*
X164996175Y-114562017D02*
X165072365Y-114600113D01*
X165072365Y-114600113D02*
X165110461Y-114638208D01*
X165110461Y-114638208D02*
X165148556Y-114714398D01*
X165148556Y-114714398D02*
X165148556Y-114866779D01*
X165148556Y-114866779D02*
X165110461Y-114942970D01*
X165110461Y-114942970D02*
X165072365Y-114981065D01*
X165072365Y-114981065D02*
X164996175Y-115019160D01*
X165758080Y-116200113D02*
X165719984Y-116162018D01*
X165719984Y-116162018D02*
X165605699Y-116085827D01*
X165605699Y-116085827D02*
X165529508Y-116047732D01*
X165529508Y-116047732D02*
X165415223Y-116009637D01*
X165415223Y-116009637D02*
X165224746Y-115971542D01*
X165224746Y-115971542D02*
X165072365Y-115971542D01*
X165072365Y-115971542D02*
X164881889Y-116009637D01*
X164881889Y-116009637D02*
X164767603Y-116047732D01*
X164767603Y-116047732D02*
X164691413Y-116085827D01*
X164691413Y-116085827D02*
X164577127Y-116162018D01*
X164577127Y-116162018D02*
X164539032Y-116200113D01*
X165453318Y-116923922D02*
X165453318Y-116466779D01*
X165453318Y-116695351D02*
X164653318Y-116695351D01*
X164653318Y-116695351D02*
X164767603Y-116619160D01*
X164767603Y-116619160D02*
X164843794Y-116542970D01*
X164843794Y-116542970D02*
X164881889Y-116466779D01*
X165148556Y-117266780D02*
X165148556Y-117876304D01*
X164729508Y-118219160D02*
X164691413Y-118257256D01*
X164691413Y-118257256D02*
X164653318Y-118333446D01*
X164653318Y-118333446D02*
X164653318Y-118523922D01*
X164653318Y-118523922D02*
X164691413Y-118600113D01*
X164691413Y-118600113D02*
X164729508Y-118638208D01*
X164729508Y-118638208D02*
X164805699Y-118676303D01*
X164805699Y-118676303D02*
X164881889Y-118676303D01*
X164881889Y-118676303D02*
X164996175Y-118638208D01*
X164996175Y-118638208D02*
X165453318Y-118181065D01*
X165453318Y-118181065D02*
X165453318Y-118676303D01*
X165758080Y-118942970D02*
X165719984Y-118981065D01*
X165719984Y-118981065D02*
X165605699Y-119057256D01*
X165605699Y-119057256D02*
X165529508Y-119095351D01*
X165529508Y-119095351D02*
X165415223Y-119133446D01*
X165415223Y-119133446D02*
X165224746Y-119171542D01*
X165224746Y-119171542D02*
X165072365Y-119171542D01*
X165072365Y-119171542D02*
X164881889Y-119133446D01*
X164881889Y-119133446D02*
X164767603Y-119095351D01*
X164767603Y-119095351D02*
X164691413Y-119057256D01*
X164691413Y-119057256D02*
X164577127Y-118981065D01*
X164577127Y-118981065D02*
X164539032Y-118942970D01*
X165453318Y-120276303D02*
X165415223Y-120200113D01*
X165415223Y-120200113D02*
X165377127Y-120162018D01*
X165377127Y-120162018D02*
X165300937Y-120123922D01*
X165300937Y-120123922D02*
X165072365Y-120123922D01*
X165072365Y-120123922D02*
X164996175Y-120162018D01*
X164996175Y-120162018D02*
X164958080Y-120200113D01*
X164958080Y-120200113D02*
X164919984Y-120276303D01*
X164919984Y-120276303D02*
X164919984Y-120390589D01*
X164919984Y-120390589D02*
X164958080Y-120466780D01*
X164958080Y-120466780D02*
X164996175Y-120504875D01*
X164996175Y-120504875D02*
X165072365Y-120542970D01*
X165072365Y-120542970D02*
X165300937Y-120542970D01*
X165300937Y-120542970D02*
X165377127Y-120504875D01*
X165377127Y-120504875D02*
X165415223Y-120466780D01*
X165415223Y-120466780D02*
X165453318Y-120390589D01*
X165453318Y-120390589D02*
X165453318Y-120276303D01*
X165453318Y-120885828D02*
X164919984Y-120885828D01*
X165072365Y-120885828D02*
X164996175Y-120923923D01*
X164996175Y-120923923D02*
X164958080Y-120962018D01*
X164958080Y-120962018D02*
X164919984Y-121038209D01*
X164919984Y-121038209D02*
X164919984Y-121114399D01*
X164919984Y-121952494D02*
X164919984Y-122523923D01*
X164577127Y-122181066D02*
X165605699Y-121952494D01*
X165262842Y-122447733D02*
X165262842Y-121876304D01*
X165605699Y-122219161D02*
X164577127Y-122447733D01*
X164996175Y-122904875D02*
X164958080Y-122828685D01*
X164958080Y-122828685D02*
X164919984Y-122790590D01*
X164919984Y-122790590D02*
X164843794Y-122752494D01*
X164843794Y-122752494D02*
X164805699Y-122752494D01*
X164805699Y-122752494D02*
X164729508Y-122790590D01*
X164729508Y-122790590D02*
X164691413Y-122828685D01*
X164691413Y-122828685D02*
X164653318Y-122904875D01*
X164653318Y-122904875D02*
X164653318Y-123057256D01*
X164653318Y-123057256D02*
X164691413Y-123133447D01*
X164691413Y-123133447D02*
X164729508Y-123171542D01*
X164729508Y-123171542D02*
X164805699Y-123209637D01*
X164805699Y-123209637D02*
X164843794Y-123209637D01*
X164843794Y-123209637D02*
X164919984Y-123171542D01*
X164919984Y-123171542D02*
X164958080Y-123133447D01*
X164958080Y-123133447D02*
X164996175Y-123057256D01*
X164996175Y-123057256D02*
X164996175Y-122904875D01*
X164996175Y-122904875D02*
X165034270Y-122828685D01*
X165034270Y-122828685D02*
X165072365Y-122790590D01*
X165072365Y-122790590D02*
X165148556Y-122752494D01*
X165148556Y-122752494D02*
X165300937Y-122752494D01*
X165300937Y-122752494D02*
X165377127Y-122790590D01*
X165377127Y-122790590D02*
X165415223Y-122828685D01*
X165415223Y-122828685D02*
X165453318Y-122904875D01*
X165453318Y-122904875D02*
X165453318Y-123057256D01*
X165453318Y-123057256D02*
X165415223Y-123133447D01*
X165415223Y-123133447D02*
X165377127Y-123171542D01*
X165377127Y-123171542D02*
X165300937Y-123209637D01*
X165300937Y-123209637D02*
X165148556Y-123209637D01*
X165148556Y-123209637D02*
X165072365Y-123171542D01*
X165072365Y-123171542D02*
X165034270Y-123133447D01*
X165034270Y-123133447D02*
X164996175Y-123057256D01*
X165758080Y-124390590D02*
X165719984Y-124352495D01*
X165719984Y-124352495D02*
X165605699Y-124276304D01*
X165605699Y-124276304D02*
X165529508Y-124238209D01*
X165529508Y-124238209D02*
X165415223Y-124200114D01*
X165415223Y-124200114D02*
X165224746Y-124162019D01*
X165224746Y-124162019D02*
X165072365Y-124162019D01*
X165072365Y-124162019D02*
X164881889Y-124200114D01*
X164881889Y-124200114D02*
X164767603Y-124238209D01*
X164767603Y-124238209D02*
X164691413Y-124276304D01*
X164691413Y-124276304D02*
X164577127Y-124352495D01*
X164577127Y-124352495D02*
X164539032Y-124390590D01*
X164729508Y-124657256D02*
X164691413Y-124695352D01*
X164691413Y-124695352D02*
X164653318Y-124771542D01*
X164653318Y-124771542D02*
X164653318Y-124962018D01*
X164653318Y-124962018D02*
X164691413Y-125038209D01*
X164691413Y-125038209D02*
X164729508Y-125076304D01*
X164729508Y-125076304D02*
X164805699Y-125114399D01*
X164805699Y-125114399D02*
X164881889Y-125114399D01*
X164881889Y-125114399D02*
X164996175Y-125076304D01*
X164996175Y-125076304D02*
X165453318Y-124619161D01*
X165453318Y-124619161D02*
X165453318Y-125114399D01*
X165148556Y-125457257D02*
X165148556Y-126066781D01*
X164653318Y-126371542D02*
X164653318Y-126866780D01*
X164653318Y-126866780D02*
X164958080Y-126600114D01*
X164958080Y-126600114D02*
X164958080Y-126714399D01*
X164958080Y-126714399D02*
X164996175Y-126790590D01*
X164996175Y-126790590D02*
X165034270Y-126828685D01*
X165034270Y-126828685D02*
X165110461Y-126866780D01*
X165110461Y-126866780D02*
X165300937Y-126866780D01*
X165300937Y-126866780D02*
X165377127Y-126828685D01*
X165377127Y-126828685D02*
X165415223Y-126790590D01*
X165415223Y-126790590D02*
X165453318Y-126714399D01*
X165453318Y-126714399D02*
X165453318Y-126485828D01*
X165453318Y-126485828D02*
X165415223Y-126409637D01*
X165415223Y-126409637D02*
X165377127Y-126371542D01*
X165758080Y-127133447D02*
X165719984Y-127171542D01*
X165719984Y-127171542D02*
X165605699Y-127247733D01*
X165605699Y-127247733D02*
X165529508Y-127285828D01*
X165529508Y-127285828D02*
X165415223Y-127323923D01*
X165415223Y-127323923D02*
X165224746Y-127362019D01*
X165224746Y-127362019D02*
X165072365Y-127362019D01*
X165072365Y-127362019D02*
X164881889Y-127323923D01*
X164881889Y-127323923D02*
X164767603Y-127285828D01*
X164767603Y-127285828D02*
X164691413Y-127247733D01*
X164691413Y-127247733D02*
X164577127Y-127171542D01*
X164577127Y-127171542D02*
X164539032Y-127133447D01*
X165941273Y-100847731D02*
X166512701Y-100847731D01*
X166512701Y-100847731D02*
X166626987Y-100809636D01*
X166626987Y-100809636D02*
X166703178Y-100733445D01*
X166703178Y-100733445D02*
X166741273Y-100619160D01*
X166741273Y-100619160D02*
X166741273Y-100542969D01*
X166741273Y-101228684D02*
X165941273Y-101228684D01*
X165941273Y-101228684D02*
X165941273Y-101533446D01*
X165941273Y-101533446D02*
X165979368Y-101609636D01*
X165979368Y-101609636D02*
X166017463Y-101647731D01*
X166017463Y-101647731D02*
X166093654Y-101685827D01*
X166093654Y-101685827D02*
X166207939Y-101685827D01*
X166207939Y-101685827D02*
X166284130Y-101647731D01*
X166284130Y-101647731D02*
X166322225Y-101609636D01*
X166322225Y-101609636D02*
X166360320Y-101533446D01*
X166360320Y-101533446D02*
X166360320Y-101228684D01*
X165941273Y-101952493D02*
X165941273Y-102447731D01*
X165941273Y-102447731D02*
X166246035Y-102181065D01*
X166246035Y-102181065D02*
X166246035Y-102295350D01*
X166246035Y-102295350D02*
X166284130Y-102371541D01*
X166284130Y-102371541D02*
X166322225Y-102409636D01*
X166322225Y-102409636D02*
X166398416Y-102447731D01*
X166398416Y-102447731D02*
X166588892Y-102447731D01*
X166588892Y-102447731D02*
X166665082Y-102409636D01*
X166665082Y-102409636D02*
X166703178Y-102371541D01*
X166703178Y-102371541D02*
X166741273Y-102295350D01*
X166741273Y-102295350D02*
X166741273Y-102066779D01*
X166741273Y-102066779D02*
X166703178Y-101990588D01*
X166703178Y-101990588D02*
X166665082Y-101952493D01*
X166665082Y-102790589D02*
X166703178Y-102828684D01*
X166703178Y-102828684D02*
X166741273Y-102790589D01*
X166741273Y-102790589D02*
X166703178Y-102752493D01*
X166703178Y-102752493D02*
X166665082Y-102790589D01*
X166665082Y-102790589D02*
X166741273Y-102790589D01*
X166246035Y-102790589D02*
X166284130Y-102828684D01*
X166284130Y-102828684D02*
X166322225Y-102790589D01*
X166322225Y-102790589D02*
X166284130Y-102752493D01*
X166284130Y-102752493D02*
X166246035Y-102790589D01*
X166246035Y-102790589D02*
X166322225Y-102790589D01*
X166703178Y-103742969D02*
X166741273Y-103819160D01*
X166741273Y-103819160D02*
X166741273Y-103971541D01*
X166741273Y-103971541D02*
X166703178Y-104047731D01*
X166703178Y-104047731D02*
X166626987Y-104085827D01*
X166626987Y-104085827D02*
X166588892Y-104085827D01*
X166588892Y-104085827D02*
X166512701Y-104047731D01*
X166512701Y-104047731D02*
X166474606Y-103971541D01*
X166474606Y-103971541D02*
X166474606Y-103857255D01*
X166474606Y-103857255D02*
X166436511Y-103781065D01*
X166436511Y-103781065D02*
X166360320Y-103742969D01*
X166360320Y-103742969D02*
X166322225Y-103742969D01*
X166322225Y-103742969D02*
X166246035Y-103781065D01*
X166246035Y-103781065D02*
X166207939Y-103857255D01*
X166207939Y-103857255D02*
X166207939Y-103971541D01*
X166207939Y-103971541D02*
X166246035Y-104047731D01*
X166703178Y-104733446D02*
X166741273Y-104657255D01*
X166741273Y-104657255D02*
X166741273Y-104504874D01*
X166741273Y-104504874D02*
X166703178Y-104428684D01*
X166703178Y-104428684D02*
X166626987Y-104390588D01*
X166626987Y-104390588D02*
X166322225Y-104390588D01*
X166322225Y-104390588D02*
X166246035Y-104428684D01*
X166246035Y-104428684D02*
X166207939Y-104504874D01*
X166207939Y-104504874D02*
X166207939Y-104657255D01*
X166207939Y-104657255D02*
X166246035Y-104733446D01*
X166246035Y-104733446D02*
X166322225Y-104771541D01*
X166322225Y-104771541D02*
X166398416Y-104771541D01*
X166398416Y-104771541D02*
X166474606Y-104390588D01*
X166741273Y-105228683D02*
X166703178Y-105152493D01*
X166703178Y-105152493D02*
X166626987Y-105114398D01*
X166626987Y-105114398D02*
X165941273Y-105114398D01*
X166703178Y-105838208D02*
X166741273Y-105762017D01*
X166741273Y-105762017D02*
X166741273Y-105609636D01*
X166741273Y-105609636D02*
X166703178Y-105533446D01*
X166703178Y-105533446D02*
X166626987Y-105495350D01*
X166626987Y-105495350D02*
X166322225Y-105495350D01*
X166322225Y-105495350D02*
X166246035Y-105533446D01*
X166246035Y-105533446D02*
X166207939Y-105609636D01*
X166207939Y-105609636D02*
X166207939Y-105762017D01*
X166207939Y-105762017D02*
X166246035Y-105838208D01*
X166246035Y-105838208D02*
X166322225Y-105876303D01*
X166322225Y-105876303D02*
X166398416Y-105876303D01*
X166398416Y-105876303D02*
X166474606Y-105495350D01*
X166703178Y-106562017D02*
X166741273Y-106485826D01*
X166741273Y-106485826D02*
X166741273Y-106333445D01*
X166741273Y-106333445D02*
X166703178Y-106257255D01*
X166703178Y-106257255D02*
X166665082Y-106219160D01*
X166665082Y-106219160D02*
X166588892Y-106181064D01*
X166588892Y-106181064D02*
X166360320Y-106181064D01*
X166360320Y-106181064D02*
X166284130Y-106219160D01*
X166284130Y-106219160D02*
X166246035Y-106257255D01*
X166246035Y-106257255D02*
X166207939Y-106333445D01*
X166207939Y-106333445D02*
X166207939Y-106485826D01*
X166207939Y-106485826D02*
X166246035Y-106562017D01*
X166207939Y-106790588D02*
X166207939Y-107095350D01*
X165941273Y-106904874D02*
X166626987Y-106904874D01*
X166626987Y-106904874D02*
X166703178Y-106942969D01*
X166703178Y-106942969D02*
X166741273Y-107019159D01*
X166741273Y-107019159D02*
X166741273Y-107095350D01*
X166703178Y-107933445D02*
X166741273Y-108009636D01*
X166741273Y-108009636D02*
X166741273Y-108162017D01*
X166741273Y-108162017D02*
X166703178Y-108238207D01*
X166703178Y-108238207D02*
X166626987Y-108276303D01*
X166626987Y-108276303D02*
X166588892Y-108276303D01*
X166588892Y-108276303D02*
X166512701Y-108238207D01*
X166512701Y-108238207D02*
X166474606Y-108162017D01*
X166474606Y-108162017D02*
X166474606Y-108047731D01*
X166474606Y-108047731D02*
X166436511Y-107971541D01*
X166436511Y-107971541D02*
X166360320Y-107933445D01*
X166360320Y-107933445D02*
X166322225Y-107933445D01*
X166322225Y-107933445D02*
X166246035Y-107971541D01*
X166246035Y-107971541D02*
X166207939Y-108047731D01*
X166207939Y-108047731D02*
X166207939Y-108162017D01*
X166207939Y-108162017D02*
X166246035Y-108238207D01*
X165903178Y-109190588D02*
X166931749Y-108504874D01*
X166207939Y-109381064D02*
X166741273Y-109533445D01*
X166741273Y-109533445D02*
X166360320Y-109685826D01*
X166360320Y-109685826D02*
X166741273Y-109838207D01*
X166741273Y-109838207D02*
X166207939Y-109990588D01*
X166741273Y-110904874D02*
X165941273Y-110904874D01*
X165941273Y-110904874D02*
X165941273Y-111095350D01*
X165941273Y-111095350D02*
X165979368Y-111209636D01*
X165979368Y-111209636D02*
X166055558Y-111285826D01*
X166055558Y-111285826D02*
X166131749Y-111323921D01*
X166131749Y-111323921D02*
X166284130Y-111362017D01*
X166284130Y-111362017D02*
X166398416Y-111362017D01*
X166398416Y-111362017D02*
X166550797Y-111323921D01*
X166550797Y-111323921D02*
X166626987Y-111285826D01*
X166626987Y-111285826D02*
X166703178Y-111209636D01*
X166703178Y-111209636D02*
X166741273Y-111095350D01*
X166741273Y-111095350D02*
X166741273Y-110904874D01*
X166322225Y-111704874D02*
X166322225Y-111971540D01*
X166741273Y-112085826D02*
X166741273Y-111704874D01*
X166741273Y-111704874D02*
X165941273Y-111704874D01*
X165941273Y-111704874D02*
X165941273Y-112085826D01*
X165941273Y-112314398D02*
X166741273Y-112581065D01*
X166741273Y-112581065D02*
X165941273Y-112847731D01*
X166207939Y-113609636D02*
X166207939Y-113914398D01*
X166741273Y-113723922D02*
X166055558Y-113723922D01*
X166055558Y-113723922D02*
X165979368Y-113762017D01*
X165979368Y-113762017D02*
X165941273Y-113838207D01*
X165941273Y-113838207D02*
X165941273Y-113914398D01*
X166741273Y-114181065D02*
X166207939Y-114181065D01*
X166360320Y-114181065D02*
X166284130Y-114219160D01*
X166284130Y-114219160D02*
X166246035Y-114257255D01*
X166246035Y-114257255D02*
X166207939Y-114333446D01*
X166207939Y-114333446D02*
X166207939Y-114409636D01*
X166741273Y-114790588D02*
X166703178Y-114714398D01*
X166703178Y-114714398D02*
X166665082Y-114676303D01*
X166665082Y-114676303D02*
X166588892Y-114638207D01*
X166588892Y-114638207D02*
X166360320Y-114638207D01*
X166360320Y-114638207D02*
X166284130Y-114676303D01*
X166284130Y-114676303D02*
X166246035Y-114714398D01*
X166246035Y-114714398D02*
X166207939Y-114790588D01*
X166207939Y-114790588D02*
X166207939Y-114904874D01*
X166207939Y-114904874D02*
X166246035Y-114981065D01*
X166246035Y-114981065D02*
X166284130Y-115019160D01*
X166284130Y-115019160D02*
X166360320Y-115057255D01*
X166360320Y-115057255D02*
X166588892Y-115057255D01*
X166588892Y-115057255D02*
X166665082Y-115019160D01*
X166665082Y-115019160D02*
X166703178Y-114981065D01*
X166703178Y-114981065D02*
X166741273Y-114904874D01*
X166741273Y-114904874D02*
X166741273Y-114790588D01*
X166741273Y-115400113D02*
X166207939Y-115400113D01*
X166284130Y-115400113D02*
X166246035Y-115438208D01*
X166246035Y-115438208D02*
X166207939Y-115514398D01*
X166207939Y-115514398D02*
X166207939Y-115628684D01*
X166207939Y-115628684D02*
X166246035Y-115704875D01*
X166246035Y-115704875D02*
X166322225Y-115742970D01*
X166322225Y-115742970D02*
X166741273Y-115742970D01*
X166322225Y-115742970D02*
X166246035Y-115781065D01*
X166246035Y-115781065D02*
X166207939Y-115857256D01*
X166207939Y-115857256D02*
X166207939Y-115971541D01*
X166207939Y-115971541D02*
X166246035Y-116047732D01*
X166246035Y-116047732D02*
X166322225Y-116085827D01*
X166322225Y-116085827D02*
X166741273Y-116085827D01*
X166512701Y-117038208D02*
X166512701Y-117419161D01*
X166741273Y-116962018D02*
X165941273Y-117228685D01*
X165941273Y-117228685D02*
X166741273Y-117495351D01*
X166207939Y-118104875D02*
X166741273Y-118104875D01*
X165903178Y-117914399D02*
X166474606Y-117723922D01*
X166474606Y-117723922D02*
X166474606Y-118219161D01*
X167046035Y-119362018D02*
X167007939Y-119323923D01*
X167007939Y-119323923D02*
X166893654Y-119247732D01*
X166893654Y-119247732D02*
X166817463Y-119209637D01*
X166817463Y-119209637D02*
X166703178Y-119171542D01*
X166703178Y-119171542D02*
X166512701Y-119133447D01*
X166512701Y-119133447D02*
X166360320Y-119133447D01*
X166360320Y-119133447D02*
X166169844Y-119171542D01*
X166169844Y-119171542D02*
X166055558Y-119209637D01*
X166055558Y-119209637D02*
X165979368Y-119247732D01*
X165979368Y-119247732D02*
X165865082Y-119323923D01*
X165865082Y-119323923D02*
X165826987Y-119362018D01*
X166741273Y-120085827D02*
X166741273Y-119628684D01*
X166741273Y-119857256D02*
X165941273Y-119857256D01*
X165941273Y-119857256D02*
X166055558Y-119781065D01*
X166055558Y-119781065D02*
X166131749Y-119704875D01*
X166131749Y-119704875D02*
X166169844Y-119628684D01*
X166436511Y-120428685D02*
X166436511Y-121038209D01*
X166017463Y-121381065D02*
X165979368Y-121419161D01*
X165979368Y-121419161D02*
X165941273Y-121495351D01*
X165941273Y-121495351D02*
X165941273Y-121685827D01*
X165941273Y-121685827D02*
X165979368Y-121762018D01*
X165979368Y-121762018D02*
X166017463Y-121800113D01*
X166017463Y-121800113D02*
X166093654Y-121838208D01*
X166093654Y-121838208D02*
X166169844Y-121838208D01*
X166169844Y-121838208D02*
X166284130Y-121800113D01*
X166284130Y-121800113D02*
X166741273Y-121342970D01*
X166741273Y-121342970D02*
X166741273Y-121838208D01*
X167046035Y-122104875D02*
X167007939Y-122142970D01*
X167007939Y-122142970D02*
X166893654Y-122219161D01*
X166893654Y-122219161D02*
X166817463Y-122257256D01*
X166817463Y-122257256D02*
X166703178Y-122295351D01*
X166703178Y-122295351D02*
X166512701Y-122333447D01*
X166512701Y-122333447D02*
X166360320Y-122333447D01*
X166360320Y-122333447D02*
X166169844Y-122295351D01*
X166169844Y-122295351D02*
X166055558Y-122257256D01*
X166055558Y-122257256D02*
X165979368Y-122219161D01*
X165979368Y-122219161D02*
X165865082Y-122142970D01*
X165865082Y-122142970D02*
X165826987Y-122104875D01*
X166741273Y-123438208D02*
X166703178Y-123362018D01*
X166703178Y-123362018D02*
X166665082Y-123323923D01*
X166665082Y-123323923D02*
X166588892Y-123285827D01*
X166588892Y-123285827D02*
X166360320Y-123285827D01*
X166360320Y-123285827D02*
X166284130Y-123323923D01*
X166284130Y-123323923D02*
X166246035Y-123362018D01*
X166246035Y-123362018D02*
X166207939Y-123438208D01*
X166207939Y-123438208D02*
X166207939Y-123552494D01*
X166207939Y-123552494D02*
X166246035Y-123628685D01*
X166246035Y-123628685D02*
X166284130Y-123666780D01*
X166284130Y-123666780D02*
X166360320Y-123704875D01*
X166360320Y-123704875D02*
X166588892Y-123704875D01*
X166588892Y-123704875D02*
X166665082Y-123666780D01*
X166665082Y-123666780D02*
X166703178Y-123628685D01*
X166703178Y-123628685D02*
X166741273Y-123552494D01*
X166741273Y-123552494D02*
X166741273Y-123438208D01*
X166741273Y-124047733D02*
X166207939Y-124047733D01*
X166360320Y-124047733D02*
X166284130Y-124085828D01*
X166284130Y-124085828D02*
X166246035Y-124123923D01*
X166246035Y-124123923D02*
X166207939Y-124200114D01*
X166207939Y-124200114D02*
X166207939Y-124276304D01*
X166741273Y-125609638D02*
X166360320Y-125342971D01*
X166741273Y-125152495D02*
X165941273Y-125152495D01*
X165941273Y-125152495D02*
X165941273Y-125457257D01*
X165941273Y-125457257D02*
X165979368Y-125533447D01*
X165979368Y-125533447D02*
X166017463Y-125571542D01*
X166017463Y-125571542D02*
X166093654Y-125609638D01*
X166093654Y-125609638D02*
X166207939Y-125609638D01*
X166207939Y-125609638D02*
X166284130Y-125571542D01*
X166284130Y-125571542D02*
X166322225Y-125533447D01*
X166322225Y-125533447D02*
X166360320Y-125457257D01*
X166360320Y-125457257D02*
X166360320Y-125152495D01*
X165941273Y-125876304D02*
X166741273Y-126409638D01*
X165941273Y-126409638D02*
X166741273Y-125876304D01*
X167046035Y-127552495D02*
X167007939Y-127514400D01*
X167007939Y-127514400D02*
X166893654Y-127438209D01*
X166893654Y-127438209D02*
X166817463Y-127400114D01*
X166817463Y-127400114D02*
X166703178Y-127362019D01*
X166703178Y-127362019D02*
X166512701Y-127323924D01*
X166512701Y-127323924D02*
X166360320Y-127323924D01*
X166360320Y-127323924D02*
X166169844Y-127362019D01*
X166169844Y-127362019D02*
X166055558Y-127400114D01*
X166055558Y-127400114D02*
X165979368Y-127438209D01*
X165979368Y-127438209D02*
X165865082Y-127514400D01*
X165865082Y-127514400D02*
X165826987Y-127552495D01*
X166741273Y-127857257D02*
X165941273Y-127857257D01*
X165941273Y-127857257D02*
X165941273Y-128047733D01*
X165941273Y-128047733D02*
X165979368Y-128162019D01*
X165979368Y-128162019D02*
X166055558Y-128238209D01*
X166055558Y-128238209D02*
X166131749Y-128276304D01*
X166131749Y-128276304D02*
X166284130Y-128314400D01*
X166284130Y-128314400D02*
X166398416Y-128314400D01*
X166398416Y-128314400D02*
X166550797Y-128276304D01*
X166550797Y-128276304D02*
X166626987Y-128238209D01*
X166626987Y-128238209D02*
X166703178Y-128162019D01*
X166703178Y-128162019D02*
X166741273Y-128047733D01*
X166741273Y-128047733D02*
X166741273Y-127857257D01*
X165941273Y-128809638D02*
X165941273Y-128885828D01*
X165941273Y-128885828D02*
X165979368Y-128962019D01*
X165979368Y-128962019D02*
X166017463Y-129000114D01*
X166017463Y-129000114D02*
X166093654Y-129038209D01*
X166093654Y-129038209D02*
X166246035Y-129076304D01*
X166246035Y-129076304D02*
X166436511Y-129076304D01*
X166436511Y-129076304D02*
X166588892Y-129038209D01*
X166588892Y-129038209D02*
X166665082Y-129000114D01*
X166665082Y-129000114D02*
X166703178Y-128962019D01*
X166703178Y-128962019D02*
X166741273Y-128885828D01*
X166741273Y-128885828D02*
X166741273Y-128809638D01*
X166741273Y-128809638D02*
X166703178Y-128733447D01*
X166703178Y-128733447D02*
X166665082Y-128695352D01*
X166665082Y-128695352D02*
X166588892Y-128657257D01*
X166588892Y-128657257D02*
X166436511Y-128619161D01*
X166436511Y-128619161D02*
X166246035Y-128619161D01*
X166246035Y-128619161D02*
X166093654Y-128657257D01*
X166093654Y-128657257D02*
X166017463Y-128695352D01*
X166017463Y-128695352D02*
X165979368Y-128733447D01*
X165979368Y-128733447D02*
X165941273Y-128809638D01*
X167046035Y-129342971D02*
X167007939Y-129381066D01*
X167007939Y-129381066D02*
X166893654Y-129457257D01*
X166893654Y-129457257D02*
X166817463Y-129495352D01*
X166817463Y-129495352D02*
X166703178Y-129533447D01*
X166703178Y-129533447D02*
X166512701Y-129571543D01*
X166512701Y-129571543D02*
X166360320Y-129571543D01*
X166360320Y-129571543D02*
X166169844Y-129533447D01*
X166169844Y-129533447D02*
X166055558Y-129495352D01*
X166055558Y-129495352D02*
X165979368Y-129457257D01*
X165979368Y-129457257D02*
X165865082Y-129381066D01*
X165865082Y-129381066D02*
X165826987Y-129342971D01*
X167046035Y-130790590D02*
X167007939Y-130752495D01*
X167007939Y-130752495D02*
X166893654Y-130676304D01*
X166893654Y-130676304D02*
X166817463Y-130638209D01*
X166817463Y-130638209D02*
X166703178Y-130600114D01*
X166703178Y-130600114D02*
X166512701Y-130562019D01*
X166512701Y-130562019D02*
X166360320Y-130562019D01*
X166360320Y-130562019D02*
X166169844Y-130600114D01*
X166169844Y-130600114D02*
X166055558Y-130638209D01*
X166055558Y-130638209D02*
X165979368Y-130676304D01*
X165979368Y-130676304D02*
X165865082Y-130752495D01*
X165865082Y-130752495D02*
X165826987Y-130790590D01*
X166017463Y-131057256D02*
X165979368Y-131095352D01*
X165979368Y-131095352D02*
X165941273Y-131171542D01*
X165941273Y-131171542D02*
X165941273Y-131362018D01*
X165941273Y-131362018D02*
X165979368Y-131438209D01*
X165979368Y-131438209D02*
X166017463Y-131476304D01*
X166017463Y-131476304D02*
X166093654Y-131514399D01*
X166093654Y-131514399D02*
X166169844Y-131514399D01*
X166169844Y-131514399D02*
X166284130Y-131476304D01*
X166284130Y-131476304D02*
X166741273Y-131019161D01*
X166741273Y-131019161D02*
X166741273Y-131514399D01*
X166436511Y-131857257D02*
X166436511Y-132466781D01*
X165941273Y-132771542D02*
X165941273Y-133266780D01*
X165941273Y-133266780D02*
X166246035Y-133000114D01*
X166246035Y-133000114D02*
X166246035Y-133114399D01*
X166246035Y-133114399D02*
X166284130Y-133190590D01*
X166284130Y-133190590D02*
X166322225Y-133228685D01*
X166322225Y-133228685D02*
X166398416Y-133266780D01*
X166398416Y-133266780D02*
X166588892Y-133266780D01*
X166588892Y-133266780D02*
X166665082Y-133228685D01*
X166665082Y-133228685D02*
X166703178Y-133190590D01*
X166703178Y-133190590D02*
X166741273Y-133114399D01*
X166741273Y-133114399D02*
X166741273Y-132885828D01*
X166741273Y-132885828D02*
X166703178Y-132809637D01*
X166703178Y-132809637D02*
X166665082Y-132771542D01*
X167046035Y-133533447D02*
X167007939Y-133571542D01*
X167007939Y-133571542D02*
X166893654Y-133647733D01*
X166893654Y-133647733D02*
X166817463Y-133685828D01*
X166817463Y-133685828D02*
X166703178Y-133723923D01*
X166703178Y-133723923D02*
X166512701Y-133762019D01*
X166512701Y-133762019D02*
X166360320Y-133762019D01*
X166360320Y-133762019D02*
X166169844Y-133723923D01*
X166169844Y-133723923D02*
X166055558Y-133685828D01*
X166055558Y-133685828D02*
X165979368Y-133647733D01*
X165979368Y-133647733D02*
X165865082Y-133571542D01*
X165865082Y-133571542D02*
X165826987Y-133533447D01*
X167229228Y-100847731D02*
X167800656Y-100847731D01*
X167800656Y-100847731D02*
X167914942Y-100809636D01*
X167914942Y-100809636D02*
X167991133Y-100733445D01*
X167991133Y-100733445D02*
X168029228Y-100619160D01*
X168029228Y-100619160D02*
X168029228Y-100542969D01*
X168029228Y-101228684D02*
X167229228Y-101228684D01*
X167229228Y-101228684D02*
X167229228Y-101533446D01*
X167229228Y-101533446D02*
X167267323Y-101609636D01*
X167267323Y-101609636D02*
X167305418Y-101647731D01*
X167305418Y-101647731D02*
X167381609Y-101685827D01*
X167381609Y-101685827D02*
X167495894Y-101685827D01*
X167495894Y-101685827D02*
X167572085Y-101647731D01*
X167572085Y-101647731D02*
X167610180Y-101609636D01*
X167610180Y-101609636D02*
X167648275Y-101533446D01*
X167648275Y-101533446D02*
X167648275Y-101228684D01*
X167495894Y-102371541D02*
X168029228Y-102371541D01*
X167191133Y-102181065D02*
X167762561Y-101990588D01*
X167762561Y-101990588D02*
X167762561Y-102485827D01*
X167953037Y-102790589D02*
X167991133Y-102828684D01*
X167991133Y-102828684D02*
X168029228Y-102790589D01*
X168029228Y-102790589D02*
X167991133Y-102752493D01*
X167991133Y-102752493D02*
X167953037Y-102790589D01*
X167953037Y-102790589D02*
X168029228Y-102790589D01*
X167533990Y-102790589D02*
X167572085Y-102828684D01*
X167572085Y-102828684D02*
X167610180Y-102790589D01*
X167610180Y-102790589D02*
X167572085Y-102752493D01*
X167572085Y-102752493D02*
X167533990Y-102790589D01*
X167533990Y-102790589D02*
X167610180Y-102790589D01*
X167991133Y-103742969D02*
X168029228Y-103819160D01*
X168029228Y-103819160D02*
X168029228Y-103971541D01*
X168029228Y-103971541D02*
X167991133Y-104047731D01*
X167991133Y-104047731D02*
X167914942Y-104085827D01*
X167914942Y-104085827D02*
X167876847Y-104085827D01*
X167876847Y-104085827D02*
X167800656Y-104047731D01*
X167800656Y-104047731D02*
X167762561Y-103971541D01*
X167762561Y-103971541D02*
X167762561Y-103857255D01*
X167762561Y-103857255D02*
X167724466Y-103781065D01*
X167724466Y-103781065D02*
X167648275Y-103742969D01*
X167648275Y-103742969D02*
X167610180Y-103742969D01*
X167610180Y-103742969D02*
X167533990Y-103781065D01*
X167533990Y-103781065D02*
X167495894Y-103857255D01*
X167495894Y-103857255D02*
X167495894Y-103971541D01*
X167495894Y-103971541D02*
X167533990Y-104047731D01*
X167991133Y-104733446D02*
X168029228Y-104657255D01*
X168029228Y-104657255D02*
X168029228Y-104504874D01*
X168029228Y-104504874D02*
X167991133Y-104428684D01*
X167991133Y-104428684D02*
X167914942Y-104390588D01*
X167914942Y-104390588D02*
X167610180Y-104390588D01*
X167610180Y-104390588D02*
X167533990Y-104428684D01*
X167533990Y-104428684D02*
X167495894Y-104504874D01*
X167495894Y-104504874D02*
X167495894Y-104657255D01*
X167495894Y-104657255D02*
X167533990Y-104733446D01*
X167533990Y-104733446D02*
X167610180Y-104771541D01*
X167610180Y-104771541D02*
X167686371Y-104771541D01*
X167686371Y-104771541D02*
X167762561Y-104390588D01*
X168029228Y-105228683D02*
X167991133Y-105152493D01*
X167991133Y-105152493D02*
X167914942Y-105114398D01*
X167914942Y-105114398D02*
X167229228Y-105114398D01*
X167991133Y-105838208D02*
X168029228Y-105762017D01*
X168029228Y-105762017D02*
X168029228Y-105609636D01*
X168029228Y-105609636D02*
X167991133Y-105533446D01*
X167991133Y-105533446D02*
X167914942Y-105495350D01*
X167914942Y-105495350D02*
X167610180Y-105495350D01*
X167610180Y-105495350D02*
X167533990Y-105533446D01*
X167533990Y-105533446D02*
X167495894Y-105609636D01*
X167495894Y-105609636D02*
X167495894Y-105762017D01*
X167495894Y-105762017D02*
X167533990Y-105838208D01*
X167533990Y-105838208D02*
X167610180Y-105876303D01*
X167610180Y-105876303D02*
X167686371Y-105876303D01*
X167686371Y-105876303D02*
X167762561Y-105495350D01*
X167991133Y-106562017D02*
X168029228Y-106485826D01*
X168029228Y-106485826D02*
X168029228Y-106333445D01*
X168029228Y-106333445D02*
X167991133Y-106257255D01*
X167991133Y-106257255D02*
X167953037Y-106219160D01*
X167953037Y-106219160D02*
X167876847Y-106181064D01*
X167876847Y-106181064D02*
X167648275Y-106181064D01*
X167648275Y-106181064D02*
X167572085Y-106219160D01*
X167572085Y-106219160D02*
X167533990Y-106257255D01*
X167533990Y-106257255D02*
X167495894Y-106333445D01*
X167495894Y-106333445D02*
X167495894Y-106485826D01*
X167495894Y-106485826D02*
X167533990Y-106562017D01*
X167495894Y-106790588D02*
X167495894Y-107095350D01*
X167229228Y-106904874D02*
X167914942Y-106904874D01*
X167914942Y-106904874D02*
X167991133Y-106942969D01*
X167991133Y-106942969D02*
X168029228Y-107019159D01*
X168029228Y-107019159D02*
X168029228Y-107095350D01*
X167991133Y-107933445D02*
X168029228Y-108009636D01*
X168029228Y-108009636D02*
X168029228Y-108162017D01*
X168029228Y-108162017D02*
X167991133Y-108238207D01*
X167991133Y-108238207D02*
X167914942Y-108276303D01*
X167914942Y-108276303D02*
X167876847Y-108276303D01*
X167876847Y-108276303D02*
X167800656Y-108238207D01*
X167800656Y-108238207D02*
X167762561Y-108162017D01*
X167762561Y-108162017D02*
X167762561Y-108047731D01*
X167762561Y-108047731D02*
X167724466Y-107971541D01*
X167724466Y-107971541D02*
X167648275Y-107933445D01*
X167648275Y-107933445D02*
X167610180Y-107933445D01*
X167610180Y-107933445D02*
X167533990Y-107971541D01*
X167533990Y-107971541D02*
X167495894Y-108047731D01*
X167495894Y-108047731D02*
X167495894Y-108162017D01*
X167495894Y-108162017D02*
X167533990Y-108238207D01*
X167191133Y-109190588D02*
X168219704Y-108504874D01*
X167495894Y-109381064D02*
X168029228Y-109533445D01*
X168029228Y-109533445D02*
X167648275Y-109685826D01*
X167648275Y-109685826D02*
X168029228Y-109838207D01*
X168029228Y-109838207D02*
X167495894Y-109990588D01*
X168029228Y-110904874D02*
X167229228Y-110904874D01*
X167229228Y-110904874D02*
X167229228Y-111095350D01*
X167229228Y-111095350D02*
X167267323Y-111209636D01*
X167267323Y-111209636D02*
X167343513Y-111285826D01*
X167343513Y-111285826D02*
X167419704Y-111323921D01*
X167419704Y-111323921D02*
X167572085Y-111362017D01*
X167572085Y-111362017D02*
X167686371Y-111362017D01*
X167686371Y-111362017D02*
X167838752Y-111323921D01*
X167838752Y-111323921D02*
X167914942Y-111285826D01*
X167914942Y-111285826D02*
X167991133Y-111209636D01*
X167991133Y-111209636D02*
X168029228Y-111095350D01*
X168029228Y-111095350D02*
X168029228Y-110904874D01*
X167610180Y-111704874D02*
X167610180Y-111971540D01*
X168029228Y-112085826D02*
X168029228Y-111704874D01*
X168029228Y-111704874D02*
X167229228Y-111704874D01*
X167229228Y-111704874D02*
X167229228Y-112085826D01*
X167229228Y-112314398D02*
X168029228Y-112581065D01*
X168029228Y-112581065D02*
X167229228Y-112847731D01*
X168333990Y-113952493D02*
X168295894Y-113914398D01*
X168295894Y-113914398D02*
X168181609Y-113838207D01*
X168181609Y-113838207D02*
X168105418Y-113800112D01*
X168105418Y-113800112D02*
X167991133Y-113762017D01*
X167991133Y-113762017D02*
X167800656Y-113723922D01*
X167800656Y-113723922D02*
X167648275Y-113723922D01*
X167648275Y-113723922D02*
X167457799Y-113762017D01*
X167457799Y-113762017D02*
X167343513Y-113800112D01*
X167343513Y-113800112D02*
X167267323Y-113838207D01*
X167267323Y-113838207D02*
X167153037Y-113914398D01*
X167153037Y-113914398D02*
X167114942Y-113952493D01*
X168029228Y-114676302D02*
X168029228Y-114219159D01*
X168029228Y-114447731D02*
X167229228Y-114447731D01*
X167229228Y-114447731D02*
X167343513Y-114371540D01*
X167343513Y-114371540D02*
X167419704Y-114295350D01*
X167419704Y-114295350D02*
X167457799Y-114219159D01*
X167724466Y-115019160D02*
X167724466Y-115628684D01*
X167305418Y-115971540D02*
X167267323Y-116009636D01*
X167267323Y-116009636D02*
X167229228Y-116085826D01*
X167229228Y-116085826D02*
X167229228Y-116276302D01*
X167229228Y-116276302D02*
X167267323Y-116352493D01*
X167267323Y-116352493D02*
X167305418Y-116390588D01*
X167305418Y-116390588D02*
X167381609Y-116428683D01*
X167381609Y-116428683D02*
X167457799Y-116428683D01*
X167457799Y-116428683D02*
X167572085Y-116390588D01*
X167572085Y-116390588D02*
X168029228Y-115933445D01*
X168029228Y-115933445D02*
X168029228Y-116428683D01*
X168333990Y-116695350D02*
X168295894Y-116733445D01*
X168295894Y-116733445D02*
X168181609Y-116809636D01*
X168181609Y-116809636D02*
X168105418Y-116847731D01*
X168105418Y-116847731D02*
X167991133Y-116885826D01*
X167991133Y-116885826D02*
X167800656Y-116923922D01*
X167800656Y-116923922D02*
X167648275Y-116923922D01*
X167648275Y-116923922D02*
X167457799Y-116885826D01*
X167457799Y-116885826D02*
X167343513Y-116847731D01*
X167343513Y-116847731D02*
X167267323Y-116809636D01*
X167267323Y-116809636D02*
X167153037Y-116733445D01*
X167153037Y-116733445D02*
X167114942Y-116695350D01*
X168029228Y-118028683D02*
X167991133Y-117952493D01*
X167991133Y-117952493D02*
X167953037Y-117914398D01*
X167953037Y-117914398D02*
X167876847Y-117876302D01*
X167876847Y-117876302D02*
X167648275Y-117876302D01*
X167648275Y-117876302D02*
X167572085Y-117914398D01*
X167572085Y-117914398D02*
X167533990Y-117952493D01*
X167533990Y-117952493D02*
X167495894Y-118028683D01*
X167495894Y-118028683D02*
X167495894Y-118142969D01*
X167495894Y-118142969D02*
X167533990Y-118219160D01*
X167533990Y-118219160D02*
X167572085Y-118257255D01*
X167572085Y-118257255D02*
X167648275Y-118295350D01*
X167648275Y-118295350D02*
X167876847Y-118295350D01*
X167876847Y-118295350D02*
X167953037Y-118257255D01*
X167953037Y-118257255D02*
X167991133Y-118219160D01*
X167991133Y-118219160D02*
X168029228Y-118142969D01*
X168029228Y-118142969D02*
X168029228Y-118028683D01*
X168029228Y-118638208D02*
X167495894Y-118638208D01*
X167648275Y-118638208D02*
X167572085Y-118676303D01*
X167572085Y-118676303D02*
X167533990Y-118714398D01*
X167533990Y-118714398D02*
X167495894Y-118790589D01*
X167495894Y-118790589D02*
X167495894Y-118866779D01*
X168029228Y-119742970D02*
X167229228Y-119742970D01*
X168029228Y-120085827D02*
X167610180Y-120085827D01*
X167610180Y-120085827D02*
X167533990Y-120047732D01*
X167533990Y-120047732D02*
X167495894Y-119971541D01*
X167495894Y-119971541D02*
X167495894Y-119857255D01*
X167495894Y-119857255D02*
X167533990Y-119781065D01*
X167533990Y-119781065D02*
X167572085Y-119742970D01*
X167191133Y-121038208D02*
X168219704Y-120352494D01*
X167495894Y-121228684D02*
X168029228Y-121381065D01*
X168029228Y-121381065D02*
X167648275Y-121533446D01*
X167648275Y-121533446D02*
X168029228Y-121685827D01*
X168029228Y-121685827D02*
X167495894Y-121838208D01*
X168029228Y-122752494D02*
X167229228Y-122752494D01*
X167229228Y-122752494D02*
X167229228Y-122942970D01*
X167229228Y-122942970D02*
X167267323Y-123057256D01*
X167267323Y-123057256D02*
X167343513Y-123133446D01*
X167343513Y-123133446D02*
X167419704Y-123171541D01*
X167419704Y-123171541D02*
X167572085Y-123209637D01*
X167572085Y-123209637D02*
X167686371Y-123209637D01*
X167686371Y-123209637D02*
X167838752Y-123171541D01*
X167838752Y-123171541D02*
X167914942Y-123133446D01*
X167914942Y-123133446D02*
X167991133Y-123057256D01*
X167991133Y-123057256D02*
X168029228Y-122942970D01*
X168029228Y-122942970D02*
X168029228Y-122752494D01*
X167610180Y-123552494D02*
X167610180Y-123819160D01*
X168029228Y-123933446D02*
X168029228Y-123552494D01*
X168029228Y-123552494D02*
X167229228Y-123552494D01*
X167229228Y-123552494D02*
X167229228Y-123933446D01*
X167229228Y-124162018D02*
X168029228Y-124428685D01*
X168029228Y-124428685D02*
X167229228Y-124695351D01*
X168333990Y-125800113D02*
X168295894Y-125762018D01*
X168295894Y-125762018D02*
X168181609Y-125685827D01*
X168181609Y-125685827D02*
X168105418Y-125647732D01*
X168105418Y-125647732D02*
X167991133Y-125609637D01*
X167991133Y-125609637D02*
X167800656Y-125571542D01*
X167800656Y-125571542D02*
X167648275Y-125571542D01*
X167648275Y-125571542D02*
X167457799Y-125609637D01*
X167457799Y-125609637D02*
X167343513Y-125647732D01*
X167343513Y-125647732D02*
X167267323Y-125685827D01*
X167267323Y-125685827D02*
X167153037Y-125762018D01*
X167153037Y-125762018D02*
X167114942Y-125800113D01*
X167305418Y-126066779D02*
X167267323Y-126104875D01*
X167267323Y-126104875D02*
X167229228Y-126181065D01*
X167229228Y-126181065D02*
X167229228Y-126371541D01*
X167229228Y-126371541D02*
X167267323Y-126447732D01*
X167267323Y-126447732D02*
X167305418Y-126485827D01*
X167305418Y-126485827D02*
X167381609Y-126523922D01*
X167381609Y-126523922D02*
X167457799Y-126523922D01*
X167457799Y-126523922D02*
X167572085Y-126485827D01*
X167572085Y-126485827D02*
X168029228Y-126028684D01*
X168029228Y-126028684D02*
X168029228Y-126523922D01*
X167724466Y-126866780D02*
X167724466Y-127476304D01*
X167229228Y-127781065D02*
X167229228Y-128276303D01*
X167229228Y-128276303D02*
X167533990Y-128009637D01*
X167533990Y-128009637D02*
X167533990Y-128123922D01*
X167533990Y-128123922D02*
X167572085Y-128200113D01*
X167572085Y-128200113D02*
X167610180Y-128238208D01*
X167610180Y-128238208D02*
X167686371Y-128276303D01*
X167686371Y-128276303D02*
X167876847Y-128276303D01*
X167876847Y-128276303D02*
X167953037Y-128238208D01*
X167953037Y-128238208D02*
X167991133Y-128200113D01*
X167991133Y-128200113D02*
X168029228Y-128123922D01*
X168029228Y-128123922D02*
X168029228Y-127895351D01*
X168029228Y-127895351D02*
X167991133Y-127819160D01*
X167991133Y-127819160D02*
X167953037Y-127781065D01*
X168333990Y-128542970D02*
X168295894Y-128581065D01*
X168295894Y-128581065D02*
X168181609Y-128657256D01*
X168181609Y-128657256D02*
X168105418Y-128695351D01*
X168105418Y-128695351D02*
X167991133Y-128733446D01*
X167991133Y-128733446D02*
X167800656Y-128771542D01*
X167800656Y-128771542D02*
X167648275Y-128771542D01*
X167648275Y-128771542D02*
X167457799Y-128733446D01*
X167457799Y-128733446D02*
X167343513Y-128695351D01*
X167343513Y-128695351D02*
X167267323Y-128657256D01*
X167267323Y-128657256D02*
X167153037Y-128581065D01*
X167153037Y-128581065D02*
X167114942Y-128542970D01*
X164931238Y-93418819D02*
X164931238Y-92418819D01*
X164502667Y-93418819D02*
X164502667Y-92895009D01*
X164502667Y-92895009D02*
X164550286Y-92799771D01*
X164550286Y-92799771D02*
X164645524Y-92752152D01*
X164645524Y-92752152D02*
X164788381Y-92752152D01*
X164788381Y-92752152D02*
X164883619Y-92799771D01*
X164883619Y-92799771D02*
X164931238Y-92847390D01*
X164169333Y-92752152D02*
X163788381Y-92752152D01*
X164026476Y-92418819D02*
X164026476Y-93275961D01*
X164026476Y-93275961D02*
X163978857Y-93371200D01*
X163978857Y-93371200D02*
X163883619Y-93418819D01*
X163883619Y-93418819D02*
X163788381Y-93418819D01*
X163597904Y-92752152D02*
X163216952Y-92752152D01*
X163455047Y-92418819D02*
X163455047Y-93275961D01*
X163455047Y-93275961D02*
X163407428Y-93371200D01*
X163407428Y-93371200D02*
X163312190Y-93418819D01*
X163312190Y-93418819D02*
X163216952Y-93418819D01*
X162883618Y-92752152D02*
X162883618Y-93752152D01*
X162883618Y-92799771D02*
X162788380Y-92752152D01*
X162788380Y-92752152D02*
X162597904Y-92752152D01*
X162597904Y-92752152D02*
X162502666Y-92799771D01*
X162502666Y-92799771D02*
X162455047Y-92847390D01*
X162455047Y-92847390D02*
X162407428Y-92942628D01*
X162407428Y-92942628D02*
X162407428Y-93228342D01*
X162407428Y-93228342D02*
X162455047Y-93323580D01*
X162455047Y-93323580D02*
X162502666Y-93371200D01*
X162502666Y-93371200D02*
X162597904Y-93418819D01*
X162597904Y-93418819D02*
X162788380Y-93418819D01*
X162788380Y-93418819D02*
X162883618Y-93371200D01*
X162026475Y-93371200D02*
X161931237Y-93418819D01*
X161931237Y-93418819D02*
X161740761Y-93418819D01*
X161740761Y-93418819D02*
X161645523Y-93371200D01*
X161645523Y-93371200D02*
X161597904Y-93275961D01*
X161597904Y-93275961D02*
X161597904Y-93228342D01*
X161597904Y-93228342D02*
X161645523Y-93133104D01*
X161645523Y-93133104D02*
X161740761Y-93085485D01*
X161740761Y-93085485D02*
X161883618Y-93085485D01*
X161883618Y-93085485D02*
X161978856Y-93037866D01*
X161978856Y-93037866D02*
X162026475Y-92942628D01*
X162026475Y-92942628D02*
X162026475Y-92895009D01*
X162026475Y-92895009D02*
X161978856Y-92799771D01*
X161978856Y-92799771D02*
X161883618Y-92752152D01*
X161883618Y-92752152D02*
X161740761Y-92752152D01*
X161740761Y-92752152D02*
X161645523Y-92799771D01*
X161169332Y-93323580D02*
X161121713Y-93371200D01*
X161121713Y-93371200D02*
X161169332Y-93418819D01*
X161169332Y-93418819D02*
X161216951Y-93371200D01*
X161216951Y-93371200D02*
X161169332Y-93323580D01*
X161169332Y-93323580D02*
X161169332Y-93418819D01*
X161169332Y-92799771D02*
X161121713Y-92847390D01*
X161121713Y-92847390D02*
X161169332Y-92895009D01*
X161169332Y-92895009D02*
X161216951Y-92847390D01*
X161216951Y-92847390D02*
X161169332Y-92799771D01*
X161169332Y-92799771D02*
X161169332Y-92895009D01*
X159978857Y-92371200D02*
X160835999Y-93656914D01*
X158931238Y-92371200D02*
X159788380Y-93656914D01*
X158169333Y-92752152D02*
X158169333Y-93561676D01*
X158169333Y-93561676D02*
X158216952Y-93656914D01*
X158216952Y-93656914D02*
X158264571Y-93704533D01*
X158264571Y-93704533D02*
X158359809Y-93752152D01*
X158359809Y-93752152D02*
X158502666Y-93752152D01*
X158502666Y-93752152D02*
X158597904Y-93704533D01*
X158169333Y-93371200D02*
X158264571Y-93418819D01*
X158264571Y-93418819D02*
X158455047Y-93418819D01*
X158455047Y-93418819D02*
X158550285Y-93371200D01*
X158550285Y-93371200D02*
X158597904Y-93323580D01*
X158597904Y-93323580D02*
X158645523Y-93228342D01*
X158645523Y-93228342D02*
X158645523Y-92942628D01*
X158645523Y-92942628D02*
X158597904Y-92847390D01*
X158597904Y-92847390D02*
X158550285Y-92799771D01*
X158550285Y-92799771D02*
X158455047Y-92752152D01*
X158455047Y-92752152D02*
X158264571Y-92752152D01*
X158264571Y-92752152D02*
X158169333Y-92799771D01*
X157693142Y-93418819D02*
X157693142Y-92752152D01*
X157693142Y-92418819D02*
X157740761Y-92466438D01*
X157740761Y-92466438D02*
X157693142Y-92514057D01*
X157693142Y-92514057D02*
X157645523Y-92466438D01*
X157645523Y-92466438D02*
X157693142Y-92418819D01*
X157693142Y-92418819D02*
X157693142Y-92514057D01*
X157359809Y-92752152D02*
X156978857Y-92752152D01*
X157216952Y-92418819D02*
X157216952Y-93275961D01*
X157216952Y-93275961D02*
X157169333Y-93371200D01*
X157169333Y-93371200D02*
X157074095Y-93418819D01*
X157074095Y-93418819D02*
X156978857Y-93418819D01*
X156645523Y-93418819D02*
X156645523Y-92418819D01*
X156216952Y-93418819D02*
X156216952Y-92895009D01*
X156216952Y-92895009D02*
X156264571Y-92799771D01*
X156264571Y-92799771D02*
X156359809Y-92752152D01*
X156359809Y-92752152D02*
X156502666Y-92752152D01*
X156502666Y-92752152D02*
X156597904Y-92799771D01*
X156597904Y-92799771D02*
X156645523Y-92847390D01*
X155312190Y-92752152D02*
X155312190Y-93418819D01*
X155740761Y-92752152D02*
X155740761Y-93275961D01*
X155740761Y-93275961D02*
X155693142Y-93371200D01*
X155693142Y-93371200D02*
X155597904Y-93418819D01*
X155597904Y-93418819D02*
X155455047Y-93418819D01*
X155455047Y-93418819D02*
X155359809Y-93371200D01*
X155359809Y-93371200D02*
X155312190Y-93323580D01*
X154835999Y-93418819D02*
X154835999Y-92418819D01*
X154835999Y-92799771D02*
X154740761Y-92752152D01*
X154740761Y-92752152D02*
X154550285Y-92752152D01*
X154550285Y-92752152D02*
X154455047Y-92799771D01*
X154455047Y-92799771D02*
X154407428Y-92847390D01*
X154407428Y-92847390D02*
X154359809Y-92942628D01*
X154359809Y-92942628D02*
X154359809Y-93228342D01*
X154359809Y-93228342D02*
X154407428Y-93323580D01*
X154407428Y-93323580D02*
X154455047Y-93371200D01*
X154455047Y-93371200D02*
X154550285Y-93418819D01*
X154550285Y-93418819D02*
X154740761Y-93418819D01*
X154740761Y-93418819D02*
X154835999Y-93371200D01*
X153931237Y-93323580D02*
X153883618Y-93371200D01*
X153883618Y-93371200D02*
X153931237Y-93418819D01*
X153931237Y-93418819D02*
X153978856Y-93371200D01*
X153978856Y-93371200D02*
X153931237Y-93323580D01*
X153931237Y-93323580D02*
X153931237Y-93418819D01*
X153026476Y-93371200D02*
X153121714Y-93418819D01*
X153121714Y-93418819D02*
X153312190Y-93418819D01*
X153312190Y-93418819D02*
X153407428Y-93371200D01*
X153407428Y-93371200D02*
X153455047Y-93323580D01*
X153455047Y-93323580D02*
X153502666Y-93228342D01*
X153502666Y-93228342D02*
X153502666Y-92942628D01*
X153502666Y-92942628D02*
X153455047Y-92847390D01*
X153455047Y-92847390D02*
X153407428Y-92799771D01*
X153407428Y-92799771D02*
X153312190Y-92752152D01*
X153312190Y-92752152D02*
X153121714Y-92752152D01*
X153121714Y-92752152D02*
X153026476Y-92799771D01*
X152455047Y-93418819D02*
X152550285Y-93371200D01*
X152550285Y-93371200D02*
X152597904Y-93323580D01*
X152597904Y-93323580D02*
X152645523Y-93228342D01*
X152645523Y-93228342D02*
X152645523Y-92942628D01*
X152645523Y-92942628D02*
X152597904Y-92847390D01*
X152597904Y-92847390D02*
X152550285Y-92799771D01*
X152550285Y-92799771D02*
X152455047Y-92752152D01*
X152455047Y-92752152D02*
X152312190Y-92752152D01*
X152312190Y-92752152D02*
X152216952Y-92799771D01*
X152216952Y-92799771D02*
X152169333Y-92847390D01*
X152169333Y-92847390D02*
X152121714Y-92942628D01*
X152121714Y-92942628D02*
X152121714Y-93228342D01*
X152121714Y-93228342D02*
X152169333Y-93323580D01*
X152169333Y-93323580D02*
X152216952Y-93371200D01*
X152216952Y-93371200D02*
X152312190Y-93418819D01*
X152312190Y-93418819D02*
X152455047Y-93418819D01*
X151693142Y-93418819D02*
X151693142Y-92752152D01*
X151693142Y-92847390D02*
X151645523Y-92799771D01*
X151645523Y-92799771D02*
X151550285Y-92752152D01*
X151550285Y-92752152D02*
X151407428Y-92752152D01*
X151407428Y-92752152D02*
X151312190Y-92799771D01*
X151312190Y-92799771D02*
X151264571Y-92895009D01*
X151264571Y-92895009D02*
X151264571Y-93418819D01*
X151264571Y-92895009D02*
X151216952Y-92799771D01*
X151216952Y-92799771D02*
X151121714Y-92752152D01*
X151121714Y-92752152D02*
X150978857Y-92752152D01*
X150978857Y-92752152D02*
X150883618Y-92799771D01*
X150883618Y-92799771D02*
X150835999Y-92895009D01*
X150835999Y-92895009D02*
X150835999Y-93418819D01*
X149645524Y-92371200D02*
X150502666Y-93656914D01*
X149407428Y-92752152D02*
X149169333Y-93418819D01*
X148931238Y-92752152D02*
X149169333Y-93418819D01*
X149169333Y-93418819D02*
X149264571Y-93656914D01*
X149264571Y-93656914D02*
X149312190Y-93704533D01*
X149312190Y-93704533D02*
X149407428Y-93752152D01*
X148693142Y-92752152D02*
X148312190Y-92752152D01*
X148550285Y-92418819D02*
X148550285Y-93275961D01*
X148550285Y-93275961D02*
X148502666Y-93371200D01*
X148502666Y-93371200D02*
X148407428Y-93418819D01*
X148407428Y-93418819D02*
X148312190Y-93418819D01*
X147978856Y-93418819D02*
X147978856Y-92752152D01*
X147978856Y-92847390D02*
X147931237Y-92799771D01*
X147931237Y-92799771D02*
X147835999Y-92752152D01*
X147835999Y-92752152D02*
X147693142Y-92752152D01*
X147693142Y-92752152D02*
X147597904Y-92799771D01*
X147597904Y-92799771D02*
X147550285Y-92895009D01*
X147550285Y-92895009D02*
X147550285Y-93418819D01*
X147550285Y-92895009D02*
X147502666Y-92799771D01*
X147502666Y-92799771D02*
X147407428Y-92752152D01*
X147407428Y-92752152D02*
X147264571Y-92752152D01*
X147264571Y-92752152D02*
X147169332Y-92799771D01*
X147169332Y-92799771D02*
X147121713Y-92895009D01*
X147121713Y-92895009D02*
X147121713Y-93418819D01*
X146740761Y-92752152D02*
X146502666Y-93418819D01*
X146264571Y-92752152D02*
X146502666Y-93418819D01*
X146502666Y-93418819D02*
X146597904Y-93656914D01*
X146597904Y-93656914D02*
X146645523Y-93704533D01*
X146645523Y-93704533D02*
X146740761Y-93752152D01*
X146026475Y-92752152D02*
X145645523Y-92752152D01*
X145883618Y-92418819D02*
X145883618Y-93275961D01*
X145883618Y-93275961D02*
X145835999Y-93371200D01*
X145835999Y-93371200D02*
X145740761Y-93418819D01*
X145740761Y-93418819D02*
X145645523Y-93418819D01*
X145312189Y-93418819D02*
X145312189Y-92752152D01*
X145312189Y-92847390D02*
X145264570Y-92799771D01*
X145264570Y-92799771D02*
X145169332Y-92752152D01*
X145169332Y-92752152D02*
X145026475Y-92752152D01*
X145026475Y-92752152D02*
X144931237Y-92799771D01*
X144931237Y-92799771D02*
X144883618Y-92895009D01*
X144883618Y-92895009D02*
X144883618Y-93418819D01*
X144883618Y-92895009D02*
X144835999Y-92799771D01*
X144835999Y-92799771D02*
X144740761Y-92752152D01*
X144740761Y-92752152D02*
X144597904Y-92752152D01*
X144597904Y-92752152D02*
X144502665Y-92799771D01*
X144502665Y-92799771D02*
X144455046Y-92895009D01*
X144455046Y-92895009D02*
X144455046Y-93418819D01*
X143264571Y-92371200D02*
X144121713Y-93656914D01*
X142931237Y-92752152D02*
X142931237Y-93752152D01*
X142931237Y-92799771D02*
X142835999Y-92752152D01*
X142835999Y-92752152D02*
X142645523Y-92752152D01*
X142645523Y-92752152D02*
X142550285Y-92799771D01*
X142550285Y-92799771D02*
X142502666Y-92847390D01*
X142502666Y-92847390D02*
X142455047Y-92942628D01*
X142455047Y-92942628D02*
X142455047Y-93228342D01*
X142455047Y-93228342D02*
X142502666Y-93323580D01*
X142502666Y-93323580D02*
X142550285Y-93371200D01*
X142550285Y-93371200D02*
X142645523Y-93418819D01*
X142645523Y-93418819D02*
X142835999Y-93418819D01*
X142835999Y-93418819D02*
X142931237Y-93371200D01*
X141883618Y-93418819D02*
X141978856Y-93371200D01*
X141978856Y-93371200D02*
X142026475Y-93275961D01*
X142026475Y-93275961D02*
X142026475Y-92418819D01*
X141074094Y-92752152D02*
X141074094Y-93418819D01*
X141502665Y-92752152D02*
X141502665Y-93275961D01*
X141502665Y-93275961D02*
X141455046Y-93371200D01*
X141455046Y-93371200D02*
X141359808Y-93418819D01*
X141359808Y-93418819D02*
X141216951Y-93418819D01*
X141216951Y-93418819D02*
X141121713Y-93371200D01*
X141121713Y-93371200D02*
X141074094Y-93323580D01*
X140645522Y-93371200D02*
X140550284Y-93418819D01*
X140550284Y-93418819D02*
X140359808Y-93418819D01*
X140359808Y-93418819D02*
X140264570Y-93371200D01*
X140264570Y-93371200D02*
X140216951Y-93275961D01*
X140216951Y-93275961D02*
X140216951Y-93228342D01*
X140216951Y-93228342D02*
X140264570Y-93133104D01*
X140264570Y-93133104D02*
X140359808Y-93085485D01*
X140359808Y-93085485D02*
X140502665Y-93085485D01*
X140502665Y-93085485D02*
X140597903Y-93037866D01*
X140597903Y-93037866D02*
X140645522Y-92942628D01*
X140645522Y-92942628D02*
X140645522Y-92895009D01*
X140645522Y-92895009D02*
X140597903Y-92799771D01*
X140597903Y-92799771D02*
X140502665Y-92752152D01*
X140502665Y-92752152D02*
X140359808Y-92752152D01*
X140359808Y-92752152D02*
X140264570Y-92799771D01*
X139359808Y-92752152D02*
X139359808Y-93418819D01*
X139597903Y-92371200D02*
X139835998Y-93085485D01*
X139835998Y-93085485D02*
X139216951Y-93085485D01*
X138835998Y-93037866D02*
X138074094Y-93037866D01*
X137740760Y-92752152D02*
X137359808Y-92752152D01*
X137597903Y-92418819D02*
X137597903Y-93275961D01*
X137597903Y-93275961D02*
X137550284Y-93371200D01*
X137550284Y-93371200D02*
X137455046Y-93418819D01*
X137455046Y-93418819D02*
X137359808Y-93418819D01*
X136597903Y-93371200D02*
X136693141Y-93418819D01*
X136693141Y-93418819D02*
X136883617Y-93418819D01*
X136883617Y-93418819D02*
X136978855Y-93371200D01*
X136978855Y-93371200D02*
X137026474Y-93323580D01*
X137026474Y-93323580D02*
X137074093Y-93228342D01*
X137074093Y-93228342D02*
X137074093Y-92942628D01*
X137074093Y-92942628D02*
X137026474Y-92847390D01*
X137026474Y-92847390D02*
X136978855Y-92799771D01*
X136978855Y-92799771D02*
X136883617Y-92752152D01*
X136883617Y-92752152D02*
X136693141Y-92752152D01*
X136693141Y-92752152D02*
X136597903Y-92799771D01*
X136169331Y-93418819D02*
X136169331Y-92418819D01*
X136169331Y-92799771D02*
X136074093Y-92752152D01*
X136074093Y-92752152D02*
X135883617Y-92752152D01*
X135883617Y-92752152D02*
X135788379Y-92799771D01*
X135788379Y-92799771D02*
X135740760Y-92847390D01*
X135740760Y-92847390D02*
X135693141Y-92942628D01*
X135693141Y-92942628D02*
X135693141Y-93228342D01*
X135693141Y-93228342D02*
X135740760Y-93323580D01*
X135740760Y-93323580D02*
X135788379Y-93371200D01*
X135788379Y-93371200D02*
X135883617Y-93418819D01*
X135883617Y-93418819D02*
X136074093Y-93418819D01*
X136074093Y-93418819D02*
X136169331Y-93371200D01*
X135264569Y-93418819D02*
X135264569Y-92752152D01*
X135264569Y-92847390D02*
X135216950Y-92799771D01*
X135216950Y-92799771D02*
X135121712Y-92752152D01*
X135121712Y-92752152D02*
X134978855Y-92752152D01*
X134978855Y-92752152D02*
X134883617Y-92799771D01*
X134883617Y-92799771D02*
X134835998Y-92895009D01*
X134835998Y-92895009D02*
X134835998Y-93418819D01*
X134835998Y-92895009D02*
X134788379Y-92799771D01*
X134788379Y-92799771D02*
X134693141Y-92752152D01*
X134693141Y-92752152D02*
X134550284Y-92752152D01*
X134550284Y-92752152D02*
X134455045Y-92799771D01*
X134455045Y-92799771D02*
X134407426Y-92895009D01*
X134407426Y-92895009D02*
X134407426Y-93418819D01*
X133978855Y-92514057D02*
X133931236Y-92466438D01*
X133931236Y-92466438D02*
X133835998Y-92418819D01*
X133835998Y-92418819D02*
X133597903Y-92418819D01*
X133597903Y-92418819D02*
X133502665Y-92466438D01*
X133502665Y-92466438D02*
X133455046Y-92514057D01*
X133455046Y-92514057D02*
X133407427Y-92609295D01*
X133407427Y-92609295D02*
X133407427Y-92704533D01*
X133407427Y-92704533D02*
X133455046Y-92847390D01*
X133455046Y-92847390D02*
X134026474Y-93418819D01*
X134026474Y-93418819D02*
X133407427Y-93418819D01*
X133026474Y-93371200D02*
X132931236Y-93418819D01*
X132931236Y-93418819D02*
X132740760Y-93418819D01*
X132740760Y-93418819D02*
X132645522Y-93371200D01*
X132645522Y-93371200D02*
X132597903Y-93275961D01*
X132597903Y-93275961D02*
X132597903Y-93228342D01*
X132597903Y-93228342D02*
X132645522Y-93133104D01*
X132645522Y-93133104D02*
X132740760Y-93085485D01*
X132740760Y-93085485D02*
X132883617Y-93085485D01*
X132883617Y-93085485D02*
X132978855Y-93037866D01*
X132978855Y-93037866D02*
X133026474Y-92942628D01*
X133026474Y-92942628D02*
X133026474Y-92895009D01*
X133026474Y-92895009D02*
X132978855Y-92799771D01*
X132978855Y-92799771D02*
X132883617Y-92752152D01*
X132883617Y-92752152D02*
X132740760Y-92752152D01*
X132740760Y-92752152D02*
X132645522Y-92799771D01*
X131740760Y-93418819D02*
X131740760Y-92418819D01*
X131740760Y-93371200D02*
X131835998Y-93418819D01*
X131835998Y-93418819D02*
X132026474Y-93418819D01*
X132026474Y-93418819D02*
X132121712Y-93371200D01*
X132121712Y-93371200D02*
X132169331Y-93323580D01*
X132169331Y-93323580D02*
X132216950Y-93228342D01*
X132216950Y-93228342D02*
X132216950Y-92942628D01*
X132216950Y-92942628D02*
X132169331Y-92847390D01*
X132169331Y-92847390D02*
X132121712Y-92799771D01*
X132121712Y-92799771D02*
X132026474Y-92752152D01*
X132026474Y-92752152D02*
X131835998Y-92752152D01*
X131835998Y-92752152D02*
X131740760Y-92799771D01*
X168982058Y-71172957D02*
X168982058Y-70272957D01*
X168553487Y-71172957D02*
X168553487Y-70572957D01*
X168553487Y-70658671D02*
X168510630Y-70615814D01*
X168510630Y-70615814D02*
X168424915Y-70572957D01*
X168424915Y-70572957D02*
X168296344Y-70572957D01*
X168296344Y-70572957D02*
X168210630Y-70615814D01*
X168210630Y-70615814D02*
X168167773Y-70701528D01*
X168167773Y-70701528D02*
X168167773Y-71172957D01*
X168167773Y-70701528D02*
X168124915Y-70615814D01*
X168124915Y-70615814D02*
X168039201Y-70572957D01*
X168039201Y-70572957D02*
X167910630Y-70572957D01*
X167910630Y-70572957D02*
X167824915Y-70615814D01*
X167824915Y-70615814D02*
X167782058Y-70701528D01*
X167782058Y-70701528D02*
X167782058Y-71172957D01*
X167353487Y-70572957D02*
X167353487Y-71472957D01*
X167353487Y-70615814D02*
X167267773Y-70572957D01*
X167267773Y-70572957D02*
X167096344Y-70572957D01*
X167096344Y-70572957D02*
X167010630Y-70615814D01*
X167010630Y-70615814D02*
X166967773Y-70658671D01*
X166967773Y-70658671D02*
X166924915Y-70744385D01*
X166924915Y-70744385D02*
X166924915Y-71001528D01*
X166924915Y-71001528D02*
X166967773Y-71087242D01*
X166967773Y-71087242D02*
X167010630Y-71130100D01*
X167010630Y-71130100D02*
X167096344Y-71172957D01*
X167096344Y-71172957D02*
X167267773Y-71172957D01*
X167267773Y-71172957D02*
X167353487Y-71130100D01*
X166410629Y-71172957D02*
X166496344Y-71130100D01*
X166496344Y-71130100D02*
X166539201Y-71087242D01*
X166539201Y-71087242D02*
X166582058Y-71001528D01*
X166582058Y-71001528D02*
X166582058Y-70744385D01*
X166582058Y-70744385D02*
X166539201Y-70658671D01*
X166539201Y-70658671D02*
X166496344Y-70615814D01*
X166496344Y-70615814D02*
X166410629Y-70572957D01*
X166410629Y-70572957D02*
X166282058Y-70572957D01*
X166282058Y-70572957D02*
X166196344Y-70615814D01*
X166196344Y-70615814D02*
X166153487Y-70658671D01*
X166153487Y-70658671D02*
X166110629Y-70744385D01*
X166110629Y-70744385D02*
X166110629Y-71001528D01*
X166110629Y-71001528D02*
X166153487Y-71087242D01*
X166153487Y-71087242D02*
X166196344Y-71130100D01*
X166196344Y-71130100D02*
X166282058Y-71172957D01*
X166282058Y-71172957D02*
X166410629Y-71172957D01*
X165724915Y-71172957D02*
X165724915Y-70572957D01*
X165724915Y-70744385D02*
X165682058Y-70658671D01*
X165682058Y-70658671D02*
X165639201Y-70615814D01*
X165639201Y-70615814D02*
X165553486Y-70572957D01*
X165553486Y-70572957D02*
X165467772Y-70572957D01*
X165296343Y-70572957D02*
X164953486Y-70572957D01*
X165167772Y-70272957D02*
X165167772Y-71044385D01*
X165167772Y-71044385D02*
X165124915Y-71130100D01*
X165124915Y-71130100D02*
X165039200Y-71172957D01*
X165039200Y-71172957D02*
X164953486Y-71172957D01*
X164267772Y-71172957D02*
X164267772Y-70701528D01*
X164267772Y-70701528D02*
X164310629Y-70615814D01*
X164310629Y-70615814D02*
X164396343Y-70572957D01*
X164396343Y-70572957D02*
X164567772Y-70572957D01*
X164567772Y-70572957D02*
X164653486Y-70615814D01*
X164267772Y-71130100D02*
X164353486Y-71172957D01*
X164353486Y-71172957D02*
X164567772Y-71172957D01*
X164567772Y-71172957D02*
X164653486Y-71130100D01*
X164653486Y-71130100D02*
X164696343Y-71044385D01*
X164696343Y-71044385D02*
X164696343Y-70958671D01*
X164696343Y-70958671D02*
X164653486Y-70872957D01*
X164653486Y-70872957D02*
X164567772Y-70830100D01*
X164567772Y-70830100D02*
X164353486Y-70830100D01*
X164353486Y-70830100D02*
X164267772Y-70787242D01*
X163839200Y-70572957D02*
X163839200Y-71172957D01*
X163839200Y-70658671D02*
X163796343Y-70615814D01*
X163796343Y-70615814D02*
X163710628Y-70572957D01*
X163710628Y-70572957D02*
X163582057Y-70572957D01*
X163582057Y-70572957D02*
X163496343Y-70615814D01*
X163496343Y-70615814D02*
X163453486Y-70701528D01*
X163453486Y-70701528D02*
X163453486Y-71172957D01*
X163153485Y-70572957D02*
X162810628Y-70572957D01*
X163024914Y-70272957D02*
X163024914Y-71044385D01*
X163024914Y-71044385D02*
X162982057Y-71130100D01*
X162982057Y-71130100D02*
X162896342Y-71172957D01*
X162896342Y-71172957D02*
X162810628Y-71172957D01*
X162510628Y-71087242D02*
X162467771Y-71130100D01*
X162467771Y-71130100D02*
X162510628Y-71172957D01*
X162510628Y-71172957D02*
X162553485Y-71130100D01*
X162553485Y-71130100D02*
X162510628Y-71087242D01*
X162510628Y-71087242D02*
X162510628Y-71172957D01*
X162510628Y-70615814D02*
X162467771Y-70658671D01*
X162467771Y-70658671D02*
X162510628Y-70701528D01*
X162510628Y-70701528D02*
X162553485Y-70658671D01*
X162553485Y-70658671D02*
X162510628Y-70615814D01*
X162510628Y-70615814D02*
X162510628Y-70701528D01*
X160882057Y-71087242D02*
X160924914Y-71130100D01*
X160924914Y-71130100D02*
X161053486Y-71172957D01*
X161053486Y-71172957D02*
X161139200Y-71172957D01*
X161139200Y-71172957D02*
X161267771Y-71130100D01*
X161267771Y-71130100D02*
X161353486Y-71044385D01*
X161353486Y-71044385D02*
X161396343Y-70958671D01*
X161396343Y-70958671D02*
X161439200Y-70787242D01*
X161439200Y-70787242D02*
X161439200Y-70658671D01*
X161439200Y-70658671D02*
X161396343Y-70487242D01*
X161396343Y-70487242D02*
X161353486Y-70401528D01*
X161353486Y-70401528D02*
X161267771Y-70315814D01*
X161267771Y-70315814D02*
X161139200Y-70272957D01*
X161139200Y-70272957D02*
X161053486Y-70272957D01*
X161053486Y-70272957D02*
X160924914Y-70315814D01*
X160924914Y-70315814D02*
X160882057Y-70358671D01*
X160367771Y-71172957D02*
X160453486Y-71130100D01*
X160453486Y-71130100D02*
X160496343Y-71087242D01*
X160496343Y-71087242D02*
X160539200Y-71001528D01*
X160539200Y-71001528D02*
X160539200Y-70744385D01*
X160539200Y-70744385D02*
X160496343Y-70658671D01*
X160496343Y-70658671D02*
X160453486Y-70615814D01*
X160453486Y-70615814D02*
X160367771Y-70572957D01*
X160367771Y-70572957D02*
X160239200Y-70572957D01*
X160239200Y-70572957D02*
X160153486Y-70615814D01*
X160153486Y-70615814D02*
X160110629Y-70658671D01*
X160110629Y-70658671D02*
X160067771Y-70744385D01*
X160067771Y-70744385D02*
X160067771Y-71001528D01*
X160067771Y-71001528D02*
X160110629Y-71087242D01*
X160110629Y-71087242D02*
X160153486Y-71130100D01*
X160153486Y-71130100D02*
X160239200Y-71172957D01*
X160239200Y-71172957D02*
X160367771Y-71172957D01*
X159682057Y-70572957D02*
X159682057Y-71172957D01*
X159682057Y-70658671D02*
X159639200Y-70615814D01*
X159639200Y-70615814D02*
X159553485Y-70572957D01*
X159553485Y-70572957D02*
X159424914Y-70572957D01*
X159424914Y-70572957D02*
X159339200Y-70615814D01*
X159339200Y-70615814D02*
X159296343Y-70701528D01*
X159296343Y-70701528D02*
X159296343Y-71172957D01*
X158867771Y-70572957D02*
X158867771Y-71172957D01*
X158867771Y-70658671D02*
X158824914Y-70615814D01*
X158824914Y-70615814D02*
X158739199Y-70572957D01*
X158739199Y-70572957D02*
X158610628Y-70572957D01*
X158610628Y-70572957D02*
X158524914Y-70615814D01*
X158524914Y-70615814D02*
X158482057Y-70701528D01*
X158482057Y-70701528D02*
X158482057Y-71172957D01*
X157710628Y-71130100D02*
X157796342Y-71172957D01*
X157796342Y-71172957D02*
X157967771Y-71172957D01*
X157967771Y-71172957D02*
X158053485Y-71130100D01*
X158053485Y-71130100D02*
X158096342Y-71044385D01*
X158096342Y-71044385D02*
X158096342Y-70701528D01*
X158096342Y-70701528D02*
X158053485Y-70615814D01*
X158053485Y-70615814D02*
X157967771Y-70572957D01*
X157967771Y-70572957D02*
X157796342Y-70572957D01*
X157796342Y-70572957D02*
X157710628Y-70615814D01*
X157710628Y-70615814D02*
X157667771Y-70701528D01*
X157667771Y-70701528D02*
X157667771Y-70787242D01*
X157667771Y-70787242D02*
X158096342Y-70872957D01*
X156896342Y-71130100D02*
X156982056Y-71172957D01*
X156982056Y-71172957D02*
X157153484Y-71172957D01*
X157153484Y-71172957D02*
X157239199Y-71130100D01*
X157239199Y-71130100D02*
X157282056Y-71087242D01*
X157282056Y-71087242D02*
X157324913Y-71001528D01*
X157324913Y-71001528D02*
X157324913Y-70744385D01*
X157324913Y-70744385D02*
X157282056Y-70658671D01*
X157282056Y-70658671D02*
X157239199Y-70615814D01*
X157239199Y-70615814D02*
X157153484Y-70572957D01*
X157153484Y-70572957D02*
X156982056Y-70572957D01*
X156982056Y-70572957D02*
X156896342Y-70615814D01*
X156639198Y-70572957D02*
X156296341Y-70572957D01*
X156510627Y-70272957D02*
X156510627Y-71044385D01*
X156510627Y-71044385D02*
X156467770Y-71130100D01*
X156467770Y-71130100D02*
X156382055Y-71172957D01*
X156382055Y-71172957D02*
X156296341Y-71172957D01*
X155439198Y-70272957D02*
X154924913Y-70272957D01*
X155182055Y-71172957D02*
X155182055Y-70272957D01*
X154110627Y-71087242D02*
X154153484Y-71130100D01*
X154153484Y-71130100D02*
X154282056Y-71172957D01*
X154282056Y-71172957D02*
X154367770Y-71172957D01*
X154367770Y-71172957D02*
X154496341Y-71130100D01*
X154496341Y-71130100D02*
X154582056Y-71044385D01*
X154582056Y-71044385D02*
X154624913Y-70958671D01*
X154624913Y-70958671D02*
X154667770Y-70787242D01*
X154667770Y-70787242D02*
X154667770Y-70658671D01*
X154667770Y-70658671D02*
X154624913Y-70487242D01*
X154624913Y-70487242D02*
X154582056Y-70401528D01*
X154582056Y-70401528D02*
X154496341Y-70315814D01*
X154496341Y-70315814D02*
X154367770Y-70272957D01*
X154367770Y-70272957D02*
X154282056Y-70272957D01*
X154282056Y-70272957D02*
X154153484Y-70315814D01*
X154153484Y-70315814D02*
X154110627Y-70358671D01*
X153424913Y-70701528D02*
X153296341Y-70744385D01*
X153296341Y-70744385D02*
X153253484Y-70787242D01*
X153253484Y-70787242D02*
X153210627Y-70872957D01*
X153210627Y-70872957D02*
X153210627Y-71001528D01*
X153210627Y-71001528D02*
X153253484Y-71087242D01*
X153253484Y-71087242D02*
X153296341Y-71130100D01*
X153296341Y-71130100D02*
X153382056Y-71172957D01*
X153382056Y-71172957D02*
X153724913Y-71172957D01*
X153724913Y-71172957D02*
X153724913Y-70272957D01*
X153724913Y-70272957D02*
X153424913Y-70272957D01*
X153424913Y-70272957D02*
X153339199Y-70315814D01*
X153339199Y-70315814D02*
X153296341Y-70358671D01*
X153296341Y-70358671D02*
X153253484Y-70444385D01*
X153253484Y-70444385D02*
X153253484Y-70530100D01*
X153253484Y-70530100D02*
X153296341Y-70615814D01*
X153296341Y-70615814D02*
X153339199Y-70658671D01*
X153339199Y-70658671D02*
X153424913Y-70701528D01*
X153424913Y-70701528D02*
X153724913Y-70701528D01*
X152824913Y-71172957D02*
X152824913Y-70272957D01*
X152824913Y-70272957D02*
X152524913Y-70915814D01*
X152524913Y-70915814D02*
X152224913Y-70272957D01*
X152224913Y-70272957D02*
X152224913Y-71172957D01*
X150724914Y-71130100D02*
X150810628Y-71172957D01*
X150810628Y-71172957D02*
X150982056Y-71172957D01*
X150982056Y-71172957D02*
X151067771Y-71130100D01*
X151067771Y-71130100D02*
X151110628Y-71087242D01*
X151110628Y-71087242D02*
X151153485Y-71001528D01*
X151153485Y-71001528D02*
X151153485Y-70744385D01*
X151153485Y-70744385D02*
X151110628Y-70658671D01*
X151110628Y-70658671D02*
X151067771Y-70615814D01*
X151067771Y-70615814D02*
X150982056Y-70572957D01*
X150982056Y-70572957D02*
X150810628Y-70572957D01*
X150810628Y-70572957D02*
X150724914Y-70615814D01*
X149953485Y-71172957D02*
X149953485Y-70701528D01*
X149953485Y-70701528D02*
X149996342Y-70615814D01*
X149996342Y-70615814D02*
X150082056Y-70572957D01*
X150082056Y-70572957D02*
X150253485Y-70572957D01*
X150253485Y-70572957D02*
X150339199Y-70615814D01*
X149953485Y-71130100D02*
X150039199Y-71172957D01*
X150039199Y-71172957D02*
X150253485Y-71172957D01*
X150253485Y-71172957D02*
X150339199Y-71130100D01*
X150339199Y-71130100D02*
X150382056Y-71044385D01*
X150382056Y-71044385D02*
X150382056Y-70958671D01*
X150382056Y-70958671D02*
X150339199Y-70872957D01*
X150339199Y-70872957D02*
X150253485Y-70830100D01*
X150253485Y-70830100D02*
X150039199Y-70830100D01*
X150039199Y-70830100D02*
X149953485Y-70787242D01*
X149524913Y-71172957D02*
X149524913Y-70272957D01*
X149524913Y-70615814D02*
X149439199Y-70572957D01*
X149439199Y-70572957D02*
X149267770Y-70572957D01*
X149267770Y-70572957D02*
X149182056Y-70615814D01*
X149182056Y-70615814D02*
X149139199Y-70658671D01*
X149139199Y-70658671D02*
X149096341Y-70744385D01*
X149096341Y-70744385D02*
X149096341Y-71001528D01*
X149096341Y-71001528D02*
X149139199Y-71087242D01*
X149139199Y-71087242D02*
X149182056Y-71130100D01*
X149182056Y-71130100D02*
X149267770Y-71172957D01*
X149267770Y-71172957D02*
X149439199Y-71172957D01*
X149439199Y-71172957D02*
X149524913Y-71130100D01*
X148582055Y-71172957D02*
X148667770Y-71130100D01*
X148667770Y-71130100D02*
X148710627Y-71044385D01*
X148710627Y-71044385D02*
X148710627Y-70272957D01*
X147896341Y-71130100D02*
X147982055Y-71172957D01*
X147982055Y-71172957D02*
X148153484Y-71172957D01*
X148153484Y-71172957D02*
X148239198Y-71130100D01*
X148239198Y-71130100D02*
X148282055Y-71044385D01*
X148282055Y-71044385D02*
X148282055Y-70701528D01*
X148282055Y-70701528D02*
X148239198Y-70615814D01*
X148239198Y-70615814D02*
X148153484Y-70572957D01*
X148153484Y-70572957D02*
X147982055Y-70572957D01*
X147982055Y-70572957D02*
X147896341Y-70615814D01*
X147896341Y-70615814D02*
X147853484Y-70701528D01*
X147853484Y-70701528D02*
X147853484Y-70787242D01*
X147853484Y-70787242D02*
X148282055Y-70872957D01*
X146310626Y-70315814D02*
X146396341Y-70272957D01*
X146396341Y-70272957D02*
X146524912Y-70272957D01*
X146524912Y-70272957D02*
X146653483Y-70315814D01*
X146653483Y-70315814D02*
X146739198Y-70401528D01*
X146739198Y-70401528D02*
X146782055Y-70487242D01*
X146782055Y-70487242D02*
X146824912Y-70658671D01*
X146824912Y-70658671D02*
X146824912Y-70787242D01*
X146824912Y-70787242D02*
X146782055Y-70958671D01*
X146782055Y-70958671D02*
X146739198Y-71044385D01*
X146739198Y-71044385D02*
X146653483Y-71130100D01*
X146653483Y-71130100D02*
X146524912Y-71172957D01*
X146524912Y-71172957D02*
X146439198Y-71172957D01*
X146439198Y-71172957D02*
X146310626Y-71130100D01*
X146310626Y-71130100D02*
X146267769Y-71087242D01*
X146267769Y-71087242D02*
X146267769Y-70787242D01*
X146267769Y-70787242D02*
X146439198Y-70787242D01*
X145882055Y-71172957D02*
X145882055Y-70272957D01*
X145882055Y-70272957D02*
X145367769Y-71172957D01*
X145367769Y-71172957D02*
X145367769Y-70272957D01*
X144939198Y-71172957D02*
X144939198Y-70272957D01*
X144939198Y-70272957D02*
X144724912Y-70272957D01*
X144724912Y-70272957D02*
X144596341Y-70315814D01*
X144596341Y-70315814D02*
X144510626Y-70401528D01*
X144510626Y-70401528D02*
X144467769Y-70487242D01*
X144467769Y-70487242D02*
X144424912Y-70658671D01*
X144424912Y-70658671D02*
X144424912Y-70787242D01*
X144424912Y-70787242D02*
X144467769Y-70958671D01*
X144467769Y-70958671D02*
X144510626Y-71044385D01*
X144510626Y-71044385D02*
X144596341Y-71130100D01*
X144596341Y-71130100D02*
X144724912Y-71172957D01*
X144724912Y-71172957D02*
X144939198Y-71172957D01*
X143482055Y-70572957D02*
X143139198Y-70572957D01*
X143353484Y-70272957D02*
X143353484Y-71044385D01*
X143353484Y-71044385D02*
X143310627Y-71130100D01*
X143310627Y-71130100D02*
X143224912Y-71172957D01*
X143224912Y-71172957D02*
X143139198Y-71172957D01*
X142710626Y-71172957D02*
X142796341Y-71130100D01*
X142796341Y-71130100D02*
X142839198Y-71087242D01*
X142839198Y-71087242D02*
X142882055Y-71001528D01*
X142882055Y-71001528D02*
X142882055Y-70744385D01*
X142882055Y-70744385D02*
X142839198Y-70658671D01*
X142839198Y-70658671D02*
X142796341Y-70615814D01*
X142796341Y-70615814D02*
X142710626Y-70572957D01*
X142710626Y-70572957D02*
X142582055Y-70572957D01*
X142582055Y-70572957D02*
X142496341Y-70615814D01*
X142496341Y-70615814D02*
X142453484Y-70658671D01*
X142453484Y-70658671D02*
X142410626Y-70744385D01*
X142410626Y-70744385D02*
X142410626Y-71001528D01*
X142410626Y-71001528D02*
X142453484Y-71087242D01*
X142453484Y-71087242D02*
X142496341Y-71130100D01*
X142496341Y-71130100D02*
X142582055Y-71172957D01*
X142582055Y-71172957D02*
X142710626Y-71172957D01*
X141339198Y-71172957D02*
X141339198Y-70272957D01*
X141339198Y-70615814D02*
X141253484Y-70572957D01*
X141253484Y-70572957D02*
X141082055Y-70572957D01*
X141082055Y-70572957D02*
X140996341Y-70615814D01*
X140996341Y-70615814D02*
X140953484Y-70658671D01*
X140953484Y-70658671D02*
X140910626Y-70744385D01*
X140910626Y-70744385D02*
X140910626Y-71001528D01*
X140910626Y-71001528D02*
X140953484Y-71087242D01*
X140953484Y-71087242D02*
X140996341Y-71130100D01*
X140996341Y-71130100D02*
X141082055Y-71172957D01*
X141082055Y-71172957D02*
X141253484Y-71172957D01*
X141253484Y-71172957D02*
X141339198Y-71130100D01*
X140396340Y-71172957D02*
X140482055Y-71130100D01*
X140482055Y-71130100D02*
X140524912Y-71087242D01*
X140524912Y-71087242D02*
X140567769Y-71001528D01*
X140567769Y-71001528D02*
X140567769Y-70744385D01*
X140567769Y-70744385D02*
X140524912Y-70658671D01*
X140524912Y-70658671D02*
X140482055Y-70615814D01*
X140482055Y-70615814D02*
X140396340Y-70572957D01*
X140396340Y-70572957D02*
X140267769Y-70572957D01*
X140267769Y-70572957D02*
X140182055Y-70615814D01*
X140182055Y-70615814D02*
X140139198Y-70658671D01*
X140139198Y-70658671D02*
X140096340Y-70744385D01*
X140096340Y-70744385D02*
X140096340Y-71001528D01*
X140096340Y-71001528D02*
X140139198Y-71087242D01*
X140139198Y-71087242D02*
X140182055Y-71130100D01*
X140182055Y-71130100D02*
X140267769Y-71172957D01*
X140267769Y-71172957D02*
X140396340Y-71172957D01*
X139839197Y-70572957D02*
X139496340Y-70572957D01*
X139710626Y-70272957D02*
X139710626Y-71044385D01*
X139710626Y-71044385D02*
X139667769Y-71130100D01*
X139667769Y-71130100D02*
X139582054Y-71172957D01*
X139582054Y-71172957D02*
X139496340Y-71172957D01*
X139196340Y-71172957D02*
X139196340Y-70272957D01*
X138810626Y-71172957D02*
X138810626Y-70701528D01*
X138810626Y-70701528D02*
X138853483Y-70615814D01*
X138853483Y-70615814D02*
X138939197Y-70572957D01*
X138939197Y-70572957D02*
X139067768Y-70572957D01*
X139067768Y-70572957D02*
X139153483Y-70615814D01*
X139153483Y-70615814D02*
X139196340Y-70658671D01*
X137696340Y-70572957D02*
X137696340Y-71472957D01*
X137696340Y-70615814D02*
X137610626Y-70572957D01*
X137610626Y-70572957D02*
X137439197Y-70572957D01*
X137439197Y-70572957D02*
X137353483Y-70615814D01*
X137353483Y-70615814D02*
X137310626Y-70658671D01*
X137310626Y-70658671D02*
X137267768Y-70744385D01*
X137267768Y-70744385D02*
X137267768Y-71001528D01*
X137267768Y-71001528D02*
X137310626Y-71087242D01*
X137310626Y-71087242D02*
X137353483Y-71130100D01*
X137353483Y-71130100D02*
X137439197Y-71172957D01*
X137439197Y-71172957D02*
X137610626Y-71172957D01*
X137610626Y-71172957D02*
X137696340Y-71130100D01*
X136882054Y-71172957D02*
X136882054Y-70572957D01*
X136882054Y-70272957D02*
X136924911Y-70315814D01*
X136924911Y-70315814D02*
X136882054Y-70358671D01*
X136882054Y-70358671D02*
X136839197Y-70315814D01*
X136839197Y-70315814D02*
X136882054Y-70272957D01*
X136882054Y-70272957D02*
X136882054Y-70358671D01*
X136453483Y-70572957D02*
X136453483Y-71172957D01*
X136453483Y-70658671D02*
X136410626Y-70615814D01*
X136410626Y-70615814D02*
X136324911Y-70572957D01*
X136324911Y-70572957D02*
X136196340Y-70572957D01*
X136196340Y-70572957D02*
X136110626Y-70615814D01*
X136110626Y-70615814D02*
X136067769Y-70701528D01*
X136067769Y-70701528D02*
X136067769Y-71172957D01*
X135682054Y-71130100D02*
X135596340Y-71172957D01*
X135596340Y-71172957D02*
X135424911Y-71172957D01*
X135424911Y-71172957D02*
X135339197Y-71130100D01*
X135339197Y-71130100D02*
X135296340Y-71044385D01*
X135296340Y-71044385D02*
X135296340Y-71001528D01*
X135296340Y-71001528D02*
X135339197Y-70915814D01*
X135339197Y-70915814D02*
X135424911Y-70872957D01*
X135424911Y-70872957D02*
X135553483Y-70872957D01*
X135553483Y-70872957D02*
X135639197Y-70830100D01*
X135639197Y-70830100D02*
X135682054Y-70744385D01*
X135682054Y-70744385D02*
X135682054Y-70701528D01*
X135682054Y-70701528D02*
X135639197Y-70615814D01*
X135639197Y-70615814D02*
X135553483Y-70572957D01*
X135553483Y-70572957D02*
X135424911Y-70572957D01*
X135424911Y-70572957D02*
X135339197Y-70615814D01*
X133753483Y-71172957D02*
X134267769Y-71172957D01*
X134010626Y-71172957D02*
X134010626Y-70272957D01*
X134010626Y-70272957D02*
X134096340Y-70401528D01*
X134096340Y-70401528D02*
X134182055Y-70487242D01*
X134182055Y-70487242D02*
X134267769Y-70530100D01*
X132724912Y-70915814D02*
X132296341Y-70915814D01*
X132810626Y-71172957D02*
X132510626Y-70272957D01*
X132510626Y-70272957D02*
X132210626Y-71172957D01*
X131910626Y-71172957D02*
X131910626Y-70272957D01*
X131910626Y-70272957D02*
X131396340Y-71172957D01*
X131396340Y-71172957D02*
X131396340Y-70272957D01*
X130967769Y-71172957D02*
X130967769Y-70272957D01*
X130967769Y-70272957D02*
X130753483Y-70272957D01*
X130753483Y-70272957D02*
X130624912Y-70315814D01*
X130624912Y-70315814D02*
X130539197Y-70401528D01*
X130539197Y-70401528D02*
X130496340Y-70487242D01*
X130496340Y-70487242D02*
X130453483Y-70658671D01*
X130453483Y-70658671D02*
X130453483Y-70787242D01*
X130453483Y-70787242D02*
X130496340Y-70958671D01*
X130496340Y-70958671D02*
X130539197Y-71044385D01*
X130539197Y-71044385D02*
X130624912Y-71130100D01*
X130624912Y-71130100D02*
X130753483Y-71172957D01*
X130753483Y-71172957D02*
X130967769Y-71172957D01*
X128910626Y-71172957D02*
X129424912Y-71172957D01*
X129167769Y-71172957D02*
X129167769Y-70272957D01*
X129167769Y-70272957D02*
X129253483Y-70401528D01*
X129253483Y-70401528D02*
X129339198Y-70487242D01*
X129339198Y-70487242D02*
X129424912Y-70530100D01*
X128139198Y-70272957D02*
X128310626Y-70272957D01*
X128310626Y-70272957D02*
X128396340Y-70315814D01*
X128396340Y-70315814D02*
X128439198Y-70358671D01*
X128439198Y-70358671D02*
X128524912Y-70487242D01*
X128524912Y-70487242D02*
X128567769Y-70658671D01*
X128567769Y-70658671D02*
X128567769Y-71001528D01*
X128567769Y-71001528D02*
X128524912Y-71087242D01*
X128524912Y-71087242D02*
X128482055Y-71130100D01*
X128482055Y-71130100D02*
X128396340Y-71172957D01*
X128396340Y-71172957D02*
X128224912Y-71172957D01*
X128224912Y-71172957D02*
X128139198Y-71130100D01*
X128139198Y-71130100D02*
X128096340Y-71087242D01*
X128096340Y-71087242D02*
X128053483Y-71001528D01*
X128053483Y-71001528D02*
X128053483Y-70787242D01*
X128053483Y-70787242D02*
X128096340Y-70701528D01*
X128096340Y-70701528D02*
X128139198Y-70658671D01*
X128139198Y-70658671D02*
X128224912Y-70615814D01*
X128224912Y-70615814D02*
X128396340Y-70615814D01*
X128396340Y-70615814D02*
X128482055Y-70658671D01*
X128482055Y-70658671D02*
X128524912Y-70701528D01*
X128524912Y-70701528D02*
X128567769Y-70787242D01*
%LPC*%
D11*
X173512600Y-64978300D03*
X166502600Y-64978300D03*
D12*
X167752600Y-62488300D03*
X167752600Y-68988300D03*
X172252600Y-62488300D03*
X172252600Y-68988300D03*
D13*
X124348000Y-133351300D03*
D14*
X126888000Y-133351300D03*
X129428000Y-133351300D03*
D11*
X132110600Y-64978300D03*
X125100600Y-64978300D03*
D12*
X126350600Y-62488300D03*
X126350600Y-68988300D03*
X130850600Y-62488300D03*
X130850600Y-68988300D03*
D13*
X171323000Y-95504000D03*
D14*
X168783000Y-95504000D03*
X166243000Y-95504000D03*
X163703000Y-95504000D03*
X161163000Y-95504000D03*
X158623000Y-95504000D03*
D15*
X124460000Y-90678000D03*
D16*
X127000000Y-90678000D03*
X129540000Y-90678000D03*
X152400000Y-75438000D03*
X132080000Y-90678000D03*
X149860000Y-75438000D03*
X134620000Y-90678000D03*
X147320000Y-75438000D03*
X137160000Y-90678000D03*
X144780000Y-75438000D03*
X139700000Y-90678000D03*
X142240000Y-75438000D03*
X142240000Y-90678000D03*
X139700000Y-75438000D03*
X144780000Y-90678000D03*
X137160000Y-75438000D03*
X147320000Y-90678000D03*
X134620000Y-75438000D03*
X149860000Y-90678000D03*
X132080000Y-75438000D03*
X152400000Y-90678000D03*
X129540000Y-75438000D03*
X127000000Y-75438000D03*
X124460000Y-75438000D03*
X133350000Y-77978000D03*
X135890000Y-77978000D03*
X143510000Y-77978000D03*
X146050000Y-77978000D03*
D13*
X152400000Y-77978000D03*
D14*
X152400000Y-80518000D03*
X152400000Y-83058000D03*
D13*
X157734000Y-77724000D03*
D14*
X157734000Y-80264000D03*
X157734000Y-82804000D03*
X157734000Y-85344000D03*
X157734000Y-87884000D03*
X157734000Y-90424000D03*
D13*
X139674000Y-66421000D03*
D14*
X139674000Y-63881000D03*
X142214000Y-66421000D03*
X142214000Y-63881000D03*
X144754000Y-66421000D03*
X144754000Y-63881000D03*
X147294000Y-66421000D03*
X147294000Y-63881000D03*
X149834000Y-66421000D03*
X149834000Y-63881000D03*
X152374000Y-66421000D03*
X152374000Y-63881000D03*
X154914000Y-66421000D03*
X154914000Y-63881000D03*
X157454000Y-66421000D03*
X157454000Y-63881000D03*
D17*
X158623000Y-101219000D03*
D18*
X158623000Y-103759000D03*
X158623000Y-106299000D03*
X158623000Y-108839000D03*
X158623000Y-111379000D03*
X158623000Y-113919000D03*
X158623000Y-116459000D03*
X158623000Y-118999000D03*
X158623000Y-121539000D03*
X158623000Y-124079000D03*
X158623000Y-126619000D03*
X158623000Y-129159000D03*
X158623000Y-131699000D03*
X158623000Y-134239000D03*
X173863000Y-134239000D03*
X173863000Y-131699000D03*
X173863000Y-129159000D03*
X173863000Y-126619000D03*
X173863000Y-124079000D03*
X173863000Y-121539000D03*
X173863000Y-118999000D03*
X173863000Y-116459000D03*
X173863000Y-113919000D03*
X173863000Y-111379000D03*
X173863000Y-108839000D03*
X173863000Y-106299000D03*
X173863000Y-103759000D03*
X173863000Y-101219000D03*
D19*
X148501100Y-102003600D03*
D20*
X124501100Y-145503600D03*
X168501100Y-145503600D03*
X126501100Y-145503600D03*
X170501100Y-145503600D03*
X128501100Y-145503600D03*
X172501100Y-145503600D03*
X130501100Y-145503600D03*
X132501100Y-145503600D03*
X134501100Y-145503600D03*
X136501100Y-145503600D03*
X138501100Y-145503600D03*
X140501100Y-145503600D03*
X142501100Y-145503600D03*
X144501100Y-145503600D03*
X146501100Y-145503600D03*
X148501100Y-145503600D03*
X150501100Y-145503600D03*
X152501100Y-145503600D03*
X154501100Y-145503600D03*
X156501100Y-145503600D03*
X158501100Y-145503600D03*
X160501100Y-145503600D03*
X162501100Y-145503600D03*
X164501100Y-145503600D03*
X166501100Y-145503600D03*
%LPD*%
M02*
