G04 #@! TF.GenerationSoftware,KiCad,Pcbnew,(6.0.11)*
G04 #@! TF.CreationDate,2024-07-24T19:14:19+02:00*
G04 #@! TF.ProjectId,tcbm2sd,7463626d-3273-4642-9e6b-696361645f70,1.1*
G04 #@! TF.SameCoordinates,Original*
G04 #@! TF.FileFunction,Copper,L1,Top*
G04 #@! TF.FilePolarity,Positive*
%FSLAX46Y46*%
G04 Gerber Fmt 4.6, Leading zero omitted, Abs format (unit mm)*
G04 Created by KiCad (PCBNEW (6.0.11)) date 2024-07-24 19:14:19*
%MOMM*%
%LPD*%
G01*
G04 APERTURE LIST*
G04 Aperture macros list*
%AMRoundRect*
0 Rectangle with rounded corners*
0 $1 Rounding radius*
0 $2 $3 $4 $5 $6 $7 $8 $9 X,Y pos of 4 corners*
0 Add a 4 corners polygon primitive as box body*
4,1,4,$2,$3,$4,$5,$6,$7,$8,$9,$2,$3,0*
0 Add four circle primitives for the rounded corners*
1,1,$1+$1,$2,$3*
1,1,$1+$1,$4,$5*
1,1,$1+$1,$6,$7*
1,1,$1+$1,$8,$9*
0 Add four rect primitives between the rounded corners*
20,1,$1+$1,$2,$3,$4,$5,0*
20,1,$1+$1,$4,$5,$6,$7,0*
20,1,$1+$1,$6,$7,$8,$9,0*
20,1,$1+$1,$8,$9,$2,$3,0*%
G04 Aperture macros list end*
G04 #@! TA.AperFunction,SMDPad,CuDef*
%ADD10R,1.000000X1.500000*%
G04 #@! TD*
G04 #@! TA.AperFunction,SMDPad,CuDef*
%ADD11RoundRect,0.250000X-0.097227X0.574524X-0.574524X0.097227X0.097227X-0.574524X0.574524X-0.097227X0*%
G04 #@! TD*
G04 #@! TA.AperFunction,SMDPad,CuDef*
%ADD12RoundRect,0.250000X0.574524X0.097227X0.097227X0.574524X-0.574524X-0.097227X-0.097227X-0.574524X0*%
G04 #@! TD*
G04 #@! TA.AperFunction,ComponentPad*
%ADD13R,1.700000X1.700000*%
G04 #@! TD*
G04 #@! TA.AperFunction,ComponentPad*
%ADD14O,1.700000X1.700000*%
G04 #@! TD*
G04 #@! TA.AperFunction,SMDPad,CuDef*
%ADD15RoundRect,0.250000X-0.574524X-0.097227X-0.097227X-0.574524X0.574524X0.097227X0.097227X0.574524X0*%
G04 #@! TD*
G04 #@! TA.AperFunction,SMDPad,CuDef*
%ADD16RoundRect,0.075000X-0.415425X-0.521491X0.521491X0.415425X0.415425X0.521491X-0.521491X-0.415425X0*%
G04 #@! TD*
G04 #@! TA.AperFunction,SMDPad,CuDef*
%ADD17RoundRect,0.075000X0.415425X-0.521491X0.521491X-0.415425X-0.415425X0.521491X-0.521491X0.415425X0*%
G04 #@! TD*
G04 #@! TA.AperFunction,ComponentPad*
%ADD18R,1.600000X1.600000*%
G04 #@! TD*
G04 #@! TA.AperFunction,ComponentPad*
%ADD19O,1.600000X1.600000*%
G04 #@! TD*
G04 #@! TA.AperFunction,ComponentPad*
%ADD20C,1.600000*%
G04 #@! TD*
G04 #@! TA.AperFunction,SMDPad,CuDef*
%ADD21RoundRect,0.112500X-0.337500X-4.512500X0.337500X-4.512500X0.337500X4.512500X-0.337500X4.512500X0*%
G04 #@! TD*
G04 #@! TA.AperFunction,ViaPad*
%ADD22C,0.800000*%
G04 #@! TD*
G04 #@! TA.AperFunction,Conductor*
%ADD23C,0.400000*%
G04 #@! TD*
G04 #@! TA.AperFunction,Conductor*
%ADD24C,0.250000*%
G04 #@! TD*
G04 APERTURE END LIST*
G36*
X126600000Y-113076000D02*
G01*
X126100000Y-113076000D01*
X126100000Y-112476000D01*
X126600000Y-112476000D01*
X126600000Y-113076000D01*
G37*
G36*
X126600000Y-117140000D02*
G01*
X126100000Y-117140000D01*
X126100000Y-116540000D01*
X126600000Y-116540000D01*
X126600000Y-117140000D01*
G37*
G36*
X164334000Y-117140000D02*
G01*
X163834000Y-117140000D01*
X163834000Y-116540000D01*
X164334000Y-116540000D01*
X164334000Y-117140000D01*
G37*
D10*
X125700000Y-112776000D03*
X127000000Y-112776000D03*
X128300000Y-112776000D03*
D11*
X157705623Y-129822377D03*
X156238377Y-131289623D03*
D12*
X157705623Y-114017623D03*
X156238377Y-112550377D03*
D10*
X125700000Y-116840000D03*
X127000000Y-116840000D03*
X128300000Y-116840000D03*
X163434000Y-116840000D03*
X164734000Y-116840000D03*
D13*
X124348000Y-133351300D03*
D14*
X126888000Y-133351300D03*
X129428000Y-133351300D03*
D15*
X138966377Y-129822377D03*
X140433623Y-131289623D03*
D13*
X171196000Y-130048000D03*
D14*
X171196000Y-127508000D03*
X171196000Y-124968000D03*
X171196000Y-122428000D03*
X171196000Y-119888000D03*
X171196000Y-117348000D03*
D16*
X141680357Y-123272342D03*
X142033911Y-123625895D03*
X142387464Y-123979449D03*
X142741018Y-124333002D03*
X143094571Y-124686555D03*
X143448124Y-125040109D03*
X143801678Y-125393662D03*
X144155231Y-125747215D03*
X144508785Y-126100769D03*
X144862338Y-126454322D03*
X145215891Y-126807876D03*
X145569445Y-127161429D03*
X145922998Y-127514982D03*
X146276551Y-127868536D03*
X146630105Y-128222089D03*
X146983658Y-128575643D03*
D17*
X149688342Y-128575643D03*
X150041895Y-128222089D03*
X150395449Y-127868536D03*
X150749002Y-127514982D03*
X151102555Y-127161429D03*
X151456109Y-126807876D03*
X151809662Y-126454322D03*
X152163215Y-126100769D03*
X152516769Y-125747215D03*
X152870322Y-125393662D03*
X153223876Y-125040109D03*
X153577429Y-124686555D03*
X153930982Y-124333002D03*
X154284536Y-123979449D03*
X154638089Y-123625895D03*
X154991643Y-123272342D03*
D16*
X154991643Y-120567658D03*
X154638089Y-120214105D03*
X154284536Y-119860551D03*
X153930982Y-119506998D03*
X153577429Y-119153445D03*
X153223876Y-118799891D03*
X152870322Y-118446338D03*
X152516769Y-118092785D03*
X152163215Y-117739231D03*
X151809662Y-117385678D03*
X151456109Y-117032124D03*
X151102555Y-116678571D03*
X150749002Y-116325018D03*
X150395449Y-115971464D03*
X150041895Y-115617911D03*
X149688342Y-115264357D03*
D17*
X146983658Y-115264357D03*
X146630105Y-115617911D03*
X146276551Y-115971464D03*
X145922998Y-116325018D03*
X145569445Y-116678571D03*
X145215891Y-117032124D03*
X144862338Y-117385678D03*
X144508785Y-117739231D03*
X144155231Y-118092785D03*
X143801678Y-118446338D03*
X143448124Y-118799891D03*
X143094571Y-119153445D03*
X142741018Y-119506998D03*
X142387464Y-119860551D03*
X142033911Y-120214105D03*
X141680357Y-120567658D03*
D18*
X124460000Y-90678000D03*
D19*
X127000000Y-90678000D03*
X129540000Y-90678000D03*
X132080000Y-90678000D03*
X134620000Y-90678000D03*
X137160000Y-90678000D03*
X139700000Y-90678000D03*
X142240000Y-90678000D03*
X144780000Y-90678000D03*
X147320000Y-90678000D03*
X149860000Y-90678000D03*
X152400000Y-90678000D03*
X152400000Y-75438000D03*
X149860000Y-75438000D03*
X147320000Y-75438000D03*
X144780000Y-75438000D03*
X142240000Y-75438000D03*
X139700000Y-75438000D03*
X137160000Y-75438000D03*
X134620000Y-75438000D03*
X132080000Y-75438000D03*
X129540000Y-75438000D03*
X127000000Y-75438000D03*
X124460000Y-75438000D03*
X135890000Y-77978000D03*
X133350000Y-77978000D03*
X146050000Y-77978000D03*
X143510000Y-77978000D03*
D13*
X157734000Y-77724000D03*
D14*
X157734000Y-80264000D03*
X157734000Y-82804000D03*
X157734000Y-85344000D03*
X157734000Y-87884000D03*
X157734000Y-90424000D03*
D10*
X125700000Y-108712000D03*
X127000000Y-108712000D03*
X128300000Y-108712000D03*
D18*
X124556000Y-68066000D03*
D20*
X126556000Y-68066000D03*
X128556000Y-68066000D03*
X130556000Y-68066000D03*
X132556000Y-68066000D03*
X134556000Y-68066000D03*
X136556000Y-68066000D03*
X138556000Y-68066000D03*
X140556000Y-68066000D03*
X142556000Y-68066000D03*
X144556000Y-68066000D03*
X146556000Y-68066000D03*
X148556000Y-68066000D03*
X150556000Y-68066000D03*
X152556000Y-68066000D03*
X154556000Y-68066000D03*
X156556000Y-68066000D03*
X158556000Y-68066000D03*
X160556000Y-68066000D03*
X162556000Y-68066000D03*
X164556000Y-68066000D03*
X166556000Y-68066000D03*
X168556000Y-68066000D03*
X170556000Y-68066000D03*
X172556000Y-68066000D03*
X124556000Y-62966000D03*
X168556000Y-62966000D03*
X126556000Y-62966000D03*
X170556000Y-62966000D03*
X128556000Y-62966000D03*
X172556000Y-62966000D03*
X130556000Y-62966000D03*
X132556000Y-62966000D03*
X134556000Y-62966000D03*
X136556000Y-62966000D03*
X138556000Y-62966000D03*
X140556000Y-62966000D03*
X142556000Y-62966000D03*
X144556000Y-62966000D03*
X146556000Y-62966000D03*
X148556000Y-62966000D03*
X150556000Y-62966000D03*
X152556000Y-62966000D03*
X154556000Y-62966000D03*
X156556000Y-62966000D03*
X158556000Y-62966000D03*
X160556000Y-62966000D03*
X162556000Y-62966000D03*
X164556000Y-62966000D03*
X166556000Y-62966000D03*
D13*
X132095000Y-84333000D03*
D14*
X132095000Y-81793000D03*
X134635000Y-84333000D03*
X134635000Y-81793000D03*
X137175000Y-84333000D03*
X137175000Y-81793000D03*
X139715000Y-84333000D03*
X139715000Y-81793000D03*
X142255000Y-84333000D03*
X142255000Y-81793000D03*
X144795000Y-84333000D03*
X144795000Y-81793000D03*
X147335000Y-84333000D03*
X147335000Y-81793000D03*
X149875000Y-84333000D03*
X149875000Y-81793000D03*
D11*
X140433623Y-112550377D03*
X138966377Y-114017623D03*
D21*
X124501100Y-145503600D03*
X126501100Y-145503600D03*
X128501100Y-145503600D03*
X130501100Y-145503600D03*
X132501100Y-145503600D03*
X134501100Y-145503600D03*
X136501100Y-145503600D03*
X138501100Y-145503600D03*
X140501100Y-145503600D03*
X142501100Y-145503600D03*
X144501100Y-145503600D03*
X146501100Y-145503600D03*
X148501100Y-145503600D03*
X150501100Y-145503600D03*
X152501100Y-145503600D03*
X154501100Y-145503600D03*
X156501100Y-145503600D03*
X158501100Y-145503600D03*
X160501100Y-145503600D03*
X162501100Y-145503600D03*
X164501100Y-145503600D03*
X166501100Y-145503600D03*
X168501100Y-145503600D03*
X170501100Y-145503600D03*
X172501100Y-145503600D03*
D22*
X128767800Y-111104900D03*
X129159500Y-102860600D03*
X134471300Y-80288900D03*
X172231100Y-139472500D03*
X171210500Y-139327200D03*
X147499700Y-134658300D03*
X143627600Y-139868900D03*
X127824200Y-138303370D03*
X124939300Y-77196400D03*
X147502500Y-79580000D03*
X156675200Y-86931000D03*
X157574500Y-111776800D03*
X148521700Y-77712800D03*
X140720200Y-119641800D03*
X130279500Y-99750900D03*
X148046500Y-126663400D03*
X146502000Y-139793100D03*
X141357900Y-118815900D03*
X131969400Y-100975100D03*
X168071900Y-125805500D03*
X168306700Y-127396600D03*
X168522600Y-124126200D03*
X133324000Y-130224600D03*
X138520100Y-128645600D03*
X168000500Y-129912400D03*
X129058100Y-107358200D03*
X141659500Y-125089600D03*
X167292900Y-123490900D03*
X145112200Y-119007600D03*
X134309200Y-111496000D03*
X138464500Y-112256300D03*
X157023100Y-118485000D03*
X157269600Y-115633500D03*
X132242200Y-73196900D03*
X145367200Y-73185300D03*
X141461500Y-113768100D03*
X147380500Y-122324000D03*
X155281500Y-98723500D03*
X154671600Y-112111400D03*
X152741700Y-88351800D03*
X152176300Y-97072400D03*
X148922100Y-116358500D03*
X148864000Y-112347400D03*
X147246300Y-92295700D03*
X144870700Y-76851500D03*
X149187200Y-114271100D03*
X137762700Y-77430700D03*
X146104500Y-98253000D03*
X146237500Y-96547000D03*
X144739100Y-112963400D03*
X143718200Y-103511000D03*
X143488400Y-113718400D03*
X142636000Y-111017000D03*
X142056600Y-116974200D03*
X127036600Y-114827800D03*
X139999200Y-118553400D03*
X139765800Y-119627800D03*
X126505700Y-139624900D03*
X125615200Y-136312300D03*
X126225000Y-73768300D03*
X149324900Y-126020300D03*
X152194100Y-127900300D03*
X153382900Y-128758900D03*
X153552800Y-127433500D03*
X153942800Y-126269400D03*
X154899700Y-125714200D03*
X156969700Y-124474500D03*
X161784700Y-135729900D03*
X163820500Y-137634600D03*
X157810000Y-123677500D03*
X131966500Y-97693000D03*
X143159300Y-120925600D03*
X132619400Y-131054200D03*
X168458200Y-119761900D03*
X123478500Y-144853600D03*
X156103000Y-114038200D03*
X125286400Y-110995600D03*
X165076200Y-79369100D03*
X173523700Y-144853600D03*
X125876400Y-64933300D03*
X144441700Y-115816000D03*
X141870100Y-115084200D03*
X130627500Y-80145000D03*
X147087500Y-124620800D03*
X141777600Y-130080800D03*
X155572300Y-117215500D03*
X167867100Y-132760100D03*
X138273800Y-110175900D03*
X131881000Y-102060300D03*
X137959000Y-132972500D03*
X134330300Y-128737700D03*
X121940300Y-108968300D03*
X139616200Y-126043600D03*
X138348900Y-116658200D03*
X130467200Y-101962500D03*
X144972400Y-137129400D03*
X121455900Y-117875100D03*
X133303300Y-131917900D03*
X139040700Y-132711400D03*
X144338300Y-138118700D03*
X145794800Y-120791800D03*
X146443600Y-110041200D03*
X171454400Y-73717400D03*
X165165700Y-82668200D03*
X148189900Y-139825800D03*
X148432100Y-128895900D03*
X167963300Y-92187200D03*
X153863000Y-108833500D03*
X147869800Y-130450700D03*
X154858000Y-96782900D03*
X167199500Y-76857200D03*
X172523100Y-70977500D03*
X146742800Y-119796200D03*
X147529200Y-107270700D03*
X164310300Y-90801600D03*
X173708500Y-63779200D03*
X151140200Y-139561100D03*
X161575700Y-95707200D03*
X168078700Y-86466700D03*
X151439600Y-129548900D03*
X141255300Y-126542600D03*
X130186300Y-94250200D03*
X168483000Y-89162900D03*
X149655700Y-107933300D03*
X145540300Y-121976400D03*
X148892300Y-138011200D03*
X145182200Y-130363100D03*
X152548400Y-106380300D03*
X169317300Y-85783700D03*
X151587900Y-138282000D03*
X150182900Y-129744600D03*
X154646500Y-110045900D03*
X171344900Y-86750300D03*
X174318600Y-77538300D03*
X150959900Y-132149300D03*
X164773300Y-133078700D03*
X172266700Y-74602500D03*
X157532900Y-138092800D03*
X141414300Y-122282400D03*
X138377100Y-117682200D03*
X129939000Y-97249600D03*
X141208300Y-129300400D03*
X138520100Y-131209000D03*
X134340000Y-131170100D03*
X124267300Y-60475900D03*
D23*
X128501100Y-141620300D02*
X126505700Y-139624900D01*
D24*
X134501100Y-145503600D02*
X134501100Y-136262900D01*
X135038000Y-96338900D02*
X135038000Y-135726000D01*
X134501100Y-136262900D02*
X135038000Y-135726000D01*
X150501100Y-141336300D02*
X152268700Y-139568700D01*
X152268700Y-139568700D02*
X152268700Y-129034700D01*
X148501100Y-140798300D02*
X149602700Y-139696700D01*
X148501100Y-145503600D02*
X148501100Y-140798300D01*
X149602700Y-139696700D02*
X149602700Y-136761300D01*
X154501100Y-140277100D02*
X153382900Y-139158900D01*
X154501100Y-145503600D02*
X154501100Y-140277100D01*
X153382900Y-139158900D02*
X153382900Y-128758900D01*
X162501100Y-136446300D02*
X161784700Y-135729900D01*
X162501100Y-145503600D02*
X162501100Y-136446300D01*
X164501100Y-138315200D02*
X163820500Y-137634600D01*
X164501100Y-145503600D02*
X164501100Y-138315200D01*
X128221370Y-138303370D02*
X127824200Y-138303370D01*
X130501100Y-140583100D02*
X128221370Y-138303370D01*
X130501100Y-145503600D02*
X130501100Y-140583100D01*
X128300000Y-111572700D02*
X128767800Y-111104900D01*
X128300000Y-112776000D02*
X128300000Y-111572700D01*
X125700000Y-116840000D02*
X125700000Y-115105300D01*
X127000000Y-112776000D02*
X127000000Y-113805300D01*
X127000000Y-113805300D02*
X125700000Y-115105300D01*
X124568700Y-107451400D02*
X129159500Y-102860600D01*
X124568700Y-112424000D02*
X124568700Y-107451400D01*
X124920700Y-112776000D02*
X124568700Y-112424000D01*
X135702900Y-79057300D02*
X135890000Y-79057300D01*
X134471300Y-80288900D02*
X135702900Y-79057300D01*
X135890000Y-77978000D02*
X135890000Y-79057300D01*
X125700000Y-112776000D02*
X124920700Y-112776000D01*
X128412700Y-109741300D02*
X127000000Y-109741300D01*
X129447200Y-110775800D02*
X128412700Y-109741300D01*
X129447200Y-116472100D02*
X129447200Y-110775800D01*
X129079300Y-116840000D02*
X129447200Y-116472100D01*
X128300000Y-116840000D02*
X129079300Y-116840000D01*
X127000000Y-108712000D02*
X127000000Y-109741300D01*
X172080400Y-64490400D02*
X170556000Y-62966000D01*
X173457100Y-64490400D02*
X172080400Y-64490400D01*
X175736700Y-66770000D02*
X173457100Y-64490400D01*
X175736700Y-135966900D02*
X175736700Y-66770000D01*
X172231100Y-139472500D02*
X175736700Y-135966900D01*
X170907300Y-65317300D02*
X168556000Y-62966000D01*
X173712200Y-65317300D02*
X170907300Y-65317300D01*
X175324000Y-66929100D02*
X173712200Y-65317300D01*
X175324000Y-135213700D02*
X175324000Y-66929100D01*
X171210500Y-139327200D02*
X175324000Y-135213700D01*
X170556000Y-74396700D02*
X170556000Y-68066000D01*
X173152800Y-76993500D02*
X170556000Y-74396700D01*
X173152800Y-135354500D02*
X173152800Y-76993500D01*
X170501100Y-138006200D02*
X173152800Y-135354500D01*
X170501100Y-145503600D02*
X170501100Y-138006200D01*
X168501100Y-136142900D02*
X168501100Y-145503600D01*
X172738500Y-131905500D02*
X168501100Y-136142900D01*
X172738500Y-84461600D02*
X172738500Y-131905500D01*
X169478200Y-81201300D02*
X172738500Y-84461600D01*
X169478200Y-68988200D02*
X169478200Y-81201300D01*
X168556000Y-68066000D02*
X169478200Y-68988200D01*
X166501100Y-137428300D02*
X166501100Y-145503600D01*
X172325300Y-131604100D02*
X166501100Y-137428300D01*
X172325300Y-85270200D02*
X172325300Y-131604100D01*
X168717500Y-81662400D02*
X172325300Y-85270200D01*
X168717500Y-70227500D02*
X168717500Y-81662400D01*
X166556000Y-68066000D02*
X168717500Y-70227500D01*
X149602700Y-136761300D02*
X147499700Y-134658300D01*
X144501100Y-140742400D02*
X143627600Y-139868900D01*
X144501100Y-145503600D02*
X144501100Y-140742400D01*
X143362900Y-68872900D02*
X142556000Y-68066000D01*
X143362900Y-76410100D02*
X143362900Y-68872900D01*
X142412500Y-77360500D02*
X143362900Y-76410100D01*
X142412500Y-78663800D02*
X142412500Y-77360500D01*
X143385700Y-79637000D02*
X142412500Y-78663800D01*
X143385700Y-92480000D02*
X143385700Y-79637000D01*
X137265200Y-98600500D02*
X143385700Y-92480000D01*
X137265200Y-133343900D02*
X137265200Y-98600500D01*
X142501100Y-138579800D02*
X137265200Y-133343900D01*
X142501100Y-145503600D02*
X142501100Y-138579800D01*
X140866500Y-92634000D02*
X140866500Y-68376500D01*
X136858700Y-96641800D02*
X140866500Y-92634000D01*
X136858700Y-133793900D02*
X136858700Y-96641800D01*
X140501100Y-137436300D02*
X136858700Y-133793900D01*
X140501100Y-145503600D02*
X140501100Y-137436300D01*
X138501100Y-139656100D02*
X138501100Y-145503600D01*
X136452100Y-137607100D02*
X138501100Y-139656100D01*
X136452100Y-96210100D02*
X136452100Y-137607100D01*
X138556000Y-94106200D02*
X136452100Y-96210100D01*
X138556000Y-68066000D02*
X138556000Y-94106200D01*
X136019800Y-145022300D02*
X136501100Y-145503600D01*
X136019800Y-80938200D02*
X136019800Y-145022300D01*
X136969300Y-79988700D02*
X136019800Y-80938200D01*
X136969300Y-77342300D02*
X136969300Y-79988700D01*
X136056500Y-76429500D02*
X136969300Y-77342300D01*
X136056500Y-68565500D02*
X136056500Y-76429500D01*
X136556000Y-68066000D02*
X136056500Y-68565500D01*
X133429800Y-94730700D02*
X135038000Y-96338900D01*
X133429800Y-81306300D02*
X133429800Y-94730700D01*
X132259600Y-80136100D02*
X133429800Y-81306300D01*
X132259600Y-77353400D02*
X132259600Y-80136100D01*
X133350000Y-76263000D02*
X132259600Y-77353400D01*
X133350000Y-69272000D02*
X133350000Y-76263000D01*
X134556000Y-68066000D02*
X133350000Y-69272000D01*
X128270000Y-70352000D02*
X130556000Y-68066000D01*
X128270000Y-75720900D02*
X128270000Y-70352000D01*
X126794500Y-77196400D02*
X128270000Y-75720900D01*
X124939300Y-77196400D02*
X126794500Y-77196400D01*
X164734000Y-116840000D02*
X164734000Y-115810700D01*
X149324200Y-79580000D02*
X147502500Y-79580000D01*
X156675200Y-86931000D02*
X149324200Y-79580000D01*
X161608400Y-115810700D02*
X157574500Y-111776800D01*
X164734000Y-115810700D02*
X161608400Y-115810700D01*
X156604700Y-84793300D02*
X156604700Y-85344000D01*
X148731500Y-76920100D02*
X156604700Y-84793300D01*
X147275700Y-76920100D02*
X148731500Y-76920100D01*
X145859300Y-75503700D02*
X147275700Y-76920100D01*
X145859300Y-75438000D02*
X145859300Y-75503700D01*
X144780000Y-75438000D02*
X145859300Y-75438000D01*
X157734000Y-85344000D02*
X156604700Y-85344000D01*
X157734000Y-87884000D02*
X157734000Y-86754700D01*
X148521700Y-77932300D02*
X148521700Y-77712800D01*
X156841100Y-86251700D02*
X148521700Y-77932300D01*
X156980300Y-86251700D02*
X156841100Y-86251700D01*
X157483300Y-86754700D02*
X156980300Y-86251700D01*
X157734000Y-86754700D02*
X157483300Y-86754700D01*
X150318000Y-76517300D02*
X149860000Y-76517300D01*
X156604700Y-82804000D02*
X150318000Y-76517300D01*
X157734000Y-82804000D02*
X156604700Y-82804000D01*
X149860000Y-75438000D02*
X149860000Y-76517300D01*
X152858000Y-76517300D02*
X152400000Y-76517300D01*
X156604700Y-80264000D02*
X152858000Y-76517300D01*
X157734000Y-80264000D02*
X156604700Y-80264000D01*
X152400000Y-75438000D02*
X152400000Y-76517300D01*
X122143800Y-91615200D02*
X130279500Y-99750900D01*
X122143800Y-66700400D02*
X122143800Y-91615200D01*
X123118500Y-65725700D02*
X122143800Y-66700400D01*
X127796300Y-65725700D02*
X123118500Y-65725700D01*
X130556000Y-62966000D02*
X127796300Y-65725700D01*
X141461600Y-119641800D02*
X140720200Y-119641800D01*
X142033900Y-120214100D02*
X141461600Y-119641800D01*
X148357600Y-126974500D02*
X148046500Y-126663400D01*
X149501400Y-126974500D02*
X148357600Y-126974500D01*
X150395400Y-127868500D02*
X149501400Y-126974500D01*
X146501100Y-139794000D02*
X146502000Y-139793100D01*
X146501100Y-145503600D02*
X146501100Y-139794000D01*
X142049900Y-118815900D02*
X141357900Y-118815900D01*
X142741000Y-119507000D02*
X142049900Y-118815900D01*
X131969400Y-100404600D02*
X131969400Y-100975100D01*
X122548100Y-90983300D02*
X131969400Y-100404600D01*
X122548100Y-66867900D02*
X122548100Y-90983300D01*
X123284600Y-66131400D02*
X122548100Y-66867900D01*
X129390600Y-66131400D02*
X123284600Y-66131400D01*
X132556000Y-62966000D02*
X129390600Y-66131400D01*
X171196000Y-119888000D02*
X170066700Y-119888000D01*
X146092400Y-117201600D02*
X145569400Y-116678600D01*
X146610100Y-117201600D02*
X146092400Y-117201600D01*
X148162600Y-115649100D02*
X146610100Y-117201600D01*
X148162600Y-112088200D02*
X148162600Y-115649100D01*
X149153300Y-111097500D02*
X148162600Y-112088200D01*
X161276200Y-111097500D02*
X149153300Y-111097500D01*
X170066700Y-119888000D02*
X161276200Y-111097500D01*
X154921800Y-124616700D02*
X154284500Y-123979400D01*
X155334700Y-124616700D02*
X154921800Y-124616700D01*
X156523500Y-125805500D02*
X155334700Y-124616700D01*
X168071900Y-125805500D02*
X156523500Y-125805500D01*
X154632900Y-125034900D02*
X153931000Y-124333000D01*
X155181100Y-125034900D02*
X154632900Y-125034900D01*
X157542800Y-127396600D02*
X155181100Y-125034900D01*
X168306700Y-127396600D02*
X157542800Y-127396600D01*
X168442400Y-124206400D02*
X168522600Y-124126200D01*
X160620400Y-124206400D02*
X168442400Y-124206400D01*
X158793500Y-122379500D02*
X160620400Y-124206400D01*
X154435000Y-122379500D02*
X158793500Y-122379500D01*
X153039000Y-123775500D02*
X154435000Y-122379500D01*
X153039000Y-124148200D02*
X153039000Y-123775500D01*
X153577400Y-124686600D02*
X153039000Y-124148200D01*
X126888000Y-133351300D02*
X128017300Y-133351300D01*
X128300000Y-108712000D02*
X129079300Y-108712000D01*
X167910500Y-129822400D02*
X168000500Y-129912400D01*
X157705600Y-129822400D02*
X167910500Y-129822400D01*
X145406800Y-118713000D02*
X145112200Y-119007600D01*
X145406800Y-117930200D02*
X145406800Y-118713000D01*
X144862300Y-117385700D02*
X145406800Y-117930200D01*
X131932500Y-111496000D02*
X134309200Y-111496000D01*
X129113900Y-108677400D02*
X131932500Y-111496000D01*
X129079300Y-108712000D02*
X129113900Y-108677400D01*
X129113900Y-107414000D02*
X129058100Y-107358200D01*
X129113900Y-108677400D02*
X129113900Y-107414000D01*
X157269600Y-114453600D02*
X157705600Y-114017600D01*
X157269600Y-115633500D02*
X157269600Y-114453600D01*
X152066000Y-73185300D02*
X156604700Y-77724000D01*
X145367200Y-73185300D02*
X152066000Y-73185300D01*
X157734000Y-77724000D02*
X156604700Y-77724000D01*
X132080000Y-75438000D02*
X132080000Y-74358700D01*
X162029000Y-123490900D02*
X157023100Y-118485000D01*
X167292900Y-123490900D02*
X162029000Y-123490900D01*
X154245800Y-118485000D02*
X157023100Y-118485000D01*
X153577400Y-119153400D02*
X154245800Y-118485000D01*
X138464500Y-112256300D02*
X140139500Y-112256300D01*
X147380500Y-122324000D02*
X150807400Y-122324000D01*
X150807400Y-121923400D02*
X150807400Y-122324000D01*
X153577400Y-119153400D02*
X150807400Y-121923400D01*
X150807400Y-123330800D02*
X152870300Y-125393700D01*
X150807400Y-122324000D02*
X150807400Y-123330800D01*
X138966400Y-129091900D02*
X138520100Y-128645600D01*
X138966400Y-129822400D02*
X138966400Y-129091900D01*
X132242200Y-74196500D02*
X132242200Y-73196900D01*
X132080000Y-74358700D02*
X132242200Y-74196500D01*
X138520100Y-128229000D02*
X141659500Y-125089600D01*
X138520100Y-128645600D02*
X138520100Y-128229000D01*
X141659500Y-124707400D02*
X142387500Y-123979400D01*
X141659500Y-125089600D02*
X141659500Y-124707400D01*
X140433600Y-112740200D02*
X141461500Y-113768100D01*
X130891600Y-130224600D02*
X133324000Y-130224600D01*
X128017300Y-133098900D02*
X130891600Y-130224600D01*
X128017300Y-133351300D02*
X128017300Y-133098900D01*
X147335000Y-81793000D02*
X148464300Y-81793000D01*
X154671600Y-112402400D02*
X154671600Y-112111400D01*
X150749000Y-116325000D02*
X154671600Y-112402400D01*
X154177500Y-97619500D02*
X155281500Y-98723500D01*
X154177500Y-87032400D02*
X154177500Y-97619500D01*
X150067400Y-82922300D02*
X154177500Y-87032400D01*
X149311200Y-82922300D02*
X150067400Y-82922300D01*
X148464300Y-82075400D02*
X149311200Y-82922300D01*
X148464300Y-81793000D02*
X148464300Y-82075400D01*
X153512000Y-95736700D02*
X152176300Y-97072400D01*
X153512000Y-89122100D02*
X153512000Y-95736700D01*
X152741700Y-88351800D02*
X153512000Y-89122100D01*
X149115500Y-116551900D02*
X148922100Y-116358500D01*
X149815000Y-116551900D02*
X149115500Y-116551900D01*
X150395400Y-115971500D02*
X149815000Y-116551900D01*
X144795000Y-81793000D02*
X144795000Y-82922300D01*
X144795000Y-76927200D02*
X144870700Y-76851500D01*
X144795000Y-81793000D02*
X144795000Y-76927200D01*
X146065000Y-91114400D02*
X147246300Y-92295700D01*
X146065000Y-83958300D02*
X146065000Y-91114400D01*
X145029000Y-82922300D02*
X146065000Y-83958300D01*
X144795000Y-82922300D02*
X145029000Y-82922300D01*
X150636800Y-114120200D02*
X148864000Y-112347400D01*
X150636800Y-115023000D02*
X150636800Y-114120200D01*
X150041900Y-115617900D02*
X150636800Y-115023000D01*
X149688300Y-114772200D02*
X149688300Y-115264400D01*
X149187200Y-114271100D02*
X149688300Y-114772200D01*
X137762700Y-77120000D02*
X137762700Y-77430700D01*
X137160000Y-76517300D02*
X137762700Y-77120000D01*
X137160000Y-75438000D02*
X137160000Y-76517300D01*
X152400000Y-93108100D02*
X152400000Y-90678000D01*
X145206100Y-100302000D02*
X152400000Y-93108100D01*
X145206100Y-110761600D02*
X145206100Y-100302000D01*
X146983700Y-112539200D02*
X145206100Y-110761600D01*
X146983700Y-115264400D02*
X146983700Y-112539200D01*
X144801800Y-99555700D02*
X146104500Y-98253000D01*
X144801800Y-110929100D02*
X144801800Y-99555700D01*
X145822700Y-111950000D02*
X144801800Y-110929100D01*
X145822700Y-114810500D02*
X145822700Y-111950000D01*
X146630100Y-115617900D02*
X145822700Y-114810500D01*
X144397500Y-98387000D02*
X146237500Y-96547000D01*
X144397500Y-111096600D02*
X144397500Y-98387000D01*
X145418400Y-112117500D02*
X144397500Y-111096600D01*
X145418400Y-115113300D02*
X145418400Y-112117500D01*
X146276600Y-115971500D02*
X145418400Y-115113300D01*
X144739100Y-115141100D02*
X145923000Y-116325000D01*
X144739100Y-112963400D02*
X144739100Y-115141100D01*
X143718200Y-112903100D02*
X143718200Y-103511000D01*
X144174200Y-113359100D02*
X143718200Y-112903100D01*
X144174200Y-113997100D02*
X144174200Y-113359100D01*
X143762300Y-114409000D02*
X144174200Y-113997100D01*
X143762300Y-116992700D02*
X143762300Y-114409000D01*
X144508800Y-117739200D02*
X143762300Y-116992700D01*
X143358000Y-113848800D02*
X143488400Y-113718400D01*
X143358000Y-117295600D02*
X143358000Y-113848800D01*
X144155200Y-118092800D02*
X143358000Y-117295600D01*
X142795600Y-111176600D02*
X142636000Y-111017000D01*
X142795600Y-114477200D02*
X142795600Y-111176600D01*
X142953700Y-114635300D02*
X142795600Y-114477200D01*
X142953700Y-117598300D02*
X142953700Y-114635300D01*
X143801700Y-118446300D02*
X142953700Y-117598300D01*
X142056600Y-117408400D02*
X143448100Y-118799900D01*
X142056600Y-116974200D02*
X142056600Y-117408400D01*
X127036600Y-115774100D02*
X127000000Y-115810700D01*
X127036600Y-114827800D02*
X127036600Y-115774100D01*
X127000000Y-116840000D02*
X127000000Y-115810700D01*
X140458300Y-118094300D02*
X139999200Y-118553400D01*
X142035500Y-118094300D02*
X140458300Y-118094300D01*
X143094600Y-119153400D02*
X142035500Y-118094300D01*
X157319800Y-116840000D02*
X163434000Y-116840000D01*
X156609000Y-116129200D02*
X157319800Y-116840000D01*
X151652000Y-116129200D02*
X156609000Y-116129200D01*
X151102600Y-116678600D02*
X151652000Y-116129200D01*
X149875000Y-84333000D02*
X149875000Y-85462300D01*
X139765800Y-119648000D02*
X139765800Y-119627800D01*
X140685500Y-120567700D02*
X139765800Y-119648000D01*
X141680400Y-120567700D02*
X140685500Y-120567700D01*
X150951900Y-86539200D02*
X149875000Y-85462300D01*
X150951900Y-91183400D02*
X150951900Y-86539200D01*
X148994300Y-93141000D02*
X150951900Y-91183400D01*
X148682900Y-93141000D02*
X148994300Y-93141000D01*
X141955100Y-99868800D02*
X148682900Y-93141000D01*
X141955100Y-112255000D02*
X141955100Y-99868800D01*
X142375500Y-112675400D02*
X141955100Y-112255000D01*
X142375500Y-114628900D02*
X142375500Y-112675400D01*
X142549400Y-114802800D02*
X142375500Y-114628900D01*
X142549400Y-115367200D02*
X142549400Y-114802800D01*
X142151500Y-115765100D02*
X142549400Y-115367200D01*
X141826600Y-115765100D02*
X142151500Y-115765100D01*
X139293500Y-118298200D02*
X141826600Y-115765100D01*
X139293500Y-119155500D02*
X139293500Y-118298200D01*
X139765800Y-119627800D02*
X139293500Y-119155500D01*
D23*
X124348000Y-135045100D02*
X124348000Y-133351300D01*
X125615200Y-136312300D02*
X124348000Y-135045100D01*
X126501100Y-139629500D02*
X126505700Y-139624900D01*
X126501100Y-145503600D02*
X126501100Y-139629500D01*
X126556000Y-73437300D02*
X126225000Y-73768300D01*
X126556000Y-68066000D02*
X126556000Y-73437300D01*
X126556000Y-68066000D02*
X128556000Y-68066000D01*
D24*
X149324900Y-126090900D02*
X149324900Y-126020300D01*
X150749000Y-127515000D02*
X149324900Y-126090900D01*
X152268700Y-129034700D02*
X150749000Y-127515000D01*
X152194100Y-127545900D02*
X152194100Y-127900300D01*
X151456100Y-126807900D02*
X152194100Y-127545900D01*
X152674600Y-128380800D02*
X152194100Y-127900300D01*
X152674600Y-145330100D02*
X152674600Y-128380800D01*
X153382900Y-128224100D02*
X153382900Y-128758900D01*
X152873500Y-127714700D02*
X153382900Y-128224100D01*
X152873500Y-127518100D02*
X152873500Y-127714700D01*
X151809700Y-126454300D02*
X152873500Y-127518100D01*
X153495900Y-127433500D02*
X153552800Y-127433500D01*
X152163200Y-126100800D02*
X153495900Y-127433500D01*
X156501100Y-140957400D02*
X156501100Y-145503600D01*
X154092700Y-138549000D02*
X156501100Y-140957400D01*
X154092700Y-127973400D02*
X154092700Y-138549000D01*
X153552800Y-127433500D02*
X154092700Y-127973400D01*
X153262000Y-126492400D02*
X152516800Y-125747200D01*
X153719800Y-126492400D02*
X153262000Y-126492400D01*
X153942800Y-126269400D02*
X153719800Y-126492400D01*
X154565000Y-137218000D02*
X158501100Y-141154100D01*
X154565000Y-127337600D02*
X154565000Y-137218000D01*
X153719800Y-126492400D02*
X154565000Y-127337600D01*
X154775600Y-125590100D02*
X154899700Y-125714200D01*
X153773900Y-125590100D02*
X154775600Y-125590100D01*
X153223900Y-125040100D02*
X153773900Y-125590100D01*
X155101400Y-125915900D02*
X154899700Y-125714200D01*
X155101400Y-136641000D02*
X155101400Y-125915900D01*
X160501100Y-142040700D02*
X155101400Y-136641000D01*
X156707600Y-124212400D02*
X156969700Y-124474500D01*
X155224600Y-124212400D02*
X156707600Y-124212400D01*
X154638100Y-123625900D02*
X155224600Y-124212400D01*
X155396800Y-123677500D02*
X157810000Y-123677500D01*
X130967200Y-96693700D02*
X131966500Y-97693000D01*
X130967200Y-85972400D02*
X130967200Y-96693700D01*
X129947300Y-84952500D02*
X130967200Y-85972400D01*
X129947300Y-78393700D02*
X129947300Y-84952500D01*
X130741100Y-77599900D02*
X129947300Y-78393700D01*
X130741100Y-69880900D02*
X130741100Y-77599900D01*
X132556000Y-68066000D02*
X130741100Y-69880900D01*
X143159300Y-120632400D02*
X143159300Y-120925600D01*
X142387500Y-119860600D02*
X143159300Y-120632400D01*
X132501100Y-131172500D02*
X132619400Y-131054200D01*
X132501100Y-145503600D02*
X132501100Y-131172500D01*
X124077300Y-144853600D02*
X123478500Y-144853600D01*
X124077300Y-145079800D02*
X124077300Y-144853600D01*
X124501100Y-145503600D02*
X124077300Y-145079800D01*
X129428000Y-133351300D02*
X129428000Y-134480600D01*
X125700000Y-108712000D02*
X125700000Y-109741300D01*
X125700000Y-108712000D02*
X125700000Y-107682700D01*
X132080000Y-91217600D02*
X132080000Y-91757300D01*
X132095000Y-84333000D02*
X132095000Y-89583700D01*
X132080000Y-90678000D02*
X132080000Y-89598700D01*
X124077300Y-139831300D02*
X124077300Y-144853600D01*
X129428000Y-134480600D02*
X124077300Y-139831300D01*
X132080000Y-89598700D02*
X132095000Y-89583700D01*
X157734000Y-90424000D02*
X157734000Y-89294700D01*
X173151100Y-144853600D02*
X173523700Y-144853600D01*
X172501100Y-145503600D02*
X173151100Y-144853600D01*
X124556000Y-73088200D02*
X124556000Y-68066000D01*
X125920700Y-74452900D02*
X124556000Y-73088200D01*
X125920700Y-75438000D02*
X125920700Y-74452900D01*
X127000000Y-75438000D02*
X125920700Y-75438000D01*
X149875000Y-81793000D02*
X150836800Y-81793000D01*
X157519500Y-89294700D02*
X157734000Y-89294700D01*
X150836800Y-82612000D02*
X157519500Y-89294700D01*
X150836800Y-81793000D02*
X150836800Y-82612000D01*
X125286400Y-110154900D02*
X125286400Y-110995600D01*
X125700000Y-109741300D02*
X125286400Y-110154900D01*
X132690400Y-92367700D02*
X132080000Y-91757300D01*
X132690400Y-102278100D02*
X132690400Y-92367700D01*
X127285800Y-107682700D02*
X132690400Y-102278100D01*
X125700000Y-107682700D02*
X127285800Y-107682700D01*
X124556000Y-63612900D02*
X125876400Y-64933300D01*
X157943900Y-89294700D02*
X157734000Y-89294700D01*
X161009000Y-86229600D02*
X157943900Y-89294700D01*
X161009000Y-83436300D02*
X161009000Y-86229600D01*
X165076200Y-79369100D02*
X161009000Y-83436300D01*
X131812700Y-83203700D02*
X132095000Y-83203700D01*
X130627500Y-82018500D02*
X131812700Y-83203700D01*
X130627500Y-80145000D02*
X130627500Y-82018500D01*
X132095000Y-84333000D02*
X132095000Y-83203700D01*
X150653100Y-119249300D02*
X152163200Y-117739200D01*
X147433100Y-119249300D02*
X150653100Y-119249300D01*
X145215900Y-117032100D02*
X147433100Y-119249300D01*
X144441700Y-116257900D02*
X144441700Y-115816000D01*
X145215900Y-117032100D02*
X144441700Y-116257900D01*
X140033000Y-115084200D02*
X141870100Y-115084200D01*
X138966400Y-114017600D02*
X140033000Y-115084200D01*
X140568800Y-131289600D02*
X141777600Y-130080800D01*
X156103000Y-112685800D02*
X156103000Y-114038200D01*
X146681900Y-124215200D02*
X147087500Y-124620800D01*
X146681900Y-122062000D02*
X146681900Y-124215200D01*
X147433100Y-121310800D02*
X146681900Y-122062000D01*
X147433100Y-119249300D02*
X147433100Y-121310800D01*
X149636600Y-125331000D02*
X147087500Y-125331000D01*
X150580100Y-126274500D02*
X149636600Y-125331000D01*
X150580100Y-126638900D02*
X150580100Y-126274500D01*
X151102600Y-127161400D02*
X150580100Y-126638900D01*
X147087500Y-124620800D02*
X147087500Y-125331000D01*
X147087500Y-127057600D02*
X146276600Y-127868500D01*
X147087500Y-125331000D02*
X147087500Y-127057600D01*
X157007700Y-117215500D02*
X155572300Y-117215500D01*
X159554100Y-119761900D02*
X157007700Y-117215500D01*
X168458200Y-119761900D02*
X159554100Y-119761900D01*
X152686900Y-117215500D02*
X152163200Y-117739200D01*
X155572300Y-117215500D02*
X152686900Y-117215500D01*
X167867100Y-131522400D02*
X167634300Y-131289600D01*
X167867100Y-132760100D02*
X167867100Y-131522400D01*
X156238400Y-131289600D02*
X167634300Y-131289600D01*
X169201900Y-120505600D02*
X168458200Y-119761900D01*
X169201900Y-129722000D02*
X169201900Y-120505600D01*
X167634300Y-131289600D02*
X169201900Y-129722000D01*
X131628300Y-102060300D02*
X131881000Y-102060300D01*
X121739500Y-92171500D02*
X131628300Y-102060300D01*
X121739500Y-64254200D02*
X121739500Y-92171500D01*
X124107000Y-61886700D02*
X121739500Y-64254200D01*
X133476700Y-61886700D02*
X124107000Y-61886700D01*
X134556000Y-62966000D02*
X133476700Y-61886700D01*
X137764300Y-123440300D02*
X137932300Y-123272300D01*
X137764300Y-132777800D02*
X137764300Y-123440300D01*
X137959000Y-132972500D02*
X137764300Y-132777800D01*
X141680400Y-123272300D02*
X137932300Y-123272300D01*
X137669500Y-110780200D02*
X138273800Y-110175900D01*
X137669500Y-123009500D02*
X137669500Y-110780200D01*
X137932300Y-123272300D02*
X137669500Y-123009500D01*
X139616200Y-126043600D02*
X142033900Y-123625900D01*
X121940300Y-116347700D02*
X134330300Y-128737700D01*
X121940300Y-108968300D02*
X121940300Y-116347700D01*
X121335200Y-92830500D02*
X130467200Y-101962500D01*
X121335200Y-64086700D02*
X121335200Y-92830500D01*
X123997100Y-61424800D02*
X121335200Y-64086700D01*
X145014800Y-61424800D02*
X123997100Y-61424800D01*
X146556000Y-62966000D02*
X145014800Y-61424800D01*
X139126000Y-117435300D02*
X138348900Y-116658200D01*
X139126000Y-117894000D02*
X139126000Y-117435300D01*
X138827600Y-118192400D02*
X139126000Y-117894000D01*
X138827600Y-119650200D02*
X138827600Y-118192400D01*
X140568800Y-121391400D02*
X138827600Y-119650200D01*
X141817900Y-121391400D02*
X140568800Y-121391400D01*
X144692700Y-124266200D02*
X141817900Y-121391400D01*
X144692700Y-125209700D02*
X144692700Y-124266200D01*
X144155200Y-125747200D02*
X144692700Y-125209700D01*
X143252200Y-135409200D02*
X144972400Y-137129400D01*
X143252200Y-126650200D02*
X143252200Y-135409200D01*
X144155200Y-125747200D02*
X143252200Y-126650200D01*
X142476800Y-136257200D02*
X142476800Y-132711400D01*
X144338300Y-138118700D02*
X142476800Y-136257200D01*
X142476800Y-126718600D02*
X142476800Y-132711400D01*
X143801700Y-125393700D02*
X142476800Y-126718600D01*
X142476800Y-132711400D02*
X139040700Y-132711400D01*
X133303300Y-131206000D02*
X133303300Y-131917900D01*
X134009200Y-130500100D02*
X133303300Y-131206000D01*
X134009200Y-129948900D02*
X134009200Y-130500100D01*
X121935400Y-117875100D02*
X134009200Y-129948900D01*
X121455900Y-117875100D02*
X121935400Y-117875100D01*
X146443600Y-109631100D02*
X146443600Y-110041200D01*
X165165700Y-90909000D02*
X146443600Y-109631100D01*
X165165700Y-82668200D02*
X165165700Y-90909000D01*
X171454400Y-70932800D02*
X171454400Y-73717400D01*
X173636300Y-68750900D02*
X171454400Y-70932800D01*
X173636300Y-67601200D02*
X173636300Y-68750900D01*
X173021000Y-66985900D02*
X173636300Y-67601200D01*
X152575900Y-66985900D02*
X173021000Y-66985900D01*
X148556000Y-62966000D02*
X152575900Y-66985900D01*
X145155500Y-125454100D02*
X144508800Y-126100800D01*
X145155500Y-122552200D02*
X145155500Y-125454100D01*
X144861000Y-122257700D02*
X145155500Y-122552200D01*
X144861000Y-121695100D02*
X144861000Y-122257700D01*
X145764300Y-120791800D02*
X144861000Y-121695100D01*
X145794800Y-120791800D02*
X145764300Y-120791800D01*
X143675400Y-126934200D02*
X144508800Y-126100800D01*
X143675400Y-134829900D02*
X143675400Y-126934200D01*
X148189900Y-139344400D02*
X143675400Y-134829900D01*
X148189900Y-139825800D02*
X148189900Y-139344400D01*
X147304000Y-128895900D02*
X148432100Y-128895900D01*
X146983700Y-128575600D02*
X147304000Y-128895900D01*
X153863000Y-106287500D02*
X167963300Y-92187200D01*
X153863000Y-108833500D02*
X153863000Y-106287500D01*
X147411900Y-130450700D02*
X147869800Y-130450700D01*
X145384300Y-128423100D02*
X147411900Y-130450700D01*
X145384300Y-128053700D02*
X145384300Y-128423100D01*
X145923000Y-127515000D02*
X145384300Y-128053700D01*
X163753300Y-87887600D02*
X154858000Y-96782900D01*
X163753300Y-82602900D02*
X163753300Y-87887600D01*
X167199500Y-79156700D02*
X163753300Y-82602900D01*
X167199500Y-76857200D02*
X167199500Y-79156700D01*
X174048300Y-69452300D02*
X172523100Y-70977500D01*
X174048300Y-67413300D02*
X174048300Y-69452300D01*
X173181800Y-66546800D02*
X174048300Y-67413300D01*
X160136800Y-66546800D02*
X173181800Y-66546800D01*
X156556000Y-62966000D02*
X160136800Y-66546800D01*
X147529200Y-107270600D02*
X147529200Y-107270700D01*
X147914000Y-107270600D02*
X147529200Y-107270600D01*
X164310300Y-90874300D02*
X147914000Y-107270600D01*
X164310300Y-90801600D02*
X164310300Y-90874300D01*
X173708500Y-62550700D02*
X173708500Y-63779200D01*
X173038700Y-61880900D02*
X173708500Y-62550700D01*
X153641100Y-61880900D02*
X173038700Y-61880900D01*
X152556000Y-62966000D02*
X153641100Y-61880900D01*
X146219700Y-125804100D02*
X145215900Y-126807900D01*
X146219700Y-121952400D02*
X146219700Y-125804100D01*
X146742800Y-121429300D02*
X146219700Y-121952400D01*
X146742800Y-119796200D02*
X146742800Y-121429300D01*
X150908300Y-139329200D02*
X151140200Y-139561100D01*
X150908300Y-137106200D02*
X150908300Y-139329200D01*
X144502800Y-130700700D02*
X150908300Y-137106200D01*
X144502800Y-127521000D02*
X144502800Y-130700700D01*
X145215900Y-126807900D02*
X144502800Y-127521000D01*
X167270000Y-87275400D02*
X168078700Y-86466700D01*
X167270000Y-90012900D02*
X167270000Y-87275400D01*
X161575700Y-95707200D02*
X167270000Y-90012900D01*
X151368700Y-129548900D02*
X150041900Y-128222100D01*
X151439600Y-129548900D02*
X151368700Y-129548900D01*
X141255400Y-126542600D02*
X141255300Y-126542600D01*
X141255400Y-126525800D02*
X141255400Y-126542600D01*
X143094600Y-124686600D02*
X141255400Y-126525800D01*
X136535300Y-66986700D02*
X140556000Y-62966000D01*
X123623900Y-66986700D02*
X136535300Y-66986700D01*
X123372900Y-67237700D02*
X123623900Y-66986700D01*
X123372900Y-77106900D02*
X123372900Y-67237700D01*
X128269800Y-82003800D02*
X123372900Y-77106900D01*
X128269800Y-92333700D02*
X128269800Y-82003800D01*
X130186300Y-94250200D02*
X128269800Y-92333700D01*
X145604400Y-122040500D02*
X145540300Y-121976400D01*
X145604400Y-125712200D02*
X145604400Y-122040500D01*
X144862300Y-126454300D02*
X145604400Y-125712200D01*
X144098500Y-127218100D02*
X144862300Y-126454300D01*
X144098500Y-133217400D02*
X144098500Y-127218100D01*
X148892300Y-138011200D02*
X144098500Y-133217400D01*
X152174000Y-105415000D02*
X149655700Y-107933300D01*
X152879500Y-105415000D02*
X152174000Y-105415000D01*
X168483000Y-89811500D02*
X152879500Y-105415000D01*
X168483000Y-89162900D02*
X168483000Y-89811500D01*
X169317300Y-89611400D02*
X152548400Y-106380300D01*
X169317300Y-85783700D02*
X169317300Y-89611400D01*
X144931900Y-130112800D02*
X145182200Y-130363100D01*
X144931900Y-127798900D02*
X144931900Y-130112800D01*
X145569400Y-127161400D02*
X144931900Y-127798900D01*
X151587800Y-138282000D02*
X151587900Y-138282000D01*
X151587800Y-136768700D02*
X151587800Y-138282000D01*
X145182200Y-130363100D02*
X151587800Y-136768700D01*
X149688300Y-129250000D02*
X149688300Y-128575600D01*
X150182900Y-129744600D02*
X149688300Y-129250000D01*
X171344900Y-93347500D02*
X171344900Y-86750300D01*
X154646500Y-110045900D02*
X171344900Y-93347500D01*
X165313100Y-65723100D02*
X162556000Y-62966000D01*
X173525000Y-65723100D02*
X165313100Y-65723100D01*
X174900200Y-67098300D02*
X173525000Y-65723100D01*
X174900200Y-76956700D02*
X174900200Y-67098300D01*
X174318600Y-77538300D02*
X174900200Y-76956700D01*
X147187300Y-127664900D02*
X146630100Y-128222100D01*
X148166400Y-127664900D02*
X147187300Y-127664900D01*
X149283700Y-128782200D02*
X148166400Y-127664900D01*
X149283700Y-130473100D02*
X149283700Y-128782200D01*
X150959900Y-132149300D02*
X149283700Y-130473100D01*
X174476300Y-72392900D02*
X172266700Y-74602500D01*
X174476300Y-67267400D02*
X174476300Y-72392900D01*
X173336300Y-66127400D02*
X174476300Y-67267400D01*
X161717400Y-66127400D02*
X173336300Y-66127400D01*
X158556000Y-62966000D02*
X161717400Y-66127400D01*
X162547000Y-133078700D02*
X157532900Y-138092800D01*
X164773300Y-133078700D02*
X162547000Y-133078700D01*
X125587500Y-92898100D02*
X129939000Y-97249600D01*
X125587500Y-80719900D02*
X125587500Y-92898100D01*
X122959200Y-78091600D02*
X125587500Y-80719900D01*
X122959200Y-67067700D02*
X122959200Y-78091600D01*
X123444500Y-66582400D02*
X122959200Y-67067700D01*
X134939600Y-66582400D02*
X123444500Y-66582400D01*
X138556000Y-62966000D02*
X134939600Y-66582400D01*
X140888000Y-122282400D02*
X141414300Y-122282400D01*
X138377100Y-119771500D02*
X140888000Y-122282400D01*
X138377100Y-117682200D02*
X138377100Y-119771500D01*
X142137100Y-122282400D02*
X141414300Y-122282400D01*
X143271200Y-123416500D02*
X142137100Y-122282400D01*
X143271200Y-123802800D02*
X143271200Y-123416500D01*
X142741000Y-124333000D02*
X143271200Y-123802800D01*
X141964100Y-126524100D02*
X143448100Y-125040100D01*
X141964100Y-128544600D02*
X141964100Y-126524100D01*
X141208300Y-129300400D02*
X141964100Y-128544600D01*
X141195700Y-129300400D02*
X141208300Y-129300400D01*
X139287100Y-131209000D02*
X141195700Y-129300400D01*
X138520100Y-131209000D02*
X139287100Y-131209000D01*
X134413500Y-131096600D02*
X134340000Y-131170100D01*
X134413500Y-129781400D02*
X134413500Y-131096600D01*
X120930900Y-116298800D02*
X134413500Y-129781400D01*
X120930900Y-63812300D02*
X120930900Y-116298800D01*
X124267300Y-60475900D02*
X120930900Y-63812300D01*
G04 #@! TA.AperFunction,Conductor*
G36*
X165951012Y-116668670D02*
G01*
X165957595Y-116674799D01*
X169563043Y-120280247D01*
X169570587Y-120288537D01*
X169574700Y-120295018D01*
X169580477Y-120300443D01*
X169624367Y-120341658D01*
X169627209Y-120344413D01*
X169646930Y-120364134D01*
X169650125Y-120366612D01*
X169659147Y-120374318D01*
X169691379Y-120404586D01*
X169698328Y-120408406D01*
X169709132Y-120414346D01*
X169725656Y-120425199D01*
X169741659Y-120437613D01*
X169782243Y-120455176D01*
X169792873Y-120460383D01*
X169831640Y-120481695D01*
X169839317Y-120483666D01*
X169839322Y-120483668D01*
X169851258Y-120486732D01*
X169869966Y-120493137D01*
X169888555Y-120501181D01*
X169930673Y-120507852D01*
X169994824Y-120538265D01*
X170018393Y-120566466D01*
X170095987Y-120693088D01*
X170242250Y-120861938D01*
X170414126Y-121004632D01*
X170426403Y-121011806D01*
X170487445Y-121047476D01*
X170536169Y-121099114D01*
X170549240Y-121168897D01*
X170522509Y-121234669D01*
X170482055Y-121268027D01*
X170469607Y-121274507D01*
X170465474Y-121277610D01*
X170465471Y-121277612D01*
X170295100Y-121405530D01*
X170290965Y-121408635D01*
X170287393Y-121412373D01*
X170174798Y-121530197D01*
X170136629Y-121570138D01*
X170133715Y-121574410D01*
X170133714Y-121574411D01*
X170079315Y-121654157D01*
X170010743Y-121754680D01*
X169985080Y-121809967D01*
X169952308Y-121880569D01*
X169916688Y-121957305D01*
X169856989Y-122172570D01*
X169833251Y-122394695D01*
X169833548Y-122399848D01*
X169833548Y-122399851D01*
X169837197Y-122463131D01*
X169846110Y-122617715D01*
X169847247Y-122622761D01*
X169847248Y-122622767D01*
X169863484Y-122694807D01*
X169895222Y-122835639D01*
X169979266Y-123042616D01*
X170026285Y-123119344D01*
X170081600Y-123209610D01*
X170095987Y-123233088D01*
X170242250Y-123401938D01*
X170414126Y-123544632D01*
X170456967Y-123569666D01*
X170487445Y-123587476D01*
X170536169Y-123639114D01*
X170549240Y-123708897D01*
X170522509Y-123774669D01*
X170482055Y-123808027D01*
X170469607Y-123814507D01*
X170465474Y-123817610D01*
X170465471Y-123817612D01*
X170295100Y-123945530D01*
X170290965Y-123948635D01*
X170136629Y-124110138D01*
X170133715Y-124114410D01*
X170133714Y-124114411D01*
X170125672Y-124126200D01*
X170010743Y-124294680D01*
X169980307Y-124360249D01*
X169928758Y-124471303D01*
X169916688Y-124497305D01*
X169856989Y-124712570D01*
X169833251Y-124934695D01*
X169833548Y-124939848D01*
X169833548Y-124939851D01*
X169840928Y-125067836D01*
X169846110Y-125157715D01*
X169847247Y-125162761D01*
X169847248Y-125162767D01*
X169866862Y-125249797D01*
X169895222Y-125375639D01*
X169979266Y-125582616D01*
X170095987Y-125773088D01*
X170242250Y-125941938D01*
X170414126Y-126084632D01*
X170484595Y-126125811D01*
X170487445Y-126127476D01*
X170536169Y-126179114D01*
X170549240Y-126248897D01*
X170522509Y-126314669D01*
X170482055Y-126348027D01*
X170469607Y-126354507D01*
X170465474Y-126357610D01*
X170465471Y-126357612D01*
X170295100Y-126485530D01*
X170290965Y-126488635D01*
X170136629Y-126650138D01*
X170133715Y-126654410D01*
X170133714Y-126654411D01*
X170124412Y-126668047D01*
X170010743Y-126834680D01*
X169992862Y-126873201D01*
X169919913Y-127030358D01*
X169916688Y-127037305D01*
X169856989Y-127252570D01*
X169833251Y-127474695D01*
X169833548Y-127479848D01*
X169833548Y-127479851D01*
X169845084Y-127679927D01*
X169846110Y-127697715D01*
X169847247Y-127702761D01*
X169847248Y-127702767D01*
X169866648Y-127788847D01*
X169895222Y-127915639D01*
X169942329Y-128031651D01*
X169960121Y-128075466D01*
X169979266Y-128122616D01*
X170095987Y-128313088D01*
X170242250Y-128481938D01*
X170246230Y-128485242D01*
X170250981Y-128489187D01*
X170290616Y-128548090D01*
X170292113Y-128619071D01*
X170254997Y-128679593D01*
X170214724Y-128704112D01*
X170099295Y-128747385D01*
X169982739Y-128834739D01*
X169895385Y-128951295D01*
X169844255Y-129087684D01*
X169837500Y-129149866D01*
X169837500Y-130946134D01*
X169844255Y-131008316D01*
X169895385Y-131144705D01*
X169982739Y-131261261D01*
X170099295Y-131348615D01*
X170235684Y-131399745D01*
X170297866Y-131406500D01*
X171322806Y-131406500D01*
X171390927Y-131426502D01*
X171437420Y-131480158D01*
X171447524Y-131550432D01*
X171418030Y-131615012D01*
X171411902Y-131621594D01*
X168759577Y-134273918D01*
X166108847Y-136924648D01*
X166100561Y-136932188D01*
X166094082Y-136936300D01*
X166088657Y-136942077D01*
X166047457Y-136985951D01*
X166044702Y-136988793D01*
X166024965Y-137008530D01*
X166022485Y-137011727D01*
X166014782Y-137020747D01*
X165984514Y-137052979D01*
X165980695Y-137059925D01*
X165980693Y-137059928D01*
X165974752Y-137070734D01*
X165963901Y-137087253D01*
X165951486Y-137103259D01*
X165948341Y-137110528D01*
X165948338Y-137110532D01*
X165933926Y-137143837D01*
X165928709Y-137154487D01*
X165907405Y-137193240D01*
X165905434Y-137200915D01*
X165905434Y-137200916D01*
X165902367Y-137212862D01*
X165895963Y-137231566D01*
X165887919Y-137250155D01*
X165886680Y-137257978D01*
X165886677Y-137257988D01*
X165881001Y-137293824D01*
X165878595Y-137305444D01*
X165875041Y-137319288D01*
X165867600Y-137348270D01*
X165867600Y-137368524D01*
X165866049Y-137388234D01*
X165862880Y-137408243D01*
X165863626Y-137416135D01*
X165867041Y-137452261D01*
X165867600Y-137464119D01*
X165867600Y-140372815D01*
X165847598Y-140440936D01*
X165805740Y-140481267D01*
X165779959Y-140496514D01*
X165669014Y-140607459D01*
X165641407Y-140654140D01*
X165589516Y-140702591D01*
X165532955Y-140716000D01*
X165469245Y-140716000D01*
X165401124Y-140695998D01*
X165360793Y-140654140D01*
X165333186Y-140607459D01*
X165222241Y-140496514D01*
X165196460Y-140481267D01*
X165148009Y-140429376D01*
X165134600Y-140372815D01*
X165134600Y-138393968D01*
X165135127Y-138382785D01*
X165136802Y-138375292D01*
X165134662Y-138307201D01*
X165134600Y-138303244D01*
X165134600Y-138275344D01*
X165134096Y-138271353D01*
X165133163Y-138259511D01*
X165132126Y-138226493D01*
X165131774Y-138215311D01*
X165129562Y-138207697D01*
X165129561Y-138207692D01*
X165126123Y-138195859D01*
X165122112Y-138176495D01*
X165120567Y-138164264D01*
X165119574Y-138156403D01*
X165116657Y-138149036D01*
X165116656Y-138149031D01*
X165103298Y-138115292D01*
X165099454Y-138104065D01*
X165096181Y-138092800D01*
X165087118Y-138061607D01*
X165076807Y-138044172D01*
X165068112Y-138026424D01*
X165060652Y-138007583D01*
X165034664Y-137971813D01*
X165028148Y-137961893D01*
X165009680Y-137930665D01*
X165009678Y-137930662D01*
X165005642Y-137923838D01*
X164991321Y-137909517D01*
X164978480Y-137894483D01*
X164971232Y-137884507D01*
X164966572Y-137878093D01*
X164932501Y-137849907D01*
X164923722Y-137841918D01*
X164767622Y-137685818D01*
X164733596Y-137623506D01*
X164731407Y-137609893D01*
X164714732Y-137451235D01*
X164714732Y-137451233D01*
X164714042Y-137444672D01*
X164655027Y-137263044D01*
X164559540Y-137097656D01*
X164535300Y-137070734D01*
X164436175Y-136960645D01*
X164436174Y-136960644D01*
X164431753Y-136955734D01*
X164332657Y-136883736D01*
X164282594Y-136847363D01*
X164282593Y-136847362D01*
X164277252Y-136843482D01*
X164271224Y-136840798D01*
X164271222Y-136840797D01*
X164108819Y-136768491D01*
X164108818Y-136768491D01*
X164102788Y-136765806D01*
X164009388Y-136745953D01*
X163922444Y-136727472D01*
X163922439Y-136727472D01*
X163915987Y-136726100D01*
X163725013Y-136726100D01*
X163718561Y-136727472D01*
X163718556Y-136727472D01*
X163631612Y-136745953D01*
X163538212Y-136765806D01*
X163532182Y-136768491D01*
X163532181Y-136768491D01*
X163369778Y-136840797D01*
X163369776Y-136840798D01*
X163363748Y-136843482D01*
X163358407Y-136847362D01*
X163358406Y-136847363D01*
X163334661Y-136864615D01*
X163267793Y-136888473D01*
X163198642Y-136872393D01*
X163149162Y-136821479D01*
X163134600Y-136762679D01*
X163134600Y-136525068D01*
X163135127Y-136513885D01*
X163136802Y-136506392D01*
X163134662Y-136438301D01*
X163134600Y-136434344D01*
X163134600Y-136406444D01*
X163134096Y-136402453D01*
X163133163Y-136390611D01*
X163132786Y-136378595D01*
X163131774Y-136346411D01*
X163126121Y-136326952D01*
X163122112Y-136307593D01*
X163120991Y-136298719D01*
X163119574Y-136287503D01*
X163116658Y-136280137D01*
X163116656Y-136280131D01*
X163103300Y-136246398D01*
X163099455Y-136235168D01*
X163089330Y-136200317D01*
X163089330Y-136200316D01*
X163087119Y-136192707D01*
X163076805Y-136175266D01*
X163068108Y-136157513D01*
X163063572Y-136146058D01*
X163060652Y-136138683D01*
X163034663Y-136102912D01*
X163028147Y-136092992D01*
X163009678Y-136061763D01*
X163005642Y-136054938D01*
X162991321Y-136040617D01*
X162978480Y-136025583D01*
X162971232Y-136015607D01*
X162966572Y-136009193D01*
X162932501Y-135981007D01*
X162923722Y-135973018D01*
X162731822Y-135781118D01*
X162697796Y-135718806D01*
X162695607Y-135705193D01*
X162678932Y-135546535D01*
X162678932Y-135546533D01*
X162678242Y-135539972D01*
X162619227Y-135358344D01*
X162523740Y-135192956D01*
X162463156Y-135125670D01*
X162400375Y-135055945D01*
X162400374Y-135055944D01*
X162395953Y-135051034D01*
X162241452Y-134938782D01*
X162235424Y-134936098D01*
X162235422Y-134936097D01*
X162073019Y-134863791D01*
X162073018Y-134863791D01*
X162066988Y-134861106D01*
X162060527Y-134859733D01*
X162060522Y-134859731D01*
X161958746Y-134838097D01*
X161896272Y-134804369D01*
X161861951Y-134742219D01*
X161866679Y-134671380D01*
X161895848Y-134625756D01*
X162772499Y-133749105D01*
X162834811Y-133715079D01*
X162861594Y-133712200D01*
X164065100Y-133712200D01*
X164133221Y-133732202D01*
X164152447Y-133748543D01*
X164152720Y-133748240D01*
X164157632Y-133752663D01*
X164162047Y-133757566D01*
X164179783Y-133770452D01*
X164286480Y-133847972D01*
X164316548Y-133869818D01*
X164322576Y-133872502D01*
X164322578Y-133872503D01*
X164449617Y-133929064D01*
X164491012Y-133947494D01*
X164584412Y-133967347D01*
X164671356Y-133985828D01*
X164671361Y-133985828D01*
X164677813Y-133987200D01*
X164868787Y-133987200D01*
X164875239Y-133985828D01*
X164875244Y-133985828D01*
X164962188Y-133967347D01*
X165055588Y-133947494D01*
X165096983Y-133929064D01*
X165224022Y-133872503D01*
X165224024Y-133872502D01*
X165230052Y-133869818D01*
X165384553Y-133757566D01*
X165407391Y-133732202D01*
X165507921Y-133620552D01*
X165507922Y-133620551D01*
X165512340Y-133615644D01*
X165607827Y-133450256D01*
X165666842Y-133268628D01*
X165686804Y-133078700D01*
X165673802Y-132954995D01*
X165667532Y-132895335D01*
X165667532Y-132895333D01*
X165666842Y-132888772D01*
X165607827Y-132707144D01*
X165512340Y-132541756D01*
X165496181Y-132523809D01*
X165388975Y-132404745D01*
X165388974Y-132404744D01*
X165384553Y-132399834D01*
X165242204Y-132296411D01*
X165235394Y-132291463D01*
X165235393Y-132291462D01*
X165230052Y-132287582D01*
X165224024Y-132284898D01*
X165224022Y-132284897D01*
X165061619Y-132212591D01*
X165061618Y-132212591D01*
X165055588Y-132209906D01*
X164962187Y-132190053D01*
X164875244Y-132171572D01*
X164875239Y-132171572D01*
X164868787Y-132170200D01*
X164677813Y-132170200D01*
X164671361Y-132171572D01*
X164671356Y-132171572D01*
X164584413Y-132190053D01*
X164491012Y-132209906D01*
X164484982Y-132212591D01*
X164484981Y-132212591D01*
X164322578Y-132284897D01*
X164322576Y-132284898D01*
X164316548Y-132287582D01*
X164311207Y-132291462D01*
X164311206Y-132291463D01*
X164254497Y-132332665D01*
X164162047Y-132399834D01*
X164157632Y-132404737D01*
X164152720Y-132409160D01*
X164151595Y-132407911D01*
X164098286Y-132440751D01*
X164065100Y-132445200D01*
X162625767Y-132445200D01*
X162614584Y-132444673D01*
X162607091Y-132442998D01*
X162599165Y-132443247D01*
X162599164Y-132443247D01*
X162539014Y-132445138D01*
X162535055Y-132445200D01*
X162507144Y-132445200D01*
X162503210Y-132445697D01*
X162503209Y-132445697D01*
X162503144Y-132445705D01*
X162491307Y-132446638D01*
X162459490Y-132447638D01*
X162455029Y-132447778D01*
X162447110Y-132448027D01*
X162429454Y-132453156D01*
X162427658Y-132453678D01*
X162408306Y-132457686D01*
X162401235Y-132458580D01*
X162388203Y-132460226D01*
X162380834Y-132463143D01*
X162380832Y-132463144D01*
X162347097Y-132476500D01*
X162335869Y-132480345D01*
X162293407Y-132492682D01*
X162286585Y-132496716D01*
X162286579Y-132496719D01*
X162275968Y-132502994D01*
X162258218Y-132511690D01*
X162246756Y-132516228D01*
X162246751Y-132516231D01*
X162239383Y-132519148D01*
X162232968Y-132523809D01*
X162203625Y-132545127D01*
X162193707Y-132551643D01*
X162175019Y-132562695D01*
X162155637Y-132574158D01*
X162141313Y-132588482D01*
X162126281Y-132601321D01*
X162109893Y-132613228D01*
X162081712Y-132647293D01*
X162073722Y-132656073D01*
X157582400Y-137147395D01*
X157520088Y-137181421D01*
X157493305Y-137184300D01*
X157437413Y-137184300D01*
X157430961Y-137185672D01*
X157430956Y-137185672D01*
X157359241Y-137200916D01*
X157250612Y-137224006D01*
X157244582Y-137226691D01*
X157244581Y-137226691D01*
X157082178Y-137298997D01*
X157082176Y-137298998D01*
X157076148Y-137301682D01*
X157070807Y-137305562D01*
X157070806Y-137305563D01*
X157037165Y-137330005D01*
X156921647Y-137413934D01*
X156919964Y-137411617D01*
X156867237Y-137436882D01*
X156796789Y-137428075D01*
X156757915Y-137401611D01*
X156288942Y-136932637D01*
X155771805Y-136415500D01*
X155737779Y-136353188D01*
X155734900Y-136326405D01*
X155734900Y-132615118D01*
X155754902Y-132546997D01*
X155808558Y-132500504D01*
X155878832Y-132490400D01*
X155916799Y-132504587D01*
X155917726Y-132502732D01*
X156069291Y-132578466D01*
X156082965Y-132583416D01*
X156240764Y-132620571D01*
X156255209Y-132622243D01*
X156417325Y-132622102D01*
X156431761Y-132620406D01*
X156589499Y-132582973D01*
X156603163Y-132578000D01*
X156748449Y-132505088D01*
X156759932Y-132497659D01*
X156833482Y-132437779D01*
X156838256Y-132433469D01*
X156917826Y-132353898D01*
X156925436Y-132339962D01*
X156925305Y-132338125D01*
X156921053Y-132331509D01*
X155968262Y-131378718D01*
X155934236Y-131316406D01*
X155939301Y-131245591D01*
X155968262Y-131200528D01*
X156149282Y-131019508D01*
X156211594Y-130985482D01*
X156282409Y-130990547D01*
X156327472Y-131019508D01*
X157277032Y-131969068D01*
X157290976Y-131976682D01*
X157292809Y-131976551D01*
X157299424Y-131972300D01*
X157382196Y-131889528D01*
X157386545Y-131884705D01*
X157447144Y-131810075D01*
X157454566Y-131798564D01*
X157527220Y-131653163D01*
X157532170Y-131639489D01*
X157569325Y-131481690D01*
X157570997Y-131467245D01*
X157570856Y-131305130D01*
X157569529Y-131293832D01*
X157581446Y-131223842D01*
X157629310Y-131171407D01*
X157697925Y-131153172D01*
X157708281Y-131153904D01*
X157715077Y-131155504D01*
X157722393Y-131155498D01*
X157722396Y-131155498D01*
X157803703Y-131155427D01*
X157891947Y-131155350D01*
X158021293Y-131124655D01*
X158056918Y-131116201D01*
X158056919Y-131116201D01*
X158064039Y-131114511D01*
X158197292Y-131047637D01*
X158215970Y-131038263D01*
X158222119Y-131035177D01*
X158240232Y-131020431D01*
X158301058Y-130970911D01*
X158301064Y-130970905D01*
X158303552Y-130968880D01*
X158779627Y-130492805D01*
X158841939Y-130458779D01*
X158868722Y-130455900D01*
X167211265Y-130455900D01*
X167279386Y-130475902D01*
X167304900Y-130497589D01*
X167389247Y-130591266D01*
X167476502Y-130654661D01*
X167531361Y-130694518D01*
X167543748Y-130703518D01*
X167549776Y-130706202D01*
X167549778Y-130706203D01*
X167697436Y-130771944D01*
X167718212Y-130781194D01*
X167811612Y-130801047D01*
X167898556Y-130819528D01*
X167898561Y-130819528D01*
X167905013Y-130820900D01*
X168095987Y-130820900D01*
X168102439Y-130819528D01*
X168102444Y-130819528D01*
X168189388Y-130801047D01*
X168282788Y-130781194D01*
X168303564Y-130771944D01*
X168451222Y-130706203D01*
X168451224Y-130706202D01*
X168457252Y-130703518D01*
X168469640Y-130694518D01*
X168524498Y-130654661D01*
X168611753Y-130591266D01*
X168665263Y-130531837D01*
X168735121Y-130454252D01*
X168735122Y-130454251D01*
X168739540Y-130449344D01*
X168804939Y-130336070D01*
X168831723Y-130289679D01*
X168831724Y-130289678D01*
X168835027Y-130283956D01*
X168894042Y-130102328D01*
X168909077Y-129959283D01*
X168913314Y-129918965D01*
X168914004Y-129912400D01*
X168899914Y-129778338D01*
X168894732Y-129729035D01*
X168894732Y-129729033D01*
X168894042Y-129722472D01*
X168835027Y-129540844D01*
X168739540Y-129375456D01*
X168683449Y-129313160D01*
X168616175Y-129238445D01*
X168616174Y-129238444D01*
X168611753Y-129233534D01*
X168491919Y-129146469D01*
X168462594Y-129125163D01*
X168462593Y-129125162D01*
X168457252Y-129121282D01*
X168451224Y-129118598D01*
X168451222Y-129118597D01*
X168288819Y-129046291D01*
X168288818Y-129046291D01*
X168282788Y-129043606D01*
X168189388Y-129023753D01*
X168102444Y-129005272D01*
X168102439Y-129005272D01*
X168095987Y-129003900D01*
X167905013Y-129003900D01*
X167898561Y-129005272D01*
X167898556Y-129005272D01*
X167811612Y-129023753D01*
X167718212Y-129043606D01*
X167712182Y-129046291D01*
X167712181Y-129046291D01*
X167549778Y-129118597D01*
X167549776Y-129118598D01*
X167543748Y-129121282D01*
X167538407Y-129125162D01*
X167538406Y-129125163D01*
X167483801Y-129164836D01*
X167409740Y-129188900D01*
X158674314Y-129188900D01*
X158606193Y-129168898D01*
X158585219Y-129151995D01*
X158109098Y-128675874D01*
X158026550Y-128608846D01*
X157868331Y-128529789D01*
X157769839Y-128506597D01*
X157703292Y-128490927D01*
X157703290Y-128490927D01*
X157696169Y-128489250D01*
X157688853Y-128489256D01*
X157688850Y-128489256D01*
X157607543Y-128489327D01*
X157519299Y-128489404D01*
X157446849Y-128506597D01*
X157354328Y-128528553D01*
X157354327Y-128528553D01*
X157347207Y-128530243D01*
X157189127Y-128609577D01*
X157183794Y-128613919D01*
X157183792Y-128613920D01*
X157110188Y-128673843D01*
X157110182Y-128673849D01*
X157107694Y-128675874D01*
X156559120Y-129224448D01*
X156557066Y-129226978D01*
X156557062Y-129226982D01*
X156496438Y-129301642D01*
X156496436Y-129301646D01*
X156492092Y-129306995D01*
X156489014Y-129313156D01*
X156489011Y-129313160D01*
X156426475Y-129438317D01*
X156413035Y-129465215D01*
X156411359Y-129472334D01*
X156376022Y-129622404D01*
X156372496Y-129637377D01*
X156372502Y-129644693D01*
X156372502Y-129644696D01*
X156372520Y-129665048D01*
X156372650Y-129814247D01*
X156373881Y-129819433D01*
X156362099Y-129888615D01*
X156314234Y-129941050D01*
X156245618Y-129959283D01*
X156234397Y-129958490D01*
X156221547Y-129957003D01*
X156059429Y-129957144D01*
X156044993Y-129958840D01*
X155889994Y-129995623D01*
X155819095Y-129991891D01*
X155761469Y-129950420D01*
X155735412Y-129884378D01*
X155734900Y-129873028D01*
X155734900Y-126788794D01*
X155754902Y-126720673D01*
X155808558Y-126674180D01*
X155878832Y-126664076D01*
X155943412Y-126693570D01*
X155949995Y-126699699D01*
X157039143Y-127788847D01*
X157046687Y-127797137D01*
X157050800Y-127803618D01*
X157056577Y-127809043D01*
X157100467Y-127850258D01*
X157103309Y-127853013D01*
X157123030Y-127872734D01*
X157126225Y-127875212D01*
X157135247Y-127882918D01*
X157167479Y-127913186D01*
X157174428Y-127917006D01*
X157185232Y-127922946D01*
X157201756Y-127933799D01*
X157217759Y-127946213D01*
X157258343Y-127963776D01*
X157268973Y-127968983D01*
X157307740Y-127990295D01*
X157315417Y-127992266D01*
X157315422Y-127992268D01*
X157327358Y-127995332D01*
X157346066Y-128001737D01*
X157364655Y-128009781D01*
X157372483Y-128011021D01*
X157372490Y-128011023D01*
X157408324Y-128016699D01*
X157419944Y-128019105D01*
X157455089Y-128028128D01*
X157462770Y-128030100D01*
X157483024Y-128030100D01*
X157502734Y-128031651D01*
X157522743Y-128034820D01*
X157530635Y-128034074D01*
X157566761Y-128030659D01*
X157578619Y-128030100D01*
X167598500Y-128030100D01*
X167666621Y-128050102D01*
X167685847Y-128066443D01*
X167686120Y-128066140D01*
X167691032Y-128070563D01*
X167695447Y-128075466D01*
X167849948Y-128187718D01*
X167855976Y-128190402D01*
X167855978Y-128190403D01*
X168018381Y-128262709D01*
X168024412Y-128265394D01*
X168103459Y-128282196D01*
X168204756Y-128303728D01*
X168204761Y-128303728D01*
X168211213Y-128305100D01*
X168402187Y-128305100D01*
X168408639Y-128303728D01*
X168408644Y-128303728D01*
X168509941Y-128282196D01*
X168588988Y-128265394D01*
X168595019Y-128262709D01*
X168757422Y-128190403D01*
X168757424Y-128190402D01*
X168763452Y-128187718D01*
X168917953Y-128075466D01*
X168954551Y-128034820D01*
X169041321Y-127938452D01*
X169041322Y-127938451D01*
X169045740Y-127933544D01*
X169120753Y-127803618D01*
X169137923Y-127773879D01*
X169137924Y-127773878D01*
X169141227Y-127768156D01*
X169200242Y-127586528D01*
X169212536Y-127469562D01*
X169219514Y-127403165D01*
X169220204Y-127396600D01*
X169205066Y-127252570D01*
X169200932Y-127213235D01*
X169200932Y-127213233D01*
X169200242Y-127206672D01*
X169141227Y-127025044D01*
X169045740Y-126859656D01*
X168976414Y-126782661D01*
X168922375Y-126722645D01*
X168922374Y-126722644D01*
X168917953Y-126717734D01*
X168763452Y-126605482D01*
X168765010Y-126603338D01*
X168724163Y-126560517D01*
X168710712Y-126490806D01*
X168737085Y-126424889D01*
X168742499Y-126418456D01*
X168810940Y-126342444D01*
X168877781Y-126226672D01*
X168903123Y-126182779D01*
X168903124Y-126182778D01*
X168906427Y-126177056D01*
X168965442Y-125995428D01*
X168976333Y-125891811D01*
X168984714Y-125812065D01*
X168985404Y-125805500D01*
X168984115Y-125793234D01*
X168966132Y-125622135D01*
X168966132Y-125622133D01*
X168965442Y-125615572D01*
X168906427Y-125433944D01*
X168810940Y-125268556D01*
X168799962Y-125256363D01*
X168748327Y-125199017D01*
X168717609Y-125135010D01*
X168726374Y-125064556D01*
X168771837Y-125010025D01*
X168801135Y-124995792D01*
X168804888Y-124994994D01*
X168810919Y-124992309D01*
X168973322Y-124920003D01*
X168973324Y-124920002D01*
X168979352Y-124917318D01*
X169133853Y-124805066D01*
X169157507Y-124778796D01*
X169257221Y-124668052D01*
X169257222Y-124668051D01*
X169261640Y-124663144D01*
X169357127Y-124497756D01*
X169416142Y-124316128D01*
X169426314Y-124219352D01*
X169435414Y-124132765D01*
X169436104Y-124126200D01*
X169428842Y-124057109D01*
X169416832Y-123942835D01*
X169416832Y-123942833D01*
X169416142Y-123936272D01*
X169357127Y-123754644D01*
X169338374Y-123722162D01*
X169291528Y-123641024D01*
X169261640Y-123589256D01*
X169224598Y-123548116D01*
X169138275Y-123452245D01*
X169138274Y-123452244D01*
X169133853Y-123447334D01*
X169022859Y-123366692D01*
X168984694Y-123338963D01*
X168984693Y-123338962D01*
X168979352Y-123335082D01*
X168973324Y-123332398D01*
X168973322Y-123332397D01*
X168810919Y-123260091D01*
X168810918Y-123260091D01*
X168804888Y-123257406D01*
X168708839Y-123236990D01*
X168624544Y-123219072D01*
X168624539Y-123219072D01*
X168618087Y-123217700D01*
X168427113Y-123217700D01*
X168420661Y-123219072D01*
X168420656Y-123219072D01*
X168287653Y-123247343D01*
X168216862Y-123241941D01*
X168160229Y-123199124D01*
X168141623Y-123163034D01*
X168129467Y-123125623D01*
X168127427Y-123119344D01*
X168031940Y-122953956D01*
X167979222Y-122895406D01*
X167908575Y-122816945D01*
X167908574Y-122816944D01*
X167904153Y-122812034D01*
X167749652Y-122699782D01*
X167743624Y-122697098D01*
X167743622Y-122697097D01*
X167581219Y-122624791D01*
X167581218Y-122624791D01*
X167575188Y-122622106D01*
X167476302Y-122601087D01*
X167394844Y-122583772D01*
X167394839Y-122583772D01*
X167388387Y-122582400D01*
X167197413Y-122582400D01*
X167190961Y-122583772D01*
X167190956Y-122583772D01*
X167109498Y-122601087D01*
X167010612Y-122622106D01*
X167004582Y-122624791D01*
X167004581Y-122624791D01*
X166842178Y-122697097D01*
X166842176Y-122697098D01*
X166836148Y-122699782D01*
X166681647Y-122812034D01*
X166677232Y-122816937D01*
X166672320Y-122821360D01*
X166671195Y-122820111D01*
X166617886Y-122852951D01*
X166584700Y-122857400D01*
X162343594Y-122857400D01*
X162275473Y-122837398D01*
X162254499Y-122820495D01*
X157970222Y-118536217D01*
X157936196Y-118473905D01*
X157934007Y-118460292D01*
X157917332Y-118301635D01*
X157917332Y-118301633D01*
X157916642Y-118295072D01*
X157857627Y-118113444D01*
X157847741Y-118096320D01*
X157765441Y-117953774D01*
X157762140Y-117948056D01*
X157715578Y-117896343D01*
X157638775Y-117811045D01*
X157638774Y-117811044D01*
X157634353Y-117806134D01*
X157628127Y-117801610D01*
X157502284Y-117710180D01*
X157490249Y-117701436D01*
X157446895Y-117645214D01*
X157440820Y-117574477D01*
X157473952Y-117511686D01*
X157535772Y-117476774D01*
X157564310Y-117473500D01*
X162299500Y-117473500D01*
X162367621Y-117493502D01*
X162414114Y-117547158D01*
X162425500Y-117599500D01*
X162425500Y-117638134D01*
X162432255Y-117700316D01*
X162483385Y-117836705D01*
X162570739Y-117953261D01*
X162687295Y-118040615D01*
X162823684Y-118091745D01*
X162885866Y-118098500D01*
X163982134Y-118098500D01*
X164044316Y-118091745D01*
X164051715Y-118088971D01*
X164054854Y-118088225D01*
X164113146Y-118088225D01*
X164116285Y-118088971D01*
X164123684Y-118091745D01*
X164185866Y-118098500D01*
X165282134Y-118098500D01*
X165344316Y-118091745D01*
X165480705Y-118040615D01*
X165597261Y-117953261D01*
X165684615Y-117836705D01*
X165735745Y-117700316D01*
X165742500Y-117638134D01*
X165742500Y-116763894D01*
X165762502Y-116695773D01*
X165816158Y-116649280D01*
X165886432Y-116639176D01*
X165951012Y-116668670D01*
G37*
G04 #@! TD.AperFunction*
G04 #@! TA.AperFunction,Conductor*
G36*
X121911441Y-118747385D02*
G01*
X121917121Y-118752725D01*
X132540401Y-129376005D01*
X132574427Y-129438317D01*
X132569362Y-129509132D01*
X132526815Y-129565968D01*
X132460295Y-129590779D01*
X132451306Y-129591100D01*
X130970367Y-129591100D01*
X130959184Y-129590573D01*
X130951691Y-129588898D01*
X130943765Y-129589147D01*
X130943764Y-129589147D01*
X130883614Y-129591038D01*
X130879655Y-129591100D01*
X130851744Y-129591100D01*
X130847810Y-129591597D01*
X130847809Y-129591597D01*
X130847744Y-129591605D01*
X130835907Y-129592538D01*
X130803649Y-129593552D01*
X130799630Y-129593678D01*
X130791711Y-129593927D01*
X130772257Y-129599579D01*
X130752900Y-129603587D01*
X130740670Y-129605132D01*
X130740669Y-129605132D01*
X130732803Y-129606126D01*
X130725432Y-129609045D01*
X130725430Y-129609045D01*
X130691688Y-129622404D01*
X130680458Y-129626249D01*
X130645617Y-129636371D01*
X130645616Y-129636371D01*
X130638007Y-129638582D01*
X130631188Y-129642615D01*
X130631183Y-129642617D01*
X130620572Y-129648893D01*
X130602824Y-129657588D01*
X130583983Y-129665048D01*
X130577567Y-129669710D01*
X130577566Y-129669710D01*
X130548213Y-129691036D01*
X130538293Y-129697552D01*
X130507065Y-129716020D01*
X130507062Y-129716022D01*
X130500238Y-129720058D01*
X130485917Y-129734379D01*
X130470884Y-129747219D01*
X130454493Y-129759128D01*
X130449442Y-129765234D01*
X130426302Y-129793205D01*
X130418312Y-129801984D01*
X127923884Y-132296411D01*
X127861572Y-132330437D01*
X127790756Y-132325372D01*
X127756699Y-132306199D01*
X127678601Y-132244521D01*
X127646415Y-132219101D01*
X127646413Y-132219100D01*
X127642359Y-132215898D01*
X127636369Y-132212591D01*
X127540871Y-132159874D01*
X127446789Y-132107938D01*
X127441920Y-132106214D01*
X127441916Y-132106212D01*
X127241087Y-132035095D01*
X127241083Y-132035094D01*
X127236212Y-132033369D01*
X127231119Y-132032462D01*
X127231116Y-132032461D01*
X127021373Y-131995100D01*
X127021367Y-131995099D01*
X127016284Y-131994194D01*
X126942452Y-131993292D01*
X126798081Y-131991528D01*
X126798079Y-131991528D01*
X126792911Y-131991465D01*
X126572091Y-132025255D01*
X126359756Y-132094657D01*
X126331354Y-132109442D01*
X126234476Y-132159874D01*
X126161607Y-132197807D01*
X126157474Y-132200910D01*
X126157471Y-132200912D01*
X125991706Y-132325372D01*
X125982965Y-132331935D01*
X125926537Y-132390984D01*
X125902283Y-132416364D01*
X125840759Y-132451794D01*
X125769846Y-132448337D01*
X125712060Y-132407091D01*
X125693207Y-132373543D01*
X125651767Y-132263003D01*
X125648615Y-132254595D01*
X125561261Y-132138039D01*
X125444705Y-132050685D01*
X125308316Y-131999555D01*
X125246134Y-131992800D01*
X123449866Y-131992800D01*
X123387684Y-131999555D01*
X123251295Y-132050685D01*
X123134739Y-132138039D01*
X123047385Y-132254595D01*
X122996255Y-132390984D01*
X122989500Y-132453166D01*
X122989500Y-134249434D01*
X122996255Y-134311616D01*
X123047385Y-134448005D01*
X123134739Y-134564561D01*
X123251295Y-134651915D01*
X123387684Y-134703045D01*
X123449866Y-134709800D01*
X123513500Y-134709800D01*
X123581621Y-134729802D01*
X123628114Y-134783458D01*
X123639500Y-134835800D01*
X123639500Y-135016188D01*
X123639208Y-135024758D01*
X123635275Y-135082452D01*
X123636580Y-135089929D01*
X123636580Y-135089930D01*
X123646261Y-135145399D01*
X123647223Y-135151921D01*
X123654898Y-135215342D01*
X123657581Y-135222443D01*
X123658222Y-135225052D01*
X123662685Y-135241362D01*
X123663450Y-135243898D01*
X123664757Y-135251384D01*
X123667811Y-135258341D01*
X123690442Y-135309895D01*
X123692933Y-135315999D01*
X123698427Y-135330539D01*
X123711309Y-135364629D01*
X123715513Y-135375756D01*
X123719817Y-135382019D01*
X123721054Y-135384385D01*
X123729299Y-135399197D01*
X123730632Y-135401451D01*
X123733685Y-135408405D01*
X123738307Y-135414428D01*
X123772579Y-135459091D01*
X123776459Y-135464432D01*
X123808339Y-135510820D01*
X123808344Y-135510825D01*
X123812643Y-135517081D01*
X123818313Y-135522132D01*
X123818314Y-135522134D01*
X123859161Y-135558527D01*
X123864438Y-135563508D01*
X124680536Y-136379607D01*
X124714561Y-136441919D01*
X124716750Y-136455532D01*
X124721658Y-136502228D01*
X124723698Y-136508505D01*
X124723698Y-136508507D01*
X124744080Y-136571234D01*
X124780673Y-136683856D01*
X124876160Y-136849244D01*
X125003947Y-136991166D01*
X125081071Y-137047200D01*
X125125414Y-137079417D01*
X125158448Y-137103418D01*
X125164476Y-137106102D01*
X125164478Y-137106103D01*
X125174426Y-137110532D01*
X125332912Y-137181094D01*
X125426167Y-137200916D01*
X125513256Y-137219428D01*
X125513261Y-137219428D01*
X125519713Y-137220800D01*
X125710687Y-137220800D01*
X125717139Y-137219428D01*
X125717144Y-137219428D01*
X125804233Y-137200916D01*
X125897488Y-137181094D01*
X126055974Y-137110532D01*
X126065922Y-137106103D01*
X126065924Y-137106102D01*
X126071952Y-137103418D01*
X126104987Y-137079417D01*
X126149329Y-137047200D01*
X126226453Y-136991166D01*
X126354240Y-136849244D01*
X126449727Y-136683856D01*
X126508742Y-136502228D01*
X126520952Y-136386061D01*
X126528014Y-136318865D01*
X126528704Y-136312300D01*
X126523752Y-136265186D01*
X126509432Y-136128935D01*
X126509432Y-136128933D01*
X126508742Y-136122372D01*
X126449727Y-135940744D01*
X126354240Y-135775356D01*
X126345360Y-135765493D01*
X126230875Y-135638345D01*
X126230874Y-135638344D01*
X126226453Y-135633434D01*
X126089173Y-135533694D01*
X126077294Y-135525063D01*
X126077293Y-135525062D01*
X126071952Y-135521182D01*
X126065924Y-135518498D01*
X126065922Y-135518497D01*
X125903519Y-135446191D01*
X125903518Y-135446191D01*
X125897488Y-135443506D01*
X125744631Y-135411015D01*
X125681733Y-135376863D01*
X125223307Y-134918437D01*
X125189281Y-134856125D01*
X125194346Y-134785310D01*
X125236893Y-134728474D01*
X125292936Y-134706389D01*
X125292778Y-134705725D01*
X125297424Y-134704620D01*
X125298797Y-134704079D01*
X125308316Y-134703045D01*
X125444705Y-134651915D01*
X125561261Y-134564561D01*
X125648615Y-134448005D01*
X125670799Y-134388829D01*
X125692598Y-134330682D01*
X125735240Y-134273918D01*
X125801802Y-134249218D01*
X125871150Y-134264426D01*
X125905817Y-134292414D01*
X125934250Y-134325238D01*
X126106126Y-134467932D01*
X126299000Y-134580638D01*
X126507692Y-134660330D01*
X126512760Y-134661361D01*
X126512763Y-134661362D01*
X126607862Y-134680710D01*
X126726597Y-134704867D01*
X126731772Y-134705057D01*
X126731774Y-134705057D01*
X126944673Y-134712864D01*
X126944677Y-134712864D01*
X126949837Y-134713053D01*
X126954957Y-134712397D01*
X126954959Y-134712397D01*
X127166288Y-134685325D01*
X127166289Y-134685325D01*
X127171416Y-134684668D01*
X127176366Y-134683183D01*
X127380429Y-134621961D01*
X127380434Y-134621959D01*
X127385384Y-134620474D01*
X127585994Y-134522196D01*
X127767860Y-134392473D01*
X127926096Y-134234789D01*
X128003495Y-134127077D01*
X128056453Y-134053377D01*
X128057640Y-134054230D01*
X128104960Y-134010662D01*
X128174897Y-133998445D01*
X128240338Y-134025978D01*
X128268166Y-134057811D01*
X128325694Y-134151688D01*
X128331777Y-134159999D01*
X128471213Y-134320967D01*
X128478580Y-134328183D01*
X128642434Y-134464216D01*
X128650881Y-134470131D01*
X128834756Y-134577579D01*
X128844042Y-134582029D01*
X129043001Y-134658003D01*
X129052899Y-134660879D01*
X129156250Y-134681906D01*
X129170299Y-134680710D01*
X129174000Y-134670365D01*
X129174000Y-134669817D01*
X129682000Y-134669817D01*
X129686064Y-134683659D01*
X129699478Y-134685693D01*
X129706184Y-134684834D01*
X129716262Y-134682692D01*
X129920255Y-134621491D01*
X129929842Y-134617733D01*
X130121095Y-134524039D01*
X130129945Y-134518764D01*
X130303328Y-134395092D01*
X130311200Y-134388439D01*
X130462052Y-134238112D01*
X130468730Y-134230265D01*
X130593003Y-134057320D01*
X130598313Y-134048483D01*
X130692670Y-133857567D01*
X130696469Y-133847972D01*
X130758377Y-133644210D01*
X130760555Y-133634137D01*
X130761986Y-133623262D01*
X130759775Y-133609078D01*
X130746617Y-133605300D01*
X129700115Y-133605300D01*
X129684876Y-133609775D01*
X129683671Y-133611165D01*
X129682000Y-133618848D01*
X129682000Y-134669817D01*
X129174000Y-134669817D01*
X129174000Y-133223300D01*
X129194002Y-133155179D01*
X129247658Y-133108686D01*
X129300000Y-133097300D01*
X130746344Y-133097300D01*
X130759875Y-133093327D01*
X130761180Y-133084247D01*
X130719214Y-132917175D01*
X130715894Y-132907424D01*
X130630972Y-132712114D01*
X130626105Y-132703039D01*
X130510426Y-132524226D01*
X130504136Y-132516057D01*
X130360806Y-132358540D01*
X130353273Y-132351515D01*
X130186139Y-132219522D01*
X130177552Y-132213817D01*
X130079835Y-132159874D01*
X130029865Y-132109442D01*
X130015093Y-132039999D01*
X130040209Y-131973594D01*
X130051634Y-131960471D01*
X131117100Y-130895005D01*
X131179412Y-130860979D01*
X131206195Y-130858100D01*
X131586570Y-130858100D01*
X131654691Y-130878102D01*
X131701184Y-130931758D01*
X131711880Y-130997269D01*
X131705896Y-131054200D01*
X131706586Y-131060765D01*
X131721276Y-131200528D01*
X131725858Y-131244128D01*
X131784873Y-131425756D01*
X131788176Y-131431478D01*
X131788177Y-131431479D01*
X131850719Y-131539804D01*
X131867600Y-131602804D01*
X131867600Y-140372815D01*
X131847598Y-140440936D01*
X131805740Y-140481267D01*
X131779959Y-140496514D01*
X131669014Y-140607459D01*
X131641407Y-140654140D01*
X131589516Y-140702591D01*
X131532955Y-140716000D01*
X131469245Y-140716000D01*
X131401124Y-140695998D01*
X131360793Y-140654140D01*
X131333186Y-140607459D01*
X131222241Y-140496514D01*
X131215417Y-140492478D01*
X131162648Y-140461271D01*
X131114195Y-140409378D01*
X131109634Y-140399197D01*
X131103295Y-140383185D01*
X131099451Y-140371958D01*
X131089329Y-140337117D01*
X131089329Y-140337116D01*
X131087118Y-140329507D01*
X131083085Y-140322688D01*
X131083083Y-140322683D01*
X131076807Y-140312072D01*
X131068112Y-140294324D01*
X131060652Y-140275483D01*
X131034664Y-140239713D01*
X131028148Y-140229793D01*
X131009680Y-140198565D01*
X131009678Y-140198562D01*
X131005642Y-140191738D01*
X130991321Y-140177417D01*
X130978480Y-140162383D01*
X130971231Y-140152406D01*
X130966572Y-140145993D01*
X130932495Y-140117802D01*
X130923716Y-140109812D01*
X128725022Y-137911117D01*
X128717482Y-137902831D01*
X128713370Y-137896352D01*
X128663718Y-137849726D01*
X128660877Y-137846972D01*
X128641140Y-137827235D01*
X128637943Y-137824755D01*
X128628921Y-137817050D01*
X128602470Y-137792211D01*
X128596691Y-137786784D01*
X128589741Y-137782963D01*
X128585417Y-137780585D01*
X128552487Y-137754484D01*
X128549255Y-137750894D01*
X128435453Y-137624504D01*
X128280952Y-137512252D01*
X128274924Y-137509568D01*
X128274922Y-137509567D01*
X128112519Y-137437261D01*
X128112518Y-137437261D01*
X128106488Y-137434576D01*
X127982602Y-137408243D01*
X127926144Y-137396242D01*
X127926139Y-137396242D01*
X127919687Y-137394870D01*
X127728713Y-137394870D01*
X127722261Y-137396242D01*
X127722256Y-137396242D01*
X127665798Y-137408243D01*
X127541912Y-137434576D01*
X127535882Y-137437261D01*
X127535881Y-137437261D01*
X127373478Y-137509567D01*
X127373476Y-137509568D01*
X127367448Y-137512252D01*
X127212947Y-137624504D01*
X127208529Y-137629411D01*
X127208525Y-137629415D01*
X127095913Y-137754484D01*
X127085160Y-137766426D01*
X126989673Y-137931814D01*
X126930658Y-138113442D01*
X126929968Y-138120003D01*
X126929968Y-138120005D01*
X126926143Y-138156403D01*
X126910696Y-138303370D01*
X126911386Y-138309935D01*
X126929678Y-138483971D01*
X126930658Y-138493298D01*
X126958052Y-138577605D01*
X126967170Y-138605668D01*
X126969198Y-138676636D01*
X126932535Y-138737434D01*
X126868823Y-138768760D01*
X126800486Y-138760260D01*
X126800300Y-138760832D01*
X126797335Y-138759869D01*
X126796092Y-138759714D01*
X126794019Y-138758791D01*
X126794018Y-138758791D01*
X126787988Y-138756106D01*
X126673718Y-138731817D01*
X126607644Y-138717772D01*
X126607639Y-138717772D01*
X126601187Y-138716400D01*
X126410213Y-138716400D01*
X126403761Y-138717772D01*
X126403756Y-138717772D01*
X126337682Y-138731817D01*
X126223412Y-138756106D01*
X126217382Y-138758791D01*
X126217381Y-138758791D01*
X126054978Y-138831097D01*
X126054976Y-138831098D01*
X126048948Y-138833782D01*
X126043607Y-138837662D01*
X126043606Y-138837663D01*
X126037355Y-138842205D01*
X125894447Y-138946034D01*
X125890026Y-138950944D01*
X125890025Y-138950945D01*
X125861851Y-138982236D01*
X125766660Y-139087956D01*
X125671173Y-139253344D01*
X125612158Y-139434972D01*
X125611468Y-139441533D01*
X125611468Y-139441535D01*
X125594770Y-139600411D01*
X125592196Y-139624900D01*
X125592886Y-139631465D01*
X125604983Y-139746558D01*
X125612158Y-139814828D01*
X125671173Y-139996456D01*
X125674476Y-140002178D01*
X125674477Y-140002179D01*
X125716071Y-140074222D01*
X125766660Y-140161844D01*
X125768880Y-140164310D01*
X125792600Y-140237313D01*
X125792600Y-140431683D01*
X125772598Y-140499804D01*
X125755695Y-140520778D01*
X125669014Y-140607459D01*
X125641407Y-140654140D01*
X125589516Y-140702591D01*
X125532955Y-140716000D01*
X125468666Y-140716000D01*
X125400545Y-140695998D01*
X125360213Y-140654140D01*
X125336824Y-140614591D01*
X125327182Y-140602162D01*
X125227538Y-140502518D01*
X125215111Y-140492878D01*
X125093812Y-140421142D01*
X125079376Y-140414895D01*
X124942616Y-140375162D01*
X124930029Y-140372864D01*
X124903725Y-140370793D01*
X124898798Y-140370600D01*
X124773215Y-140370600D01*
X124757976Y-140375075D01*
X124756771Y-140376465D01*
X124755100Y-140384148D01*
X124755100Y-140716000D01*
X124247100Y-140716000D01*
X124247100Y-140388715D01*
X124242625Y-140373476D01*
X124241235Y-140372271D01*
X124233552Y-140370600D01*
X124103402Y-140370600D01*
X124098475Y-140370793D01*
X124072171Y-140372864D01*
X124059584Y-140375162D01*
X123922824Y-140414895D01*
X123908388Y-140421142D01*
X123787089Y-140492878D01*
X123774662Y-140502518D01*
X123675018Y-140602162D01*
X123665376Y-140614591D01*
X123641987Y-140654140D01*
X123590094Y-140702592D01*
X123533534Y-140716000D01*
X123135600Y-140716000D01*
X123067479Y-140695998D01*
X123020986Y-140642342D01*
X123009600Y-140590000D01*
X123009600Y-140512223D01*
X123009602Y-140511453D01*
X123009900Y-140462702D01*
X123010076Y-140433879D01*
X123001950Y-140405447D01*
X122998372Y-140388685D01*
X122996423Y-140375075D01*
X122994180Y-140359413D01*
X122989347Y-140348782D01*
X122983552Y-140336038D01*
X122977104Y-140318513D01*
X122975245Y-140312008D01*
X122970049Y-140293829D01*
X122963970Y-140284194D01*
X122954270Y-140268820D01*
X122946130Y-140253735D01*
X122941749Y-140244100D01*
X122933892Y-140226818D01*
X122917130Y-140207365D01*
X122906027Y-140192361D01*
X122892324Y-140170642D01*
X122885599Y-140164703D01*
X122885596Y-140164699D01*
X122870162Y-140151068D01*
X122858118Y-140138876D01*
X122844673Y-140123273D01*
X122844670Y-140123271D01*
X122838813Y-140116473D01*
X122828537Y-140109812D01*
X122817265Y-140102506D01*
X122802391Y-140091215D01*
X122789883Y-140080169D01*
X122789882Y-140080168D01*
X122783149Y-140074222D01*
X122756387Y-140061657D01*
X122741409Y-140053337D01*
X122724117Y-140042129D01*
X122724112Y-140042127D01*
X122716585Y-140037248D01*
X122707992Y-140034678D01*
X122707987Y-140034676D01*
X122691980Y-140029889D01*
X122674536Y-140023228D01*
X122659424Y-140016133D01*
X122659422Y-140016132D01*
X122651300Y-140012319D01*
X122642433Y-140010938D01*
X122642432Y-140010938D01*
X122631578Y-140009248D01*
X122622083Y-140007770D01*
X122605368Y-140003987D01*
X122585634Y-139998085D01*
X122585628Y-139998084D01*
X122577034Y-139995514D01*
X122568063Y-139995459D01*
X122568062Y-139995459D01*
X122558003Y-139995398D01*
X122542594Y-139995304D01*
X122541811Y-139995271D01*
X122540714Y-139995100D01*
X122509723Y-139995100D01*
X122508953Y-139995098D01*
X122435315Y-139994648D01*
X122435314Y-139994648D01*
X122431379Y-139994624D01*
X122430035Y-139995008D01*
X122428690Y-139995100D01*
X121135600Y-139995100D01*
X121067479Y-139975098D01*
X121020986Y-139921442D01*
X121009600Y-139869100D01*
X121009600Y-118863302D01*
X121029602Y-118795181D01*
X121083258Y-118748688D01*
X121153532Y-118738584D01*
X121170602Y-118742554D01*
X121173612Y-118743894D01*
X121262830Y-118762858D01*
X121353956Y-118782228D01*
X121353961Y-118782228D01*
X121360413Y-118783600D01*
X121551387Y-118783600D01*
X121557839Y-118782228D01*
X121557844Y-118782228D01*
X121648970Y-118762858D01*
X121738188Y-118743894D01*
X121750115Y-118738584D01*
X121776777Y-118726713D01*
X121847144Y-118717279D01*
X121911441Y-118747385D01*
G37*
G04 #@! TD.AperFunction*
G04 #@! TA.AperFunction,Conductor*
G36*
X141790370Y-130103399D02*
G01*
X141834266Y-130159199D01*
X141843300Y-130206048D01*
X141843300Y-130661408D01*
X141823298Y-130729529D01*
X141769642Y-130776022D01*
X141699368Y-130786126D01*
X141634788Y-130756632D01*
X141619588Y-130740959D01*
X141581779Y-130694518D01*
X141577469Y-130689744D01*
X141497898Y-130610174D01*
X141483962Y-130602564D01*
X141482125Y-130602695D01*
X141475509Y-130606947D01*
X140522718Y-131559738D01*
X140460406Y-131593764D01*
X140389591Y-131588699D01*
X140344528Y-131559738D01*
X140177492Y-131392702D01*
X140143466Y-131330390D01*
X140148531Y-131259575D01*
X140177490Y-131214515D01*
X141146202Y-130245803D01*
X141208512Y-130211779D01*
X141235295Y-130208900D01*
X141303787Y-130208900D01*
X141310239Y-130207528D01*
X141310244Y-130207528D01*
X141397188Y-130189047D01*
X141490588Y-130169194D01*
X141513038Y-130159199D01*
X141665052Y-130091518D01*
X141666180Y-130094051D01*
X141723274Y-130080190D01*
X141790370Y-130103399D01*
G37*
G04 #@! TD.AperFunction*
G04 #@! TA.AperFunction,Conductor*
G36*
X150116021Y-122977502D02*
G01*
X150162514Y-123031158D01*
X150173900Y-123083500D01*
X150173900Y-123252033D01*
X150173373Y-123263216D01*
X150171698Y-123270709D01*
X150171947Y-123278635D01*
X150171947Y-123278636D01*
X150173838Y-123338786D01*
X150173900Y-123342745D01*
X150173900Y-123370656D01*
X150174397Y-123374590D01*
X150174397Y-123374591D01*
X150174405Y-123374656D01*
X150175338Y-123386493D01*
X150176727Y-123430689D01*
X150180435Y-123443451D01*
X150182378Y-123450139D01*
X150186387Y-123469500D01*
X150188926Y-123489597D01*
X150191845Y-123496968D01*
X150191845Y-123496970D01*
X150205204Y-123530712D01*
X150209049Y-123541942D01*
X150218043Y-123572900D01*
X150221382Y-123584393D01*
X150225415Y-123591212D01*
X150225417Y-123591217D01*
X150231693Y-123601828D01*
X150240388Y-123619576D01*
X150247848Y-123638417D01*
X150252510Y-123644833D01*
X150252510Y-123644834D01*
X150273836Y-123674187D01*
X150280352Y-123684107D01*
X150296468Y-123711357D01*
X150302858Y-123722162D01*
X150317179Y-123736483D01*
X150330019Y-123751516D01*
X150341928Y-123767907D01*
X150348034Y-123772958D01*
X150376005Y-123796098D01*
X150384784Y-123804088D01*
X151463263Y-124882567D01*
X151497289Y-124944879D01*
X151492224Y-125015694D01*
X151450872Y-125071624D01*
X151365523Y-125137114D01*
X151365507Y-125137128D01*
X151362236Y-125139638D01*
X151202084Y-125299790D01*
X151132038Y-125391076D01*
X151130802Y-125390127D01*
X151099020Y-125421909D01*
X151099969Y-125423145D01*
X151008683Y-125493191D01*
X150848531Y-125653343D01*
X150778485Y-125744629D01*
X150777249Y-125743680D01*
X150745467Y-125775462D01*
X150746416Y-125776699D01*
X150655130Y-125846745D01*
X150494978Y-126006897D01*
X150492460Y-126010179D01*
X150492457Y-126010182D01*
X150460336Y-126052043D01*
X150402998Y-126093911D01*
X150332127Y-126098133D01*
X150270224Y-126063370D01*
X150236943Y-126000657D01*
X150235063Y-125988511D01*
X150219132Y-125836934D01*
X150219131Y-125836931D01*
X150218442Y-125830372D01*
X150159427Y-125648744D01*
X150136651Y-125609294D01*
X150118484Y-125577829D01*
X150063940Y-125483356D01*
X149957133Y-125364734D01*
X149940575Y-125346345D01*
X149940574Y-125346344D01*
X149936153Y-125341434D01*
X149781652Y-125229182D01*
X149775624Y-125226498D01*
X149775622Y-125226497D01*
X149613219Y-125154191D01*
X149613218Y-125154191D01*
X149607188Y-125151506D01*
X149513787Y-125131653D01*
X149426844Y-125113172D01*
X149426839Y-125113172D01*
X149420387Y-125111800D01*
X149229413Y-125111800D01*
X149222961Y-125113172D01*
X149222956Y-125113172D01*
X149136013Y-125131653D01*
X149042612Y-125151506D01*
X149036582Y-125154191D01*
X149036581Y-125154191D01*
X148874178Y-125226497D01*
X148874176Y-125226498D01*
X148868148Y-125229182D01*
X148713647Y-125341434D01*
X148709226Y-125346344D01*
X148709225Y-125346345D01*
X148692668Y-125364734D01*
X148585860Y-125483356D01*
X148531316Y-125577829D01*
X148513150Y-125609294D01*
X148490373Y-125648744D01*
X148488331Y-125655029D01*
X148470661Y-125709411D01*
X148430587Y-125768017D01*
X148365191Y-125795654D01*
X148324631Y-125793722D01*
X148148444Y-125756272D01*
X148148439Y-125756272D01*
X148141987Y-125754900D01*
X147951013Y-125754900D01*
X147944561Y-125756272D01*
X147944556Y-125756272D01*
X147857613Y-125774753D01*
X147764212Y-125794606D01*
X147758182Y-125797291D01*
X147758181Y-125797291D01*
X147595778Y-125869597D01*
X147595776Y-125869598D01*
X147589748Y-125872282D01*
X147584407Y-125876162D01*
X147584406Y-125876163D01*
X147562869Y-125891811D01*
X147435247Y-125984534D01*
X147430826Y-125989444D01*
X147430825Y-125989445D01*
X147336764Y-126093911D01*
X147307460Y-126126456D01*
X147281875Y-126170771D01*
X147236769Y-126248897D01*
X147211973Y-126291844D01*
X147152958Y-126473472D01*
X147152268Y-126480033D01*
X147152268Y-126480035D01*
X147140565Y-126591387D01*
X147132996Y-126663400D01*
X147133538Y-126668553D01*
X147113684Y-126736168D01*
X147060028Y-126782661D01*
X146989754Y-126792765D01*
X146925174Y-126763271D01*
X146907724Y-126744751D01*
X146886653Y-126717291D01*
X146886645Y-126717282D01*
X146884129Y-126714003D01*
X146723977Y-126553851D01*
X146636516Y-126486740D01*
X146594649Y-126429402D01*
X146590427Y-126358531D01*
X146624806Y-126297313D01*
X146626718Y-126296100D01*
X146673359Y-126246432D01*
X146676113Y-126243591D01*
X146695835Y-126223869D01*
X146698312Y-126220676D01*
X146706017Y-126211655D01*
X146730859Y-126185200D01*
X146736286Y-126179421D01*
X146740107Y-126172471D01*
X146746046Y-126161668D01*
X146756902Y-126145141D01*
X146764457Y-126135402D01*
X146764458Y-126135400D01*
X146769314Y-126129140D01*
X146786874Y-126088560D01*
X146792091Y-126077912D01*
X146809575Y-126046109D01*
X146809576Y-126046107D01*
X146813395Y-126039160D01*
X146818433Y-126019537D01*
X146824837Y-126000834D01*
X146829733Y-125989520D01*
X146829733Y-125989519D01*
X146832881Y-125982245D01*
X146834120Y-125974422D01*
X146834123Y-125974412D01*
X146839799Y-125938576D01*
X146842205Y-125926956D01*
X146851228Y-125891811D01*
X146851228Y-125891810D01*
X146853200Y-125884130D01*
X146853200Y-125863876D01*
X146854751Y-125844165D01*
X146856680Y-125831986D01*
X146857920Y-125824157D01*
X146853759Y-125780138D01*
X146853200Y-125768281D01*
X146853200Y-123277731D01*
X146873202Y-123209610D01*
X146926858Y-123163117D01*
X146997132Y-123153013D01*
X147030448Y-123162624D01*
X147098212Y-123192794D01*
X147177325Y-123209610D01*
X147278556Y-123231128D01*
X147278561Y-123231128D01*
X147285013Y-123232500D01*
X147475987Y-123232500D01*
X147482439Y-123231128D01*
X147482444Y-123231128D01*
X147583675Y-123209610D01*
X147662788Y-123192794D01*
X147729444Y-123163117D01*
X147831222Y-123117803D01*
X147831224Y-123117802D01*
X147837252Y-123115118D01*
X147850766Y-123105300D01*
X147986414Y-123006745D01*
X147991753Y-123002866D01*
X147996168Y-122997963D01*
X148001080Y-122993540D01*
X148002205Y-122994789D01*
X148055514Y-122961949D01*
X148088700Y-122957500D01*
X150047900Y-122957500D01*
X150116021Y-122977502D01*
G37*
G04 #@! TD.AperFunction*
G04 #@! TA.AperFunction,Conductor*
G36*
X148064317Y-116747453D02*
G01*
X148121153Y-116790000D01*
X148129403Y-116802507D01*
X148183060Y-116895444D01*
X148187478Y-116900351D01*
X148187479Y-116900352D01*
X148306425Y-117032455D01*
X148310847Y-117037366D01*
X148465348Y-117149618D01*
X148471376Y-117152302D01*
X148471378Y-117152303D01*
X148630787Y-117223276D01*
X148639812Y-117227294D01*
X148704463Y-117241036D01*
X148820156Y-117265628D01*
X148820161Y-117265628D01*
X148826613Y-117267000D01*
X149017587Y-117267000D01*
X149024039Y-117265628D01*
X149024044Y-117265628D01*
X149139737Y-117241036D01*
X149204388Y-117227294D01*
X149210415Y-117224611D01*
X149210423Y-117224608D01*
X149274019Y-117196293D01*
X149325267Y-117185400D01*
X149736233Y-117185400D01*
X149747416Y-117185927D01*
X149754909Y-117187602D01*
X149762835Y-117187353D01*
X149762836Y-117187353D01*
X149789068Y-117186528D01*
X149792096Y-117186433D01*
X149860812Y-117204285D01*
X149885150Y-117223276D01*
X149948023Y-117286149D01*
X150025705Y-117345756D01*
X150039309Y-117356195D01*
X150038360Y-117357431D01*
X150070142Y-117389213D01*
X150071378Y-117388264D01*
X150141424Y-117479550D01*
X150301576Y-117639702D01*
X150343317Y-117671731D01*
X150392862Y-117709748D01*
X150391913Y-117710984D01*
X150423695Y-117742766D01*
X150424932Y-117741817D01*
X150494978Y-117833103D01*
X150655130Y-117993255D01*
X150709832Y-118035229D01*
X150746416Y-118063301D01*
X150745467Y-118064538D01*
X150777249Y-118096320D01*
X150778485Y-118095371D01*
X150848531Y-118186657D01*
X151008683Y-118346809D01*
X151011961Y-118349324D01*
X151099969Y-118416855D01*
X151099180Y-118417884D01*
X151131056Y-118449759D01*
X151132474Y-118448671D01*
X151168843Y-118496069D01*
X151180436Y-118504534D01*
X151198059Y-118494775D01*
X151267342Y-118479271D01*
X151275547Y-118480079D01*
X151309432Y-118484540D01*
X151374359Y-118513262D01*
X151413451Y-118572527D01*
X151417908Y-118593017D01*
X151422383Y-118627010D01*
X151411443Y-118697158D01*
X151408048Y-118703841D01*
X151397935Y-118722362D01*
X151406073Y-118733369D01*
X151453775Y-118769972D01*
X151452686Y-118771392D01*
X151484562Y-118803269D01*
X151485592Y-118802478D01*
X151555638Y-118893764D01*
X151715790Y-119053916D01*
X151793378Y-119113451D01*
X151807076Y-119123962D01*
X151806127Y-119125198D01*
X151837909Y-119156980D01*
X151839145Y-119156031D01*
X151909191Y-119247317D01*
X152069343Y-119407469D01*
X152072614Y-119409979D01*
X152072630Y-119409993D01*
X152157971Y-119475477D01*
X152199838Y-119532815D01*
X152204060Y-119603686D01*
X152170362Y-119664534D01*
X151287327Y-120547568D01*
X150415147Y-121419748D01*
X150406861Y-121427288D01*
X150400382Y-121431400D01*
X150394957Y-121437177D01*
X150353757Y-121481051D01*
X150351002Y-121483893D01*
X150331265Y-121503630D01*
X150328785Y-121506827D01*
X150321082Y-121515847D01*
X150290814Y-121548079D01*
X150286995Y-121555025D01*
X150286993Y-121555028D01*
X150281052Y-121565834D01*
X150270201Y-121582353D01*
X150257786Y-121598359D01*
X150253463Y-121608349D01*
X150250782Y-121614543D01*
X150205370Y-121669117D01*
X150135146Y-121690500D01*
X148088700Y-121690500D01*
X148020579Y-121670498D01*
X148001353Y-121654157D01*
X148001080Y-121654460D01*
X147996168Y-121650037D01*
X147991753Y-121645134D01*
X147905343Y-121582353D01*
X147842594Y-121536763D01*
X147842593Y-121536762D01*
X147837252Y-121532882D01*
X147831224Y-121530198D01*
X147831222Y-121530197D01*
X147668819Y-121457891D01*
X147668818Y-121457891D01*
X147662788Y-121455206D01*
X147476102Y-121415524D01*
X147413630Y-121381797D01*
X147379308Y-121319647D01*
X147376300Y-121292278D01*
X147376300Y-120498724D01*
X147396302Y-120430603D01*
X147408658Y-120414421D01*
X147481840Y-120333144D01*
X147563253Y-120192133D01*
X147574023Y-120173479D01*
X147574024Y-120173478D01*
X147577327Y-120167756D01*
X147636342Y-119986128D01*
X147656304Y-119796200D01*
X147636342Y-119606272D01*
X147577327Y-119424644D01*
X147481840Y-119259256D01*
X147389751Y-119156980D01*
X147358475Y-119122245D01*
X147358474Y-119122244D01*
X147354053Y-119117334D01*
X147254957Y-119045336D01*
X147204894Y-119008963D01*
X147204893Y-119008962D01*
X147199552Y-119005082D01*
X147193524Y-119002398D01*
X147193522Y-119002397D01*
X147031119Y-118930091D01*
X147031118Y-118930091D01*
X147025088Y-118927406D01*
X146931687Y-118907553D01*
X146844744Y-118889072D01*
X146844739Y-118889072D01*
X146838287Y-118887700D01*
X146647313Y-118887700D01*
X146640861Y-118889072D01*
X146640856Y-118889072D01*
X146553913Y-118907553D01*
X146460512Y-118927406D01*
X146454482Y-118930091D01*
X146454481Y-118930091D01*
X146292078Y-119002397D01*
X146292076Y-119002398D01*
X146286048Y-119005082D01*
X146280707Y-119008962D01*
X146280706Y-119008963D01*
X146220487Y-119052715D01*
X146153619Y-119076573D01*
X146084468Y-119060493D01*
X146034988Y-119009579D01*
X146021116Y-118963947D01*
X146017505Y-118929584D01*
X146020923Y-118891293D01*
X146019982Y-118891144D01*
X146026899Y-118847476D01*
X146029305Y-118835856D01*
X146038328Y-118800711D01*
X146038328Y-118800710D01*
X146040300Y-118793030D01*
X146040300Y-118772776D01*
X146041851Y-118753065D01*
X146043780Y-118740886D01*
X146045020Y-118733057D01*
X146040859Y-118689038D01*
X146040300Y-118677181D01*
X146040300Y-118008967D01*
X146040827Y-117997784D01*
X146042502Y-117990291D01*
X146042253Y-117982364D01*
X146041709Y-117965058D01*
X146059561Y-117896343D01*
X146111730Y-117848187D01*
X146167647Y-117835100D01*
X146531333Y-117835100D01*
X146542516Y-117835627D01*
X146550009Y-117837302D01*
X146557935Y-117837053D01*
X146557936Y-117837053D01*
X146618086Y-117835162D01*
X146622045Y-117835100D01*
X146649956Y-117835100D01*
X146653891Y-117834603D01*
X146653956Y-117834595D01*
X146665793Y-117833662D01*
X146698051Y-117832648D01*
X146702070Y-117832522D01*
X146709989Y-117832273D01*
X146729443Y-117826621D01*
X146748800Y-117822613D01*
X146761030Y-117821068D01*
X146761031Y-117821068D01*
X146768897Y-117820074D01*
X146776268Y-117817155D01*
X146776270Y-117817155D01*
X146810012Y-117803796D01*
X146821242Y-117799951D01*
X146856083Y-117789829D01*
X146856084Y-117789829D01*
X146863693Y-117787618D01*
X146870512Y-117783585D01*
X146870517Y-117783583D01*
X146881128Y-117777307D01*
X146898876Y-117768612D01*
X146917717Y-117761152D01*
X146953487Y-117735164D01*
X146963407Y-117728648D01*
X146994635Y-117710180D01*
X146994638Y-117710178D01*
X147001462Y-117706142D01*
X147015783Y-117691821D01*
X147030817Y-117678980D01*
X147040794Y-117671731D01*
X147047207Y-117667072D01*
X147075398Y-117632995D01*
X147083388Y-117624216D01*
X147931190Y-116776414D01*
X147993502Y-116742388D01*
X148064317Y-116747453D01*
G37*
G04 #@! TD.AperFunction*
G04 #@! TA.AperFunction,Conductor*
G36*
X171609832Y-94082639D02*
G01*
X171666668Y-94125186D01*
X171691479Y-94191706D01*
X171691800Y-94200695D01*
X171691800Y-115906439D01*
X171671798Y-115974560D01*
X171618142Y-116021053D01*
X171543704Y-116030486D01*
X171467837Y-116016972D01*
X171454540Y-116018432D01*
X171450000Y-116032989D01*
X171450000Y-117476000D01*
X171429998Y-117544121D01*
X171376342Y-117590614D01*
X171324000Y-117602000D01*
X169879225Y-117602000D01*
X169865694Y-117605973D01*
X169864257Y-117615966D01*
X169894565Y-117750446D01*
X169897645Y-117760275D01*
X169977770Y-117957603D01*
X169982413Y-117966794D01*
X170093694Y-118148388D01*
X170099777Y-118156699D01*
X170239213Y-118317667D01*
X170246580Y-118324883D01*
X170410434Y-118460916D01*
X170418881Y-118466831D01*
X170487969Y-118507203D01*
X170536693Y-118558842D01*
X170549764Y-118628625D01*
X170523033Y-118694396D01*
X170482584Y-118727752D01*
X170469607Y-118734507D01*
X170465474Y-118737610D01*
X170465471Y-118737612D01*
X170295100Y-118865530D01*
X170290965Y-118868635D01*
X170210096Y-118953260D01*
X170148573Y-118988689D01*
X170077661Y-118985232D01*
X170029908Y-118955303D01*
X168156788Y-117082183D01*
X169860389Y-117082183D01*
X169861912Y-117090607D01*
X169874292Y-117094000D01*
X170923885Y-117094000D01*
X170939124Y-117089525D01*
X170940329Y-117088135D01*
X170942000Y-117080452D01*
X170942000Y-116031102D01*
X170938082Y-116017758D01*
X170923806Y-116015771D01*
X170885324Y-116021660D01*
X170875288Y-116024051D01*
X170672868Y-116090212D01*
X170663359Y-116094209D01*
X170474463Y-116192542D01*
X170465738Y-116198036D01*
X170295433Y-116325905D01*
X170287726Y-116332748D01*
X170140590Y-116486717D01*
X170134104Y-116494727D01*
X170014098Y-116670649D01*
X170009000Y-116679623D01*
X169919338Y-116872783D01*
X169915775Y-116882470D01*
X169860389Y-117082183D01*
X168156788Y-117082183D01*
X161779852Y-110705247D01*
X161772312Y-110696961D01*
X161768200Y-110690482D01*
X161718548Y-110643856D01*
X161715707Y-110641102D01*
X161695970Y-110621365D01*
X161692773Y-110618885D01*
X161683751Y-110611180D01*
X161670316Y-110598564D01*
X161651521Y-110580914D01*
X161644575Y-110577095D01*
X161644572Y-110577093D01*
X161633766Y-110571152D01*
X161617247Y-110560301D01*
X161616783Y-110559941D01*
X161601241Y-110547886D01*
X161593972Y-110544741D01*
X161593968Y-110544738D01*
X161560663Y-110530326D01*
X161550013Y-110525109D01*
X161511260Y-110503805D01*
X161491637Y-110498767D01*
X161472934Y-110492363D01*
X161461620Y-110487467D01*
X161461619Y-110487467D01*
X161454345Y-110484319D01*
X161446522Y-110483080D01*
X161446512Y-110483077D01*
X161410676Y-110477401D01*
X161399056Y-110474995D01*
X161363911Y-110465972D01*
X161363910Y-110465972D01*
X161356230Y-110464000D01*
X161335976Y-110464000D01*
X161316265Y-110462449D01*
X161314403Y-110462154D01*
X161296257Y-110459280D01*
X161265854Y-110462154D01*
X161252239Y-110463441D01*
X161240381Y-110464000D01*
X155639328Y-110464000D01*
X155571207Y-110443998D01*
X155524714Y-110390342D01*
X155514610Y-110320068D01*
X155519494Y-110299069D01*
X155540042Y-110235828D01*
X155546752Y-110171991D01*
X155553280Y-110109872D01*
X155557407Y-110070606D01*
X155584420Y-110004950D01*
X155593622Y-109994682D01*
X171476705Y-94111600D01*
X171539017Y-94077574D01*
X171609832Y-94082639D01*
G37*
G04 #@! TD.AperFunction*
G04 #@! TA.AperFunction,Conductor*
G36*
X156362526Y-116782702D02*
G01*
X156383501Y-116799605D01*
X156606494Y-117022599D01*
X156816153Y-117232258D01*
X156823687Y-117240537D01*
X156827800Y-117247018D01*
X156869471Y-117286149D01*
X156877451Y-117293643D01*
X156880293Y-117296398D01*
X156900030Y-117316135D01*
X156903227Y-117318615D01*
X156912247Y-117326318D01*
X156944479Y-117356586D01*
X156948194Y-117358628D01*
X156990546Y-117413551D01*
X156996622Y-117484287D01*
X156963490Y-117547079D01*
X156899328Y-117582512D01*
X156861212Y-117590614D01*
X156740812Y-117616206D01*
X156734782Y-117618891D01*
X156734781Y-117618891D01*
X156572378Y-117691197D01*
X156572376Y-117691198D01*
X156566348Y-117693882D01*
X156561007Y-117697762D01*
X156561006Y-117697763D01*
X156544510Y-117709748D01*
X156411847Y-117806134D01*
X156407432Y-117811037D01*
X156402520Y-117815460D01*
X156401395Y-117814211D01*
X156348086Y-117847051D01*
X156314900Y-117851500D01*
X154324563Y-117851500D01*
X154313379Y-117850973D01*
X154305891Y-117849299D01*
X154297968Y-117849548D01*
X154237833Y-117851438D01*
X154233875Y-117851500D01*
X154205944Y-117851500D01*
X154202029Y-117851995D01*
X154202025Y-117851995D01*
X154201967Y-117852003D01*
X154201938Y-117852006D01*
X154190096Y-117852939D01*
X154145910Y-117854327D01*
X154134065Y-117857768D01*
X154130604Y-117857758D01*
X154130471Y-117857779D01*
X154130468Y-117857758D01*
X154063070Y-117857563D01*
X154022213Y-117836732D01*
X153933569Y-117768713D01*
X153934517Y-117767477D01*
X153902736Y-117735696D01*
X153901499Y-117736645D01*
X153867104Y-117691821D01*
X153831453Y-117645359D01*
X153671301Y-117485207D01*
X153580015Y-117415161D01*
X153580964Y-117413925D01*
X153549182Y-117382143D01*
X153547946Y-117383092D01*
X153498428Y-117318559D01*
X153477900Y-117291806D01*
X153317748Y-117131654D01*
X153226462Y-117061608D01*
X153227251Y-117060579D01*
X153195374Y-117028702D01*
X153193956Y-117029790D01*
X153144551Y-116965403D01*
X153118951Y-116899183D01*
X153133216Y-116829634D01*
X153182818Y-116778838D01*
X153244514Y-116762700D01*
X156294405Y-116762700D01*
X156362526Y-116782702D01*
G37*
G04 #@! TD.AperFunction*
G04 #@! TA.AperFunction,Conductor*
G36*
X139010409Y-113718547D02*
G01*
X139055472Y-113747508D01*
X140005032Y-114697068D01*
X140018976Y-114704682D01*
X140020809Y-114704551D01*
X140027424Y-114700300D01*
X140110196Y-114617528D01*
X140114545Y-114612705D01*
X140175144Y-114538075D01*
X140182566Y-114526564D01*
X140255220Y-114381163D01*
X140260170Y-114367489D01*
X140297325Y-114209690D01*
X140298997Y-114195245D01*
X140298856Y-114033130D01*
X140297529Y-114021832D01*
X140309446Y-113951842D01*
X140357310Y-113899407D01*
X140425925Y-113881172D01*
X140436281Y-113881904D01*
X140443077Y-113883504D01*
X140450392Y-113883498D01*
X140450395Y-113883498D01*
X140451606Y-113883497D01*
X140452086Y-113883496D01*
X140453199Y-113883822D01*
X140457668Y-113884339D01*
X140457579Y-113885104D01*
X140520224Y-113903438D01*
X140566764Y-113957052D01*
X140572030Y-113970559D01*
X140626973Y-114139656D01*
X140630276Y-114145378D01*
X140630277Y-114145379D01*
X140639007Y-114160500D01*
X140722460Y-114305044D01*
X140850247Y-114446966D01*
X141004748Y-114559218D01*
X141010776Y-114561902D01*
X141010778Y-114561903D01*
X141139194Y-114619077D01*
X141179212Y-114636894D01*
X141267343Y-114655627D01*
X141359556Y-114675228D01*
X141359561Y-114675228D01*
X141366013Y-114676600D01*
X141556987Y-114676600D01*
X141563440Y-114675228D01*
X141563453Y-114675227D01*
X141604098Y-114666587D01*
X141674888Y-114671988D01*
X141731521Y-114714804D01*
X141755301Y-114774041D01*
X141757026Y-114787697D01*
X141759945Y-114795068D01*
X141759945Y-114795070D01*
X141773304Y-114828812D01*
X141777149Y-114840042D01*
X141789482Y-114882493D01*
X141793515Y-114889312D01*
X141793517Y-114889317D01*
X141799793Y-114899928D01*
X141808488Y-114917676D01*
X141815948Y-114936517D01*
X141820607Y-114942929D01*
X141824072Y-114949233D01*
X141839359Y-115018565D01*
X141814735Y-115085155D01*
X141758020Y-115127861D01*
X141734056Y-115134196D01*
X141726710Y-115134427D01*
X141709054Y-115139556D01*
X141707258Y-115140078D01*
X141687906Y-115144086D01*
X141675668Y-115145632D01*
X141675666Y-115145633D01*
X141667803Y-115146626D01*
X141626686Y-115162906D01*
X141615485Y-115166741D01*
X141573006Y-115179082D01*
X141566187Y-115183115D01*
X141566182Y-115183117D01*
X141555571Y-115189393D01*
X141537821Y-115198090D01*
X141518983Y-115205548D01*
X141512567Y-115210209D01*
X141512566Y-115210210D01*
X141483225Y-115231528D01*
X141473301Y-115238047D01*
X141442060Y-115256522D01*
X141442055Y-115256526D01*
X141435237Y-115260558D01*
X141420913Y-115274882D01*
X141405881Y-115287721D01*
X141389493Y-115299628D01*
X141361312Y-115333693D01*
X141353322Y-115342473D01*
X139730624Y-116965171D01*
X139668312Y-116999197D01*
X139597497Y-116994132D01*
X139561220Y-116973166D01*
X139557413Y-116970017D01*
X139548627Y-116962022D01*
X139296022Y-116709417D01*
X139261996Y-116647105D01*
X139259807Y-116633492D01*
X139243132Y-116474835D01*
X139243132Y-116474833D01*
X139242442Y-116468272D01*
X139183427Y-116286644D01*
X139178176Y-116277548D01*
X139129097Y-116192542D01*
X139087940Y-116121256D01*
X139006211Y-116030486D01*
X138964575Y-115984245D01*
X138964574Y-115984244D01*
X138960153Y-115979334D01*
X138805652Y-115867082D01*
X138799624Y-115864398D01*
X138799622Y-115864397D01*
X138637219Y-115792091D01*
X138637218Y-115792091D01*
X138631188Y-115789406D01*
X138537788Y-115769553D01*
X138450844Y-115751072D01*
X138450839Y-115751072D01*
X138444387Y-115749700D01*
X138429000Y-115749700D01*
X138360879Y-115729698D01*
X138314386Y-115676042D01*
X138303000Y-115623700D01*
X138303000Y-115207706D01*
X138323002Y-115139585D01*
X138376658Y-115093092D01*
X138446932Y-115082988D01*
X138511512Y-115112482D01*
X138518095Y-115118611D01*
X138560926Y-115161442D01*
X138565749Y-115165791D01*
X138640379Y-115226390D01*
X138651890Y-115233812D01*
X138797291Y-115306466D01*
X138810965Y-115311416D01*
X138968764Y-115348571D01*
X138983209Y-115350243D01*
X139145325Y-115350102D01*
X139159761Y-115348406D01*
X139317499Y-115310973D01*
X139331163Y-115306000D01*
X139476449Y-115233088D01*
X139487932Y-115225659D01*
X139561482Y-115165779D01*
X139566256Y-115161469D01*
X139645826Y-115081898D01*
X139653436Y-115067962D01*
X139653305Y-115066125D01*
X139649053Y-115059509D01*
X138696262Y-114106718D01*
X138662236Y-114044406D01*
X138667301Y-113973591D01*
X138696262Y-113928528D01*
X138877282Y-113747508D01*
X138939594Y-113713482D01*
X139010409Y-113718547D01*
G37*
G04 #@! TD.AperFunction*
G04 #@! TA.AperFunction,Conductor*
G36*
X156282409Y-112251301D02*
G01*
X156327472Y-112280262D01*
X156508492Y-112461282D01*
X156542518Y-112523594D01*
X156537453Y-112594409D01*
X156508492Y-112639472D01*
X155558932Y-113589032D01*
X155551318Y-113602976D01*
X155551449Y-113604809D01*
X155555700Y-113611424D01*
X155638472Y-113694196D01*
X155643295Y-113698545D01*
X155717925Y-113759144D01*
X155729436Y-113766566D01*
X155874837Y-113839220D01*
X155888511Y-113844170D01*
X156046310Y-113881325D01*
X156060755Y-113882997D01*
X156222870Y-113882856D01*
X156234168Y-113881529D01*
X156304158Y-113893446D01*
X156356593Y-113941310D01*
X156374828Y-114009925D01*
X156374096Y-114020281D01*
X156372496Y-114027077D01*
X156372502Y-114034393D01*
X156372502Y-114034396D01*
X156372570Y-114112201D01*
X156372650Y-114203947D01*
X156382347Y-114244810D01*
X156404593Y-114338550D01*
X156413489Y-114376039D01*
X156416771Y-114382578D01*
X156416771Y-114382579D01*
X156451033Y-114450849D01*
X156492823Y-114534119D01*
X156497165Y-114539452D01*
X156497166Y-114539454D01*
X156557089Y-114613058D01*
X156557095Y-114613064D01*
X156559120Y-114615552D01*
X156599195Y-114655627D01*
X156633221Y-114717939D01*
X156636100Y-114744722D01*
X156636100Y-114930976D01*
X156616098Y-114999097D01*
X156603742Y-115015279D01*
X156530560Y-115096556D01*
X156435073Y-115261944D01*
X156411760Y-115333693D01*
X156387409Y-115408637D01*
X156347335Y-115467242D01*
X156281938Y-115494879D01*
X156267576Y-115495700D01*
X152778394Y-115495700D01*
X152710273Y-115475698D01*
X152663780Y-115422042D01*
X152653676Y-115351768D01*
X152683170Y-115287188D01*
X152689299Y-115280605D01*
X153758710Y-114211195D01*
X154872248Y-113097657D01*
X154934560Y-113063631D01*
X155005376Y-113068696D01*
X155059055Y-113107201D01*
X155090221Y-113145482D01*
X155094531Y-113150256D01*
X155174102Y-113229826D01*
X155188038Y-113237436D01*
X155189875Y-113237305D01*
X155196491Y-113233053D01*
X156149282Y-112280262D01*
X156211594Y-112246236D01*
X156282409Y-112251301D01*
G37*
G04 #@! TD.AperFunction*
G04 #@! TA.AperFunction,Conductor*
G36*
X132291121Y-84099002D02*
G01*
X132337614Y-84152658D01*
X132349000Y-84205000D01*
X132349000Y-85672884D01*
X132353475Y-85688123D01*
X132354865Y-85689328D01*
X132362548Y-85690999D01*
X132670300Y-85690999D01*
X132738421Y-85711001D01*
X132784914Y-85764657D01*
X132796300Y-85816999D01*
X132796300Y-89371017D01*
X132776298Y-89439138D01*
X132722642Y-89485631D01*
X132652368Y-89495735D01*
X132617050Y-89485212D01*
X132534053Y-89446510D01*
X132523761Y-89442764D01*
X132351497Y-89396606D01*
X132337401Y-89396942D01*
X132334000Y-89404884D01*
X132334000Y-91945967D01*
X132337973Y-91959498D01*
X132346522Y-91960727D01*
X132523761Y-91913236D01*
X132534053Y-91909490D01*
X132617050Y-91870788D01*
X132687242Y-91860127D01*
X132752055Y-91889107D01*
X132790911Y-91948527D01*
X132796300Y-91984983D01*
X132796300Y-94651933D01*
X132795773Y-94663116D01*
X132794098Y-94670609D01*
X132794347Y-94678535D01*
X132794347Y-94678536D01*
X132796238Y-94738686D01*
X132796300Y-94742645D01*
X132796300Y-94770556D01*
X132796797Y-94774490D01*
X132796797Y-94774491D01*
X132796805Y-94774556D01*
X132797738Y-94786393D01*
X132799127Y-94830589D01*
X132804778Y-94850039D01*
X132808787Y-94869400D01*
X132811326Y-94889497D01*
X132814245Y-94896868D01*
X132814245Y-94896870D01*
X132827604Y-94930612D01*
X132831449Y-94941842D01*
X132843782Y-94984293D01*
X132847815Y-94991112D01*
X132847817Y-94991117D01*
X132854093Y-95001728D01*
X132862788Y-95019476D01*
X132870248Y-95038317D01*
X132874910Y-95044733D01*
X132874910Y-95044734D01*
X132896236Y-95074087D01*
X132902752Y-95084007D01*
X132919896Y-95112995D01*
X132925258Y-95122062D01*
X132939579Y-95136383D01*
X132952419Y-95151416D01*
X132964328Y-95167807D01*
X132970434Y-95172858D01*
X132998405Y-95195998D01*
X133007184Y-95203988D01*
X134367595Y-96564399D01*
X134401621Y-96626711D01*
X134404500Y-96653494D01*
X134404500Y-110461500D01*
X134384498Y-110529621D01*
X134330842Y-110576114D01*
X134278500Y-110587500D01*
X134213713Y-110587500D01*
X134207261Y-110588872D01*
X134207256Y-110588872D01*
X134120647Y-110607282D01*
X134026912Y-110627206D01*
X134020882Y-110629891D01*
X134020881Y-110629891D01*
X133858478Y-110702197D01*
X133858476Y-110702198D01*
X133852448Y-110704882D01*
X133847107Y-110708762D01*
X133847106Y-110708763D01*
X133809695Y-110735944D01*
X133697947Y-110817134D01*
X133693532Y-110822037D01*
X133688620Y-110826460D01*
X133687495Y-110825211D01*
X133634186Y-110858051D01*
X133601000Y-110862500D01*
X132247095Y-110862500D01*
X132178974Y-110842498D01*
X132158000Y-110825595D01*
X129784305Y-108451900D01*
X129750279Y-108389588D01*
X129747400Y-108362805D01*
X129747400Y-107998752D01*
X129767402Y-107930631D01*
X129779764Y-107914442D01*
X129792721Y-107900052D01*
X129792722Y-107900051D01*
X129797140Y-107895144D01*
X129892627Y-107729756D01*
X129951642Y-107548128D01*
X129958669Y-107481275D01*
X129970914Y-107364765D01*
X129971604Y-107358200D01*
X129963499Y-107281088D01*
X129952332Y-107174835D01*
X129952332Y-107174833D01*
X129951642Y-107168272D01*
X129892627Y-106986644D01*
X129797140Y-106821256D01*
X129669353Y-106679334D01*
X129563042Y-106602094D01*
X129520194Y-106570963D01*
X129520193Y-106570962D01*
X129514852Y-106567082D01*
X129508824Y-106564398D01*
X129508822Y-106564397D01*
X129346419Y-106492091D01*
X129346418Y-106492091D01*
X129340388Y-106489406D01*
X129246988Y-106469553D01*
X129160044Y-106451072D01*
X129160039Y-106451072D01*
X129153587Y-106449700D01*
X128962613Y-106449700D01*
X128956161Y-106451072D01*
X128956156Y-106451072D01*
X128869212Y-106469553D01*
X128775812Y-106489406D01*
X128769782Y-106492091D01*
X128769781Y-106492091D01*
X128607378Y-106564397D01*
X128607376Y-106564398D01*
X128601348Y-106567082D01*
X128596007Y-106570962D01*
X128596006Y-106570963D01*
X128553158Y-106602094D01*
X128446847Y-106679334D01*
X128319060Y-106821256D01*
X128223573Y-106986644D01*
X128164558Y-107168272D01*
X128163868Y-107174833D01*
X128163868Y-107174835D01*
X128146438Y-107340671D01*
X128119425Y-107406328D01*
X128061203Y-107446957D01*
X128021128Y-107453500D01*
X127751866Y-107453500D01*
X127689684Y-107460255D01*
X127682285Y-107463029D01*
X127679146Y-107463775D01*
X127620854Y-107463775D01*
X127617715Y-107463029D01*
X127610316Y-107460255D01*
X127548134Y-107453500D01*
X126451866Y-107453500D01*
X126389684Y-107460255D01*
X126382284Y-107463029D01*
X126378058Y-107464034D01*
X126319761Y-107464034D01*
X126302354Y-107459895D01*
X126251486Y-107454369D01*
X126244672Y-107454000D01*
X125972115Y-107454000D01*
X125956876Y-107458475D01*
X125955671Y-107459865D01*
X125954000Y-107467548D01*
X125954000Y-109951884D01*
X125958475Y-109967123D01*
X125959865Y-109968328D01*
X125967548Y-109969999D01*
X126244669Y-109969999D01*
X126251493Y-109969629D01*
X126307137Y-109963586D01*
X126377019Y-109976116D01*
X126429033Y-110024438D01*
X126436701Y-110040039D01*
X126437531Y-110041548D01*
X126440448Y-110048917D01*
X126445104Y-110055325D01*
X126445107Y-110055331D01*
X126473458Y-110094352D01*
X126477901Y-110100889D01*
X126508000Y-110148318D01*
X126513778Y-110153744D01*
X126513779Y-110153745D01*
X126514007Y-110153959D01*
X126529688Y-110171746D01*
X126534528Y-110178407D01*
X126540637Y-110183461D01*
X126540638Y-110183462D01*
X126577796Y-110214203D01*
X126583730Y-110219434D01*
X126618898Y-110252458D01*
X126618901Y-110252460D01*
X126624679Y-110257886D01*
X126631903Y-110261858D01*
X126651506Y-110275181D01*
X126651746Y-110275380D01*
X126651753Y-110275384D01*
X126657856Y-110280433D01*
X126697400Y-110299041D01*
X126708676Y-110304347D01*
X126715708Y-110307929D01*
X126764940Y-110334995D01*
X126772615Y-110336965D01*
X126772621Y-110336968D01*
X126772919Y-110337044D01*
X126795228Y-110345076D01*
X126795503Y-110345206D01*
X126795511Y-110345209D01*
X126802682Y-110348583D01*
X126857849Y-110359106D01*
X126865558Y-110360829D01*
X126899551Y-110369557D01*
X126912293Y-110372829D01*
X126912294Y-110372829D01*
X126919970Y-110374800D01*
X126928207Y-110374800D01*
X126951816Y-110377032D01*
X126952119Y-110377090D01*
X126952123Y-110377090D01*
X126959906Y-110378575D01*
X127015951Y-110375049D01*
X127023862Y-110374800D01*
X127922661Y-110374800D01*
X127990782Y-110394802D01*
X128037275Y-110448458D01*
X128047379Y-110518732D01*
X128027656Y-110567319D01*
X128028760Y-110567956D01*
X127949706Y-110704882D01*
X127933273Y-110733344D01*
X127874258Y-110914972D01*
X127857200Y-111077276D01*
X127856842Y-111080678D01*
X127826111Y-111150684D01*
X127823865Y-111152930D01*
X127821385Y-111156127D01*
X127813682Y-111165147D01*
X127783414Y-111197379D01*
X127779595Y-111204325D01*
X127779593Y-111204328D01*
X127773652Y-111215134D01*
X127762801Y-111231653D01*
X127750386Y-111247659D01*
X127747241Y-111254928D01*
X127747238Y-111254932D01*
X127732826Y-111288237D01*
X127727609Y-111298887D01*
X127706305Y-111337640D01*
X127704334Y-111345315D01*
X127704334Y-111345316D01*
X127701267Y-111357262D01*
X127694863Y-111375966D01*
X127686819Y-111394555D01*
X127685580Y-111402378D01*
X127685579Y-111402381D01*
X127684082Y-111411835D01*
X127653669Y-111475987D01*
X127593401Y-111513514D01*
X127552816Y-111517938D01*
X127551519Y-111517868D01*
X127548134Y-111517500D01*
X126451866Y-111517500D01*
X126389684Y-111524255D01*
X126382285Y-111527029D01*
X126379146Y-111527775D01*
X126320854Y-111527775D01*
X126317715Y-111527029D01*
X126310316Y-111524255D01*
X126248134Y-111517500D01*
X125328200Y-111517500D01*
X125260079Y-111497498D01*
X125213586Y-111443842D01*
X125202200Y-111391500D01*
X125202200Y-110096000D01*
X125222202Y-110027879D01*
X125275858Y-109981386D01*
X125328200Y-109970000D01*
X125427885Y-109970000D01*
X125443124Y-109965525D01*
X125444329Y-109964135D01*
X125446000Y-109956452D01*
X125446000Y-107522194D01*
X125466002Y-107454073D01*
X125482905Y-107433099D01*
X129109999Y-103806005D01*
X129172311Y-103771979D01*
X129199094Y-103769100D01*
X129254987Y-103769100D01*
X129261439Y-103767728D01*
X129261444Y-103767728D01*
X129348387Y-103749247D01*
X129441788Y-103729394D01*
X129505724Y-103700928D01*
X129610222Y-103654403D01*
X129610224Y-103654402D01*
X129616252Y-103651718D01*
X129770753Y-103539466D01*
X129796384Y-103511000D01*
X129894121Y-103402452D01*
X129894122Y-103402451D01*
X129898540Y-103397544D01*
X129994027Y-103232156D01*
X130053042Y-103050528D01*
X130060479Y-102979774D01*
X130063835Y-102947838D01*
X130090848Y-102882182D01*
X130149070Y-102841552D01*
X130215342Y-102837762D01*
X130233172Y-102841552D01*
X130365256Y-102869628D01*
X130365261Y-102869628D01*
X130371713Y-102871000D01*
X130562687Y-102871000D01*
X130569139Y-102869628D01*
X130569144Y-102869628D01*
X130673071Y-102847537D01*
X130749488Y-102831294D01*
X130756323Y-102828251D01*
X130917922Y-102756303D01*
X130917924Y-102756302D01*
X130923952Y-102753618D01*
X130943844Y-102739166D01*
X131024818Y-102680334D01*
X131049079Y-102662708D01*
X131115945Y-102638850D01*
X131185097Y-102654930D01*
X131216771Y-102680330D01*
X131269747Y-102739166D01*
X131293334Y-102756303D01*
X131410669Y-102841552D01*
X131424248Y-102851418D01*
X131430276Y-102854102D01*
X131430278Y-102854103D01*
X131559909Y-102911818D01*
X131598712Y-102929094D01*
X131686895Y-102947838D01*
X131779056Y-102967428D01*
X131779061Y-102967428D01*
X131785513Y-102968800D01*
X131976487Y-102968800D01*
X131982939Y-102967428D01*
X131982944Y-102967428D01*
X132075105Y-102947838D01*
X132163288Y-102929094D01*
X132202091Y-102911818D01*
X132331722Y-102854103D01*
X132331724Y-102854102D01*
X132337752Y-102851418D01*
X132351332Y-102841552D01*
X132468666Y-102756303D01*
X132492253Y-102739166D01*
X132561096Y-102662708D01*
X132615621Y-102602152D01*
X132615622Y-102602151D01*
X132620040Y-102597244D01*
X132715527Y-102431856D01*
X132774542Y-102250228D01*
X132777649Y-102220673D01*
X132793814Y-102066865D01*
X132794504Y-102060300D01*
X132774542Y-101870372D01*
X132715527Y-101688744D01*
X132696077Y-101655056D01*
X132679340Y-101586064D01*
X132703263Y-101517995D01*
X132704021Y-101516952D01*
X132708440Y-101512044D01*
X132803927Y-101346656D01*
X132862942Y-101165028D01*
X132882904Y-100975100D01*
X132862942Y-100785172D01*
X132803927Y-100603544D01*
X132781330Y-100564404D01*
X132711743Y-100443877D01*
X132708440Y-100438156D01*
X132699504Y-100428231D01*
X132624998Y-100345485D01*
X132597636Y-100296322D01*
X132594421Y-100285254D01*
X132590414Y-100265906D01*
X132589400Y-100257879D01*
X132587874Y-100245803D01*
X132584956Y-100238432D01*
X132571600Y-100204697D01*
X132567755Y-100193470D01*
X132567121Y-100191287D01*
X132555418Y-100151007D01*
X132551384Y-100144185D01*
X132551381Y-100144179D01*
X132545106Y-100133568D01*
X132536410Y-100115818D01*
X132531872Y-100104356D01*
X132531869Y-100104351D01*
X132528952Y-100096983D01*
X132502973Y-100061225D01*
X132496457Y-100051307D01*
X132477975Y-100020057D01*
X132473942Y-100013237D01*
X132459618Y-99998913D01*
X132446776Y-99983878D01*
X132434872Y-99967493D01*
X132400806Y-99939311D01*
X132392027Y-99931322D01*
X130558481Y-98097776D01*
X130524455Y-98035464D01*
X130529520Y-97964649D01*
X130553940Y-97924371D01*
X130558105Y-97919746D01*
X130653032Y-97814318D01*
X130673621Y-97791452D01*
X130673622Y-97791451D01*
X130678040Y-97786544D01*
X130773527Y-97621156D01*
X130776046Y-97622610D01*
X130813763Y-97578202D01*
X130881683Y-97557528D01*
X130949998Y-97576856D01*
X130972023Y-97594427D01*
X131019378Y-97641782D01*
X131053404Y-97704094D01*
X131055593Y-97717707D01*
X131069848Y-97853334D01*
X131072958Y-97882928D01*
X131131973Y-98064556D01*
X131135276Y-98070278D01*
X131135277Y-98070279D01*
X131148273Y-98092788D01*
X131227460Y-98229944D01*
X131355247Y-98371866D01*
X131509748Y-98484118D01*
X131515776Y-98486802D01*
X131515778Y-98486803D01*
X131678181Y-98559109D01*
X131684212Y-98561794D01*
X131777612Y-98581647D01*
X131864556Y-98600128D01*
X131864561Y-98600128D01*
X131871013Y-98601500D01*
X132061987Y-98601500D01*
X132068439Y-98600128D01*
X132068444Y-98600128D01*
X132155388Y-98581647D01*
X132248788Y-98561794D01*
X132254819Y-98559109D01*
X132417222Y-98486803D01*
X132417224Y-98486802D01*
X132423252Y-98484118D01*
X132577753Y-98371866D01*
X132705540Y-98229944D01*
X132784727Y-98092788D01*
X132797723Y-98070279D01*
X132797724Y-98070278D01*
X132801027Y-98064556D01*
X132860042Y-97882928D01*
X132863153Y-97853334D01*
X132879314Y-97699565D01*
X132880004Y-97693000D01*
X132876888Y-97663356D01*
X132860732Y-97509635D01*
X132860732Y-97509633D01*
X132860042Y-97503072D01*
X132801027Y-97321444D01*
X132705540Y-97156056D01*
X132577753Y-97014134D01*
X132423252Y-96901882D01*
X132417224Y-96899198D01*
X132417222Y-96899197D01*
X132254819Y-96826891D01*
X132254818Y-96826891D01*
X132248788Y-96824206D01*
X132155388Y-96804353D01*
X132068444Y-96785872D01*
X132068439Y-96785872D01*
X132061987Y-96784500D01*
X132006095Y-96784500D01*
X131937974Y-96764498D01*
X131916999Y-96747595D01*
X131637604Y-96468199D01*
X131603579Y-96405887D01*
X131600700Y-96379104D01*
X131600700Y-92067920D01*
X131620702Y-91999799D01*
X131674358Y-91953306D01*
X131744632Y-91943202D01*
X131759311Y-91946213D01*
X131808503Y-91959394D01*
X131822599Y-91959058D01*
X131826000Y-91951116D01*
X131826000Y-89410033D01*
X131822027Y-89396502D01*
X131813478Y-89395273D01*
X131759311Y-89409787D01*
X131688334Y-89408097D01*
X131629539Y-89368303D01*
X131601591Y-89303038D01*
X131600700Y-89288080D01*
X131600700Y-86051163D01*
X131601227Y-86039979D01*
X131602901Y-86032491D01*
X131600762Y-85964432D01*
X131600700Y-85960475D01*
X131600700Y-85932544D01*
X131600194Y-85928538D01*
X131599261Y-85916692D01*
X131599060Y-85910273D01*
X131597873Y-85872510D01*
X131592222Y-85853058D01*
X131588216Y-85833724D01*
X131588101Y-85832815D01*
X131599395Y-85762722D01*
X131646791Y-85709862D01*
X131713105Y-85691000D01*
X131822885Y-85691000D01*
X131838124Y-85686525D01*
X131839329Y-85685135D01*
X131841000Y-85677452D01*
X131841000Y-84205000D01*
X131861002Y-84136879D01*
X131914658Y-84090386D01*
X131967000Y-84079000D01*
X132223000Y-84079000D01*
X132291121Y-84099002D01*
G37*
G04 #@! TD.AperFunction*
G04 #@! TA.AperFunction,Conductor*
G36*
X165600032Y-68976632D02*
G01*
X165645095Y-69005593D01*
X165711700Y-69072198D01*
X165716208Y-69075355D01*
X165716211Y-69075357D01*
X165793771Y-69129665D01*
X165899251Y-69203523D01*
X165904233Y-69205846D01*
X165904238Y-69205849D01*
X166074825Y-69285394D01*
X166106757Y-69300284D01*
X166112065Y-69301706D01*
X166112067Y-69301707D01*
X166322598Y-69358119D01*
X166322600Y-69358119D01*
X166327913Y-69359543D01*
X166556000Y-69379498D01*
X166784087Y-69359543D01*
X166789398Y-69358120D01*
X166789409Y-69358118D01*
X166847541Y-69342541D01*
X166918517Y-69344230D01*
X166969248Y-69375152D01*
X168047095Y-70452999D01*
X168081121Y-70515311D01*
X168084000Y-70542094D01*
X168084000Y-76153565D01*
X168063998Y-76221686D01*
X168010342Y-76268179D01*
X167940068Y-76278283D01*
X167875488Y-76248789D01*
X167864364Y-76237875D01*
X167815175Y-76183245D01*
X167815174Y-76183244D01*
X167810753Y-76178334D01*
X167656252Y-76066082D01*
X167650224Y-76063398D01*
X167650222Y-76063397D01*
X167487819Y-75991091D01*
X167487818Y-75991091D01*
X167481788Y-75988406D01*
X167388387Y-75968553D01*
X167301444Y-75950072D01*
X167301439Y-75950072D01*
X167294987Y-75948700D01*
X167104013Y-75948700D01*
X167097561Y-75950072D01*
X167097556Y-75950072D01*
X167010613Y-75968553D01*
X166917212Y-75988406D01*
X166911182Y-75991091D01*
X166911181Y-75991091D01*
X166748778Y-76063397D01*
X166748776Y-76063398D01*
X166742748Y-76066082D01*
X166588247Y-76178334D01*
X166583826Y-76183244D01*
X166583825Y-76183245D01*
X166498253Y-76278283D01*
X166460460Y-76320256D01*
X166364973Y-76485644D01*
X166305958Y-76667272D01*
X166305268Y-76673833D01*
X166305268Y-76673835D01*
X166290531Y-76814048D01*
X166285996Y-76857200D01*
X166286686Y-76863765D01*
X166304732Y-77035459D01*
X166305958Y-77047128D01*
X166364973Y-77228756D01*
X166368276Y-77234478D01*
X166368277Y-77234479D01*
X166390731Y-77273370D01*
X166460460Y-77394144D01*
X166533637Y-77475415D01*
X166564353Y-77539421D01*
X166566000Y-77559724D01*
X166566000Y-78842106D01*
X166545998Y-78910227D01*
X166529095Y-78931201D01*
X164943782Y-80516513D01*
X163361047Y-82099248D01*
X163352761Y-82106788D01*
X163346282Y-82110900D01*
X163340857Y-82116677D01*
X163299657Y-82160551D01*
X163296902Y-82163393D01*
X163277165Y-82183130D01*
X163274685Y-82186327D01*
X163266982Y-82195347D01*
X163236714Y-82227579D01*
X163232895Y-82234525D01*
X163232893Y-82234528D01*
X163226952Y-82245334D01*
X163216101Y-82261853D01*
X163203686Y-82277859D01*
X163200541Y-82285128D01*
X163200538Y-82285132D01*
X163186126Y-82318437D01*
X163180909Y-82329087D01*
X163159605Y-82367840D01*
X163157634Y-82375515D01*
X163157634Y-82375516D01*
X163154567Y-82387462D01*
X163148163Y-82406166D01*
X163140119Y-82424755D01*
X163138880Y-82432578D01*
X163138877Y-82432588D01*
X163133201Y-82468424D01*
X163130795Y-82480044D01*
X163125923Y-82499020D01*
X163119800Y-82522870D01*
X163119800Y-82543124D01*
X163118249Y-82562834D01*
X163115080Y-82582843D01*
X163115826Y-82590735D01*
X163119241Y-82626861D01*
X163119800Y-82638719D01*
X163119800Y-87573006D01*
X163099798Y-87641127D01*
X163082895Y-87662101D01*
X155026095Y-95718900D01*
X154963783Y-95752926D01*
X154892968Y-95747861D01*
X154836132Y-95705314D01*
X154811321Y-95638794D01*
X154811000Y-95629805D01*
X154811000Y-90691966D01*
X156402257Y-90691966D01*
X156432565Y-90826446D01*
X156435645Y-90836275D01*
X156515770Y-91033603D01*
X156520413Y-91042794D01*
X156631694Y-91224388D01*
X156637777Y-91232699D01*
X156777213Y-91393667D01*
X156784580Y-91400883D01*
X156948434Y-91536916D01*
X156956881Y-91542831D01*
X157140756Y-91650279D01*
X157150042Y-91654729D01*
X157349001Y-91730703D01*
X157358899Y-91733579D01*
X157462250Y-91754606D01*
X157476299Y-91753410D01*
X157480000Y-91743065D01*
X157480000Y-91742517D01*
X157988000Y-91742517D01*
X157992064Y-91756359D01*
X158005478Y-91758393D01*
X158012184Y-91757534D01*
X158022262Y-91755392D01*
X158226255Y-91694191D01*
X158235842Y-91690433D01*
X158427095Y-91596739D01*
X158435945Y-91591464D01*
X158609328Y-91467792D01*
X158617200Y-91461139D01*
X158768052Y-91310812D01*
X158774730Y-91302965D01*
X158899003Y-91130020D01*
X158904313Y-91121183D01*
X158998670Y-90930267D01*
X159002469Y-90920672D01*
X159064377Y-90716910D01*
X159066555Y-90706837D01*
X159067986Y-90695962D01*
X159065775Y-90681778D01*
X159052617Y-90678000D01*
X158006115Y-90678000D01*
X157990876Y-90682475D01*
X157989671Y-90683865D01*
X157988000Y-90691548D01*
X157988000Y-91742517D01*
X157480000Y-91742517D01*
X157480000Y-90696115D01*
X157475525Y-90680876D01*
X157474135Y-90679671D01*
X157466452Y-90678000D01*
X156417225Y-90678000D01*
X156403694Y-90681973D01*
X156402257Y-90691966D01*
X154811000Y-90691966D01*
X154811000Y-87111167D01*
X154811527Y-87099984D01*
X154813202Y-87092491D01*
X154812768Y-87078666D01*
X154811062Y-87024414D01*
X154811000Y-87020455D01*
X154811000Y-86992544D01*
X154810495Y-86988544D01*
X154809562Y-86976701D01*
X154808422Y-86940429D01*
X154808173Y-86932510D01*
X154802522Y-86913058D01*
X154798514Y-86893706D01*
X154796967Y-86881463D01*
X154795974Y-86873603D01*
X154790096Y-86858756D01*
X154779700Y-86832497D01*
X154775855Y-86821270D01*
X154770141Y-86801604D01*
X154763518Y-86778807D01*
X154759484Y-86771985D01*
X154759481Y-86771979D01*
X154753206Y-86761368D01*
X154744510Y-86743618D01*
X154739972Y-86732156D01*
X154739969Y-86732151D01*
X154737052Y-86724783D01*
X154711073Y-86689025D01*
X154704557Y-86679107D01*
X154686075Y-86647857D01*
X154682042Y-86641037D01*
X154667718Y-86626713D01*
X154654876Y-86611678D01*
X154642972Y-86595293D01*
X154608906Y-86567111D01*
X154600127Y-86559122D01*
X150904021Y-82863016D01*
X150869995Y-82800704D01*
X150875060Y-82729889D01*
X150904178Y-82684669D01*
X150909048Y-82679816D01*
X150915731Y-82671963D01*
X151040003Y-82499020D01*
X151045310Y-82490189D01*
X151064445Y-82451471D01*
X151112559Y-82399264D01*
X151181260Y-82381356D01*
X151248736Y-82403434D01*
X151266496Y-82418200D01*
X153538390Y-84690095D01*
X155728078Y-86879783D01*
X155762104Y-86942095D01*
X155764293Y-86955708D01*
X155779705Y-87102342D01*
X155781658Y-87120928D01*
X155840673Y-87302556D01*
X155843976Y-87308278D01*
X155843977Y-87308279D01*
X155850866Y-87320211D01*
X155936160Y-87467944D01*
X155940578Y-87472851D01*
X155940579Y-87472852D01*
X156023053Y-87564449D01*
X156063947Y-87609866D01*
X156218448Y-87722118D01*
X156224476Y-87724802D01*
X156224478Y-87724803D01*
X156262678Y-87741810D01*
X156297546Y-87757335D01*
X156351640Y-87803314D01*
X156372087Y-87865187D01*
X156384110Y-88073715D01*
X156385247Y-88078761D01*
X156385248Y-88078767D01*
X156395140Y-88122660D01*
X156433222Y-88291639D01*
X156517266Y-88498616D01*
X156633987Y-88689088D01*
X156780250Y-88857938D01*
X156952126Y-89000632D01*
X156995119Y-89025755D01*
X157025955Y-89043774D01*
X157074679Y-89095412D01*
X157087750Y-89165195D01*
X157061019Y-89230967D01*
X157020562Y-89264327D01*
X157012457Y-89268546D01*
X157003738Y-89274036D01*
X156833433Y-89401905D01*
X156825726Y-89408748D01*
X156678590Y-89562717D01*
X156672104Y-89570727D01*
X156552098Y-89746649D01*
X156547000Y-89755623D01*
X156457338Y-89948783D01*
X156453775Y-89958470D01*
X156398389Y-90158183D01*
X156399912Y-90166607D01*
X156412292Y-90170000D01*
X159052344Y-90170000D01*
X159065875Y-90166027D01*
X159067180Y-90156947D01*
X159025214Y-89989875D01*
X159021894Y-89980124D01*
X158936972Y-89784814D01*
X158932105Y-89775739D01*
X158816426Y-89596926D01*
X158810136Y-89588757D01*
X158666806Y-89431240D01*
X158659273Y-89424215D01*
X158492139Y-89292222D01*
X158483556Y-89286520D01*
X158446602Y-89266120D01*
X158396631Y-89215687D01*
X158381859Y-89146245D01*
X158406975Y-89079839D01*
X158434327Y-89053232D01*
X158472848Y-89025755D01*
X158613860Y-88925173D01*
X158645492Y-88893652D01*
X158768435Y-88771137D01*
X158772096Y-88767489D01*
X158831594Y-88684689D01*
X158899435Y-88590277D01*
X158902453Y-88586077D01*
X158964288Y-88460964D01*
X158999136Y-88390453D01*
X158999137Y-88390451D01*
X159001430Y-88385811D01*
X159044815Y-88243014D01*
X159064865Y-88177023D01*
X159064865Y-88177021D01*
X159066370Y-88172069D01*
X159095529Y-87950590D01*
X159097156Y-87884000D01*
X159078852Y-87661361D01*
X159024431Y-87444702D01*
X158935354Y-87239840D01*
X158838405Y-87089980D01*
X158816822Y-87056617D01*
X158816820Y-87056614D01*
X158814014Y-87052277D01*
X158663670Y-86887051D01*
X158659619Y-86883852D01*
X158659615Y-86883848D01*
X158492414Y-86751800D01*
X158492410Y-86751798D01*
X158488359Y-86748598D01*
X158447053Y-86725796D01*
X158397084Y-86675364D01*
X158382312Y-86605921D01*
X158407428Y-86539516D01*
X158434780Y-86512909D01*
X158534202Y-86441992D01*
X158613860Y-86385173D01*
X158772096Y-86227489D01*
X158793359Y-86197899D01*
X158899435Y-86050277D01*
X158902453Y-86046077D01*
X158905800Y-86039306D01*
X158999136Y-85850453D01*
X158999137Y-85850451D01*
X159001430Y-85845811D01*
X159049222Y-85688509D01*
X159064865Y-85637023D01*
X159064865Y-85637021D01*
X159066370Y-85632069D01*
X159095529Y-85410590D01*
X159096042Y-85389607D01*
X159097074Y-85347365D01*
X159097074Y-85347361D01*
X159097156Y-85344000D01*
X159078852Y-85121361D01*
X159024431Y-84904702D01*
X158935354Y-84699840D01*
X158814014Y-84512277D01*
X158663670Y-84347051D01*
X158659619Y-84343852D01*
X158659615Y-84343848D01*
X158492414Y-84211800D01*
X158492410Y-84211798D01*
X158488359Y-84208598D01*
X158447053Y-84185796D01*
X158397084Y-84135364D01*
X158382312Y-84065921D01*
X158407428Y-83999516D01*
X158434780Y-83972909D01*
X158508070Y-83920632D01*
X158613860Y-83845173D01*
X158772096Y-83687489D01*
X158902453Y-83506077D01*
X158904826Y-83501277D01*
X158999136Y-83310453D01*
X158999137Y-83310451D01*
X159001430Y-83305811D01*
X159054420Y-83131400D01*
X159064865Y-83097023D01*
X159064865Y-83097021D01*
X159066370Y-83092069D01*
X159095529Y-82870590D01*
X159095714Y-82863016D01*
X159097074Y-82807365D01*
X159097074Y-82807361D01*
X159097156Y-82804000D01*
X159078852Y-82581361D01*
X159024431Y-82364702D01*
X158935354Y-82159840D01*
X158866729Y-82053762D01*
X158816822Y-81976617D01*
X158816820Y-81976614D01*
X158814014Y-81972277D01*
X158663670Y-81807051D01*
X158659619Y-81803852D01*
X158659615Y-81803848D01*
X158492414Y-81671800D01*
X158492410Y-81671798D01*
X158488359Y-81668598D01*
X158447053Y-81645796D01*
X158397084Y-81595364D01*
X158382312Y-81525921D01*
X158407428Y-81459516D01*
X158434780Y-81432909D01*
X158503881Y-81383620D01*
X158613860Y-81305173D01*
X158661578Y-81257622D01*
X158733734Y-81185717D01*
X158772096Y-81147489D01*
X158795154Y-81115401D01*
X158899435Y-80970277D01*
X158902453Y-80966077D01*
X158904826Y-80961277D01*
X158999136Y-80770453D01*
X158999137Y-80770451D01*
X159001430Y-80765811D01*
X159052831Y-80596630D01*
X159064865Y-80557023D01*
X159064865Y-80557021D01*
X159066370Y-80552069D01*
X159095529Y-80330590D01*
X159096548Y-80288900D01*
X159097074Y-80267365D01*
X159097074Y-80267361D01*
X159097156Y-80264000D01*
X159078852Y-80041361D01*
X159024431Y-79824702D01*
X158935354Y-79619840D01*
X158865760Y-79512264D01*
X158816822Y-79436617D01*
X158816820Y-79436614D01*
X158814014Y-79432277D01*
X158807392Y-79424999D01*
X158666798Y-79270488D01*
X158635746Y-79206642D01*
X158644141Y-79136143D01*
X158689317Y-79081375D01*
X158715761Y-79067706D01*
X158822297Y-79027767D01*
X158830705Y-79024615D01*
X158947261Y-78937261D01*
X159034615Y-78820705D01*
X159085745Y-78684316D01*
X159092500Y-78622134D01*
X159092500Y-76825866D01*
X159085745Y-76763684D01*
X159034615Y-76627295D01*
X158947261Y-76510739D01*
X158830705Y-76423385D01*
X158694316Y-76372255D01*
X158632134Y-76365500D01*
X156835866Y-76365500D01*
X156773684Y-76372255D01*
X156637295Y-76423385D01*
X156520739Y-76510739D01*
X156507911Y-76527856D01*
X156451054Y-76570370D01*
X156380236Y-76575397D01*
X156317990Y-76541386D01*
X154472671Y-74696066D01*
X152569652Y-72793047D01*
X152562112Y-72784761D01*
X152558000Y-72778282D01*
X152508348Y-72731656D01*
X152505507Y-72728902D01*
X152485770Y-72709165D01*
X152482573Y-72706685D01*
X152473551Y-72698980D01*
X152447100Y-72674141D01*
X152441321Y-72668714D01*
X152434375Y-72664895D01*
X152434372Y-72664893D01*
X152423566Y-72658952D01*
X152407047Y-72648101D01*
X152401048Y-72643448D01*
X152391041Y-72635686D01*
X152383772Y-72632541D01*
X152383768Y-72632538D01*
X152350463Y-72618126D01*
X152339813Y-72612909D01*
X152301060Y-72591605D01*
X152281437Y-72586567D01*
X152262734Y-72580163D01*
X152251420Y-72575267D01*
X152251419Y-72575267D01*
X152244145Y-72572119D01*
X152236322Y-72570880D01*
X152236312Y-72570877D01*
X152200476Y-72565201D01*
X152188856Y-72562795D01*
X152153711Y-72553772D01*
X152153710Y-72553772D01*
X152146030Y-72551800D01*
X152125776Y-72551800D01*
X152106065Y-72550249D01*
X152093886Y-72548320D01*
X152086057Y-72547080D01*
X152078165Y-72547826D01*
X152042039Y-72551241D01*
X152030181Y-72551800D01*
X146075400Y-72551800D01*
X146007279Y-72531798D01*
X145988053Y-72515457D01*
X145987780Y-72515760D01*
X145982868Y-72511337D01*
X145978453Y-72506434D01*
X145934494Y-72474496D01*
X145829294Y-72398063D01*
X145829293Y-72398062D01*
X145823952Y-72394182D01*
X145817924Y-72391498D01*
X145817922Y-72391497D01*
X145655519Y-72319191D01*
X145655518Y-72319191D01*
X145649488Y-72316506D01*
X145556087Y-72296653D01*
X145469144Y-72278172D01*
X145469139Y-72278172D01*
X145462687Y-72276800D01*
X145271713Y-72276800D01*
X145265261Y-72278172D01*
X145265256Y-72278172D01*
X145178313Y-72296653D01*
X145084912Y-72316506D01*
X145078882Y-72319191D01*
X145078881Y-72319191D01*
X144916478Y-72391497D01*
X144916476Y-72391498D01*
X144910448Y-72394182D01*
X144905107Y-72398062D01*
X144905106Y-72398063D01*
X144855043Y-72434436D01*
X144755947Y-72506434D01*
X144751526Y-72511344D01*
X144751525Y-72511345D01*
X144642403Y-72632538D01*
X144628160Y-72648356D01*
X144532673Y-72813744D01*
X144473658Y-72995372D01*
X144453696Y-73185300D01*
X144454386Y-73191865D01*
X144470570Y-73345844D01*
X144473658Y-73375228D01*
X144532673Y-73556856D01*
X144628160Y-73722244D01*
X144632578Y-73727151D01*
X144632579Y-73727152D01*
X144746981Y-73854208D01*
X144755947Y-73864166D01*
X144761289Y-73868047D01*
X144761291Y-73868049D01*
X144805702Y-73900315D01*
X144849056Y-73956537D01*
X144855131Y-74027273D01*
X144822000Y-74090065D01*
X144760180Y-74124976D01*
X144742623Y-74127772D01*
X144720473Y-74129710D01*
X144551913Y-74144457D01*
X144546600Y-74145881D01*
X144546598Y-74145881D01*
X144336067Y-74202293D01*
X144336065Y-74202294D01*
X144330757Y-74203716D01*
X144325780Y-74206037D01*
X144325774Y-74206039D01*
X144175650Y-74276043D01*
X144105458Y-74286704D01*
X144040645Y-74257724D01*
X144001789Y-74198304D01*
X143996400Y-74161848D01*
X143996400Y-69434921D01*
X144016402Y-69366800D01*
X144070058Y-69320307D01*
X144140332Y-69310203D01*
X144155011Y-69313214D01*
X144322598Y-69358119D01*
X144322600Y-69358119D01*
X144327913Y-69359543D01*
X144556000Y-69379498D01*
X144784087Y-69359543D01*
X144789400Y-69358119D01*
X144789402Y-69358119D01*
X144999933Y-69301707D01*
X144999935Y-69301706D01*
X145005243Y-69300284D01*
X145037175Y-69285394D01*
X145207762Y-69205849D01*
X145207767Y-69205846D01*
X145212749Y-69203523D01*
X145318229Y-69129665D01*
X145395789Y-69075357D01*
X145395792Y-69075355D01*
X145400300Y-69072198D01*
X145466905Y-69005593D01*
X145529217Y-68971567D01*
X145600032Y-68976632D01*
X145645095Y-69005593D01*
X145711700Y-69072198D01*
X145716208Y-69075355D01*
X145716211Y-69075357D01*
X145793771Y-69129665D01*
X145899251Y-69203523D01*
X145904233Y-69205846D01*
X145904238Y-69205849D01*
X146074825Y-69285394D01*
X146106757Y-69300284D01*
X146112065Y-69301706D01*
X146112067Y-69301707D01*
X146322598Y-69358119D01*
X146322600Y-69358119D01*
X146327913Y-69359543D01*
X146556000Y-69379498D01*
X146784087Y-69359543D01*
X146789400Y-69358119D01*
X146789402Y-69358119D01*
X146999933Y-69301707D01*
X146999935Y-69301706D01*
X147005243Y-69300284D01*
X147037175Y-69285394D01*
X147207762Y-69205849D01*
X147207767Y-69205846D01*
X147212749Y-69203523D01*
X147318229Y-69129665D01*
X147395789Y-69075357D01*
X147395792Y-69075355D01*
X147400300Y-69072198D01*
X147466905Y-69005593D01*
X147529217Y-68971567D01*
X147600032Y-68976632D01*
X147645095Y-69005593D01*
X147711700Y-69072198D01*
X147716208Y-69075355D01*
X147716211Y-69075357D01*
X147793771Y-69129665D01*
X147899251Y-69203523D01*
X147904233Y-69205846D01*
X147904238Y-69205849D01*
X148074825Y-69285394D01*
X148106757Y-69300284D01*
X148112065Y-69301706D01*
X148112067Y-69301707D01*
X148322598Y-69358119D01*
X148322600Y-69358119D01*
X148327913Y-69359543D01*
X148556000Y-69379498D01*
X148784087Y-69359543D01*
X148789400Y-69358119D01*
X148789402Y-69358119D01*
X148999933Y-69301707D01*
X148999935Y-69301706D01*
X149005243Y-69300284D01*
X149037175Y-69285394D01*
X149207762Y-69205849D01*
X149207767Y-69205846D01*
X149212749Y-69203523D01*
X149318229Y-69129665D01*
X149395789Y-69075357D01*
X149395792Y-69075355D01*
X149400300Y-69072198D01*
X149466905Y-69005593D01*
X149529217Y-68971567D01*
X149600032Y-68976632D01*
X149645095Y-69005593D01*
X149711700Y-69072198D01*
X149716208Y-69075355D01*
X149716211Y-69075357D01*
X149793771Y-69129665D01*
X149899251Y-69203523D01*
X149904233Y-69205846D01*
X149904238Y-69205849D01*
X150074825Y-69285394D01*
X150106757Y-69300284D01*
X150112065Y-69301706D01*
X150112067Y-69301707D01*
X150322598Y-69358119D01*
X150322600Y-69358119D01*
X150327913Y-69359543D01*
X150556000Y-69379498D01*
X150784087Y-69359543D01*
X150789400Y-69358119D01*
X150789402Y-69358119D01*
X150999933Y-69301707D01*
X150999935Y-69301706D01*
X151005243Y-69300284D01*
X151037175Y-69285394D01*
X151207762Y-69205849D01*
X151207767Y-69205846D01*
X151212749Y-69203523D01*
X151318229Y-69129665D01*
X151395789Y-69075357D01*
X151395792Y-69075355D01*
X151400300Y-69072198D01*
X151466905Y-69005593D01*
X151529217Y-68971567D01*
X151600032Y-68976632D01*
X151645095Y-69005593D01*
X151711700Y-69072198D01*
X151716208Y-69075355D01*
X151716211Y-69075357D01*
X151793771Y-69129665D01*
X151899251Y-69203523D01*
X151904233Y-69205846D01*
X151904238Y-69205849D01*
X152074825Y-69285394D01*
X152106757Y-69300284D01*
X152112065Y-69301706D01*
X152112067Y-69301707D01*
X152322598Y-69358119D01*
X152322600Y-69358119D01*
X152327913Y-69359543D01*
X152556000Y-69379498D01*
X152784087Y-69359543D01*
X152789400Y-69358119D01*
X152789402Y-69358119D01*
X152999933Y-69301707D01*
X152999935Y-69301706D01*
X153005243Y-69300284D01*
X153037175Y-69285394D01*
X153207762Y-69205849D01*
X153207767Y-69205846D01*
X153212749Y-69203523D01*
X153318229Y-69129665D01*
X153395789Y-69075357D01*
X153395792Y-69075355D01*
X153400300Y-69072198D01*
X153466905Y-69005593D01*
X153529217Y-68971567D01*
X153600032Y-68976632D01*
X153645095Y-69005593D01*
X153711700Y-69072198D01*
X153716208Y-69075355D01*
X153716211Y-69075357D01*
X153793771Y-69129665D01*
X153899251Y-69203523D01*
X153904233Y-69205846D01*
X153904238Y-69205849D01*
X154074825Y-69285394D01*
X154106757Y-69300284D01*
X154112065Y-69301706D01*
X154112067Y-69301707D01*
X154322598Y-69358119D01*
X154322600Y-69358119D01*
X154327913Y-69359543D01*
X154556000Y-69379498D01*
X154784087Y-69359543D01*
X154789400Y-69358119D01*
X154789402Y-69358119D01*
X154999933Y-69301707D01*
X154999935Y-69301706D01*
X155005243Y-69300284D01*
X155037175Y-69285394D01*
X155207762Y-69205849D01*
X155207767Y-69205846D01*
X155212749Y-69203523D01*
X155318229Y-69129665D01*
X155395789Y-69075357D01*
X155395792Y-69075355D01*
X155400300Y-69072198D01*
X155466905Y-69005593D01*
X155529217Y-68971567D01*
X155600032Y-68976632D01*
X155645095Y-69005593D01*
X155711700Y-69072198D01*
X155716208Y-69075355D01*
X155716211Y-69075357D01*
X155793771Y-69129665D01*
X155899251Y-69203523D01*
X155904233Y-69205846D01*
X155904238Y-69205849D01*
X156074825Y-69285394D01*
X156106757Y-69300284D01*
X156112065Y-69301706D01*
X156112067Y-69301707D01*
X156322598Y-69358119D01*
X156322600Y-69358119D01*
X156327913Y-69359543D01*
X156556000Y-69379498D01*
X156784087Y-69359543D01*
X156789400Y-69358119D01*
X156789402Y-69358119D01*
X156999933Y-69301707D01*
X156999935Y-69301706D01*
X157005243Y-69300284D01*
X157037175Y-69285394D01*
X157207762Y-69205849D01*
X157207767Y-69205846D01*
X157212749Y-69203523D01*
X157318229Y-69129665D01*
X157395789Y-69075357D01*
X157395792Y-69075355D01*
X157400300Y-69072198D01*
X157466905Y-69005593D01*
X157529217Y-68971567D01*
X157600032Y-68976632D01*
X157645095Y-69005593D01*
X157711700Y-69072198D01*
X157716208Y-69075355D01*
X157716211Y-69075357D01*
X157793771Y-69129665D01*
X157899251Y-69203523D01*
X157904233Y-69205846D01*
X157904238Y-69205849D01*
X158074825Y-69285394D01*
X158106757Y-69300284D01*
X158112065Y-69301706D01*
X158112067Y-69301707D01*
X158322598Y-69358119D01*
X158322600Y-69358119D01*
X158327913Y-69359543D01*
X158556000Y-69379498D01*
X158784087Y-69359543D01*
X158789400Y-69358119D01*
X158789402Y-69358119D01*
X158999933Y-69301707D01*
X158999935Y-69301706D01*
X159005243Y-69300284D01*
X159037175Y-69285394D01*
X159207762Y-69205849D01*
X159207767Y-69205846D01*
X159212749Y-69203523D01*
X159318229Y-69129665D01*
X159395789Y-69075357D01*
X159395792Y-69075355D01*
X159400300Y-69072198D01*
X159466905Y-69005593D01*
X159529217Y-68971567D01*
X159600032Y-68976632D01*
X159645095Y-69005593D01*
X159711700Y-69072198D01*
X159716208Y-69075355D01*
X159716211Y-69075357D01*
X159793771Y-69129665D01*
X159899251Y-69203523D01*
X159904233Y-69205846D01*
X159904238Y-69205849D01*
X160074825Y-69285394D01*
X160106757Y-69300284D01*
X160112065Y-69301706D01*
X160112067Y-69301707D01*
X160322598Y-69358119D01*
X160322600Y-69358119D01*
X160327913Y-69359543D01*
X160556000Y-69379498D01*
X160784087Y-69359543D01*
X160789400Y-69358119D01*
X160789402Y-69358119D01*
X160999933Y-69301707D01*
X160999935Y-69301706D01*
X161005243Y-69300284D01*
X161037175Y-69285394D01*
X161207762Y-69205849D01*
X161207767Y-69205846D01*
X161212749Y-69203523D01*
X161318229Y-69129665D01*
X161395789Y-69075357D01*
X161395792Y-69075355D01*
X161400300Y-69072198D01*
X161466905Y-69005593D01*
X161529217Y-68971567D01*
X161600032Y-68976632D01*
X161645095Y-69005593D01*
X161711700Y-69072198D01*
X161716208Y-69075355D01*
X161716211Y-69075357D01*
X161793771Y-69129665D01*
X161899251Y-69203523D01*
X161904233Y-69205846D01*
X161904238Y-69205849D01*
X162074825Y-69285394D01*
X162106757Y-69300284D01*
X162112065Y-69301706D01*
X162112067Y-69301707D01*
X162322598Y-69358119D01*
X162322600Y-69358119D01*
X162327913Y-69359543D01*
X162556000Y-69379498D01*
X162784087Y-69359543D01*
X162789400Y-69358119D01*
X162789402Y-69358119D01*
X162999933Y-69301707D01*
X162999935Y-69301706D01*
X163005243Y-69300284D01*
X163037175Y-69285394D01*
X163207762Y-69205849D01*
X163207767Y-69205846D01*
X163212749Y-69203523D01*
X163318229Y-69129665D01*
X163395789Y-69075357D01*
X163395792Y-69075355D01*
X163400300Y-69072198D01*
X163466905Y-69005593D01*
X163529217Y-68971567D01*
X163600032Y-68976632D01*
X163645095Y-69005593D01*
X163711700Y-69072198D01*
X163716208Y-69075355D01*
X163716211Y-69075357D01*
X163793771Y-69129665D01*
X163899251Y-69203523D01*
X163904233Y-69205846D01*
X163904238Y-69205849D01*
X164074825Y-69285394D01*
X164106757Y-69300284D01*
X164112065Y-69301706D01*
X164112067Y-69301707D01*
X164322598Y-69358119D01*
X164322600Y-69358119D01*
X164327913Y-69359543D01*
X164556000Y-69379498D01*
X164784087Y-69359543D01*
X164789400Y-69358119D01*
X164789402Y-69358119D01*
X164999933Y-69301707D01*
X164999935Y-69301706D01*
X165005243Y-69300284D01*
X165037175Y-69285394D01*
X165207762Y-69205849D01*
X165207767Y-69205846D01*
X165212749Y-69203523D01*
X165318229Y-69129665D01*
X165395789Y-69075357D01*
X165395792Y-69075355D01*
X165400300Y-69072198D01*
X165466905Y-69005593D01*
X165529217Y-68971567D01*
X165600032Y-68976632D01*
G37*
G04 #@! TD.AperFunction*
G04 #@! TA.AperFunction,Conductor*
G36*
X131593895Y-77599755D02*
G01*
X131624492Y-77663820D01*
X131626100Y-77683888D01*
X131626100Y-80057333D01*
X131625573Y-80068516D01*
X131623898Y-80076009D01*
X131624147Y-80083935D01*
X131624147Y-80083936D01*
X131626038Y-80144086D01*
X131626100Y-80148045D01*
X131626100Y-80175956D01*
X131626597Y-80179890D01*
X131626597Y-80179891D01*
X131626605Y-80179956D01*
X131627538Y-80191793D01*
X131628927Y-80235989D01*
X131633227Y-80250789D01*
X131634578Y-80255439D01*
X131638587Y-80274800D01*
X131641126Y-80294897D01*
X131644045Y-80302268D01*
X131644045Y-80302270D01*
X131657404Y-80336012D01*
X131661249Y-80347243D01*
X131669226Y-80374701D01*
X131669023Y-80445698D01*
X131630468Y-80505314D01*
X131587374Y-80529618D01*
X131566756Y-80536357D01*
X131531047Y-80554946D01*
X131392975Y-80626822D01*
X131368607Y-80639507D01*
X131364474Y-80642610D01*
X131364471Y-80642612D01*
X131194203Y-80770453D01*
X131189965Y-80773635D01*
X131035629Y-80935138D01*
X131032720Y-80939403D01*
X131032714Y-80939411D01*
X130986123Y-81007711D01*
X130909743Y-81119680D01*
X130822249Y-81308171D01*
X130821088Y-81310672D01*
X130774264Y-81364039D01*
X130706021Y-81383620D01*
X130638025Y-81363197D01*
X130591865Y-81309254D01*
X130580800Y-81257622D01*
X130580800Y-78708295D01*
X130600802Y-78640174D01*
X130617705Y-78619199D01*
X130861714Y-78375191D01*
X131133358Y-78103547D01*
X131141637Y-78096013D01*
X131148118Y-78091900D01*
X131194744Y-78042248D01*
X131197498Y-78039407D01*
X131217235Y-78019670D01*
X131219715Y-78016473D01*
X131227420Y-78007451D01*
X131252259Y-77981000D01*
X131257686Y-77975221D01*
X131261505Y-77968275D01*
X131261507Y-77968272D01*
X131267448Y-77957466D01*
X131278299Y-77940947D01*
X131285858Y-77931201D01*
X131290714Y-77924941D01*
X131293859Y-77917672D01*
X131293862Y-77917668D01*
X131308274Y-77884363D01*
X131313491Y-77873713D01*
X131334795Y-77834960D01*
X131339833Y-77815337D01*
X131346237Y-77796634D01*
X131351133Y-77785320D01*
X131351133Y-77785319D01*
X131354281Y-77778045D01*
X131355520Y-77770222D01*
X131355523Y-77770212D01*
X131361199Y-77734376D01*
X131363605Y-77722756D01*
X131372628Y-77687611D01*
X131372628Y-77687610D01*
X131374600Y-77679930D01*
X131374600Y-77672001D01*
X131375093Y-77668098D01*
X131403475Y-77603021D01*
X131462534Y-77563618D01*
X131533520Y-77562401D01*
X131593895Y-77599755D01*
G37*
G04 #@! TD.AperFunction*
G04 #@! TA.AperFunction,Conductor*
G36*
X124752121Y-67832002D02*
G01*
X124798614Y-67885658D01*
X124810000Y-67938000D01*
X124810000Y-69355884D01*
X124814475Y-69371123D01*
X124815865Y-69372328D01*
X124823548Y-69373999D01*
X125400669Y-69373999D01*
X125407490Y-69373629D01*
X125458352Y-69368105D01*
X125473604Y-69364479D01*
X125594054Y-69319324D01*
X125609649Y-69310786D01*
X125645935Y-69283591D01*
X125712442Y-69258743D01*
X125781824Y-69273796D01*
X125832054Y-69323970D01*
X125847500Y-69384417D01*
X125847500Y-72860071D01*
X125827498Y-72928192D01*
X125779137Y-72969699D01*
X125780000Y-72971194D01*
X125774280Y-72974497D01*
X125768248Y-72977182D01*
X125762907Y-72981062D01*
X125762906Y-72981063D01*
X125716367Y-73014876D01*
X125613747Y-73089434D01*
X125609326Y-73094344D01*
X125609325Y-73094345D01*
X125531791Y-73180456D01*
X125485960Y-73231356D01*
X125482659Y-73237074D01*
X125416232Y-73352129D01*
X125390473Y-73396744D01*
X125331458Y-73578372D01*
X125330768Y-73584933D01*
X125330768Y-73584935D01*
X125326615Y-73624452D01*
X125311496Y-73768300D01*
X125312186Y-73774865D01*
X125328922Y-73934095D01*
X125331458Y-73958228D01*
X125390473Y-74139856D01*
X125393776Y-74145578D01*
X125393777Y-74145579D01*
X125397984Y-74152866D01*
X125436820Y-74220130D01*
X125447712Y-74238996D01*
X125464450Y-74307991D01*
X125441230Y-74375083D01*
X125385423Y-74418970D01*
X125314748Y-74425719D01*
X125266322Y-74405209D01*
X125121258Y-74303634D01*
X125121256Y-74303633D01*
X125116749Y-74300477D01*
X125111767Y-74298154D01*
X125111762Y-74298151D01*
X124914225Y-74206039D01*
X124914224Y-74206039D01*
X124909243Y-74203716D01*
X124903935Y-74202294D01*
X124903933Y-74202293D01*
X124693402Y-74145881D01*
X124693400Y-74145881D01*
X124688087Y-74144457D01*
X124460000Y-74124502D01*
X124231913Y-74144457D01*
X124226600Y-74145881D01*
X124226598Y-74145881D01*
X124165011Y-74162383D01*
X124094034Y-74160693D01*
X124035239Y-74120899D01*
X124007291Y-74055634D01*
X124006400Y-74040676D01*
X124006400Y-69500000D01*
X124026402Y-69431879D01*
X124080058Y-69385386D01*
X124132400Y-69374000D01*
X124283885Y-69374000D01*
X124299124Y-69369525D01*
X124300329Y-69368135D01*
X124302000Y-69360452D01*
X124302000Y-67938000D01*
X124322002Y-67869879D01*
X124375658Y-67823386D01*
X124428000Y-67812000D01*
X124684000Y-67812000D01*
X124752121Y-67832002D01*
G37*
G04 #@! TD.AperFunction*
G04 #@! TA.AperFunction,Conductor*
G36*
X172600032Y-67766924D02*
G01*
X172645095Y-67795885D01*
X172826115Y-67976905D01*
X172860141Y-68039217D01*
X172855076Y-68110032D01*
X172826115Y-68155095D01*
X171840923Y-69140287D01*
X171834493Y-69152062D01*
X171843789Y-69164077D01*
X171894994Y-69199931D01*
X171904494Y-69205417D01*
X172001507Y-69250655D01*
X172054791Y-69297572D01*
X172074252Y-69365849D01*
X172053710Y-69433809D01*
X172037351Y-69453944D01*
X171404595Y-70086700D01*
X171342283Y-70120726D01*
X171271468Y-70115661D01*
X171214632Y-70073114D01*
X171189821Y-70006594D01*
X171189500Y-69997605D01*
X171189500Y-69285394D01*
X171209502Y-69217273D01*
X171243229Y-69182181D01*
X171395789Y-69075357D01*
X171395792Y-69075355D01*
X171400300Y-69072198D01*
X171562198Y-68910300D01*
X171693523Y-68722749D01*
X171695846Y-68717767D01*
X171695849Y-68717762D01*
X171787961Y-68520225D01*
X171787961Y-68520224D01*
X171790284Y-68515243D01*
X171797189Y-68489473D01*
X171829801Y-68432989D01*
X172466905Y-67795885D01*
X172529217Y-67761859D01*
X172600032Y-67766924D01*
G37*
G04 #@! TD.AperFunction*
G04 #@! TA.AperFunction,Conductor*
G36*
X124600032Y-62666924D02*
G01*
X124645095Y-62695885D01*
X125282199Y-63332989D01*
X125314811Y-63389473D01*
X125321716Y-63415243D01*
X125324039Y-63420224D01*
X125324039Y-63420225D01*
X125416151Y-63617762D01*
X125416154Y-63617767D01*
X125418477Y-63622749D01*
X125457898Y-63679048D01*
X125523429Y-63772635D01*
X125549802Y-63810300D01*
X125711700Y-63972198D01*
X125716208Y-63975355D01*
X125716211Y-63975357D01*
X125716281Y-63975406D01*
X125899251Y-64103523D01*
X125904233Y-64105846D01*
X125904238Y-64105849D01*
X126012816Y-64156479D01*
X126106757Y-64200284D01*
X126112065Y-64201706D01*
X126112067Y-64201707D01*
X126322598Y-64258119D01*
X126322600Y-64258119D01*
X126327913Y-64259543D01*
X126556000Y-64279498D01*
X126784087Y-64259543D01*
X126789400Y-64258119D01*
X126789402Y-64258119D01*
X126999933Y-64201707D01*
X126999935Y-64201706D01*
X127005243Y-64200284D01*
X127099184Y-64156479D01*
X127207762Y-64105849D01*
X127207767Y-64105846D01*
X127212749Y-64103523D01*
X127395719Y-63975406D01*
X127395789Y-63975357D01*
X127395792Y-63975355D01*
X127400300Y-63972198D01*
X127466905Y-63905593D01*
X127529217Y-63871567D01*
X127600032Y-63876632D01*
X127645095Y-63905593D01*
X127711700Y-63972198D01*
X127716208Y-63975355D01*
X127716211Y-63975357D01*
X127716281Y-63975406D01*
X127899251Y-64103523D01*
X127904233Y-64105846D01*
X127904238Y-64105849D01*
X128012816Y-64156479D01*
X128106757Y-64200284D01*
X128147587Y-64211224D01*
X128208208Y-64248176D01*
X128239230Y-64312037D01*
X128230801Y-64382531D01*
X128204069Y-64422026D01*
X127570800Y-65055295D01*
X127508488Y-65089321D01*
X127481705Y-65092200D01*
X123197267Y-65092200D01*
X123186084Y-65091673D01*
X123178591Y-65089998D01*
X123170665Y-65090247D01*
X123170664Y-65090247D01*
X123110501Y-65092138D01*
X123106543Y-65092200D01*
X123078644Y-65092200D01*
X123074654Y-65092704D01*
X123062820Y-65093636D01*
X123018611Y-65095026D01*
X123010997Y-65097238D01*
X123010992Y-65097239D01*
X122999159Y-65100677D01*
X122979796Y-65104688D01*
X122959703Y-65107226D01*
X122952336Y-65110143D01*
X122952331Y-65110144D01*
X122918592Y-65123502D01*
X122907365Y-65127346D01*
X122864907Y-65139682D01*
X122858081Y-65143719D01*
X122847472Y-65149993D01*
X122829724Y-65158688D01*
X122810883Y-65166148D01*
X122804467Y-65170810D01*
X122804466Y-65170810D01*
X122775113Y-65192136D01*
X122765193Y-65198652D01*
X122733965Y-65217120D01*
X122733962Y-65217122D01*
X122727138Y-65221158D01*
X122712817Y-65235479D01*
X122697784Y-65248319D01*
X122681393Y-65260228D01*
X122676342Y-65266334D01*
X122653202Y-65294305D01*
X122645212Y-65303084D01*
X122588095Y-65360201D01*
X122525783Y-65394227D01*
X122454968Y-65389162D01*
X122398132Y-65346615D01*
X122373321Y-65280095D01*
X122373000Y-65271106D01*
X122373000Y-64568794D01*
X122393002Y-64500673D01*
X122409905Y-64479699D01*
X122837542Y-64052062D01*
X123834493Y-64052062D01*
X123843789Y-64064077D01*
X123894994Y-64099931D01*
X123904489Y-64105414D01*
X124101947Y-64197490D01*
X124112239Y-64201236D01*
X124322688Y-64257625D01*
X124333481Y-64259528D01*
X124550525Y-64278517D01*
X124561475Y-64278517D01*
X124778519Y-64259528D01*
X124789312Y-64257625D01*
X124999761Y-64201236D01*
X125010053Y-64197490D01*
X125207511Y-64105414D01*
X125217006Y-64099931D01*
X125269048Y-64063491D01*
X125277424Y-64053012D01*
X125270356Y-64039566D01*
X124568812Y-63338022D01*
X124554868Y-63330408D01*
X124553035Y-63330539D01*
X124546420Y-63334790D01*
X123840923Y-64040287D01*
X123834493Y-64052062D01*
X122837542Y-64052062D01*
X123250213Y-63639391D01*
X123312525Y-63605365D01*
X123383340Y-63610430D01*
X123442521Y-63656215D01*
X123458509Y-63679048D01*
X123468988Y-63687424D01*
X123482434Y-63680356D01*
X124466905Y-62695885D01*
X124529217Y-62661859D01*
X124600032Y-62666924D01*
G37*
G04 #@! TD.AperFunction*
M02*
