G04 #@! TF.GenerationSoftware,KiCad,Pcbnew,(6.0.11)*
G04 #@! TF.CreationDate,2024-06-19T21:48:15+02:00*
G04 #@! TF.ProjectId,tcbm2sd,7463626d-3273-4642-9e6b-696361645f70,1.0*
G04 #@! TF.SameCoordinates,Original*
G04 #@! TF.FileFunction,Copper,L1,Top*
G04 #@! TF.FilePolarity,Positive*
%FSLAX46Y46*%
G04 Gerber Fmt 4.6, Leading zero omitted, Abs format (unit mm)*
G04 Created by KiCad (PCBNEW (6.0.11)) date 2024-06-19 21:48:15*
%MOMM*%
%LPD*%
G01*
G04 APERTURE LIST*
G04 Aperture macros list*
%AMRoundRect*
0 Rectangle with rounded corners*
0 $1 Rounding radius*
0 $2 $3 $4 $5 $6 $7 $8 $9 X,Y pos of 4 corners*
0 Add a 4 corners polygon primitive as box body*
4,1,4,$2,$3,$4,$5,$6,$7,$8,$9,$2,$3,0*
0 Add four circle primitives for the rounded corners*
1,1,$1+$1,$2,$3*
1,1,$1+$1,$4,$5*
1,1,$1+$1,$6,$7*
1,1,$1+$1,$8,$9*
0 Add four rect primitives between the rounded corners*
20,1,$1+$1,$2,$3,$4,$5,0*
20,1,$1+$1,$4,$5,$6,$7,0*
20,1,$1+$1,$6,$7,$8,$9,0*
20,1,$1+$1,$8,$9,$2,$3,0*%
G04 Aperture macros list end*
G04 #@! TA.AperFunction,SMDPad,CuDef*
%ADD10RoundRect,0.250000X-0.097227X0.574524X-0.574524X0.097227X0.097227X-0.574524X0.574524X-0.097227X0*%
G04 #@! TD*
G04 #@! TA.AperFunction,SMDPad,CuDef*
%ADD11RoundRect,0.250000X0.574524X0.097227X0.097227X0.574524X-0.574524X-0.097227X-0.097227X-0.574524X0*%
G04 #@! TD*
G04 #@! TA.AperFunction,ComponentPad*
%ADD12R,1.700000X1.700000*%
G04 #@! TD*
G04 #@! TA.AperFunction,ComponentPad*
%ADD13O,1.700000X1.700000*%
G04 #@! TD*
G04 #@! TA.AperFunction,SMDPad,CuDef*
%ADD14RoundRect,0.250000X-0.574524X-0.097227X-0.097227X-0.574524X0.574524X0.097227X0.097227X0.574524X0*%
G04 #@! TD*
G04 #@! TA.AperFunction,SMDPad,CuDef*
%ADD15RoundRect,0.075000X-0.415425X-0.521491X0.521491X0.415425X0.415425X0.521491X-0.521491X-0.415425X0*%
G04 #@! TD*
G04 #@! TA.AperFunction,SMDPad,CuDef*
%ADD16RoundRect,0.075000X0.415425X-0.521491X0.521491X-0.415425X-0.415425X0.521491X-0.521491X0.415425X0*%
G04 #@! TD*
G04 #@! TA.AperFunction,ComponentPad*
%ADD17R,1.600000X1.600000*%
G04 #@! TD*
G04 #@! TA.AperFunction,ComponentPad*
%ADD18O,1.600000X1.600000*%
G04 #@! TD*
G04 #@! TA.AperFunction,ComponentPad*
%ADD19C,1.600000*%
G04 #@! TD*
G04 #@! TA.AperFunction,SMDPad,CuDef*
%ADD20RoundRect,0.112500X-0.337500X-4.512500X0.337500X-4.512500X0.337500X4.512500X-0.337500X4.512500X0*%
G04 #@! TD*
G04 #@! TA.AperFunction,ViaPad*
%ADD21C,0.800000*%
G04 #@! TD*
G04 #@! TA.AperFunction,Conductor*
%ADD22C,0.250000*%
G04 #@! TD*
G04 APERTURE END LIST*
D10*
X157705623Y-129822377D03*
X156238377Y-131289623D03*
D11*
X156238377Y-112550377D03*
X157705623Y-114017623D03*
D12*
X124348000Y-133351300D03*
D13*
X126888000Y-133351300D03*
X129428000Y-133351300D03*
D14*
X140433623Y-131289623D03*
X138966377Y-129822377D03*
D12*
X173731000Y-133350000D03*
D13*
X173731000Y-130810000D03*
D12*
X173736000Y-124460000D03*
D13*
X173736000Y-121920000D03*
X173736000Y-119380000D03*
X173736000Y-116840000D03*
X173736000Y-114300000D03*
X173736000Y-111760000D03*
D15*
X141680357Y-123272342D03*
X142033911Y-123625895D03*
X142387464Y-123979449D03*
X142741018Y-124333002D03*
X143094571Y-124686555D03*
X143448124Y-125040109D03*
X143801678Y-125393662D03*
X144155231Y-125747215D03*
X144508785Y-126100769D03*
X144862338Y-126454322D03*
X145215891Y-126807876D03*
X145569445Y-127161429D03*
X145922998Y-127514982D03*
X146276551Y-127868536D03*
X146630105Y-128222089D03*
X146983658Y-128575643D03*
D16*
X149688342Y-128575643D03*
X150041895Y-128222089D03*
X150395449Y-127868536D03*
X150749002Y-127514982D03*
X151102555Y-127161429D03*
X151456109Y-126807876D03*
X151809662Y-126454322D03*
X152163215Y-126100769D03*
X152516769Y-125747215D03*
X152870322Y-125393662D03*
X153223876Y-125040109D03*
X153577429Y-124686555D03*
X153930982Y-124333002D03*
X154284536Y-123979449D03*
X154638089Y-123625895D03*
X154991643Y-123272342D03*
D15*
X154991643Y-120567658D03*
X154638089Y-120214105D03*
X154284536Y-119860551D03*
X153930982Y-119506998D03*
X153577429Y-119153445D03*
X153223876Y-118799891D03*
X152870322Y-118446338D03*
X152516769Y-118092785D03*
X152163215Y-117739231D03*
X151809662Y-117385678D03*
X151456109Y-117032124D03*
X151102555Y-116678571D03*
X150749002Y-116325018D03*
X150395449Y-115971464D03*
X150041895Y-115617911D03*
X149688342Y-115264357D03*
D16*
X146983658Y-115264357D03*
X146630105Y-115617911D03*
X146276551Y-115971464D03*
X145922998Y-116325018D03*
X145569445Y-116678571D03*
X145215891Y-117032124D03*
X144862338Y-117385678D03*
X144508785Y-117739231D03*
X144155231Y-118092785D03*
X143801678Y-118446338D03*
X143448124Y-118799891D03*
X143094571Y-119153445D03*
X142741018Y-119506998D03*
X142387464Y-119860551D03*
X142033911Y-120214105D03*
X141680357Y-120567658D03*
D17*
X124460000Y-90678000D03*
D18*
X127000000Y-90678000D03*
X129540000Y-90678000D03*
X132080000Y-90678000D03*
X134620000Y-90678000D03*
X137160000Y-90678000D03*
X139700000Y-90678000D03*
X142240000Y-90678000D03*
X144780000Y-90678000D03*
X147320000Y-90678000D03*
X149860000Y-90678000D03*
X152400000Y-90678000D03*
X152400000Y-75438000D03*
X149860000Y-75438000D03*
X147320000Y-75438000D03*
X144780000Y-75438000D03*
X142240000Y-75438000D03*
X139700000Y-75438000D03*
X137160000Y-75438000D03*
X134620000Y-75438000D03*
X132080000Y-75438000D03*
X129540000Y-75438000D03*
X127000000Y-75438000D03*
X124460000Y-75438000D03*
X135890000Y-77978000D03*
X133350000Y-77978000D03*
X146050000Y-77978000D03*
X143510000Y-77978000D03*
D12*
X157734000Y-77724000D03*
D13*
X157734000Y-80264000D03*
X157734000Y-82804000D03*
X157734000Y-85344000D03*
X157734000Y-87884000D03*
X157734000Y-90424000D03*
D17*
X124556000Y-67330000D03*
D19*
X126556000Y-67330000D03*
X128556000Y-67330000D03*
X130556000Y-67330000D03*
X132556000Y-67330000D03*
X134556000Y-67330000D03*
X136556000Y-67330000D03*
X138556000Y-67330000D03*
X140556000Y-67330000D03*
X142556000Y-67330000D03*
X144556000Y-67330000D03*
X146556000Y-67330000D03*
X148556000Y-67330000D03*
X150556000Y-67330000D03*
X152556000Y-67330000D03*
X154556000Y-67330000D03*
X156556000Y-67330000D03*
X158556000Y-67330000D03*
X160556000Y-67330000D03*
X162556000Y-67330000D03*
X164556000Y-67330000D03*
X166556000Y-67330000D03*
X168556000Y-67330000D03*
X170556000Y-67330000D03*
X172556000Y-67330000D03*
X124556000Y-62230000D03*
X168556000Y-62230000D03*
X126556000Y-62230000D03*
X170556000Y-62230000D03*
X128556000Y-62230000D03*
X172556000Y-62230000D03*
X130556000Y-62230000D03*
X132556000Y-62230000D03*
X134556000Y-62230000D03*
X136556000Y-62230000D03*
X138556000Y-62230000D03*
X140556000Y-62230000D03*
X142556000Y-62230000D03*
X144556000Y-62230000D03*
X146556000Y-62230000D03*
X148556000Y-62230000D03*
X150556000Y-62230000D03*
X152556000Y-62230000D03*
X154556000Y-62230000D03*
X156556000Y-62230000D03*
X158556000Y-62230000D03*
X160556000Y-62230000D03*
X162556000Y-62230000D03*
X164556000Y-62230000D03*
X166556000Y-62230000D03*
D12*
X122682000Y-98044000D03*
D13*
X122682000Y-95504000D03*
D10*
X140433623Y-112550377D03*
X138966377Y-114017623D03*
D20*
X124501100Y-145503600D03*
X126501100Y-145503600D03*
X128501100Y-145503600D03*
X130501100Y-145503600D03*
X132501100Y-145503600D03*
X134501100Y-145503600D03*
X136501100Y-145503600D03*
X138501100Y-145503600D03*
X140501100Y-145503600D03*
X142501100Y-145503600D03*
X144501100Y-145503600D03*
X146501100Y-145503600D03*
X148501100Y-145503600D03*
X150501100Y-145503600D03*
X152501100Y-145503600D03*
X154501100Y-145503600D03*
X156501100Y-145503600D03*
X158501100Y-145503600D03*
X160501100Y-145503600D03*
X162501100Y-145503600D03*
X164501100Y-145503600D03*
X166501100Y-145503600D03*
X168501100Y-145503600D03*
X170501100Y-145503600D03*
X172501100Y-145503600D03*
D21*
X167397700Y-140585800D03*
X167397700Y-76407700D03*
X174194100Y-69330400D03*
X169683900Y-137760700D03*
X125313300Y-139605300D03*
X169947500Y-139354300D03*
X146431200Y-133153800D03*
X148346600Y-130496400D03*
X143366200Y-134126700D03*
X147701400Y-129791500D03*
X158105600Y-121518900D03*
X171389900Y-123972500D03*
X157958300Y-127923200D03*
X140232300Y-120061800D03*
X148832000Y-131594800D03*
X149774100Y-126534900D03*
X149909400Y-117313200D03*
X147486000Y-78058200D03*
X140467800Y-116741400D03*
X123844400Y-100034600D03*
X147173400Y-119637500D03*
X155065200Y-122345000D03*
X155324100Y-124913600D03*
X152947400Y-123483300D03*
X145397100Y-118678300D03*
X156767600Y-127575300D03*
X132080000Y-73337300D03*
X138966400Y-128194600D03*
X140978200Y-114146000D03*
X150812500Y-118373000D03*
X139754000Y-126400300D03*
X152101200Y-95469700D03*
X150519900Y-94140800D03*
X150943800Y-86938100D03*
X137160000Y-87897500D03*
X149688300Y-108438300D03*
X147157000Y-114403500D03*
X146028600Y-113613200D03*
X145349800Y-108302200D03*
X145304200Y-111021800D03*
X144078000Y-106827100D03*
X144257600Y-109974900D03*
X142968300Y-106641600D03*
X143428300Y-109268100D03*
X139578500Y-94175800D03*
X138063500Y-95200800D03*
X141244700Y-117987600D03*
X132702100Y-124429500D03*
X138398600Y-124429500D03*
X132702100Y-133748700D03*
X158930800Y-75704800D03*
X160327700Y-118143900D03*
X151752300Y-128835700D03*
X150790300Y-124609900D03*
X157678900Y-118999300D03*
X159542700Y-79882000D03*
X153326300Y-127872900D03*
X160540500Y-122245400D03*
X157188300Y-69892300D03*
X150426900Y-119720800D03*
X153525500Y-116975400D03*
X154862800Y-116652700D03*
X151713000Y-119719100D03*
X160501100Y-126291400D03*
X154687700Y-126102800D03*
X163804500Y-124335700D03*
X156030900Y-124214200D03*
X164501100Y-123535100D03*
X156804300Y-123428700D03*
X132501100Y-135969200D03*
X136628900Y-131841400D03*
X136893000Y-95171200D03*
X131551600Y-87257100D03*
X131551600Y-77856700D03*
X130362900Y-74335300D03*
X155542200Y-113808800D03*
X173511700Y-144857600D03*
X124794400Y-73118700D03*
X139039000Y-112555200D03*
X152657900Y-129295100D03*
X128040700Y-85559400D03*
X156249700Y-132690500D03*
X123467200Y-144656000D03*
X140433600Y-129733400D03*
X144159900Y-129664600D03*
X146171400Y-118007100D03*
X152695800Y-116404300D03*
X147068700Y-131931600D03*
X138298000Y-134279500D03*
X138459500Y-126137200D03*
X127068700Y-117967300D03*
X126080800Y-104243400D03*
X141681700Y-121578200D03*
X137442500Y-136097200D03*
X136939300Y-133995000D03*
X135949600Y-129526200D03*
X145603800Y-125338500D03*
X136031100Y-135310900D03*
X136707700Y-92855000D03*
X138266400Y-79207200D03*
X138489200Y-76952600D03*
X142683300Y-136725400D03*
X144127200Y-136672000D03*
X175785300Y-62382800D03*
X171419300Y-114439100D03*
X143443500Y-127090700D03*
X174954500Y-89871500D03*
X159792600Y-105010700D03*
X158546700Y-137615600D03*
X148134200Y-134853900D03*
X155535500Y-119002300D03*
X147156400Y-125360100D03*
X158558200Y-109240000D03*
X156510000Y-138100400D03*
X145751900Y-135347700D03*
X165648200Y-133767800D03*
X165702400Y-76173400D03*
X163798200Y-99973700D03*
X163125200Y-134518300D03*
X151863000Y-134353600D03*
X141464000Y-126487900D03*
X127113800Y-115571400D03*
X141040200Y-136090400D03*
X144795400Y-135859800D03*
X161922100Y-133391000D03*
X162072500Y-78808700D03*
X146472900Y-126065100D03*
X150217000Y-137711100D03*
X149464400Y-129463500D03*
X162469600Y-116597900D03*
X162781400Y-80062400D03*
X150732700Y-135247500D03*
X161334500Y-136562100D03*
X163153200Y-99159300D03*
X147395500Y-135916700D03*
X159372500Y-107667400D03*
X157208900Y-136884900D03*
X121668900Y-115630800D03*
X138159800Y-127391300D03*
X138972300Y-139033700D03*
X142069600Y-139294000D03*
X144026800Y-123304800D03*
X127817900Y-96154800D03*
D22*
X167397700Y-140585800D02*
X167397700Y-76407700D01*
X168468600Y-60317400D02*
X166556000Y-62230000D01*
X173348900Y-60317400D02*
X168468600Y-60317400D01*
X174497300Y-61465800D02*
X173348900Y-60317400D01*
X174497300Y-69027200D02*
X174497300Y-61465800D01*
X174194100Y-69330400D02*
X174497300Y-69027200D01*
X169683900Y-71728500D02*
X169683900Y-137760700D01*
X173636700Y-67775700D02*
X169683900Y-71728500D01*
X173636700Y-61761700D02*
X173636700Y-67775700D01*
X173010900Y-61135900D02*
X173636700Y-61761700D01*
X171650100Y-61135900D02*
X173010900Y-61135900D01*
X170556000Y-62230000D02*
X171650100Y-61135900D01*
X123168200Y-137460200D02*
X125313300Y-139605300D01*
X123168200Y-115607000D02*
X123168200Y-137460200D01*
X121354200Y-113793000D02*
X123168200Y-115607000D01*
X121354200Y-65638600D02*
X121354200Y-113793000D01*
X122817100Y-64175700D02*
X121354200Y-65638600D01*
X124610300Y-64175700D02*
X122817100Y-64175700D01*
X126556000Y-62230000D02*
X124610300Y-64175700D01*
X170064300Y-60721700D02*
X168556000Y-62230000D01*
X173181400Y-60721700D02*
X170064300Y-60721700D01*
X174067500Y-61607800D02*
X173181400Y-60721700D01*
X174067500Y-68361400D02*
X174067500Y-61607800D01*
X170476500Y-71952400D02*
X174067500Y-68361400D01*
X170476500Y-138825300D02*
X170476500Y-71952400D01*
X169947500Y-139354300D02*
X170476500Y-138825300D01*
X170501100Y-140868400D02*
X170501100Y-145503600D01*
X169004600Y-139371900D02*
X170501100Y-140868400D01*
X169004600Y-68881400D02*
X169004600Y-139371900D01*
X170556000Y-67330000D02*
X169004600Y-68881400D01*
X168501100Y-67384900D02*
X168556000Y-67330000D01*
X168501100Y-145503600D02*
X168501100Y-67384900D01*
X166556000Y-145448700D02*
X166556000Y-67330000D01*
X166501100Y-145503600D02*
X166556000Y-145448700D01*
X149511300Y-144493400D02*
X148501100Y-145503600D01*
X149511300Y-130700400D02*
X149511300Y-144493400D01*
X148785100Y-129974200D02*
X149511300Y-130700400D01*
X148785100Y-128040500D02*
X148785100Y-129974200D01*
X149048600Y-127777000D02*
X148785100Y-128040500D01*
X149048600Y-124004300D02*
X149048600Y-127777000D01*
X148709100Y-123664800D02*
X149048600Y-124004300D01*
X148709100Y-109090000D02*
X148709100Y-123664800D01*
X145713600Y-106094500D02*
X148709100Y-109090000D01*
X145713600Y-95405400D02*
X145713600Y-106094500D01*
X148556000Y-92563000D02*
X145713600Y-95405400D01*
X148556000Y-67330000D02*
X148556000Y-92563000D01*
X146431200Y-135629100D02*
X146431200Y-133153800D01*
X144501100Y-137559200D02*
X146431200Y-135629100D01*
X144501100Y-145503600D02*
X144501100Y-137559200D01*
X148380800Y-130462200D02*
X148346600Y-130496400D01*
X148380800Y-127868500D02*
X148380800Y-130462200D01*
X148644300Y-127605000D02*
X148380800Y-127868500D01*
X148644300Y-124171800D02*
X148644300Y-127605000D01*
X148304800Y-123832300D02*
X148644300Y-124171800D01*
X148304800Y-112408600D02*
X148304800Y-123832300D01*
X144670000Y-108773800D02*
X148304800Y-112408600D01*
X144670000Y-107195800D02*
X144670000Y-108773800D01*
X144757300Y-107108500D02*
X144670000Y-107195800D01*
X144757300Y-93790000D02*
X144757300Y-107108500D01*
X145861800Y-92685500D02*
X144757300Y-93790000D01*
X145861800Y-89412000D02*
X145861800Y-92685500D01*
X144637400Y-88187600D02*
X145861800Y-89412000D01*
X144637400Y-77390400D02*
X144637400Y-88187600D01*
X143691400Y-76444400D02*
X144637400Y-77390400D01*
X143691400Y-68194600D02*
X143691400Y-76444400D01*
X144556000Y-67330000D02*
X143691400Y-68194600D01*
X143366200Y-144638500D02*
X143366200Y-134126700D01*
X142501100Y-145503600D02*
X143366200Y-144638500D01*
X147963500Y-129529400D02*
X147701400Y-129791500D01*
X147963500Y-127244400D02*
X147963500Y-129529400D01*
X148240000Y-126967900D02*
X147963500Y-127244400D01*
X148240000Y-124339300D02*
X148240000Y-126967900D01*
X147897500Y-123996800D02*
X148240000Y-124339300D01*
X147897500Y-112585900D02*
X147897500Y-123996800D01*
X141109400Y-105797800D02*
X147897500Y-112585900D01*
X141109400Y-68776600D02*
X141109400Y-105797800D01*
X142556000Y-67330000D02*
X141109400Y-68776600D01*
X138430000Y-69456000D02*
X140556000Y-67330000D01*
X138430000Y-76047300D02*
X138430000Y-69456000D01*
X137574800Y-76902500D02*
X138430000Y-76047300D01*
X137574800Y-82319500D02*
X137574800Y-76902500D01*
X138287800Y-83032500D02*
X137574800Y-82319500D01*
X138287800Y-92731900D02*
X138287800Y-83032500D01*
X135270200Y-95749500D02*
X138287800Y-92731900D01*
X135270200Y-133408000D02*
X135270200Y-95749500D01*
X136713600Y-134851400D02*
X135270200Y-133408000D01*
X136713600Y-137849400D02*
X136713600Y-134851400D01*
X140501100Y-141636900D02*
X136713600Y-137849400D01*
X140501100Y-145503600D02*
X140501100Y-141636900D01*
X135890000Y-69996000D02*
X138556000Y-67330000D01*
X135890000Y-76263000D02*
X135890000Y-69996000D01*
X134799500Y-77353500D02*
X135890000Y-76263000D01*
X134799500Y-80400100D02*
X134799500Y-77353500D01*
X135702200Y-81302800D02*
X134799500Y-80400100D01*
X135702200Y-92902000D02*
X135702200Y-81302800D01*
X134460100Y-94144100D02*
X135702200Y-92902000D01*
X134460100Y-136895600D02*
X134460100Y-94144100D01*
X138501100Y-140936600D02*
X134460100Y-136895600D01*
X138501100Y-145503600D02*
X138501100Y-140936600D01*
X133159300Y-70726700D02*
X136556000Y-67330000D01*
X133159300Y-76516400D02*
X133159300Y-70726700D01*
X132249700Y-77426000D02*
X133159300Y-76516400D01*
X132249700Y-78420000D02*
X132249700Y-77426000D01*
X133497200Y-79667500D02*
X132249700Y-78420000D01*
X133497200Y-120986800D02*
X133497200Y-79667500D01*
X134055800Y-121545400D02*
X133497200Y-120986800D01*
X134055800Y-137388000D02*
X134055800Y-121545400D01*
X136501100Y-139833300D02*
X134055800Y-137388000D01*
X136501100Y-145503600D02*
X136501100Y-139833300D01*
X131311600Y-70574400D02*
X134556000Y-67330000D01*
X131311600Y-74513600D02*
X131311600Y-70574400D01*
X130868000Y-74957200D02*
X131311600Y-74513600D01*
X130868000Y-118982300D02*
X130868000Y-74957200D01*
X133584800Y-121699100D02*
X130868000Y-118982300D01*
X133584800Y-144587300D02*
X133584800Y-121699100D01*
X134501100Y-145503600D02*
X133584800Y-144587300D01*
X130564100Y-145440600D02*
X130501100Y-145503600D01*
X130564100Y-132361900D02*
X130564100Y-145440600D01*
X129078000Y-130875800D02*
X130564100Y-132361900D01*
X129078000Y-94128000D02*
X129078000Y-130875800D01*
X128416200Y-93466200D02*
X129078000Y-94128000D01*
X128416200Y-90232500D02*
X128416200Y-93466200D01*
X128766300Y-89882400D02*
X128416200Y-90232500D01*
X128766300Y-85185700D02*
X128766300Y-89882400D01*
X128456100Y-84875500D02*
X128766300Y-85185700D01*
X128456100Y-69429900D02*
X128456100Y-84875500D01*
X130556000Y-67330000D02*
X128456100Y-69429900D01*
X173731000Y-130810000D02*
X173731000Y-129680700D01*
X156269100Y-119682400D02*
X158105600Y-121518900D01*
X155169800Y-119682400D02*
X156269100Y-119682400D01*
X154638100Y-120214100D02*
X155169800Y-119682400D01*
X171389900Y-127339600D02*
X171389900Y-123972500D01*
X173731000Y-129680700D02*
X171389900Y-127339600D01*
X157958200Y-127923200D02*
X157958300Y-127923200D01*
X157958200Y-123534300D02*
X157958200Y-127923200D01*
X154991600Y-120567700D02*
X157958200Y-123534300D01*
X141496900Y-119677100D02*
X142033900Y-120214100D01*
X140617000Y-119677100D02*
X141496900Y-119677100D01*
X140232300Y-120061800D02*
X140617000Y-119677100D01*
X148832000Y-137567800D02*
X148832000Y-131594800D01*
X146501100Y-139898700D02*
X148832000Y-137567800D01*
X146501100Y-145503600D02*
X146501100Y-139898700D01*
X149774100Y-127247200D02*
X149774100Y-126534900D01*
X150395400Y-127868500D02*
X149774100Y-127247200D01*
X149699700Y-117522900D02*
X149909400Y-117313200D01*
X149699700Y-126460500D02*
X149699700Y-117522900D01*
X149774100Y-126534900D02*
X149699700Y-126460500D01*
X146239700Y-67646300D02*
X146556000Y-67330000D01*
X146239700Y-76452700D02*
X146239700Y-67646300D01*
X147486000Y-77699000D02*
X146239700Y-76452700D01*
X147486000Y-78058200D02*
X147486000Y-77699000D01*
X123844400Y-95127400D02*
X123844400Y-100034600D01*
X121758500Y-93041500D02*
X123844400Y-95127400D01*
X121758500Y-65806100D02*
X121758500Y-93041500D01*
X122984600Y-64580000D02*
X121758500Y-65806100D01*
X130206000Y-64580000D02*
X122984600Y-64580000D01*
X132556000Y-62230000D02*
X130206000Y-64580000D01*
X140467800Y-118174500D02*
X140467800Y-116741400D01*
X140960300Y-118667000D02*
X140467800Y-118174500D01*
X141901000Y-118667000D02*
X140960300Y-118667000D01*
X142741000Y-119507000D02*
X141901000Y-118667000D01*
X147173400Y-118013100D02*
X147173400Y-119637500D01*
X146424000Y-117263700D02*
X147173400Y-118013100D01*
X146154500Y-117263700D02*
X146424000Y-117263700D01*
X145569400Y-116678600D02*
X146154500Y-117263700D01*
X154467600Y-122345000D02*
X155065200Y-122345000D01*
X153757700Y-123054900D02*
X154467600Y-122345000D01*
X153757700Y-123452600D02*
X153757700Y-123054900D01*
X154284500Y-123979400D02*
X153757700Y-123452600D01*
X154511600Y-124913600D02*
X155324100Y-124913600D01*
X153931000Y-124333000D02*
X154511600Y-124913600D01*
X152947400Y-124056600D02*
X152947400Y-123483300D01*
X153577400Y-124686600D02*
X152947400Y-124056600D01*
X138966400Y-128194600D02*
X138966400Y-129822400D01*
X157734000Y-77724000D02*
X157734000Y-78853300D01*
X156767600Y-128884400D02*
X156767600Y-127575300D01*
X157705600Y-129822400D02*
X156767600Y-128884400D01*
X153564300Y-126087700D02*
X152870300Y-125393700D01*
X153697800Y-126087700D02*
X153564300Y-126087700D01*
X155185400Y-127575300D02*
X153697800Y-126087700D01*
X156767600Y-127575300D02*
X155185400Y-127575300D01*
X157734000Y-78853400D02*
X157734000Y-78853300D01*
X157920500Y-78853400D02*
X157734000Y-78853400D01*
X158863300Y-79796200D02*
X157920500Y-78853400D01*
X158863300Y-90891800D02*
X158863300Y-79796200D01*
X157705600Y-92049500D02*
X158863300Y-90891800D01*
X157705600Y-114017600D02*
X157705600Y-92049500D01*
X132080000Y-75438000D02*
X132080000Y-73337300D01*
X145397100Y-117920500D02*
X145397100Y-118678300D01*
X144862300Y-117385700D02*
X145397100Y-117920500D01*
X140978200Y-113095000D02*
X140978200Y-114146000D01*
X140433600Y-112550400D02*
X140978200Y-113095000D01*
X152347800Y-124871200D02*
X152870300Y-125393700D01*
X152347800Y-123844600D02*
X152347800Y-124871200D01*
X152238600Y-123735400D02*
X152347800Y-123844600D01*
X152238600Y-123220200D02*
X152238600Y-123735400D01*
X152678400Y-122780400D02*
X152238600Y-123220200D01*
X152678400Y-119692800D02*
X152678400Y-122780400D01*
X151358600Y-118373000D02*
X152678400Y-119692800D01*
X150812500Y-118373000D02*
X151358600Y-118373000D01*
X153038000Y-119692800D02*
X153577400Y-119153400D01*
X152678400Y-119692800D02*
X153038000Y-119692800D01*
X157705600Y-115025200D02*
X157705600Y-114017600D01*
X153577400Y-119153400D02*
X157705600Y-115025200D01*
X145397100Y-120969800D02*
X142387500Y-123979400D01*
X145397100Y-118678300D02*
X145397100Y-120969800D01*
X139966600Y-126400300D02*
X139754000Y-126400300D01*
X142387500Y-123979400D02*
X139966600Y-126400300D01*
X152101200Y-114972800D02*
X152101200Y-95469700D01*
X150749000Y-116325000D02*
X152101200Y-114972800D01*
X150519900Y-96015000D02*
X150519900Y-94140800D01*
X151685300Y-97180400D02*
X150519900Y-96015000D01*
X151685300Y-114681600D02*
X151685300Y-97180400D01*
X150395400Y-115971500D02*
X151685300Y-114681600D01*
X150943800Y-91948900D02*
X150943800Y-86938100D01*
X149810300Y-93082400D02*
X150943800Y-91948900D01*
X149810300Y-98659200D02*
X149810300Y-93082400D01*
X151280700Y-100129600D02*
X149810300Y-98659200D01*
X151280700Y-114379100D02*
X151280700Y-100129600D01*
X150041900Y-115617900D02*
X151280700Y-114379100D01*
X137160000Y-75438000D02*
X137160000Y-76517300D01*
X149688300Y-115264400D02*
X149688300Y-108438300D01*
X137160000Y-76517300D02*
X137160000Y-87897500D01*
X146983700Y-114576800D02*
X146983700Y-115264400D01*
X147157000Y-114403500D02*
X146983700Y-114576800D01*
X146028600Y-115016400D02*
X146028600Y-113613200D01*
X146630100Y-115617900D02*
X146028600Y-115016400D01*
X147320000Y-90678000D02*
X147320000Y-91757300D01*
X147320000Y-91799100D02*
X147320000Y-91757300D01*
X145282700Y-93836400D02*
X147320000Y-91799100D01*
X145282700Y-108235100D02*
X145282700Y-93836400D01*
X145349800Y-108302200D02*
X145282700Y-108235100D01*
X145304200Y-114999100D02*
X145304200Y-111021800D01*
X146276600Y-115971500D02*
X145304200Y-114999100D01*
X144078000Y-92459300D02*
X144078000Y-106827100D01*
X144780000Y-91757300D02*
X144078000Y-92459300D01*
X144780000Y-90678000D02*
X144780000Y-91757300D01*
X144257600Y-114659600D02*
X144257600Y-109974900D01*
X145923000Y-116325000D02*
X144257600Y-114659600D01*
X143428300Y-116658700D02*
X144508800Y-117739200D01*
X143428300Y-109268100D02*
X143428300Y-116658700D01*
X142240000Y-90678000D02*
X142240000Y-91757300D01*
X142968300Y-92485600D02*
X142968300Y-106641600D01*
X142240000Y-91757300D02*
X142968300Y-92485600D01*
X142664200Y-116601800D02*
X144155200Y-118092800D01*
X142664200Y-109487500D02*
X142664200Y-116601800D01*
X140463200Y-107286500D02*
X142664200Y-109487500D01*
X140463200Y-92520500D02*
X140463200Y-107286500D01*
X139700000Y-91757300D02*
X140463200Y-92520500D01*
X139700000Y-90678000D02*
X139700000Y-91757300D01*
X142220900Y-116865500D02*
X143801700Y-118446300D01*
X142220900Y-109900600D02*
X142220900Y-116865500D01*
X139578500Y-107258200D02*
X142220900Y-109900600D01*
X139578500Y-94175800D02*
X139578500Y-107258200D01*
X138063500Y-108868600D02*
X138063500Y-95200800D01*
X141657500Y-112462600D02*
X138063500Y-108868600D01*
X141657500Y-117009300D02*
X141657500Y-112462600D01*
X143448100Y-118799900D02*
X141657500Y-117009300D01*
X141928800Y-117987600D02*
X141244700Y-117987600D01*
X143094600Y-119153400D02*
X141928800Y-117987600D01*
X129540000Y-89598700D02*
X129540000Y-76517300D01*
X129540000Y-75438000D02*
X129540000Y-76517300D01*
X138398700Y-124429500D02*
X138398600Y-124429500D01*
X138398700Y-123849400D02*
X138398700Y-124429500D01*
X141680400Y-120567700D02*
X138398700Y-123849400D01*
X129540000Y-90138300D02*
X129540000Y-89598700D01*
X129540000Y-90138300D02*
X129540000Y-90678000D01*
X129540000Y-121267400D02*
X129540000Y-90678000D01*
X132702100Y-124429500D02*
X129540000Y-121267400D01*
X132702100Y-133748700D02*
X132702100Y-124429500D01*
X124348000Y-133351300D02*
X124348000Y-132222000D01*
X128501100Y-145503600D02*
X126501100Y-145503600D01*
X124348000Y-133351300D02*
X124348000Y-134480600D01*
X126501100Y-136633700D02*
X124348000Y-134480600D01*
X126501100Y-145503600D02*
X126501100Y-136633700D01*
X126556000Y-67330000D02*
X128556000Y-67330000D01*
X125864300Y-68021700D02*
X126556000Y-67330000D01*
X125864300Y-92550200D02*
X125864300Y-68021700D01*
X128497400Y-95183300D02*
X125864300Y-92550200D01*
X128497400Y-128072600D02*
X128497400Y-95183300D01*
X124348000Y-132222000D02*
X128497400Y-128072600D01*
X151752300Y-128518300D02*
X150749000Y-127515000D01*
X151752300Y-128835700D02*
X151752300Y-128518300D01*
X151752300Y-129350400D02*
X151752300Y-128835700D01*
X152542300Y-130140400D02*
X151752300Y-129350400D01*
X152542300Y-134635000D02*
X152542300Y-130140400D01*
X151410500Y-135766800D02*
X152542300Y-134635000D01*
X151410500Y-144594200D02*
X151410500Y-135766800D01*
X150501100Y-145503600D02*
X151410500Y-144594200D01*
X160475100Y-117996500D02*
X160327700Y-118143900D01*
X160475100Y-77249100D02*
X160475100Y-117996500D01*
X158930800Y-75704800D02*
X160475100Y-77249100D01*
X150790300Y-126142100D02*
X150790300Y-124609900D01*
X151456100Y-126807900D02*
X150790300Y-126142100D01*
X152402000Y-127753800D02*
X151456100Y-126807900D01*
X152402000Y-127952900D02*
X152402000Y-127753800D01*
X153337300Y-128888200D02*
X152402000Y-127952900D01*
X153337300Y-144667400D02*
X153337300Y-128888200D01*
X152501100Y-145503600D02*
X153337300Y-144667400D01*
X157678900Y-116696800D02*
X157678900Y-118999300D01*
X159238100Y-115137600D02*
X157678900Y-116696800D01*
X159238100Y-108959300D02*
X159238100Y-115137600D01*
X158679800Y-108401000D02*
X159238100Y-108959300D01*
X158679800Y-103685300D02*
X158679800Y-108401000D01*
X159542700Y-102822400D02*
X158679800Y-103685300D01*
X159542700Y-79882000D02*
X159542700Y-102822400D01*
X160981600Y-73685600D02*
X157188300Y-69892300D01*
X160981600Y-117837000D02*
X160981600Y-73685600D01*
X161026200Y-117881600D02*
X160981600Y-117837000D01*
X161026200Y-121759700D02*
X161026200Y-117881600D01*
X160540500Y-122245400D02*
X161026200Y-121759700D01*
X153326300Y-127872900D02*
X153323200Y-127876000D01*
X153991500Y-128544400D02*
X153323200Y-127876000D01*
X153991500Y-144994000D02*
X153991500Y-128544400D01*
X154501100Y-145503600D02*
X153991500Y-144994000D01*
X151901400Y-126454300D02*
X151809700Y-126454300D01*
X153323200Y-127876000D02*
X151901400Y-126454300D01*
X152958700Y-126896300D02*
X152163200Y-126100800D01*
X153362800Y-126896300D02*
X152958700Y-126896300D01*
X154615600Y-128149100D02*
X153362800Y-126896300D01*
X154615600Y-138572900D02*
X154615600Y-128149100D01*
X156501100Y-140458400D02*
X154615600Y-138572900D01*
X156501100Y-145503600D02*
X156501100Y-140458400D01*
X153525500Y-70360500D02*
X153525500Y-116975400D01*
X156556000Y-67330000D02*
X153525500Y-70360500D01*
X150426900Y-123244700D02*
X150426900Y-119720800D01*
X151469700Y-124287500D02*
X150426900Y-123244700D01*
X151469700Y-125407300D02*
X151469700Y-124287500D01*
X152163200Y-126100800D02*
X151469700Y-125407300D01*
X153261600Y-126492000D02*
X152516800Y-125747200D01*
X153530300Y-126492000D02*
X153261600Y-126492000D01*
X155133700Y-128095400D02*
X153530300Y-126492000D01*
X155133700Y-138234500D02*
X155133700Y-128095400D01*
X158501100Y-141601900D02*
X155133700Y-138234500D01*
X158501100Y-145503600D02*
X158501100Y-141601900D01*
X154862800Y-71023200D02*
X154862800Y-116652700D01*
X158556000Y-67330000D02*
X154862800Y-71023200D01*
X151892300Y-125122700D02*
X152516800Y-125747200D01*
X151892300Y-124138300D02*
X151892300Y-125122700D01*
X151713000Y-123959000D02*
X151892300Y-124138300D01*
X151713000Y-119719100D02*
X151713000Y-123959000D01*
X154286600Y-126102800D02*
X153223900Y-125040100D01*
X154687700Y-126102800D02*
X154286600Y-126102800D01*
X160501100Y-126291400D02*
X160501100Y-145503600D01*
X161385900Y-68159900D02*
X160556000Y-67330000D01*
X161385900Y-117357800D02*
X161385900Y-68159900D01*
X161439500Y-117411400D02*
X161385900Y-117357800D01*
X161439500Y-125353000D02*
X161439500Y-117411400D01*
X160501100Y-126291400D02*
X161439500Y-125353000D01*
X155226400Y-124214200D02*
X154638100Y-123625900D01*
X156030900Y-124214200D02*
X155226400Y-124214200D01*
X163804500Y-134799700D02*
X163804500Y-124335700D01*
X162501100Y-136103100D02*
X163804500Y-134799700D01*
X162501100Y-145503600D02*
X162501100Y-136103100D01*
X164477500Y-69251500D02*
X162556000Y-67330000D01*
X164477500Y-117261600D02*
X164477500Y-69251500D01*
X163804500Y-117934600D02*
X164477500Y-117261600D01*
X163804500Y-124335700D02*
X163804500Y-117934600D01*
X164501100Y-145503600D02*
X164501100Y-123535100D01*
X164896100Y-67670100D02*
X164556000Y-67330000D01*
X164896100Y-123140100D02*
X164896100Y-67670100D01*
X164501100Y-123535100D02*
X164896100Y-123140100D01*
X156647900Y-123272300D02*
X156804300Y-123428700D01*
X154991600Y-123272300D02*
X156647900Y-123272300D01*
X132501100Y-145503600D02*
X132501100Y-135969200D01*
X131551600Y-87257100D02*
X131551600Y-77856700D01*
X136893000Y-116964500D02*
X136893000Y-95171200D01*
X139001300Y-119072800D02*
X136893000Y-116964500D01*
X136628900Y-121445200D02*
X136628900Y-131841400D01*
X139001300Y-119072800D02*
X136628900Y-121445200D01*
X130362900Y-69523100D02*
X132556000Y-67330000D01*
X130362900Y-74335300D02*
X130362900Y-69523100D01*
X141599700Y-119072800D02*
X139001300Y-119072800D01*
X142387500Y-119860600D02*
X141599700Y-119072800D01*
X172556000Y-62230000D02*
X172556000Y-67330000D01*
X124556000Y-67330000D02*
X124556000Y-68409300D01*
X156238400Y-113112600D02*
X155542200Y-113808800D01*
X156238400Y-112550400D02*
X156238400Y-113112600D01*
X156238400Y-132679200D02*
X156238400Y-131289600D01*
X156249700Y-132690500D02*
X156238400Y-132679200D01*
X173147100Y-144857600D02*
X173511700Y-144857600D01*
X172501100Y-145503600D02*
X173147100Y-144857600D01*
X123653500Y-144656000D02*
X124501100Y-145503600D01*
X123467200Y-144656000D02*
X123653500Y-144656000D01*
X138966400Y-112627800D02*
X139039000Y-112555200D01*
X138966400Y-114017600D02*
X138966400Y-112627800D01*
X124794400Y-68647700D02*
X124556000Y-68409300D01*
X124794400Y-73118700D02*
X124794400Y-68647700D01*
X127000000Y-84518700D02*
X128040700Y-85559400D01*
X127000000Y-75438000D02*
X127000000Y-84518700D01*
X152657900Y-128780700D02*
X152657900Y-129295100D01*
X151102600Y-127225400D02*
X152657900Y-128780700D01*
X151102600Y-127161400D02*
X151102600Y-127225400D01*
X140433600Y-129733400D02*
X140433600Y-131289600D01*
X146171400Y-123414000D02*
X146171400Y-118007100D01*
X147835700Y-125078300D02*
X146171400Y-123414000D01*
X147835700Y-126309400D02*
X147835700Y-125078300D01*
X146276600Y-127868500D02*
X147835700Y-126309400D01*
X145215900Y-117051600D02*
X145215900Y-117032100D01*
X146171400Y-118007100D02*
X145215900Y-117051600D01*
X152695800Y-117206600D02*
X152163200Y-117739200D01*
X152695800Y-116404300D02*
X152695800Y-117206600D01*
X145666000Y-130528900D02*
X145666000Y-129664600D01*
X147068700Y-131931600D02*
X145666000Y-130528900D01*
X144159900Y-129664600D02*
X145666000Y-129664600D01*
X145666000Y-128479100D02*
X146276600Y-127868500D01*
X145666000Y-129664600D02*
X145666000Y-128479100D01*
X131773600Y-65012400D02*
X134556000Y-62230000D01*
X123124000Y-65012400D02*
X131773600Y-65012400D01*
X122162800Y-65973600D02*
X123124000Y-65012400D01*
X122162800Y-92672900D02*
X122162800Y-65973600D01*
X125105100Y-95615200D02*
X122162800Y-92672900D01*
X125105100Y-116003700D02*
X125105100Y-95615200D01*
X127068700Y-117967300D02*
X125105100Y-116003700D01*
X138815500Y-126137200D02*
X141680400Y-123272300D01*
X138459500Y-126137200D02*
X138815500Y-126137200D01*
X138298000Y-131875600D02*
X138298000Y-134279500D01*
X137447600Y-131025200D02*
X138298000Y-131875600D01*
X137447600Y-127136500D02*
X137447600Y-131025200D01*
X138446900Y-126137200D02*
X137447600Y-127136500D01*
X138459500Y-126137200D02*
X138446900Y-126137200D01*
X133369300Y-65416700D02*
X136556000Y-62230000D01*
X123299800Y-65416700D02*
X133369300Y-65416700D01*
X122572100Y-66144400D02*
X123299800Y-65416700D01*
X122572100Y-92246700D02*
X122572100Y-66144400D01*
X126080800Y-95755400D02*
X122572100Y-92246700D01*
X126080800Y-104243400D02*
X126080800Y-95755400D01*
X141681700Y-122384300D02*
X141681700Y-121578200D01*
X142298200Y-122384300D02*
X141681700Y-122384300D01*
X142564700Y-122650800D02*
X142298200Y-122384300D01*
X142564700Y-123095100D02*
X142564700Y-122650800D01*
X142033900Y-123625900D02*
X142564700Y-123095100D01*
X137618600Y-135921100D02*
X137442500Y-136097200D01*
X137618600Y-131768100D02*
X137618600Y-135921100D01*
X137038100Y-131187600D02*
X137618600Y-131768100D01*
X137038100Y-126598000D02*
X137038100Y-131187600D01*
X138316800Y-125319300D02*
X137038100Y-126598000D01*
X138746700Y-125319300D02*
X138316800Y-125319300D01*
X141681700Y-122384300D02*
X138746700Y-125319300D01*
X135949600Y-133005300D02*
X136939300Y-133995000D01*
X135949600Y-129526200D02*
X135949600Y-133005300D01*
X145446600Y-125181300D02*
X145603800Y-125338500D01*
X144721100Y-125181300D02*
X145446600Y-125181300D01*
X144155200Y-125747200D02*
X144721100Y-125181300D01*
X138489200Y-78984400D02*
X138489200Y-76952600D01*
X138266400Y-79207200D02*
X138489200Y-78984400D01*
X142683300Y-130864000D02*
X142683300Y-136725400D01*
X142267700Y-130448400D02*
X142683300Y-130864000D01*
X142267700Y-127217700D02*
X142267700Y-130448400D01*
X142894900Y-126590500D02*
X142267700Y-127217700D01*
X142894900Y-126300500D02*
X142894900Y-126590500D01*
X143801700Y-125393700D02*
X142894900Y-126300500D01*
X134865900Y-94696800D02*
X136707700Y-92855000D01*
X134865900Y-134145700D02*
X134865900Y-94696800D01*
X136031100Y-135310900D02*
X134865900Y-134145700D01*
X171419300Y-104511500D02*
X171419300Y-114439100D01*
X175785300Y-100145500D02*
X171419300Y-104511500D01*
X175785300Y-62382800D02*
X175785300Y-100145500D01*
X143518900Y-127090700D02*
X143443500Y-127090700D01*
X144508800Y-126100800D02*
X143518900Y-127090700D01*
X144106000Y-136650800D02*
X144127200Y-136672000D01*
X144106000Y-132650600D02*
X144106000Y-136650800D01*
X143443500Y-131988100D02*
X144106000Y-132650600D01*
X143443500Y-131052400D02*
X143443500Y-131988100D01*
X142672000Y-130280900D02*
X143443500Y-131052400D01*
X142672000Y-127862200D02*
X142672000Y-130280900D01*
X143443500Y-127090700D02*
X142672000Y-127862200D01*
X160066600Y-105284700D02*
X159792600Y-105010700D01*
X160066600Y-116026600D02*
X160066600Y-105284700D01*
X159642500Y-116450700D02*
X160066600Y-116026600D01*
X159642500Y-136519800D02*
X159642500Y-116450700D01*
X158546700Y-137615600D02*
X159642500Y-136519800D01*
X162872900Y-59913100D02*
X160556000Y-62230000D01*
X173516400Y-59913100D02*
X162872900Y-59913100D01*
X174954500Y-61351200D02*
X173516400Y-59913100D01*
X174954500Y-89871500D02*
X174954500Y-61351200D01*
X146983700Y-130225200D02*
X146983700Y-128575600D01*
X148152300Y-131393800D02*
X146983700Y-130225200D01*
X148152300Y-134835800D02*
X148152300Y-131393800D01*
X148134200Y-134853900D02*
X148152300Y-134835800D01*
X156997600Y-116758200D02*
X156997600Y-119002300D01*
X158829900Y-114925900D02*
X156997600Y-116758200D01*
X158829900Y-109511700D02*
X158829900Y-114925900D01*
X158558200Y-109240000D02*
X158829900Y-109511700D01*
X156510000Y-136404800D02*
X156510000Y-138100400D01*
X158820600Y-134094200D02*
X156510000Y-136404800D01*
X158820600Y-121240200D02*
X158820600Y-134094200D01*
X156997600Y-119417200D02*
X158820600Y-121240200D01*
X156997600Y-119002300D02*
X156997600Y-119417200D01*
X156997600Y-119002300D02*
X155535500Y-119002300D01*
X147156400Y-126342300D02*
X147156400Y-125360100D01*
X145983700Y-127515000D02*
X147156400Y-126342300D01*
X145923000Y-127515000D02*
X145983700Y-127515000D01*
X165702400Y-133713600D02*
X165648200Y-133767800D01*
X165702400Y-76173400D02*
X165702400Y-133713600D01*
X145751900Y-132217100D02*
X145751900Y-135347700D01*
X143480600Y-129945800D02*
X145751900Y-132217100D01*
X143480600Y-129383300D02*
X143480600Y-129945800D01*
X144654000Y-128209900D02*
X143480600Y-129383300D01*
X144654000Y-127369800D02*
X144654000Y-128209900D01*
X145215900Y-126807900D02*
X144654000Y-127369800D01*
X163125200Y-117623500D02*
X163125200Y-134518300D01*
X163798200Y-116950500D02*
X163125200Y-117623500D01*
X163798200Y-99973700D02*
X163798200Y-116950500D01*
X151863000Y-130043200D02*
X150041900Y-128222100D01*
X151863000Y-134353600D02*
X151863000Y-130043200D01*
X136965000Y-65821000D02*
X140556000Y-62230000D01*
X123488500Y-65821000D02*
X136965000Y-65821000D01*
X122976400Y-66333100D02*
X123488500Y-65821000D01*
X122976400Y-91895700D02*
X122976400Y-66333100D01*
X127113800Y-96033100D02*
X122976400Y-91895700D01*
X127113800Y-115571400D02*
X127113800Y-96033100D01*
X141464000Y-126317200D02*
X141464000Y-126487900D01*
X143094600Y-124686600D02*
X141464000Y-126317200D01*
X141557500Y-135573100D02*
X141040200Y-136090400D01*
X141557500Y-130881800D02*
X141557500Y-135573100D01*
X141459100Y-130783400D02*
X141557500Y-130881800D01*
X141459100Y-126492800D02*
X141459100Y-130783400D01*
X141464000Y-126487900D02*
X141459100Y-126492800D01*
X144795400Y-131832400D02*
X144795400Y-135859800D01*
X143076300Y-130113300D02*
X144795400Y-131832400D01*
X143076300Y-129215800D02*
X143076300Y-130113300D01*
X144235100Y-128057000D02*
X143076300Y-129215800D01*
X144235100Y-127081500D02*
X144235100Y-128057000D01*
X144862300Y-126454300D02*
X144235100Y-127081500D01*
X161790200Y-79091000D02*
X162072500Y-78808700D01*
X161790200Y-116885200D02*
X161790200Y-79091000D01*
X161922100Y-117017100D02*
X161790200Y-116885200D01*
X161922100Y-133391000D02*
X161922100Y-117017100D01*
X162469600Y-80374200D02*
X162781400Y-80062400D01*
X162469600Y-116597900D02*
X162469600Y-80374200D01*
X146472900Y-126257900D02*
X146472900Y-126065100D01*
X145569400Y-127161400D02*
X146472900Y-126257900D01*
X150047600Y-130046700D02*
X149464400Y-129463500D01*
X150047600Y-137541700D02*
X150047600Y-130046700D01*
X150217000Y-137711100D02*
X150047600Y-137541700D01*
X150732700Y-129620000D02*
X149688300Y-128575600D01*
X150732700Y-135247500D02*
X150732700Y-129620000D01*
X163118800Y-99193700D02*
X163153200Y-99159300D01*
X163118800Y-115677600D02*
X163118800Y-99193700D01*
X163169200Y-115728000D02*
X163118800Y-115677600D01*
X163169200Y-116940100D02*
X163169200Y-115728000D01*
X162644300Y-117465000D02*
X163169200Y-116940100D01*
X162644300Y-134006700D02*
X162644300Y-117465000D01*
X161334500Y-135316500D02*
X162644300Y-134006700D01*
X161334500Y-136562100D02*
X161334500Y-135316500D01*
X159238200Y-134855600D02*
X157208900Y-136884900D01*
X159238200Y-115998500D02*
X159238200Y-134855600D01*
X159652400Y-115584300D02*
X159238200Y-115998500D01*
X159652400Y-107947300D02*
X159652400Y-115584300D01*
X159372500Y-107667400D02*
X159652400Y-107947300D01*
X146089100Y-128763100D02*
X146630100Y-128222100D01*
X146089100Y-129991400D02*
X146089100Y-128763100D01*
X147748000Y-131650300D02*
X146089100Y-129991400D01*
X147748000Y-133564500D02*
X147748000Y-131650300D01*
X147395500Y-133917000D02*
X147748000Y-133564500D01*
X147395500Y-135916700D02*
X147395500Y-133917000D01*
X120949900Y-114911800D02*
X121668900Y-115630800D01*
X120949900Y-64304800D02*
X120949900Y-114911800D01*
X124131200Y-61123500D02*
X120949900Y-64304800D01*
X137449500Y-61123500D02*
X124131200Y-61123500D01*
X138556000Y-62230000D02*
X137449500Y-61123500D01*
X137856800Y-127694300D02*
X138159800Y-127391300D01*
X137856800Y-130730400D02*
X137856800Y-127694300D01*
X138977300Y-131850900D02*
X137856800Y-130730400D01*
X138977300Y-139028700D02*
X138977300Y-131850900D01*
X138972300Y-139033700D02*
X138977300Y-139028700D01*
X142656000Y-124333000D02*
X142741000Y-124333000D01*
X140433300Y-126555700D02*
X142656000Y-124333000D01*
X140433300Y-126681700D02*
X140433300Y-126555700D01*
X139723700Y-127391300D02*
X140433300Y-126681700D01*
X138159800Y-127391300D02*
X139723700Y-127391300D01*
X123380700Y-91717600D02*
X127817900Y-96154800D01*
X123380700Y-66507800D02*
X123380700Y-91717600D01*
X123637800Y-66250700D02*
X123380700Y-66507800D01*
X138535300Y-66250700D02*
X123637800Y-66250700D01*
X142556000Y-62230000D02*
X138535300Y-66250700D01*
X144026800Y-124461400D02*
X144026800Y-123304800D01*
X143448100Y-125040100D02*
X144026800Y-124461400D01*
X142391400Y-126096800D02*
X143448100Y-125040100D01*
X142391400Y-126521200D02*
X142391400Y-126096800D01*
X141863400Y-127049200D02*
X142391400Y-126521200D01*
X141863400Y-130615900D02*
X141863400Y-127049200D01*
X141980900Y-130733400D02*
X141863400Y-130615900D01*
X141980900Y-139205300D02*
X141980900Y-130733400D01*
X142069600Y-139294000D02*
X141980900Y-139205300D01*
M02*
