G04 #@! TF.GenerationSoftware,KiCad,Pcbnew,(6.0.11)*
G04 #@! TF.CreationDate,2024-07-10T22:00:09+02:00*
G04 #@! TF.ProjectId,tcbm2sd,7463626d-3273-4642-9e6b-696361645f70,1.0*
G04 #@! TF.SameCoordinates,Original*
G04 #@! TF.FileFunction,Legend,Top*
G04 #@! TF.FilePolarity,Positive*
%FSLAX46Y46*%
G04 Gerber Fmt 4.6, Leading zero omitted, Abs format (unit mm)*
G04 Created by KiCad (PCBNEW (6.0.11)) date 2024-07-10 22:00:09*
%MOMM*%
%LPD*%
G01*
G04 APERTURE LIST*
G04 Aperture macros list*
%AMRoundRect*
0 Rectangle with rounded corners*
0 $1 Rounding radius*
0 $2 $3 $4 $5 $6 $7 $8 $9 X,Y pos of 4 corners*
0 Add a 4 corners polygon primitive as box body*
4,1,4,$2,$3,$4,$5,$6,$7,$8,$9,$2,$3,0*
0 Add four circle primitives for the rounded corners*
1,1,$1+$1,$2,$3*
1,1,$1+$1,$4,$5*
1,1,$1+$1,$6,$7*
1,1,$1+$1,$8,$9*
0 Add four rect primitives between the rounded corners*
20,1,$1+$1,$2,$3,$4,$5,0*
20,1,$1+$1,$4,$5,$6,$7,0*
20,1,$1+$1,$6,$7,$8,$9,0*
20,1,$1+$1,$8,$9,$2,$3,0*%
G04 Aperture macros list end*
%ADD10C,0.120000*%
%ADD11C,0.150000*%
%ADD12C,0.300000*%
%ADD13C,0.127000*%
%ADD14RoundRect,0.250000X-0.097227X0.574524X-0.574524X0.097227X0.097227X-0.574524X0.574524X-0.097227X0*%
%ADD15RoundRect,0.250000X0.574524X0.097227X0.097227X0.574524X-0.574524X-0.097227X-0.097227X-0.574524X0*%
%ADD16R,1.700000X1.700000*%
%ADD17O,1.700000X1.700000*%
%ADD18RoundRect,0.250000X-0.574524X-0.097227X-0.097227X-0.574524X0.574524X0.097227X0.097227X0.574524X0*%
%ADD19RoundRect,0.075000X-0.415425X-0.521491X0.521491X0.415425X0.415425X0.521491X-0.521491X-0.415425X0*%
%ADD20RoundRect,0.075000X0.415425X-0.521491X0.521491X-0.415425X-0.415425X0.521491X-0.521491X0.415425X0*%
%ADD21R,1.600000X1.600000*%
%ADD22O,1.600000X1.600000*%
%ADD23C,1.600000*%
%ADD24C,5.000000*%
%ADD25RoundRect,0.163300X-0.337500X-4.512500X0.337500X-4.512500X0.337500X4.512500X-0.337500X4.512500X0*%
G04 APERTURE END LIST*
D10*
X155956000Y-93218000D02*
X176276000Y-93218000D01*
X176276000Y-93218000D02*
X176276000Y-74676000D01*
X176276000Y-74676000D02*
X155956000Y-74676000D01*
X155956000Y-74676000D02*
X155956000Y-93218000D01*
X132715000Y-135129261D02*
X120777000Y-135129261D01*
X120777000Y-135129261D02*
X120777000Y-120651261D01*
X120777000Y-120651261D02*
X132715000Y-120651261D01*
X132715000Y-120651261D02*
X132715000Y-135129261D01*
D11*
X124661571Y-129646118D02*
X124061571Y-129846118D01*
X124661571Y-130046118D01*
X124061571Y-130246118D02*
X124661571Y-130246118D01*
X124061571Y-130531832D02*
X124661571Y-130531832D01*
X124061571Y-130874689D01*
X124661571Y-130874689D01*
X171694000Y-129667142D02*
X171694000Y-130238571D01*
X171524571Y-130067142D02*
X171524571Y-129952857D01*
X171496000Y-129895714D01*
X171467428Y-129867142D01*
X171381714Y-129810000D01*
X171267428Y-129781428D01*
X171038857Y-129781428D01*
X170981714Y-129810000D01*
X170953142Y-129838571D01*
X170924571Y-129895714D01*
X170924571Y-130010000D01*
X170953142Y-130067142D01*
X170981714Y-130095714D01*
X171038857Y-130124285D01*
X171181714Y-130124285D01*
X171238857Y-130095714D01*
X171267428Y-130067142D01*
X171296000Y-130010000D01*
X171296000Y-129895714D01*
X171267428Y-129838571D01*
X171238857Y-129810000D01*
X171181714Y-129781428D01*
X171694000Y-130238571D02*
X171694000Y-130810000D01*
X171524571Y-130667142D02*
X171524571Y-130381428D01*
X171238857Y-130352857D01*
X171267428Y-130381428D01*
X171296000Y-130438571D01*
X171296000Y-130581428D01*
X171267428Y-130638571D01*
X171238857Y-130667142D01*
X171181714Y-130695714D01*
X171038857Y-130695714D01*
X170981714Y-130667142D01*
X170953142Y-130638571D01*
X170924571Y-130581428D01*
X170924571Y-130438571D01*
X170953142Y-130381428D01*
X170981714Y-130352857D01*
X171694000Y-130810000D02*
X171694000Y-131381428D01*
X171467428Y-130924285D02*
X171496000Y-130952857D01*
X171524571Y-131010000D01*
X171524571Y-131152857D01*
X171496000Y-131210000D01*
X171467428Y-131238571D01*
X171410285Y-131267142D01*
X171353142Y-131267142D01*
X171267428Y-131238571D01*
X170924571Y-130895714D01*
X170924571Y-131267142D01*
X171694000Y-131381428D02*
X171694000Y-131952857D01*
X171524571Y-131467142D02*
X171524571Y-131838571D01*
X171296000Y-131638571D01*
X171296000Y-131724285D01*
X171267428Y-131781428D01*
X171238857Y-131810000D01*
X171181714Y-131838571D01*
X171038857Y-131838571D01*
X170981714Y-131810000D01*
X170953142Y-131781428D01*
X170924571Y-131724285D01*
X170924571Y-131552857D01*
X170953142Y-131495714D01*
X170981714Y-131467142D01*
X169888000Y-121591428D02*
X170230857Y-121591428D01*
X170059428Y-122191428D02*
X170059428Y-121591428D01*
X170430857Y-122191428D02*
X170430857Y-121591428D01*
X170630857Y-122020000D01*
X170830857Y-121591428D01*
X170830857Y-122191428D01*
X171088000Y-122162857D02*
X171173714Y-122191428D01*
X171316571Y-122191428D01*
X171373714Y-122162857D01*
X171402285Y-122134285D01*
X171430857Y-122077142D01*
X171430857Y-122020000D01*
X171402285Y-121962857D01*
X171373714Y-121934285D01*
X171316571Y-121905714D01*
X171202285Y-121877142D01*
X171145142Y-121848571D01*
X171116571Y-121820000D01*
X171088000Y-121762857D01*
X171088000Y-121705714D01*
X171116571Y-121648571D01*
X171145142Y-121620000D01*
X171202285Y-121591428D01*
X171345142Y-121591428D01*
X171430857Y-121620000D01*
X170073714Y-116511428D02*
X170416571Y-116511428D01*
X170245142Y-117111428D02*
X170245142Y-116511428D01*
X170616571Y-117111428D02*
X170616571Y-116511428D01*
X170759428Y-116511428D01*
X170845142Y-116540000D01*
X170902285Y-116597142D01*
X170930857Y-116654285D01*
X170959428Y-116768571D01*
X170959428Y-116854285D01*
X170930857Y-116968571D01*
X170902285Y-117025714D01*
X170845142Y-117082857D01*
X170759428Y-117111428D01*
X170616571Y-117111428D01*
X171216571Y-117111428D02*
X171216571Y-116511428D01*
X143058190Y-94230714D02*
X143439142Y-94230714D01*
X143201047Y-93897380D02*
X143201047Y-94754523D01*
X143248666Y-94849761D01*
X143343904Y-94897380D01*
X143439142Y-94897380D01*
X144201047Y-94849761D02*
X144105809Y-94897380D01*
X143915333Y-94897380D01*
X143820095Y-94849761D01*
X143772476Y-94802142D01*
X143724857Y-94706904D01*
X143724857Y-94421190D01*
X143772476Y-94325952D01*
X143820095Y-94278333D01*
X143915333Y-94230714D01*
X144105809Y-94230714D01*
X144201047Y-94278333D01*
X144629619Y-94897380D02*
X144629619Y-93897380D01*
X144629619Y-94278333D02*
X144724857Y-94230714D01*
X144915333Y-94230714D01*
X145010571Y-94278333D01*
X145058190Y-94325952D01*
X145105809Y-94421190D01*
X145105809Y-94706904D01*
X145058190Y-94802142D01*
X145010571Y-94849761D01*
X144915333Y-94897380D01*
X144724857Y-94897380D01*
X144629619Y-94849761D01*
X145534380Y-94897380D02*
X145534380Y-94230714D01*
X145534380Y-94325952D02*
X145582000Y-94278333D01*
X145677238Y-94230714D01*
X145820095Y-94230714D01*
X145915333Y-94278333D01*
X145962952Y-94373571D01*
X145962952Y-94897380D01*
X145962952Y-94373571D02*
X146010571Y-94278333D01*
X146105809Y-94230714D01*
X146248666Y-94230714D01*
X146343904Y-94278333D01*
X146391523Y-94373571D01*
X146391523Y-94897380D01*
X146820095Y-93992619D02*
X146867714Y-93945000D01*
X146962952Y-93897380D01*
X147201047Y-93897380D01*
X147296285Y-93945000D01*
X147343904Y-93992619D01*
X147391523Y-94087857D01*
X147391523Y-94183095D01*
X147343904Y-94325952D01*
X146772476Y-94897380D01*
X147391523Y-94897380D01*
X147772476Y-94849761D02*
X147867714Y-94897380D01*
X148058190Y-94897380D01*
X148153428Y-94849761D01*
X148201047Y-94754523D01*
X148201047Y-94706904D01*
X148153428Y-94611666D01*
X148058190Y-94564047D01*
X147915333Y-94564047D01*
X147820095Y-94516428D01*
X147772476Y-94421190D01*
X147772476Y-94373571D01*
X147820095Y-94278333D01*
X147915333Y-94230714D01*
X148058190Y-94230714D01*
X148153428Y-94278333D01*
X149058190Y-94897380D02*
X149058190Y-93897380D01*
X149058190Y-94849761D02*
X148962952Y-94897380D01*
X148772476Y-94897380D01*
X148677238Y-94849761D01*
X148629619Y-94802142D01*
X148582000Y-94706904D01*
X148582000Y-94421190D01*
X148629619Y-94325952D01*
X148677238Y-94278333D01*
X148772476Y-94230714D01*
X148962952Y-94230714D01*
X149058190Y-94278333D01*
X150201047Y-94230714D02*
X150439142Y-94897380D01*
X150677238Y-94230714D01*
X151582000Y-94897380D02*
X151010571Y-94897380D01*
X151296285Y-94897380D02*
X151296285Y-93897380D01*
X151201047Y-94040238D01*
X151105809Y-94135476D01*
X151010571Y-94183095D01*
X152010571Y-94802142D02*
X152058190Y-94849761D01*
X152010571Y-94897380D01*
X151962952Y-94849761D01*
X152010571Y-94802142D01*
X152010571Y-94897380D01*
X152677238Y-93897380D02*
X152772476Y-93897380D01*
X152867714Y-93945000D01*
X152915333Y-93992619D01*
X152962952Y-94087857D01*
X153010571Y-94278333D01*
X153010571Y-94516428D01*
X152962952Y-94706904D01*
X152915333Y-94802142D01*
X152867714Y-94849761D01*
X152772476Y-94897380D01*
X152677238Y-94897380D01*
X152582000Y-94849761D01*
X152534380Y-94802142D01*
X152486761Y-94706904D01*
X152439142Y-94516428D01*
X152439142Y-94278333D01*
X152486761Y-94087857D01*
X152534380Y-93992619D01*
X152582000Y-93945000D01*
X152677238Y-93897380D01*
X131058190Y-96507380D02*
X131058190Y-95507380D01*
X131391523Y-96221666D01*
X131724857Y-95507380D01*
X131724857Y-96507380D01*
X132629619Y-96507380D02*
X132629619Y-95983571D01*
X132582000Y-95888333D01*
X132486761Y-95840714D01*
X132296285Y-95840714D01*
X132201047Y-95888333D01*
X132629619Y-96459761D02*
X132534380Y-96507380D01*
X132296285Y-96507380D01*
X132201047Y-96459761D01*
X132153428Y-96364523D01*
X132153428Y-96269285D01*
X132201047Y-96174047D01*
X132296285Y-96126428D01*
X132534380Y-96126428D01*
X132629619Y-96078809D01*
X133534380Y-96459761D02*
X133439142Y-96507380D01*
X133248666Y-96507380D01*
X133153428Y-96459761D01*
X133105809Y-96412142D01*
X133058190Y-96316904D01*
X133058190Y-96031190D01*
X133105809Y-95935952D01*
X133153428Y-95888333D01*
X133248666Y-95840714D01*
X133439142Y-95840714D01*
X133534380Y-95888333D01*
X133962952Y-96507380D02*
X133962952Y-95840714D01*
X133962952Y-95507380D02*
X133915333Y-95555000D01*
X133962952Y-95602619D01*
X134010571Y-95555000D01*
X133962952Y-95507380D01*
X133962952Y-95602619D01*
X134820095Y-96459761D02*
X134724857Y-96507380D01*
X134534380Y-96507380D01*
X134439142Y-96459761D01*
X134391523Y-96364523D01*
X134391523Y-95983571D01*
X134439142Y-95888333D01*
X134534380Y-95840714D01*
X134724857Y-95840714D01*
X134820095Y-95888333D01*
X134867714Y-95983571D01*
X134867714Y-96078809D01*
X134391523Y-96174047D01*
X135296285Y-95840714D02*
X135296285Y-96697857D01*
X135248666Y-96793095D01*
X135153428Y-96840714D01*
X135105809Y-96840714D01*
X135296285Y-95507380D02*
X135248666Y-95555000D01*
X135296285Y-95602619D01*
X135343904Y-95555000D01*
X135296285Y-95507380D01*
X135296285Y-95602619D01*
X136439142Y-95507380D02*
X136677238Y-96507380D01*
X136867714Y-95793095D01*
X137058190Y-96507380D01*
X137296285Y-95507380D01*
X137677238Y-96507380D02*
X137677238Y-95840714D01*
X137677238Y-95507380D02*
X137629619Y-95555000D01*
X137677238Y-95602619D01*
X137724857Y-95555000D01*
X137677238Y-95507380D01*
X137677238Y-95602619D01*
X138010571Y-95840714D02*
X138391523Y-95840714D01*
X138153428Y-95507380D02*
X138153428Y-96364523D01*
X138201047Y-96459761D01*
X138296285Y-96507380D01*
X138391523Y-96507380D01*
X138724857Y-96507380D02*
X138724857Y-95507380D01*
X138820095Y-96126428D02*
X139105809Y-96507380D01*
X139105809Y-95840714D02*
X138724857Y-96221666D01*
X139677238Y-96507380D02*
X139582000Y-96459761D01*
X139534380Y-96412142D01*
X139486761Y-96316904D01*
X139486761Y-96031190D01*
X139534380Y-95935952D01*
X139582000Y-95888333D01*
X139677238Y-95840714D01*
X139820095Y-95840714D01*
X139915333Y-95888333D01*
X139962952Y-95935952D01*
X140010571Y-96031190D01*
X140010571Y-96316904D01*
X139962952Y-96412142D01*
X139915333Y-96459761D01*
X139820095Y-96507380D01*
X139677238Y-96507380D01*
X140343904Y-95840714D02*
X140534380Y-96507380D01*
X140724857Y-96031190D01*
X140915333Y-96507380D01*
X141105809Y-95840714D01*
X141486761Y-96507380D02*
X141486761Y-95840714D01*
X141486761Y-95507380D02*
X141439142Y-95555000D01*
X141486761Y-95602619D01*
X141534380Y-95555000D01*
X141486761Y-95507380D01*
X141486761Y-95602619D01*
X142391523Y-96507380D02*
X142391523Y-95983571D01*
X142343904Y-95888333D01*
X142248666Y-95840714D01*
X142058190Y-95840714D01*
X141962952Y-95888333D01*
X142391523Y-96459761D02*
X142296285Y-96507380D01*
X142058190Y-96507380D01*
X141962952Y-96459761D01*
X141915333Y-96364523D01*
X141915333Y-96269285D01*
X141962952Y-96174047D01*
X142058190Y-96126428D01*
X142296285Y-96126428D01*
X142391523Y-96078809D01*
X142867714Y-96507380D02*
X142867714Y-95507380D01*
X142962952Y-96126428D02*
X143248666Y-96507380D01*
X143248666Y-95840714D02*
X142867714Y-96221666D01*
X145201047Y-95840714D02*
X144439142Y-96126428D01*
X145201047Y-96412142D01*
X145582000Y-95840714D02*
X145820095Y-96507380D01*
X146058190Y-95840714D02*
X145820095Y-96507380D01*
X145724857Y-96745476D01*
X145677238Y-96793095D01*
X145582000Y-96840714D01*
X146296285Y-95840714D02*
X146677238Y-95840714D01*
X146439142Y-95507380D02*
X146439142Y-96364523D01*
X146486761Y-96459761D01*
X146582000Y-96507380D01*
X146677238Y-96507380D01*
X147010571Y-96507380D02*
X147010571Y-95840714D01*
X147010571Y-95935952D02*
X147058190Y-95888333D01*
X147153428Y-95840714D01*
X147296285Y-95840714D01*
X147391523Y-95888333D01*
X147439142Y-95983571D01*
X147439142Y-96507380D01*
X147439142Y-95983571D02*
X147486761Y-95888333D01*
X147582000Y-95840714D01*
X147724857Y-95840714D01*
X147820095Y-95888333D01*
X147867714Y-95983571D01*
X147867714Y-96507380D01*
X148962952Y-96031190D02*
X148915333Y-95983571D01*
X148820095Y-95935952D01*
X148724857Y-95935952D01*
X148629619Y-95983571D01*
X148582000Y-96031190D01*
X148534380Y-96126428D01*
X148534380Y-96221666D01*
X148582000Y-96316904D01*
X148629619Y-96364523D01*
X148724857Y-96412142D01*
X148820095Y-96412142D01*
X148915333Y-96364523D01*
X148962952Y-96316904D01*
X148962952Y-95935952D02*
X148962952Y-96316904D01*
X149010571Y-96364523D01*
X149058190Y-96364523D01*
X149153428Y-96316904D01*
X149201047Y-96221666D01*
X149201047Y-95983571D01*
X149105809Y-95840714D01*
X148962952Y-95745476D01*
X148772476Y-95697857D01*
X148582000Y-95745476D01*
X148439142Y-95840714D01*
X148343904Y-95983571D01*
X148296285Y-96174047D01*
X148343904Y-96364523D01*
X148439142Y-96507380D01*
X148582000Y-96602619D01*
X148772476Y-96650238D01*
X148962952Y-96602619D01*
X149105809Y-96507380D01*
X150010571Y-96459761D02*
X149915333Y-96507380D01*
X149724857Y-96507380D01*
X149629619Y-96459761D01*
X149582000Y-96364523D01*
X149582000Y-95983571D01*
X149629619Y-95888333D01*
X149724857Y-95840714D01*
X149915333Y-95840714D01*
X150010571Y-95888333D01*
X150058190Y-95983571D01*
X150058190Y-96078809D01*
X149582000Y-96174047D01*
X150629619Y-96507380D02*
X150534380Y-96459761D01*
X150486761Y-96364523D01*
X150486761Y-95507380D01*
X150915333Y-95840714D02*
X151153428Y-96507380D01*
X151391523Y-95840714D02*
X151153428Y-96507380D01*
X151058190Y-96745476D01*
X151010571Y-96793095D01*
X150915333Y-96840714D01*
X151724857Y-96459761D02*
X151820095Y-96507380D01*
X152010571Y-96507380D01*
X152105809Y-96459761D01*
X152153428Y-96364523D01*
X152153428Y-96316904D01*
X152105809Y-96221666D01*
X152010571Y-96174047D01*
X151867714Y-96174047D01*
X151772476Y-96126428D01*
X151724857Y-96031190D01*
X151724857Y-95983571D01*
X151772476Y-95888333D01*
X151867714Y-95840714D01*
X152010571Y-95840714D01*
X152105809Y-95888333D01*
X152582000Y-96507380D02*
X152582000Y-95840714D01*
X152582000Y-95507380D02*
X152534380Y-95555000D01*
X152582000Y-95602619D01*
X152629619Y-95555000D01*
X152582000Y-95507380D01*
X152582000Y-95602619D01*
X153486761Y-95840714D02*
X153486761Y-96507380D01*
X153058190Y-95840714D02*
X153058190Y-96364523D01*
X153105809Y-96459761D01*
X153201047Y-96507380D01*
X153343904Y-96507380D01*
X153439142Y-96459761D01*
X153486761Y-96412142D01*
X153962952Y-96507380D02*
X153962952Y-95840714D01*
X153962952Y-95935952D02*
X154010571Y-95888333D01*
X154105809Y-95840714D01*
X154248666Y-95840714D01*
X154343904Y-95888333D01*
X154391523Y-95983571D01*
X154391523Y-96507380D01*
X154391523Y-95983571D02*
X154439142Y-95888333D01*
X154534380Y-95840714D01*
X154677238Y-95840714D01*
X154772476Y-95888333D01*
X154820095Y-95983571D01*
X154820095Y-96507380D01*
X155296285Y-96412142D02*
X155343904Y-96459761D01*
X155296285Y-96507380D01*
X155248666Y-96459761D01*
X155296285Y-96412142D01*
X155296285Y-96507380D01*
X155772476Y-95840714D02*
X155772476Y-96840714D01*
X155772476Y-95888333D02*
X155867714Y-95840714D01*
X156058190Y-95840714D01*
X156153428Y-95888333D01*
X156201047Y-95935952D01*
X156248666Y-96031190D01*
X156248666Y-96316904D01*
X156201047Y-96412142D01*
X156153428Y-96459761D01*
X156058190Y-96507380D01*
X155867714Y-96507380D01*
X155772476Y-96459761D01*
X156820095Y-96507380D02*
X156724857Y-96459761D01*
X156677238Y-96364523D01*
X156677238Y-95507380D01*
X157201047Y-95840714D02*
X157962952Y-96126428D01*
X157201047Y-96412142D01*
X158486761Y-96459761D02*
X158486761Y-96507380D01*
X158439142Y-96602619D01*
X158391523Y-96650238D01*
X159534380Y-95507380D02*
X159867714Y-96507380D01*
X160201047Y-95507380D01*
X160534380Y-96507380D02*
X160534380Y-95507380D01*
X161724857Y-95602619D02*
X161772476Y-95555000D01*
X161867714Y-95507380D01*
X162105809Y-95507380D01*
X162201047Y-95555000D01*
X162248666Y-95602619D01*
X162296285Y-95697857D01*
X162296285Y-95793095D01*
X162248666Y-95935952D01*
X161677238Y-96507380D01*
X162296285Y-96507380D01*
X162915333Y-95507380D02*
X163010571Y-95507380D01*
X163105809Y-95555000D01*
X163153428Y-95602619D01*
X163201047Y-95697857D01*
X163248666Y-95888333D01*
X163248666Y-96126428D01*
X163201047Y-96316904D01*
X163153428Y-96412142D01*
X163105809Y-96459761D01*
X163010571Y-96507380D01*
X162915333Y-96507380D01*
X162820095Y-96459761D01*
X162772476Y-96412142D01*
X162724857Y-96316904D01*
X162677238Y-96126428D01*
X162677238Y-95888333D01*
X162724857Y-95697857D01*
X162772476Y-95602619D01*
X162820095Y-95555000D01*
X162915333Y-95507380D01*
X163629619Y-95602619D02*
X163677238Y-95555000D01*
X163772476Y-95507380D01*
X164010571Y-95507380D01*
X164105809Y-95555000D01*
X164153428Y-95602619D01*
X164201047Y-95697857D01*
X164201047Y-95793095D01*
X164153428Y-95935952D01*
X163582000Y-96507380D01*
X164201047Y-96507380D01*
X165058190Y-95840714D02*
X165058190Y-96507380D01*
X164820095Y-95459761D02*
X164582000Y-96174047D01*
X165201047Y-96174047D01*
X169945142Y-124131428D02*
X170316571Y-124131428D01*
X170116571Y-124360000D01*
X170202285Y-124360000D01*
X170259428Y-124388571D01*
X170288000Y-124417142D01*
X170316571Y-124474285D01*
X170316571Y-124617142D01*
X170288000Y-124674285D01*
X170259428Y-124702857D01*
X170202285Y-124731428D01*
X170030857Y-124731428D01*
X169973714Y-124702857D01*
X169945142Y-124674285D01*
X170488000Y-124131428D02*
X170688000Y-124731428D01*
X170888000Y-124131428D01*
X171030857Y-124131428D02*
X171402285Y-124131428D01*
X171202285Y-124360000D01*
X171288000Y-124360000D01*
X171345142Y-124388571D01*
X171373714Y-124417142D01*
X171402285Y-124474285D01*
X171402285Y-124617142D01*
X171373714Y-124674285D01*
X171345142Y-124702857D01*
X171288000Y-124731428D01*
X171116571Y-124731428D01*
X171059428Y-124702857D01*
X171030857Y-124674285D01*
X161299428Y-85101142D02*
X161213714Y-85072571D01*
X161070857Y-85072571D01*
X161013714Y-85101142D01*
X160985142Y-85129714D01*
X160956571Y-85186857D01*
X160956571Y-85244000D01*
X160985142Y-85301142D01*
X161013714Y-85329714D01*
X161070857Y-85358285D01*
X161185142Y-85386857D01*
X161242285Y-85415428D01*
X161270857Y-85444000D01*
X161299428Y-85501142D01*
X161299428Y-85558285D01*
X161270857Y-85615428D01*
X161242285Y-85644000D01*
X161185142Y-85672571D01*
X161042285Y-85672571D01*
X160956571Y-85644000D01*
X160356571Y-85129714D02*
X160385142Y-85101142D01*
X160470857Y-85072571D01*
X160528000Y-85072571D01*
X160613714Y-85101142D01*
X160670857Y-85158285D01*
X160699428Y-85215428D01*
X160728000Y-85329714D01*
X160728000Y-85415428D01*
X160699428Y-85529714D01*
X160670857Y-85586857D01*
X160613714Y-85644000D01*
X160528000Y-85672571D01*
X160470857Y-85672571D01*
X160385142Y-85644000D01*
X160356571Y-85615428D01*
X160099428Y-85072571D02*
X160099428Y-85672571D01*
X159756571Y-85072571D02*
X160013714Y-85415428D01*
X159756571Y-85672571D02*
X160099428Y-85329714D01*
X161470857Y-87612571D02*
X161470857Y-88212571D01*
X161270857Y-87784000D01*
X161070857Y-88212571D01*
X161070857Y-87612571D01*
X160785142Y-87612571D02*
X160785142Y-88212571D01*
X160528000Y-87641142D02*
X160442285Y-87612571D01*
X160299428Y-87612571D01*
X160242285Y-87641142D01*
X160213714Y-87669714D01*
X160185142Y-87726857D01*
X160185142Y-87784000D01*
X160213714Y-87841142D01*
X160242285Y-87869714D01*
X160299428Y-87898285D01*
X160413714Y-87926857D01*
X160470857Y-87955428D01*
X160499428Y-87984000D01*
X160528000Y-88041142D01*
X160528000Y-88098285D01*
X160499428Y-88155428D01*
X160470857Y-88184000D01*
X160413714Y-88212571D01*
X160270857Y-88212571D01*
X160185142Y-88184000D01*
X159813714Y-88212571D02*
X159699428Y-88212571D01*
X159642285Y-88184000D01*
X159585142Y-88126857D01*
X159556571Y-88012571D01*
X159556571Y-87812571D01*
X159585142Y-87698285D01*
X159642285Y-87641142D01*
X159699428Y-87612571D01*
X159813714Y-87612571D01*
X159870857Y-87641142D01*
X159928000Y-87698285D01*
X159956571Y-87812571D01*
X159956571Y-88012571D01*
X159928000Y-88126857D01*
X159870857Y-88184000D01*
X159813714Y-88212571D01*
X160628000Y-80049714D02*
X160656571Y-80021142D01*
X160742285Y-79992571D01*
X160799428Y-79992571D01*
X160885142Y-80021142D01*
X160942285Y-80078285D01*
X160970857Y-80135428D01*
X160999428Y-80249714D01*
X160999428Y-80335428D01*
X160970857Y-80449714D01*
X160942285Y-80506857D01*
X160885142Y-80564000D01*
X160799428Y-80592571D01*
X160742285Y-80592571D01*
X160656571Y-80564000D01*
X160628000Y-80535428D01*
X160399428Y-80021142D02*
X160313714Y-79992571D01*
X160170857Y-79992571D01*
X160113714Y-80021142D01*
X160085142Y-80049714D01*
X160056571Y-80106857D01*
X160056571Y-80164000D01*
X160085142Y-80221142D01*
X160113714Y-80249714D01*
X160170857Y-80278285D01*
X160285142Y-80306857D01*
X160342285Y-80335428D01*
X160370857Y-80364000D01*
X160399428Y-80421142D01*
X160399428Y-80478285D01*
X160370857Y-80535428D01*
X160342285Y-80564000D01*
X160285142Y-80592571D01*
X160142285Y-80592571D01*
X160056571Y-80564000D01*
X124360000Y-95070428D02*
X124360000Y-95356142D01*
X124188571Y-95013285D02*
X124788571Y-95213285D01*
X124188571Y-95413285D01*
X124788571Y-95899000D02*
X124788571Y-95613285D01*
X124502857Y-95584714D01*
X124531428Y-95613285D01*
X124560000Y-95670428D01*
X124560000Y-95813285D01*
X124531428Y-95870428D01*
X124502857Y-95899000D01*
X124445714Y-95927571D01*
X124302857Y-95927571D01*
X124245714Y-95899000D01*
X124217142Y-95870428D01*
X124188571Y-95813285D01*
X124188571Y-95670428D01*
X124217142Y-95613285D01*
X124245714Y-95584714D01*
X161270857Y-78052571D02*
X160899428Y-78052571D01*
X161099428Y-77824000D01*
X161013714Y-77824000D01*
X160956571Y-77795428D01*
X160928000Y-77766857D01*
X160899428Y-77709714D01*
X160899428Y-77566857D01*
X160928000Y-77509714D01*
X160956571Y-77481142D01*
X161013714Y-77452571D01*
X161185142Y-77452571D01*
X161242285Y-77481142D01*
X161270857Y-77509714D01*
X160728000Y-78052571D02*
X160528000Y-77452571D01*
X160328000Y-78052571D01*
X160185142Y-78052571D02*
X159813714Y-78052571D01*
X160013714Y-77824000D01*
X159928000Y-77824000D01*
X159870857Y-77795428D01*
X159842285Y-77766857D01*
X159813714Y-77709714D01*
X159813714Y-77566857D01*
X159842285Y-77509714D01*
X159870857Y-77481142D01*
X159928000Y-77452571D01*
X160099428Y-77452571D01*
X160156571Y-77481142D01*
X160185142Y-77509714D01*
X127201571Y-129246118D02*
X126601571Y-129446118D01*
X127201571Y-129646118D01*
X127201571Y-129960403D02*
X127201571Y-130074689D01*
X127173000Y-130131832D01*
X127115857Y-130188975D01*
X127001571Y-130217546D01*
X126801571Y-130217546D01*
X126687285Y-130188975D01*
X126630142Y-130131832D01*
X126601571Y-130074689D01*
X126601571Y-129960403D01*
X126630142Y-129903261D01*
X126687285Y-129846118D01*
X126801571Y-129817546D01*
X127001571Y-129817546D01*
X127115857Y-129846118D01*
X127173000Y-129903261D01*
X127201571Y-129960403D01*
X127201571Y-130474689D02*
X126715857Y-130474689D01*
X126658714Y-130503261D01*
X126630142Y-130531832D01*
X126601571Y-130588975D01*
X126601571Y-130703261D01*
X126630142Y-130760403D01*
X126658714Y-130788975D01*
X126715857Y-130817546D01*
X127201571Y-130817546D01*
X127201571Y-131017546D02*
X127201571Y-131360403D01*
X126601571Y-131188975D02*
X127201571Y-131188975D01*
X124188571Y-97353285D02*
X124788571Y-97353285D01*
X124788571Y-97496142D01*
X124760000Y-97581857D01*
X124702857Y-97639000D01*
X124645714Y-97667571D01*
X124531428Y-97696142D01*
X124445714Y-97696142D01*
X124331428Y-97667571D01*
X124274285Y-97639000D01*
X124217142Y-97581857D01*
X124188571Y-97496142D01*
X124188571Y-97353285D01*
X124502857Y-97953285D02*
X124502857Y-98153285D01*
X124188571Y-98239000D02*
X124188571Y-97953285D01*
X124788571Y-97953285D01*
X124788571Y-98239000D01*
X124788571Y-98410428D02*
X124188571Y-98610428D01*
X124788571Y-98810428D01*
D12*
X140462000Y-122455714D02*
X140533428Y-122527142D01*
X140462000Y-122598571D01*
X140390571Y-122527142D01*
X140462000Y-122455714D01*
X140462000Y-122598571D01*
D11*
X171238857Y-133150000D02*
X171238857Y-132950000D01*
X170924571Y-132950000D02*
X171524571Y-132950000D01*
X171524571Y-133235714D01*
X171524571Y-133407142D02*
X171524571Y-133807142D01*
X170924571Y-133550000D01*
X129713000Y-129846118D02*
X129741571Y-129788975D01*
X129741571Y-129703261D01*
X129713000Y-129617546D01*
X129655857Y-129560403D01*
X129598714Y-129531832D01*
X129484428Y-129503261D01*
X129398714Y-129503261D01*
X129284428Y-129531832D01*
X129227285Y-129560403D01*
X129170142Y-129617546D01*
X129141571Y-129703261D01*
X129141571Y-129760403D01*
X129170142Y-129846118D01*
X129198714Y-129874689D01*
X129398714Y-129874689D01*
X129398714Y-129760403D01*
X129141571Y-130131832D02*
X129741571Y-130131832D01*
X129141571Y-130474689D01*
X129741571Y-130474689D01*
X129141571Y-130760403D02*
X129741571Y-130760403D01*
X129741571Y-130903261D01*
X129713000Y-130988975D01*
X129655857Y-131046118D01*
X129598714Y-131074689D01*
X129484428Y-131103261D01*
X129398714Y-131103261D01*
X129284428Y-131074689D01*
X129227285Y-131046118D01*
X129170142Y-130988975D01*
X129141571Y-130903261D01*
X129141571Y-130760403D01*
X170230857Y-111460000D02*
X170173714Y-111431428D01*
X170088000Y-111431428D01*
X170002285Y-111460000D01*
X169945142Y-111517142D01*
X169916571Y-111574285D01*
X169888000Y-111688571D01*
X169888000Y-111774285D01*
X169916571Y-111888571D01*
X169945142Y-111945714D01*
X170002285Y-112002857D01*
X170088000Y-112031428D01*
X170145142Y-112031428D01*
X170230857Y-112002857D01*
X170259428Y-111974285D01*
X170259428Y-111774285D01*
X170145142Y-111774285D01*
X170516571Y-112031428D02*
X170516571Y-111431428D01*
X170859428Y-112031428D01*
X170859428Y-111431428D01*
X171145142Y-112031428D02*
X171145142Y-111431428D01*
X171288000Y-111431428D01*
X171373714Y-111460000D01*
X171430857Y-111517142D01*
X171459428Y-111574285D01*
X171488000Y-111688571D01*
X171488000Y-111774285D01*
X171459428Y-111888571D01*
X171430857Y-111945714D01*
X171373714Y-112002857D01*
X171288000Y-112031428D01*
X171145142Y-112031428D01*
X169902285Y-113971428D02*
X170245142Y-113971428D01*
X170073714Y-114571428D02*
X170073714Y-113971428D01*
X170445142Y-114571428D02*
X170445142Y-113971428D01*
X170588000Y-113971428D01*
X170673714Y-114000000D01*
X170730857Y-114057142D01*
X170759428Y-114114285D01*
X170788000Y-114228571D01*
X170788000Y-114314285D01*
X170759428Y-114428571D01*
X170730857Y-114485714D01*
X170673714Y-114542857D01*
X170588000Y-114571428D01*
X170445142Y-114571428D01*
X171159428Y-113971428D02*
X171273714Y-113971428D01*
X171330857Y-114000000D01*
X171388000Y-114057142D01*
X171416571Y-114171428D01*
X171416571Y-114371428D01*
X171388000Y-114485714D01*
X171330857Y-114542857D01*
X171273714Y-114571428D01*
X171159428Y-114571428D01*
X171102285Y-114542857D01*
X171045142Y-114485714D01*
X171016571Y-114371428D01*
X171016571Y-114171428D01*
X171045142Y-114057142D01*
X171102285Y-114000000D01*
X171159428Y-113971428D01*
X169916571Y-119051428D02*
X170259428Y-119051428D01*
X170088000Y-119651428D02*
X170088000Y-119051428D01*
X170802285Y-119594285D02*
X170773714Y-119622857D01*
X170688000Y-119651428D01*
X170630857Y-119651428D01*
X170545142Y-119622857D01*
X170488000Y-119565714D01*
X170459428Y-119508571D01*
X170430857Y-119394285D01*
X170430857Y-119308571D01*
X170459428Y-119194285D01*
X170488000Y-119137142D01*
X170545142Y-119080000D01*
X170630857Y-119051428D01*
X170688000Y-119051428D01*
X170773714Y-119080000D01*
X170802285Y-119108571D01*
X171059428Y-119651428D02*
X171059428Y-119051428D01*
X171402285Y-119651428D02*
X171145142Y-119308571D01*
X171402285Y-119051428D02*
X171059428Y-119394285D01*
X161470857Y-82532571D02*
X161470857Y-83132571D01*
X161270857Y-82704000D01*
X161070857Y-83132571D01*
X161070857Y-82532571D01*
X160670857Y-83132571D02*
X160556571Y-83132571D01*
X160499428Y-83104000D01*
X160442285Y-83046857D01*
X160413714Y-82932571D01*
X160413714Y-82732571D01*
X160442285Y-82618285D01*
X160499428Y-82561142D01*
X160556571Y-82532571D01*
X160670857Y-82532571D01*
X160728000Y-82561142D01*
X160785142Y-82618285D01*
X160813714Y-82732571D01*
X160813714Y-82932571D01*
X160785142Y-83046857D01*
X160728000Y-83104000D01*
X160670857Y-83132571D01*
X160185142Y-82561142D02*
X160099428Y-82532571D01*
X159956571Y-82532571D01*
X159899428Y-82561142D01*
X159870857Y-82589714D01*
X159842285Y-82646857D01*
X159842285Y-82704000D01*
X159870857Y-82761142D01*
X159899428Y-82789714D01*
X159956571Y-82818285D01*
X160070857Y-82846857D01*
X160128000Y-82875428D01*
X160156571Y-82904000D01*
X160185142Y-82961142D01*
X160185142Y-83018285D01*
X160156571Y-83075428D01*
X160128000Y-83104000D01*
X160070857Y-83132571D01*
X159928000Y-83132571D01*
X159842285Y-83104000D01*
X159585142Y-82532571D02*
X159585142Y-83132571D01*
X160985142Y-90724000D02*
X161042285Y-90752571D01*
X161128000Y-90752571D01*
X161213714Y-90724000D01*
X161270857Y-90666857D01*
X161299428Y-90609714D01*
X161328000Y-90495428D01*
X161328000Y-90409714D01*
X161299428Y-90295428D01*
X161270857Y-90238285D01*
X161213714Y-90181142D01*
X161128000Y-90152571D01*
X161070857Y-90152571D01*
X160985142Y-90181142D01*
X160956571Y-90209714D01*
X160956571Y-90409714D01*
X161070857Y-90409714D01*
X160699428Y-90152571D02*
X160699428Y-90752571D01*
X160356571Y-90152571D01*
X160356571Y-90752571D01*
X160070857Y-90152571D02*
X160070857Y-90752571D01*
X159928000Y-90752571D01*
X159842285Y-90724000D01*
X159785142Y-90666857D01*
X159756571Y-90609714D01*
X159728000Y-90495428D01*
X159728000Y-90409714D01*
X159756571Y-90295428D01*
X159785142Y-90238285D01*
X159842285Y-90181142D01*
X159928000Y-90152571D01*
X160070857Y-90152571D01*
X155808310Y-129684766D02*
X155808310Y-129752109D01*
X155740966Y-129886796D01*
X155673623Y-129954140D01*
X155538935Y-130021483D01*
X155404248Y-130021483D01*
X155303233Y-129987812D01*
X155134874Y-129886796D01*
X155033859Y-129785781D01*
X154932844Y-129617422D01*
X154899172Y-129516407D01*
X154899172Y-129381720D01*
X154966516Y-129247033D01*
X155033859Y-129179689D01*
X155168546Y-129112346D01*
X155235890Y-129112346D01*
X155404248Y-128809300D02*
X155841981Y-128371567D01*
X155875653Y-128876644D01*
X155976668Y-128775628D01*
X156077684Y-128741957D01*
X156145027Y-128741957D01*
X156246042Y-128775628D01*
X156414401Y-128943987D01*
X156448073Y-129045002D01*
X156448073Y-129112346D01*
X156414401Y-129213361D01*
X156212371Y-129415392D01*
X156111355Y-129449064D01*
X156044012Y-129449064D01*
X156154450Y-114337251D02*
X156221793Y-114337251D01*
X156356480Y-114404595D01*
X156423824Y-114471939D01*
X156491167Y-114606626D01*
X156491167Y-114741313D01*
X156457496Y-114842328D01*
X156356480Y-115010687D01*
X156255465Y-115111702D01*
X156087106Y-115212717D01*
X155986091Y-115246389D01*
X155851404Y-115246389D01*
X155716717Y-115179045D01*
X155649373Y-115111702D01*
X155582030Y-114977015D01*
X155582030Y-114909671D01*
X155144297Y-114135221D02*
X155615702Y-113663816D01*
X155043282Y-114572954D02*
X155716717Y-114236236D01*
X155278984Y-113798503D01*
X121470380Y-133684633D02*
X122184666Y-133684633D01*
X122327523Y-133732252D01*
X122422761Y-133827490D01*
X122470380Y-133970347D01*
X122470380Y-134065585D01*
X121803714Y-132779871D02*
X122470380Y-132779871D01*
X121422761Y-133017966D02*
X122137047Y-133256061D01*
X122137047Y-132637014D01*
X127039666Y-127905776D02*
X127039666Y-127429585D01*
X127325380Y-128001014D02*
X126325380Y-127667680D01*
X127325380Y-127334347D01*
X127325380Y-127001014D02*
X126325380Y-127001014D01*
X127039666Y-126667680D01*
X126325380Y-126334347D01*
X127325380Y-126334347D01*
X127277761Y-125905776D02*
X127325380Y-125762919D01*
X127325380Y-125524823D01*
X127277761Y-125429585D01*
X127230142Y-125381966D01*
X127134904Y-125334347D01*
X127039666Y-125334347D01*
X126944428Y-125381966D01*
X126896809Y-125429585D01*
X126849190Y-125524823D01*
X126801571Y-125715300D01*
X126753952Y-125810538D01*
X126706333Y-125858157D01*
X126611095Y-125905776D01*
X126515857Y-125905776D01*
X126420619Y-125858157D01*
X126373000Y-125810538D01*
X126325380Y-125715300D01*
X126325380Y-125477204D01*
X126373000Y-125334347D01*
X127325380Y-124381966D02*
X127325380Y-124953395D01*
X127325380Y-124667680D02*
X126325380Y-124667680D01*
X126468238Y-124762919D01*
X126563476Y-124858157D01*
X126611095Y-124953395D01*
X127325380Y-123429585D02*
X127325380Y-124001014D01*
X127325380Y-123715300D02*
X126325380Y-123715300D01*
X126468238Y-123810538D01*
X126563476Y-123905776D01*
X126611095Y-124001014D01*
X127325380Y-122477204D02*
X127325380Y-123048633D01*
X127325380Y-122762919D02*
X126325380Y-122762919D01*
X126468238Y-122858157D01*
X126563476Y-122953395D01*
X126611095Y-123048633D01*
X126325380Y-122143871D02*
X126325380Y-121477204D01*
X127325380Y-121905776D01*
X141258328Y-129233373D02*
X141325671Y-129233373D01*
X141460358Y-129300717D01*
X141527702Y-129368061D01*
X141595045Y-129502748D01*
X141595045Y-129637435D01*
X141561374Y-129738450D01*
X141460358Y-129906809D01*
X141359343Y-130007824D01*
X141190984Y-130108839D01*
X141089969Y-130142511D01*
X140955282Y-130142511D01*
X140820595Y-130075167D01*
X140753251Y-130007824D01*
X140685908Y-129873137D01*
X140685908Y-129805793D01*
X140416534Y-129536419D02*
X140349190Y-129536419D01*
X140248175Y-129502748D01*
X140079816Y-129334389D01*
X140046145Y-129233373D01*
X140046145Y-129166030D01*
X140079816Y-129065015D01*
X140147160Y-128997671D01*
X140281847Y-128930328D01*
X141089969Y-128930328D01*
X140652236Y-128492595D01*
X173397666Y-135132380D02*
X173397666Y-135846666D01*
X173350047Y-135989523D01*
X173254809Y-136084761D01*
X173111952Y-136132380D01*
X173016714Y-136132380D01*
X173778619Y-135132380D02*
X174397666Y-135132380D01*
X174064333Y-135513333D01*
X174207190Y-135513333D01*
X174302428Y-135560952D01*
X174350047Y-135608571D01*
X174397666Y-135703809D01*
X174397666Y-135941904D01*
X174350047Y-136037142D01*
X174302428Y-136084761D01*
X174207190Y-136132380D01*
X173921476Y-136132380D01*
X173826238Y-136084761D01*
X173778619Y-136037142D01*
X173402666Y-126242380D02*
X173402666Y-126956666D01*
X173355047Y-127099523D01*
X173259809Y-127194761D01*
X173116952Y-127242380D01*
X173021714Y-127242380D01*
X173831238Y-126337619D02*
X173878857Y-126290000D01*
X173974095Y-126242380D01*
X174212190Y-126242380D01*
X174307428Y-126290000D01*
X174355047Y-126337619D01*
X174402666Y-126432857D01*
X174402666Y-126528095D01*
X174355047Y-126670952D01*
X173783619Y-127242380D01*
X174402666Y-127242380D01*
X172569333Y-108882380D02*
X172569333Y-109596666D01*
X172521714Y-109739523D01*
X172426476Y-109834761D01*
X172283619Y-109882380D01*
X172188380Y-109882380D01*
X172902666Y-108882380D02*
X173474095Y-108882380D01*
X173188380Y-109882380D02*
X173188380Y-108882380D01*
X173759809Y-109596666D02*
X174236000Y-109596666D01*
X173664571Y-109882380D02*
X173997904Y-108882380D01*
X174331238Y-109882380D01*
X175188380Y-108930000D02*
X175093142Y-108882380D01*
X174950285Y-108882380D01*
X174807428Y-108930000D01*
X174712190Y-109025238D01*
X174664571Y-109120476D01*
X174616952Y-109310952D01*
X174616952Y-109453809D01*
X174664571Y-109644285D01*
X174712190Y-109739523D01*
X174807428Y-109834761D01*
X174950285Y-109882380D01*
X175045523Y-109882380D01*
X175188380Y-109834761D01*
X175236000Y-109787142D01*
X175236000Y-109453809D01*
X175045523Y-109453809D01*
X142212791Y-116874287D02*
X142785211Y-117446707D01*
X142886226Y-117480379D01*
X142953570Y-117480379D01*
X143054585Y-117446707D01*
X143189272Y-117312020D01*
X143222944Y-117211005D01*
X143222944Y-117143661D01*
X143189272Y-117042646D01*
X142616852Y-116470226D01*
X144031066Y-116470226D02*
X143627005Y-116874287D01*
X143829035Y-116672257D02*
X143121929Y-115965150D01*
X143155600Y-116133509D01*
X143155600Y-116268196D01*
X143121929Y-116369211D01*
X118832380Y-83819904D02*
X119641904Y-83819904D01*
X119737142Y-83772285D01*
X119784761Y-83724666D01*
X119832380Y-83629428D01*
X119832380Y-83438952D01*
X119784761Y-83343714D01*
X119737142Y-83296095D01*
X119641904Y-83248476D01*
X118832380Y-83248476D01*
X118927619Y-82819904D02*
X118880000Y-82772285D01*
X118832380Y-82677047D01*
X118832380Y-82438952D01*
X118880000Y-82343714D01*
X118927619Y-82296095D01*
X119022857Y-82248476D01*
X119118095Y-82248476D01*
X119260952Y-82296095D01*
X119832380Y-82867523D01*
X119832380Y-82248476D01*
X137390952Y-81954666D02*
X137867142Y-81954666D01*
X137295714Y-82240380D02*
X137629047Y-81240380D01*
X137962380Y-82240380D01*
X138295714Y-82240380D02*
X138295714Y-81573714D01*
X138295714Y-81764190D02*
X138343333Y-81668952D01*
X138390952Y-81621333D01*
X138486190Y-81573714D01*
X138581428Y-81573714D01*
X139343333Y-82240380D02*
X139343333Y-81240380D01*
X139343333Y-82192761D02*
X139248095Y-82240380D01*
X139057619Y-82240380D01*
X138962380Y-82192761D01*
X138914761Y-82145142D01*
X138867142Y-82049904D01*
X138867142Y-81764190D01*
X138914761Y-81668952D01*
X138962380Y-81621333D01*
X139057619Y-81573714D01*
X139248095Y-81573714D01*
X139343333Y-81621333D01*
X140248095Y-81573714D02*
X140248095Y-82240380D01*
X139819523Y-81573714D02*
X139819523Y-82097523D01*
X139867142Y-82192761D01*
X139962380Y-82240380D01*
X140105238Y-82240380D01*
X140200476Y-82192761D01*
X140248095Y-82145142D01*
X140724285Y-82240380D02*
X140724285Y-81573714D01*
X140724285Y-81240380D02*
X140676666Y-81288000D01*
X140724285Y-81335619D01*
X140771904Y-81288000D01*
X140724285Y-81240380D01*
X140724285Y-81335619D01*
X141200476Y-81573714D02*
X141200476Y-82240380D01*
X141200476Y-81668952D02*
X141248095Y-81621333D01*
X141343333Y-81573714D01*
X141486190Y-81573714D01*
X141581428Y-81621333D01*
X141629047Y-81716571D01*
X141629047Y-82240380D01*
X142248095Y-82240380D02*
X142152857Y-82192761D01*
X142105238Y-82145142D01*
X142057619Y-82049904D01*
X142057619Y-81764190D01*
X142105238Y-81668952D01*
X142152857Y-81621333D01*
X142248095Y-81573714D01*
X142390952Y-81573714D01*
X142486190Y-81621333D01*
X142533809Y-81668952D01*
X142581428Y-81764190D01*
X142581428Y-82049904D01*
X142533809Y-82145142D01*
X142486190Y-82192761D01*
X142390952Y-82240380D01*
X142248095Y-82240380D01*
X142771904Y-82335619D02*
X143533809Y-82335619D01*
X143771904Y-82240380D02*
X143771904Y-81240380D01*
X144152857Y-81240380D01*
X144248095Y-81288000D01*
X144295714Y-81335619D01*
X144343333Y-81430857D01*
X144343333Y-81573714D01*
X144295714Y-81668952D01*
X144248095Y-81716571D01*
X144152857Y-81764190D01*
X143771904Y-81764190D01*
X144771904Y-82240380D02*
X144771904Y-81573714D01*
X144771904Y-81764190D02*
X144819523Y-81668952D01*
X144867142Y-81621333D01*
X144962380Y-81573714D01*
X145057619Y-81573714D01*
X145533809Y-82240380D02*
X145438571Y-82192761D01*
X145390952Y-82145142D01*
X145343333Y-82049904D01*
X145343333Y-81764190D01*
X145390952Y-81668952D01*
X145438571Y-81621333D01*
X145533809Y-81573714D01*
X145676666Y-81573714D01*
X145771904Y-81621333D01*
X145819523Y-81668952D01*
X145867142Y-81764190D01*
X145867142Y-82049904D01*
X145819523Y-82145142D01*
X145771904Y-82192761D01*
X145676666Y-82240380D01*
X145533809Y-82240380D01*
X146057619Y-82335619D02*
X146819523Y-82335619D01*
X147057619Y-82240380D02*
X147057619Y-81240380D01*
X147390952Y-81954666D01*
X147724285Y-81240380D01*
X147724285Y-82240380D01*
X148200476Y-82240380D02*
X148200476Y-81573714D01*
X148200476Y-81240380D02*
X148152857Y-81288000D01*
X148200476Y-81335619D01*
X148248095Y-81288000D01*
X148200476Y-81240380D01*
X148200476Y-81335619D01*
X148676666Y-81573714D02*
X148676666Y-82240380D01*
X148676666Y-81668952D02*
X148724285Y-81621333D01*
X148819523Y-81573714D01*
X148962380Y-81573714D01*
X149057619Y-81621333D01*
X149105238Y-81716571D01*
X149105238Y-82240380D01*
X149581428Y-82240380D02*
X149581428Y-81573714D01*
X149581428Y-81240380D02*
X149533809Y-81288000D01*
X149581428Y-81335619D01*
X149629047Y-81288000D01*
X149581428Y-81240380D01*
X149581428Y-81335619D01*
X157400666Y-74846380D02*
X157400666Y-75560666D01*
X157353047Y-75703523D01*
X157257809Y-75798761D01*
X157114952Y-75846380D01*
X157019714Y-75846380D01*
X158353047Y-74846380D02*
X157876857Y-74846380D01*
X157829238Y-75322571D01*
X157876857Y-75274952D01*
X157972095Y-75227333D01*
X158210190Y-75227333D01*
X158305428Y-75274952D01*
X158353047Y-75322571D01*
X158400666Y-75417809D01*
X158400666Y-75655904D01*
X158353047Y-75751142D01*
X158305428Y-75798761D01*
X158210190Y-75846380D01*
X157972095Y-75846380D01*
X157876857Y-75798761D01*
X157829238Y-75751142D01*
X167338761Y-84732761D02*
X167481619Y-84780380D01*
X167719714Y-84780380D01*
X167814952Y-84732761D01*
X167862571Y-84685142D01*
X167910190Y-84589904D01*
X167910190Y-84494666D01*
X167862571Y-84399428D01*
X167814952Y-84351809D01*
X167719714Y-84304190D01*
X167529238Y-84256571D01*
X167434000Y-84208952D01*
X167386380Y-84161333D01*
X167338761Y-84066095D01*
X167338761Y-83970857D01*
X167386380Y-83875619D01*
X167434000Y-83828000D01*
X167529238Y-83780380D01*
X167767333Y-83780380D01*
X167910190Y-83828000D01*
X168338761Y-84780380D02*
X168338761Y-83780380D01*
X168576857Y-83780380D01*
X168719714Y-83828000D01*
X168814952Y-83923238D01*
X168862571Y-84018476D01*
X168910190Y-84208952D01*
X168910190Y-84351809D01*
X168862571Y-84542285D01*
X168814952Y-84637523D01*
X168719714Y-84732761D01*
X168576857Y-84780380D01*
X168338761Y-84780380D01*
X170672095Y-84685142D02*
X170624476Y-84732761D01*
X170481619Y-84780380D01*
X170386380Y-84780380D01*
X170243523Y-84732761D01*
X170148285Y-84637523D01*
X170100666Y-84542285D01*
X170053047Y-84351809D01*
X170053047Y-84208952D01*
X170100666Y-84018476D01*
X170148285Y-83923238D01*
X170243523Y-83828000D01*
X170386380Y-83780380D01*
X170481619Y-83780380D01*
X170624476Y-83828000D01*
X170672095Y-83875619D01*
X171053047Y-84494666D02*
X171529238Y-84494666D01*
X170957809Y-84780380D02*
X171291142Y-83780380D01*
X171624476Y-84780380D01*
X172529238Y-84780380D02*
X172195904Y-84304190D01*
X171957809Y-84780380D02*
X171957809Y-83780380D01*
X172338761Y-83780380D01*
X172434000Y-83828000D01*
X172481619Y-83875619D01*
X172529238Y-83970857D01*
X172529238Y-84113714D01*
X172481619Y-84208952D01*
X172434000Y-84256571D01*
X172338761Y-84304190D01*
X171957809Y-84304190D01*
X172957809Y-84780380D02*
X172957809Y-83780380D01*
X173195904Y-83780380D01*
X173338761Y-83828000D01*
X173434000Y-83923238D01*
X173481619Y-84018476D01*
X173529238Y-84208952D01*
X173529238Y-84351809D01*
X173481619Y-84542285D01*
X173434000Y-84637523D01*
X173338761Y-84732761D01*
X173195904Y-84780380D01*
X172957809Y-84780380D01*
X140472666Y-59932380D02*
X140472666Y-60646666D01*
X140425047Y-60789523D01*
X140329809Y-60884761D01*
X140186952Y-60932380D01*
X140091714Y-60932380D01*
X141091714Y-60360952D02*
X140996476Y-60313333D01*
X140948857Y-60265714D01*
X140901238Y-60170476D01*
X140901238Y-60122857D01*
X140948857Y-60027619D01*
X140996476Y-59980000D01*
X141091714Y-59932380D01*
X141282190Y-59932380D01*
X141377428Y-59980000D01*
X141425047Y-60027619D01*
X141472666Y-60122857D01*
X141472666Y-60170476D01*
X141425047Y-60265714D01*
X141377428Y-60313333D01*
X141282190Y-60360952D01*
X141091714Y-60360952D01*
X140996476Y-60408571D01*
X140948857Y-60456190D01*
X140901238Y-60551428D01*
X140901238Y-60741904D01*
X140948857Y-60837142D01*
X140996476Y-60884761D01*
X141091714Y-60932380D01*
X141282190Y-60932380D01*
X141377428Y-60884761D01*
X141425047Y-60837142D01*
X141472666Y-60741904D01*
X141472666Y-60551428D01*
X141425047Y-60456190D01*
X141377428Y-60408571D01*
X141282190Y-60360952D01*
X122602666Y-92665380D02*
X122602666Y-93379666D01*
X122555047Y-93522523D01*
X122459809Y-93617761D01*
X122316952Y-93665380D01*
X122221714Y-93665380D01*
X122983619Y-92665380D02*
X123650285Y-92665380D01*
X123221714Y-93665380D01*
X141022626Y-114842328D02*
X141022626Y-114909671D01*
X140955282Y-115044358D01*
X140887939Y-115111702D01*
X140753251Y-115179045D01*
X140618564Y-115179045D01*
X140517549Y-115145374D01*
X140349190Y-115044358D01*
X140248175Y-114943343D01*
X140147160Y-114774984D01*
X140113488Y-114673969D01*
X140113488Y-114539282D01*
X140180832Y-114404595D01*
X140248175Y-114337251D01*
X140382862Y-114269908D01*
X140450206Y-114269908D01*
X141763404Y-114236236D02*
X141359343Y-114640297D01*
X141561374Y-114438267D02*
X140854267Y-113731160D01*
X140887939Y-113899519D01*
X140887939Y-114034206D01*
X140854267Y-114135221D01*
D10*
X156637010Y-129851543D02*
X156267543Y-130221010D01*
X157676457Y-130890990D02*
X157306990Y-131260457D01*
X157676457Y-112949010D02*
X157306990Y-112579543D01*
X156637010Y-113988457D02*
X156267543Y-113618990D01*
X124348000Y-134681300D02*
X123018000Y-134681300D01*
X130758000Y-134681300D02*
X130758000Y-132021300D01*
X125618000Y-134681300D02*
X130758000Y-134681300D01*
X123018000Y-134681300D02*
X123018000Y-133351300D01*
X125618000Y-132021300D02*
X130758000Y-132021300D01*
X125618000Y-134681300D02*
X125618000Y-132021300D01*
X140034990Y-129851543D02*
X140404457Y-130221010D01*
X138995543Y-130890990D02*
X139365010Y-131260457D01*
X175061000Y-132080000D02*
X172401000Y-132080000D01*
X175061000Y-134680000D02*
X173731000Y-134680000D01*
X175061000Y-132080000D02*
X175061000Y-129480000D01*
X175061000Y-129480000D02*
X172401000Y-129480000D01*
X172401000Y-132080000D02*
X172401000Y-129480000D01*
X175061000Y-133350000D02*
X175061000Y-134680000D01*
X175066000Y-123190000D02*
X175066000Y-110430000D01*
X175066000Y-110430000D02*
X172406000Y-110430000D01*
X175066000Y-123190000D02*
X172406000Y-123190000D01*
X175066000Y-125790000D02*
X173736000Y-125790000D01*
X175066000Y-124460000D02*
X175066000Y-125790000D01*
X172406000Y-123190000D02*
X172406000Y-110430000D01*
X154890880Y-122591751D02*
X155562631Y-121920000D01*
X155562631Y-121920000D02*
X154890880Y-121248249D01*
X141781120Y-122591751D02*
X140868952Y-123503919D01*
X148336000Y-114693369D02*
X149007751Y-115365120D01*
X141781120Y-121248249D02*
X141109369Y-121920000D01*
X147664249Y-115365120D02*
X148336000Y-114693369D01*
X148336000Y-129146631D02*
X147664249Y-128474880D01*
X141109369Y-121920000D02*
X141781120Y-122591751D01*
X149007751Y-128474880D02*
X148336000Y-129146631D01*
X120523000Y-74041000D02*
X120523000Y-92075000D01*
X123190000Y-89408000D02*
X123190000Y-92075000D01*
X125730000Y-89408000D02*
X123190000Y-89408000D01*
X153797000Y-92075000D02*
X153797000Y-74038000D01*
X123190000Y-76708000D02*
X123190000Y-74038000D01*
X125730000Y-89408000D02*
X153797000Y-89408000D01*
X123190000Y-76708000D02*
X153797000Y-76708000D01*
X125730000Y-89408000D02*
X125730000Y-92075000D01*
X153797000Y-74041000D02*
X120523000Y-74041000D01*
X125730000Y-92075000D02*
X153797000Y-92075000D01*
X120523000Y-92075000D02*
X123190000Y-92075000D01*
X156404000Y-78994000D02*
X156404000Y-91754000D01*
X156404000Y-77724000D02*
X156404000Y-76394000D01*
X156404000Y-78994000D02*
X159064000Y-78994000D01*
X159064000Y-78994000D02*
X159064000Y-91754000D01*
X156404000Y-76394000D02*
X157734000Y-76394000D01*
X156404000Y-91754000D02*
X159064000Y-91754000D01*
X121056000Y-59230000D02*
X176056000Y-59230000D01*
X176056000Y-59230000D02*
X176056000Y-68330000D01*
X176056000Y-68330000D02*
X121056000Y-68330000D01*
X121056000Y-68330000D02*
X121056000Y-59230000D01*
X124012000Y-96774000D02*
X124012000Y-94174000D01*
X124012000Y-96774000D02*
X121352000Y-96774000D01*
X124012000Y-98044000D02*
X124012000Y-99374000D01*
X124012000Y-94174000D02*
X121352000Y-94174000D01*
X124012000Y-99374000D02*
X122682000Y-99374000D01*
X121352000Y-96774000D02*
X121352000Y-94174000D01*
X140404457Y-113618990D02*
X140034990Y-113988457D01*
X139365010Y-112579543D02*
X138995543Y-112949010D01*
D13*
X153501100Y-102003600D02*
G75*
G03*
X153501100Y-102003600I-5000000J0D01*
G01*
%LPC*%
D14*
X157705623Y-129822377D03*
X156238377Y-131289623D03*
D15*
X157705623Y-114017623D03*
X156238377Y-112550377D03*
D16*
X124348000Y-133351300D03*
D17*
X126888000Y-133351300D03*
X129428000Y-133351300D03*
D18*
X138966377Y-129822377D03*
X140433623Y-131289623D03*
D16*
X173731000Y-133350000D03*
D17*
X173731000Y-130810000D03*
D16*
X173736000Y-124460000D03*
D17*
X173736000Y-121920000D03*
X173736000Y-119380000D03*
X173736000Y-116840000D03*
X173736000Y-114300000D03*
X173736000Y-111760000D03*
D19*
X141680357Y-123272342D03*
X142033911Y-123625895D03*
X142387464Y-123979449D03*
X142741018Y-124333002D03*
X143094571Y-124686555D03*
X143448124Y-125040109D03*
X143801678Y-125393662D03*
X144155231Y-125747215D03*
X144508785Y-126100769D03*
X144862338Y-126454322D03*
X145215891Y-126807876D03*
X145569445Y-127161429D03*
X145922998Y-127514982D03*
X146276551Y-127868536D03*
X146630105Y-128222089D03*
X146983658Y-128575643D03*
D20*
X149688342Y-128575643D03*
X150041895Y-128222089D03*
X150395449Y-127868536D03*
X150749002Y-127514982D03*
X151102555Y-127161429D03*
X151456109Y-126807876D03*
X151809662Y-126454322D03*
X152163215Y-126100769D03*
X152516769Y-125747215D03*
X152870322Y-125393662D03*
X153223876Y-125040109D03*
X153577429Y-124686555D03*
X153930982Y-124333002D03*
X154284536Y-123979449D03*
X154638089Y-123625895D03*
X154991643Y-123272342D03*
D19*
X154991643Y-120567658D03*
X154638089Y-120214105D03*
X154284536Y-119860551D03*
X153930982Y-119506998D03*
X153577429Y-119153445D03*
X153223876Y-118799891D03*
X152870322Y-118446338D03*
X152516769Y-118092785D03*
X152163215Y-117739231D03*
X151809662Y-117385678D03*
X151456109Y-117032124D03*
X151102555Y-116678571D03*
X150749002Y-116325018D03*
X150395449Y-115971464D03*
X150041895Y-115617911D03*
X149688342Y-115264357D03*
D20*
X146983658Y-115264357D03*
X146630105Y-115617911D03*
X146276551Y-115971464D03*
X145922998Y-116325018D03*
X145569445Y-116678571D03*
X145215891Y-117032124D03*
X144862338Y-117385678D03*
X144508785Y-117739231D03*
X144155231Y-118092785D03*
X143801678Y-118446338D03*
X143448124Y-118799891D03*
X143094571Y-119153445D03*
X142741018Y-119506998D03*
X142387464Y-119860551D03*
X142033911Y-120214105D03*
X141680357Y-120567658D03*
D21*
X124460000Y-90678000D03*
D22*
X127000000Y-90678000D03*
X129540000Y-90678000D03*
X132080000Y-90678000D03*
X134620000Y-90678000D03*
X137160000Y-90678000D03*
X139700000Y-90678000D03*
X142240000Y-90678000D03*
X144780000Y-90678000D03*
X147320000Y-90678000D03*
X149860000Y-90678000D03*
X152400000Y-90678000D03*
X152400000Y-75438000D03*
X149860000Y-75438000D03*
X147320000Y-75438000D03*
X144780000Y-75438000D03*
X142240000Y-75438000D03*
X139700000Y-75438000D03*
X137160000Y-75438000D03*
X134620000Y-75438000D03*
X132080000Y-75438000D03*
X129540000Y-75438000D03*
X127000000Y-75438000D03*
X124460000Y-75438000D03*
X135890000Y-77978000D03*
X133350000Y-77978000D03*
X146050000Y-77978000D03*
X143510000Y-77978000D03*
D16*
X157734000Y-77724000D03*
D17*
X157734000Y-80264000D03*
X157734000Y-82804000D03*
X157734000Y-85344000D03*
X157734000Y-87884000D03*
X157734000Y-90424000D03*
D21*
X124556000Y-67330000D03*
D23*
X126556000Y-67330000D03*
X128556000Y-67330000D03*
X130556000Y-67330000D03*
X132556000Y-67330000D03*
X134556000Y-67330000D03*
X136556000Y-67330000D03*
X138556000Y-67330000D03*
X140556000Y-67330000D03*
X142556000Y-67330000D03*
X144556000Y-67330000D03*
X146556000Y-67330000D03*
X148556000Y-67330000D03*
X150556000Y-67330000D03*
X152556000Y-67330000D03*
X154556000Y-67330000D03*
X156556000Y-67330000D03*
X158556000Y-67330000D03*
X160556000Y-67330000D03*
X162556000Y-67330000D03*
X164556000Y-67330000D03*
X166556000Y-67330000D03*
X168556000Y-67330000D03*
X170556000Y-67330000D03*
X172556000Y-67330000D03*
X124556000Y-62230000D03*
X168556000Y-62230000D03*
X126556000Y-62230000D03*
X170556000Y-62230000D03*
X128556000Y-62230000D03*
X172556000Y-62230000D03*
X130556000Y-62230000D03*
X132556000Y-62230000D03*
X134556000Y-62230000D03*
X136556000Y-62230000D03*
X138556000Y-62230000D03*
X140556000Y-62230000D03*
X142556000Y-62230000D03*
X144556000Y-62230000D03*
X146556000Y-62230000D03*
X148556000Y-62230000D03*
X150556000Y-62230000D03*
X152556000Y-62230000D03*
X154556000Y-62230000D03*
X156556000Y-62230000D03*
X158556000Y-62230000D03*
X160556000Y-62230000D03*
X162556000Y-62230000D03*
X164556000Y-62230000D03*
X166556000Y-62230000D03*
D16*
X122682000Y-98044000D03*
D17*
X122682000Y-95504000D03*
D14*
X140433623Y-112550377D03*
X138966377Y-114017623D03*
D24*
X148501100Y-102003600D03*
D25*
X124501100Y-145503600D03*
X126501100Y-145503600D03*
X128501100Y-145503600D03*
X130501100Y-145503600D03*
X132501100Y-145503600D03*
X134501100Y-145503600D03*
X136501100Y-145503600D03*
X138501100Y-145503600D03*
X140501100Y-145503600D03*
X142501100Y-145503600D03*
X144501100Y-145503600D03*
X146501100Y-145503600D03*
X148501100Y-145503600D03*
X150501100Y-145503600D03*
X152501100Y-145503600D03*
X154501100Y-145503600D03*
X156501100Y-145503600D03*
X158501100Y-145503600D03*
X160501100Y-145503600D03*
X162501100Y-145503600D03*
X164501100Y-145503600D03*
X166501100Y-145503600D03*
X168501100Y-145503600D03*
X170501100Y-145503600D03*
X172501100Y-145503600D03*
M02*
