M48
; DRILL file {KiCad (6.0.11)} date Wed Jul 24 19:14:15 2024
; FORMAT={-:-/ absolute / metric / decimal}
; #@! TF.CreationDate,2024-07-24T19:14:15+02:00
; #@! TF.GenerationSoftware,Kicad,Pcbnew,(6.0.11)
; #@! TF.FileFunction,Plated,1,2,PTH
FMAT,2
METRIC
; #@! TA.AperFunction,Plated,PTH,ViaDrill
T1C0.400
; #@! TA.AperFunction,Plated,PTH,ComponentDrill
T2C0.800
; #@! TA.AperFunction,Plated,PTH,ComponentDrill
T3C1.000
%
G90
G05
T1
X121.456Y-117.875
X121.94Y-108.968
X123.478Y-144.854
X124.267Y-60.476
X124.939Y-77.196
X125.286Y-110.996
X125.615Y-136.312
X125.876Y-64.933
X126.225Y-73.768
X126.506Y-139.625
X127.037Y-114.828
X127.824Y-138.303
X128.768Y-111.105
X129.058Y-107.358
X129.159Y-102.861
X129.939Y-97.25
X130.186Y-94.25
X130.279Y-99.751
X130.467Y-101.962
X130.627Y-80.145
X131.881Y-102.06
X131.966Y-97.693
X131.969Y-100.975
X132.242Y-73.197
X132.619Y-131.054
X133.303Y-131.918
X133.324Y-130.225
X134.309Y-111.496
X134.33Y-128.738
X134.34Y-131.17
X134.471Y-80.289
X137.763Y-77.431
X137.959Y-132.972
X138.274Y-110.176
X138.349Y-116.658
X138.377Y-117.682
X138.464Y-112.256
X138.52Y-128.646
X138.52Y-131.209
X139.041Y-132.711
X139.616Y-126.044
X139.766Y-119.628
X139.999Y-118.553
X140.72Y-119.642
X141.208Y-129.3
X141.255Y-126.543
X141.358Y-118.816
X141.414Y-122.282
X141.462Y-113.768
X141.659Y-125.09
X141.778Y-130.081
X141.87Y-115.084
X142.057Y-116.974
X142.636Y-111.017
X143.159Y-120.926
X143.488Y-113.718
X143.628Y-139.869
X143.718Y-103.511
X144.338Y-138.119
X144.442Y-115.816
X144.739Y-112.963
X144.871Y-76.852
X144.972Y-137.129
X145.112Y-119.008
X145.182Y-130.363
X145.367Y-73.185
X145.54Y-121.976
X145.795Y-120.792
X146.105Y-98.253
X146.237Y-96.547
X146.444Y-110.041
X146.502Y-139.793
X146.743Y-119.796
X147.088Y-124.621
X147.246Y-92.296
X147.38Y-122.324
X147.5Y-134.658
X147.502Y-79.58
X147.529Y-107.271
X147.87Y-130.451
X148.046Y-126.663
X148.19Y-139.826
X148.432Y-128.896
X148.522Y-77.713
X148.864Y-112.347
X148.892Y-138.011
X148.922Y-116.358
X149.187Y-114.271
X149.325Y-126.02
X149.656Y-107.933
X150.183Y-129.745
X150.96Y-132.149
X151.14Y-139.561
X151.44Y-129.549
X151.588Y-138.282
X152.176Y-97.072
X152.194Y-127.9
X152.548Y-106.38
X152.742Y-88.352
X153.383Y-128.759
X153.553Y-127.433
X153.863Y-108.834
X153.943Y-126.269
X154.647Y-110.046
X154.672Y-112.111
X154.858Y-96.783
X154.9Y-125.714
X155.281Y-98.724
X155.572Y-117.215
X156.103Y-114.038
X156.675Y-86.931
X156.97Y-124.474
X157.023Y-118.485
X157.27Y-115.633
X157.533Y-138.093
X157.575Y-111.777
X157.81Y-123.677
X161.576Y-95.707
X161.785Y-135.73
X163.82Y-137.635
X164.31Y-90.802
X164.773Y-133.079
X165.076Y-79.369
X165.166Y-82.668
X167.2Y-76.857
X167.293Y-123.491
X167.867Y-132.76
X167.963Y-92.187
X168.0Y-129.912
X168.072Y-125.805
X168.079Y-86.467
X168.307Y-127.397
X168.458Y-119.762
X168.483Y-89.163
X168.523Y-124.126
X169.317Y-85.784
X171.21Y-139.327
X171.345Y-86.75
X171.454Y-73.717
X172.231Y-139.472
X172.267Y-74.602
X172.523Y-70.977
X173.524Y-144.854
X173.708Y-63.779
X174.319Y-77.538
T2
X124.46Y-75.438
X124.46Y-90.678
X127.0Y-75.438
X127.0Y-90.678
X129.54Y-75.438
X129.54Y-90.678
X132.08Y-75.438
X132.08Y-90.678
X133.35Y-77.978
X134.62Y-75.438
X134.62Y-90.678
X135.89Y-77.978
X137.16Y-75.438
X137.16Y-90.678
X139.7Y-75.438
X139.7Y-90.678
X142.24Y-75.438
X142.24Y-90.678
X143.51Y-77.978
X144.78Y-75.438
X144.78Y-90.678
X146.05Y-77.978
X147.32Y-75.438
X147.32Y-90.678
X149.86Y-75.438
X149.86Y-90.678
X152.4Y-75.438
X152.4Y-90.678
T3
X124.348Y-133.351
X124.556Y-62.966
X124.556Y-68.066
X126.556Y-62.966
X126.556Y-68.066
X126.888Y-133.351
X128.556Y-62.966
X128.556Y-68.066
X129.428Y-133.351
X130.556Y-62.966
X130.556Y-68.066
X132.095Y-81.793
X132.095Y-84.333
X132.556Y-62.966
X132.556Y-68.066
X134.556Y-62.966
X134.556Y-68.066
X134.635Y-81.793
X134.635Y-84.333
X136.556Y-62.966
X136.556Y-68.066
X137.175Y-81.793
X137.175Y-84.333
X138.556Y-62.966
X138.556Y-68.066
X139.715Y-81.793
X139.715Y-84.333
X140.556Y-62.966
X140.556Y-68.066
X142.255Y-81.793
X142.255Y-84.333
X142.556Y-62.966
X142.556Y-68.066
X144.556Y-62.966
X144.556Y-68.066
X144.795Y-81.793
X144.795Y-84.333
X146.556Y-62.966
X146.556Y-68.066
X147.335Y-81.793
X147.335Y-84.333
X148.556Y-62.966
X148.556Y-68.066
X149.875Y-81.793
X149.875Y-84.333
X150.556Y-62.966
X150.556Y-68.066
X152.556Y-62.966
X152.556Y-68.066
X154.556Y-62.966
X154.556Y-68.066
X156.556Y-62.966
X156.556Y-68.066
X157.734Y-77.724
X157.734Y-80.264
X157.734Y-82.804
X157.734Y-85.344
X157.734Y-87.884
X157.734Y-90.424
X158.556Y-62.966
X158.556Y-68.066
X160.556Y-62.966
X160.556Y-68.066
X162.556Y-62.966
X162.556Y-68.066
X164.556Y-62.966
X164.556Y-68.066
X166.556Y-62.966
X166.556Y-68.066
X168.556Y-62.966
X168.556Y-68.066
X170.556Y-62.966
X170.556Y-68.066
X171.196Y-117.348
X171.196Y-119.888
X171.196Y-122.428
X171.196Y-124.968
X171.196Y-127.508
X171.196Y-130.048
X172.556Y-62.966
X172.556Y-68.066
T0
M30
