G04 #@! TF.GenerationSoftware,KiCad,Pcbnew,(6.0.11)*
G04 #@! TF.CreationDate,2024-10-09T23:58:53+02:00*
G04 #@! TF.ProjectId,tcbm2sd,7463626d-3273-4642-9e6b-696361645f70,1.3*
G04 #@! TF.SameCoordinates,Original*
G04 #@! TF.FileFunction,Legend,Top*
G04 #@! TF.FilePolarity,Positive*
%FSLAX46Y46*%
G04 Gerber Fmt 4.6, Leading zero omitted, Abs format (unit mm)*
G04 Created by KiCad (PCBNEW (6.0.11)) date 2024-10-09 23:58:53*
%MOMM*%
%LPD*%
G01*
G04 APERTURE LIST*
G04 Aperture macros list*
%AMRoundRect*
0 Rectangle with rounded corners*
0 $1 Rounding radius*
0 $2 $3 $4 $5 $6 $7 $8 $9 X,Y pos of 4 corners*
0 Add a 4 corners polygon primitive as box body*
4,1,4,$2,$3,$4,$5,$6,$7,$8,$9,$2,$3,0*
0 Add four circle primitives for the rounded corners*
1,1,$1+$1,$2,$3*
1,1,$1+$1,$4,$5*
1,1,$1+$1,$6,$7*
1,1,$1+$1,$8,$9*
0 Add four rect primitives between the rounded corners*
20,1,$1+$1,$2,$3,$4,$5,0*
20,1,$1+$1,$4,$5,$6,$7,0*
20,1,$1+$1,$6,$7,$8,$9,0*
20,1,$1+$1,$8,$9,$2,$3,0*%
G04 Aperture macros list end*
%ADD10C,0.120000*%
%ADD11C,0.150000*%
%ADD12C,0.300000*%
%ADD13C,0.200000*%
%ADD14C,0.127000*%
%ADD15RoundRect,0.250000X-0.537500X-0.425000X0.537500X-0.425000X0.537500X0.425000X-0.537500X0.425000X0*%
%ADD16R,2.000000X1.500000*%
%ADD17R,2.000000X3.800000*%
%ADD18R,1.000000X1.500000*%
%ADD19RoundRect,0.250000X-0.097227X0.574524X-0.574524X0.097227X0.097227X-0.574524X0.574524X-0.097227X0*%
%ADD20C,2.100000*%
%ADD21C,2.000000*%
%ADD22RoundRect,0.250000X0.574524X0.097227X0.097227X0.574524X-0.574524X-0.097227X-0.097227X-0.574524X0*%
%ADD23R,1.600000X0.700000*%
%ADD24R,1.400000X1.600000*%
%ADD25R,1.400000X1.200000*%
%ADD26R,2.200000X1.200000*%
%ADD27R,1.700000X1.700000*%
%ADD28O,1.700000X1.700000*%
%ADD29RoundRect,0.250000X0.425000X-0.537500X0.425000X0.537500X-0.425000X0.537500X-0.425000X-0.537500X0*%
%ADD30RoundRect,0.250000X-0.574524X-0.097227X-0.097227X-0.574524X0.574524X0.097227X0.097227X0.574524X0*%
%ADD31RoundRect,0.075000X-0.415425X-0.521491X0.521491X0.415425X0.415425X0.521491X-0.521491X-0.415425X0*%
%ADD32RoundRect,0.075000X0.415425X-0.521491X0.521491X-0.415425X-0.415425X0.521491X-0.521491X0.415425X0*%
%ADD33R,1.600000X1.600000*%
%ADD34O,1.600000X1.600000*%
%ADD35RoundRect,0.250000X0.350000X0.450000X-0.350000X0.450000X-0.350000X-0.450000X0.350000X-0.450000X0*%
%ADD36C,5.000000*%
%ADD37RoundRect,0.163300X-0.337500X-4.512500X0.337500X-4.512500X0.337500X4.512500X-0.337500X4.512500X0*%
G04 APERTURE END LIST*
D10*
X155956000Y-93218000D02*
X176276000Y-93218000D01*
X176276000Y-93218000D02*
X176276000Y-74676000D01*
X176276000Y-74676000D02*
X155956000Y-74676000D01*
X155956000Y-74676000D02*
X155956000Y-93218000D01*
X132715000Y-135129261D02*
X120777000Y-135129261D01*
X120777000Y-135129261D02*
X120777000Y-120651261D01*
X120777000Y-120651261D02*
X132715000Y-120651261D01*
X132715000Y-120651261D02*
X132715000Y-135129261D01*
D11*
X149391142Y-68719428D02*
X149391142Y-68119428D01*
X149534000Y-68119428D01*
X149619714Y-68148000D01*
X149676857Y-68205142D01*
X149705428Y-68262285D01*
X149734000Y-68376571D01*
X149734000Y-68462285D01*
X149705428Y-68576571D01*
X149676857Y-68633714D01*
X149619714Y-68690857D01*
X149534000Y-68719428D01*
X149391142Y-68719428D01*
X149934000Y-68119428D02*
X150334000Y-68119428D01*
X150076857Y-68719428D01*
X124661571Y-129646118D02*
X124061571Y-129846118D01*
X124661571Y-130046118D01*
X124061571Y-130246118D02*
X124661571Y-130246118D01*
X124061571Y-130531832D02*
X124661571Y-130531832D01*
X124061571Y-130874689D01*
X124661571Y-130874689D01*
X154171142Y-68548000D02*
X154456857Y-68548000D01*
X154114000Y-68719428D02*
X154314000Y-68119428D01*
X154514000Y-68719428D01*
X155056857Y-68662285D02*
X155028285Y-68690857D01*
X154942571Y-68719428D01*
X154885428Y-68719428D01*
X154799714Y-68690857D01*
X154742571Y-68633714D01*
X154714000Y-68576571D01*
X154685428Y-68462285D01*
X154685428Y-68376571D01*
X154714000Y-68262285D01*
X154742571Y-68205142D01*
X154799714Y-68148000D01*
X154885428Y-68119428D01*
X154942571Y-68119428D01*
X155028285Y-68148000D01*
X155056857Y-68176571D01*
X155314000Y-68719428D02*
X155314000Y-68119428D01*
X155656857Y-68719428D02*
X155399714Y-68376571D01*
X155656857Y-68119428D02*
X155314000Y-68462285D01*
X156639714Y-67950000D02*
X157239714Y-67950000D01*
X157125428Y-68719428D02*
X156925428Y-68433714D01*
X156782571Y-68719428D02*
X156782571Y-68119428D01*
X157011142Y-68119428D01*
X157068285Y-68148000D01*
X157096857Y-68176571D01*
X157125428Y-68233714D01*
X157125428Y-68319428D01*
X157096857Y-68376571D01*
X157068285Y-68405142D01*
X157011142Y-68433714D01*
X156782571Y-68433714D01*
X157239714Y-67950000D02*
X157811142Y-67950000D01*
X157354000Y-68690857D02*
X157439714Y-68719428D01*
X157582571Y-68719428D01*
X157639714Y-68690857D01*
X157668285Y-68662285D01*
X157696857Y-68605142D01*
X157696857Y-68548000D01*
X157668285Y-68490857D01*
X157639714Y-68462285D01*
X157582571Y-68433714D01*
X157468285Y-68405142D01*
X157411142Y-68376571D01*
X157382571Y-68348000D01*
X157354000Y-68290857D01*
X157354000Y-68233714D01*
X157382571Y-68176571D01*
X157411142Y-68148000D01*
X157468285Y-68119428D01*
X157611142Y-68119428D01*
X157696857Y-68148000D01*
X157811142Y-67950000D02*
X158268285Y-67950000D01*
X157868285Y-68119428D02*
X158211142Y-68119428D01*
X158039714Y-68719428D02*
X158039714Y-68119428D01*
X168454428Y-99352000D02*
X168454428Y-99009142D01*
X169054428Y-99180571D02*
X168454428Y-99180571D01*
X169054428Y-98809142D02*
X168454428Y-98809142D01*
X168883000Y-98609142D01*
X168454428Y-98409142D01*
X169054428Y-98409142D01*
X169025857Y-98152000D02*
X169054428Y-98066285D01*
X169054428Y-97923428D01*
X169025857Y-97866285D01*
X168997285Y-97837714D01*
X168940142Y-97809142D01*
X168883000Y-97809142D01*
X168825857Y-97837714D01*
X168797285Y-97866285D01*
X168768714Y-97923428D01*
X168740142Y-98037714D01*
X168711571Y-98094857D01*
X168683000Y-98123428D01*
X168625857Y-98152000D01*
X168568714Y-98152000D01*
X168511571Y-98123428D01*
X168483000Y-98094857D01*
X168454428Y-98037714D01*
X168454428Y-97894857D01*
X168483000Y-97809142D01*
X163374428Y-99166285D02*
X163374428Y-98823428D01*
X163974428Y-98994857D02*
X163374428Y-98994857D01*
X163974428Y-98623428D02*
X163374428Y-98623428D01*
X163374428Y-98480571D01*
X163403000Y-98394857D01*
X163460142Y-98337714D01*
X163517285Y-98309142D01*
X163631571Y-98280571D01*
X163717285Y-98280571D01*
X163831571Y-98309142D01*
X163888714Y-98337714D01*
X163945857Y-98394857D01*
X163974428Y-98480571D01*
X163974428Y-98623428D01*
X163974428Y-98023428D02*
X163374428Y-98023428D01*
X137216571Y-62080571D02*
X137245142Y-62052000D01*
X137302285Y-62023428D01*
X137445142Y-62023428D01*
X137502285Y-62052000D01*
X137530857Y-62080571D01*
X137559428Y-62137714D01*
X137559428Y-62194857D01*
X137530857Y-62280571D01*
X137188000Y-62623428D01*
X137559428Y-62623428D01*
X143433571Y-69694642D02*
X143776428Y-69694642D01*
X143562142Y-69394642D02*
X143562142Y-70166071D01*
X143605000Y-70251785D01*
X143690714Y-70294642D01*
X143776428Y-70294642D01*
X144462142Y-70251785D02*
X144376428Y-70294642D01*
X144205000Y-70294642D01*
X144119285Y-70251785D01*
X144076428Y-70208928D01*
X144033571Y-70123214D01*
X144033571Y-69866071D01*
X144076428Y-69780357D01*
X144119285Y-69737500D01*
X144205000Y-69694642D01*
X144376428Y-69694642D01*
X144462142Y-69737500D01*
X144847857Y-70294642D02*
X144847857Y-69394642D01*
X144847857Y-69737500D02*
X144933571Y-69694642D01*
X145105000Y-69694642D01*
X145190714Y-69737500D01*
X145233571Y-69780357D01*
X145276428Y-69866071D01*
X145276428Y-70123214D01*
X145233571Y-70208928D01*
X145190714Y-70251785D01*
X145105000Y-70294642D01*
X144933571Y-70294642D01*
X144847857Y-70251785D01*
X145662142Y-70294642D02*
X145662142Y-69694642D01*
X145662142Y-69780357D02*
X145705000Y-69737500D01*
X145790714Y-69694642D01*
X145919285Y-69694642D01*
X146005000Y-69737500D01*
X146047857Y-69823214D01*
X146047857Y-70294642D01*
X146047857Y-69823214D02*
X146090714Y-69737500D01*
X146176428Y-69694642D01*
X146305000Y-69694642D01*
X146390714Y-69737500D01*
X146433571Y-69823214D01*
X146433571Y-70294642D01*
X146819285Y-69480357D02*
X146862142Y-69437500D01*
X146947857Y-69394642D01*
X147162142Y-69394642D01*
X147247857Y-69437500D01*
X147290714Y-69480357D01*
X147333571Y-69566071D01*
X147333571Y-69651785D01*
X147290714Y-69780357D01*
X146776428Y-70294642D01*
X147333571Y-70294642D01*
X147676428Y-70251785D02*
X147762142Y-70294642D01*
X147933571Y-70294642D01*
X148019285Y-70251785D01*
X148062142Y-70166071D01*
X148062142Y-70123214D01*
X148019285Y-70037500D01*
X147933571Y-69994642D01*
X147805000Y-69994642D01*
X147719285Y-69951785D01*
X147676428Y-69866071D01*
X147676428Y-69823214D01*
X147719285Y-69737500D01*
X147805000Y-69694642D01*
X147933571Y-69694642D01*
X148019285Y-69737500D01*
X148833571Y-70294642D02*
X148833571Y-69394642D01*
X148833571Y-70251785D02*
X148747857Y-70294642D01*
X148576428Y-70294642D01*
X148490714Y-70251785D01*
X148447857Y-70208928D01*
X148405000Y-70123214D01*
X148405000Y-69866071D01*
X148447857Y-69780357D01*
X148490714Y-69737500D01*
X148576428Y-69694642D01*
X148747857Y-69694642D01*
X148833571Y-69737500D01*
X149862142Y-69694642D02*
X150076428Y-70294642D01*
X150290714Y-69694642D01*
X151105000Y-70294642D02*
X150590714Y-70294642D01*
X150847857Y-70294642D02*
X150847857Y-69394642D01*
X150762142Y-69523214D01*
X150676428Y-69608928D01*
X150590714Y-69651785D01*
X151490714Y-70208928D02*
X151533571Y-70251785D01*
X151490714Y-70294642D01*
X151447857Y-70251785D01*
X151490714Y-70208928D01*
X151490714Y-70294642D01*
X151833571Y-69394642D02*
X152390714Y-69394642D01*
X152090714Y-69737500D01*
X152219285Y-69737500D01*
X152305000Y-69780357D01*
X152347857Y-69823214D01*
X152390714Y-69908928D01*
X152390714Y-70123214D01*
X152347857Y-70208928D01*
X152305000Y-70251785D01*
X152219285Y-70294642D01*
X151962142Y-70294642D01*
X151876428Y-70251785D01*
X151833571Y-70208928D01*
X132805000Y-71743642D02*
X132805000Y-70843642D01*
X133105000Y-71486500D01*
X133405000Y-70843642D01*
X133405000Y-71743642D01*
X134219285Y-71743642D02*
X134219285Y-71272214D01*
X134176428Y-71186500D01*
X134090714Y-71143642D01*
X133919285Y-71143642D01*
X133833571Y-71186500D01*
X134219285Y-71700785D02*
X134133571Y-71743642D01*
X133919285Y-71743642D01*
X133833571Y-71700785D01*
X133790714Y-71615071D01*
X133790714Y-71529357D01*
X133833571Y-71443642D01*
X133919285Y-71400785D01*
X134133571Y-71400785D01*
X134219285Y-71357928D01*
X135033571Y-71700785D02*
X134947857Y-71743642D01*
X134776428Y-71743642D01*
X134690714Y-71700785D01*
X134647857Y-71657928D01*
X134605000Y-71572214D01*
X134605000Y-71315071D01*
X134647857Y-71229357D01*
X134690714Y-71186500D01*
X134776428Y-71143642D01*
X134947857Y-71143642D01*
X135033571Y-71186500D01*
X135419285Y-71743642D02*
X135419285Y-71143642D01*
X135419285Y-70843642D02*
X135376428Y-70886500D01*
X135419285Y-70929357D01*
X135462142Y-70886500D01*
X135419285Y-70843642D01*
X135419285Y-70929357D01*
X136190714Y-71700785D02*
X136105000Y-71743642D01*
X135933571Y-71743642D01*
X135847857Y-71700785D01*
X135805000Y-71615071D01*
X135805000Y-71272214D01*
X135847857Y-71186500D01*
X135933571Y-71143642D01*
X136105000Y-71143642D01*
X136190714Y-71186500D01*
X136233571Y-71272214D01*
X136233571Y-71357928D01*
X135805000Y-71443642D01*
X136619285Y-71143642D02*
X136619285Y-71915071D01*
X136576428Y-72000785D01*
X136490714Y-72043642D01*
X136447857Y-72043642D01*
X136619285Y-70843642D02*
X136576428Y-70886500D01*
X136619285Y-70929357D01*
X136662142Y-70886500D01*
X136619285Y-70843642D01*
X136619285Y-70929357D01*
X137647857Y-70843642D02*
X137862142Y-71743642D01*
X138033571Y-71100785D01*
X138205000Y-71743642D01*
X138419285Y-70843642D01*
X138762142Y-71743642D02*
X138762142Y-71143642D01*
X138762142Y-70843642D02*
X138719285Y-70886500D01*
X138762142Y-70929357D01*
X138805000Y-70886500D01*
X138762142Y-70843642D01*
X138762142Y-70929357D01*
X139062142Y-71143642D02*
X139405000Y-71143642D01*
X139190714Y-70843642D02*
X139190714Y-71615071D01*
X139233571Y-71700785D01*
X139319285Y-71743642D01*
X139405000Y-71743642D01*
X139705000Y-71743642D02*
X139705000Y-70843642D01*
X139790714Y-71400785D02*
X140047857Y-71743642D01*
X140047857Y-71143642D02*
X139705000Y-71486500D01*
X140562142Y-71743642D02*
X140476428Y-71700785D01*
X140433571Y-71657928D01*
X140390714Y-71572214D01*
X140390714Y-71315071D01*
X140433571Y-71229357D01*
X140476428Y-71186500D01*
X140562142Y-71143642D01*
X140690714Y-71143642D01*
X140776428Y-71186500D01*
X140819285Y-71229357D01*
X140862142Y-71315071D01*
X140862142Y-71572214D01*
X140819285Y-71657928D01*
X140776428Y-71700785D01*
X140690714Y-71743642D01*
X140562142Y-71743642D01*
X141162142Y-71143642D02*
X141333571Y-71743642D01*
X141505000Y-71315071D01*
X141676428Y-71743642D01*
X141847857Y-71143642D01*
X142190714Y-71743642D02*
X142190714Y-71143642D01*
X142190714Y-70843642D02*
X142147857Y-70886500D01*
X142190714Y-70929357D01*
X142233571Y-70886500D01*
X142190714Y-70843642D01*
X142190714Y-70929357D01*
X143005000Y-71743642D02*
X143005000Y-71272214D01*
X142962142Y-71186500D01*
X142876428Y-71143642D01*
X142705000Y-71143642D01*
X142619285Y-71186500D01*
X143005000Y-71700785D02*
X142919285Y-71743642D01*
X142705000Y-71743642D01*
X142619285Y-71700785D01*
X142576428Y-71615071D01*
X142576428Y-71529357D01*
X142619285Y-71443642D01*
X142705000Y-71400785D01*
X142919285Y-71400785D01*
X143005000Y-71357928D01*
X143433571Y-71743642D02*
X143433571Y-70843642D01*
X143519285Y-71400785D02*
X143776428Y-71743642D01*
X143776428Y-71143642D02*
X143433571Y-71486500D01*
X145533571Y-71143642D02*
X144847857Y-71400785D01*
X145533571Y-71657928D01*
X145876428Y-71143642D02*
X146090714Y-71743642D01*
X146305000Y-71143642D02*
X146090714Y-71743642D01*
X146005000Y-71957928D01*
X145962142Y-72000785D01*
X145876428Y-72043642D01*
X146519285Y-71143642D02*
X146862142Y-71143642D01*
X146647857Y-70843642D02*
X146647857Y-71615071D01*
X146690714Y-71700785D01*
X146776428Y-71743642D01*
X146862142Y-71743642D01*
X147162142Y-71743642D02*
X147162142Y-71143642D01*
X147162142Y-71229357D02*
X147205000Y-71186500D01*
X147290714Y-71143642D01*
X147419285Y-71143642D01*
X147505000Y-71186500D01*
X147547857Y-71272214D01*
X147547857Y-71743642D01*
X147547857Y-71272214D02*
X147590714Y-71186500D01*
X147676428Y-71143642D01*
X147805000Y-71143642D01*
X147890714Y-71186500D01*
X147933571Y-71272214D01*
X147933571Y-71743642D01*
X148919285Y-71315071D02*
X148876428Y-71272214D01*
X148790714Y-71229357D01*
X148705000Y-71229357D01*
X148619285Y-71272214D01*
X148576428Y-71315071D01*
X148533571Y-71400785D01*
X148533571Y-71486500D01*
X148576428Y-71572214D01*
X148619285Y-71615071D01*
X148705000Y-71657928D01*
X148790714Y-71657928D01*
X148876428Y-71615071D01*
X148919285Y-71572214D01*
X148919285Y-71229357D02*
X148919285Y-71572214D01*
X148962142Y-71615071D01*
X149005000Y-71615071D01*
X149090714Y-71572214D01*
X149133571Y-71486500D01*
X149133571Y-71272214D01*
X149047857Y-71143642D01*
X148919285Y-71057928D01*
X148747857Y-71015071D01*
X148576428Y-71057928D01*
X148447857Y-71143642D01*
X148362142Y-71272214D01*
X148319285Y-71443642D01*
X148362142Y-71615071D01*
X148447857Y-71743642D01*
X148576428Y-71829357D01*
X148747857Y-71872214D01*
X148919285Y-71829357D01*
X149047857Y-71743642D01*
X149862142Y-71700785D02*
X149776428Y-71743642D01*
X149605000Y-71743642D01*
X149519285Y-71700785D01*
X149476428Y-71615071D01*
X149476428Y-71272214D01*
X149519285Y-71186500D01*
X149605000Y-71143642D01*
X149776428Y-71143642D01*
X149862142Y-71186500D01*
X149905000Y-71272214D01*
X149905000Y-71357928D01*
X149476428Y-71443642D01*
X150419285Y-71743642D02*
X150333571Y-71700785D01*
X150290714Y-71615071D01*
X150290714Y-70843642D01*
X150676428Y-71143642D02*
X150890714Y-71743642D01*
X151105000Y-71143642D02*
X150890714Y-71743642D01*
X150805000Y-71957928D01*
X150762142Y-72000785D01*
X150676428Y-72043642D01*
X151405000Y-71700785D02*
X151490714Y-71743642D01*
X151662142Y-71743642D01*
X151747857Y-71700785D01*
X151790714Y-71615071D01*
X151790714Y-71572214D01*
X151747857Y-71486500D01*
X151662142Y-71443642D01*
X151533571Y-71443642D01*
X151447857Y-71400785D01*
X151405000Y-71315071D01*
X151405000Y-71272214D01*
X151447857Y-71186500D01*
X151533571Y-71143642D01*
X151662142Y-71143642D01*
X151747857Y-71186500D01*
X152176428Y-71743642D02*
X152176428Y-71143642D01*
X152176428Y-70843642D02*
X152133571Y-70886500D01*
X152176428Y-70929357D01*
X152219285Y-70886500D01*
X152176428Y-70843642D01*
X152176428Y-70929357D01*
X152990714Y-71143642D02*
X152990714Y-71743642D01*
X152605000Y-71143642D02*
X152605000Y-71615071D01*
X152647857Y-71700785D01*
X152733571Y-71743642D01*
X152862142Y-71743642D01*
X152947857Y-71700785D01*
X152990714Y-71657928D01*
X153419285Y-71743642D02*
X153419285Y-71143642D01*
X153419285Y-71229357D02*
X153462142Y-71186500D01*
X153547857Y-71143642D01*
X153676428Y-71143642D01*
X153762142Y-71186500D01*
X153805000Y-71272214D01*
X153805000Y-71743642D01*
X153805000Y-71272214D02*
X153847857Y-71186500D01*
X153933571Y-71143642D01*
X154062142Y-71143642D01*
X154147857Y-71186500D01*
X154190714Y-71272214D01*
X154190714Y-71743642D01*
X154619285Y-71657928D02*
X154662142Y-71700785D01*
X154619285Y-71743642D01*
X154576428Y-71700785D01*
X154619285Y-71657928D01*
X154619285Y-71743642D01*
X155047857Y-71143642D02*
X155047857Y-72043642D01*
X155047857Y-71186500D02*
X155133571Y-71143642D01*
X155305000Y-71143642D01*
X155390714Y-71186500D01*
X155433571Y-71229357D01*
X155476428Y-71315071D01*
X155476428Y-71572214D01*
X155433571Y-71657928D01*
X155390714Y-71700785D01*
X155305000Y-71743642D01*
X155133571Y-71743642D01*
X155047857Y-71700785D01*
X155990714Y-71743642D02*
X155905000Y-71700785D01*
X155862142Y-71615071D01*
X155862142Y-70843642D01*
X156333571Y-71143642D02*
X157019285Y-71400785D01*
X156333571Y-71657928D01*
X157490714Y-71700785D02*
X157490714Y-71743642D01*
X157447857Y-71829357D01*
X157405000Y-71872214D01*
X158476428Y-70843642D02*
X159076428Y-71743642D01*
X159076428Y-70843642D02*
X158476428Y-71743642D01*
X160062142Y-70929357D02*
X160105000Y-70886500D01*
X160190714Y-70843642D01*
X160405000Y-70843642D01*
X160490714Y-70886500D01*
X160533571Y-70929357D01*
X160576428Y-71015071D01*
X160576428Y-71100785D01*
X160533571Y-71229357D01*
X160019285Y-71743642D01*
X160576428Y-71743642D01*
X161133571Y-70843642D02*
X161219285Y-70843642D01*
X161305000Y-70886500D01*
X161347857Y-70929357D01*
X161390714Y-71015071D01*
X161433571Y-71186500D01*
X161433571Y-71400785D01*
X161390714Y-71572214D01*
X161347857Y-71657928D01*
X161305000Y-71700785D01*
X161219285Y-71743642D01*
X161133571Y-71743642D01*
X161047857Y-71700785D01*
X161005000Y-71657928D01*
X160962142Y-71572214D01*
X160919285Y-71400785D01*
X160919285Y-71186500D01*
X160962142Y-71015071D01*
X161005000Y-70929357D01*
X161047857Y-70886500D01*
X161133571Y-70843642D01*
X161776428Y-70929357D02*
X161819285Y-70886500D01*
X161905000Y-70843642D01*
X162119285Y-70843642D01*
X162205000Y-70886500D01*
X162247857Y-70929357D01*
X162290714Y-71015071D01*
X162290714Y-71100785D01*
X162247857Y-71229357D01*
X161733571Y-71743642D01*
X162290714Y-71743642D01*
X163062142Y-71143642D02*
X163062142Y-71743642D01*
X162847857Y-70800785D02*
X162633571Y-71443642D01*
X163190714Y-71443642D01*
X170994428Y-99294857D02*
X170994428Y-98923428D01*
X171223000Y-99123428D01*
X171223000Y-99037714D01*
X171251571Y-98980571D01*
X171280142Y-98952000D01*
X171337285Y-98923428D01*
X171480142Y-98923428D01*
X171537285Y-98952000D01*
X171565857Y-98980571D01*
X171594428Y-99037714D01*
X171594428Y-99209142D01*
X171565857Y-99266285D01*
X171537285Y-99294857D01*
X170994428Y-98752000D02*
X171594428Y-98552000D01*
X170994428Y-98352000D01*
X170994428Y-98209142D02*
X170994428Y-97837714D01*
X171223000Y-98037714D01*
X171223000Y-97952000D01*
X171251571Y-97894857D01*
X171280142Y-97866285D01*
X171337285Y-97837714D01*
X171480142Y-97837714D01*
X171537285Y-97866285D01*
X171565857Y-97894857D01*
X171594428Y-97952000D01*
X171594428Y-98123428D01*
X171565857Y-98180571D01*
X171537285Y-98209142D01*
X159756571Y-85586857D02*
X159842285Y-85615428D01*
X159985142Y-85615428D01*
X160042285Y-85586857D01*
X160070857Y-85558285D01*
X160099428Y-85501142D01*
X160099428Y-85444000D01*
X160070857Y-85386857D01*
X160042285Y-85358285D01*
X159985142Y-85329714D01*
X159870857Y-85301142D01*
X159813714Y-85272571D01*
X159785142Y-85244000D01*
X159756571Y-85186857D01*
X159756571Y-85129714D01*
X159785142Y-85072571D01*
X159813714Y-85044000D01*
X159870857Y-85015428D01*
X160013714Y-85015428D01*
X160099428Y-85044000D01*
X160699428Y-85558285D02*
X160670857Y-85586857D01*
X160585142Y-85615428D01*
X160528000Y-85615428D01*
X160442285Y-85586857D01*
X160385142Y-85529714D01*
X160356571Y-85472571D01*
X160328000Y-85358285D01*
X160328000Y-85272571D01*
X160356571Y-85158285D01*
X160385142Y-85101142D01*
X160442285Y-85044000D01*
X160528000Y-85015428D01*
X160585142Y-85015428D01*
X160670857Y-85044000D01*
X160699428Y-85072571D01*
X160956571Y-85615428D02*
X160956571Y-85015428D01*
X161299428Y-85615428D02*
X161042285Y-85272571D01*
X161299428Y-85015428D02*
X160956571Y-85358285D01*
X159585142Y-88155428D02*
X159585142Y-87555428D01*
X159785142Y-87984000D01*
X159985142Y-87555428D01*
X159985142Y-88155428D01*
X160270857Y-88155428D02*
X160270857Y-87555428D01*
X160528000Y-88126857D02*
X160613714Y-88155428D01*
X160756571Y-88155428D01*
X160813714Y-88126857D01*
X160842285Y-88098285D01*
X160870857Y-88041142D01*
X160870857Y-87984000D01*
X160842285Y-87926857D01*
X160813714Y-87898285D01*
X160756571Y-87869714D01*
X160642285Y-87841142D01*
X160585142Y-87812571D01*
X160556571Y-87784000D01*
X160528000Y-87726857D01*
X160528000Y-87669714D01*
X160556571Y-87612571D01*
X160585142Y-87584000D01*
X160642285Y-87555428D01*
X160785142Y-87555428D01*
X160870857Y-87584000D01*
X161242285Y-87555428D02*
X161356571Y-87555428D01*
X161413714Y-87584000D01*
X161470857Y-87641142D01*
X161499428Y-87755428D01*
X161499428Y-87955428D01*
X161470857Y-88069714D01*
X161413714Y-88126857D01*
X161356571Y-88155428D01*
X161242285Y-88155428D01*
X161185142Y-88126857D01*
X161128000Y-88069714D01*
X161099428Y-87955428D01*
X161099428Y-87755428D01*
X161128000Y-87641142D01*
X161185142Y-87584000D01*
X161242285Y-87555428D01*
X144311142Y-62115428D02*
X144311142Y-61515428D01*
X144454000Y-61515428D01*
X144539714Y-61544000D01*
X144596857Y-61601142D01*
X144625428Y-61658285D01*
X144654000Y-61772571D01*
X144654000Y-61858285D01*
X144625428Y-61972571D01*
X144596857Y-62029714D01*
X144539714Y-62086857D01*
X144454000Y-62115428D01*
X144311142Y-62115428D01*
X145168285Y-61715428D02*
X145168285Y-62115428D01*
X145025428Y-61486857D02*
X144882571Y-61915428D01*
X145254000Y-61915428D01*
X160428000Y-80478285D02*
X160399428Y-80506857D01*
X160313714Y-80535428D01*
X160256571Y-80535428D01*
X160170857Y-80506857D01*
X160113714Y-80449714D01*
X160085142Y-80392571D01*
X160056571Y-80278285D01*
X160056571Y-80192571D01*
X160085142Y-80078285D01*
X160113714Y-80021142D01*
X160170857Y-79964000D01*
X160256571Y-79935428D01*
X160313714Y-79935428D01*
X160399428Y-79964000D01*
X160428000Y-79992571D01*
X160656571Y-80506857D02*
X160742285Y-80535428D01*
X160885142Y-80535428D01*
X160942285Y-80506857D01*
X160970857Y-80478285D01*
X160999428Y-80421142D01*
X160999428Y-80364000D01*
X160970857Y-80306857D01*
X160942285Y-80278285D01*
X160885142Y-80249714D01*
X160770857Y-80221142D01*
X160713714Y-80192571D01*
X160685142Y-80164000D01*
X160656571Y-80106857D01*
X160656571Y-80049714D01*
X160685142Y-79992571D01*
X160713714Y-79964000D01*
X160770857Y-79935428D01*
X160913714Y-79935428D01*
X160999428Y-79964000D01*
X160655047Y-72512228D02*
X161416952Y-72512228D01*
X161036000Y-72893180D02*
X161036000Y-72131276D01*
X159785142Y-77395428D02*
X160156571Y-77395428D01*
X159956571Y-77624000D01*
X160042285Y-77624000D01*
X160099428Y-77652571D01*
X160128000Y-77681142D01*
X160156571Y-77738285D01*
X160156571Y-77881142D01*
X160128000Y-77938285D01*
X160099428Y-77966857D01*
X160042285Y-77995428D01*
X159870857Y-77995428D01*
X159813714Y-77966857D01*
X159785142Y-77938285D01*
X160328000Y-77395428D02*
X160528000Y-77995428D01*
X160728000Y-77395428D01*
X160870857Y-77395428D02*
X161242285Y-77395428D01*
X161042285Y-77624000D01*
X161128000Y-77624000D01*
X161185142Y-77652571D01*
X161213714Y-77681142D01*
X161242285Y-77738285D01*
X161242285Y-77881142D01*
X161213714Y-77938285D01*
X161185142Y-77966857D01*
X161128000Y-77995428D01*
X160956571Y-77995428D01*
X160899428Y-77966857D01*
X160870857Y-77938285D01*
X127201571Y-129246118D02*
X126601571Y-129446118D01*
X127201571Y-129646118D01*
X127201571Y-129960403D02*
X127201571Y-130074689D01*
X127173000Y-130131832D01*
X127115857Y-130188975D01*
X127001571Y-130217546D01*
X126801571Y-130217546D01*
X126687285Y-130188975D01*
X126630142Y-130131832D01*
X126601571Y-130074689D01*
X126601571Y-129960403D01*
X126630142Y-129903261D01*
X126687285Y-129846118D01*
X126801571Y-129817546D01*
X127001571Y-129817546D01*
X127115857Y-129846118D01*
X127173000Y-129903261D01*
X127201571Y-129960403D01*
X127201571Y-130474689D02*
X126715857Y-130474689D01*
X126658714Y-130503261D01*
X126630142Y-130531832D01*
X126601571Y-130588975D01*
X126601571Y-130703261D01*
X126630142Y-130760403D01*
X126658714Y-130788975D01*
X126715857Y-130817546D01*
X127201571Y-130817546D01*
X127201571Y-131017546D02*
X127201571Y-131360403D01*
X126601571Y-131188975D02*
X127201571Y-131188975D01*
X159371714Y-68022428D02*
X159028857Y-68022428D01*
X159200285Y-68022428D02*
X159200285Y-67422428D01*
X159143142Y-67508142D01*
X159086000Y-67565285D01*
X159028857Y-67593857D01*
X159914571Y-67422428D02*
X159628857Y-67422428D01*
X159600285Y-67708142D01*
X159628857Y-67679571D01*
X159686000Y-67651000D01*
X159828857Y-67651000D01*
X159886000Y-67679571D01*
X159914571Y-67708142D01*
X159943142Y-67765285D01*
X159943142Y-67908142D01*
X159914571Y-67965285D01*
X159886000Y-67993857D01*
X159828857Y-68022428D01*
X159686000Y-68022428D01*
X159628857Y-67993857D01*
X159600285Y-67965285D01*
X123571047Y-136723428D02*
X124332952Y-136723428D01*
X123952000Y-137104380D02*
X123952000Y-136342476D01*
X137813428Y-67957428D02*
X137470571Y-67957428D01*
X137642000Y-67957428D02*
X137642000Y-67357428D01*
X137584857Y-67443142D01*
X137527714Y-67500285D01*
X137470571Y-67528857D01*
X138988285Y-62115428D02*
X138988285Y-61515428D01*
X139131142Y-61515428D01*
X139216857Y-61544000D01*
X139274000Y-61601142D01*
X139302571Y-61658285D01*
X139331142Y-61772571D01*
X139331142Y-61858285D01*
X139302571Y-61972571D01*
X139274000Y-62029714D01*
X139216857Y-62086857D01*
X139131142Y-62115428D01*
X138988285Y-62115428D01*
X139588285Y-61801142D02*
X139788285Y-61801142D01*
X139874000Y-62115428D02*
X139588285Y-62115428D01*
X139588285Y-61515428D01*
X139874000Y-61515428D01*
X140045428Y-61515428D02*
X140245428Y-62115428D01*
X140445428Y-61515428D01*
X141771142Y-62115428D02*
X141771142Y-61515428D01*
X141914000Y-61515428D01*
X141999714Y-61544000D01*
X142056857Y-61601142D01*
X142085428Y-61658285D01*
X142114000Y-61772571D01*
X142114000Y-61858285D01*
X142085428Y-61972571D01*
X142056857Y-62029714D01*
X141999714Y-62086857D01*
X141914000Y-62115428D01*
X141771142Y-62115428D01*
X142342571Y-61572571D02*
X142371142Y-61544000D01*
X142428285Y-61515428D01*
X142571142Y-61515428D01*
X142628285Y-61544000D01*
X142656857Y-61572571D01*
X142685428Y-61629714D01*
X142685428Y-61686857D01*
X142656857Y-61772571D01*
X142314000Y-62115428D01*
X142685428Y-62115428D01*
X149391142Y-62115428D02*
X149391142Y-61515428D01*
X149534000Y-61515428D01*
X149619714Y-61544000D01*
X149676857Y-61601142D01*
X149705428Y-61658285D01*
X149734000Y-61772571D01*
X149734000Y-61858285D01*
X149705428Y-61972571D01*
X149676857Y-62029714D01*
X149619714Y-62086857D01*
X149534000Y-62115428D01*
X149391142Y-62115428D01*
X150076857Y-61772571D02*
X150019714Y-61744000D01*
X149991142Y-61715428D01*
X149962571Y-61658285D01*
X149962571Y-61629714D01*
X149991142Y-61572571D01*
X150019714Y-61544000D01*
X150076857Y-61515428D01*
X150191142Y-61515428D01*
X150248285Y-61544000D01*
X150276857Y-61572571D01*
X150305428Y-61629714D01*
X150305428Y-61658285D01*
X150276857Y-61715428D01*
X150248285Y-61744000D01*
X150191142Y-61772571D01*
X150076857Y-61772571D01*
X150019714Y-61801142D01*
X149991142Y-61829714D01*
X149962571Y-61886857D01*
X149962571Y-62001142D01*
X149991142Y-62058285D01*
X150019714Y-62086857D01*
X150076857Y-62115428D01*
X150191142Y-62115428D01*
X150248285Y-62086857D01*
X150276857Y-62058285D01*
X150305428Y-62001142D01*
X150305428Y-61886857D01*
X150276857Y-61829714D01*
X150248285Y-61801142D01*
X150191142Y-61772571D01*
D12*
X137541000Y-124614714D02*
X137612428Y-124686142D01*
X137541000Y-124757571D01*
X137469571Y-124686142D01*
X137541000Y-124614714D01*
X137541000Y-124757571D01*
D11*
X151688285Y-62086857D02*
X151774000Y-62115428D01*
X151916857Y-62115428D01*
X151974000Y-62086857D01*
X152002571Y-62058285D01*
X152031142Y-62001142D01*
X152031142Y-61944000D01*
X152002571Y-61886857D01*
X151974000Y-61858285D01*
X151916857Y-61829714D01*
X151802571Y-61801142D01*
X151745428Y-61772571D01*
X151716857Y-61744000D01*
X151688285Y-61686857D01*
X151688285Y-61629714D01*
X151716857Y-61572571D01*
X151745428Y-61544000D01*
X151802571Y-61515428D01*
X151945428Y-61515428D01*
X152031142Y-61544000D01*
X152202571Y-61515428D02*
X152545428Y-61515428D01*
X152374000Y-62115428D02*
X152374000Y-61515428D01*
X152859714Y-61515428D02*
X152916857Y-61515428D01*
X152974000Y-61544000D01*
X153002571Y-61572571D01*
X153031142Y-61629714D01*
X153059714Y-61744000D01*
X153059714Y-61886857D01*
X153031142Y-62001142D01*
X153002571Y-62058285D01*
X152974000Y-62086857D01*
X152916857Y-62115428D01*
X152859714Y-62115428D01*
X152802571Y-62086857D01*
X152774000Y-62058285D01*
X152745428Y-62001142D01*
X152716857Y-61886857D01*
X152716857Y-61744000D01*
X152745428Y-61629714D01*
X152774000Y-61572571D01*
X152802571Y-61544000D01*
X152859714Y-61515428D01*
D13*
X167994495Y-116728685D02*
X167994495Y-117223923D01*
X167689733Y-116957257D01*
X167689733Y-117071542D01*
X167651638Y-117147733D01*
X167613542Y-117185828D01*
X167537352Y-117223923D01*
X167346876Y-117223923D01*
X167270685Y-117185828D01*
X167232590Y-117147733D01*
X167194495Y-117071542D01*
X167194495Y-116842971D01*
X167232590Y-116766780D01*
X167270685Y-116728685D01*
X167918304Y-117528685D02*
X167956400Y-117566780D01*
X167994495Y-117642971D01*
X167994495Y-117833447D01*
X167956400Y-117909638D01*
X167918304Y-117947733D01*
X167842114Y-117985828D01*
X167765923Y-117985828D01*
X167651638Y-117947733D01*
X167194495Y-117490590D01*
X167194495Y-117985828D01*
X167194495Y-118328685D02*
X167994495Y-118328685D01*
X167194495Y-118785828D02*
X167651638Y-118442971D01*
X167994495Y-118785828D02*
X167537352Y-118328685D01*
X167270685Y-119128685D02*
X167232590Y-119166780D01*
X167194495Y-119128685D01*
X167232590Y-119090590D01*
X167270685Y-119128685D01*
X167194495Y-119128685D01*
X167689733Y-119128685D02*
X167651638Y-119166780D01*
X167613542Y-119128685D01*
X167651638Y-119090590D01*
X167689733Y-119128685D01*
X167613542Y-119128685D01*
X167232590Y-120081066D02*
X167194495Y-120195352D01*
X167194495Y-120385828D01*
X167232590Y-120462019D01*
X167270685Y-120500114D01*
X167346876Y-120538209D01*
X167423066Y-120538209D01*
X167499257Y-120500114D01*
X167537352Y-120462019D01*
X167575447Y-120385828D01*
X167613542Y-120233447D01*
X167651638Y-120157257D01*
X167689733Y-120119161D01*
X167765923Y-120081066D01*
X167842114Y-120081066D01*
X167918304Y-120119161D01*
X167956400Y-120157257D01*
X167994495Y-120233447D01*
X167994495Y-120423923D01*
X167956400Y-120538209D01*
X168108780Y-120309638D02*
X167080209Y-120309638D01*
X167994495Y-121033447D02*
X167994495Y-121109638D01*
X167956400Y-121185828D01*
X167918304Y-121223923D01*
X167842114Y-121262019D01*
X167689733Y-121300114D01*
X167499257Y-121300114D01*
X167346876Y-121262019D01*
X167270685Y-121223923D01*
X167232590Y-121185828D01*
X167194495Y-121109638D01*
X167194495Y-121033447D01*
X167232590Y-120957257D01*
X167270685Y-120919161D01*
X167346876Y-120881066D01*
X167499257Y-120842971D01*
X167689733Y-120842971D01*
X167842114Y-120881066D01*
X167918304Y-120919161D01*
X167956400Y-120957257D01*
X167994495Y-121033447D01*
X167994495Y-121795352D02*
X167994495Y-121871542D01*
X167956400Y-121947733D01*
X167918304Y-121985828D01*
X167842114Y-122023923D01*
X167689733Y-122062019D01*
X167499257Y-122062019D01*
X167346876Y-122023923D01*
X167270685Y-121985828D01*
X167232590Y-121947733D01*
X167194495Y-121871542D01*
X167194495Y-121795352D01*
X167232590Y-121719161D01*
X167270685Y-121681066D01*
X167346876Y-121642971D01*
X167499257Y-121604876D01*
X167689733Y-121604876D01*
X167842114Y-121642971D01*
X167918304Y-121681066D01*
X167956400Y-121719161D01*
X167994495Y-121795352D01*
X167994495Y-122557257D02*
X167994495Y-122633447D01*
X167956400Y-122709638D01*
X167918304Y-122747733D01*
X167842114Y-122785828D01*
X167689733Y-122823923D01*
X167499257Y-122823923D01*
X167346876Y-122785828D01*
X167270685Y-122747733D01*
X167232590Y-122709638D01*
X167194495Y-122633447D01*
X167194495Y-122557257D01*
X167232590Y-122481066D01*
X167270685Y-122442971D01*
X167346876Y-122404876D01*
X167499257Y-122366780D01*
X167689733Y-122366780D01*
X167842114Y-122404876D01*
X167918304Y-122442971D01*
X167956400Y-122481066D01*
X167994495Y-122557257D01*
X167994495Y-123319161D02*
X167994495Y-123395352D01*
X167956400Y-123471542D01*
X167918304Y-123509638D01*
X167842114Y-123547733D01*
X167689733Y-123585828D01*
X167499257Y-123585828D01*
X167346876Y-123547733D01*
X167270685Y-123509638D01*
X167232590Y-123471542D01*
X167194495Y-123395352D01*
X167194495Y-123319161D01*
X167232590Y-123242971D01*
X167270685Y-123204876D01*
X167346876Y-123166780D01*
X167499257Y-123128685D01*
X167689733Y-123128685D01*
X167842114Y-123166780D01*
X167918304Y-123204876D01*
X167956400Y-123242971D01*
X167994495Y-123319161D01*
X167499257Y-123928685D02*
X167499257Y-124538209D01*
X167232590Y-124881066D02*
X167194495Y-124995352D01*
X167194495Y-125185828D01*
X167232590Y-125262019D01*
X167270685Y-125300114D01*
X167346876Y-125338209D01*
X167423066Y-125338209D01*
X167499257Y-125300114D01*
X167537352Y-125262019D01*
X167575447Y-125185828D01*
X167613542Y-125033447D01*
X167651638Y-124957257D01*
X167689733Y-124919161D01*
X167765923Y-124881066D01*
X167842114Y-124881066D01*
X167918304Y-124919161D01*
X167956400Y-124957257D01*
X167994495Y-125033447D01*
X167994495Y-125223923D01*
X167956400Y-125338209D01*
X168108780Y-125109638D02*
X167080209Y-125109638D01*
X167994495Y-125604876D02*
X167994495Y-126138209D01*
X167194495Y-125795352D01*
X167613542Y-126709638D02*
X167613542Y-126442971D01*
X167194495Y-126442971D02*
X167994495Y-126442971D01*
X167994495Y-126823923D01*
X167613542Y-127395352D02*
X167613542Y-127128685D01*
X167194495Y-127128685D02*
X167994495Y-127128685D01*
X167994495Y-127509638D01*
X167613542Y-128081066D02*
X167613542Y-127814400D01*
X167194495Y-127814400D02*
X167994495Y-127814400D01*
X167994495Y-128195352D01*
X167270685Y-129566780D02*
X167232590Y-129528685D01*
X167194495Y-129414400D01*
X167194495Y-129338209D01*
X167232590Y-129223923D01*
X167308780Y-129147733D01*
X167384971Y-129109638D01*
X167537352Y-129071542D01*
X167651638Y-129071542D01*
X167804019Y-129109638D01*
X167880209Y-129147733D01*
X167956400Y-129223923D01*
X167994495Y-129338209D01*
X167994495Y-129414400D01*
X167956400Y-129528685D01*
X167918304Y-129566780D01*
X167194495Y-130328685D02*
X167194495Y-129871542D01*
X167194495Y-130100114D02*
X167994495Y-130100114D01*
X167880209Y-130023923D01*
X167804019Y-129947733D01*
X167765923Y-129871542D01*
X166706495Y-117147733D02*
X166706495Y-116995352D01*
X166668400Y-116919161D01*
X166630304Y-116881066D01*
X166516019Y-116804876D01*
X166363638Y-116766780D01*
X166058876Y-116766780D01*
X165982685Y-116804876D01*
X165944590Y-116842971D01*
X165906495Y-116919161D01*
X165906495Y-117071542D01*
X165944590Y-117147733D01*
X165982685Y-117185828D01*
X166058876Y-117223923D01*
X166249352Y-117223923D01*
X166325542Y-117185828D01*
X166363638Y-117147733D01*
X166401733Y-117071542D01*
X166401733Y-116919161D01*
X166363638Y-116842971D01*
X166325542Y-116804876D01*
X166249352Y-116766780D01*
X166439828Y-117909638D02*
X165906495Y-117909638D01*
X166744590Y-117719161D02*
X166173161Y-117528685D01*
X166173161Y-118023923D01*
X165906495Y-118328685D02*
X166706495Y-118328685D01*
X165906495Y-118785828D02*
X166363638Y-118442971D01*
X166706495Y-118785828D02*
X166249352Y-118328685D01*
X165982685Y-119128685D02*
X165944590Y-119166780D01*
X165906495Y-119128685D01*
X165944590Y-119090590D01*
X165982685Y-119128685D01*
X165906495Y-119128685D01*
X166401733Y-119128685D02*
X166363638Y-119166780D01*
X166325542Y-119128685D01*
X166363638Y-119090590D01*
X166401733Y-119128685D01*
X166325542Y-119128685D01*
X165944590Y-120081066D02*
X165906495Y-120195352D01*
X165906495Y-120385828D01*
X165944590Y-120462019D01*
X165982685Y-120500114D01*
X166058876Y-120538209D01*
X166135066Y-120538209D01*
X166211257Y-120500114D01*
X166249352Y-120462019D01*
X166287447Y-120385828D01*
X166325542Y-120233447D01*
X166363638Y-120157257D01*
X166401733Y-120119161D01*
X166477923Y-120081066D01*
X166554114Y-120081066D01*
X166630304Y-120119161D01*
X166668400Y-120157257D01*
X166706495Y-120233447D01*
X166706495Y-120423923D01*
X166668400Y-120538209D01*
X166820780Y-120309638D02*
X165792209Y-120309638D01*
X166706495Y-121033447D02*
X166706495Y-121109638D01*
X166668400Y-121185828D01*
X166630304Y-121223923D01*
X166554114Y-121262019D01*
X166401733Y-121300114D01*
X166211257Y-121300114D01*
X166058876Y-121262019D01*
X165982685Y-121223923D01*
X165944590Y-121185828D01*
X165906495Y-121109638D01*
X165906495Y-121033447D01*
X165944590Y-120957257D01*
X165982685Y-120919161D01*
X166058876Y-120881066D01*
X166211257Y-120842971D01*
X166401733Y-120842971D01*
X166554114Y-120881066D01*
X166630304Y-120919161D01*
X166668400Y-120957257D01*
X166706495Y-121033447D01*
X166706495Y-121795352D02*
X166706495Y-121871542D01*
X166668400Y-121947733D01*
X166630304Y-121985828D01*
X166554114Y-122023923D01*
X166401733Y-122062019D01*
X166211257Y-122062019D01*
X166058876Y-122023923D01*
X165982685Y-121985828D01*
X165944590Y-121947733D01*
X165906495Y-121871542D01*
X165906495Y-121795352D01*
X165944590Y-121719161D01*
X165982685Y-121681066D01*
X166058876Y-121642971D01*
X166211257Y-121604876D01*
X166401733Y-121604876D01*
X166554114Y-121642971D01*
X166630304Y-121681066D01*
X166668400Y-121719161D01*
X166706495Y-121795352D01*
X166706495Y-122557257D02*
X166706495Y-122633447D01*
X166668400Y-122709638D01*
X166630304Y-122747733D01*
X166554114Y-122785828D01*
X166401733Y-122823923D01*
X166211257Y-122823923D01*
X166058876Y-122785828D01*
X165982685Y-122747733D01*
X165944590Y-122709638D01*
X165906495Y-122633447D01*
X165906495Y-122557257D01*
X165944590Y-122481066D01*
X165982685Y-122442971D01*
X166058876Y-122404876D01*
X166211257Y-122366780D01*
X166401733Y-122366780D01*
X166554114Y-122404876D01*
X166630304Y-122442971D01*
X166668400Y-122481066D01*
X166706495Y-122557257D01*
X166706495Y-123319161D02*
X166706495Y-123395352D01*
X166668400Y-123471542D01*
X166630304Y-123509638D01*
X166554114Y-123547733D01*
X166401733Y-123585828D01*
X166211257Y-123585828D01*
X166058876Y-123547733D01*
X165982685Y-123509638D01*
X165944590Y-123471542D01*
X165906495Y-123395352D01*
X165906495Y-123319161D01*
X165944590Y-123242971D01*
X165982685Y-123204876D01*
X166058876Y-123166780D01*
X166211257Y-123128685D01*
X166401733Y-123128685D01*
X166554114Y-123166780D01*
X166630304Y-123204876D01*
X166668400Y-123242971D01*
X166706495Y-123319161D01*
X166211257Y-123928685D02*
X166211257Y-124538209D01*
X165944590Y-124881066D02*
X165906495Y-124995352D01*
X165906495Y-125185828D01*
X165944590Y-125262019D01*
X165982685Y-125300114D01*
X166058876Y-125338209D01*
X166135066Y-125338209D01*
X166211257Y-125300114D01*
X166249352Y-125262019D01*
X166287447Y-125185828D01*
X166325542Y-125033447D01*
X166363638Y-124957257D01*
X166401733Y-124919161D01*
X166477923Y-124881066D01*
X166554114Y-124881066D01*
X166630304Y-124919161D01*
X166668400Y-124957257D01*
X166706495Y-125033447D01*
X166706495Y-125223923D01*
X166668400Y-125338209D01*
X166820780Y-125109638D02*
X165792209Y-125109638D01*
X166706495Y-125604876D02*
X166706495Y-126138209D01*
X165906495Y-125795352D01*
X166325542Y-126709638D02*
X166325542Y-126442971D01*
X165906495Y-126442971D02*
X166706495Y-126442971D01*
X166706495Y-126823923D01*
X166325542Y-127395352D02*
X166325542Y-127128685D01*
X165906495Y-127128685D02*
X166706495Y-127128685D01*
X166706495Y-127509638D01*
X166325542Y-128081066D02*
X166325542Y-127814400D01*
X165906495Y-127814400D02*
X166706495Y-127814400D01*
X166706495Y-128195352D01*
X165982685Y-129566780D02*
X165944590Y-129528685D01*
X165906495Y-129414400D01*
X165906495Y-129338209D01*
X165944590Y-129223923D01*
X166020780Y-129147733D01*
X166096971Y-129109638D01*
X166249352Y-129071542D01*
X166363638Y-129071542D01*
X166516019Y-129109638D01*
X166592209Y-129147733D01*
X166668400Y-129223923D01*
X166706495Y-129338209D01*
X166706495Y-129414400D01*
X166668400Y-129528685D01*
X166630304Y-129566780D01*
X166630304Y-129871542D02*
X166668400Y-129909638D01*
X166706495Y-129985828D01*
X166706495Y-130176304D01*
X166668400Y-130252495D01*
X166630304Y-130290590D01*
X166554114Y-130328685D01*
X166477923Y-130328685D01*
X166363638Y-130290590D01*
X165906495Y-129833447D01*
X165906495Y-130328685D01*
X164656590Y-119814400D02*
X164618495Y-119928685D01*
X164618495Y-120119161D01*
X164656590Y-120195352D01*
X164694685Y-120233447D01*
X164770876Y-120271542D01*
X164847066Y-120271542D01*
X164923257Y-120233447D01*
X164961352Y-120195352D01*
X164999447Y-120119161D01*
X165037542Y-119966780D01*
X165075638Y-119890590D01*
X165113733Y-119852495D01*
X165189923Y-119814400D01*
X165266114Y-119814400D01*
X165342304Y-119852495D01*
X165380400Y-119890590D01*
X165418495Y-119966780D01*
X165418495Y-120157257D01*
X165380400Y-120271542D01*
X165532780Y-120042971D02*
X164504209Y-120042971D01*
X165075638Y-120728685D02*
X165113733Y-120652495D01*
X165151828Y-120614400D01*
X165228019Y-120576304D01*
X165266114Y-120576304D01*
X165342304Y-120614400D01*
X165380400Y-120652495D01*
X165418495Y-120728685D01*
X165418495Y-120881066D01*
X165380400Y-120957257D01*
X165342304Y-120995352D01*
X165266114Y-121033447D01*
X165228019Y-121033447D01*
X165151828Y-120995352D01*
X165113733Y-120957257D01*
X165075638Y-120881066D01*
X165075638Y-120728685D01*
X165037542Y-120652495D01*
X164999447Y-120614400D01*
X164923257Y-120576304D01*
X164770876Y-120576304D01*
X164694685Y-120614400D01*
X164656590Y-120652495D01*
X164618495Y-120728685D01*
X164618495Y-120881066D01*
X164656590Y-120957257D01*
X164694685Y-120995352D01*
X164770876Y-121033447D01*
X164923257Y-121033447D01*
X164999447Y-120995352D01*
X165037542Y-120957257D01*
X165075638Y-120881066D01*
X165418495Y-121528685D02*
X165418495Y-121604876D01*
X165380400Y-121681066D01*
X165342304Y-121719161D01*
X165266114Y-121757257D01*
X165113733Y-121795352D01*
X164923257Y-121795352D01*
X164770876Y-121757257D01*
X164694685Y-121719161D01*
X164656590Y-121681066D01*
X164618495Y-121604876D01*
X164618495Y-121528685D01*
X164656590Y-121452495D01*
X164694685Y-121414400D01*
X164770876Y-121376304D01*
X164923257Y-121338209D01*
X165113733Y-121338209D01*
X165266114Y-121376304D01*
X165342304Y-121414400D01*
X165380400Y-121452495D01*
X165418495Y-121528685D01*
X165418495Y-122290590D02*
X165418495Y-122366780D01*
X165380400Y-122442971D01*
X165342304Y-122481066D01*
X165266114Y-122519161D01*
X165113733Y-122557257D01*
X164923257Y-122557257D01*
X164770876Y-122519161D01*
X164694685Y-122481066D01*
X164656590Y-122442971D01*
X164618495Y-122366780D01*
X164618495Y-122290590D01*
X164656590Y-122214400D01*
X164694685Y-122176304D01*
X164770876Y-122138209D01*
X164923257Y-122100114D01*
X165113733Y-122100114D01*
X165266114Y-122138209D01*
X165342304Y-122176304D01*
X165380400Y-122214400D01*
X165418495Y-122290590D01*
X165418495Y-123052495D02*
X165418495Y-123128685D01*
X165380400Y-123204876D01*
X165342304Y-123242971D01*
X165266114Y-123281066D01*
X165113733Y-123319161D01*
X164923257Y-123319161D01*
X164770876Y-123281066D01*
X164694685Y-123242971D01*
X164656590Y-123204876D01*
X164618495Y-123128685D01*
X164618495Y-123052495D01*
X164656590Y-122976304D01*
X164694685Y-122938209D01*
X164770876Y-122900114D01*
X164923257Y-122862019D01*
X165113733Y-122862019D01*
X165266114Y-122900114D01*
X165342304Y-122938209D01*
X165380400Y-122976304D01*
X165418495Y-123052495D01*
X164923257Y-123662019D02*
X164923257Y-124271542D01*
X164656590Y-124614400D02*
X164618495Y-124728685D01*
X164618495Y-124919161D01*
X164656590Y-124995352D01*
X164694685Y-125033447D01*
X164770876Y-125071542D01*
X164847066Y-125071542D01*
X164923257Y-125033447D01*
X164961352Y-124995352D01*
X164999447Y-124919161D01*
X165037542Y-124766780D01*
X165075638Y-124690590D01*
X165113733Y-124652495D01*
X165189923Y-124614400D01*
X165266114Y-124614400D01*
X165342304Y-124652495D01*
X165380400Y-124690590D01*
X165418495Y-124766780D01*
X165418495Y-124957257D01*
X165380400Y-125071542D01*
X165532780Y-124842971D02*
X164504209Y-124842971D01*
X165037542Y-125681066D02*
X165037542Y-125414400D01*
X164618495Y-125414400D02*
X165418495Y-125414400D01*
X165418495Y-125795352D01*
X165037542Y-126366780D02*
X165037542Y-126100114D01*
X164618495Y-126100114D02*
X165418495Y-126100114D01*
X165418495Y-126481066D01*
X165037542Y-127052495D02*
X165037542Y-126785828D01*
X164618495Y-126785828D02*
X165418495Y-126785828D01*
X165418495Y-127166780D01*
X165037542Y-127738209D02*
X165037542Y-127471542D01*
X164618495Y-127471542D02*
X165418495Y-127471542D01*
X165418495Y-127852495D01*
X164694685Y-129223923D02*
X164656590Y-129185828D01*
X164618495Y-129071542D01*
X164618495Y-128995352D01*
X164656590Y-128881066D01*
X164732780Y-128804876D01*
X164808971Y-128766780D01*
X164961352Y-128728685D01*
X165075638Y-128728685D01*
X165228019Y-128766780D01*
X165304209Y-128804876D01*
X165380400Y-128881066D01*
X165418495Y-128995352D01*
X165418495Y-129071542D01*
X165380400Y-129185828D01*
X165342304Y-129223923D01*
X164618495Y-129985828D02*
X164618495Y-129528685D01*
X164618495Y-129757257D02*
X165418495Y-129757257D01*
X165304209Y-129681066D01*
X165228019Y-129604876D01*
X165189923Y-129528685D01*
D11*
X123190047Y-127452428D02*
X123951952Y-127452428D01*
X123571000Y-127833380D02*
X123571000Y-127071476D01*
X144311142Y-68719428D02*
X144311142Y-68119428D01*
X144454000Y-68119428D01*
X144539714Y-68148000D01*
X144596857Y-68205142D01*
X144625428Y-68262285D01*
X144654000Y-68376571D01*
X144654000Y-68462285D01*
X144625428Y-68576571D01*
X144596857Y-68633714D01*
X144539714Y-68690857D01*
X144454000Y-68719428D01*
X144311142Y-68719428D01*
X144854000Y-68119428D02*
X145225428Y-68119428D01*
X145025428Y-68348000D01*
X145111142Y-68348000D01*
X145168285Y-68376571D01*
X145196857Y-68405142D01*
X145225428Y-68462285D01*
X145225428Y-68605142D01*
X145196857Y-68662285D01*
X145168285Y-68690857D01*
X145111142Y-68719428D01*
X144939714Y-68719428D01*
X144882571Y-68690857D01*
X144854000Y-68662285D01*
D12*
X138811000Y-123598714D02*
X138882428Y-123670142D01*
X138811000Y-123741571D01*
X138739571Y-123670142D01*
X138811000Y-123598714D01*
X138811000Y-123741571D01*
D11*
X129713000Y-129846118D02*
X129741571Y-129788975D01*
X129741571Y-129703261D01*
X129713000Y-129617546D01*
X129655857Y-129560403D01*
X129598714Y-129531832D01*
X129484428Y-129503261D01*
X129398714Y-129503261D01*
X129284428Y-129531832D01*
X129227285Y-129560403D01*
X129170142Y-129617546D01*
X129141571Y-129703261D01*
X129141571Y-129760403D01*
X129170142Y-129846118D01*
X129198714Y-129874689D01*
X129398714Y-129874689D01*
X129398714Y-129760403D01*
X129141571Y-130131832D02*
X129741571Y-130131832D01*
X129141571Y-130474689D01*
X129741571Y-130474689D01*
X129141571Y-130760403D02*
X129741571Y-130760403D01*
X129741571Y-130903261D01*
X129713000Y-130988975D01*
X129655857Y-131046118D01*
X129598714Y-131074689D01*
X129484428Y-131103261D01*
X129398714Y-131103261D01*
X129284428Y-131074689D01*
X129227285Y-131046118D01*
X129170142Y-130988975D01*
X129141571Y-130903261D01*
X129141571Y-130760403D01*
X156996857Y-61544000D02*
X156939714Y-61515428D01*
X156854000Y-61515428D01*
X156768285Y-61544000D01*
X156711142Y-61601142D01*
X156682571Y-61658285D01*
X156654000Y-61772571D01*
X156654000Y-61858285D01*
X156682571Y-61972571D01*
X156711142Y-62029714D01*
X156768285Y-62086857D01*
X156854000Y-62115428D01*
X156911142Y-62115428D01*
X156996857Y-62086857D01*
X157025428Y-62058285D01*
X157025428Y-61858285D01*
X156911142Y-61858285D01*
X157282571Y-62115428D02*
X157282571Y-61515428D01*
X157625428Y-62115428D01*
X157625428Y-61515428D01*
X157911142Y-62115428D02*
X157911142Y-61515428D01*
X158054000Y-61515428D01*
X158139714Y-61544000D01*
X158196857Y-61601142D01*
X158225428Y-61658285D01*
X158254000Y-61772571D01*
X158254000Y-61858285D01*
X158225428Y-61972571D01*
X158196857Y-62029714D01*
X158139714Y-62086857D01*
X158054000Y-62115428D01*
X157911142Y-62115428D01*
X158323000Y-99009142D02*
X158294428Y-99066285D01*
X158294428Y-99152000D01*
X158323000Y-99237714D01*
X158380142Y-99294857D01*
X158437285Y-99323428D01*
X158551571Y-99352000D01*
X158637285Y-99352000D01*
X158751571Y-99323428D01*
X158808714Y-99294857D01*
X158865857Y-99237714D01*
X158894428Y-99152000D01*
X158894428Y-99094857D01*
X158865857Y-99009142D01*
X158837285Y-98980571D01*
X158637285Y-98980571D01*
X158637285Y-99094857D01*
X158894428Y-98723428D02*
X158294428Y-98723428D01*
X158894428Y-98380571D01*
X158294428Y-98380571D01*
X158894428Y-98094857D02*
X158294428Y-98094857D01*
X158294428Y-97952000D01*
X158323000Y-97866285D01*
X158380142Y-97809142D01*
X158437285Y-97780571D01*
X158551571Y-97752000D01*
X158637285Y-97752000D01*
X158751571Y-97780571D01*
X158808714Y-97809142D01*
X158865857Y-97866285D01*
X158894428Y-97952000D01*
X158894428Y-98094857D01*
X160834428Y-99337714D02*
X160834428Y-98994857D01*
X161434428Y-99166285D02*
X160834428Y-99166285D01*
X161434428Y-98794857D02*
X160834428Y-98794857D01*
X160834428Y-98652000D01*
X160863000Y-98566285D01*
X160920142Y-98509142D01*
X160977285Y-98480571D01*
X161091571Y-98452000D01*
X161177285Y-98452000D01*
X161291571Y-98480571D01*
X161348714Y-98509142D01*
X161405857Y-98566285D01*
X161434428Y-98652000D01*
X161434428Y-98794857D01*
X160834428Y-98080571D02*
X160834428Y-97966285D01*
X160863000Y-97909142D01*
X160920142Y-97852000D01*
X161034428Y-97823428D01*
X161234428Y-97823428D01*
X161348714Y-97852000D01*
X161405857Y-97909142D01*
X161434428Y-97966285D01*
X161434428Y-98080571D01*
X161405857Y-98137714D01*
X161348714Y-98194857D01*
X161234428Y-98223428D01*
X161034428Y-98223428D01*
X160920142Y-98194857D01*
X160863000Y-98137714D01*
X160834428Y-98080571D01*
X165914428Y-99323428D02*
X165914428Y-98980571D01*
X166514428Y-99152000D02*
X165914428Y-99152000D01*
X166457285Y-98437714D02*
X166485857Y-98466285D01*
X166514428Y-98552000D01*
X166514428Y-98609142D01*
X166485857Y-98694857D01*
X166428714Y-98752000D01*
X166371571Y-98780571D01*
X166257285Y-98809142D01*
X166171571Y-98809142D01*
X166057285Y-98780571D01*
X166000142Y-98752000D01*
X165943000Y-98694857D01*
X165914428Y-98609142D01*
X165914428Y-98552000D01*
X165943000Y-98466285D01*
X165971571Y-98437714D01*
X166514428Y-98180571D02*
X165914428Y-98180571D01*
X166514428Y-97837714D02*
X166171571Y-98094857D01*
X165914428Y-97837714D02*
X166257285Y-98180571D01*
X154228285Y-62086857D02*
X154314000Y-62115428D01*
X154456857Y-62115428D01*
X154514000Y-62086857D01*
X154542571Y-62058285D01*
X154571142Y-62001142D01*
X154571142Y-61944000D01*
X154542571Y-61886857D01*
X154514000Y-61858285D01*
X154456857Y-61829714D01*
X154342571Y-61801142D01*
X154285428Y-61772571D01*
X154256857Y-61744000D01*
X154228285Y-61686857D01*
X154228285Y-61629714D01*
X154256857Y-61572571D01*
X154285428Y-61544000D01*
X154342571Y-61515428D01*
X154485428Y-61515428D01*
X154571142Y-61544000D01*
X154742571Y-61515428D02*
X155085428Y-61515428D01*
X154914000Y-62115428D02*
X154914000Y-61515428D01*
X155599714Y-62115428D02*
X155256857Y-62115428D01*
X155428285Y-62115428D02*
X155428285Y-61515428D01*
X155371142Y-61601142D01*
X155314000Y-61658285D01*
X155256857Y-61686857D01*
X159585142Y-83075428D02*
X159585142Y-82475428D01*
X159785142Y-82904000D01*
X159985142Y-82475428D01*
X159985142Y-83075428D01*
X160385142Y-82475428D02*
X160499428Y-82475428D01*
X160556571Y-82504000D01*
X160613714Y-82561142D01*
X160642285Y-82675428D01*
X160642285Y-82875428D01*
X160613714Y-82989714D01*
X160556571Y-83046857D01*
X160499428Y-83075428D01*
X160385142Y-83075428D01*
X160328000Y-83046857D01*
X160270857Y-82989714D01*
X160242285Y-82875428D01*
X160242285Y-82675428D01*
X160270857Y-82561142D01*
X160328000Y-82504000D01*
X160385142Y-82475428D01*
X160870857Y-83046857D02*
X160956571Y-83075428D01*
X161099428Y-83075428D01*
X161156571Y-83046857D01*
X161185142Y-83018285D01*
X161213714Y-82961142D01*
X161213714Y-82904000D01*
X161185142Y-82846857D01*
X161156571Y-82818285D01*
X161099428Y-82789714D01*
X160985142Y-82761142D01*
X160928000Y-82732571D01*
X160899428Y-82704000D01*
X160870857Y-82646857D01*
X160870857Y-82589714D01*
X160899428Y-82532571D01*
X160928000Y-82504000D01*
X160985142Y-82475428D01*
X161128000Y-82475428D01*
X161213714Y-82504000D01*
X161470857Y-83075428D02*
X161470857Y-82475428D01*
X151702571Y-68719428D02*
X151702571Y-68119428D01*
X151845428Y-68119428D01*
X151931142Y-68148000D01*
X151988285Y-68205142D01*
X152016857Y-68262285D01*
X152045428Y-68376571D01*
X152045428Y-68462285D01*
X152016857Y-68576571D01*
X151988285Y-68633714D01*
X151931142Y-68690857D01*
X151845428Y-68719428D01*
X151702571Y-68719428D01*
X152274000Y-68548000D02*
X152559714Y-68548000D01*
X152216857Y-68719428D02*
X152416857Y-68119428D01*
X152616857Y-68719428D01*
X152731142Y-68119428D02*
X152931142Y-68719428D01*
X153131142Y-68119428D01*
X141771142Y-68719428D02*
X141771142Y-68119428D01*
X141914000Y-68119428D01*
X141999714Y-68148000D01*
X142056857Y-68205142D01*
X142085428Y-68262285D01*
X142114000Y-68376571D01*
X142114000Y-68462285D01*
X142085428Y-68576571D01*
X142056857Y-68633714D01*
X141999714Y-68690857D01*
X141914000Y-68719428D01*
X141771142Y-68719428D01*
X142685428Y-68719428D02*
X142342571Y-68719428D01*
X142514000Y-68719428D02*
X142514000Y-68119428D01*
X142456857Y-68205142D01*
X142399714Y-68262285D01*
X142342571Y-68290857D01*
X139216857Y-68148000D02*
X139159714Y-68119428D01*
X139074000Y-68119428D01*
X138988285Y-68148000D01*
X138931142Y-68205142D01*
X138902571Y-68262285D01*
X138874000Y-68376571D01*
X138874000Y-68462285D01*
X138902571Y-68576571D01*
X138931142Y-68633714D01*
X138988285Y-68690857D01*
X139074000Y-68719428D01*
X139131142Y-68719428D01*
X139216857Y-68690857D01*
X139245428Y-68662285D01*
X139245428Y-68462285D01*
X139131142Y-68462285D01*
X139502571Y-68719428D02*
X139502571Y-68119428D01*
X139845428Y-68719428D01*
X139845428Y-68119428D01*
X140131142Y-68719428D02*
X140131142Y-68119428D01*
X140274000Y-68119428D01*
X140359714Y-68148000D01*
X140416857Y-68205142D01*
X140445428Y-68262285D01*
X140474000Y-68376571D01*
X140474000Y-68462285D01*
X140445428Y-68576571D01*
X140416857Y-68633714D01*
X140359714Y-68690857D01*
X140274000Y-68719428D01*
X140131142Y-68719428D01*
X159371714Y-62623428D02*
X159028857Y-62623428D01*
X159200285Y-62623428D02*
X159200285Y-62023428D01*
X159143142Y-62109142D01*
X159086000Y-62166285D01*
X159028857Y-62194857D01*
X159886000Y-62023428D02*
X159771714Y-62023428D01*
X159714571Y-62052000D01*
X159686000Y-62080571D01*
X159628857Y-62166285D01*
X159600285Y-62280571D01*
X159600285Y-62509142D01*
X159628857Y-62566285D01*
X159657428Y-62594857D01*
X159714571Y-62623428D01*
X159828857Y-62623428D01*
X159886000Y-62594857D01*
X159914571Y-62566285D01*
X159943142Y-62509142D01*
X159943142Y-62366285D01*
X159914571Y-62309142D01*
X159886000Y-62280571D01*
X159828857Y-62252000D01*
X159714571Y-62252000D01*
X159657428Y-62280571D01*
X159628857Y-62309142D01*
X159600285Y-62366285D01*
X146851142Y-62115428D02*
X146851142Y-61515428D01*
X146994000Y-61515428D01*
X147079714Y-61544000D01*
X147136857Y-61601142D01*
X147165428Y-61658285D01*
X147194000Y-61772571D01*
X147194000Y-61858285D01*
X147165428Y-61972571D01*
X147136857Y-62029714D01*
X147079714Y-62086857D01*
X146994000Y-62115428D01*
X146851142Y-62115428D01*
X147708285Y-61515428D02*
X147594000Y-61515428D01*
X147536857Y-61544000D01*
X147508285Y-61572571D01*
X147451142Y-61658285D01*
X147422571Y-61772571D01*
X147422571Y-62001142D01*
X147451142Y-62058285D01*
X147479714Y-62086857D01*
X147536857Y-62115428D01*
X147651142Y-62115428D01*
X147708285Y-62086857D01*
X147736857Y-62058285D01*
X147765428Y-62001142D01*
X147765428Y-61858285D01*
X147736857Y-61801142D01*
X147708285Y-61772571D01*
X147651142Y-61744000D01*
X147536857Y-61744000D01*
X147479714Y-61772571D01*
X147451142Y-61801142D01*
X147422571Y-61858285D01*
X146851142Y-68719428D02*
X146851142Y-68119428D01*
X146994000Y-68119428D01*
X147079714Y-68148000D01*
X147136857Y-68205142D01*
X147165428Y-68262285D01*
X147194000Y-68376571D01*
X147194000Y-68462285D01*
X147165428Y-68576571D01*
X147136857Y-68633714D01*
X147079714Y-68690857D01*
X146994000Y-68719428D01*
X146851142Y-68719428D01*
X147736857Y-68119428D02*
X147451142Y-68119428D01*
X147422571Y-68405142D01*
X147451142Y-68376571D01*
X147508285Y-68348000D01*
X147651142Y-68348000D01*
X147708285Y-68376571D01*
X147736857Y-68405142D01*
X147765428Y-68462285D01*
X147765428Y-68605142D01*
X147736857Y-68662285D01*
X147708285Y-68690857D01*
X147651142Y-68719428D01*
X147508285Y-68719428D01*
X147451142Y-68690857D01*
X147422571Y-68662285D01*
X160070857Y-90124000D02*
X160013714Y-90095428D01*
X159928000Y-90095428D01*
X159842285Y-90124000D01*
X159785142Y-90181142D01*
X159756571Y-90238285D01*
X159728000Y-90352571D01*
X159728000Y-90438285D01*
X159756571Y-90552571D01*
X159785142Y-90609714D01*
X159842285Y-90666857D01*
X159928000Y-90695428D01*
X159985142Y-90695428D01*
X160070857Y-90666857D01*
X160099428Y-90638285D01*
X160099428Y-90438285D01*
X159985142Y-90438285D01*
X160356571Y-90695428D02*
X160356571Y-90095428D01*
X160699428Y-90695428D01*
X160699428Y-90095428D01*
X160985142Y-90695428D02*
X160985142Y-90095428D01*
X161128000Y-90095428D01*
X161213714Y-90124000D01*
X161270857Y-90181142D01*
X161299428Y-90238285D01*
X161328000Y-90352571D01*
X161328000Y-90438285D01*
X161299428Y-90552571D01*
X161270857Y-90609714D01*
X161213714Y-90666857D01*
X161128000Y-90695428D01*
X160985142Y-90695428D01*
X126833333Y-138685542D02*
X126785714Y-138733161D01*
X126642857Y-138780780D01*
X126547619Y-138780780D01*
X126404761Y-138733161D01*
X126309523Y-138637923D01*
X126261904Y-138542685D01*
X126214285Y-138352209D01*
X126214285Y-138209352D01*
X126261904Y-138018876D01*
X126309523Y-137923638D01*
X126404761Y-137828400D01*
X126547619Y-137780780D01*
X126642857Y-137780780D01*
X126785714Y-137828400D01*
X126833333Y-137876019D01*
X127690476Y-137780780D02*
X127500000Y-137780780D01*
X127404761Y-137828400D01*
X127357142Y-137876019D01*
X127261904Y-138018876D01*
X127214285Y-138209352D01*
X127214285Y-138590304D01*
X127261904Y-138685542D01*
X127309523Y-138733161D01*
X127404761Y-138780780D01*
X127595238Y-138780780D01*
X127690476Y-138733161D01*
X127738095Y-138685542D01*
X127785714Y-138590304D01*
X127785714Y-138352209D01*
X127738095Y-138256971D01*
X127690476Y-138209352D01*
X127595238Y-138161733D01*
X127404761Y-138161733D01*
X127309523Y-138209352D01*
X127261904Y-138256971D01*
X127214285Y-138352209D01*
X128778095Y-120174380D02*
X128778095Y-120983904D01*
X128825714Y-121079142D01*
X128873333Y-121126761D01*
X128968571Y-121174380D01*
X129159047Y-121174380D01*
X129254285Y-121126761D01*
X129301904Y-121079142D01*
X129349523Y-120983904D01*
X129349523Y-120174380D01*
X129730476Y-120174380D02*
X130349523Y-120174380D01*
X130016190Y-120555333D01*
X130159047Y-120555333D01*
X130254285Y-120602952D01*
X130301904Y-120650571D01*
X130349523Y-120745809D01*
X130349523Y-120983904D01*
X130301904Y-121079142D01*
X130254285Y-121126761D01*
X130159047Y-121174380D01*
X129873333Y-121174380D01*
X129778095Y-121126761D01*
X129730476Y-121079142D01*
X126166666Y-100395380D02*
X126166666Y-101109666D01*
X126119047Y-101252523D01*
X126023809Y-101347761D01*
X125880952Y-101395380D01*
X125785714Y-101395380D01*
X126642857Y-101395380D02*
X126642857Y-100395380D01*
X127023809Y-100395380D01*
X127119047Y-100443000D01*
X127166666Y-100490619D01*
X127214285Y-100585857D01*
X127214285Y-100728714D01*
X127166666Y-100823952D01*
X127119047Y-100871571D01*
X127023809Y-100919190D01*
X126642857Y-100919190D01*
X127547619Y-100395380D02*
X128166666Y-100395380D01*
X127833333Y-100776333D01*
X127976190Y-100776333D01*
X128071428Y-100823952D01*
X128119047Y-100871571D01*
X128166666Y-100966809D01*
X128166666Y-101204904D01*
X128119047Y-101300142D01*
X128071428Y-101347761D01*
X127976190Y-101395380D01*
X127690476Y-101395380D01*
X127595238Y-101347761D01*
X127547619Y-101300142D01*
X129266666Y-102195380D02*
X129885714Y-102195380D01*
X129552380Y-102576333D01*
X129695238Y-102576333D01*
X129790476Y-102623952D01*
X129838095Y-102671571D01*
X129885714Y-102766809D01*
X129885714Y-103004904D01*
X129838095Y-103100142D01*
X129790476Y-103147761D01*
X129695238Y-103195380D01*
X129409523Y-103195380D01*
X129314285Y-103147761D01*
X129266666Y-103100142D01*
X124685714Y-103195380D02*
X124114285Y-103195380D01*
X124400000Y-103195380D02*
X124400000Y-102195380D01*
X124304761Y-102338238D01*
X124209523Y-102433476D01*
X124114285Y-102481095D01*
X152633310Y-131335766D02*
X152633310Y-131403109D01*
X152565966Y-131537796D01*
X152498623Y-131605140D01*
X152363935Y-131672483D01*
X152229248Y-131672483D01*
X152128233Y-131638812D01*
X151959874Y-131537796D01*
X151858859Y-131436781D01*
X151757844Y-131268422D01*
X151724172Y-131167407D01*
X151724172Y-131032720D01*
X151791516Y-130898033D01*
X151858859Y-130830689D01*
X151993546Y-130763346D01*
X152060890Y-130763346D01*
X152229248Y-130460300D02*
X152666981Y-130022567D01*
X152700653Y-130527644D01*
X152801668Y-130426628D01*
X152902684Y-130392957D01*
X152970027Y-130392957D01*
X153071042Y-130426628D01*
X153239401Y-130594987D01*
X153273073Y-130696002D01*
X153273073Y-130763346D01*
X153239401Y-130864361D01*
X153037371Y-131066392D01*
X152936355Y-131100064D01*
X152869012Y-131100064D01*
X166676980Y-70790871D02*
X166819838Y-70838490D01*
X166867457Y-70886109D01*
X166915076Y-70981347D01*
X166915076Y-71124204D01*
X166867457Y-71219442D01*
X166819838Y-71267061D01*
X166724600Y-71314680D01*
X166343647Y-71314680D01*
X166343647Y-70314680D01*
X166676980Y-70314680D01*
X166772219Y-70362300D01*
X166819838Y-70409919D01*
X166867457Y-70505157D01*
X166867457Y-70600395D01*
X166819838Y-70695633D01*
X166772219Y-70743252D01*
X166676980Y-70790871D01*
X166343647Y-70790871D01*
X167343647Y-70314680D02*
X167343647Y-71124204D01*
X167391266Y-71219442D01*
X167438885Y-71267061D01*
X167534123Y-71314680D01*
X167724600Y-71314680D01*
X167819838Y-71267061D01*
X167867457Y-71219442D01*
X167915076Y-71124204D01*
X167915076Y-70314680D01*
X168248409Y-70314680D02*
X168819838Y-70314680D01*
X168534123Y-71314680D02*
X168534123Y-70314680D01*
X168915076Y-71409919D02*
X169676980Y-71409919D01*
X169915076Y-71314680D02*
X169915076Y-70314680D01*
X170486504Y-71314680D01*
X170486504Y-70314680D01*
X170962695Y-70790871D02*
X171296028Y-70790871D01*
X171438885Y-71314680D02*
X170962695Y-71314680D01*
X170962695Y-70314680D01*
X171438885Y-70314680D01*
X171772219Y-70314680D02*
X172438885Y-71314680D01*
X172438885Y-70314680D02*
X171772219Y-71314680D01*
X172676980Y-70314680D02*
X173248409Y-70314680D01*
X172962695Y-71314680D02*
X172962695Y-70314680D01*
X152979450Y-115988251D02*
X153046793Y-115988251D01*
X153181480Y-116055595D01*
X153248824Y-116122939D01*
X153316167Y-116257626D01*
X153316167Y-116392313D01*
X153282496Y-116493328D01*
X153181480Y-116661687D01*
X153080465Y-116762702D01*
X152912106Y-116863717D01*
X152811091Y-116897389D01*
X152676404Y-116897389D01*
X152541717Y-116830045D01*
X152474373Y-116762702D01*
X152407030Y-116628015D01*
X152407030Y-116560671D01*
X151969297Y-115786221D02*
X152440702Y-115314816D01*
X151868282Y-116223954D02*
X152541717Y-115887236D01*
X152103984Y-115449503D01*
X126166666Y-104459380D02*
X126166666Y-105173666D01*
X126119047Y-105316523D01*
X126023809Y-105411761D01*
X125880952Y-105459380D01*
X125785714Y-105459380D01*
X126642857Y-105459380D02*
X126642857Y-104459380D01*
X127023809Y-104459380D01*
X127119047Y-104507000D01*
X127166666Y-104554619D01*
X127214285Y-104649857D01*
X127214285Y-104792714D01*
X127166666Y-104887952D01*
X127119047Y-104935571D01*
X127023809Y-104983190D01*
X126642857Y-104983190D01*
X128071428Y-104792714D02*
X128071428Y-105459380D01*
X127833333Y-104411761D02*
X127595238Y-105126047D01*
X128214285Y-105126047D01*
X124685714Y-107259380D02*
X124114285Y-107259380D01*
X124400000Y-107259380D02*
X124400000Y-106259380D01*
X124304761Y-106402238D01*
X124209523Y-106497476D01*
X124114285Y-106545095D01*
X129266666Y-106259380D02*
X129885714Y-106259380D01*
X129552380Y-106640333D01*
X129695238Y-106640333D01*
X129790476Y-106687952D01*
X129838095Y-106735571D01*
X129885714Y-106830809D01*
X129885714Y-107068904D01*
X129838095Y-107164142D01*
X129790476Y-107211761D01*
X129695238Y-107259380D01*
X129409523Y-107259380D01*
X129314285Y-107211761D01*
X129266666Y-107164142D01*
X135564666Y-96331380D02*
X135564666Y-97045666D01*
X135517047Y-97188523D01*
X135421809Y-97283761D01*
X135278952Y-97331380D01*
X135183714Y-97331380D01*
X136040857Y-97331380D02*
X136040857Y-96331380D01*
X136421809Y-96331380D01*
X136517047Y-96379000D01*
X136564666Y-96426619D01*
X136612285Y-96521857D01*
X136612285Y-96664714D01*
X136564666Y-96759952D01*
X136517047Y-96807571D01*
X136421809Y-96855190D01*
X136040857Y-96855190D01*
X137564666Y-97331380D02*
X136993238Y-97331380D01*
X137278952Y-97331380D02*
X137278952Y-96331380D01*
X137183714Y-96474238D01*
X137088476Y-96569476D01*
X136993238Y-96617095D01*
X121470380Y-133684633D02*
X122184666Y-133684633D01*
X122327523Y-133732252D01*
X122422761Y-133827490D01*
X122470380Y-133970347D01*
X122470380Y-134065585D01*
X121803714Y-132779871D02*
X122470380Y-132779871D01*
X121422761Y-133017966D02*
X122137047Y-133256061D01*
X122137047Y-132637014D01*
X129706666Y-128412476D02*
X129706666Y-127936285D01*
X129992380Y-128507714D02*
X128992380Y-128174380D01*
X129992380Y-127841047D01*
X129992380Y-127507714D02*
X128992380Y-127507714D01*
X129706666Y-127174380D01*
X128992380Y-126841047D01*
X129992380Y-126841047D01*
X129944761Y-126412476D02*
X129992380Y-126269619D01*
X129992380Y-126031523D01*
X129944761Y-125936285D01*
X129897142Y-125888666D01*
X129801904Y-125841047D01*
X129706666Y-125841047D01*
X129611428Y-125888666D01*
X129563809Y-125936285D01*
X129516190Y-126031523D01*
X129468571Y-126222000D01*
X129420952Y-126317238D01*
X129373333Y-126364857D01*
X129278095Y-126412476D01*
X129182857Y-126412476D01*
X129087619Y-126364857D01*
X129040000Y-126317238D01*
X128992380Y-126222000D01*
X128992380Y-125983904D01*
X129040000Y-125841047D01*
X129992380Y-124888666D02*
X129992380Y-125460095D01*
X129992380Y-125174380D02*
X128992380Y-125174380D01*
X129135238Y-125269619D01*
X129230476Y-125364857D01*
X129278095Y-125460095D01*
X129992380Y-123936285D02*
X129992380Y-124507714D01*
X129992380Y-124222000D02*
X128992380Y-124222000D01*
X129135238Y-124317238D01*
X129230476Y-124412476D01*
X129278095Y-124507714D01*
X129992380Y-122983904D02*
X129992380Y-123555333D01*
X129992380Y-123269619D02*
X128992380Y-123269619D01*
X129135238Y-123364857D01*
X129230476Y-123460095D01*
X129278095Y-123555333D01*
X128992380Y-122650571D02*
X128992380Y-121983904D01*
X129992380Y-122412476D01*
X122178142Y-124499666D02*
X122225761Y-124547285D01*
X122273380Y-124690142D01*
X122273380Y-124785380D01*
X122225761Y-124928238D01*
X122130523Y-125023476D01*
X122035285Y-125071095D01*
X121844809Y-125118714D01*
X121701952Y-125118714D01*
X121511476Y-125071095D01*
X121416238Y-125023476D01*
X121321000Y-124928238D01*
X121273380Y-124785380D01*
X121273380Y-124690142D01*
X121321000Y-124547285D01*
X121368619Y-124499666D01*
X121273380Y-124166333D02*
X121273380Y-123499666D01*
X122273380Y-123928238D01*
X138083328Y-130884373D02*
X138150671Y-130884373D01*
X138285358Y-130951717D01*
X138352702Y-131019061D01*
X138420045Y-131153748D01*
X138420045Y-131288435D01*
X138386374Y-131389450D01*
X138285358Y-131557809D01*
X138184343Y-131658824D01*
X138015984Y-131759839D01*
X137914969Y-131793511D01*
X137780282Y-131793511D01*
X137645595Y-131726167D01*
X137578251Y-131658824D01*
X137510908Y-131524137D01*
X137510908Y-131456793D01*
X137241534Y-131187419D02*
X137174190Y-131187419D01*
X137073175Y-131153748D01*
X136904816Y-130985389D01*
X136871145Y-130884373D01*
X136871145Y-130817030D01*
X136904816Y-130716015D01*
X136972160Y-130648671D01*
X137106847Y-130581328D01*
X137914969Y-130581328D01*
X137477236Y-130143595D01*
X125227361Y-70790871D02*
X125370219Y-70838490D01*
X125417838Y-70886109D01*
X125465457Y-70981347D01*
X125465457Y-71124204D01*
X125417838Y-71219442D01*
X125370219Y-71267061D01*
X125274980Y-71314680D01*
X124894028Y-71314680D01*
X124894028Y-70314680D01*
X125227361Y-70314680D01*
X125322600Y-70362300D01*
X125370219Y-70409919D01*
X125417838Y-70505157D01*
X125417838Y-70600395D01*
X125370219Y-70695633D01*
X125322600Y-70743252D01*
X125227361Y-70790871D01*
X124894028Y-70790871D01*
X125894028Y-70314680D02*
X125894028Y-71124204D01*
X125941647Y-71219442D01*
X125989266Y-71267061D01*
X126084504Y-71314680D01*
X126274980Y-71314680D01*
X126370219Y-71267061D01*
X126417838Y-71219442D01*
X126465457Y-71124204D01*
X126465457Y-70314680D01*
X126798790Y-70314680D02*
X127370219Y-70314680D01*
X127084504Y-71314680D02*
X127084504Y-70314680D01*
X127465457Y-71409919D02*
X128227361Y-71409919D01*
X128465457Y-71314680D02*
X128465457Y-70314680D01*
X128846409Y-70314680D01*
X128941647Y-70362300D01*
X128989266Y-70409919D01*
X129036885Y-70505157D01*
X129036885Y-70648014D01*
X128989266Y-70743252D01*
X128941647Y-70790871D01*
X128846409Y-70838490D01*
X128465457Y-70838490D01*
X130036885Y-71314680D02*
X129703552Y-70838490D01*
X129465457Y-71314680D02*
X129465457Y-70314680D01*
X129846409Y-70314680D01*
X129941647Y-70362300D01*
X129989266Y-70409919D01*
X130036885Y-70505157D01*
X130036885Y-70648014D01*
X129989266Y-70743252D01*
X129941647Y-70790871D01*
X129846409Y-70838490D01*
X129465457Y-70838490D01*
X130465457Y-70790871D02*
X130798790Y-70790871D01*
X130941647Y-71314680D02*
X130465457Y-71314680D01*
X130465457Y-70314680D01*
X130941647Y-70314680D01*
X131227361Y-70314680D02*
X131560695Y-71314680D01*
X131894028Y-70314680D01*
X173105380Y-95837333D02*
X173819666Y-95837333D01*
X173962523Y-95884952D01*
X174057761Y-95980190D01*
X174105380Y-96123047D01*
X174105380Y-96218285D01*
X173200619Y-95408761D02*
X173153000Y-95361142D01*
X173105380Y-95265904D01*
X173105380Y-95027809D01*
X173153000Y-94932571D01*
X173200619Y-94884952D01*
X173295857Y-94837333D01*
X173391095Y-94837333D01*
X173533952Y-94884952D01*
X174105380Y-95456380D01*
X174105380Y-94837333D01*
X155745380Y-96670666D02*
X156459666Y-96670666D01*
X156602523Y-96718285D01*
X156697761Y-96813523D01*
X156745380Y-96956380D01*
X156745380Y-97051619D01*
X155745380Y-96337333D02*
X155745380Y-95765904D01*
X156745380Y-96051619D02*
X155745380Y-96051619D01*
X156459666Y-95480190D02*
X156459666Y-95004000D01*
X156745380Y-95575428D02*
X155745380Y-95242095D01*
X156745380Y-94908761D01*
X155793000Y-94051619D02*
X155745380Y-94146857D01*
X155745380Y-94289714D01*
X155793000Y-94432571D01*
X155888238Y-94527809D01*
X155983476Y-94575428D01*
X156173952Y-94623047D01*
X156316809Y-94623047D01*
X156507285Y-94575428D01*
X156602523Y-94527809D01*
X156697761Y-94432571D01*
X156745380Y-94289714D01*
X156745380Y-94194476D01*
X156697761Y-94051619D01*
X156650142Y-94004000D01*
X156316809Y-94004000D01*
X156316809Y-94194476D01*
X139037791Y-118525287D02*
X139610211Y-119097707D01*
X139711226Y-119131379D01*
X139778570Y-119131379D01*
X139879585Y-119097707D01*
X140014272Y-118963020D01*
X140047944Y-118862005D01*
X140047944Y-118794661D01*
X140014272Y-118693646D01*
X139441852Y-118121226D01*
X140856066Y-118121226D02*
X140452005Y-118525287D01*
X140654035Y-118323257D02*
X139946929Y-117616150D01*
X139980600Y-117784509D01*
X139980600Y-117919196D01*
X139946929Y-118020211D01*
X118832380Y-83819904D02*
X119641904Y-83819904D01*
X119737142Y-83772285D01*
X119784761Y-83724666D01*
X119832380Y-83629428D01*
X119832380Y-83438952D01*
X119784761Y-83343714D01*
X119737142Y-83296095D01*
X119641904Y-83248476D01*
X118832380Y-83248476D01*
X118927619Y-82819904D02*
X118880000Y-82772285D01*
X118832380Y-82677047D01*
X118832380Y-82438952D01*
X118880000Y-82343714D01*
X118927619Y-82296095D01*
X119022857Y-82248476D01*
X119118095Y-82248476D01*
X119260952Y-82296095D01*
X119832380Y-82867523D01*
X119832380Y-82248476D01*
X134850952Y-83224666D02*
X135327142Y-83224666D01*
X134755714Y-83510380D02*
X135089047Y-82510380D01*
X135422380Y-83510380D01*
X135755714Y-83510380D02*
X135755714Y-82843714D01*
X135755714Y-83034190D02*
X135803333Y-82938952D01*
X135850952Y-82891333D01*
X135946190Y-82843714D01*
X136041428Y-82843714D01*
X136803333Y-83510380D02*
X136803333Y-82510380D01*
X136803333Y-83462761D02*
X136708095Y-83510380D01*
X136517619Y-83510380D01*
X136422380Y-83462761D01*
X136374761Y-83415142D01*
X136327142Y-83319904D01*
X136327142Y-83034190D01*
X136374761Y-82938952D01*
X136422380Y-82891333D01*
X136517619Y-82843714D01*
X136708095Y-82843714D01*
X136803333Y-82891333D01*
X137708095Y-82843714D02*
X137708095Y-83510380D01*
X137279523Y-82843714D02*
X137279523Y-83367523D01*
X137327142Y-83462761D01*
X137422380Y-83510380D01*
X137565238Y-83510380D01*
X137660476Y-83462761D01*
X137708095Y-83415142D01*
X138184285Y-83510380D02*
X138184285Y-82843714D01*
X138184285Y-82510380D02*
X138136666Y-82558000D01*
X138184285Y-82605619D01*
X138231904Y-82558000D01*
X138184285Y-82510380D01*
X138184285Y-82605619D01*
X138660476Y-82843714D02*
X138660476Y-83510380D01*
X138660476Y-82938952D02*
X138708095Y-82891333D01*
X138803333Y-82843714D01*
X138946190Y-82843714D01*
X139041428Y-82891333D01*
X139089047Y-82986571D01*
X139089047Y-83510380D01*
X139708095Y-83510380D02*
X139612857Y-83462761D01*
X139565238Y-83415142D01*
X139517619Y-83319904D01*
X139517619Y-83034190D01*
X139565238Y-82938952D01*
X139612857Y-82891333D01*
X139708095Y-82843714D01*
X139850952Y-82843714D01*
X139946190Y-82891333D01*
X139993809Y-82938952D01*
X140041428Y-83034190D01*
X140041428Y-83319904D01*
X139993809Y-83415142D01*
X139946190Y-83462761D01*
X139850952Y-83510380D01*
X139708095Y-83510380D01*
X141231904Y-83510380D02*
X141231904Y-82510380D01*
X141612857Y-82510380D01*
X141708095Y-82558000D01*
X141755714Y-82605619D01*
X141803333Y-82700857D01*
X141803333Y-82843714D01*
X141755714Y-82938952D01*
X141708095Y-82986571D01*
X141612857Y-83034190D01*
X141231904Y-83034190D01*
X142231904Y-83510380D02*
X142231904Y-82843714D01*
X142231904Y-83034190D02*
X142279523Y-82938952D01*
X142327142Y-82891333D01*
X142422380Y-82843714D01*
X142517619Y-82843714D01*
X142993809Y-83510380D02*
X142898571Y-83462761D01*
X142850952Y-83415142D01*
X142803333Y-83319904D01*
X142803333Y-83034190D01*
X142850952Y-82938952D01*
X142898571Y-82891333D01*
X142993809Y-82843714D01*
X143136666Y-82843714D01*
X143231904Y-82891333D01*
X143279523Y-82938952D01*
X143327142Y-83034190D01*
X143327142Y-83319904D01*
X143279523Y-83415142D01*
X143231904Y-83462761D01*
X143136666Y-83510380D01*
X142993809Y-83510380D01*
X144517619Y-83510380D02*
X144517619Y-82510380D01*
X144850952Y-83224666D01*
X145184285Y-82510380D01*
X145184285Y-83510380D01*
X145660476Y-83510380D02*
X145660476Y-82843714D01*
X145660476Y-82510380D02*
X145612857Y-82558000D01*
X145660476Y-82605619D01*
X145708095Y-82558000D01*
X145660476Y-82510380D01*
X145660476Y-82605619D01*
X146136666Y-82843714D02*
X146136666Y-83510380D01*
X146136666Y-82938952D02*
X146184285Y-82891333D01*
X146279523Y-82843714D01*
X146422380Y-82843714D01*
X146517619Y-82891333D01*
X146565238Y-82986571D01*
X146565238Y-83510380D01*
X147041428Y-83510380D02*
X147041428Y-82843714D01*
X147041428Y-82510380D02*
X146993809Y-82558000D01*
X147041428Y-82605619D01*
X147089047Y-82558000D01*
X147041428Y-82510380D01*
X147041428Y-82605619D01*
X172045333Y-73604380D02*
X171712000Y-73128190D01*
X171473904Y-73604380D02*
X171473904Y-72604380D01*
X171854857Y-72604380D01*
X171950095Y-72652000D01*
X171997714Y-72699619D01*
X172045333Y-72794857D01*
X172045333Y-72937714D01*
X171997714Y-73032952D01*
X171950095Y-73080571D01*
X171854857Y-73128190D01*
X171473904Y-73128190D01*
X172426285Y-72699619D02*
X172473904Y-72652000D01*
X172569142Y-72604380D01*
X172807238Y-72604380D01*
X172902476Y-72652000D01*
X172950095Y-72699619D01*
X172997714Y-72794857D01*
X172997714Y-72890095D01*
X172950095Y-73032952D01*
X172378666Y-73604380D01*
X172997714Y-73604380D01*
X125715733Y-73197980D02*
X125382400Y-72721790D01*
X125144304Y-73197980D02*
X125144304Y-72197980D01*
X125525257Y-72197980D01*
X125620495Y-72245600D01*
X125668114Y-72293219D01*
X125715733Y-72388457D01*
X125715733Y-72531314D01*
X125668114Y-72626552D01*
X125620495Y-72674171D01*
X125525257Y-72721790D01*
X125144304Y-72721790D01*
X126049066Y-72197980D02*
X126668114Y-72197980D01*
X126334780Y-72578933D01*
X126477638Y-72578933D01*
X126572876Y-72626552D01*
X126620495Y-72674171D01*
X126668114Y-72769409D01*
X126668114Y-73007504D01*
X126620495Y-73102742D01*
X126572876Y-73150361D01*
X126477638Y-73197980D01*
X126191923Y-73197980D01*
X126096685Y-73150361D01*
X126049066Y-73102742D01*
X157400666Y-74846380D02*
X157400666Y-75560666D01*
X157353047Y-75703523D01*
X157257809Y-75798761D01*
X157114952Y-75846380D01*
X157019714Y-75846380D01*
X158353047Y-74846380D02*
X157876857Y-74846380D01*
X157829238Y-75322571D01*
X157876857Y-75274952D01*
X157972095Y-75227333D01*
X158210190Y-75227333D01*
X158305428Y-75274952D01*
X158353047Y-75322571D01*
X158400666Y-75417809D01*
X158400666Y-75655904D01*
X158353047Y-75751142D01*
X158305428Y-75798761D01*
X158210190Y-75846380D01*
X157972095Y-75846380D01*
X157876857Y-75798761D01*
X157829238Y-75751142D01*
X167338761Y-84732761D02*
X167481619Y-84780380D01*
X167719714Y-84780380D01*
X167814952Y-84732761D01*
X167862571Y-84685142D01*
X167910190Y-84589904D01*
X167910190Y-84494666D01*
X167862571Y-84399428D01*
X167814952Y-84351809D01*
X167719714Y-84304190D01*
X167529238Y-84256571D01*
X167434000Y-84208952D01*
X167386380Y-84161333D01*
X167338761Y-84066095D01*
X167338761Y-83970857D01*
X167386380Y-83875619D01*
X167434000Y-83828000D01*
X167529238Y-83780380D01*
X167767333Y-83780380D01*
X167910190Y-83828000D01*
X168338761Y-84780380D02*
X168338761Y-83780380D01*
X168576857Y-83780380D01*
X168719714Y-83828000D01*
X168814952Y-83923238D01*
X168862571Y-84018476D01*
X168910190Y-84208952D01*
X168910190Y-84351809D01*
X168862571Y-84542285D01*
X168814952Y-84637523D01*
X168719714Y-84732761D01*
X168576857Y-84780380D01*
X168338761Y-84780380D01*
X170672095Y-84685142D02*
X170624476Y-84732761D01*
X170481619Y-84780380D01*
X170386380Y-84780380D01*
X170243523Y-84732761D01*
X170148285Y-84637523D01*
X170100666Y-84542285D01*
X170053047Y-84351809D01*
X170053047Y-84208952D01*
X170100666Y-84018476D01*
X170148285Y-83923238D01*
X170243523Y-83828000D01*
X170386380Y-83780380D01*
X170481619Y-83780380D01*
X170624476Y-83828000D01*
X170672095Y-83875619D01*
X171053047Y-84494666D02*
X171529238Y-84494666D01*
X170957809Y-84780380D02*
X171291142Y-83780380D01*
X171624476Y-84780380D01*
X172529238Y-84780380D02*
X172195904Y-84304190D01*
X171957809Y-84780380D02*
X171957809Y-83780380D01*
X172338761Y-83780380D01*
X172434000Y-83828000D01*
X172481619Y-83875619D01*
X172529238Y-83970857D01*
X172529238Y-84113714D01*
X172481619Y-84208952D01*
X172434000Y-84256571D01*
X172338761Y-84304190D01*
X171957809Y-84304190D01*
X172957809Y-84780380D02*
X172957809Y-83780380D01*
X173195904Y-83780380D01*
X173338761Y-83828000D01*
X173434000Y-83923238D01*
X173481619Y-84018476D01*
X173529238Y-84208952D01*
X173529238Y-84351809D01*
X173481619Y-84542285D01*
X173434000Y-84637523D01*
X173338761Y-84732761D01*
X173195904Y-84780380D01*
X172957809Y-84780380D01*
X163917333Y-75744342D02*
X163869714Y-75791961D01*
X163726857Y-75839580D01*
X163631619Y-75839580D01*
X163488761Y-75791961D01*
X163393523Y-75696723D01*
X163345904Y-75601485D01*
X163298285Y-75411009D01*
X163298285Y-75268152D01*
X163345904Y-75077676D01*
X163393523Y-74982438D01*
X163488761Y-74887200D01*
X163631619Y-74839580D01*
X163726857Y-74839580D01*
X163869714Y-74887200D01*
X163917333Y-74934819D01*
X164822095Y-74839580D02*
X164345904Y-74839580D01*
X164298285Y-75315771D01*
X164345904Y-75268152D01*
X164441142Y-75220533D01*
X164679238Y-75220533D01*
X164774476Y-75268152D01*
X164822095Y-75315771D01*
X164869714Y-75411009D01*
X164869714Y-75649104D01*
X164822095Y-75744342D01*
X164774476Y-75791961D01*
X164679238Y-75839580D01*
X164441142Y-75839580D01*
X164345904Y-75791961D01*
X164298285Y-75744342D01*
X126166666Y-96331380D02*
X126166666Y-97045666D01*
X126119047Y-97188523D01*
X126023809Y-97283761D01*
X125880952Y-97331380D01*
X125785714Y-97331380D01*
X126642857Y-97331380D02*
X126642857Y-96331380D01*
X127023809Y-96331380D01*
X127119047Y-96379000D01*
X127166666Y-96426619D01*
X127214285Y-96521857D01*
X127214285Y-96664714D01*
X127166666Y-96759952D01*
X127119047Y-96807571D01*
X127023809Y-96855190D01*
X126642857Y-96855190D01*
X127595238Y-96426619D02*
X127642857Y-96379000D01*
X127738095Y-96331380D01*
X127976190Y-96331380D01*
X128071428Y-96379000D01*
X128119047Y-96426619D01*
X128166666Y-96521857D01*
X128166666Y-96617095D01*
X128119047Y-96759952D01*
X127547619Y-97331380D01*
X128166666Y-97331380D01*
X124685714Y-99131380D02*
X124114285Y-99131380D01*
X124400000Y-99131380D02*
X124400000Y-98131380D01*
X124304761Y-98274238D01*
X124209523Y-98369476D01*
X124114285Y-98417095D01*
X129266666Y-98131380D02*
X129885714Y-98131380D01*
X129552380Y-98512333D01*
X129695238Y-98512333D01*
X129790476Y-98559952D01*
X129838095Y-98607571D01*
X129885714Y-98702809D01*
X129885714Y-98940904D01*
X129838095Y-99036142D01*
X129790476Y-99083761D01*
X129695238Y-99131380D01*
X129409523Y-99131380D01*
X129314285Y-99083761D01*
X129266666Y-99036142D01*
X136796380Y-65484333D02*
X137510666Y-65484333D01*
X137653523Y-65531952D01*
X137748761Y-65627190D01*
X137796380Y-65770047D01*
X137796380Y-65865285D01*
X137796380Y-64484333D02*
X137796380Y-65055761D01*
X137796380Y-64770047D02*
X136796380Y-64770047D01*
X136939238Y-64865285D01*
X137034476Y-64960523D01*
X137082095Y-65055761D01*
X159236380Y-67008142D02*
X159236380Y-66436714D01*
X160236380Y-66722428D02*
X159236380Y-66722428D01*
X160141142Y-65531952D02*
X160188761Y-65579571D01*
X160236380Y-65722428D01*
X160236380Y-65817666D01*
X160188761Y-65960523D01*
X160093523Y-66055761D01*
X159998285Y-66103380D01*
X159807809Y-66151000D01*
X159664952Y-66151000D01*
X159474476Y-66103380D01*
X159379238Y-66055761D01*
X159284000Y-65960523D01*
X159236380Y-65817666D01*
X159236380Y-65722428D01*
X159284000Y-65579571D01*
X159331619Y-65531952D01*
X159712571Y-64770047D02*
X159760190Y-64627190D01*
X159807809Y-64579571D01*
X159903047Y-64531952D01*
X160045904Y-64531952D01*
X160141142Y-64579571D01*
X160188761Y-64627190D01*
X160236380Y-64722428D01*
X160236380Y-65103380D01*
X159236380Y-65103380D01*
X159236380Y-64770047D01*
X159284000Y-64674809D01*
X159331619Y-64627190D01*
X159426857Y-64579571D01*
X159522095Y-64579571D01*
X159617333Y-64627190D01*
X159664952Y-64674809D01*
X159712571Y-64770047D01*
X159712571Y-65103380D01*
X160236380Y-64103380D02*
X159236380Y-64103380D01*
X159950666Y-63770047D01*
X159236380Y-63436714D01*
X160236380Y-63436714D01*
X165455695Y-103490780D02*
X165455695Y-104300304D01*
X165503314Y-104395542D01*
X165550933Y-104443161D01*
X165646171Y-104490780D01*
X165836647Y-104490780D01*
X165931885Y-104443161D01*
X165979504Y-104395542D01*
X166027123Y-104300304D01*
X166027123Y-103490780D01*
X166931885Y-103824114D02*
X166931885Y-104490780D01*
X166693790Y-103443161D02*
X166455695Y-104157447D01*
X167074742Y-104157447D01*
X155662333Y-73604380D02*
X155329000Y-73128190D01*
X155090904Y-73604380D02*
X155090904Y-72604380D01*
X155471857Y-72604380D01*
X155567095Y-72652000D01*
X155614714Y-72699619D01*
X155662333Y-72794857D01*
X155662333Y-72937714D01*
X155614714Y-73032952D01*
X155567095Y-73080571D01*
X155471857Y-73128190D01*
X155090904Y-73128190D01*
X156614714Y-73604380D02*
X156043285Y-73604380D01*
X156329000Y-73604380D02*
X156329000Y-72604380D01*
X156233761Y-72747238D01*
X156138523Y-72842476D01*
X156043285Y-72890095D01*
X137847626Y-116493328D02*
X137847626Y-116560671D01*
X137780282Y-116695358D01*
X137712939Y-116762702D01*
X137578251Y-116830045D01*
X137443564Y-116830045D01*
X137342549Y-116796374D01*
X137174190Y-116695358D01*
X137073175Y-116594343D01*
X136972160Y-116425984D01*
X136938488Y-116324969D01*
X136938488Y-116190282D01*
X137005832Y-116055595D01*
X137073175Y-115988251D01*
X137207862Y-115920908D01*
X137275206Y-115920908D01*
X138588404Y-115887236D02*
X138184343Y-116291297D01*
X138386374Y-116089267D02*
X137679267Y-115382160D01*
X137712939Y-115550519D01*
X137712939Y-115685206D01*
X137679267Y-115786221D01*
D10*
X124515000Y-137587000D02*
X128600000Y-137587000D01*
X124515000Y-135717000D02*
X124515000Y-137587000D01*
X128600000Y-135717000D02*
X124515000Y-135717000D01*
X125440000Y-121812000D02*
X131450000Y-121812000D01*
X131450000Y-121812000D02*
X131450000Y-123072000D01*
X131450000Y-128632000D02*
X131450000Y-127372000D01*
X127690000Y-128632000D02*
X131450000Y-128632000D01*
X124950000Y-103743000D02*
X124950000Y-101743000D01*
X124950000Y-101743000D02*
X129050000Y-101743000D01*
X129050000Y-103743000D02*
X124950000Y-103743000D01*
X129050000Y-101743000D02*
X129050000Y-103743000D01*
X153462010Y-131502543D02*
X153092543Y-131872010D01*
X154501457Y-132541990D02*
X154131990Y-132911457D01*
X173862600Y-59788300D02*
X173862600Y-63688300D01*
X166142600Y-59788300D02*
X166142600Y-63688300D01*
X166752600Y-63488300D02*
X166752600Y-67988300D01*
X166662600Y-63458300D02*
X166662600Y-63688300D01*
X168302600Y-63458300D02*
X171702600Y-63458300D01*
X166662600Y-66288300D02*
X166662600Y-66798300D01*
X166142600Y-59788300D02*
X173862600Y-59788300D01*
X172802600Y-63458300D02*
X173342600Y-63458300D01*
X173342600Y-66288300D02*
X173342600Y-66798300D01*
X166142600Y-66798300D02*
X166662600Y-66798300D01*
X170752600Y-62238300D02*
X169252600Y-62238300D01*
X166142600Y-66288300D02*
X166142600Y-66798300D01*
X173252600Y-67988300D02*
X173252600Y-63488300D01*
X173862600Y-66288300D02*
X173862600Y-66798300D01*
X173342600Y-66798300D02*
X173862600Y-66798300D01*
X166662600Y-63458300D02*
X167202600Y-63458300D01*
X173342600Y-63458300D02*
X173342600Y-63688300D01*
X169252600Y-69238300D02*
X170752600Y-69238300D01*
X154501457Y-114600010D02*
X154131990Y-114230543D01*
X153462010Y-115639457D02*
X153092543Y-115269990D01*
X129050000Y-107807000D02*
X124950000Y-107807000D01*
X124950000Y-107807000D02*
X124950000Y-105807000D01*
X124950000Y-105807000D02*
X129050000Y-105807000D01*
X129050000Y-105807000D02*
X129050000Y-107807000D01*
X137798000Y-97679000D02*
X137798000Y-99679000D01*
X137798000Y-99679000D02*
X134998000Y-99679000D01*
X134998000Y-97679000D02*
X137798000Y-97679000D01*
X134998000Y-99679000D02*
X134998000Y-97679000D01*
D11*
X166142400Y-81571600D02*
X165842400Y-81571600D01*
X165842400Y-81571600D02*
X165842400Y-81871600D01*
X179242400Y-76571600D02*
X176242400Y-76571600D01*
X178942400Y-80321600D02*
X179242400Y-79271600D01*
X178592400Y-82571600D02*
X178742400Y-81421600D01*
X178542400Y-83921600D02*
X178592400Y-82571600D01*
X179242400Y-79271600D02*
X179242400Y-76571600D01*
X176242400Y-91271600D02*
X178542400Y-91271600D01*
X165242400Y-81121600D02*
X165242400Y-78121600D01*
X178542400Y-91271600D02*
X178542400Y-83921600D01*
X173442400Y-91271600D02*
X166242400Y-91271600D01*
X166142400Y-81871600D02*
X166142400Y-81571600D01*
X178742400Y-81421600D02*
X178942400Y-80321600D01*
X166242400Y-76571600D02*
X173442400Y-76571600D01*
X165242400Y-81121600D02*
X163942400Y-81121600D01*
X165842400Y-81871600D02*
X166142400Y-81871600D01*
D10*
X124348000Y-134681300D02*
X123018000Y-134681300D01*
X130758000Y-134681300D02*
X130758000Y-132021300D01*
X125618000Y-134681300D02*
X130758000Y-134681300D01*
X123018000Y-134681300D02*
X123018000Y-133351300D01*
X125618000Y-132021300D02*
X130758000Y-132021300D01*
X125618000Y-134681300D02*
X125618000Y-132021300D01*
X124506000Y-126818000D02*
X124506000Y-122733000D01*
X122636000Y-126818000D02*
X124506000Y-126818000D01*
X122636000Y-122733000D02*
X122636000Y-126818000D01*
X136859990Y-131502543D02*
X137229457Y-131872010D01*
X135820543Y-132541990D02*
X136190010Y-132911457D01*
X126900600Y-63458300D02*
X130300600Y-63458300D01*
X132460600Y-59788300D02*
X132460600Y-63688300D01*
X131940600Y-66288300D02*
X131940600Y-66798300D01*
X131400600Y-63458300D02*
X131940600Y-63458300D01*
X131850600Y-67988300D02*
X131850600Y-63488300D01*
X124740600Y-59788300D02*
X124740600Y-63688300D01*
X127850600Y-69238300D02*
X129350600Y-69238300D01*
X124740600Y-59788300D02*
X132460600Y-59788300D01*
X132460600Y-66288300D02*
X132460600Y-66798300D01*
X125260600Y-63458300D02*
X125800600Y-63458300D01*
X131940600Y-66798300D02*
X132460600Y-66798300D01*
X129350600Y-62238300D02*
X127850600Y-62238300D01*
X124740600Y-66288300D02*
X124740600Y-66798300D01*
X125260600Y-66288300D02*
X125260600Y-66798300D01*
X125350600Y-63488300D02*
X125350600Y-67988300D01*
X124740600Y-66798300D02*
X125260600Y-66798300D01*
X125260600Y-63458300D02*
X125260600Y-63688300D01*
X131940600Y-63458300D02*
X131940600Y-63688300D01*
X170053000Y-94174000D02*
X157293000Y-94174000D01*
X157293000Y-94174000D02*
X157293000Y-96834000D01*
X170053000Y-94174000D02*
X170053000Y-96834000D01*
X172653000Y-94174000D02*
X172653000Y-95504000D01*
X171323000Y-94174000D02*
X172653000Y-94174000D01*
X170053000Y-96834000D02*
X157293000Y-96834000D01*
X151715880Y-124242751D02*
X152387631Y-123571000D01*
X152387631Y-123571000D02*
X151715880Y-122899249D01*
X138606120Y-124242751D02*
X137693952Y-125154919D01*
X145161000Y-116344369D02*
X145832751Y-117016120D01*
X138606120Y-122899249D02*
X137934369Y-123571000D01*
X144489249Y-117016120D02*
X145161000Y-116344369D01*
X145161000Y-130797631D02*
X144489249Y-130125880D01*
X137934369Y-123571000D02*
X138606120Y-124242751D01*
X145832751Y-130125880D02*
X145161000Y-130797631D01*
X120523000Y-74041000D02*
X120523000Y-92075000D01*
X123190000Y-89408000D02*
X123190000Y-92075000D01*
X125730000Y-89408000D02*
X123190000Y-89408000D01*
X153797000Y-92075000D02*
X153797000Y-74038000D01*
X123190000Y-76708000D02*
X123190000Y-74038000D01*
X125730000Y-89408000D02*
X153797000Y-89408000D01*
X123190000Y-76708000D02*
X153797000Y-76708000D01*
X125730000Y-89408000D02*
X125730000Y-92075000D01*
X153797000Y-74041000D02*
X120523000Y-74041000D01*
X125730000Y-92075000D02*
X153797000Y-92075000D01*
X120523000Y-92075000D02*
X123190000Y-92075000D01*
X151070000Y-76648000D02*
X152400000Y-76648000D01*
X151070000Y-84388000D02*
X153730000Y-84388000D01*
X151070000Y-77978000D02*
X151070000Y-76648000D01*
X151070000Y-79248000D02*
X153730000Y-79248000D01*
X153730000Y-79248000D02*
X153730000Y-84388000D01*
X151070000Y-79248000D02*
X151070000Y-84388000D01*
X169518064Y-73887000D02*
X169063936Y-73887000D01*
X169518064Y-72417000D02*
X169063936Y-72417000D01*
X129005064Y-71959800D02*
X128550936Y-71959800D01*
X129005064Y-73429800D02*
X128550936Y-73429800D01*
X156404000Y-78994000D02*
X156404000Y-91754000D01*
X156404000Y-77724000D02*
X156404000Y-76394000D01*
X156404000Y-78994000D02*
X159064000Y-78994000D01*
X159064000Y-78994000D02*
X159064000Y-91754000D01*
X156404000Y-76394000D02*
X157734000Y-76394000D01*
X156404000Y-91754000D02*
X159064000Y-91754000D01*
X165633200Y-72217000D02*
X161548200Y-72217000D01*
X161548200Y-72217000D02*
X161548200Y-74087000D01*
X161548200Y-74087000D02*
X165633200Y-74087000D01*
X124950000Y-97679000D02*
X129050000Y-97679000D01*
X129050000Y-99679000D02*
X124950000Y-99679000D01*
X124950000Y-99679000D02*
X124950000Y-97679000D01*
X129050000Y-97679000D02*
X129050000Y-99679000D01*
X158784000Y-67751000D02*
X158784000Y-62551000D01*
X138344000Y-62551000D02*
X158784000Y-62551000D01*
X138344000Y-65151000D02*
X138344000Y-62551000D01*
X140944000Y-67751000D02*
X158784000Y-67751000D01*
X140944000Y-65151000D02*
X138344000Y-65151000D01*
X139674000Y-67751000D02*
X138344000Y-67751000D01*
X140944000Y-67751000D02*
X140944000Y-65151000D01*
X138344000Y-67751000D02*
X138344000Y-66421000D01*
X157293000Y-99829000D02*
X157293000Y-135629000D01*
X159783000Y-135569000D02*
X172703000Y-135569000D01*
X175193000Y-99829000D02*
X157293000Y-99829000D01*
X175193000Y-135629000D02*
X175193000Y-99829000D01*
X172703000Y-135569000D02*
X172703000Y-99889000D01*
X157293000Y-135629000D02*
X175193000Y-135629000D01*
X159783000Y-99889000D02*
X159783000Y-135569000D01*
X165243000Y-99889000D02*
X159783000Y-99889000D01*
X172703000Y-99889000D02*
X167243000Y-99889000D01*
X165243000Y-99889000D02*
G75*
G03*
X167243000Y-99889000I1000000J0D01*
G01*
X158977064Y-72417000D02*
X158522936Y-72417000D01*
X158977064Y-73887000D02*
X158522936Y-73887000D01*
X137229457Y-115269990D02*
X136859990Y-115639457D01*
X136190010Y-114230543D02*
X135820543Y-114600010D01*
D14*
X153501100Y-102003600D02*
G75*
G03*
X153501100Y-102003600I-5000000J0D01*
G01*
%LPC*%
D15*
X125562500Y-136652000D03*
X128437500Y-136652000D03*
D16*
X126390000Y-122922000D03*
X126390000Y-125222000D03*
D17*
X132690000Y-125222000D03*
D16*
X126390000Y-127522000D03*
D18*
X125700000Y-102743000D03*
X127000000Y-102743000D03*
X128300000Y-102743000D03*
D19*
X154530623Y-131473377D03*
X153063377Y-132940623D03*
D20*
X173512600Y-64978300D03*
X166502600Y-64978300D03*
D21*
X167752600Y-62488300D03*
X167752600Y-68988300D03*
X172252600Y-62488300D03*
X172252600Y-68988300D03*
D22*
X154530623Y-115668623D03*
X153063377Y-114201377D03*
D18*
X125700000Y-106807000D03*
X127000000Y-106807000D03*
X128300000Y-106807000D03*
X135748000Y-98679000D03*
X137048000Y-98679000D03*
D23*
X164742400Y-81721600D03*
X164742400Y-82821600D03*
X164742400Y-83921600D03*
X164742400Y-85021600D03*
X164742400Y-86121600D03*
X164742400Y-87221600D03*
D24*
X165242400Y-77071600D03*
D25*
X165242400Y-91671600D03*
D26*
X174842400Y-91671600D03*
X174842400Y-76171600D03*
D23*
X164742400Y-88321600D03*
X164742400Y-89421600D03*
X164742400Y-90521600D03*
D27*
X124348000Y-133351300D03*
D28*
X126888000Y-133351300D03*
X129428000Y-133351300D03*
D29*
X123571000Y-125770500D03*
X123571000Y-122895500D03*
D30*
X135791377Y-131473377D03*
X137258623Y-132940623D03*
D20*
X125100600Y-64978300D03*
X132110600Y-64978300D03*
D21*
X126350600Y-62488300D03*
X126350600Y-68988300D03*
X130850600Y-68988300D03*
X130850600Y-62488300D03*
D27*
X171323000Y-95504000D03*
D28*
X168783000Y-95504000D03*
X166243000Y-95504000D03*
X163703000Y-95504000D03*
X161163000Y-95504000D03*
X158623000Y-95504000D03*
D31*
X138505357Y-124923342D03*
X138858911Y-125276895D03*
X139212464Y-125630449D03*
X139566018Y-125984002D03*
X139919571Y-126337555D03*
X140273124Y-126691109D03*
X140626678Y-127044662D03*
X140980231Y-127398215D03*
X141333785Y-127751769D03*
X141687338Y-128105322D03*
X142040891Y-128458876D03*
X142394445Y-128812429D03*
X142747998Y-129165982D03*
X143101551Y-129519536D03*
X143455105Y-129873089D03*
X143808658Y-130226643D03*
D32*
X146513342Y-130226643D03*
X146866895Y-129873089D03*
X147220449Y-129519536D03*
X147574002Y-129165982D03*
X147927555Y-128812429D03*
X148281109Y-128458876D03*
X148634662Y-128105322D03*
X148988215Y-127751769D03*
X149341769Y-127398215D03*
X149695322Y-127044662D03*
X150048876Y-126691109D03*
X150402429Y-126337555D03*
X150755982Y-125984002D03*
X151109536Y-125630449D03*
X151463089Y-125276895D03*
X151816643Y-124923342D03*
D31*
X151816643Y-122218658D03*
X151463089Y-121865105D03*
X151109536Y-121511551D03*
X150755982Y-121157998D03*
X150402429Y-120804445D03*
X150048876Y-120450891D03*
X149695322Y-120097338D03*
X149341769Y-119743785D03*
X148988215Y-119390231D03*
X148634662Y-119036678D03*
X148281109Y-118683124D03*
X147927555Y-118329571D03*
X147574002Y-117976018D03*
X147220449Y-117622464D03*
X146866895Y-117268911D03*
X146513342Y-116915357D03*
D32*
X143808658Y-116915357D03*
X143455105Y-117268911D03*
X143101551Y-117622464D03*
X142747998Y-117976018D03*
X142394445Y-118329571D03*
X142040891Y-118683124D03*
X141687338Y-119036678D03*
X141333785Y-119390231D03*
X140980231Y-119743785D03*
X140626678Y-120097338D03*
X140273124Y-120450891D03*
X139919571Y-120804445D03*
X139566018Y-121157998D03*
X139212464Y-121511551D03*
X138858911Y-121865105D03*
X138505357Y-122218658D03*
D33*
X124460000Y-90678000D03*
D34*
X127000000Y-90678000D03*
X129540000Y-90678000D03*
X132080000Y-90678000D03*
X134620000Y-90678000D03*
X137160000Y-90678000D03*
X139700000Y-90678000D03*
X142240000Y-90678000D03*
X144780000Y-90678000D03*
X147320000Y-90678000D03*
X149860000Y-90678000D03*
X152400000Y-90678000D03*
X152400000Y-75438000D03*
X149860000Y-75438000D03*
X147320000Y-75438000D03*
X144780000Y-75438000D03*
X142240000Y-75438000D03*
X139700000Y-75438000D03*
X137160000Y-75438000D03*
X134620000Y-75438000D03*
X132080000Y-75438000D03*
X129540000Y-75438000D03*
X127000000Y-75438000D03*
X124460000Y-75438000D03*
X135890000Y-77978000D03*
X133350000Y-77978000D03*
X146050000Y-77978000D03*
X143510000Y-77978000D03*
D27*
X152400000Y-77978000D03*
D28*
X152400000Y-80518000D03*
X152400000Y-83058000D03*
D35*
X170291000Y-73152000D03*
X168291000Y-73152000D03*
X129778000Y-72694800D03*
X127778000Y-72694800D03*
D27*
X157734000Y-77724000D03*
D28*
X157734000Y-80264000D03*
X157734000Y-82804000D03*
X157734000Y-85344000D03*
X157734000Y-87884000D03*
X157734000Y-90424000D03*
D15*
X162595700Y-73152000D03*
X165470700Y-73152000D03*
D18*
X125700000Y-98679000D03*
X127000000Y-98679000D03*
X128300000Y-98679000D03*
D27*
X139674000Y-66421000D03*
D28*
X139674000Y-63881000D03*
X142214000Y-66421000D03*
X142214000Y-63881000D03*
X144754000Y-66421000D03*
X144754000Y-63881000D03*
X147294000Y-66421000D03*
X147294000Y-63881000D03*
X149834000Y-66421000D03*
X149834000Y-63881000D03*
X152374000Y-66421000D03*
X152374000Y-63881000D03*
X154914000Y-66421000D03*
X154914000Y-63881000D03*
X157454000Y-66421000D03*
X157454000Y-63881000D03*
D33*
X158623000Y-101219000D03*
D34*
X158623000Y-103759000D03*
X158623000Y-106299000D03*
X158623000Y-108839000D03*
X158623000Y-111379000D03*
X158623000Y-113919000D03*
X158623000Y-116459000D03*
X158623000Y-118999000D03*
X158623000Y-121539000D03*
X158623000Y-124079000D03*
X158623000Y-126619000D03*
X158623000Y-129159000D03*
X158623000Y-131699000D03*
X158623000Y-134239000D03*
X173863000Y-134239000D03*
X173863000Y-131699000D03*
X173863000Y-129159000D03*
X173863000Y-126619000D03*
X173863000Y-124079000D03*
X173863000Y-121539000D03*
X173863000Y-118999000D03*
X173863000Y-116459000D03*
X173863000Y-113919000D03*
X173863000Y-111379000D03*
X173863000Y-108839000D03*
X173863000Y-106299000D03*
X173863000Y-103759000D03*
X173863000Y-101219000D03*
D35*
X159750000Y-73152000D03*
X157750000Y-73152000D03*
D19*
X137258623Y-114201377D03*
X135791377Y-115668623D03*
D36*
X148501100Y-102003600D03*
D37*
X124501100Y-145503600D03*
X126501100Y-145503600D03*
X128501100Y-145503600D03*
X130501100Y-145503600D03*
X132501100Y-145503600D03*
X134501100Y-145503600D03*
X136501100Y-145503600D03*
X138501100Y-145503600D03*
X140501100Y-145503600D03*
X142501100Y-145503600D03*
X144501100Y-145503600D03*
X146501100Y-145503600D03*
X148501100Y-145503600D03*
X150501100Y-145503600D03*
X152501100Y-145503600D03*
X154501100Y-145503600D03*
X156501100Y-145503600D03*
X158501100Y-145503600D03*
X160501100Y-145503600D03*
X162501100Y-145503600D03*
X164501100Y-145503600D03*
X166501100Y-145503600D03*
X168501100Y-145503600D03*
X170501100Y-145503600D03*
X172501100Y-145503600D03*
M02*
