%TF.GenerationSoftware,KiCad,Pcbnew,(6.0.11)*%
%TF.CreationDate,2024-07-24T19:14:16+02:00*%
%TF.ProjectId,tcbm2sd,7463626d-3273-4642-9e6b-696361645f70,1.1*%
%TF.SameCoordinates,Original*%
%TF.FileFunction,Drillmap*%
%TF.FilePolarity,Positive*%
%FSLAX45Y45*%
G04 Gerber Fmt 4.5, Leading zero omitted, Abs format (unit mm)*
G04 Created by KiCad (PCBNEW (6.0.11)) date 2024-07-24 19:14:16*
%MOMM*%
%LPD*%
G01*
G04 APERTURE LIST*
%ADD10C,0.200000*%
%ADD11C,0.040000*%
%ADD12C,0.080000*%
%ADD13C,0.100000*%
G04 APERTURE END LIST*
D10*
D11*
X12125590Y-11767510D02*
X12165590Y-11807510D01*
X12165590Y-11767510D02*
X12125590Y-11807510D01*
X12174030Y-10876830D02*
X12214030Y-10916830D01*
X12214030Y-10876830D02*
X12174030Y-10916830D01*
X12327850Y-14465360D02*
X12367850Y-14505360D01*
X12367850Y-14465360D02*
X12327850Y-14505360D01*
X12406730Y-6027590D02*
X12446730Y-6067590D01*
X12446730Y-6027590D02*
X12406730Y-6067590D01*
X12473930Y-7699640D02*
X12513930Y-7739640D01*
X12513930Y-7699640D02*
X12473930Y-7739640D01*
X12508640Y-11079560D02*
X12548640Y-11119560D01*
X12548640Y-11079560D02*
X12508640Y-11119560D01*
X12541520Y-13611230D02*
X12581520Y-13651230D01*
X12581520Y-13611230D02*
X12541520Y-13651230D01*
X12567640Y-6473330D02*
X12607640Y-6513330D01*
X12607640Y-6473330D02*
X12567640Y-6513330D01*
X12602500Y-7356830D02*
X12642500Y-7396830D01*
X12642500Y-7356830D02*
X12602500Y-7396830D01*
X12630570Y-13942490D02*
X12670570Y-13982490D01*
X12670570Y-13942490D02*
X12630570Y-13982490D01*
X12683660Y-11462780D02*
X12723660Y-11502780D01*
X12723660Y-11462780D02*
X12683660Y-11502780D01*
X12762420Y-13810337D02*
X12802420Y-13850337D01*
X12802420Y-13810337D02*
X12762420Y-13850337D01*
X12856780Y-11090490D02*
X12896780Y-11130490D01*
X12896780Y-11090490D02*
X12856780Y-11130490D01*
X12885810Y-10715820D02*
X12925810Y-10755820D01*
X12925810Y-10715820D02*
X12885810Y-10755820D01*
X12895950Y-10266060D02*
X12935950Y-10306060D01*
X12935950Y-10266060D02*
X12895950Y-10306060D01*
X12973900Y-9704960D02*
X13013900Y-9744960D01*
X13013900Y-9704960D02*
X12973900Y-9744960D01*
X12998630Y-9405020D02*
X13038630Y-9445020D01*
X13038630Y-9405020D02*
X12998630Y-9445020D01*
X13007950Y-9955090D02*
X13047950Y-9995090D01*
X13047950Y-9955090D02*
X13007950Y-9995090D01*
X13026720Y-10176250D02*
X13066720Y-10216250D01*
X13066720Y-10176250D02*
X13026720Y-10216250D01*
X13042750Y-7994500D02*
X13082750Y-8034500D01*
X13082750Y-7994500D02*
X13042750Y-8034500D01*
X13168100Y-10186030D02*
X13208100Y-10226030D01*
X13208100Y-10186030D02*
X13168100Y-10226030D01*
X13176650Y-9749300D02*
X13216650Y-9789300D01*
X13216650Y-9749300D02*
X13176650Y-9789300D01*
X13176940Y-10077510D02*
X13216940Y-10117510D01*
X13216940Y-10077510D02*
X13176940Y-10117510D01*
X13204220Y-7299690D02*
X13244220Y-7339690D01*
X13244220Y-7299690D02*
X13204220Y-7339690D01*
X13241940Y-13085420D02*
X13281940Y-13125420D01*
X13281940Y-13085420D02*
X13241940Y-13125420D01*
X13310330Y-13171790D02*
X13350330Y-13211790D01*
X13350330Y-13171790D02*
X13310330Y-13211790D01*
X13312400Y-13002460D02*
X13352400Y-13042460D01*
X13352400Y-13002460D02*
X13312400Y-13042460D01*
X13410920Y-11129600D02*
X13450920Y-11169600D01*
X13450920Y-11129600D02*
X13410920Y-11169600D01*
X13413030Y-12853770D02*
X13453030Y-12893770D01*
X13453030Y-12853770D02*
X13413030Y-12893770D01*
X13414000Y-13097010D02*
X13454000Y-13137010D01*
X13454000Y-13097010D02*
X13414000Y-13137010D01*
X13427130Y-8008890D02*
X13467130Y-8048890D01*
X13467130Y-8008890D02*
X13427130Y-8048890D01*
X13756270Y-7723070D02*
X13796270Y-7763070D01*
X13796270Y-7723070D02*
X13756270Y-7763070D01*
X13775900Y-13277250D02*
X13815900Y-13317250D01*
X13815900Y-13277250D02*
X13775900Y-13317250D01*
X13807380Y-10997590D02*
X13847380Y-11037590D01*
X13847380Y-10997590D02*
X13807380Y-11037590D01*
X13814890Y-11645820D02*
X13854890Y-11685820D01*
X13854890Y-11645820D02*
X13814890Y-11685820D01*
X13817710Y-11748220D02*
X13857710Y-11788220D01*
X13857710Y-11748220D02*
X13817710Y-11788220D01*
X13826450Y-11205630D02*
X13866450Y-11245630D01*
X13866450Y-11205630D02*
X13826450Y-11245630D01*
X13832010Y-12844560D02*
X13872010Y-12884560D01*
X13872010Y-12844560D02*
X13832010Y-12884560D01*
X13832010Y-13100900D02*
X13872010Y-13140900D01*
X13872010Y-13100900D02*
X13832010Y-13140900D01*
X13884070Y-13251140D02*
X13924070Y-13291140D01*
X13924070Y-13251140D02*
X13884070Y-13291140D01*
X13941620Y-12584360D02*
X13981620Y-12624360D01*
X13981620Y-12584360D02*
X13941620Y-12624360D01*
X13956580Y-11942780D02*
X13996580Y-11982780D01*
X13996580Y-11942780D02*
X13956580Y-11982780D01*
X13979920Y-11835340D02*
X14019920Y-11875340D01*
X14019920Y-11835340D02*
X13979920Y-11875340D01*
X14052020Y-11944180D02*
X14092020Y-11984180D01*
X14092020Y-11944180D02*
X14052020Y-11984180D01*
X14100830Y-12910040D02*
X14140830Y-12950040D01*
X14140830Y-12910040D02*
X14100830Y-12950040D01*
X14105530Y-12634260D02*
X14145530Y-12674260D01*
X14145530Y-12634260D02*
X14105530Y-12674260D01*
X14115790Y-11861590D02*
X14155790Y-11901590D01*
X14155790Y-11861590D02*
X14115790Y-11901590D01*
X14121430Y-12208240D02*
X14161430Y-12248240D01*
X14161430Y-12208240D02*
X14121430Y-12248240D01*
X14126150Y-11356810D02*
X14166150Y-11396810D01*
X14166150Y-11356810D02*
X14126150Y-11396810D01*
X14145950Y-12488960D02*
X14185950Y-12528960D01*
X14185950Y-12488960D02*
X14145950Y-12528960D01*
X14157760Y-12988080D02*
X14197760Y-13028080D01*
X14197760Y-12988080D02*
X14157760Y-13028080D01*
X14167010Y-11488420D02*
X14207010Y-11528420D01*
X14207010Y-11488420D02*
X14167010Y-11528420D01*
X14185660Y-11677420D02*
X14225660Y-11717420D01*
X14225660Y-11677420D02*
X14185660Y-11717420D01*
X14243600Y-11081700D02*
X14283600Y-11121700D01*
X14283600Y-11081700D02*
X14243600Y-11121700D01*
X14295930Y-12072560D02*
X14335930Y-12112560D01*
X14335930Y-12072560D02*
X14295930Y-12112560D01*
X14328840Y-11351840D02*
X14368840Y-11391840D01*
X14368840Y-11351840D02*
X14328840Y-11391840D01*
X14342760Y-13966890D02*
X14382760Y-14006890D01*
X14382760Y-13966890D02*
X14342760Y-14006890D01*
X14351820Y-10331100D02*
X14391820Y-10371100D01*
X14391820Y-10331100D02*
X14351820Y-10371100D01*
X14413830Y-13791870D02*
X14453830Y-13831870D01*
X14453830Y-13791870D02*
X14413830Y-13831870D01*
X14424170Y-11561600D02*
X14464170Y-11601600D01*
X14464170Y-11561600D02*
X14424170Y-11601600D01*
X14453910Y-11276340D02*
X14493910Y-11316340D01*
X14493910Y-11276340D02*
X14453910Y-11316340D01*
X14467070Y-7665150D02*
X14507070Y-7705150D01*
X14507070Y-7665150D02*
X14467070Y-7705150D01*
X14477240Y-13692940D02*
X14517240Y-13732940D01*
X14517240Y-13692940D02*
X14477240Y-13732940D01*
X14491220Y-11880760D02*
X14531220Y-11920760D01*
X14531220Y-11880760D02*
X14491220Y-11920760D01*
X14498220Y-13016310D02*
X14538220Y-13056310D01*
X14538220Y-13016310D02*
X14498220Y-13056310D01*
X14516720Y-7298530D02*
X14556720Y-7338530D01*
X14556720Y-7298530D02*
X14516720Y-7338530D01*
X14534030Y-12177640D02*
X14574030Y-12217640D01*
X14574030Y-12177640D02*
X14534030Y-12217640D01*
X14559480Y-12059180D02*
X14599480Y-12099180D01*
X14599480Y-12059180D02*
X14559480Y-12099180D01*
X14590450Y-9805300D02*
X14630450Y-9845300D01*
X14630450Y-9805300D02*
X14590450Y-9845300D01*
X14603750Y-9634700D02*
X14643750Y-9674700D01*
X14643750Y-9634700D02*
X14603750Y-9674700D01*
X14624360Y-10984120D02*
X14664360Y-11024120D01*
X14664360Y-10984120D02*
X14624360Y-11024120D01*
X14630200Y-13959310D02*
X14670200Y-13999310D01*
X14670200Y-13959310D02*
X14630200Y-13999310D01*
X14654280Y-11959620D02*
X14694280Y-11999620D01*
X14694280Y-11959620D02*
X14654280Y-11999620D01*
X14688750Y-12442080D02*
X14728750Y-12482080D01*
X14728750Y-12442080D02*
X14688750Y-12482080D01*
X14704630Y-9209570D02*
X14744630Y-9249570D01*
X14744630Y-9209570D02*
X14704630Y-9249570D01*
X14718050Y-12212400D02*
X14758050Y-12252400D01*
X14758050Y-12212400D02*
X14718050Y-12252400D01*
X14729970Y-13445830D02*
X14769970Y-13485830D01*
X14769970Y-13445830D02*
X14729970Y-13485830D01*
X14730250Y-7938000D02*
X14770250Y-7978000D01*
X14770250Y-7938000D02*
X14730250Y-7978000D01*
X14732920Y-10707070D02*
X14772920Y-10747070D01*
X14772920Y-10707070D02*
X14732920Y-10747070D01*
X14766980Y-13025070D02*
X14806980Y-13065070D01*
X14806980Y-13025070D02*
X14766980Y-13065070D01*
X14784650Y-12646340D02*
X14824650Y-12686340D01*
X14824650Y-12646340D02*
X14784650Y-12686340D01*
X14798990Y-13962580D02*
X14838990Y-14002580D01*
X14838990Y-13962580D02*
X14798990Y-14002580D01*
X14823210Y-12869590D02*
X14863210Y-12909590D01*
X14863210Y-12869590D02*
X14823210Y-12909590D01*
X14832170Y-7751280D02*
X14872170Y-7791280D01*
X14872170Y-7751280D02*
X14832170Y-7791280D01*
X14866400Y-11214740D02*
X14906400Y-11254740D01*
X14906400Y-11214740D02*
X14866400Y-11254740D01*
X14869230Y-13781120D02*
X14909230Y-13821120D01*
X14909230Y-13781120D02*
X14869230Y-13821120D01*
X14872210Y-11615850D02*
X14912210Y-11655850D01*
X14912210Y-11615850D02*
X14872210Y-11655850D01*
X14898720Y-11407110D02*
X14938720Y-11447110D01*
X14938720Y-11407110D02*
X14898720Y-11447110D01*
X14912490Y-12582030D02*
X14952490Y-12622030D01*
X14952490Y-12582030D02*
X14912490Y-12622030D01*
X14945570Y-10773330D02*
X14985570Y-10813330D01*
X14985570Y-10773330D02*
X14945570Y-10813330D01*
X14998290Y-12954460D02*
X15038290Y-12994460D01*
X15038290Y-12954460D02*
X14998290Y-12994460D01*
X15075990Y-13194930D02*
X15115990Y-13234930D01*
X15115990Y-13194930D02*
X15075990Y-13234930D01*
X15094020Y-13936110D02*
X15134020Y-13976110D01*
X15134020Y-13936110D02*
X15094020Y-13976110D01*
X15123960Y-12934890D02*
X15163960Y-12974890D01*
X15163960Y-12934890D02*
X15123960Y-12974890D01*
X15138790Y-13808200D02*
X15178790Y-13848200D01*
X15178790Y-13808200D02*
X15138790Y-13848200D01*
X15197630Y-9687240D02*
X15237630Y-9727240D01*
X15237630Y-9687240D02*
X15197630Y-9727240D01*
X15199410Y-12770030D02*
X15239410Y-12810030D01*
X15239410Y-12770030D02*
X15199410Y-12810030D01*
X15234840Y-10618030D02*
X15274840Y-10658030D01*
X15274840Y-10618030D02*
X15234840Y-10658030D01*
X15254170Y-8815180D02*
X15294170Y-8855180D01*
X15294170Y-8815180D02*
X15254170Y-8855180D01*
X15318290Y-12855890D02*
X15358290Y-12895890D01*
X15358290Y-12855890D02*
X15318290Y-12895890D01*
X15335280Y-12723350D02*
X15375280Y-12763350D01*
X15375280Y-12723350D02*
X15335280Y-12763350D01*
X15366300Y-10863350D02*
X15406300Y-10903350D01*
X15406300Y-10863350D02*
X15366300Y-10903350D01*
X15374280Y-12606940D02*
X15414280Y-12646940D01*
X15414280Y-12606940D02*
X15374280Y-12646940D01*
X15444650Y-10984590D02*
X15484650Y-11024590D01*
X15484650Y-10984590D02*
X15444650Y-11024590D01*
X15447160Y-11191140D02*
X15487160Y-11231140D01*
X15487160Y-11191140D02*
X15447160Y-11231140D01*
X15465800Y-9658290D02*
X15505800Y-9698290D01*
X15505800Y-9658290D02*
X15465800Y-9698290D01*
X15469970Y-12551420D02*
X15509970Y-12591420D01*
X15509970Y-12551420D02*
X15469970Y-12591420D01*
X15508150Y-9852350D02*
X15548150Y-9892350D01*
X15548150Y-9852350D02*
X15508150Y-9892350D01*
X15537230Y-11701550D02*
X15577230Y-11741550D01*
X15577230Y-11701550D02*
X15537230Y-11741550D01*
X15590300Y-11383820D02*
X15630300Y-11423820D01*
X15630300Y-11383820D02*
X15590300Y-11423820D01*
X15647520Y-8673100D02*
X15687520Y-8713100D01*
X15687520Y-8673100D02*
X15647520Y-8713100D01*
X15676970Y-12427450D02*
X15716970Y-12467450D01*
X15716970Y-12427450D02*
X15676970Y-12467450D01*
X15682310Y-11828500D02*
X15722310Y-11868500D01*
X15722310Y-11828500D02*
X15682310Y-11868500D01*
X15706960Y-11543350D02*
X15746960Y-11583350D01*
X15746960Y-11543350D02*
X15706960Y-11583350D01*
X15733290Y-13789280D02*
X15773290Y-13829280D01*
X15773290Y-13789280D02*
X15733290Y-13829280D01*
X15737450Y-11157680D02*
X15777450Y-11197680D01*
X15777450Y-11157680D02*
X15737450Y-11197680D01*
X15761000Y-12347750D02*
X15801000Y-12387750D01*
X15801000Y-12347750D02*
X15761000Y-12387750D01*
X16137570Y-9550720D02*
X16177570Y-9590720D01*
X16177570Y-9550720D02*
X16137570Y-9590720D01*
X16158470Y-13552990D02*
X16198470Y-13592990D01*
X16198470Y-13552990D02*
X16158470Y-13592990D01*
X16362050Y-13743460D02*
X16402050Y-13783460D01*
X16402050Y-13743460D02*
X16362050Y-13783460D01*
X16411030Y-9060160D02*
X16451030Y-9100160D01*
X16451030Y-9060160D02*
X16411030Y-9100160D01*
X16457330Y-13287870D02*
X16497330Y-13327870D01*
X16497330Y-13287870D02*
X16457330Y-13327870D01*
X16487620Y-7916910D02*
X16527620Y-7956910D01*
X16527620Y-7916910D02*
X16487620Y-7956910D01*
X16496570Y-8246820D02*
X16536570Y-8286820D01*
X16536570Y-8246820D02*
X16496570Y-8286820D01*
X16699950Y-7665720D02*
X16739950Y-7705720D01*
X16739950Y-7665720D02*
X16699950Y-7705720D01*
X16709290Y-12329090D02*
X16749290Y-12369090D01*
X16749290Y-12329090D02*
X16709290Y-12369090D01*
X16766710Y-13256010D02*
X16806710Y-13296010D01*
X16806710Y-13256010D02*
X16766710Y-13296010D01*
X16776330Y-9198720D02*
X16816330Y-9238720D01*
X16816330Y-9198720D02*
X16776330Y-9238720D01*
X16780050Y-12971240D02*
X16820050Y-13011240D01*
X16820050Y-12971240D02*
X16780050Y-13011240D01*
X16787190Y-12560550D02*
X16827190Y-12600550D01*
X16827190Y-12560550D02*
X16787190Y-12600550D01*
X16787870Y-8626670D02*
X16827870Y-8666670D01*
X16827870Y-8626670D02*
X16787870Y-8666670D01*
X16810670Y-12719660D02*
X16850670Y-12759660D01*
X16850670Y-12719660D02*
X16810670Y-12759660D01*
X16825820Y-11956190D02*
X16865820Y-11996190D01*
X16865820Y-11956190D02*
X16825820Y-11996190D01*
X16828300Y-8896290D02*
X16868300Y-8936290D01*
X16868300Y-8896290D02*
X16828300Y-8936290D01*
X16832260Y-12392620D02*
X16872260Y-12432620D01*
X16872260Y-12392620D02*
X16832260Y-12432620D01*
X16911730Y-8558370D02*
X16951730Y-8598370D01*
X16951730Y-8558370D02*
X16911730Y-8598370D01*
X17101050Y-13912720D02*
X17141050Y-13952720D01*
X17141050Y-13912720D02*
X17101050Y-13952720D01*
X17114490Y-8655030D02*
X17154490Y-8695030D01*
X17154490Y-8655030D02*
X17114490Y-8695030D01*
X17125440Y-7351740D02*
X17165440Y-7391740D01*
X17165440Y-7351740D02*
X17125440Y-7391740D01*
X17203110Y-13927250D02*
X17243110Y-13967250D01*
X17243110Y-13927250D02*
X17203110Y-13967250D01*
X17206670Y-7440250D02*
X17246670Y-7480250D01*
X17246670Y-7440250D02*
X17206670Y-7480250D01*
X17232310Y-7077750D02*
X17272310Y-7117750D01*
X17272310Y-7077750D02*
X17232310Y-7117750D01*
X17332370Y-14465360D02*
X17372370Y-14505360D01*
X17372370Y-14465360D02*
X17332370Y-14505360D01*
X17350850Y-6357920D02*
X17390850Y-6397920D01*
X17390850Y-6357920D02*
X17350850Y-6397920D01*
X17411860Y-7733830D02*
X17451860Y-7773830D01*
X17451860Y-7733830D02*
X17411860Y-7773830D01*
D12*
X12486000Y-7543800D02*
G75*
G03*
X12486000Y-7543800I-40000J0D01*
G01*
X12486000Y-9067800D02*
G75*
G03*
X12486000Y-9067800I-40000J0D01*
G01*
X12740000Y-7543800D02*
G75*
G03*
X12740000Y-7543800I-40000J0D01*
G01*
X12740000Y-9067800D02*
G75*
G03*
X12740000Y-9067800I-40000J0D01*
G01*
X12994000Y-7543800D02*
G75*
G03*
X12994000Y-7543800I-40000J0D01*
G01*
X12994000Y-9067800D02*
G75*
G03*
X12994000Y-9067800I-40000J0D01*
G01*
X13248000Y-7543800D02*
G75*
G03*
X13248000Y-7543800I-40000J0D01*
G01*
X13248000Y-9067800D02*
G75*
G03*
X13248000Y-9067800I-40000J0D01*
G01*
X13375000Y-7797800D02*
G75*
G03*
X13375000Y-7797800I-40000J0D01*
G01*
X13502000Y-7543800D02*
G75*
G03*
X13502000Y-7543800I-40000J0D01*
G01*
X13502000Y-9067800D02*
G75*
G03*
X13502000Y-9067800I-40000J0D01*
G01*
X13629000Y-7797800D02*
G75*
G03*
X13629000Y-7797800I-40000J0D01*
G01*
X13756000Y-7543800D02*
G75*
G03*
X13756000Y-7543800I-40000J0D01*
G01*
X13756000Y-9067800D02*
G75*
G03*
X13756000Y-9067800I-40000J0D01*
G01*
X14010000Y-7543800D02*
G75*
G03*
X14010000Y-7543800I-40000J0D01*
G01*
X14010000Y-9067800D02*
G75*
G03*
X14010000Y-9067800I-40000J0D01*
G01*
X14264000Y-7543800D02*
G75*
G03*
X14264000Y-7543800I-40000J0D01*
G01*
X14264000Y-9067800D02*
G75*
G03*
X14264000Y-9067800I-40000J0D01*
G01*
X14391000Y-7797800D02*
G75*
G03*
X14391000Y-7797800I-40000J0D01*
G01*
X14518000Y-7543800D02*
G75*
G03*
X14518000Y-7543800I-40000J0D01*
G01*
X14518000Y-9067800D02*
G75*
G03*
X14518000Y-9067800I-40000J0D01*
G01*
X14645000Y-7797800D02*
G75*
G03*
X14645000Y-7797800I-40000J0D01*
G01*
X14772000Y-7543800D02*
G75*
G03*
X14772000Y-7543800I-40000J0D01*
G01*
X14772000Y-9067800D02*
G75*
G03*
X14772000Y-9067800I-40000J0D01*
G01*
X15026000Y-7543800D02*
G75*
G03*
X15026000Y-7543800I-40000J0D01*
G01*
X15026000Y-9067800D02*
G75*
G03*
X15026000Y-9067800I-40000J0D01*
G01*
X15280000Y-7543800D02*
G75*
G03*
X15280000Y-7543800I-40000J0D01*
G01*
X15280000Y-9067800D02*
G75*
G03*
X15280000Y-9067800I-40000J0D01*
G01*
D13*
X12434800Y-13285130D02*
X12434800Y-13385130D01*
X12384800Y-13335130D02*
X12484800Y-13335130D01*
X12455600Y-6246600D02*
X12455600Y-6346600D01*
X12405600Y-6296600D02*
X12505600Y-6296600D01*
X12455600Y-6756600D02*
X12455600Y-6856600D01*
X12405600Y-6806600D02*
X12505600Y-6806600D01*
X12655600Y-6246600D02*
X12655600Y-6346600D01*
X12605600Y-6296600D02*
X12705600Y-6296600D01*
X12655600Y-6756600D02*
X12655600Y-6856600D01*
X12605600Y-6806600D02*
X12705600Y-6806600D01*
X12688800Y-13285130D02*
X12688800Y-13385130D01*
X12638800Y-13335130D02*
X12738800Y-13335130D01*
X12855600Y-6246600D02*
X12855600Y-6346600D01*
X12805600Y-6296600D02*
X12905600Y-6296600D01*
X12855600Y-6756600D02*
X12855600Y-6856600D01*
X12805600Y-6806600D02*
X12905600Y-6806600D01*
X12942800Y-13285130D02*
X12942800Y-13385130D01*
X12892800Y-13335130D02*
X12992800Y-13335130D01*
X13055600Y-6246600D02*
X13055600Y-6346600D01*
X13005600Y-6296600D02*
X13105600Y-6296600D01*
X13055600Y-6756600D02*
X13055600Y-6856600D01*
X13005600Y-6806600D02*
X13105600Y-6806600D01*
X13209500Y-8129300D02*
X13209500Y-8229300D01*
X13159500Y-8179300D02*
X13259500Y-8179300D01*
X13209500Y-8383300D02*
X13209500Y-8483300D01*
X13159500Y-8433300D02*
X13259500Y-8433300D01*
X13255600Y-6246600D02*
X13255600Y-6346600D01*
X13205600Y-6296600D02*
X13305600Y-6296600D01*
X13255600Y-6756600D02*
X13255600Y-6856600D01*
X13205600Y-6806600D02*
X13305600Y-6806600D01*
X13455600Y-6246600D02*
X13455600Y-6346600D01*
X13405600Y-6296600D02*
X13505600Y-6296600D01*
X13455600Y-6756600D02*
X13455600Y-6856600D01*
X13405600Y-6806600D02*
X13505600Y-6806600D01*
X13463500Y-8129300D02*
X13463500Y-8229300D01*
X13413500Y-8179300D02*
X13513500Y-8179300D01*
X13463500Y-8383300D02*
X13463500Y-8483300D01*
X13413500Y-8433300D02*
X13513500Y-8433300D01*
X13655600Y-6246600D02*
X13655600Y-6346600D01*
X13605600Y-6296600D02*
X13705600Y-6296600D01*
X13655600Y-6756600D02*
X13655600Y-6856600D01*
X13605600Y-6806600D02*
X13705600Y-6806600D01*
X13717500Y-8129300D02*
X13717500Y-8229300D01*
X13667500Y-8179300D02*
X13767500Y-8179300D01*
X13717500Y-8383300D02*
X13717500Y-8483300D01*
X13667500Y-8433300D02*
X13767500Y-8433300D01*
X13855600Y-6246600D02*
X13855600Y-6346600D01*
X13805600Y-6296600D02*
X13905600Y-6296600D01*
X13855600Y-6756600D02*
X13855600Y-6856600D01*
X13805600Y-6806600D02*
X13905600Y-6806600D01*
X13971500Y-8129300D02*
X13971500Y-8229300D01*
X13921500Y-8179300D02*
X14021500Y-8179300D01*
X13971500Y-8383300D02*
X13971500Y-8483300D01*
X13921500Y-8433300D02*
X14021500Y-8433300D01*
X14055600Y-6246600D02*
X14055600Y-6346600D01*
X14005600Y-6296600D02*
X14105600Y-6296600D01*
X14055600Y-6756600D02*
X14055600Y-6856600D01*
X14005600Y-6806600D02*
X14105600Y-6806600D01*
X14225500Y-8129300D02*
X14225500Y-8229300D01*
X14175500Y-8179300D02*
X14275500Y-8179300D01*
X14225500Y-8383300D02*
X14225500Y-8483300D01*
X14175500Y-8433300D02*
X14275500Y-8433300D01*
X14255600Y-6246600D02*
X14255600Y-6346600D01*
X14205600Y-6296600D02*
X14305600Y-6296600D01*
X14255600Y-6756600D02*
X14255600Y-6856600D01*
X14205600Y-6806600D02*
X14305600Y-6806600D01*
X14455600Y-6246600D02*
X14455600Y-6346600D01*
X14405600Y-6296600D02*
X14505600Y-6296600D01*
X14455600Y-6756600D02*
X14455600Y-6856600D01*
X14405600Y-6806600D02*
X14505600Y-6806600D01*
X14479500Y-8129300D02*
X14479500Y-8229300D01*
X14429500Y-8179300D02*
X14529500Y-8179300D01*
X14479500Y-8383300D02*
X14479500Y-8483300D01*
X14429500Y-8433300D02*
X14529500Y-8433300D01*
X14655600Y-6246600D02*
X14655600Y-6346600D01*
X14605600Y-6296600D02*
X14705600Y-6296600D01*
X14655600Y-6756600D02*
X14655600Y-6856600D01*
X14605600Y-6806600D02*
X14705600Y-6806600D01*
X14733500Y-8129300D02*
X14733500Y-8229300D01*
X14683500Y-8179300D02*
X14783500Y-8179300D01*
X14733500Y-8383300D02*
X14733500Y-8483300D01*
X14683500Y-8433300D02*
X14783500Y-8433300D01*
X14855600Y-6246600D02*
X14855600Y-6346600D01*
X14805600Y-6296600D02*
X14905600Y-6296600D01*
X14855600Y-6756600D02*
X14855600Y-6856600D01*
X14805600Y-6806600D02*
X14905600Y-6806600D01*
X14987500Y-8129300D02*
X14987500Y-8229300D01*
X14937500Y-8179300D02*
X15037500Y-8179300D01*
X14987500Y-8383300D02*
X14987500Y-8483300D01*
X14937500Y-8433300D02*
X15037500Y-8433300D01*
X15055600Y-6246600D02*
X15055600Y-6346600D01*
X15005600Y-6296600D02*
X15105600Y-6296600D01*
X15055600Y-6756600D02*
X15055600Y-6856600D01*
X15005600Y-6806600D02*
X15105600Y-6806600D01*
X15255600Y-6246600D02*
X15255600Y-6346600D01*
X15205600Y-6296600D02*
X15305600Y-6296600D01*
X15255600Y-6756600D02*
X15255600Y-6856600D01*
X15205600Y-6806600D02*
X15305600Y-6806600D01*
X15455600Y-6246600D02*
X15455600Y-6346600D01*
X15405600Y-6296600D02*
X15505600Y-6296600D01*
X15455600Y-6756600D02*
X15455600Y-6856600D01*
X15405600Y-6806600D02*
X15505600Y-6806600D01*
X15655600Y-6246600D02*
X15655600Y-6346600D01*
X15605600Y-6296600D02*
X15705600Y-6296600D01*
X15655600Y-6756600D02*
X15655600Y-6856600D01*
X15605600Y-6806600D02*
X15705600Y-6806600D01*
X15773400Y-7722400D02*
X15773400Y-7822400D01*
X15723400Y-7772400D02*
X15823400Y-7772400D01*
X15773400Y-7976400D02*
X15773400Y-8076400D01*
X15723400Y-8026400D02*
X15823400Y-8026400D01*
X15773400Y-8230400D02*
X15773400Y-8330400D01*
X15723400Y-8280400D02*
X15823400Y-8280400D01*
X15773400Y-8484400D02*
X15773400Y-8584400D01*
X15723400Y-8534400D02*
X15823400Y-8534400D01*
X15773400Y-8738400D02*
X15773400Y-8838400D01*
X15723400Y-8788400D02*
X15823400Y-8788400D01*
X15773400Y-8992400D02*
X15773400Y-9092400D01*
X15723400Y-9042400D02*
X15823400Y-9042400D01*
X15855600Y-6246600D02*
X15855600Y-6346600D01*
X15805600Y-6296600D02*
X15905600Y-6296600D01*
X15855600Y-6756600D02*
X15855600Y-6856600D01*
X15805600Y-6806600D02*
X15905600Y-6806600D01*
X16055600Y-6246600D02*
X16055600Y-6346600D01*
X16005600Y-6296600D02*
X16105600Y-6296600D01*
X16055600Y-6756600D02*
X16055600Y-6856600D01*
X16005600Y-6806600D02*
X16105600Y-6806600D01*
X16255600Y-6246600D02*
X16255600Y-6346600D01*
X16205600Y-6296600D02*
X16305600Y-6296600D01*
X16255600Y-6756600D02*
X16255600Y-6856600D01*
X16205600Y-6806600D02*
X16305600Y-6806600D01*
X16455600Y-6246600D02*
X16455600Y-6346600D01*
X16405600Y-6296600D02*
X16505600Y-6296600D01*
X16455600Y-6756600D02*
X16455600Y-6856600D01*
X16405600Y-6806600D02*
X16505600Y-6806600D01*
X16655600Y-6246600D02*
X16655600Y-6346600D01*
X16605600Y-6296600D02*
X16705600Y-6296600D01*
X16655600Y-6756600D02*
X16655600Y-6856600D01*
X16605600Y-6806600D02*
X16705600Y-6806600D01*
X16855600Y-6246600D02*
X16855600Y-6346600D01*
X16805600Y-6296600D02*
X16905600Y-6296600D01*
X16855600Y-6756600D02*
X16855600Y-6856600D01*
X16805600Y-6806600D02*
X16905600Y-6806600D01*
X17055600Y-6246600D02*
X17055600Y-6346600D01*
X17005600Y-6296600D02*
X17105600Y-6296600D01*
X17055600Y-6756600D02*
X17055600Y-6856600D01*
X17005600Y-6806600D02*
X17105600Y-6806600D01*
X17119600Y-11684800D02*
X17119600Y-11784800D01*
X17069600Y-11734800D02*
X17169600Y-11734800D01*
X17119600Y-11938800D02*
X17119600Y-12038800D01*
X17069600Y-11988800D02*
X17169600Y-11988800D01*
X17119600Y-12192800D02*
X17119600Y-12292800D01*
X17069600Y-12242800D02*
X17169600Y-12242800D01*
X17119600Y-12446800D02*
X17119600Y-12546800D01*
X17069600Y-12496800D02*
X17169600Y-12496800D01*
X17119600Y-12700800D02*
X17119600Y-12800800D01*
X17069600Y-12750800D02*
X17169600Y-12750800D01*
X17119600Y-12954800D02*
X17119600Y-13054800D01*
X17069600Y-13004800D02*
X17169600Y-13004800D01*
X17255600Y-6246600D02*
X17255600Y-6346600D01*
X17205600Y-6296600D02*
X17305600Y-6296600D01*
X17255600Y-6756600D02*
X17255600Y-6856600D01*
X17205600Y-6806600D02*
X17305600Y-6806600D01*
D10*
X12305229Y-15363336D02*
X12305229Y-15163336D01*
X12352848Y-15163336D01*
X12381419Y-15172860D01*
X12400467Y-15191908D01*
X12409991Y-15210955D01*
X12419515Y-15249050D01*
X12419515Y-15277622D01*
X12409991Y-15315717D01*
X12400467Y-15334765D01*
X12381419Y-15353812D01*
X12352848Y-15363336D01*
X12305229Y-15363336D01*
X12505229Y-15363336D02*
X12505229Y-15230003D01*
X12505229Y-15268098D02*
X12514753Y-15249050D01*
X12524277Y-15239527D01*
X12543324Y-15230003D01*
X12562372Y-15230003D01*
X12629038Y-15363336D02*
X12629038Y-15230003D01*
X12629038Y-15163336D02*
X12619515Y-15172860D01*
X12629038Y-15182384D01*
X12638562Y-15172860D01*
X12629038Y-15163336D01*
X12629038Y-15182384D01*
X12752848Y-15363336D02*
X12733800Y-15353812D01*
X12724277Y-15334765D01*
X12724277Y-15163336D01*
X12857610Y-15363336D02*
X12838562Y-15353812D01*
X12829038Y-15334765D01*
X12829038Y-15163336D01*
X13086181Y-15363336D02*
X13086181Y-15163336D01*
X13152848Y-15306193D01*
X13219515Y-15163336D01*
X13219515Y-15363336D01*
X13400467Y-15363336D02*
X13400467Y-15258574D01*
X13390943Y-15239527D01*
X13371896Y-15230003D01*
X13333800Y-15230003D01*
X13314753Y-15239527D01*
X13400467Y-15353812D02*
X13381419Y-15363336D01*
X13333800Y-15363336D01*
X13314753Y-15353812D01*
X13305229Y-15334765D01*
X13305229Y-15315717D01*
X13314753Y-15296669D01*
X13333800Y-15287146D01*
X13381419Y-15287146D01*
X13400467Y-15277622D01*
X13495705Y-15230003D02*
X13495705Y-15430003D01*
X13495705Y-15239527D02*
X13514753Y-15230003D01*
X13552848Y-15230003D01*
X13571896Y-15239527D01*
X13581419Y-15249050D01*
X13590943Y-15268098D01*
X13590943Y-15325241D01*
X13581419Y-15344288D01*
X13571896Y-15353812D01*
X13552848Y-15363336D01*
X13514753Y-15363336D01*
X13495705Y-15353812D01*
X13676658Y-15344288D02*
X13686181Y-15353812D01*
X13676658Y-15363336D01*
X13667134Y-15353812D01*
X13676658Y-15344288D01*
X13676658Y-15363336D01*
X13676658Y-15239527D02*
X13686181Y-15249050D01*
X13676658Y-15258574D01*
X13667134Y-15249050D01*
X13676658Y-15239527D01*
X13676658Y-15258574D01*
D11*
X12007610Y-15672860D02*
X12047610Y-15712860D01*
X12047610Y-15672860D02*
X12007610Y-15712860D01*
D10*
X12343324Y-15583336D02*
X12362372Y-15583336D01*
X12381419Y-15592860D01*
X12390943Y-15602384D01*
X12400467Y-15621431D01*
X12409991Y-15659527D01*
X12409991Y-15707146D01*
X12400467Y-15745241D01*
X12390943Y-15764288D01*
X12381419Y-15773812D01*
X12362372Y-15783336D01*
X12343324Y-15783336D01*
X12324277Y-15773812D01*
X12314753Y-15764288D01*
X12305229Y-15745241D01*
X12295705Y-15707146D01*
X12295705Y-15659527D01*
X12305229Y-15621431D01*
X12314753Y-15602384D01*
X12324277Y-15592860D01*
X12343324Y-15583336D01*
X12495705Y-15764288D02*
X12505229Y-15773812D01*
X12495705Y-15783336D01*
X12486181Y-15773812D01*
X12495705Y-15764288D01*
X12495705Y-15783336D01*
X12676658Y-15650003D02*
X12676658Y-15783336D01*
X12629038Y-15573812D02*
X12581419Y-15716669D01*
X12705229Y-15716669D01*
X12819515Y-15583336D02*
X12838562Y-15583336D01*
X12857610Y-15592860D01*
X12867134Y-15602384D01*
X12876658Y-15621431D01*
X12886181Y-15659527D01*
X12886181Y-15707146D01*
X12876658Y-15745241D01*
X12867134Y-15764288D01*
X12857610Y-15773812D01*
X12838562Y-15783336D01*
X12819515Y-15783336D01*
X12800467Y-15773812D01*
X12790943Y-15764288D01*
X12781419Y-15745241D01*
X12771896Y-15707146D01*
X12771896Y-15659527D01*
X12781419Y-15621431D01*
X12790943Y-15602384D01*
X12800467Y-15592860D01*
X12819515Y-15583336D01*
X13009991Y-15583336D02*
X13029038Y-15583336D01*
X13048086Y-15592860D01*
X13057610Y-15602384D01*
X13067134Y-15621431D01*
X13076658Y-15659527D01*
X13076658Y-15707146D01*
X13067134Y-15745241D01*
X13057610Y-15764288D01*
X13048086Y-15773812D01*
X13029038Y-15783336D01*
X13009991Y-15783336D01*
X12990943Y-15773812D01*
X12981419Y-15764288D01*
X12971896Y-15745241D01*
X12962372Y-15707146D01*
X12962372Y-15659527D01*
X12971896Y-15621431D01*
X12981419Y-15602384D01*
X12990943Y-15592860D01*
X13009991Y-15583336D01*
X13162372Y-15783336D02*
X13162372Y-15650003D01*
X13162372Y-15669050D02*
X13171896Y-15659527D01*
X13190943Y-15650003D01*
X13219515Y-15650003D01*
X13238562Y-15659527D01*
X13248086Y-15678574D01*
X13248086Y-15783336D01*
X13248086Y-15678574D02*
X13257610Y-15659527D01*
X13276658Y-15650003D01*
X13305229Y-15650003D01*
X13324277Y-15659527D01*
X13333800Y-15678574D01*
X13333800Y-15783336D01*
X13429038Y-15783336D02*
X13429038Y-15650003D01*
X13429038Y-15669050D02*
X13438562Y-15659527D01*
X13457610Y-15650003D01*
X13486181Y-15650003D01*
X13505229Y-15659527D01*
X13514753Y-15678574D01*
X13514753Y-15783336D01*
X13514753Y-15678574D02*
X13524277Y-15659527D01*
X13543324Y-15650003D01*
X13571896Y-15650003D01*
X13590943Y-15659527D01*
X13600467Y-15678574D01*
X13600467Y-15783336D01*
X13990943Y-15573812D02*
X13819515Y-15830955D01*
X14248086Y-15583336D02*
X14267134Y-15583336D01*
X14286181Y-15592860D01*
X14295705Y-15602384D01*
X14305229Y-15621431D01*
X14314753Y-15659527D01*
X14314753Y-15707146D01*
X14305229Y-15745241D01*
X14295705Y-15764288D01*
X14286181Y-15773812D01*
X14267134Y-15783336D01*
X14248086Y-15783336D01*
X14229038Y-15773812D01*
X14219515Y-15764288D01*
X14209991Y-15745241D01*
X14200467Y-15707146D01*
X14200467Y-15659527D01*
X14209991Y-15621431D01*
X14219515Y-15602384D01*
X14229038Y-15592860D01*
X14248086Y-15583336D01*
X14400467Y-15764288D02*
X14409991Y-15773812D01*
X14400467Y-15783336D01*
X14390943Y-15773812D01*
X14400467Y-15764288D01*
X14400467Y-15783336D01*
X14533800Y-15583336D02*
X14552848Y-15583336D01*
X14571896Y-15592860D01*
X14581419Y-15602384D01*
X14590943Y-15621431D01*
X14600467Y-15659527D01*
X14600467Y-15707146D01*
X14590943Y-15745241D01*
X14581419Y-15764288D01*
X14571896Y-15773812D01*
X14552848Y-15783336D01*
X14533800Y-15783336D01*
X14514753Y-15773812D01*
X14505229Y-15764288D01*
X14495705Y-15745241D01*
X14486181Y-15707146D01*
X14486181Y-15659527D01*
X14495705Y-15621431D01*
X14505229Y-15602384D01*
X14514753Y-15592860D01*
X14533800Y-15583336D01*
X14790943Y-15783336D02*
X14676658Y-15783336D01*
X14733800Y-15783336D02*
X14733800Y-15583336D01*
X14714753Y-15611908D01*
X14695705Y-15630955D01*
X14676658Y-15640479D01*
X14971896Y-15583336D02*
X14876658Y-15583336D01*
X14867134Y-15678574D01*
X14876658Y-15669050D01*
X14895705Y-15659527D01*
X14943324Y-15659527D01*
X14962372Y-15669050D01*
X14971896Y-15678574D01*
X14981419Y-15697622D01*
X14981419Y-15745241D01*
X14971896Y-15764288D01*
X14962372Y-15773812D01*
X14943324Y-15783336D01*
X14895705Y-15783336D01*
X14876658Y-15773812D01*
X14867134Y-15764288D01*
X15048086Y-15583336D02*
X15181419Y-15583336D01*
X15095705Y-15783336D01*
X15248086Y-15583336D02*
X15248086Y-15621431D01*
X15324277Y-15583336D02*
X15324277Y-15621431D01*
X15619515Y-15859527D02*
X15609991Y-15850003D01*
X15590943Y-15821431D01*
X15581419Y-15802384D01*
X15571896Y-15773812D01*
X15562372Y-15726193D01*
X15562372Y-15688098D01*
X15571896Y-15640479D01*
X15581419Y-15611908D01*
X15590943Y-15592860D01*
X15609991Y-15564288D01*
X15619515Y-15554765D01*
X15800467Y-15783336D02*
X15686181Y-15783336D01*
X15743324Y-15783336D02*
X15743324Y-15583336D01*
X15724277Y-15611908D01*
X15705229Y-15630955D01*
X15686181Y-15640479D01*
X15971896Y-15650003D02*
X15971896Y-15783336D01*
X15924277Y-15573812D02*
X15876658Y-15716669D01*
X16000467Y-15716669D01*
X16171896Y-15583336D02*
X16076658Y-15583336D01*
X16067134Y-15678574D01*
X16076658Y-15669050D01*
X16095705Y-15659527D01*
X16143324Y-15659527D01*
X16162372Y-15669050D01*
X16171896Y-15678574D01*
X16181419Y-15697622D01*
X16181419Y-15745241D01*
X16171896Y-15764288D01*
X16162372Y-15773812D01*
X16143324Y-15783336D01*
X16095705Y-15783336D01*
X16076658Y-15773812D01*
X16067134Y-15764288D01*
X16419515Y-15783336D02*
X16419515Y-15583336D01*
X16505229Y-15783336D02*
X16505229Y-15678574D01*
X16495705Y-15659527D01*
X16476658Y-15650003D01*
X16448086Y-15650003D01*
X16429038Y-15659527D01*
X16419515Y-15669050D01*
X16629038Y-15783336D02*
X16609991Y-15773812D01*
X16600467Y-15764288D01*
X16590943Y-15745241D01*
X16590943Y-15688098D01*
X16600467Y-15669050D01*
X16609991Y-15659527D01*
X16629038Y-15650003D01*
X16657610Y-15650003D01*
X16676658Y-15659527D01*
X16686181Y-15669050D01*
X16695705Y-15688098D01*
X16695705Y-15745241D01*
X16686181Y-15764288D01*
X16676658Y-15773812D01*
X16657610Y-15783336D01*
X16629038Y-15783336D01*
X16809991Y-15783336D02*
X16790943Y-15773812D01*
X16781420Y-15754765D01*
X16781420Y-15583336D01*
X16962372Y-15773812D02*
X16943324Y-15783336D01*
X16905229Y-15783336D01*
X16886181Y-15773812D01*
X16876658Y-15754765D01*
X16876658Y-15678574D01*
X16886181Y-15659527D01*
X16905229Y-15650003D01*
X16943324Y-15650003D01*
X16962372Y-15659527D01*
X16971896Y-15678574D01*
X16971896Y-15697622D01*
X16876658Y-15716669D01*
X17048086Y-15773812D02*
X17067134Y-15783336D01*
X17105229Y-15783336D01*
X17124277Y-15773812D01*
X17133800Y-15754765D01*
X17133800Y-15745241D01*
X17124277Y-15726193D01*
X17105229Y-15716669D01*
X17076658Y-15716669D01*
X17057610Y-15707146D01*
X17048086Y-15688098D01*
X17048086Y-15678574D01*
X17057610Y-15659527D01*
X17076658Y-15650003D01*
X17105229Y-15650003D01*
X17124277Y-15659527D01*
X17200467Y-15859527D02*
X17209991Y-15850003D01*
X17229039Y-15821431D01*
X17238562Y-15802384D01*
X17248086Y-15773812D01*
X17257610Y-15726193D01*
X17257610Y-15688098D01*
X17248086Y-15640479D01*
X17238562Y-15611908D01*
X17229039Y-15592860D01*
X17209991Y-15564288D01*
X17200467Y-15554765D01*
D12*
X12047610Y-15956860D02*
G75*
G03*
X12047610Y-15956860I-40000J0D01*
G01*
D10*
X12343324Y-15847336D02*
X12362372Y-15847336D01*
X12381419Y-15856860D01*
X12390943Y-15866384D01*
X12400467Y-15885431D01*
X12409991Y-15923527D01*
X12409991Y-15971146D01*
X12400467Y-16009241D01*
X12390943Y-16028288D01*
X12381419Y-16037812D01*
X12362372Y-16047336D01*
X12343324Y-16047336D01*
X12324277Y-16037812D01*
X12314753Y-16028288D01*
X12305229Y-16009241D01*
X12295705Y-15971146D01*
X12295705Y-15923527D01*
X12305229Y-15885431D01*
X12314753Y-15866384D01*
X12324277Y-15856860D01*
X12343324Y-15847336D01*
X12495705Y-16028288D02*
X12505229Y-16037812D01*
X12495705Y-16047336D01*
X12486181Y-16037812D01*
X12495705Y-16028288D01*
X12495705Y-16047336D01*
X12619515Y-15933050D02*
X12600467Y-15923527D01*
X12590943Y-15914003D01*
X12581419Y-15894955D01*
X12581419Y-15885431D01*
X12590943Y-15866384D01*
X12600467Y-15856860D01*
X12619515Y-15847336D01*
X12657610Y-15847336D01*
X12676658Y-15856860D01*
X12686181Y-15866384D01*
X12695705Y-15885431D01*
X12695705Y-15894955D01*
X12686181Y-15914003D01*
X12676658Y-15923527D01*
X12657610Y-15933050D01*
X12619515Y-15933050D01*
X12600467Y-15942574D01*
X12590943Y-15952098D01*
X12581419Y-15971146D01*
X12581419Y-16009241D01*
X12590943Y-16028288D01*
X12600467Y-16037812D01*
X12619515Y-16047336D01*
X12657610Y-16047336D01*
X12676658Y-16037812D01*
X12686181Y-16028288D01*
X12695705Y-16009241D01*
X12695705Y-15971146D01*
X12686181Y-15952098D01*
X12676658Y-15942574D01*
X12657610Y-15933050D01*
X12819515Y-15847336D02*
X12838562Y-15847336D01*
X12857610Y-15856860D01*
X12867134Y-15866384D01*
X12876658Y-15885431D01*
X12886181Y-15923527D01*
X12886181Y-15971146D01*
X12876658Y-16009241D01*
X12867134Y-16028288D01*
X12857610Y-16037812D01*
X12838562Y-16047336D01*
X12819515Y-16047336D01*
X12800467Y-16037812D01*
X12790943Y-16028288D01*
X12781419Y-16009241D01*
X12771896Y-15971146D01*
X12771896Y-15923527D01*
X12781419Y-15885431D01*
X12790943Y-15866384D01*
X12800467Y-15856860D01*
X12819515Y-15847336D01*
X13009991Y-15847336D02*
X13029038Y-15847336D01*
X13048086Y-15856860D01*
X13057610Y-15866384D01*
X13067134Y-15885431D01*
X13076658Y-15923527D01*
X13076658Y-15971146D01*
X13067134Y-16009241D01*
X13057610Y-16028288D01*
X13048086Y-16037812D01*
X13029038Y-16047336D01*
X13009991Y-16047336D01*
X12990943Y-16037812D01*
X12981419Y-16028288D01*
X12971896Y-16009241D01*
X12962372Y-15971146D01*
X12962372Y-15923527D01*
X12971896Y-15885431D01*
X12981419Y-15866384D01*
X12990943Y-15856860D01*
X13009991Y-15847336D01*
X13162372Y-16047336D02*
X13162372Y-15914003D01*
X13162372Y-15933050D02*
X13171896Y-15923527D01*
X13190943Y-15914003D01*
X13219515Y-15914003D01*
X13238562Y-15923527D01*
X13248086Y-15942574D01*
X13248086Y-16047336D01*
X13248086Y-15942574D02*
X13257610Y-15923527D01*
X13276658Y-15914003D01*
X13305229Y-15914003D01*
X13324277Y-15923527D01*
X13333800Y-15942574D01*
X13333800Y-16047336D01*
X13429038Y-16047336D02*
X13429038Y-15914003D01*
X13429038Y-15933050D02*
X13438562Y-15923527D01*
X13457610Y-15914003D01*
X13486181Y-15914003D01*
X13505229Y-15923527D01*
X13514753Y-15942574D01*
X13514753Y-16047336D01*
X13514753Y-15942574D02*
X13524277Y-15923527D01*
X13543324Y-15914003D01*
X13571896Y-15914003D01*
X13590943Y-15923527D01*
X13600467Y-15942574D01*
X13600467Y-16047336D01*
X13990943Y-15837812D02*
X13819515Y-16094955D01*
X14248086Y-15847336D02*
X14267134Y-15847336D01*
X14286181Y-15856860D01*
X14295705Y-15866384D01*
X14305229Y-15885431D01*
X14314753Y-15923527D01*
X14314753Y-15971146D01*
X14305229Y-16009241D01*
X14295705Y-16028288D01*
X14286181Y-16037812D01*
X14267134Y-16047336D01*
X14248086Y-16047336D01*
X14229038Y-16037812D01*
X14219515Y-16028288D01*
X14209991Y-16009241D01*
X14200467Y-15971146D01*
X14200467Y-15923527D01*
X14209991Y-15885431D01*
X14219515Y-15866384D01*
X14229038Y-15856860D01*
X14248086Y-15847336D01*
X14400467Y-16028288D02*
X14409991Y-16037812D01*
X14400467Y-16047336D01*
X14390943Y-16037812D01*
X14400467Y-16028288D01*
X14400467Y-16047336D01*
X14533800Y-15847336D02*
X14552848Y-15847336D01*
X14571896Y-15856860D01*
X14581419Y-15866384D01*
X14590943Y-15885431D01*
X14600467Y-15923527D01*
X14600467Y-15971146D01*
X14590943Y-16009241D01*
X14581419Y-16028288D01*
X14571896Y-16037812D01*
X14552848Y-16047336D01*
X14533800Y-16047336D01*
X14514753Y-16037812D01*
X14505229Y-16028288D01*
X14495705Y-16009241D01*
X14486181Y-15971146D01*
X14486181Y-15923527D01*
X14495705Y-15885431D01*
X14505229Y-15866384D01*
X14514753Y-15856860D01*
X14533800Y-15847336D01*
X14667134Y-15847336D02*
X14790943Y-15847336D01*
X14724277Y-15923527D01*
X14752848Y-15923527D01*
X14771896Y-15933050D01*
X14781419Y-15942574D01*
X14790943Y-15961622D01*
X14790943Y-16009241D01*
X14781419Y-16028288D01*
X14771896Y-16037812D01*
X14752848Y-16047336D01*
X14695705Y-16047336D01*
X14676658Y-16037812D01*
X14667134Y-16028288D01*
X14981419Y-16047336D02*
X14867134Y-16047336D01*
X14924277Y-16047336D02*
X14924277Y-15847336D01*
X14905229Y-15875908D01*
X14886181Y-15894955D01*
X14867134Y-15904479D01*
X15162372Y-15847336D02*
X15067134Y-15847336D01*
X15057610Y-15942574D01*
X15067134Y-15933050D01*
X15086181Y-15923527D01*
X15133800Y-15923527D01*
X15152848Y-15933050D01*
X15162372Y-15942574D01*
X15171896Y-15961622D01*
X15171896Y-16009241D01*
X15162372Y-16028288D01*
X15152848Y-16037812D01*
X15133800Y-16047336D01*
X15086181Y-16047336D01*
X15067134Y-16037812D01*
X15057610Y-16028288D01*
X15248086Y-15847336D02*
X15248086Y-15885431D01*
X15324277Y-15847336D02*
X15324277Y-15885431D01*
X15619515Y-16123527D02*
X15609991Y-16114003D01*
X15590943Y-16085431D01*
X15581419Y-16066384D01*
X15571896Y-16037812D01*
X15562372Y-15990193D01*
X15562372Y-15952098D01*
X15571896Y-15904479D01*
X15581419Y-15875908D01*
X15590943Y-15856860D01*
X15609991Y-15828288D01*
X15619515Y-15818765D01*
X15686181Y-15866384D02*
X15695705Y-15856860D01*
X15714753Y-15847336D01*
X15762372Y-15847336D01*
X15781419Y-15856860D01*
X15790943Y-15866384D01*
X15800467Y-15885431D01*
X15800467Y-15904479D01*
X15790943Y-15933050D01*
X15676658Y-16047336D01*
X15800467Y-16047336D01*
X15914753Y-15933050D02*
X15895705Y-15923527D01*
X15886181Y-15914003D01*
X15876658Y-15894955D01*
X15876658Y-15885431D01*
X15886181Y-15866384D01*
X15895705Y-15856860D01*
X15914753Y-15847336D01*
X15952848Y-15847336D01*
X15971896Y-15856860D01*
X15981419Y-15866384D01*
X15990943Y-15885431D01*
X15990943Y-15894955D01*
X15981419Y-15914003D01*
X15971896Y-15923527D01*
X15952848Y-15933050D01*
X15914753Y-15933050D01*
X15895705Y-15942574D01*
X15886181Y-15952098D01*
X15876658Y-15971146D01*
X15876658Y-16009241D01*
X15886181Y-16028288D01*
X15895705Y-16037812D01*
X15914753Y-16047336D01*
X15952848Y-16047336D01*
X15971896Y-16037812D01*
X15981419Y-16028288D01*
X15990943Y-16009241D01*
X15990943Y-15971146D01*
X15981419Y-15952098D01*
X15971896Y-15942574D01*
X15952848Y-15933050D01*
X16229038Y-16047336D02*
X16229038Y-15847336D01*
X16314753Y-16047336D02*
X16314753Y-15942574D01*
X16305229Y-15923527D01*
X16286181Y-15914003D01*
X16257610Y-15914003D01*
X16238562Y-15923527D01*
X16229038Y-15933050D01*
X16438562Y-16047336D02*
X16419515Y-16037812D01*
X16409991Y-16028288D01*
X16400467Y-16009241D01*
X16400467Y-15952098D01*
X16409991Y-15933050D01*
X16419515Y-15923527D01*
X16438562Y-15914003D01*
X16467134Y-15914003D01*
X16486181Y-15923527D01*
X16495705Y-15933050D01*
X16505229Y-15952098D01*
X16505229Y-16009241D01*
X16495705Y-16028288D01*
X16486181Y-16037812D01*
X16467134Y-16047336D01*
X16438562Y-16047336D01*
X16619515Y-16047336D02*
X16600467Y-16037812D01*
X16590943Y-16018765D01*
X16590943Y-15847336D01*
X16771896Y-16037812D02*
X16752848Y-16047336D01*
X16714753Y-16047336D01*
X16695705Y-16037812D01*
X16686181Y-16018765D01*
X16686181Y-15942574D01*
X16695705Y-15923527D01*
X16714753Y-15914003D01*
X16752848Y-15914003D01*
X16771896Y-15923527D01*
X16781420Y-15942574D01*
X16781420Y-15961622D01*
X16686181Y-15980669D01*
X16857610Y-16037812D02*
X16876658Y-16047336D01*
X16914753Y-16047336D01*
X16933800Y-16037812D01*
X16943324Y-16018765D01*
X16943324Y-16009241D01*
X16933800Y-15990193D01*
X16914753Y-15980669D01*
X16886181Y-15980669D01*
X16867134Y-15971146D01*
X16857610Y-15952098D01*
X16857610Y-15942574D01*
X16867134Y-15923527D01*
X16886181Y-15914003D01*
X16914753Y-15914003D01*
X16933800Y-15923527D01*
X17009991Y-16123527D02*
X17019515Y-16114003D01*
X17038562Y-16085431D01*
X17048086Y-16066384D01*
X17057610Y-16037812D01*
X17067134Y-15990193D01*
X17067134Y-15952098D01*
X17057610Y-15904479D01*
X17048086Y-15875908D01*
X17038562Y-15856860D01*
X17019515Y-15828288D01*
X17009991Y-15818765D01*
D13*
X11997610Y-16170860D02*
X11997610Y-16270860D01*
X11947610Y-16220860D02*
X12047610Y-16220860D01*
D10*
X12409991Y-16311336D02*
X12295705Y-16311336D01*
X12352848Y-16311336D02*
X12352848Y-16111336D01*
X12333800Y-16139908D01*
X12314753Y-16158955D01*
X12295705Y-16168479D01*
X12495705Y-16292288D02*
X12505229Y-16301812D01*
X12495705Y-16311336D01*
X12486181Y-16301812D01*
X12495705Y-16292288D01*
X12495705Y-16311336D01*
X12629038Y-16111336D02*
X12648086Y-16111336D01*
X12667134Y-16120860D01*
X12676658Y-16130384D01*
X12686181Y-16149431D01*
X12695705Y-16187527D01*
X12695705Y-16235146D01*
X12686181Y-16273241D01*
X12676658Y-16292288D01*
X12667134Y-16301812D01*
X12648086Y-16311336D01*
X12629038Y-16311336D01*
X12609991Y-16301812D01*
X12600467Y-16292288D01*
X12590943Y-16273241D01*
X12581419Y-16235146D01*
X12581419Y-16187527D01*
X12590943Y-16149431D01*
X12600467Y-16130384D01*
X12609991Y-16120860D01*
X12629038Y-16111336D01*
X12819515Y-16111336D02*
X12838562Y-16111336D01*
X12857610Y-16120860D01*
X12867134Y-16130384D01*
X12876658Y-16149431D01*
X12886181Y-16187527D01*
X12886181Y-16235146D01*
X12876658Y-16273241D01*
X12867134Y-16292288D01*
X12857610Y-16301812D01*
X12838562Y-16311336D01*
X12819515Y-16311336D01*
X12800467Y-16301812D01*
X12790943Y-16292288D01*
X12781419Y-16273241D01*
X12771896Y-16235146D01*
X12771896Y-16187527D01*
X12781419Y-16149431D01*
X12790943Y-16130384D01*
X12800467Y-16120860D01*
X12819515Y-16111336D01*
X13009991Y-16111336D02*
X13029038Y-16111336D01*
X13048086Y-16120860D01*
X13057610Y-16130384D01*
X13067134Y-16149431D01*
X13076658Y-16187527D01*
X13076658Y-16235146D01*
X13067134Y-16273241D01*
X13057610Y-16292288D01*
X13048086Y-16301812D01*
X13029038Y-16311336D01*
X13009991Y-16311336D01*
X12990943Y-16301812D01*
X12981419Y-16292288D01*
X12971896Y-16273241D01*
X12962372Y-16235146D01*
X12962372Y-16187527D01*
X12971896Y-16149431D01*
X12981419Y-16130384D01*
X12990943Y-16120860D01*
X13009991Y-16111336D01*
X13162372Y-16311336D02*
X13162372Y-16178003D01*
X13162372Y-16197050D02*
X13171896Y-16187527D01*
X13190943Y-16178003D01*
X13219515Y-16178003D01*
X13238562Y-16187527D01*
X13248086Y-16206574D01*
X13248086Y-16311336D01*
X13248086Y-16206574D02*
X13257610Y-16187527D01*
X13276658Y-16178003D01*
X13305229Y-16178003D01*
X13324277Y-16187527D01*
X13333800Y-16206574D01*
X13333800Y-16311336D01*
X13429038Y-16311336D02*
X13429038Y-16178003D01*
X13429038Y-16197050D02*
X13438562Y-16187527D01*
X13457610Y-16178003D01*
X13486181Y-16178003D01*
X13505229Y-16187527D01*
X13514753Y-16206574D01*
X13514753Y-16311336D01*
X13514753Y-16206574D02*
X13524277Y-16187527D01*
X13543324Y-16178003D01*
X13571896Y-16178003D01*
X13590943Y-16187527D01*
X13600467Y-16206574D01*
X13600467Y-16311336D01*
X13990943Y-16101812D02*
X13819515Y-16358955D01*
X14248086Y-16111336D02*
X14267134Y-16111336D01*
X14286181Y-16120860D01*
X14295705Y-16130384D01*
X14305229Y-16149431D01*
X14314753Y-16187527D01*
X14314753Y-16235146D01*
X14305229Y-16273241D01*
X14295705Y-16292288D01*
X14286181Y-16301812D01*
X14267134Y-16311336D01*
X14248086Y-16311336D01*
X14229038Y-16301812D01*
X14219515Y-16292288D01*
X14209991Y-16273241D01*
X14200467Y-16235146D01*
X14200467Y-16187527D01*
X14209991Y-16149431D01*
X14219515Y-16130384D01*
X14229038Y-16120860D01*
X14248086Y-16111336D01*
X14400467Y-16292288D02*
X14409991Y-16301812D01*
X14400467Y-16311336D01*
X14390943Y-16301812D01*
X14400467Y-16292288D01*
X14400467Y-16311336D01*
X14533800Y-16111336D02*
X14552848Y-16111336D01*
X14571896Y-16120860D01*
X14581419Y-16130384D01*
X14590943Y-16149431D01*
X14600467Y-16187527D01*
X14600467Y-16235146D01*
X14590943Y-16273241D01*
X14581419Y-16292288D01*
X14571896Y-16301812D01*
X14552848Y-16311336D01*
X14533800Y-16311336D01*
X14514753Y-16301812D01*
X14505229Y-16292288D01*
X14495705Y-16273241D01*
X14486181Y-16235146D01*
X14486181Y-16187527D01*
X14495705Y-16149431D01*
X14505229Y-16130384D01*
X14514753Y-16120860D01*
X14533800Y-16111336D01*
X14667134Y-16111336D02*
X14790943Y-16111336D01*
X14724277Y-16187527D01*
X14752848Y-16187527D01*
X14771896Y-16197050D01*
X14781419Y-16206574D01*
X14790943Y-16225622D01*
X14790943Y-16273241D01*
X14781419Y-16292288D01*
X14771896Y-16301812D01*
X14752848Y-16311336D01*
X14695705Y-16311336D01*
X14676658Y-16301812D01*
X14667134Y-16292288D01*
X14886181Y-16311336D02*
X14924277Y-16311336D01*
X14943324Y-16301812D01*
X14952848Y-16292288D01*
X14971896Y-16263717D01*
X14981419Y-16225622D01*
X14981419Y-16149431D01*
X14971896Y-16130384D01*
X14962372Y-16120860D01*
X14943324Y-16111336D01*
X14905229Y-16111336D01*
X14886181Y-16120860D01*
X14876658Y-16130384D01*
X14867134Y-16149431D01*
X14867134Y-16197050D01*
X14876658Y-16216098D01*
X14886181Y-16225622D01*
X14905229Y-16235146D01*
X14943324Y-16235146D01*
X14962372Y-16225622D01*
X14971896Y-16216098D01*
X14981419Y-16197050D01*
X15152848Y-16178003D02*
X15152848Y-16311336D01*
X15105229Y-16101812D02*
X15057610Y-16244669D01*
X15181419Y-16244669D01*
X15248086Y-16111336D02*
X15248086Y-16149431D01*
X15324277Y-16111336D02*
X15324277Y-16149431D01*
X15619515Y-16387527D02*
X15609991Y-16378003D01*
X15590943Y-16349431D01*
X15581419Y-16330384D01*
X15571896Y-16301812D01*
X15562372Y-16254193D01*
X15562372Y-16216098D01*
X15571896Y-16168479D01*
X15581419Y-16139908D01*
X15590943Y-16120860D01*
X15609991Y-16092288D01*
X15619515Y-16082765D01*
X15724277Y-16197050D02*
X15705229Y-16187527D01*
X15695705Y-16178003D01*
X15686181Y-16158955D01*
X15686181Y-16149431D01*
X15695705Y-16130384D01*
X15705229Y-16120860D01*
X15724277Y-16111336D01*
X15762372Y-16111336D01*
X15781419Y-16120860D01*
X15790943Y-16130384D01*
X15800467Y-16149431D01*
X15800467Y-16158955D01*
X15790943Y-16178003D01*
X15781419Y-16187527D01*
X15762372Y-16197050D01*
X15724277Y-16197050D01*
X15705229Y-16206574D01*
X15695705Y-16216098D01*
X15686181Y-16235146D01*
X15686181Y-16273241D01*
X15695705Y-16292288D01*
X15705229Y-16301812D01*
X15724277Y-16311336D01*
X15762372Y-16311336D01*
X15781419Y-16301812D01*
X15790943Y-16292288D01*
X15800467Y-16273241D01*
X15800467Y-16235146D01*
X15790943Y-16216098D01*
X15781419Y-16206574D01*
X15762372Y-16197050D01*
X15990943Y-16311336D02*
X15876658Y-16311336D01*
X15933800Y-16311336D02*
X15933800Y-16111336D01*
X15914753Y-16139908D01*
X15895705Y-16158955D01*
X15876658Y-16168479D01*
X16229038Y-16311336D02*
X16229038Y-16111336D01*
X16314753Y-16311336D02*
X16314753Y-16206574D01*
X16305229Y-16187527D01*
X16286181Y-16178003D01*
X16257610Y-16178003D01*
X16238562Y-16187527D01*
X16229038Y-16197050D01*
X16438562Y-16311336D02*
X16419515Y-16301812D01*
X16409991Y-16292288D01*
X16400467Y-16273241D01*
X16400467Y-16216098D01*
X16409991Y-16197050D01*
X16419515Y-16187527D01*
X16438562Y-16178003D01*
X16467134Y-16178003D01*
X16486181Y-16187527D01*
X16495705Y-16197050D01*
X16505229Y-16216098D01*
X16505229Y-16273241D01*
X16495705Y-16292288D01*
X16486181Y-16301812D01*
X16467134Y-16311336D01*
X16438562Y-16311336D01*
X16619515Y-16311336D02*
X16600467Y-16301812D01*
X16590943Y-16282765D01*
X16590943Y-16111336D01*
X16771896Y-16301812D02*
X16752848Y-16311336D01*
X16714753Y-16311336D01*
X16695705Y-16301812D01*
X16686181Y-16282765D01*
X16686181Y-16206574D01*
X16695705Y-16187527D01*
X16714753Y-16178003D01*
X16752848Y-16178003D01*
X16771896Y-16187527D01*
X16781420Y-16206574D01*
X16781420Y-16225622D01*
X16686181Y-16244669D01*
X16857610Y-16301812D02*
X16876658Y-16311336D01*
X16914753Y-16311336D01*
X16933800Y-16301812D01*
X16943324Y-16282765D01*
X16943324Y-16273241D01*
X16933800Y-16254193D01*
X16914753Y-16244669D01*
X16886181Y-16244669D01*
X16867134Y-16235146D01*
X16857610Y-16216098D01*
X16857610Y-16206574D01*
X16867134Y-16187527D01*
X16886181Y-16178003D01*
X16914753Y-16178003D01*
X16933800Y-16187527D01*
X17009991Y-16387527D02*
X17019515Y-16378003D01*
X17038562Y-16349431D01*
X17048086Y-16330384D01*
X17057610Y-16301812D01*
X17067134Y-16254193D01*
X17067134Y-16216098D01*
X17057610Y-16168479D01*
X17048086Y-16139908D01*
X17038562Y-16120860D01*
X17019515Y-16092288D01*
X17009991Y-16082765D01*
M02*
