G04 #@! TF.GenerationSoftware,KiCad,Pcbnew,(6.0.11)*
G04 #@! TF.CreationDate,2024-07-24T19:14:20+02:00*
G04 #@! TF.ProjectId,tcbm2sd,7463626d-3273-4642-9e6b-696361645f70,1.1*
G04 #@! TF.SameCoordinates,Original*
G04 #@! TF.FileFunction,Legend,Bot*
G04 #@! TF.FilePolarity,Positive*
%FSLAX46Y46*%
G04 Gerber Fmt 4.6, Leading zero omitted, Abs format (unit mm)*
G04 Created by KiCad (PCBNEW (6.0.11)) date 2024-07-24 19:14:20*
%MOMM*%
%LPD*%
G01*
G04 APERTURE LIST*
G04 Aperture macros list*
%AMRoundRect*
0 Rectangle with rounded corners*
0 $1 Rounding radius*
0 $2 $3 $4 $5 $6 $7 $8 $9 X,Y pos of 4 corners*
0 Add a 4 corners polygon primitive as box body*
4,1,4,$2,$3,$4,$5,$6,$7,$8,$9,$2,$3,0*
0 Add four circle primitives for the rounded corners*
1,1,$1+$1,$2,$3*
1,1,$1+$1,$4,$5*
1,1,$1+$1,$6,$7*
1,1,$1+$1,$8,$9*
0 Add four rect primitives between the rounded corners*
20,1,$1+$1,$2,$3,$4,$5,0*
20,1,$1+$1,$4,$5,$6,$7,0*
20,1,$1+$1,$6,$7,$8,$9,0*
20,1,$1+$1,$8,$9,$2,$3,0*%
G04 Aperture macros list end*
%ADD10C,0.150000*%
%ADD11R,1.700000X1.700000*%
%ADD12O,1.700000X1.700000*%
%ADD13R,1.600000X1.600000*%
%ADD14O,1.600000X1.600000*%
%ADD15C,1.600000*%
%ADD16C,5.000000*%
%ADD17RoundRect,0.163300X-0.337500X-4.512500X0.337500X-4.512500X0.337500X4.512500X-0.337500X4.512500X0*%
G04 APERTURE END LIST*
D10*
X146908214Y-110998428D02*
X146908214Y-111427000D01*
X146936785Y-111512714D01*
X146993928Y-111569857D01*
X147079642Y-111598428D01*
X147136785Y-111598428D01*
X146622500Y-111598428D02*
X146622500Y-110998428D01*
X146393928Y-110998428D01*
X146336785Y-111027000D01*
X146308214Y-111055571D01*
X146279642Y-111112714D01*
X146279642Y-111198428D01*
X146308214Y-111255571D01*
X146336785Y-111284142D01*
X146393928Y-111312714D01*
X146622500Y-111312714D01*
X145708214Y-111598428D02*
X146051071Y-111598428D01*
X145879642Y-111598428D02*
X145879642Y-110998428D01*
X145936785Y-111084142D01*
X145993928Y-111141285D01*
X146051071Y-111169857D01*
X145451071Y-111541285D02*
X145422500Y-111569857D01*
X145451071Y-111598428D01*
X145479642Y-111569857D01*
X145451071Y-111541285D01*
X145451071Y-111598428D01*
X145451071Y-111227000D02*
X145422500Y-111255571D01*
X145451071Y-111284142D01*
X145479642Y-111255571D01*
X145451071Y-111227000D01*
X145451071Y-111284142D01*
X144708214Y-111198428D02*
X144708214Y-111798428D01*
X144708214Y-111227000D02*
X144651071Y-111198428D01*
X144536785Y-111198428D01*
X144479642Y-111227000D01*
X144451071Y-111255571D01*
X144422500Y-111312714D01*
X144422500Y-111484142D01*
X144451071Y-111541285D01*
X144479642Y-111569857D01*
X144536785Y-111598428D01*
X144651071Y-111598428D01*
X144708214Y-111569857D01*
X143908214Y-111598428D02*
X143908214Y-111284142D01*
X143936785Y-111227000D01*
X143993928Y-111198428D01*
X144108214Y-111198428D01*
X144165357Y-111227000D01*
X143908214Y-111569857D02*
X143965357Y-111598428D01*
X144108214Y-111598428D01*
X144165357Y-111569857D01*
X144193928Y-111512714D01*
X144193928Y-111455571D01*
X144165357Y-111398428D01*
X144108214Y-111369857D01*
X143965357Y-111369857D01*
X143908214Y-111341285D01*
X143651071Y-111569857D02*
X143593928Y-111598428D01*
X143479642Y-111598428D01*
X143422500Y-111569857D01*
X143393928Y-111512714D01*
X143393928Y-111484142D01*
X143422500Y-111427000D01*
X143479642Y-111398428D01*
X143565357Y-111398428D01*
X143622500Y-111369857D01*
X143651071Y-111312714D01*
X143651071Y-111284142D01*
X143622500Y-111227000D01*
X143565357Y-111198428D01*
X143479642Y-111198428D01*
X143422500Y-111227000D01*
X143165357Y-111569857D02*
X143108214Y-111598428D01*
X142993928Y-111598428D01*
X142936785Y-111569857D01*
X142908214Y-111512714D01*
X142908214Y-111484142D01*
X142936785Y-111427000D01*
X142993928Y-111398428D01*
X143079642Y-111398428D01*
X143136785Y-111369857D01*
X143165357Y-111312714D01*
X143165357Y-111284142D01*
X143136785Y-111227000D01*
X143079642Y-111198428D01*
X142993928Y-111198428D01*
X142936785Y-111227000D01*
X141936785Y-111569857D02*
X141993928Y-111598428D01*
X142108214Y-111598428D01*
X142165357Y-111569857D01*
X142193928Y-111541285D01*
X142222500Y-111484142D01*
X142222500Y-111312714D01*
X142193928Y-111255571D01*
X142165357Y-111227000D01*
X142108214Y-111198428D01*
X141993928Y-111198428D01*
X141936785Y-111227000D01*
X141593928Y-111598428D02*
X141651071Y-111569857D01*
X141679642Y-111541285D01*
X141708214Y-111484142D01*
X141708214Y-111312714D01*
X141679642Y-111255571D01*
X141651071Y-111227000D01*
X141593928Y-111198428D01*
X141508214Y-111198428D01*
X141451071Y-111227000D01*
X141422500Y-111255571D01*
X141393928Y-111312714D01*
X141393928Y-111484142D01*
X141422500Y-111541285D01*
X141451071Y-111569857D01*
X141508214Y-111598428D01*
X141593928Y-111598428D01*
X141136785Y-111598428D02*
X141136785Y-111198428D01*
X141136785Y-111255571D02*
X141108214Y-111227000D01*
X141051071Y-111198428D01*
X140965357Y-111198428D01*
X140908214Y-111227000D01*
X140879642Y-111284142D01*
X140879642Y-111598428D01*
X140879642Y-111284142D02*
X140851071Y-111227000D01*
X140793928Y-111198428D01*
X140708214Y-111198428D01*
X140651071Y-111227000D01*
X140622500Y-111284142D01*
X140622500Y-111598428D01*
X140336785Y-111198428D02*
X140336785Y-111798428D01*
X140336785Y-111227000D02*
X140279642Y-111198428D01*
X140165357Y-111198428D01*
X140108214Y-111227000D01*
X140079642Y-111255571D01*
X140051071Y-111312714D01*
X140051071Y-111484142D01*
X140079642Y-111541285D01*
X140108214Y-111569857D01*
X140165357Y-111598428D01*
X140279642Y-111598428D01*
X140336785Y-111569857D01*
X139536785Y-111198428D02*
X139536785Y-111598428D01*
X139793928Y-111198428D02*
X139793928Y-111512714D01*
X139765357Y-111569857D01*
X139708214Y-111598428D01*
X139622500Y-111598428D01*
X139565357Y-111569857D01*
X139536785Y-111541285D01*
X139336785Y-111198428D02*
X139108214Y-111198428D01*
X139251071Y-110998428D02*
X139251071Y-111512714D01*
X139222500Y-111569857D01*
X139165357Y-111598428D01*
X139108214Y-111598428D01*
X138679642Y-111569857D02*
X138736785Y-111598428D01*
X138851071Y-111598428D01*
X138908214Y-111569857D01*
X138936785Y-111512714D01*
X138936785Y-111284142D01*
X138908214Y-111227000D01*
X138851071Y-111198428D01*
X138736785Y-111198428D01*
X138679642Y-111227000D01*
X138651071Y-111284142D01*
X138651071Y-111341285D01*
X138936785Y-111398428D01*
X138393928Y-111598428D02*
X138393928Y-111198428D01*
X138393928Y-111312714D02*
X138365357Y-111255571D01*
X138336785Y-111227000D01*
X138279642Y-111198428D01*
X138222500Y-111198428D01*
X137565357Y-111598428D02*
X137565357Y-111198428D01*
X137565357Y-111312714D02*
X137536785Y-111255571D01*
X137508214Y-111227000D01*
X137451071Y-111198428D01*
X137393928Y-111198428D01*
X136965357Y-111569857D02*
X137022500Y-111598428D01*
X137136785Y-111598428D01*
X137193928Y-111569857D01*
X137222500Y-111512714D01*
X137222500Y-111284142D01*
X137193928Y-111227000D01*
X137136785Y-111198428D01*
X137022500Y-111198428D01*
X136965357Y-111227000D01*
X136936785Y-111284142D01*
X136936785Y-111341285D01*
X137222500Y-111398428D01*
X136708214Y-111569857D02*
X136651071Y-111598428D01*
X136536785Y-111598428D01*
X136479642Y-111569857D01*
X136451071Y-111512714D01*
X136451071Y-111484142D01*
X136479642Y-111427000D01*
X136536785Y-111398428D01*
X136622500Y-111398428D01*
X136679642Y-111369857D01*
X136708214Y-111312714D01*
X136708214Y-111284142D01*
X136679642Y-111227000D01*
X136622500Y-111198428D01*
X136536785Y-111198428D01*
X136479642Y-111227000D01*
X135965357Y-111569857D02*
X136022500Y-111598428D01*
X136136785Y-111598428D01*
X136193928Y-111569857D01*
X136222500Y-111512714D01*
X136222500Y-111284142D01*
X136193928Y-111227000D01*
X136136785Y-111198428D01*
X136022500Y-111198428D01*
X135965357Y-111227000D01*
X135936785Y-111284142D01*
X135936785Y-111341285D01*
X136222500Y-111398428D01*
X135765357Y-111198428D02*
X135536785Y-111198428D01*
X135679642Y-110998428D02*
X135679642Y-111512714D01*
X135651071Y-111569857D01*
X135593928Y-111598428D01*
X135536785Y-111598428D01*
X134965357Y-111198428D02*
X134736785Y-111198428D01*
X134879642Y-110998428D02*
X134879642Y-111512714D01*
X134851071Y-111569857D01*
X134793928Y-111598428D01*
X134736785Y-111598428D01*
X134451071Y-111598428D02*
X134508214Y-111569857D01*
X134536785Y-111541285D01*
X134565357Y-111484142D01*
X134565357Y-111312714D01*
X134536785Y-111255571D01*
X134508214Y-111227000D01*
X134451071Y-111198428D01*
X134365357Y-111198428D01*
X134308214Y-111227000D01*
X134279642Y-111255571D01*
X134251071Y-111312714D01*
X134251071Y-111484142D01*
X134279642Y-111541285D01*
X134308214Y-111569857D01*
X134365357Y-111598428D01*
X134451071Y-111598428D01*
X133565357Y-111427000D02*
X133279642Y-111427000D01*
X133622499Y-111598428D02*
X133422499Y-110998428D01*
X133222499Y-111598428D01*
X133022499Y-111598428D02*
X133022499Y-111198428D01*
X133022499Y-111312714D02*
X132993928Y-111255571D01*
X132965357Y-111227000D01*
X132908214Y-111198428D01*
X132851071Y-111198428D01*
X132393928Y-111598428D02*
X132393928Y-110998428D01*
X132393928Y-111569857D02*
X132451071Y-111598428D01*
X132565357Y-111598428D01*
X132622499Y-111569857D01*
X132651071Y-111541285D01*
X132679642Y-111484142D01*
X132679642Y-111312714D01*
X132651071Y-111255571D01*
X132622499Y-111227000D01*
X132565357Y-111198428D01*
X132451071Y-111198428D01*
X132393928Y-111227000D01*
X131851071Y-111198428D02*
X131851071Y-111598428D01*
X132108214Y-111198428D02*
X132108214Y-111512714D01*
X132079642Y-111569857D01*
X132022499Y-111598428D01*
X131936785Y-111598428D01*
X131879642Y-111569857D01*
X131851071Y-111541285D01*
X131565357Y-111598428D02*
X131565357Y-111198428D01*
X131565357Y-110998428D02*
X131593928Y-111027000D01*
X131565357Y-111055571D01*
X131536785Y-111027000D01*
X131565357Y-110998428D01*
X131565357Y-111055571D01*
X131279642Y-111198428D02*
X131279642Y-111598428D01*
X131279642Y-111255571D02*
X131251071Y-111227000D01*
X131193928Y-111198428D01*
X131108214Y-111198428D01*
X131051071Y-111227000D01*
X131022499Y-111284142D01*
X131022499Y-111598428D01*
X130651071Y-111598428D02*
X130708214Y-111569857D01*
X130736785Y-111541285D01*
X130765357Y-111484142D01*
X130765357Y-111312714D01*
X130736785Y-111255571D01*
X130708214Y-111227000D01*
X130651071Y-111198428D01*
X130565357Y-111198428D01*
X130508214Y-111227000D01*
X130479642Y-111255571D01*
X130451071Y-111312714D01*
X130451071Y-111484142D01*
X130479642Y-111541285D01*
X130508214Y-111569857D01*
X130565357Y-111598428D01*
X130651071Y-111598428D01*
X146908214Y-111964428D02*
X146908214Y-112393000D01*
X146936785Y-112478714D01*
X146993928Y-112535857D01*
X147079642Y-112564428D01*
X147136785Y-112564428D01*
X146622500Y-112564428D02*
X146622500Y-111964428D01*
X146393928Y-111964428D01*
X146336785Y-111993000D01*
X146308214Y-112021571D01*
X146279642Y-112078714D01*
X146279642Y-112164428D01*
X146308214Y-112221571D01*
X146336785Y-112250142D01*
X146393928Y-112278714D01*
X146622500Y-112278714D01*
X146051071Y-112021571D02*
X146022500Y-111993000D01*
X145965357Y-111964428D01*
X145822500Y-111964428D01*
X145765357Y-111993000D01*
X145736785Y-112021571D01*
X145708214Y-112078714D01*
X145708214Y-112135857D01*
X145736785Y-112221571D01*
X146079642Y-112564428D01*
X145708214Y-112564428D01*
X145451071Y-112507285D02*
X145422500Y-112535857D01*
X145451071Y-112564428D01*
X145479642Y-112535857D01*
X145451071Y-112507285D01*
X145451071Y-112564428D01*
X145451071Y-112193000D02*
X145422500Y-112221571D01*
X145451071Y-112250142D01*
X145479642Y-112221571D01*
X145451071Y-112193000D01*
X145451071Y-112250142D01*
X144736785Y-112535857D02*
X144679642Y-112564428D01*
X144565357Y-112564428D01*
X144508214Y-112535857D01*
X144479642Y-112478714D01*
X144479642Y-112450142D01*
X144508214Y-112393000D01*
X144565357Y-112364428D01*
X144651071Y-112364428D01*
X144708214Y-112335857D01*
X144736785Y-112278714D01*
X144736785Y-112250142D01*
X144708214Y-112193000D01*
X144651071Y-112164428D01*
X144565357Y-112164428D01*
X144508214Y-112193000D01*
X143993928Y-112535857D02*
X144051071Y-112564428D01*
X144165357Y-112564428D01*
X144222500Y-112535857D01*
X144251071Y-112478714D01*
X144251071Y-112250142D01*
X144222500Y-112193000D01*
X144165357Y-112164428D01*
X144051071Y-112164428D01*
X143993928Y-112193000D01*
X143965357Y-112250142D01*
X143965357Y-112307285D01*
X144251071Y-112364428D01*
X143622500Y-112564428D02*
X143679642Y-112535857D01*
X143708214Y-112478714D01*
X143708214Y-111964428D01*
X143165357Y-112535857D02*
X143222500Y-112564428D01*
X143336785Y-112564428D01*
X143393928Y-112535857D01*
X143422500Y-112478714D01*
X143422500Y-112250142D01*
X143393928Y-112193000D01*
X143336785Y-112164428D01*
X143222500Y-112164428D01*
X143165357Y-112193000D01*
X143136785Y-112250142D01*
X143136785Y-112307285D01*
X143422500Y-112364428D01*
X142622500Y-112535857D02*
X142679642Y-112564428D01*
X142793928Y-112564428D01*
X142851071Y-112535857D01*
X142879642Y-112507285D01*
X142908214Y-112450142D01*
X142908214Y-112278714D01*
X142879642Y-112221571D01*
X142851071Y-112193000D01*
X142793928Y-112164428D01*
X142679642Y-112164428D01*
X142622500Y-112193000D01*
X142451071Y-112164428D02*
X142222500Y-112164428D01*
X142365357Y-111964428D02*
X142365357Y-112478714D01*
X142336785Y-112535857D01*
X142279642Y-112564428D01*
X142222500Y-112564428D01*
X141565357Y-112564428D02*
X141565357Y-111964428D01*
X141308214Y-112564428D02*
X141308214Y-112250142D01*
X141336785Y-112193000D01*
X141393928Y-112164428D01*
X141479642Y-112164428D01*
X141536785Y-112193000D01*
X141565357Y-112221571D01*
X140593928Y-111935857D02*
X141108214Y-112707285D01*
X140451071Y-112164428D02*
X140336785Y-112564428D01*
X140222500Y-112278714D01*
X140108214Y-112564428D01*
X139993928Y-112164428D01*
X139308214Y-112564428D02*
X139308214Y-111964428D01*
X139165357Y-111964428D01*
X139079642Y-111993000D01*
X139022500Y-112050142D01*
X138993928Y-112107285D01*
X138965357Y-112221571D01*
X138965357Y-112307285D01*
X138993928Y-112421571D01*
X139022500Y-112478714D01*
X139079642Y-112535857D01*
X139165357Y-112564428D01*
X139308214Y-112564428D01*
X138708214Y-112250142D02*
X138508214Y-112250142D01*
X138422500Y-112564428D02*
X138708214Y-112564428D01*
X138708214Y-111964428D01*
X138422500Y-111964428D01*
X138251071Y-111964428D02*
X138051071Y-112564428D01*
X137851071Y-111964428D01*
X137222500Y-112164428D02*
X136793928Y-112164428D01*
X137051071Y-111907285D02*
X137222500Y-112678714D01*
X136851071Y-112421571D02*
X137279642Y-112421571D01*
X137022500Y-112678714D02*
X136851071Y-111907285D01*
X136565357Y-112564428D02*
X136451071Y-112564428D01*
X136393928Y-112535857D01*
X136365357Y-112507285D01*
X136308214Y-112421571D01*
X136279642Y-112307285D01*
X136279642Y-112078714D01*
X136308214Y-112021571D01*
X136336785Y-111993000D01*
X136393928Y-111964428D01*
X136508214Y-111964428D01*
X136565357Y-111993000D01*
X136593928Y-112021571D01*
X136622500Y-112078714D01*
X136622500Y-112221571D01*
X136593928Y-112278714D01*
X136565357Y-112307285D01*
X136508214Y-112335857D01*
X136393928Y-112335857D01*
X136336785Y-112307285D01*
X136308214Y-112278714D01*
X136279642Y-112221571D01*
X135393928Y-112793000D02*
X135422500Y-112764428D01*
X135479642Y-112678714D01*
X135508214Y-112621571D01*
X135536785Y-112535857D01*
X135565357Y-112393000D01*
X135565357Y-112278714D01*
X135536785Y-112135857D01*
X135508214Y-112050142D01*
X135479642Y-111993000D01*
X135422500Y-111907285D01*
X135393928Y-111878714D01*
X134851071Y-112564428D02*
X135193928Y-112564428D01*
X135022500Y-112564428D02*
X135022500Y-111964428D01*
X135079642Y-112050142D01*
X135136785Y-112107285D01*
X135193928Y-112135857D01*
X134593928Y-112335857D02*
X134136785Y-112335857D01*
X133879642Y-112021571D02*
X133851071Y-111993000D01*
X133793928Y-111964428D01*
X133651071Y-111964428D01*
X133593928Y-111993000D01*
X133565357Y-112021571D01*
X133536785Y-112078714D01*
X133536785Y-112135857D01*
X133565357Y-112221571D01*
X133908214Y-112564428D01*
X133536785Y-112564428D01*
X133336785Y-112793000D02*
X133308214Y-112764428D01*
X133251071Y-112678714D01*
X133222500Y-112621571D01*
X133193928Y-112535857D01*
X133165357Y-112393000D01*
X133165357Y-112278714D01*
X133193928Y-112135857D01*
X133222500Y-112050142D01*
X133251071Y-111993000D01*
X133308214Y-111907285D01*
X133336785Y-111878714D01*
X132336785Y-112564428D02*
X132393928Y-112535857D01*
X132422500Y-112507285D01*
X132451071Y-112450142D01*
X132451071Y-112278714D01*
X132422500Y-112221571D01*
X132393928Y-112193000D01*
X132336785Y-112164428D01*
X132251071Y-112164428D01*
X132193928Y-112193000D01*
X132165357Y-112221571D01*
X132136785Y-112278714D01*
X132136785Y-112450142D01*
X132165357Y-112507285D01*
X132193928Y-112535857D01*
X132251071Y-112564428D01*
X132336785Y-112564428D01*
X131879642Y-112564428D02*
X131879642Y-112164428D01*
X131879642Y-112278714D02*
X131851071Y-112221571D01*
X131822500Y-112193000D01*
X131765357Y-112164428D01*
X131708214Y-112164428D01*
X131079642Y-112164428D02*
X130651071Y-112164428D01*
X130908214Y-111907285D02*
X131079642Y-112678714D01*
X130708214Y-112421571D02*
X131136785Y-112421571D01*
X130879642Y-112678714D02*
X130708214Y-111907285D01*
X130365357Y-112221571D02*
X130422499Y-112193000D01*
X130451071Y-112164428D01*
X130479642Y-112107285D01*
X130479642Y-112078714D01*
X130451071Y-112021571D01*
X130422499Y-111993000D01*
X130365357Y-111964428D01*
X130251071Y-111964428D01*
X130193928Y-111993000D01*
X130165357Y-112021571D01*
X130136785Y-112078714D01*
X130136785Y-112107285D01*
X130165357Y-112164428D01*
X130193928Y-112193000D01*
X130251071Y-112221571D01*
X130365357Y-112221571D01*
X130422499Y-112250142D01*
X130451071Y-112278714D01*
X130479642Y-112335857D01*
X130479642Y-112450142D01*
X130451071Y-112507285D01*
X130422499Y-112535857D01*
X130365357Y-112564428D01*
X130251071Y-112564428D01*
X130193928Y-112535857D01*
X130165357Y-112507285D01*
X130136785Y-112450142D01*
X130136785Y-112335857D01*
X130165357Y-112278714D01*
X130193928Y-112250142D01*
X130251071Y-112221571D01*
X129251071Y-112793000D02*
X129279642Y-112764428D01*
X129336785Y-112678714D01*
X129365357Y-112621571D01*
X129393928Y-112535857D01*
X129422499Y-112393000D01*
X129422499Y-112278714D01*
X129393928Y-112135857D01*
X129365357Y-112050142D01*
X129336785Y-111993000D01*
X129279642Y-111907285D01*
X129251071Y-111878714D01*
X129051071Y-112021571D02*
X129022499Y-111993000D01*
X128965357Y-111964428D01*
X128822499Y-111964428D01*
X128765357Y-111993000D01*
X128736785Y-112021571D01*
X128708214Y-112078714D01*
X128708214Y-112135857D01*
X128736785Y-112221571D01*
X129079642Y-112564428D01*
X128708214Y-112564428D01*
X128451071Y-112335857D02*
X127993928Y-112335857D01*
X127765357Y-111964428D02*
X127393928Y-111964428D01*
X127593928Y-112193000D01*
X127508214Y-112193000D01*
X127451071Y-112221571D01*
X127422499Y-112250142D01*
X127393928Y-112307285D01*
X127393928Y-112450142D01*
X127422499Y-112507285D01*
X127451071Y-112535857D01*
X127508214Y-112564428D01*
X127679642Y-112564428D01*
X127736785Y-112535857D01*
X127765357Y-112507285D01*
X127193928Y-112793000D02*
X127165357Y-112764428D01*
X127108214Y-112678714D01*
X127079642Y-112621571D01*
X127051071Y-112535857D01*
X127022499Y-112393000D01*
X127022499Y-112278714D01*
X127051071Y-112135857D01*
X127079642Y-112050142D01*
X127108214Y-111993000D01*
X127165357Y-111907285D01*
X127193928Y-111878714D01*
X146908214Y-112930428D02*
X146908214Y-113359000D01*
X146936785Y-113444714D01*
X146993928Y-113501857D01*
X147079642Y-113530428D01*
X147136785Y-113530428D01*
X146622500Y-113530428D02*
X146622500Y-112930428D01*
X146393928Y-112930428D01*
X146336785Y-112959000D01*
X146308214Y-112987571D01*
X146279642Y-113044714D01*
X146279642Y-113130428D01*
X146308214Y-113187571D01*
X146336785Y-113216142D01*
X146393928Y-113244714D01*
X146622500Y-113244714D01*
X146079642Y-112930428D02*
X145708214Y-112930428D01*
X145908214Y-113159000D01*
X145822500Y-113159000D01*
X145765357Y-113187571D01*
X145736785Y-113216142D01*
X145708214Y-113273285D01*
X145708214Y-113416142D01*
X145736785Y-113473285D01*
X145765357Y-113501857D01*
X145822500Y-113530428D01*
X145993928Y-113530428D01*
X146051071Y-113501857D01*
X146079642Y-113473285D01*
X145451071Y-113473285D02*
X145422500Y-113501857D01*
X145451071Y-113530428D01*
X145479642Y-113501857D01*
X145451071Y-113473285D01*
X145451071Y-113530428D01*
X145451071Y-113159000D02*
X145422500Y-113187571D01*
X145451071Y-113216142D01*
X145479642Y-113187571D01*
X145451071Y-113159000D01*
X145451071Y-113216142D01*
X144736785Y-113501857D02*
X144679642Y-113530428D01*
X144565357Y-113530428D01*
X144508214Y-113501857D01*
X144479642Y-113444714D01*
X144479642Y-113416142D01*
X144508214Y-113359000D01*
X144565357Y-113330428D01*
X144651071Y-113330428D01*
X144708214Y-113301857D01*
X144736785Y-113244714D01*
X144736785Y-113216142D01*
X144708214Y-113159000D01*
X144651071Y-113130428D01*
X144565357Y-113130428D01*
X144508214Y-113159000D01*
X143993928Y-113501857D02*
X144051071Y-113530428D01*
X144165357Y-113530428D01*
X144222500Y-113501857D01*
X144251071Y-113444714D01*
X144251071Y-113216142D01*
X144222500Y-113159000D01*
X144165357Y-113130428D01*
X144051071Y-113130428D01*
X143993928Y-113159000D01*
X143965357Y-113216142D01*
X143965357Y-113273285D01*
X144251071Y-113330428D01*
X143622500Y-113530428D02*
X143679642Y-113501857D01*
X143708214Y-113444714D01*
X143708214Y-112930428D01*
X143165357Y-113501857D02*
X143222500Y-113530428D01*
X143336785Y-113530428D01*
X143393928Y-113501857D01*
X143422500Y-113444714D01*
X143422500Y-113216142D01*
X143393928Y-113159000D01*
X143336785Y-113130428D01*
X143222500Y-113130428D01*
X143165357Y-113159000D01*
X143136785Y-113216142D01*
X143136785Y-113273285D01*
X143422500Y-113330428D01*
X142622500Y-113501857D02*
X142679642Y-113530428D01*
X142793928Y-113530428D01*
X142851071Y-113501857D01*
X142879642Y-113473285D01*
X142908214Y-113416142D01*
X142908214Y-113244714D01*
X142879642Y-113187571D01*
X142851071Y-113159000D01*
X142793928Y-113130428D01*
X142679642Y-113130428D01*
X142622500Y-113159000D01*
X142451071Y-113130428D02*
X142222500Y-113130428D01*
X142365357Y-112930428D02*
X142365357Y-113444714D01*
X142336785Y-113501857D01*
X142279642Y-113530428D01*
X142222500Y-113530428D01*
X141593928Y-113501857D02*
X141536785Y-113530428D01*
X141422500Y-113530428D01*
X141365357Y-113501857D01*
X141336785Y-113444714D01*
X141336785Y-113416142D01*
X141365357Y-113359000D01*
X141422500Y-113330428D01*
X141508214Y-113330428D01*
X141565357Y-113301857D01*
X141593928Y-113244714D01*
X141593928Y-113216142D01*
X141565357Y-113159000D01*
X141508214Y-113130428D01*
X141422500Y-113130428D01*
X141365357Y-113159000D01*
X140651071Y-112901857D02*
X141165357Y-113673285D01*
X140508214Y-113130428D02*
X140393928Y-113530428D01*
X140279642Y-113244714D01*
X140165357Y-113530428D01*
X140051071Y-113130428D01*
X139365357Y-113530428D02*
X139365357Y-112930428D01*
X139222500Y-112930428D01*
X139136785Y-112959000D01*
X139079642Y-113016142D01*
X139051071Y-113073285D01*
X139022500Y-113187571D01*
X139022500Y-113273285D01*
X139051071Y-113387571D01*
X139079642Y-113444714D01*
X139136785Y-113501857D01*
X139222500Y-113530428D01*
X139365357Y-113530428D01*
X138765357Y-113216142D02*
X138565357Y-113216142D01*
X138479642Y-113530428D02*
X138765357Y-113530428D01*
X138765357Y-112930428D01*
X138479642Y-112930428D01*
X138308214Y-112930428D02*
X138108214Y-113530428D01*
X137908214Y-112930428D01*
X137336785Y-113130428D02*
X137108214Y-113130428D01*
X137251071Y-113530428D02*
X137251071Y-113016142D01*
X137222500Y-112959000D01*
X137165357Y-112930428D01*
X137108214Y-112930428D01*
X136908214Y-113530428D02*
X136908214Y-113130428D01*
X136908214Y-113244714D02*
X136879642Y-113187571D01*
X136851071Y-113159000D01*
X136793928Y-113130428D01*
X136736785Y-113130428D01*
X136451071Y-113530428D02*
X136508214Y-113501857D01*
X136536785Y-113473285D01*
X136565357Y-113416142D01*
X136565357Y-113244714D01*
X136536785Y-113187571D01*
X136508214Y-113159000D01*
X136451071Y-113130428D01*
X136365357Y-113130428D01*
X136308214Y-113159000D01*
X136279642Y-113187571D01*
X136251071Y-113244714D01*
X136251071Y-113416142D01*
X136279642Y-113473285D01*
X136308214Y-113501857D01*
X136365357Y-113530428D01*
X136451071Y-113530428D01*
X135993928Y-113530428D02*
X135993928Y-113130428D01*
X135993928Y-113187571D02*
X135965357Y-113159000D01*
X135908214Y-113130428D01*
X135822500Y-113130428D01*
X135765357Y-113159000D01*
X135736785Y-113216142D01*
X135736785Y-113530428D01*
X135736785Y-113216142D02*
X135708214Y-113159000D01*
X135651071Y-113130428D01*
X135565357Y-113130428D01*
X135508214Y-113159000D01*
X135479642Y-113216142D01*
X135479642Y-113530428D01*
X134765357Y-113359000D02*
X134479642Y-113359000D01*
X134822500Y-113530428D02*
X134622500Y-112930428D01*
X134422500Y-113530428D01*
X133965357Y-113130428D02*
X133965357Y-113530428D01*
X134108214Y-112901857D02*
X134251071Y-113330428D01*
X133879642Y-113330428D01*
X133022500Y-113759000D02*
X133051071Y-113730428D01*
X133108214Y-113644714D01*
X133136785Y-113587571D01*
X133165357Y-113501857D01*
X133193928Y-113359000D01*
X133193928Y-113244714D01*
X133165357Y-113101857D01*
X133136785Y-113016142D01*
X133108214Y-112959000D01*
X133051071Y-112873285D01*
X133022500Y-112844714D01*
X132479642Y-113530428D02*
X132822500Y-113530428D01*
X132651071Y-113530428D02*
X132651071Y-112930428D01*
X132708214Y-113016142D01*
X132765357Y-113073285D01*
X132822500Y-113101857D01*
X132222500Y-113301857D02*
X131765357Y-113301857D01*
X131508214Y-112987571D02*
X131479642Y-112959000D01*
X131422500Y-112930428D01*
X131279642Y-112930428D01*
X131222500Y-112959000D01*
X131193928Y-112987571D01*
X131165357Y-113044714D01*
X131165357Y-113101857D01*
X131193928Y-113187571D01*
X131536785Y-113530428D01*
X131165357Y-113530428D01*
X130965357Y-113759000D02*
X130936785Y-113730428D01*
X130879642Y-113644714D01*
X130851071Y-113587571D01*
X130822500Y-113501857D01*
X130793928Y-113359000D01*
X130793928Y-113244714D01*
X130822500Y-113101857D01*
X130851071Y-113016142D01*
X130879642Y-112959000D01*
X130936785Y-112873285D01*
X130965357Y-112844714D01*
X129965357Y-113530428D02*
X130022500Y-113501857D01*
X130051071Y-113473285D01*
X130079642Y-113416142D01*
X130079642Y-113244714D01*
X130051071Y-113187571D01*
X130022500Y-113159000D01*
X129965357Y-113130428D01*
X129879642Y-113130428D01*
X129822500Y-113159000D01*
X129793928Y-113187571D01*
X129765357Y-113244714D01*
X129765357Y-113416142D01*
X129793928Y-113473285D01*
X129822500Y-113501857D01*
X129879642Y-113530428D01*
X129965357Y-113530428D01*
X129508214Y-113530428D02*
X129508214Y-113130428D01*
X129508214Y-113244714D02*
X129479642Y-113187571D01*
X129451071Y-113159000D01*
X129393928Y-113130428D01*
X129336785Y-113130428D01*
X128336785Y-113530428D02*
X128536785Y-113244714D01*
X128679642Y-113530428D02*
X128679642Y-112930428D01*
X128451071Y-112930428D01*
X128393928Y-112959000D01*
X128365357Y-112987571D01*
X128336785Y-113044714D01*
X128336785Y-113130428D01*
X128365357Y-113187571D01*
X128393928Y-113216142D01*
X128451071Y-113244714D01*
X128679642Y-113244714D01*
X128136785Y-112930428D02*
X127736785Y-113530428D01*
X127736785Y-112930428D02*
X128136785Y-113530428D01*
X126879642Y-113759000D02*
X126908214Y-113730428D01*
X126965357Y-113644714D01*
X126993928Y-113587571D01*
X127022500Y-113501857D01*
X127051071Y-113359000D01*
X127051071Y-113244714D01*
X127022500Y-113101857D01*
X126993928Y-113016142D01*
X126965357Y-112959000D01*
X126908214Y-112873285D01*
X126879642Y-112844714D01*
X126651071Y-113530428D02*
X126651071Y-112930428D01*
X126508214Y-112930428D01*
X126422500Y-112959000D01*
X126365357Y-113016142D01*
X126336785Y-113073285D01*
X126308214Y-113187571D01*
X126308214Y-113273285D01*
X126336785Y-113387571D01*
X126365357Y-113444714D01*
X126422500Y-113501857D01*
X126508214Y-113530428D01*
X126651071Y-113530428D01*
X125936785Y-112930428D02*
X125879642Y-112930428D01*
X125822500Y-112959000D01*
X125793928Y-112987571D01*
X125765357Y-113044714D01*
X125736785Y-113159000D01*
X125736785Y-113301857D01*
X125765357Y-113416142D01*
X125793928Y-113473285D01*
X125822500Y-113501857D01*
X125879642Y-113530428D01*
X125936785Y-113530428D01*
X125993928Y-113501857D01*
X126022500Y-113473285D01*
X126051071Y-113416142D01*
X126079642Y-113301857D01*
X126079642Y-113159000D01*
X126051071Y-113044714D01*
X126022500Y-112987571D01*
X125993928Y-112959000D01*
X125936785Y-112930428D01*
X125536785Y-113759000D02*
X125508214Y-113730428D01*
X125451071Y-113644714D01*
X125422500Y-113587571D01*
X125393928Y-113501857D01*
X125365357Y-113359000D01*
X125365357Y-113244714D01*
X125393928Y-113101857D01*
X125422500Y-113016142D01*
X125451071Y-112959000D01*
X125508214Y-112873285D01*
X125536785Y-112844714D01*
X124451071Y-113759000D02*
X124479642Y-113730428D01*
X124536785Y-113644714D01*
X124565357Y-113587571D01*
X124593928Y-113501857D01*
X124622500Y-113359000D01*
X124622500Y-113244714D01*
X124593928Y-113101857D01*
X124565357Y-113016142D01*
X124536785Y-112959000D01*
X124479642Y-112873285D01*
X124451071Y-112844714D01*
X124251071Y-112987571D02*
X124222500Y-112959000D01*
X124165357Y-112930428D01*
X124022500Y-112930428D01*
X123965357Y-112959000D01*
X123936785Y-112987571D01*
X123908214Y-113044714D01*
X123908214Y-113101857D01*
X123936785Y-113187571D01*
X124279642Y-113530428D01*
X123908214Y-113530428D01*
X123651071Y-113301857D02*
X123193928Y-113301857D01*
X122965357Y-112930428D02*
X122593928Y-112930428D01*
X122793928Y-113159000D01*
X122708214Y-113159000D01*
X122651071Y-113187571D01*
X122622500Y-113216142D01*
X122593928Y-113273285D01*
X122593928Y-113416142D01*
X122622500Y-113473285D01*
X122651071Y-113501857D01*
X122708214Y-113530428D01*
X122879642Y-113530428D01*
X122936785Y-113501857D01*
X122965357Y-113473285D01*
X122393928Y-113759000D02*
X122365357Y-113730428D01*
X122308214Y-113644714D01*
X122279642Y-113587571D01*
X122251071Y-113501857D01*
X122222500Y-113359000D01*
X122222500Y-113244714D01*
X122251071Y-113101857D01*
X122279642Y-113016142D01*
X122308214Y-112959000D01*
X122365357Y-112873285D01*
X122393928Y-112844714D01*
X146908214Y-113896428D02*
X146908214Y-114325000D01*
X146936785Y-114410714D01*
X146993928Y-114467857D01*
X147079642Y-114496428D01*
X147136785Y-114496428D01*
X146622500Y-114496428D02*
X146622500Y-113896428D01*
X146393928Y-113896428D01*
X146336785Y-113925000D01*
X146308214Y-113953571D01*
X146279642Y-114010714D01*
X146279642Y-114096428D01*
X146308214Y-114153571D01*
X146336785Y-114182142D01*
X146393928Y-114210714D01*
X146622500Y-114210714D01*
X145765357Y-114096428D02*
X145765357Y-114496428D01*
X145908214Y-113867857D02*
X146051071Y-114296428D01*
X145679642Y-114296428D01*
X145451071Y-114439285D02*
X145422500Y-114467857D01*
X145451071Y-114496428D01*
X145479642Y-114467857D01*
X145451071Y-114439285D01*
X145451071Y-114496428D01*
X145451071Y-114125000D02*
X145422500Y-114153571D01*
X145451071Y-114182142D01*
X145479642Y-114153571D01*
X145451071Y-114125000D01*
X145451071Y-114182142D01*
X144736785Y-114467857D02*
X144679642Y-114496428D01*
X144565357Y-114496428D01*
X144508214Y-114467857D01*
X144479642Y-114410714D01*
X144479642Y-114382142D01*
X144508214Y-114325000D01*
X144565357Y-114296428D01*
X144651071Y-114296428D01*
X144708214Y-114267857D01*
X144736785Y-114210714D01*
X144736785Y-114182142D01*
X144708214Y-114125000D01*
X144651071Y-114096428D01*
X144565357Y-114096428D01*
X144508214Y-114125000D01*
X143993928Y-114467857D02*
X144051071Y-114496428D01*
X144165357Y-114496428D01*
X144222500Y-114467857D01*
X144251071Y-114410714D01*
X144251071Y-114182142D01*
X144222500Y-114125000D01*
X144165357Y-114096428D01*
X144051071Y-114096428D01*
X143993928Y-114125000D01*
X143965357Y-114182142D01*
X143965357Y-114239285D01*
X144251071Y-114296428D01*
X143622500Y-114496428D02*
X143679642Y-114467857D01*
X143708214Y-114410714D01*
X143708214Y-113896428D01*
X143165357Y-114467857D02*
X143222500Y-114496428D01*
X143336785Y-114496428D01*
X143393928Y-114467857D01*
X143422500Y-114410714D01*
X143422500Y-114182142D01*
X143393928Y-114125000D01*
X143336785Y-114096428D01*
X143222500Y-114096428D01*
X143165357Y-114125000D01*
X143136785Y-114182142D01*
X143136785Y-114239285D01*
X143422500Y-114296428D01*
X142622500Y-114467857D02*
X142679642Y-114496428D01*
X142793928Y-114496428D01*
X142851071Y-114467857D01*
X142879642Y-114439285D01*
X142908214Y-114382142D01*
X142908214Y-114210714D01*
X142879642Y-114153571D01*
X142851071Y-114125000D01*
X142793928Y-114096428D01*
X142679642Y-114096428D01*
X142622500Y-114125000D01*
X142451071Y-114096428D02*
X142222500Y-114096428D01*
X142365357Y-113896428D02*
X142365357Y-114410714D01*
X142336785Y-114467857D01*
X142279642Y-114496428D01*
X142222500Y-114496428D01*
X141593928Y-114467857D02*
X141536785Y-114496428D01*
X141422500Y-114496428D01*
X141365357Y-114467857D01*
X141336785Y-114410714D01*
X141336785Y-114382142D01*
X141365357Y-114325000D01*
X141422500Y-114296428D01*
X141508214Y-114296428D01*
X141565357Y-114267857D01*
X141593928Y-114210714D01*
X141593928Y-114182142D01*
X141565357Y-114125000D01*
X141508214Y-114096428D01*
X141422500Y-114096428D01*
X141365357Y-114125000D01*
X140651071Y-113867857D02*
X141165357Y-114639285D01*
X140508214Y-114096428D02*
X140393928Y-114496428D01*
X140279642Y-114210714D01*
X140165357Y-114496428D01*
X140051071Y-114096428D01*
X139365357Y-114496428D02*
X139365357Y-113896428D01*
X139222500Y-113896428D01*
X139136785Y-113925000D01*
X139079642Y-113982142D01*
X139051071Y-114039285D01*
X139022500Y-114153571D01*
X139022500Y-114239285D01*
X139051071Y-114353571D01*
X139079642Y-114410714D01*
X139136785Y-114467857D01*
X139222500Y-114496428D01*
X139365357Y-114496428D01*
X138765357Y-114182142D02*
X138565357Y-114182142D01*
X138479642Y-114496428D02*
X138765357Y-114496428D01*
X138765357Y-113896428D01*
X138479642Y-113896428D01*
X138308214Y-113896428D02*
X138108214Y-114496428D01*
X137908214Y-113896428D01*
X137079642Y-114725000D02*
X137108214Y-114696428D01*
X137165357Y-114610714D01*
X137193928Y-114553571D01*
X137222500Y-114467857D01*
X137251071Y-114325000D01*
X137251071Y-114210714D01*
X137222500Y-114067857D01*
X137193928Y-113982142D01*
X137165357Y-113925000D01*
X137108214Y-113839285D01*
X137079642Y-113810714D01*
X136536785Y-114496428D02*
X136879642Y-114496428D01*
X136708214Y-114496428D02*
X136708214Y-113896428D01*
X136765357Y-113982142D01*
X136822500Y-114039285D01*
X136879642Y-114067857D01*
X136279642Y-114267857D02*
X135822500Y-114267857D01*
X135565357Y-113953571D02*
X135536785Y-113925000D01*
X135479642Y-113896428D01*
X135336785Y-113896428D01*
X135279642Y-113925000D01*
X135251071Y-113953571D01*
X135222500Y-114010714D01*
X135222500Y-114067857D01*
X135251071Y-114153571D01*
X135593928Y-114496428D01*
X135222500Y-114496428D01*
X135022500Y-114725000D02*
X134993928Y-114696428D01*
X134936785Y-114610714D01*
X134908214Y-114553571D01*
X134879642Y-114467857D01*
X134851071Y-114325000D01*
X134851071Y-114210714D01*
X134879642Y-114067857D01*
X134908214Y-113982142D01*
X134936785Y-113925000D01*
X134993928Y-113839285D01*
X135022500Y-113810714D01*
X134022500Y-114496428D02*
X134079642Y-114467857D01*
X134108214Y-114439285D01*
X134136785Y-114382142D01*
X134136785Y-114210714D01*
X134108214Y-114153571D01*
X134079642Y-114125000D01*
X134022500Y-114096428D01*
X133936785Y-114096428D01*
X133879642Y-114125000D01*
X133851071Y-114153571D01*
X133822500Y-114210714D01*
X133822500Y-114382142D01*
X133851071Y-114439285D01*
X133879642Y-114467857D01*
X133936785Y-114496428D01*
X134022500Y-114496428D01*
X133565357Y-114496428D02*
X133565357Y-114096428D01*
X133565357Y-114210714D02*
X133536785Y-114153571D01*
X133508214Y-114125000D01*
X133451071Y-114096428D01*
X133393928Y-114096428D01*
X132736785Y-114496428D02*
X132736785Y-113896428D01*
X132479642Y-114496428D02*
X132479642Y-114182142D01*
X132508214Y-114125000D01*
X132565357Y-114096428D01*
X132651071Y-114096428D01*
X132708214Y-114125000D01*
X132736785Y-114153571D01*
X131765357Y-113867857D02*
X132279642Y-114639285D01*
X131622500Y-114096428D02*
X131508214Y-114496428D01*
X131393928Y-114210714D01*
X131279642Y-114496428D01*
X131165357Y-114096428D01*
X130479642Y-114496428D02*
X130479642Y-113896428D01*
X130336785Y-113896428D01*
X130251071Y-113925000D01*
X130193928Y-113982142D01*
X130165357Y-114039285D01*
X130136785Y-114153571D01*
X130136785Y-114239285D01*
X130165357Y-114353571D01*
X130193928Y-114410714D01*
X130251071Y-114467857D01*
X130336785Y-114496428D01*
X130479642Y-114496428D01*
X129879642Y-114182142D02*
X129679642Y-114182142D01*
X129593928Y-114496428D02*
X129879642Y-114496428D01*
X129879642Y-113896428D01*
X129593928Y-113896428D01*
X129422500Y-113896428D02*
X129222500Y-114496428D01*
X129022500Y-113896428D01*
X128193928Y-114725000D02*
X128222500Y-114696428D01*
X128279642Y-114610714D01*
X128308214Y-114553571D01*
X128336785Y-114467857D01*
X128365357Y-114325000D01*
X128365357Y-114210714D01*
X128336785Y-114067857D01*
X128308214Y-113982142D01*
X128279642Y-113925000D01*
X128222500Y-113839285D01*
X128193928Y-113810714D01*
X127993928Y-113953571D02*
X127965357Y-113925000D01*
X127908214Y-113896428D01*
X127765357Y-113896428D01*
X127708214Y-113925000D01*
X127679642Y-113953571D01*
X127651071Y-114010714D01*
X127651071Y-114067857D01*
X127679642Y-114153571D01*
X128022500Y-114496428D01*
X127651071Y-114496428D01*
X127393928Y-114267857D02*
X126936785Y-114267857D01*
X126708214Y-113896428D02*
X126336785Y-113896428D01*
X126536785Y-114125000D01*
X126451071Y-114125000D01*
X126393928Y-114153571D01*
X126365357Y-114182142D01*
X126336785Y-114239285D01*
X126336785Y-114382142D01*
X126365357Y-114439285D01*
X126393928Y-114467857D01*
X126451071Y-114496428D01*
X126622500Y-114496428D01*
X126679642Y-114467857D01*
X126708214Y-114439285D01*
X126136785Y-114725000D02*
X126108214Y-114696428D01*
X126051071Y-114610714D01*
X126022500Y-114553571D01*
X125993928Y-114467857D01*
X125965357Y-114325000D01*
X125965357Y-114210714D01*
X125993928Y-114067857D01*
X126022500Y-113982142D01*
X126051071Y-113925000D01*
X126108214Y-113839285D01*
X126136785Y-113810714D01*
X164931238Y-96464380D02*
X164931238Y-95464380D01*
X164502666Y-96464380D02*
X164502666Y-95940571D01*
X164550285Y-95845333D01*
X164645523Y-95797714D01*
X164788380Y-95797714D01*
X164883619Y-95845333D01*
X164931238Y-95892952D01*
X164169333Y-95797714D02*
X163788380Y-95797714D01*
X164026476Y-95464380D02*
X164026476Y-96321523D01*
X163978857Y-96416761D01*
X163883619Y-96464380D01*
X163788380Y-96464380D01*
X163597904Y-95797714D02*
X163216952Y-95797714D01*
X163455047Y-95464380D02*
X163455047Y-96321523D01*
X163407428Y-96416761D01*
X163312190Y-96464380D01*
X163216952Y-96464380D01*
X162883619Y-95797714D02*
X162883619Y-96797714D01*
X162883619Y-95845333D02*
X162788380Y-95797714D01*
X162597904Y-95797714D01*
X162502666Y-95845333D01*
X162455047Y-95892952D01*
X162407428Y-95988190D01*
X162407428Y-96273904D01*
X162455047Y-96369142D01*
X162502666Y-96416761D01*
X162597904Y-96464380D01*
X162788380Y-96464380D01*
X162883619Y-96416761D01*
X162026476Y-96416761D02*
X161931238Y-96464380D01*
X161740761Y-96464380D01*
X161645523Y-96416761D01*
X161597904Y-96321523D01*
X161597904Y-96273904D01*
X161645523Y-96178666D01*
X161740761Y-96131047D01*
X161883619Y-96131047D01*
X161978857Y-96083428D01*
X162026476Y-95988190D01*
X162026476Y-95940571D01*
X161978857Y-95845333D01*
X161883619Y-95797714D01*
X161740761Y-95797714D01*
X161645523Y-95845333D01*
X161169333Y-96369142D02*
X161121714Y-96416761D01*
X161169333Y-96464380D01*
X161216952Y-96416761D01*
X161169333Y-96369142D01*
X161169333Y-96464380D01*
X161169333Y-95845333D02*
X161121714Y-95892952D01*
X161169333Y-95940571D01*
X161216952Y-95892952D01*
X161169333Y-95845333D01*
X161169333Y-95940571D01*
X159978857Y-95416761D02*
X160836000Y-96702476D01*
X158931238Y-95416761D02*
X159788380Y-96702476D01*
X158169333Y-95797714D02*
X158169333Y-96607238D01*
X158216952Y-96702476D01*
X158264571Y-96750095D01*
X158359809Y-96797714D01*
X158502666Y-96797714D01*
X158597904Y-96750095D01*
X158169333Y-96416761D02*
X158264571Y-96464380D01*
X158455047Y-96464380D01*
X158550285Y-96416761D01*
X158597904Y-96369142D01*
X158645523Y-96273904D01*
X158645523Y-95988190D01*
X158597904Y-95892952D01*
X158550285Y-95845333D01*
X158455047Y-95797714D01*
X158264571Y-95797714D01*
X158169333Y-95845333D01*
X157693142Y-96464380D02*
X157693142Y-95797714D01*
X157693142Y-95464380D02*
X157740761Y-95512000D01*
X157693142Y-95559619D01*
X157645523Y-95512000D01*
X157693142Y-95464380D01*
X157693142Y-95559619D01*
X157359809Y-95797714D02*
X156978857Y-95797714D01*
X157216952Y-95464380D02*
X157216952Y-96321523D01*
X157169333Y-96416761D01*
X157074095Y-96464380D01*
X156978857Y-96464380D01*
X156645523Y-96464380D02*
X156645523Y-95464380D01*
X156216952Y-96464380D02*
X156216952Y-95940571D01*
X156264571Y-95845333D01*
X156359809Y-95797714D01*
X156502666Y-95797714D01*
X156597904Y-95845333D01*
X156645523Y-95892952D01*
X155312190Y-95797714D02*
X155312190Y-96464380D01*
X155740761Y-95797714D02*
X155740761Y-96321523D01*
X155693142Y-96416761D01*
X155597904Y-96464380D01*
X155455047Y-96464380D01*
X155359809Y-96416761D01*
X155312190Y-96369142D01*
X154836000Y-96464380D02*
X154836000Y-95464380D01*
X154836000Y-95845333D02*
X154740761Y-95797714D01*
X154550285Y-95797714D01*
X154455047Y-95845333D01*
X154407428Y-95892952D01*
X154359809Y-95988190D01*
X154359809Y-96273904D01*
X154407428Y-96369142D01*
X154455047Y-96416761D01*
X154550285Y-96464380D01*
X154740761Y-96464380D01*
X154836000Y-96416761D01*
X153931238Y-96369142D02*
X153883619Y-96416761D01*
X153931238Y-96464380D01*
X153978857Y-96416761D01*
X153931238Y-96369142D01*
X153931238Y-96464380D01*
X153026476Y-96416761D02*
X153121714Y-96464380D01*
X153312190Y-96464380D01*
X153407428Y-96416761D01*
X153455047Y-96369142D01*
X153502666Y-96273904D01*
X153502666Y-95988190D01*
X153455047Y-95892952D01*
X153407428Y-95845333D01*
X153312190Y-95797714D01*
X153121714Y-95797714D01*
X153026476Y-95845333D01*
X152455047Y-96464380D02*
X152550285Y-96416761D01*
X152597904Y-96369142D01*
X152645523Y-96273904D01*
X152645523Y-95988190D01*
X152597904Y-95892952D01*
X152550285Y-95845333D01*
X152455047Y-95797714D01*
X152312190Y-95797714D01*
X152216952Y-95845333D01*
X152169333Y-95892952D01*
X152121714Y-95988190D01*
X152121714Y-96273904D01*
X152169333Y-96369142D01*
X152216952Y-96416761D01*
X152312190Y-96464380D01*
X152455047Y-96464380D01*
X151693142Y-96464380D02*
X151693142Y-95797714D01*
X151693142Y-95892952D02*
X151645523Y-95845333D01*
X151550285Y-95797714D01*
X151407428Y-95797714D01*
X151312190Y-95845333D01*
X151264571Y-95940571D01*
X151264571Y-96464380D01*
X151264571Y-95940571D02*
X151216952Y-95845333D01*
X151121714Y-95797714D01*
X150978857Y-95797714D01*
X150883619Y-95845333D01*
X150836000Y-95940571D01*
X150836000Y-96464380D01*
X149645523Y-95416761D02*
X150502666Y-96702476D01*
X149407428Y-95797714D02*
X149169333Y-96464380D01*
X148931238Y-95797714D02*
X149169333Y-96464380D01*
X149264571Y-96702476D01*
X149312190Y-96750095D01*
X149407428Y-96797714D01*
X148693142Y-95797714D02*
X148312190Y-95797714D01*
X148550285Y-95464380D02*
X148550285Y-96321523D01*
X148502666Y-96416761D01*
X148407428Y-96464380D01*
X148312190Y-96464380D01*
X147978857Y-96464380D02*
X147978857Y-95797714D01*
X147978857Y-95892952D02*
X147931238Y-95845333D01*
X147836000Y-95797714D01*
X147693142Y-95797714D01*
X147597904Y-95845333D01*
X147550285Y-95940571D01*
X147550285Y-96464380D01*
X147550285Y-95940571D02*
X147502666Y-95845333D01*
X147407428Y-95797714D01*
X147264571Y-95797714D01*
X147169333Y-95845333D01*
X147121714Y-95940571D01*
X147121714Y-96464380D01*
X146740761Y-95797714D02*
X146502666Y-96464380D01*
X146264571Y-95797714D02*
X146502666Y-96464380D01*
X146597904Y-96702476D01*
X146645523Y-96750095D01*
X146740761Y-96797714D01*
X146026476Y-95797714D02*
X145645523Y-95797714D01*
X145883619Y-95464380D02*
X145883619Y-96321523D01*
X145836000Y-96416761D01*
X145740761Y-96464380D01*
X145645523Y-96464380D01*
X145312190Y-96464380D02*
X145312190Y-95797714D01*
X145312190Y-95892952D02*
X145264571Y-95845333D01*
X145169333Y-95797714D01*
X145026476Y-95797714D01*
X144931238Y-95845333D01*
X144883619Y-95940571D01*
X144883619Y-96464380D01*
X144883619Y-95940571D02*
X144836000Y-95845333D01*
X144740761Y-95797714D01*
X144597904Y-95797714D01*
X144502666Y-95845333D01*
X144455047Y-95940571D01*
X144455047Y-96464380D01*
X143264571Y-95416761D02*
X144121714Y-96702476D01*
X142931238Y-95797714D02*
X142931238Y-96797714D01*
X142931238Y-95845333D02*
X142836000Y-95797714D01*
X142645523Y-95797714D01*
X142550285Y-95845333D01*
X142502666Y-95892952D01*
X142455047Y-95988190D01*
X142455047Y-96273904D01*
X142502666Y-96369142D01*
X142550285Y-96416761D01*
X142645523Y-96464380D01*
X142836000Y-96464380D01*
X142931238Y-96416761D01*
X141883619Y-96464380D02*
X141978857Y-96416761D01*
X142026476Y-96321523D01*
X142026476Y-95464380D01*
X141074095Y-95797714D02*
X141074095Y-96464380D01*
X141502666Y-95797714D02*
X141502666Y-96321523D01*
X141455047Y-96416761D01*
X141359809Y-96464380D01*
X141216952Y-96464380D01*
X141121714Y-96416761D01*
X141074095Y-96369142D01*
X140645523Y-96416761D02*
X140550285Y-96464380D01*
X140359809Y-96464380D01*
X140264571Y-96416761D01*
X140216952Y-96321523D01*
X140216952Y-96273904D01*
X140264571Y-96178666D01*
X140359809Y-96131047D01*
X140502666Y-96131047D01*
X140597904Y-96083428D01*
X140645523Y-95988190D01*
X140645523Y-95940571D01*
X140597904Y-95845333D01*
X140502666Y-95797714D01*
X140359809Y-95797714D01*
X140264571Y-95845333D01*
X139359809Y-95797714D02*
X139359809Y-96464380D01*
X139597904Y-95416761D02*
X139836000Y-96131047D01*
X139216952Y-96131047D01*
X138836000Y-96083428D02*
X138074095Y-96083428D01*
X137740761Y-95797714D02*
X137359809Y-95797714D01*
X137597904Y-95464380D02*
X137597904Y-96321523D01*
X137550285Y-96416761D01*
X137455047Y-96464380D01*
X137359809Y-96464380D01*
X136597904Y-96416761D02*
X136693142Y-96464380D01*
X136883619Y-96464380D01*
X136978857Y-96416761D01*
X137026476Y-96369142D01*
X137074095Y-96273904D01*
X137074095Y-95988190D01*
X137026476Y-95892952D01*
X136978857Y-95845333D01*
X136883619Y-95797714D01*
X136693142Y-95797714D01*
X136597904Y-95845333D01*
X136169333Y-96464380D02*
X136169333Y-95464380D01*
X136169333Y-95845333D02*
X136074095Y-95797714D01*
X135883619Y-95797714D01*
X135788380Y-95845333D01*
X135740761Y-95892952D01*
X135693142Y-95988190D01*
X135693142Y-96273904D01*
X135740761Y-96369142D01*
X135788380Y-96416761D01*
X135883619Y-96464380D01*
X136074095Y-96464380D01*
X136169333Y-96416761D01*
X135264571Y-96464380D02*
X135264571Y-95797714D01*
X135264571Y-95892952D02*
X135216952Y-95845333D01*
X135121714Y-95797714D01*
X134978857Y-95797714D01*
X134883619Y-95845333D01*
X134836000Y-95940571D01*
X134836000Y-96464380D01*
X134836000Y-95940571D02*
X134788380Y-95845333D01*
X134693142Y-95797714D01*
X134550285Y-95797714D01*
X134455047Y-95845333D01*
X134407428Y-95940571D01*
X134407428Y-96464380D01*
X133978857Y-95559619D02*
X133931238Y-95512000D01*
X133836000Y-95464380D01*
X133597904Y-95464380D01*
X133502666Y-95512000D01*
X133455047Y-95559619D01*
X133407428Y-95654857D01*
X133407428Y-95750095D01*
X133455047Y-95892952D01*
X134026476Y-96464380D01*
X133407428Y-96464380D01*
X133026476Y-96416761D02*
X132931238Y-96464380D01*
X132740761Y-96464380D01*
X132645523Y-96416761D01*
X132597904Y-96321523D01*
X132597904Y-96273904D01*
X132645523Y-96178666D01*
X132740761Y-96131047D01*
X132883619Y-96131047D01*
X132978857Y-96083428D01*
X133026476Y-95988190D01*
X133026476Y-95940571D01*
X132978857Y-95845333D01*
X132883619Y-95797714D01*
X132740761Y-95797714D01*
X132645523Y-95845333D01*
X131740761Y-96464380D02*
X131740761Y-95464380D01*
X131740761Y-96416761D02*
X131836000Y-96464380D01*
X132026476Y-96464380D01*
X132121714Y-96416761D01*
X132169333Y-96369142D01*
X132216952Y-96273904D01*
X132216952Y-95988190D01*
X132169333Y-95892952D01*
X132121714Y-95845333D01*
X132026476Y-95797714D01*
X131836000Y-95797714D01*
X131740761Y-95845333D01*
%LPC*%
D11*
X124348000Y-133351300D03*
D12*
X126888000Y-133351300D03*
X129428000Y-133351300D03*
D11*
X171196000Y-130048000D03*
D12*
X171196000Y-127508000D03*
X171196000Y-124968000D03*
X171196000Y-122428000D03*
X171196000Y-119888000D03*
X171196000Y-117348000D03*
D13*
X124460000Y-90678000D03*
D14*
X127000000Y-90678000D03*
X129540000Y-90678000D03*
X132080000Y-90678000D03*
X134620000Y-90678000D03*
X137160000Y-90678000D03*
X139700000Y-90678000D03*
X142240000Y-90678000D03*
X144780000Y-90678000D03*
X147320000Y-90678000D03*
X149860000Y-90678000D03*
X152400000Y-90678000D03*
X152400000Y-75438000D03*
X149860000Y-75438000D03*
X147320000Y-75438000D03*
X144780000Y-75438000D03*
X142240000Y-75438000D03*
X139700000Y-75438000D03*
X137160000Y-75438000D03*
X134620000Y-75438000D03*
X132080000Y-75438000D03*
X129540000Y-75438000D03*
X127000000Y-75438000D03*
X124460000Y-75438000D03*
X135890000Y-77978000D03*
X133350000Y-77978000D03*
X146050000Y-77978000D03*
X143510000Y-77978000D03*
D11*
X157734000Y-77724000D03*
D12*
X157734000Y-80264000D03*
X157734000Y-82804000D03*
X157734000Y-85344000D03*
X157734000Y-87884000D03*
X157734000Y-90424000D03*
D13*
X124556000Y-68066000D03*
D15*
X126556000Y-68066000D03*
X128556000Y-68066000D03*
X130556000Y-68066000D03*
X132556000Y-68066000D03*
X134556000Y-68066000D03*
X136556000Y-68066000D03*
X138556000Y-68066000D03*
X140556000Y-68066000D03*
X142556000Y-68066000D03*
X144556000Y-68066000D03*
X146556000Y-68066000D03*
X148556000Y-68066000D03*
X150556000Y-68066000D03*
X152556000Y-68066000D03*
X154556000Y-68066000D03*
X156556000Y-68066000D03*
X158556000Y-68066000D03*
X160556000Y-68066000D03*
X162556000Y-68066000D03*
X164556000Y-68066000D03*
X166556000Y-68066000D03*
X168556000Y-68066000D03*
X170556000Y-68066000D03*
X172556000Y-68066000D03*
X124556000Y-62966000D03*
X168556000Y-62966000D03*
X126556000Y-62966000D03*
X170556000Y-62966000D03*
X128556000Y-62966000D03*
X172556000Y-62966000D03*
X130556000Y-62966000D03*
X132556000Y-62966000D03*
X134556000Y-62966000D03*
X136556000Y-62966000D03*
X138556000Y-62966000D03*
X140556000Y-62966000D03*
X142556000Y-62966000D03*
X144556000Y-62966000D03*
X146556000Y-62966000D03*
X148556000Y-62966000D03*
X150556000Y-62966000D03*
X152556000Y-62966000D03*
X154556000Y-62966000D03*
X156556000Y-62966000D03*
X158556000Y-62966000D03*
X160556000Y-62966000D03*
X162556000Y-62966000D03*
X164556000Y-62966000D03*
X166556000Y-62966000D03*
D11*
X132095000Y-84333000D03*
D12*
X132095000Y-81793000D03*
X134635000Y-84333000D03*
X134635000Y-81793000D03*
X137175000Y-84333000D03*
X137175000Y-81793000D03*
X139715000Y-84333000D03*
X139715000Y-81793000D03*
X142255000Y-84333000D03*
X142255000Y-81793000D03*
X144795000Y-84333000D03*
X144795000Y-81793000D03*
X147335000Y-84333000D03*
X147335000Y-81793000D03*
X149875000Y-84333000D03*
X149875000Y-81793000D03*
D16*
X148501100Y-102003600D03*
D17*
X124501100Y-145503600D03*
X168501100Y-145503600D03*
X126501100Y-145503600D03*
X170501100Y-145503600D03*
X128501100Y-145503600D03*
X172501100Y-145503600D03*
X130501100Y-145503600D03*
X132501100Y-145503600D03*
X134501100Y-145503600D03*
X136501100Y-145503600D03*
X138501100Y-145503600D03*
X140501100Y-145503600D03*
X142501100Y-145503600D03*
X144501100Y-145503600D03*
X146501100Y-145503600D03*
X148501100Y-145503600D03*
X150501100Y-145503600D03*
X152501100Y-145503600D03*
X154501100Y-145503600D03*
X156501100Y-145503600D03*
X158501100Y-145503600D03*
X160501100Y-145503600D03*
X162501100Y-145503600D03*
X164501100Y-145503600D03*
X166501100Y-145503600D03*
M02*
