%TF.GenerationSoftware,KiCad,Pcbnew,(6.0.11)*%
%TF.CreationDate,2024-06-19T21:48:19+02:00*%
%TF.ProjectId,tcbm2sd,7463626d-3273-4642-9e6b-696361645f70,1.0*%
%TF.SameCoordinates,Original*%
%TF.FileFunction,Drillmap*%
%TF.FilePolarity,Positive*%
%FSLAX45Y45*%
G04 Gerber Fmt 4.5, Leading zero omitted, Abs format (unit mm)*
G04 Created by KiCad (PCBNEW (6.0.11)) date 2024-06-19 21:48:19*
%MOMM*%
%LPD*%
G01*
G04 APERTURE LIST*
%ADD10C,0.200000*%
%ADD11C,0.040000*%
%ADD12C,0.080000*%
%ADD13C,0.100000*%
G04 APERTURE END LIST*
D10*
D11*
X12146890Y-11543080D02*
X12186890Y-11583080D01*
X12186890Y-11543080D02*
X12146890Y-11583080D01*
X12326720Y-14445600D02*
X12366720Y-14485600D01*
X12366720Y-14445600D02*
X12326720Y-14485600D01*
X12364440Y-9983460D02*
X12404440Y-10023460D01*
X12404440Y-9983460D02*
X12364440Y-10023460D01*
X12459440Y-7291870D02*
X12499440Y-7331870D01*
X12499440Y-7291870D02*
X12459440Y-7331870D01*
X12511330Y-13940530D02*
X12551330Y-13980530D01*
X12551330Y-13940530D02*
X12511330Y-13980530D01*
X12588080Y-10404340D02*
X12628080Y-10444340D01*
X12628080Y-10404340D02*
X12588080Y-10444340D01*
X12686870Y-11776730D02*
X12726870Y-11816730D01*
X12726870Y-11776730D02*
X12686870Y-11816730D01*
X12691380Y-11537140D02*
X12731380Y-11577140D01*
X12731380Y-11537140D02*
X12691380Y-11577140D01*
X12761790Y-9595480D02*
X12801790Y-9635480D01*
X12801790Y-9595480D02*
X12761790Y-9635480D01*
X12784070Y-8535940D02*
X12824070Y-8575940D01*
X12824070Y-8535940D02*
X12784070Y-8575940D01*
X13016290Y-7413530D02*
X13056290Y-7453530D01*
X13056290Y-7413530D02*
X13016290Y-7453530D01*
X13135160Y-7765670D02*
X13175160Y-7805670D01*
X13175160Y-7765670D02*
X13135160Y-7805670D01*
X13135160Y-8705710D02*
X13175160Y-8745710D01*
X13175160Y-8705710D02*
X13135160Y-8745710D01*
X13188000Y-7313730D02*
X13228000Y-7353730D01*
X13228000Y-7313730D02*
X13188000Y-7353730D01*
X13230110Y-13576920D02*
X13270110Y-13616920D01*
X13270110Y-13576920D02*
X13230110Y-13616920D01*
X13250210Y-12422950D02*
X13290210Y-12462950D01*
X13290210Y-12422950D02*
X13250210Y-12462950D01*
X13250210Y-13354870D02*
X13290210Y-13394870D01*
X13290210Y-13354870D02*
X13250210Y-13394870D01*
X13574960Y-12932620D02*
X13614960Y-12972620D01*
X13614960Y-12932620D02*
X13574960Y-12972620D01*
X13583110Y-13511090D02*
X13623110Y-13551090D01*
X13623110Y-13511090D02*
X13583110Y-13551090D01*
X13642890Y-13164140D02*
X13682890Y-13204140D01*
X13682890Y-13164140D02*
X13642890Y-13204140D01*
X13650770Y-9265500D02*
X13690770Y-9305500D01*
X13690770Y-9265500D02*
X13650770Y-9305500D01*
X13669300Y-9497120D02*
X13709300Y-9537120D01*
X13709300Y-9497120D02*
X13669300Y-9537120D01*
X13673930Y-13379500D02*
X13713930Y-13419500D01*
X13713930Y-13379500D02*
X13673930Y-13419500D01*
X13696000Y-8769750D02*
X13736000Y-8809750D01*
X13736000Y-8769750D02*
X13696000Y-8809750D01*
X13724250Y-13589720D02*
X13764250Y-13629720D01*
X13764250Y-13589720D02*
X13724250Y-13629720D01*
X13786350Y-9500080D02*
X13826350Y-9540080D01*
X13826350Y-9500080D02*
X13786350Y-9540080D01*
X13795980Y-12719130D02*
X13835980Y-12759130D01*
X13835980Y-12719130D02*
X13795980Y-12759130D01*
X13806640Y-7900720D02*
X13846640Y-7940720D01*
X13846640Y-7900720D02*
X13806640Y-7940720D01*
X13809800Y-13407950D02*
X13849800Y-13447950D01*
X13849800Y-13407950D02*
X13809800Y-13447950D01*
X13819860Y-12422950D02*
X13859860Y-12462950D01*
X13859860Y-12422950D02*
X13819860Y-12462950D01*
X13825950Y-12593720D02*
X13865950Y-12633720D01*
X13865950Y-12593720D02*
X13825950Y-12633720D01*
X13828920Y-7675260D02*
X13868920Y-7715260D01*
X13868920Y-7675260D02*
X13828920Y-7715260D01*
X13876640Y-12799460D02*
X13916640Y-12839460D01*
X13916640Y-12799460D02*
X13876640Y-12839460D01*
X13877230Y-13883370D02*
X13917230Y-13923370D01*
X13917230Y-13883370D02*
X13877230Y-13923370D01*
X13883900Y-11235520D02*
X13923900Y-11275520D01*
X13923900Y-11235520D02*
X13883900Y-11275520D01*
X13937850Y-9397580D02*
X13977850Y-9437580D01*
X13977850Y-9397580D02*
X13937850Y-9437580D01*
X13955400Y-12620030D02*
X13995400Y-12660030D01*
X13995400Y-12620030D02*
X13955400Y-12660030D01*
X14003230Y-11986180D02*
X14043230Y-12026180D01*
X14043230Y-11986180D02*
X14003230Y-12026180D01*
X14023360Y-12953340D02*
X14063360Y-12993340D01*
X14063360Y-12953340D02*
X14023360Y-12993340D01*
X14026780Y-11654140D02*
X14066780Y-11694140D01*
X14066780Y-11654140D02*
X14026780Y-11694140D01*
X14077820Y-11394600D02*
X14117820Y-11434600D01*
X14117820Y-11394600D02*
X14077820Y-11434600D01*
X14084020Y-13589040D02*
X14124020Y-13629040D01*
X14124020Y-13589040D02*
X14084020Y-13629040D01*
X14104470Y-11778760D02*
X14144470Y-11818760D01*
X14144470Y-11778760D02*
X14104470Y-11818760D01*
X14126400Y-12628790D02*
X14166400Y-12668790D01*
X14166400Y-12628790D02*
X14126400Y-12668790D01*
X14148170Y-12137820D02*
X14188170Y-12177820D01*
X14188170Y-12137820D02*
X14148170Y-12177820D01*
X14186960Y-13909400D02*
X14226960Y-13949400D01*
X14226960Y-13909400D02*
X14186960Y-13949400D01*
X14248330Y-13652540D02*
X14288330Y-13692540D01*
X14288330Y-13652540D02*
X14248330Y-13692540D01*
X14276830Y-10644160D02*
X14316830Y-10684160D01*
X14316830Y-10644160D02*
X14276830Y-10684160D01*
X14316620Y-13392670D02*
X14356620Y-13432670D01*
X14356620Y-13392670D02*
X14316620Y-13432670D01*
X14322830Y-10906810D02*
X14362830Y-10946810D01*
X14362830Y-10906810D02*
X14322830Y-10946810D01*
X14324350Y-12689070D02*
X14364350Y-12729070D01*
X14364350Y-12689070D02*
X14324350Y-12729070D01*
X14382680Y-12310480D02*
X14422680Y-12350480D01*
X14422680Y-12310480D02*
X14382680Y-12350480D01*
X14387800Y-10662710D02*
X14427800Y-10702710D01*
X14427800Y-10662710D02*
X14387800Y-10702710D01*
X14392720Y-13647200D02*
X14432720Y-13687200D01*
X14432720Y-13647200D02*
X14392720Y-13687200D01*
X14395990Y-12946460D02*
X14435990Y-12986460D01*
X14435990Y-12946460D02*
X14395990Y-12986460D01*
X14405760Y-10977490D02*
X14445760Y-11017490D01*
X14445760Y-10977490D02*
X14405760Y-11017490D01*
X14459540Y-13565980D02*
X14499540Y-13605980D01*
X14499540Y-13565980D02*
X14459540Y-13605980D01*
X14510420Y-11082180D02*
X14550420Y-11122180D01*
X14550420Y-11082180D02*
X14510420Y-11122180D01*
X14514980Y-10810220D02*
X14554980Y-10850220D01*
X14554980Y-10810220D02*
X14514980Y-10850220D01*
X14519710Y-11847830D02*
X14559710Y-11887830D01*
X14559710Y-11847830D02*
X14519710Y-11887830D01*
X14540380Y-12513850D02*
X14580380Y-12553850D01*
X14580380Y-12513850D02*
X14540380Y-12553850D01*
X14555190Y-13514770D02*
X14595190Y-13554770D01*
X14595190Y-13514770D02*
X14555190Y-13554770D01*
X14582860Y-11341320D02*
X14622860Y-11381320D01*
X14622860Y-11341320D02*
X14582860Y-11381320D01*
X14597140Y-11780710D02*
X14637140Y-11820710D01*
X14637140Y-11780710D02*
X14597140Y-11820710D01*
X14623120Y-13295380D02*
X14663120Y-13335380D01*
X14663120Y-13295380D02*
X14623120Y-13335380D01*
X14627290Y-12586510D02*
X14667290Y-12626510D01*
X14667290Y-12586510D02*
X14627290Y-12626510D01*
X14686870Y-13173160D02*
X14726870Y-13213160D01*
X14726870Y-13173160D02*
X14686870Y-13213160D01*
X14695640Y-12516010D02*
X14735640Y-12556010D01*
X14735640Y-12516010D02*
X14695640Y-12556010D01*
X14695700Y-11420350D02*
X14735700Y-11460350D01*
X14735700Y-11420350D02*
X14695700Y-11460350D01*
X14697340Y-11943750D02*
X14737340Y-11983750D01*
X14737340Y-11943750D02*
X14697340Y-11983750D01*
X14719550Y-13571670D02*
X14759550Y-13611670D01*
X14759550Y-13571670D02*
X14719550Y-13611670D01*
X14728600Y-7785820D02*
X14768600Y-7825820D01*
X14768600Y-7785820D02*
X14728600Y-7825820D01*
X14750140Y-12959150D02*
X14790140Y-12999150D01*
X14790140Y-12959150D02*
X14750140Y-12999150D01*
X14793420Y-13465390D02*
X14833420Y-13505390D01*
X14833420Y-13465390D02*
X14793420Y-13505390D01*
X14814660Y-13029640D02*
X14854660Y-13069640D01*
X14854660Y-13029640D02*
X14814660Y-13069640D01*
X14863200Y-13139480D02*
X14903200Y-13179480D01*
X14903200Y-13139480D02*
X14863200Y-13179480D01*
X14926440Y-12926350D02*
X14966440Y-12966350D01*
X14966440Y-12926350D02*
X14926440Y-12966350D01*
X14948830Y-10823830D02*
X14988830Y-10863830D01*
X14988830Y-10823830D02*
X14948830Y-10863830D01*
X14957410Y-12633490D02*
X14997410Y-12673490D01*
X14997410Y-12633490D02*
X14957410Y-12673490D01*
X14970940Y-11711320D02*
X15010940Y-11751320D01*
X15010940Y-11711320D02*
X14970940Y-11751320D01*
X15001700Y-13751110D02*
X15041700Y-13791110D01*
X15041700Y-13751110D02*
X15001700Y-13791110D01*
X15022690Y-11952080D02*
X15062690Y-11992080D01*
X15062690Y-11952080D02*
X15022690Y-11992080D01*
X15031990Y-9394080D02*
X15071990Y-9434080D01*
X15071990Y-9394080D02*
X15031990Y-9434080D01*
X15053270Y-13504750D02*
X15093270Y-13544750D01*
X15093270Y-13504750D02*
X15053270Y-13544750D01*
X15059030Y-12440990D02*
X15099030Y-12480990D01*
X15099030Y-12440990D02*
X15059030Y-12480990D01*
X15061250Y-11817300D02*
X15101250Y-11857300D01*
X15101250Y-11817300D02*
X15061250Y-11857300D01*
X15074380Y-8673810D02*
X15114380Y-8713810D01*
X15114380Y-8673810D02*
X15074380Y-8713810D01*
X15151300Y-11951910D02*
X15191300Y-11991910D01*
X15191300Y-11951910D02*
X15151300Y-11991910D01*
X15155230Y-12863570D02*
X15195230Y-12903570D01*
X15195230Y-12863570D02*
X15155230Y-12903570D01*
X15166300Y-13415360D02*
X15206300Y-13455360D01*
X15206300Y-13415360D02*
X15166300Y-13455360D01*
X15190120Y-9526970D02*
X15230120Y-9566970D01*
X15230120Y-9526970D02*
X15190120Y-9566970D01*
X15245790Y-12909510D02*
X15285790Y-12949510D01*
X15285790Y-12909510D02*
X15245790Y-12949510D01*
X15249580Y-11620430D02*
X15289580Y-11660430D01*
X15289580Y-11620430D02*
X15249580Y-11660430D01*
X15274740Y-12328330D02*
X15314740Y-12368330D01*
X15314740Y-12328330D02*
X15274740Y-12368330D01*
X15312630Y-12767290D02*
X15352630Y-12807290D01*
X15352630Y-12767290D02*
X15312630Y-12807290D01*
X15332550Y-11677540D02*
X15372550Y-11717540D01*
X15372550Y-11677540D02*
X15332550Y-11717540D01*
X15448770Y-12590280D02*
X15488770Y-12630280D01*
X15488770Y-12590280D02*
X15448770Y-12630280D01*
X15466280Y-11645270D02*
X15506280Y-11685270D01*
X15506280Y-11645270D02*
X15466280Y-11685270D01*
X15486520Y-12214500D02*
X15526520Y-12254500D01*
X15526520Y-12214500D02*
X15486520Y-12254500D01*
X15512410Y-12471360D02*
X15552410Y-12511360D01*
X15552410Y-12471360D02*
X15512410Y-12511360D01*
X15533550Y-11880230D02*
X15573550Y-11920230D01*
X15573550Y-11880230D02*
X15533550Y-11920230D01*
X15534220Y-11360880D02*
X15574220Y-11400880D01*
X15574220Y-11360880D02*
X15534220Y-11400880D01*
X15583090Y-12401420D02*
X15623090Y-12441420D01*
X15623090Y-12401420D02*
X15583090Y-12441420D01*
X15604970Y-13249050D02*
X15644970Y-13289050D01*
X15644970Y-13249050D02*
X15604970Y-13289050D01*
X15631000Y-13790040D02*
X15671000Y-13830040D01*
X15671000Y-13790040D02*
X15631000Y-13830040D01*
X15656760Y-12737530D02*
X15696760Y-12777530D01*
X15696760Y-12737530D02*
X15656760Y-12777530D01*
X15660430Y-12322870D02*
X15700430Y-12362870D01*
X15700430Y-12322870D02*
X15660430Y-12362870D01*
X15698830Y-6969230D02*
X15738830Y-7009230D01*
X15738830Y-6969230D02*
X15698830Y-7009230D01*
X15700890Y-13668490D02*
X15740890Y-13708490D01*
X15740890Y-13668490D02*
X15700890Y-13708490D01*
X15747890Y-11879930D02*
X15787890Y-11919930D01*
X15787890Y-11879930D02*
X15747890Y-11919930D01*
X15775830Y-12772320D02*
X15815830Y-12812320D01*
X15815830Y-12772320D02*
X15775830Y-12812320D01*
X15790560Y-12131890D02*
X15830560Y-12171890D01*
X15830560Y-12131890D02*
X15790560Y-12171890D01*
X15834670Y-13741560D02*
X15874670Y-13781560D01*
X15874670Y-13741560D02*
X15834670Y-13781560D01*
X15835820Y-10904000D02*
X15875820Y-10944000D01*
X15875820Y-10904000D02*
X15835820Y-10944000D01*
X15873080Y-7550480D02*
X15913080Y-7590480D01*
X15913080Y-7550480D02*
X15873080Y-7590480D01*
X15917250Y-10746740D02*
X15957250Y-10786740D01*
X15957250Y-10746740D02*
X15917250Y-10786740D01*
X15934270Y-7968200D02*
X15974270Y-8008200D01*
X15974270Y-7968200D02*
X15934270Y-8008200D01*
X15959260Y-10481070D02*
X15999260Y-10521070D01*
X15999260Y-10481070D02*
X15959260Y-10521070D01*
X16012770Y-11794390D02*
X16052770Y-11834390D01*
X16052770Y-11794390D02*
X16012770Y-11834390D01*
X16030110Y-12609140D02*
X16070110Y-12649140D01*
X16070110Y-12609140D02*
X16030110Y-12649140D01*
X16034050Y-12204540D02*
X16074050Y-12244540D01*
X16074050Y-12204540D02*
X16034050Y-12244540D01*
X16113450Y-13636210D02*
X16153450Y-13676210D01*
X16153450Y-13636210D02*
X16113450Y-13676210D01*
X16172210Y-13319100D02*
X16212210Y-13359100D01*
X16212210Y-13319100D02*
X16172210Y-13359100D01*
X16187250Y-7860870D02*
X16227250Y-7900870D01*
X16227250Y-7860870D02*
X16187250Y-7900870D01*
X16226960Y-11639790D02*
X16266960Y-11679790D01*
X16266960Y-11639790D02*
X16226960Y-11679790D01*
X16258140Y-7986240D02*
X16298140Y-8026240D01*
X16298140Y-7986240D02*
X16258140Y-8026240D01*
X16292520Y-13431830D02*
X16332520Y-13471830D01*
X16332520Y-13431830D02*
X16292520Y-13471830D01*
X16295320Y-9895930D02*
X16335320Y-9935930D01*
X16335320Y-9895930D02*
X16295320Y-9935930D01*
X16359820Y-9977370D02*
X16399820Y-10017370D01*
X16399820Y-9977370D02*
X16359820Y-10017370D01*
X16360450Y-12413570D02*
X16400450Y-12453570D01*
X16400450Y-12413570D02*
X16360450Y-12453570D01*
X16430110Y-12333510D02*
X16470110Y-12373510D01*
X16470110Y-12333510D02*
X16430110Y-12373510D01*
X16544820Y-13356780D02*
X16584820Y-13396780D01*
X16584820Y-13356780D02*
X16544820Y-13396780D01*
X16550240Y-7597340D02*
X16590240Y-7637340D01*
X16590240Y-7597340D02*
X16550240Y-7637340D01*
X16719770Y-7620770D02*
X16759770Y-7660770D01*
X16759770Y-7620770D02*
X16719770Y-7660770D01*
X16719770Y-14038580D02*
X16759770Y-14078580D01*
X16759770Y-14038580D02*
X16719770Y-14078580D01*
X16948390Y-13756070D02*
X16988390Y-13796070D01*
X16988390Y-13756070D02*
X16948390Y-13796070D01*
X16974750Y-13915430D02*
X17014750Y-13955430D01*
X17014750Y-13915430D02*
X16974750Y-13955430D01*
X17118990Y-12377250D02*
X17158990Y-12417250D01*
X17158990Y-12377250D02*
X17118990Y-12417250D01*
X17121930Y-11423910D02*
X17161930Y-11463910D01*
X17161930Y-11423910D02*
X17121930Y-11463910D01*
X17331170Y-14465760D02*
X17371170Y-14505760D01*
X17371170Y-14465760D02*
X17331170Y-14505760D01*
X17399410Y-6913040D02*
X17439410Y-6953040D01*
X17439410Y-6913040D02*
X17399410Y-6953040D01*
X17475450Y-8967150D02*
X17515450Y-9007150D01*
X17515450Y-8967150D02*
X17475450Y-9007150D01*
X17558530Y-6218280D02*
X17598530Y-6258280D01*
X17598530Y-6218280D02*
X17558530Y-6258280D01*
D12*
X12486000Y-7543800D02*
G75*
G03*
X12486000Y-7543800I-40000J0D01*
G01*
X12486000Y-9067800D02*
G75*
G03*
X12486000Y-9067800I-40000J0D01*
G01*
X12740000Y-7543800D02*
G75*
G03*
X12740000Y-7543800I-40000J0D01*
G01*
X12740000Y-9067800D02*
G75*
G03*
X12740000Y-9067800I-40000J0D01*
G01*
X12994000Y-7543800D02*
G75*
G03*
X12994000Y-7543800I-40000J0D01*
G01*
X12994000Y-9067800D02*
G75*
G03*
X12994000Y-9067800I-40000J0D01*
G01*
X13248000Y-7543800D02*
G75*
G03*
X13248000Y-7543800I-40000J0D01*
G01*
X13248000Y-9067800D02*
G75*
G03*
X13248000Y-9067800I-40000J0D01*
G01*
X13375000Y-7797800D02*
G75*
G03*
X13375000Y-7797800I-40000J0D01*
G01*
X13502000Y-7543800D02*
G75*
G03*
X13502000Y-7543800I-40000J0D01*
G01*
X13502000Y-9067800D02*
G75*
G03*
X13502000Y-9067800I-40000J0D01*
G01*
X13629000Y-7797800D02*
G75*
G03*
X13629000Y-7797800I-40000J0D01*
G01*
X13756000Y-7543800D02*
G75*
G03*
X13756000Y-7543800I-40000J0D01*
G01*
X13756000Y-9067800D02*
G75*
G03*
X13756000Y-9067800I-40000J0D01*
G01*
X14010000Y-7543800D02*
G75*
G03*
X14010000Y-7543800I-40000J0D01*
G01*
X14010000Y-9067800D02*
G75*
G03*
X14010000Y-9067800I-40000J0D01*
G01*
X14264000Y-7543800D02*
G75*
G03*
X14264000Y-7543800I-40000J0D01*
G01*
X14264000Y-9067800D02*
G75*
G03*
X14264000Y-9067800I-40000J0D01*
G01*
X14391000Y-7797800D02*
G75*
G03*
X14391000Y-7797800I-40000J0D01*
G01*
X14518000Y-7543800D02*
G75*
G03*
X14518000Y-7543800I-40000J0D01*
G01*
X14518000Y-9067800D02*
G75*
G03*
X14518000Y-9067800I-40000J0D01*
G01*
X14645000Y-7797800D02*
G75*
G03*
X14645000Y-7797800I-40000J0D01*
G01*
X14772000Y-7543800D02*
G75*
G03*
X14772000Y-7543800I-40000J0D01*
G01*
X14772000Y-9067800D02*
G75*
G03*
X14772000Y-9067800I-40000J0D01*
G01*
X15026000Y-7543800D02*
G75*
G03*
X15026000Y-7543800I-40000J0D01*
G01*
X15026000Y-9067800D02*
G75*
G03*
X15026000Y-9067800I-40000J0D01*
G01*
X15280000Y-7543800D02*
G75*
G03*
X15280000Y-7543800I-40000J0D01*
G01*
X15280000Y-9067800D02*
G75*
G03*
X15280000Y-9067800I-40000J0D01*
G01*
D13*
X12268200Y-9500400D02*
X12268200Y-9600400D01*
X12218200Y-9550400D02*
X12318200Y-9550400D01*
X12268200Y-9754400D02*
X12268200Y-9854400D01*
X12218200Y-9804400D02*
X12318200Y-9804400D01*
X12434800Y-13285130D02*
X12434800Y-13385130D01*
X12384800Y-13335130D02*
X12484800Y-13335130D01*
X12455600Y-6173000D02*
X12455600Y-6273000D01*
X12405600Y-6223000D02*
X12505600Y-6223000D01*
X12455600Y-6683000D02*
X12455600Y-6783000D01*
X12405600Y-6733000D02*
X12505600Y-6733000D01*
X12655600Y-6173000D02*
X12655600Y-6273000D01*
X12605600Y-6223000D02*
X12705600Y-6223000D01*
X12655600Y-6683000D02*
X12655600Y-6783000D01*
X12605600Y-6733000D02*
X12705600Y-6733000D01*
X12688800Y-13285130D02*
X12688800Y-13385130D01*
X12638800Y-13335130D02*
X12738800Y-13335130D01*
X12855600Y-6173000D02*
X12855600Y-6273000D01*
X12805600Y-6223000D02*
X12905600Y-6223000D01*
X12855600Y-6683000D02*
X12855600Y-6783000D01*
X12805600Y-6733000D02*
X12905600Y-6733000D01*
X12942800Y-13285130D02*
X12942800Y-13385130D01*
X12892800Y-13335130D02*
X12992800Y-13335130D01*
X13055600Y-6173000D02*
X13055600Y-6273000D01*
X13005600Y-6223000D02*
X13105600Y-6223000D01*
X13055600Y-6683000D02*
X13055600Y-6783000D01*
X13005600Y-6733000D02*
X13105600Y-6733000D01*
X13255600Y-6173000D02*
X13255600Y-6273000D01*
X13205600Y-6223000D02*
X13305600Y-6223000D01*
X13255600Y-6683000D02*
X13255600Y-6783000D01*
X13205600Y-6733000D02*
X13305600Y-6733000D01*
X13455600Y-6173000D02*
X13455600Y-6273000D01*
X13405600Y-6223000D02*
X13505600Y-6223000D01*
X13455600Y-6683000D02*
X13455600Y-6783000D01*
X13405600Y-6733000D02*
X13505600Y-6733000D01*
X13655600Y-6173000D02*
X13655600Y-6273000D01*
X13605600Y-6223000D02*
X13705600Y-6223000D01*
X13655600Y-6683000D02*
X13655600Y-6783000D01*
X13605600Y-6733000D02*
X13705600Y-6733000D01*
X13855600Y-6173000D02*
X13855600Y-6273000D01*
X13805600Y-6223000D02*
X13905600Y-6223000D01*
X13855600Y-6683000D02*
X13855600Y-6783000D01*
X13805600Y-6733000D02*
X13905600Y-6733000D01*
X14055600Y-6173000D02*
X14055600Y-6273000D01*
X14005600Y-6223000D02*
X14105600Y-6223000D01*
X14055600Y-6683000D02*
X14055600Y-6783000D01*
X14005600Y-6733000D02*
X14105600Y-6733000D01*
X14255600Y-6173000D02*
X14255600Y-6273000D01*
X14205600Y-6223000D02*
X14305600Y-6223000D01*
X14255600Y-6683000D02*
X14255600Y-6783000D01*
X14205600Y-6733000D02*
X14305600Y-6733000D01*
X14455600Y-6173000D02*
X14455600Y-6273000D01*
X14405600Y-6223000D02*
X14505600Y-6223000D01*
X14455600Y-6683000D02*
X14455600Y-6783000D01*
X14405600Y-6733000D02*
X14505600Y-6733000D01*
X14655600Y-6173000D02*
X14655600Y-6273000D01*
X14605600Y-6223000D02*
X14705600Y-6223000D01*
X14655600Y-6683000D02*
X14655600Y-6783000D01*
X14605600Y-6733000D02*
X14705600Y-6733000D01*
X14855600Y-6173000D02*
X14855600Y-6273000D01*
X14805600Y-6223000D02*
X14905600Y-6223000D01*
X14855600Y-6683000D02*
X14855600Y-6783000D01*
X14805600Y-6733000D02*
X14905600Y-6733000D01*
X15055600Y-6173000D02*
X15055600Y-6273000D01*
X15005600Y-6223000D02*
X15105600Y-6223000D01*
X15055600Y-6683000D02*
X15055600Y-6783000D01*
X15005600Y-6733000D02*
X15105600Y-6733000D01*
X15255600Y-6173000D02*
X15255600Y-6273000D01*
X15205600Y-6223000D02*
X15305600Y-6223000D01*
X15255600Y-6683000D02*
X15255600Y-6783000D01*
X15205600Y-6733000D02*
X15305600Y-6733000D01*
X15455600Y-6173000D02*
X15455600Y-6273000D01*
X15405600Y-6223000D02*
X15505600Y-6223000D01*
X15455600Y-6683000D02*
X15455600Y-6783000D01*
X15405600Y-6733000D02*
X15505600Y-6733000D01*
X15655600Y-6173000D02*
X15655600Y-6273000D01*
X15605600Y-6223000D02*
X15705600Y-6223000D01*
X15655600Y-6683000D02*
X15655600Y-6783000D01*
X15605600Y-6733000D02*
X15705600Y-6733000D01*
X15773400Y-7722400D02*
X15773400Y-7822400D01*
X15723400Y-7772400D02*
X15823400Y-7772400D01*
X15773400Y-7976400D02*
X15773400Y-8076400D01*
X15723400Y-8026400D02*
X15823400Y-8026400D01*
X15773400Y-8230400D02*
X15773400Y-8330400D01*
X15723400Y-8280400D02*
X15823400Y-8280400D01*
X15773400Y-8484400D02*
X15773400Y-8584400D01*
X15723400Y-8534400D02*
X15823400Y-8534400D01*
X15773400Y-8738400D02*
X15773400Y-8838400D01*
X15723400Y-8788400D02*
X15823400Y-8788400D01*
X15773400Y-8992400D02*
X15773400Y-9092400D01*
X15723400Y-9042400D02*
X15823400Y-9042400D01*
X15855600Y-6173000D02*
X15855600Y-6273000D01*
X15805600Y-6223000D02*
X15905600Y-6223000D01*
X15855600Y-6683000D02*
X15855600Y-6783000D01*
X15805600Y-6733000D02*
X15905600Y-6733000D01*
X16055600Y-6173000D02*
X16055600Y-6273000D01*
X16005600Y-6223000D02*
X16105600Y-6223000D01*
X16055600Y-6683000D02*
X16055600Y-6783000D01*
X16005600Y-6733000D02*
X16105600Y-6733000D01*
X16255600Y-6173000D02*
X16255600Y-6273000D01*
X16205600Y-6223000D02*
X16305600Y-6223000D01*
X16255600Y-6683000D02*
X16255600Y-6783000D01*
X16205600Y-6733000D02*
X16305600Y-6733000D01*
X16455600Y-6173000D02*
X16455600Y-6273000D01*
X16405600Y-6223000D02*
X16505600Y-6223000D01*
X16455600Y-6683000D02*
X16455600Y-6783000D01*
X16405600Y-6733000D02*
X16505600Y-6733000D01*
X16655600Y-6173000D02*
X16655600Y-6273000D01*
X16605600Y-6223000D02*
X16705600Y-6223000D01*
X16655600Y-6683000D02*
X16655600Y-6783000D01*
X16605600Y-6733000D02*
X16705600Y-6733000D01*
X16855600Y-6173000D02*
X16855600Y-6273000D01*
X16805600Y-6223000D02*
X16905600Y-6223000D01*
X16855600Y-6683000D02*
X16855600Y-6783000D01*
X16805600Y-6733000D02*
X16905600Y-6733000D01*
X17055600Y-6173000D02*
X17055600Y-6273000D01*
X17005600Y-6223000D02*
X17105600Y-6223000D01*
X17055600Y-6683000D02*
X17055600Y-6783000D01*
X17005600Y-6733000D02*
X17105600Y-6733000D01*
X17255600Y-6173000D02*
X17255600Y-6273000D01*
X17205600Y-6223000D02*
X17305600Y-6223000D01*
X17255600Y-6683000D02*
X17255600Y-6783000D01*
X17205600Y-6733000D02*
X17305600Y-6733000D01*
X17373100Y-13031000D02*
X17373100Y-13131000D01*
X17323100Y-13081000D02*
X17423100Y-13081000D01*
X17373100Y-13285000D02*
X17373100Y-13385000D01*
X17323100Y-13335000D02*
X17423100Y-13335000D01*
X17373600Y-11126000D02*
X17373600Y-11226000D01*
X17323600Y-11176000D02*
X17423600Y-11176000D01*
X17373600Y-11380000D02*
X17373600Y-11480000D01*
X17323600Y-11430000D02*
X17423600Y-11430000D01*
X17373600Y-11634000D02*
X17373600Y-11734000D01*
X17323600Y-11684000D02*
X17423600Y-11684000D01*
X17373600Y-11888000D02*
X17373600Y-11988000D01*
X17323600Y-11938000D02*
X17423600Y-11938000D01*
X17373600Y-12142000D02*
X17373600Y-12242000D01*
X17323600Y-12192000D02*
X17423600Y-12192000D01*
X17373600Y-12396000D02*
X17373600Y-12496000D01*
X17323600Y-12446000D02*
X17423600Y-12446000D01*
D10*
X12305229Y-15363336D02*
X12305229Y-15163336D01*
X12352848Y-15163336D01*
X12381419Y-15172860D01*
X12400467Y-15191908D01*
X12409991Y-15210955D01*
X12419515Y-15249050D01*
X12419515Y-15277622D01*
X12409991Y-15315717D01*
X12400467Y-15334765D01*
X12381419Y-15353812D01*
X12352848Y-15363336D01*
X12305229Y-15363336D01*
X12505229Y-15363336D02*
X12505229Y-15230003D01*
X12505229Y-15268098D02*
X12514753Y-15249050D01*
X12524277Y-15239527D01*
X12543324Y-15230003D01*
X12562372Y-15230003D01*
X12629038Y-15363336D02*
X12629038Y-15230003D01*
X12629038Y-15163336D02*
X12619515Y-15172860D01*
X12629038Y-15182384D01*
X12638562Y-15172860D01*
X12629038Y-15163336D01*
X12629038Y-15182384D01*
X12752848Y-15363336D02*
X12733800Y-15353812D01*
X12724277Y-15334765D01*
X12724277Y-15163336D01*
X12857610Y-15363336D02*
X12838562Y-15353812D01*
X12829038Y-15334765D01*
X12829038Y-15163336D01*
X13086181Y-15363336D02*
X13086181Y-15163336D01*
X13152848Y-15306193D01*
X13219515Y-15163336D01*
X13219515Y-15363336D01*
X13400467Y-15363336D02*
X13400467Y-15258574D01*
X13390943Y-15239527D01*
X13371896Y-15230003D01*
X13333800Y-15230003D01*
X13314753Y-15239527D01*
X13400467Y-15353812D02*
X13381419Y-15363336D01*
X13333800Y-15363336D01*
X13314753Y-15353812D01*
X13305229Y-15334765D01*
X13305229Y-15315717D01*
X13314753Y-15296669D01*
X13333800Y-15287146D01*
X13381419Y-15287146D01*
X13400467Y-15277622D01*
X13495705Y-15230003D02*
X13495705Y-15430003D01*
X13495705Y-15239527D02*
X13514753Y-15230003D01*
X13552848Y-15230003D01*
X13571896Y-15239527D01*
X13581419Y-15249050D01*
X13590943Y-15268098D01*
X13590943Y-15325241D01*
X13581419Y-15344288D01*
X13571896Y-15353812D01*
X13552848Y-15363336D01*
X13514753Y-15363336D01*
X13495705Y-15353812D01*
X13676658Y-15344288D02*
X13686181Y-15353812D01*
X13676658Y-15363336D01*
X13667134Y-15353812D01*
X13676658Y-15344288D01*
X13676658Y-15363336D01*
X13676658Y-15239527D02*
X13686181Y-15249050D01*
X13676658Y-15258574D01*
X13667134Y-15249050D01*
X13676658Y-15239527D01*
X13676658Y-15258574D01*
D11*
X12007610Y-15672860D02*
X12047610Y-15712860D01*
X12047610Y-15672860D02*
X12007610Y-15712860D01*
D10*
X12343324Y-15583336D02*
X12362372Y-15583336D01*
X12381419Y-15592860D01*
X12390943Y-15602384D01*
X12400467Y-15621431D01*
X12409991Y-15659527D01*
X12409991Y-15707146D01*
X12400467Y-15745241D01*
X12390943Y-15764288D01*
X12381419Y-15773812D01*
X12362372Y-15783336D01*
X12343324Y-15783336D01*
X12324277Y-15773812D01*
X12314753Y-15764288D01*
X12305229Y-15745241D01*
X12295705Y-15707146D01*
X12295705Y-15659527D01*
X12305229Y-15621431D01*
X12314753Y-15602384D01*
X12324277Y-15592860D01*
X12343324Y-15583336D01*
X12495705Y-15764288D02*
X12505229Y-15773812D01*
X12495705Y-15783336D01*
X12486181Y-15773812D01*
X12495705Y-15764288D01*
X12495705Y-15783336D01*
X12676658Y-15650003D02*
X12676658Y-15783336D01*
X12629038Y-15573812D02*
X12581419Y-15716669D01*
X12705229Y-15716669D01*
X12819515Y-15583336D02*
X12838562Y-15583336D01*
X12857610Y-15592860D01*
X12867134Y-15602384D01*
X12876658Y-15621431D01*
X12886181Y-15659527D01*
X12886181Y-15707146D01*
X12876658Y-15745241D01*
X12867134Y-15764288D01*
X12857610Y-15773812D01*
X12838562Y-15783336D01*
X12819515Y-15783336D01*
X12800467Y-15773812D01*
X12790943Y-15764288D01*
X12781419Y-15745241D01*
X12771896Y-15707146D01*
X12771896Y-15659527D01*
X12781419Y-15621431D01*
X12790943Y-15602384D01*
X12800467Y-15592860D01*
X12819515Y-15583336D01*
X13009991Y-15583336D02*
X13029038Y-15583336D01*
X13048086Y-15592860D01*
X13057610Y-15602384D01*
X13067134Y-15621431D01*
X13076658Y-15659527D01*
X13076658Y-15707146D01*
X13067134Y-15745241D01*
X13057610Y-15764288D01*
X13048086Y-15773812D01*
X13029038Y-15783336D01*
X13009991Y-15783336D01*
X12990943Y-15773812D01*
X12981419Y-15764288D01*
X12971896Y-15745241D01*
X12962372Y-15707146D01*
X12962372Y-15659527D01*
X12971896Y-15621431D01*
X12981419Y-15602384D01*
X12990943Y-15592860D01*
X13009991Y-15583336D01*
X13162372Y-15783336D02*
X13162372Y-15650003D01*
X13162372Y-15669050D02*
X13171896Y-15659527D01*
X13190943Y-15650003D01*
X13219515Y-15650003D01*
X13238562Y-15659527D01*
X13248086Y-15678574D01*
X13248086Y-15783336D01*
X13248086Y-15678574D02*
X13257610Y-15659527D01*
X13276658Y-15650003D01*
X13305229Y-15650003D01*
X13324277Y-15659527D01*
X13333800Y-15678574D01*
X13333800Y-15783336D01*
X13429038Y-15783336D02*
X13429038Y-15650003D01*
X13429038Y-15669050D02*
X13438562Y-15659527D01*
X13457610Y-15650003D01*
X13486181Y-15650003D01*
X13505229Y-15659527D01*
X13514753Y-15678574D01*
X13514753Y-15783336D01*
X13514753Y-15678574D02*
X13524277Y-15659527D01*
X13543324Y-15650003D01*
X13571896Y-15650003D01*
X13590943Y-15659527D01*
X13600467Y-15678574D01*
X13600467Y-15783336D01*
X13990943Y-15573812D02*
X13819515Y-15830955D01*
X14248086Y-15583336D02*
X14267134Y-15583336D01*
X14286181Y-15592860D01*
X14295705Y-15602384D01*
X14305229Y-15621431D01*
X14314753Y-15659527D01*
X14314753Y-15707146D01*
X14305229Y-15745241D01*
X14295705Y-15764288D01*
X14286181Y-15773812D01*
X14267134Y-15783336D01*
X14248086Y-15783336D01*
X14229038Y-15773812D01*
X14219515Y-15764288D01*
X14209991Y-15745241D01*
X14200467Y-15707146D01*
X14200467Y-15659527D01*
X14209991Y-15621431D01*
X14219515Y-15602384D01*
X14229038Y-15592860D01*
X14248086Y-15583336D01*
X14400467Y-15764288D02*
X14409991Y-15773812D01*
X14400467Y-15783336D01*
X14390943Y-15773812D01*
X14400467Y-15764288D01*
X14400467Y-15783336D01*
X14533800Y-15583336D02*
X14552848Y-15583336D01*
X14571896Y-15592860D01*
X14581419Y-15602384D01*
X14590943Y-15621431D01*
X14600467Y-15659527D01*
X14600467Y-15707146D01*
X14590943Y-15745241D01*
X14581419Y-15764288D01*
X14571896Y-15773812D01*
X14552848Y-15783336D01*
X14533800Y-15783336D01*
X14514753Y-15773812D01*
X14505229Y-15764288D01*
X14495705Y-15745241D01*
X14486181Y-15707146D01*
X14486181Y-15659527D01*
X14495705Y-15621431D01*
X14505229Y-15602384D01*
X14514753Y-15592860D01*
X14533800Y-15583336D01*
X14790943Y-15783336D02*
X14676658Y-15783336D01*
X14733800Y-15783336D02*
X14733800Y-15583336D01*
X14714753Y-15611908D01*
X14695705Y-15630955D01*
X14676658Y-15640479D01*
X14971896Y-15583336D02*
X14876658Y-15583336D01*
X14867134Y-15678574D01*
X14876658Y-15669050D01*
X14895705Y-15659527D01*
X14943324Y-15659527D01*
X14962372Y-15669050D01*
X14971896Y-15678574D01*
X14981419Y-15697622D01*
X14981419Y-15745241D01*
X14971896Y-15764288D01*
X14962372Y-15773812D01*
X14943324Y-15783336D01*
X14895705Y-15783336D01*
X14876658Y-15773812D01*
X14867134Y-15764288D01*
X15048086Y-15583336D02*
X15181419Y-15583336D01*
X15095705Y-15783336D01*
X15248086Y-15583336D02*
X15248086Y-15621431D01*
X15324277Y-15583336D02*
X15324277Y-15621431D01*
X15619515Y-15859527D02*
X15609991Y-15850003D01*
X15590943Y-15821431D01*
X15581419Y-15802384D01*
X15571896Y-15773812D01*
X15562372Y-15726193D01*
X15562372Y-15688098D01*
X15571896Y-15640479D01*
X15581419Y-15611908D01*
X15590943Y-15592860D01*
X15609991Y-15564288D01*
X15619515Y-15554765D01*
X15800467Y-15783336D02*
X15686181Y-15783336D01*
X15743324Y-15783336D02*
X15743324Y-15583336D01*
X15724277Y-15611908D01*
X15705229Y-15630955D01*
X15686181Y-15640479D01*
X15971896Y-15650003D02*
X15971896Y-15783336D01*
X15924277Y-15573812D02*
X15876658Y-15716669D01*
X16000467Y-15716669D01*
X16057610Y-15583336D02*
X16181419Y-15583336D01*
X16114753Y-15659527D01*
X16143324Y-15659527D01*
X16162372Y-15669050D01*
X16171896Y-15678574D01*
X16181419Y-15697622D01*
X16181419Y-15745241D01*
X16171896Y-15764288D01*
X16162372Y-15773812D01*
X16143324Y-15783336D01*
X16086181Y-15783336D01*
X16067134Y-15773812D01*
X16057610Y-15764288D01*
X16419515Y-15783336D02*
X16419515Y-15583336D01*
X16505229Y-15783336D02*
X16505229Y-15678574D01*
X16495705Y-15659527D01*
X16476658Y-15650003D01*
X16448086Y-15650003D01*
X16429038Y-15659527D01*
X16419515Y-15669050D01*
X16629038Y-15783336D02*
X16609991Y-15773812D01*
X16600467Y-15764288D01*
X16590943Y-15745241D01*
X16590943Y-15688098D01*
X16600467Y-15669050D01*
X16609991Y-15659527D01*
X16629038Y-15650003D01*
X16657610Y-15650003D01*
X16676658Y-15659527D01*
X16686181Y-15669050D01*
X16695705Y-15688098D01*
X16695705Y-15745241D01*
X16686181Y-15764288D01*
X16676658Y-15773812D01*
X16657610Y-15783336D01*
X16629038Y-15783336D01*
X16809991Y-15783336D02*
X16790943Y-15773812D01*
X16781420Y-15754765D01*
X16781420Y-15583336D01*
X16962372Y-15773812D02*
X16943324Y-15783336D01*
X16905229Y-15783336D01*
X16886181Y-15773812D01*
X16876658Y-15754765D01*
X16876658Y-15678574D01*
X16886181Y-15659527D01*
X16905229Y-15650003D01*
X16943324Y-15650003D01*
X16962372Y-15659527D01*
X16971896Y-15678574D01*
X16971896Y-15697622D01*
X16876658Y-15716669D01*
X17048086Y-15773812D02*
X17067134Y-15783336D01*
X17105229Y-15783336D01*
X17124277Y-15773812D01*
X17133800Y-15754765D01*
X17133800Y-15745241D01*
X17124277Y-15726193D01*
X17105229Y-15716669D01*
X17076658Y-15716669D01*
X17057610Y-15707146D01*
X17048086Y-15688098D01*
X17048086Y-15678574D01*
X17057610Y-15659527D01*
X17076658Y-15650003D01*
X17105229Y-15650003D01*
X17124277Y-15659527D01*
X17200467Y-15859527D02*
X17209991Y-15850003D01*
X17229039Y-15821431D01*
X17238562Y-15802384D01*
X17248086Y-15773812D01*
X17257610Y-15726193D01*
X17257610Y-15688098D01*
X17248086Y-15640479D01*
X17238562Y-15611908D01*
X17229039Y-15592860D01*
X17209991Y-15564288D01*
X17200467Y-15554765D01*
D12*
X12047610Y-15956860D02*
G75*
G03*
X12047610Y-15956860I-40000J0D01*
G01*
D10*
X12343324Y-15847336D02*
X12362372Y-15847336D01*
X12381419Y-15856860D01*
X12390943Y-15866384D01*
X12400467Y-15885431D01*
X12409991Y-15923527D01*
X12409991Y-15971146D01*
X12400467Y-16009241D01*
X12390943Y-16028288D01*
X12381419Y-16037812D01*
X12362372Y-16047336D01*
X12343324Y-16047336D01*
X12324277Y-16037812D01*
X12314753Y-16028288D01*
X12305229Y-16009241D01*
X12295705Y-15971146D01*
X12295705Y-15923527D01*
X12305229Y-15885431D01*
X12314753Y-15866384D01*
X12324277Y-15856860D01*
X12343324Y-15847336D01*
X12495705Y-16028288D02*
X12505229Y-16037812D01*
X12495705Y-16047336D01*
X12486181Y-16037812D01*
X12495705Y-16028288D01*
X12495705Y-16047336D01*
X12619515Y-15933050D02*
X12600467Y-15923527D01*
X12590943Y-15914003D01*
X12581419Y-15894955D01*
X12581419Y-15885431D01*
X12590943Y-15866384D01*
X12600467Y-15856860D01*
X12619515Y-15847336D01*
X12657610Y-15847336D01*
X12676658Y-15856860D01*
X12686181Y-15866384D01*
X12695705Y-15885431D01*
X12695705Y-15894955D01*
X12686181Y-15914003D01*
X12676658Y-15923527D01*
X12657610Y-15933050D01*
X12619515Y-15933050D01*
X12600467Y-15942574D01*
X12590943Y-15952098D01*
X12581419Y-15971146D01*
X12581419Y-16009241D01*
X12590943Y-16028288D01*
X12600467Y-16037812D01*
X12619515Y-16047336D01*
X12657610Y-16047336D01*
X12676658Y-16037812D01*
X12686181Y-16028288D01*
X12695705Y-16009241D01*
X12695705Y-15971146D01*
X12686181Y-15952098D01*
X12676658Y-15942574D01*
X12657610Y-15933050D01*
X12819515Y-15847336D02*
X12838562Y-15847336D01*
X12857610Y-15856860D01*
X12867134Y-15866384D01*
X12876658Y-15885431D01*
X12886181Y-15923527D01*
X12886181Y-15971146D01*
X12876658Y-16009241D01*
X12867134Y-16028288D01*
X12857610Y-16037812D01*
X12838562Y-16047336D01*
X12819515Y-16047336D01*
X12800467Y-16037812D01*
X12790943Y-16028288D01*
X12781419Y-16009241D01*
X12771896Y-15971146D01*
X12771896Y-15923527D01*
X12781419Y-15885431D01*
X12790943Y-15866384D01*
X12800467Y-15856860D01*
X12819515Y-15847336D01*
X13009991Y-15847336D02*
X13029038Y-15847336D01*
X13048086Y-15856860D01*
X13057610Y-15866384D01*
X13067134Y-15885431D01*
X13076658Y-15923527D01*
X13076658Y-15971146D01*
X13067134Y-16009241D01*
X13057610Y-16028288D01*
X13048086Y-16037812D01*
X13029038Y-16047336D01*
X13009991Y-16047336D01*
X12990943Y-16037812D01*
X12981419Y-16028288D01*
X12971896Y-16009241D01*
X12962372Y-15971146D01*
X12962372Y-15923527D01*
X12971896Y-15885431D01*
X12981419Y-15866384D01*
X12990943Y-15856860D01*
X13009991Y-15847336D01*
X13162372Y-16047336D02*
X13162372Y-15914003D01*
X13162372Y-15933050D02*
X13171896Y-15923527D01*
X13190943Y-15914003D01*
X13219515Y-15914003D01*
X13238562Y-15923527D01*
X13248086Y-15942574D01*
X13248086Y-16047336D01*
X13248086Y-15942574D02*
X13257610Y-15923527D01*
X13276658Y-15914003D01*
X13305229Y-15914003D01*
X13324277Y-15923527D01*
X13333800Y-15942574D01*
X13333800Y-16047336D01*
X13429038Y-16047336D02*
X13429038Y-15914003D01*
X13429038Y-15933050D02*
X13438562Y-15923527D01*
X13457610Y-15914003D01*
X13486181Y-15914003D01*
X13505229Y-15923527D01*
X13514753Y-15942574D01*
X13514753Y-16047336D01*
X13514753Y-15942574D02*
X13524277Y-15923527D01*
X13543324Y-15914003D01*
X13571896Y-15914003D01*
X13590943Y-15923527D01*
X13600467Y-15942574D01*
X13600467Y-16047336D01*
X13990943Y-15837812D02*
X13819515Y-16094955D01*
X14248086Y-15847336D02*
X14267134Y-15847336D01*
X14286181Y-15856860D01*
X14295705Y-15866384D01*
X14305229Y-15885431D01*
X14314753Y-15923527D01*
X14314753Y-15971146D01*
X14305229Y-16009241D01*
X14295705Y-16028288D01*
X14286181Y-16037812D01*
X14267134Y-16047336D01*
X14248086Y-16047336D01*
X14229038Y-16037812D01*
X14219515Y-16028288D01*
X14209991Y-16009241D01*
X14200467Y-15971146D01*
X14200467Y-15923527D01*
X14209991Y-15885431D01*
X14219515Y-15866384D01*
X14229038Y-15856860D01*
X14248086Y-15847336D01*
X14400467Y-16028288D02*
X14409991Y-16037812D01*
X14400467Y-16047336D01*
X14390943Y-16037812D01*
X14400467Y-16028288D01*
X14400467Y-16047336D01*
X14533800Y-15847336D02*
X14552848Y-15847336D01*
X14571896Y-15856860D01*
X14581419Y-15866384D01*
X14590943Y-15885431D01*
X14600467Y-15923527D01*
X14600467Y-15971146D01*
X14590943Y-16009241D01*
X14581419Y-16028288D01*
X14571896Y-16037812D01*
X14552848Y-16047336D01*
X14533800Y-16047336D01*
X14514753Y-16037812D01*
X14505229Y-16028288D01*
X14495705Y-16009241D01*
X14486181Y-15971146D01*
X14486181Y-15923527D01*
X14495705Y-15885431D01*
X14505229Y-15866384D01*
X14514753Y-15856860D01*
X14533800Y-15847336D01*
X14667134Y-15847336D02*
X14790943Y-15847336D01*
X14724277Y-15923527D01*
X14752848Y-15923527D01*
X14771896Y-15933050D01*
X14781419Y-15942574D01*
X14790943Y-15961622D01*
X14790943Y-16009241D01*
X14781419Y-16028288D01*
X14771896Y-16037812D01*
X14752848Y-16047336D01*
X14695705Y-16047336D01*
X14676658Y-16037812D01*
X14667134Y-16028288D01*
X14981419Y-16047336D02*
X14867134Y-16047336D01*
X14924277Y-16047336D02*
X14924277Y-15847336D01*
X14905229Y-15875908D01*
X14886181Y-15894955D01*
X14867134Y-15904479D01*
X15162372Y-15847336D02*
X15067134Y-15847336D01*
X15057610Y-15942574D01*
X15067134Y-15933050D01*
X15086181Y-15923527D01*
X15133800Y-15923527D01*
X15152848Y-15933050D01*
X15162372Y-15942574D01*
X15171896Y-15961622D01*
X15171896Y-16009241D01*
X15162372Y-16028288D01*
X15152848Y-16037812D01*
X15133800Y-16047336D01*
X15086181Y-16047336D01*
X15067134Y-16037812D01*
X15057610Y-16028288D01*
X15248086Y-15847336D02*
X15248086Y-15885431D01*
X15324277Y-15847336D02*
X15324277Y-15885431D01*
X15619515Y-16123527D02*
X15609991Y-16114003D01*
X15590943Y-16085431D01*
X15581419Y-16066384D01*
X15571896Y-16037812D01*
X15562372Y-15990193D01*
X15562372Y-15952098D01*
X15571896Y-15904479D01*
X15581419Y-15875908D01*
X15590943Y-15856860D01*
X15609991Y-15828288D01*
X15619515Y-15818765D01*
X15686181Y-15866384D02*
X15695705Y-15856860D01*
X15714753Y-15847336D01*
X15762372Y-15847336D01*
X15781419Y-15856860D01*
X15790943Y-15866384D01*
X15800467Y-15885431D01*
X15800467Y-15904479D01*
X15790943Y-15933050D01*
X15676658Y-16047336D01*
X15800467Y-16047336D01*
X15914753Y-15933050D02*
X15895705Y-15923527D01*
X15886181Y-15914003D01*
X15876658Y-15894955D01*
X15876658Y-15885431D01*
X15886181Y-15866384D01*
X15895705Y-15856860D01*
X15914753Y-15847336D01*
X15952848Y-15847336D01*
X15971896Y-15856860D01*
X15981419Y-15866384D01*
X15990943Y-15885431D01*
X15990943Y-15894955D01*
X15981419Y-15914003D01*
X15971896Y-15923527D01*
X15952848Y-15933050D01*
X15914753Y-15933050D01*
X15895705Y-15942574D01*
X15886181Y-15952098D01*
X15876658Y-15971146D01*
X15876658Y-16009241D01*
X15886181Y-16028288D01*
X15895705Y-16037812D01*
X15914753Y-16047336D01*
X15952848Y-16047336D01*
X15971896Y-16037812D01*
X15981419Y-16028288D01*
X15990943Y-16009241D01*
X15990943Y-15971146D01*
X15981419Y-15952098D01*
X15971896Y-15942574D01*
X15952848Y-15933050D01*
X16229038Y-16047336D02*
X16229038Y-15847336D01*
X16314753Y-16047336D02*
X16314753Y-15942574D01*
X16305229Y-15923527D01*
X16286181Y-15914003D01*
X16257610Y-15914003D01*
X16238562Y-15923527D01*
X16229038Y-15933050D01*
X16438562Y-16047336D02*
X16419515Y-16037812D01*
X16409991Y-16028288D01*
X16400467Y-16009241D01*
X16400467Y-15952098D01*
X16409991Y-15933050D01*
X16419515Y-15923527D01*
X16438562Y-15914003D01*
X16467134Y-15914003D01*
X16486181Y-15923527D01*
X16495705Y-15933050D01*
X16505229Y-15952098D01*
X16505229Y-16009241D01*
X16495705Y-16028288D01*
X16486181Y-16037812D01*
X16467134Y-16047336D01*
X16438562Y-16047336D01*
X16619515Y-16047336D02*
X16600467Y-16037812D01*
X16590943Y-16018765D01*
X16590943Y-15847336D01*
X16771896Y-16037812D02*
X16752848Y-16047336D01*
X16714753Y-16047336D01*
X16695705Y-16037812D01*
X16686181Y-16018765D01*
X16686181Y-15942574D01*
X16695705Y-15923527D01*
X16714753Y-15914003D01*
X16752848Y-15914003D01*
X16771896Y-15923527D01*
X16781420Y-15942574D01*
X16781420Y-15961622D01*
X16686181Y-15980669D01*
X16857610Y-16037812D02*
X16876658Y-16047336D01*
X16914753Y-16047336D01*
X16933800Y-16037812D01*
X16943324Y-16018765D01*
X16943324Y-16009241D01*
X16933800Y-15990193D01*
X16914753Y-15980669D01*
X16886181Y-15980669D01*
X16867134Y-15971146D01*
X16857610Y-15952098D01*
X16857610Y-15942574D01*
X16867134Y-15923527D01*
X16886181Y-15914003D01*
X16914753Y-15914003D01*
X16933800Y-15923527D01*
X17009991Y-16123527D02*
X17019515Y-16114003D01*
X17038562Y-16085431D01*
X17048086Y-16066384D01*
X17057610Y-16037812D01*
X17067134Y-15990193D01*
X17067134Y-15952098D01*
X17057610Y-15904479D01*
X17048086Y-15875908D01*
X17038562Y-15856860D01*
X17019515Y-15828288D01*
X17009991Y-15818765D01*
D13*
X11997610Y-16170860D02*
X11997610Y-16270860D01*
X11947610Y-16220860D02*
X12047610Y-16220860D01*
D10*
X12409991Y-16311336D02*
X12295705Y-16311336D01*
X12352848Y-16311336D02*
X12352848Y-16111336D01*
X12333800Y-16139908D01*
X12314753Y-16158955D01*
X12295705Y-16168479D01*
X12495705Y-16292288D02*
X12505229Y-16301812D01*
X12495705Y-16311336D01*
X12486181Y-16301812D01*
X12495705Y-16292288D01*
X12495705Y-16311336D01*
X12629038Y-16111336D02*
X12648086Y-16111336D01*
X12667134Y-16120860D01*
X12676658Y-16130384D01*
X12686181Y-16149431D01*
X12695705Y-16187527D01*
X12695705Y-16235146D01*
X12686181Y-16273241D01*
X12676658Y-16292288D01*
X12667134Y-16301812D01*
X12648086Y-16311336D01*
X12629038Y-16311336D01*
X12609991Y-16301812D01*
X12600467Y-16292288D01*
X12590943Y-16273241D01*
X12581419Y-16235146D01*
X12581419Y-16187527D01*
X12590943Y-16149431D01*
X12600467Y-16130384D01*
X12609991Y-16120860D01*
X12629038Y-16111336D01*
X12819515Y-16111336D02*
X12838562Y-16111336D01*
X12857610Y-16120860D01*
X12867134Y-16130384D01*
X12876658Y-16149431D01*
X12886181Y-16187527D01*
X12886181Y-16235146D01*
X12876658Y-16273241D01*
X12867134Y-16292288D01*
X12857610Y-16301812D01*
X12838562Y-16311336D01*
X12819515Y-16311336D01*
X12800467Y-16301812D01*
X12790943Y-16292288D01*
X12781419Y-16273241D01*
X12771896Y-16235146D01*
X12771896Y-16187527D01*
X12781419Y-16149431D01*
X12790943Y-16130384D01*
X12800467Y-16120860D01*
X12819515Y-16111336D01*
X13009991Y-16111336D02*
X13029038Y-16111336D01*
X13048086Y-16120860D01*
X13057610Y-16130384D01*
X13067134Y-16149431D01*
X13076658Y-16187527D01*
X13076658Y-16235146D01*
X13067134Y-16273241D01*
X13057610Y-16292288D01*
X13048086Y-16301812D01*
X13029038Y-16311336D01*
X13009991Y-16311336D01*
X12990943Y-16301812D01*
X12981419Y-16292288D01*
X12971896Y-16273241D01*
X12962372Y-16235146D01*
X12962372Y-16187527D01*
X12971896Y-16149431D01*
X12981419Y-16130384D01*
X12990943Y-16120860D01*
X13009991Y-16111336D01*
X13162372Y-16311336D02*
X13162372Y-16178003D01*
X13162372Y-16197050D02*
X13171896Y-16187527D01*
X13190943Y-16178003D01*
X13219515Y-16178003D01*
X13238562Y-16187527D01*
X13248086Y-16206574D01*
X13248086Y-16311336D01*
X13248086Y-16206574D02*
X13257610Y-16187527D01*
X13276658Y-16178003D01*
X13305229Y-16178003D01*
X13324277Y-16187527D01*
X13333800Y-16206574D01*
X13333800Y-16311336D01*
X13429038Y-16311336D02*
X13429038Y-16178003D01*
X13429038Y-16197050D02*
X13438562Y-16187527D01*
X13457610Y-16178003D01*
X13486181Y-16178003D01*
X13505229Y-16187527D01*
X13514753Y-16206574D01*
X13514753Y-16311336D01*
X13514753Y-16206574D02*
X13524277Y-16187527D01*
X13543324Y-16178003D01*
X13571896Y-16178003D01*
X13590943Y-16187527D01*
X13600467Y-16206574D01*
X13600467Y-16311336D01*
X13990943Y-16101812D02*
X13819515Y-16358955D01*
X14248086Y-16111336D02*
X14267134Y-16111336D01*
X14286181Y-16120860D01*
X14295705Y-16130384D01*
X14305229Y-16149431D01*
X14314753Y-16187527D01*
X14314753Y-16235146D01*
X14305229Y-16273241D01*
X14295705Y-16292288D01*
X14286181Y-16301812D01*
X14267134Y-16311336D01*
X14248086Y-16311336D01*
X14229038Y-16301812D01*
X14219515Y-16292288D01*
X14209991Y-16273241D01*
X14200467Y-16235146D01*
X14200467Y-16187527D01*
X14209991Y-16149431D01*
X14219515Y-16130384D01*
X14229038Y-16120860D01*
X14248086Y-16111336D01*
X14400467Y-16292288D02*
X14409991Y-16301812D01*
X14400467Y-16311336D01*
X14390943Y-16301812D01*
X14400467Y-16292288D01*
X14400467Y-16311336D01*
X14533800Y-16111336D02*
X14552848Y-16111336D01*
X14571896Y-16120860D01*
X14581419Y-16130384D01*
X14590943Y-16149431D01*
X14600467Y-16187527D01*
X14600467Y-16235146D01*
X14590943Y-16273241D01*
X14581419Y-16292288D01*
X14571896Y-16301812D01*
X14552848Y-16311336D01*
X14533800Y-16311336D01*
X14514753Y-16301812D01*
X14505229Y-16292288D01*
X14495705Y-16273241D01*
X14486181Y-16235146D01*
X14486181Y-16187527D01*
X14495705Y-16149431D01*
X14505229Y-16130384D01*
X14514753Y-16120860D01*
X14533800Y-16111336D01*
X14667134Y-16111336D02*
X14790943Y-16111336D01*
X14724277Y-16187527D01*
X14752848Y-16187527D01*
X14771896Y-16197050D01*
X14781419Y-16206574D01*
X14790943Y-16225622D01*
X14790943Y-16273241D01*
X14781419Y-16292288D01*
X14771896Y-16301812D01*
X14752848Y-16311336D01*
X14695705Y-16311336D01*
X14676658Y-16301812D01*
X14667134Y-16292288D01*
X14886181Y-16311336D02*
X14924277Y-16311336D01*
X14943324Y-16301812D01*
X14952848Y-16292288D01*
X14971896Y-16263717D01*
X14981419Y-16225622D01*
X14981419Y-16149431D01*
X14971896Y-16130384D01*
X14962372Y-16120860D01*
X14943324Y-16111336D01*
X14905229Y-16111336D01*
X14886181Y-16120860D01*
X14876658Y-16130384D01*
X14867134Y-16149431D01*
X14867134Y-16197050D01*
X14876658Y-16216098D01*
X14886181Y-16225622D01*
X14905229Y-16235146D01*
X14943324Y-16235146D01*
X14962372Y-16225622D01*
X14971896Y-16216098D01*
X14981419Y-16197050D01*
X15152848Y-16178003D02*
X15152848Y-16311336D01*
X15105229Y-16101812D02*
X15057610Y-16244669D01*
X15181419Y-16244669D01*
X15248086Y-16111336D02*
X15248086Y-16149431D01*
X15324277Y-16111336D02*
X15324277Y-16149431D01*
X15619515Y-16387527D02*
X15609991Y-16378003D01*
X15590943Y-16349431D01*
X15581419Y-16330384D01*
X15571896Y-16301812D01*
X15562372Y-16254193D01*
X15562372Y-16216098D01*
X15571896Y-16168479D01*
X15581419Y-16139908D01*
X15590943Y-16120860D01*
X15609991Y-16092288D01*
X15619515Y-16082765D01*
X15781419Y-16111336D02*
X15743324Y-16111336D01*
X15724277Y-16120860D01*
X15714753Y-16130384D01*
X15695705Y-16158955D01*
X15686181Y-16197050D01*
X15686181Y-16273241D01*
X15695705Y-16292288D01*
X15705229Y-16301812D01*
X15724277Y-16311336D01*
X15762372Y-16311336D01*
X15781419Y-16301812D01*
X15790943Y-16292288D01*
X15800467Y-16273241D01*
X15800467Y-16225622D01*
X15790943Y-16206574D01*
X15781419Y-16197050D01*
X15762372Y-16187527D01*
X15724277Y-16187527D01*
X15705229Y-16197050D01*
X15695705Y-16206574D01*
X15686181Y-16225622D01*
X15895705Y-16311336D02*
X15933800Y-16311336D01*
X15952848Y-16301812D01*
X15962372Y-16292288D01*
X15981419Y-16263717D01*
X15990943Y-16225622D01*
X15990943Y-16149431D01*
X15981419Y-16130384D01*
X15971896Y-16120860D01*
X15952848Y-16111336D01*
X15914753Y-16111336D01*
X15895705Y-16120860D01*
X15886181Y-16130384D01*
X15876658Y-16149431D01*
X15876658Y-16197050D01*
X15886181Y-16216098D01*
X15895705Y-16225622D01*
X15914753Y-16235146D01*
X15952848Y-16235146D01*
X15971896Y-16225622D01*
X15981419Y-16216098D01*
X15990943Y-16197050D01*
X16229038Y-16311336D02*
X16229038Y-16111336D01*
X16314753Y-16311336D02*
X16314753Y-16206574D01*
X16305229Y-16187527D01*
X16286181Y-16178003D01*
X16257610Y-16178003D01*
X16238562Y-16187527D01*
X16229038Y-16197050D01*
X16438562Y-16311336D02*
X16419515Y-16301812D01*
X16409991Y-16292288D01*
X16400467Y-16273241D01*
X16400467Y-16216098D01*
X16409991Y-16197050D01*
X16419515Y-16187527D01*
X16438562Y-16178003D01*
X16467134Y-16178003D01*
X16486181Y-16187527D01*
X16495705Y-16197050D01*
X16505229Y-16216098D01*
X16505229Y-16273241D01*
X16495705Y-16292288D01*
X16486181Y-16301812D01*
X16467134Y-16311336D01*
X16438562Y-16311336D01*
X16619515Y-16311336D02*
X16600467Y-16301812D01*
X16590943Y-16282765D01*
X16590943Y-16111336D01*
X16771896Y-16301812D02*
X16752848Y-16311336D01*
X16714753Y-16311336D01*
X16695705Y-16301812D01*
X16686181Y-16282765D01*
X16686181Y-16206574D01*
X16695705Y-16187527D01*
X16714753Y-16178003D01*
X16752848Y-16178003D01*
X16771896Y-16187527D01*
X16781420Y-16206574D01*
X16781420Y-16225622D01*
X16686181Y-16244669D01*
X16857610Y-16301812D02*
X16876658Y-16311336D01*
X16914753Y-16311336D01*
X16933800Y-16301812D01*
X16943324Y-16282765D01*
X16943324Y-16273241D01*
X16933800Y-16254193D01*
X16914753Y-16244669D01*
X16886181Y-16244669D01*
X16867134Y-16235146D01*
X16857610Y-16216098D01*
X16857610Y-16206574D01*
X16867134Y-16187527D01*
X16886181Y-16178003D01*
X16914753Y-16178003D01*
X16933800Y-16187527D01*
X17009991Y-16387527D02*
X17019515Y-16378003D01*
X17038562Y-16349431D01*
X17048086Y-16330384D01*
X17057610Y-16301812D01*
X17067134Y-16254193D01*
X17067134Y-16216098D01*
X17057610Y-16168479D01*
X17048086Y-16139908D01*
X17038562Y-16120860D01*
X17019515Y-16092288D01*
X17009991Y-16082765D01*
M02*
