M48
; DRILL file {KiCad (6.0.11)} date Tue Sep  3 20:48:04 2024
; FORMAT={-:-/ absolute / metric / decimal}
; #@! TF.CreationDate,2024-09-03T20:48:04+02:00
; #@! TF.GenerationSoftware,Kicad,Pcbnew,(6.0.11)
; #@! TF.FileFunction,Plated,1,2,PTH
FMAT,2
METRIC
; #@! TA.AperFunction,Plated,PTH,ViaDrill
T1C0.400
; #@! TA.AperFunction,Plated,PTH,ComponentDrill
T2C0.800
; #@! TA.AperFunction,Plated,PTH,ComponentDrill
T3C1.000
; #@! TA.AperFunction,Plated,PTH,ComponentDrill
T4C1.100
%
G90
G05
T1
X123.467Y-144.656
X125.216Y-101.249
X126.883Y-101.129
X127.298Y-138.108
X127.298Y-139.88
X127.615Y-97.132
X127.652Y-104.539
X127.827Y-124.042
X128.157Y-101.264
X129.357Y-92.789
X130.239Y-118.072
X131.138Y-131.663
X132.162Y-84.13
X132.916Y-127.992
X133.338Y-131.057
X133.92Y-137.056
X134.166Y-88.284
X134.241Y-129.346
X134.281Y-80.103
X134.604Y-114.741
X134.66Y-124.86
X135.718Y-128.45
X136.1Y-112.104
X136.28Y-136.76
X136.316Y-100.462
X136.544Y-106.49
X136.858Y-95.956
X136.906Y-122.137
X137.205Y-105.544
X137.509Y-78.127
X137.528Y-118.254
X137.83Y-104.82
X138.334Y-127.293
X138.63Y-82.19
X138.656Y-118.175
X139.047Y-117.083
X139.596Y-124.101
X139.785Y-93.376
X140.186Y-118.047
X140.284Y-77.719
X140.527Y-125.092
X140.623Y-128.875
X140.782Y-135.462
X140.939Y-100.344
X140.951Y-103.316
X141.113Y-98.309
X141.241Y-132.91
X141.273Y-82.635
X142.012Y-126.147
X142.201Y-100.973
X142.269Y-97.775
X142.499Y-116.099
X142.541Y-115.086
X142.698Y-126.842
X143.127Y-139.982
X143.401Y-127.566
X144.035Y-124.706
X144.167Y-68.861
X144.259Y-136.094
X144.265Y-132.617
X144.266Y-134.376
X144.302Y-118.307
X144.467Y-102.278
X145.082Y-123.363
X145.09Y-126.144
X145.166Y-129.004
X145.347Y-131.366
X145.451Y-137.526
X145.71Y-113.449
X145.829Y-107.551
X145.839Y-98.734
X146.065Y-136.791
X146.153Y-139.268
X146.208Y-115.563
X146.301Y-131.452
X146.974Y-119.413
X147.24Y-80.256
X147.502Y-139.428
X147.751Y-125.087
X148.082Y-135.686
X148.105Y-130.979
X148.331Y-120.595
X148.751Y-77.955
X148.961Y-132.766
X149.117Y-125.001
X149.149Y-136.054
X149.645Y-123.539
X149.739Y-139.06
X149.774Y-133.431
X149.848Y-79.663
X150.071Y-129.656
X150.597Y-140.242
X150.726Y-84.272
X150.731Y-78.337
X151.104Y-63.125
X151.143Y-86.076
X151.523Y-129.323
X151.684Y-130.864
X151.705Y-123.352
X151.896Y-126.686
X151.978Y-140.308
X152.495Y-116.399
X153.031Y-131.544
X153.676Y-135.326
X153.762Y-139.49
X153.829Y-120.315
X153.906Y-85.903
X154.301Y-113.183
X154.487Y-109.158
X154.742Y-139.302
X154.94Y-118.631
X155.045Y-73.281
X155.073Y-133.355
X155.291Y-89.353
X155.384Y-117.547
X155.686Y-136.705
X156.099Y-118.629
X156.512Y-135.005
X156.775Y-130.994
X157.307Y-119.945
X157.422Y-140.06
X158.651Y-137.397
X159.022Y-140.129
X159.748Y-88.968
X159.954Y-90.633
X160.238Y-135.797
X160.428Y-130.621
X160.651Y-140.229
X161.091Y-127.209
X161.098Y-125.575
X161.386Y-87.953
X162.779Y-86.153
X162.88Y-103.489
X162.883Y-139.367
X163.122Y-133.34
X163.383Y-83.6
X163.386Y-82.378
X163.915Y-139.228
X164.492Y-106.632
X164.893Y-133.211
X165.079Y-138.162
X165.593Y-110.405
X166.003Y-130.277
X166.189Y-113.45
X166.376Y-134.115
X166.502Y-132.224
X166.988Y-133.088
X167.045Y-130.048
X167.525Y-91.098
X168.375Y-118.183
X168.512Y-113.071
X168.658Y-135.44
X170.534Y-103.788
X170.579Y-139.793
X170.883Y-106.705
X170.946Y-135.117
X173.534Y-144.843
X173.83Y-89.17
X174.877Y-73.281
T2
X124.46Y-75.438
X124.46Y-90.678
X127.0Y-75.438
X127.0Y-90.678
X129.54Y-75.438
X129.54Y-90.678
X132.08Y-75.438
X132.08Y-90.678
X133.35Y-77.978
X134.62Y-75.438
X134.62Y-90.678
X135.89Y-77.978
X137.16Y-75.438
X137.16Y-90.678
X139.7Y-75.438
X139.7Y-90.678
X142.24Y-75.438
X142.24Y-90.678
X143.51Y-77.978
X144.78Y-75.438
X144.78Y-90.678
X146.05Y-77.978
X147.32Y-75.438
X147.32Y-90.678
X149.86Y-75.438
X149.86Y-90.678
X152.4Y-75.438
X152.4Y-90.678
X158.623Y-101.219
X158.623Y-103.759
X158.623Y-106.299
X158.623Y-108.839
X158.623Y-111.379
X158.623Y-113.919
X158.623Y-116.459
X158.623Y-118.999
X158.623Y-121.539
X158.623Y-124.079
X158.623Y-126.619
X158.623Y-129.159
X158.623Y-131.699
X158.623Y-134.239
X173.863Y-101.219
X173.863Y-103.759
X173.863Y-106.299
X173.863Y-108.839
X173.863Y-111.379
X173.863Y-113.919
X173.863Y-116.459
X173.863Y-118.999
X173.863Y-121.539
X173.863Y-124.079
X173.863Y-126.619
X173.863Y-129.159
X173.863Y-131.699
X173.863Y-134.239
T3
X124.348Y-133.351
X126.888Y-133.351
X129.428Y-133.351
X139.674Y-63.881
X139.674Y-66.421
X140.076Y-108.966
X142.214Y-63.881
X142.214Y-66.421
X142.616Y-108.966
X144.754Y-63.881
X144.754Y-66.421
X145.156Y-108.966
X147.294Y-63.881
X147.294Y-66.421
X147.696Y-108.966
X149.834Y-63.881
X149.834Y-66.421
X150.236Y-108.966
X152.374Y-63.881
X152.374Y-66.421
X152.4Y-77.978
X152.4Y-80.518
X152.4Y-83.058
X154.914Y-63.881
X154.914Y-66.421
X157.454Y-63.881
X157.454Y-66.421
X157.734Y-77.724
X157.734Y-80.264
X157.734Y-82.804
X157.734Y-85.344
X157.734Y-87.884
X157.734Y-90.424
X158.623Y-95.504
X161.163Y-95.504
X163.703Y-95.504
X166.243Y-95.504
X168.783Y-95.504
X171.323Y-95.504
T4
X124.587Y-62.738
X124.587Y-67.238
X131.087Y-62.738
X131.087Y-67.238
X165.989Y-62.738
X165.989Y-67.238
X172.489Y-62.738
X172.489Y-67.238
T0
M30
