G04 #@! TF.GenerationSoftware,KiCad,Pcbnew,(6.0.11)*
G04 #@! TF.CreationDate,2024-09-03T20:48:00+02:00*
G04 #@! TF.ProjectId,tcbm2sd,7463626d-3273-4642-9e6b-696361645f70,1.2*
G04 #@! TF.SameCoordinates,Original*
G04 #@! TF.FileFunction,Copper,L2,Bot*
G04 #@! TF.FilePolarity,Positive*
%FSLAX46Y46*%
G04 Gerber Fmt 4.6, Leading zero omitted, Abs format (unit mm)*
G04 Created by KiCad (PCBNEW (6.0.11)) date 2024-09-03 20:48:00*
%MOMM*%
%LPD*%
G01*
G04 APERTURE LIST*
G04 Aperture macros list*
%AMRoundRect*
0 Rectangle with rounded corners*
0 $1 Rounding radius*
0 $2 $3 $4 $5 $6 $7 $8 $9 X,Y pos of 4 corners*
0 Add a 4 corners polygon primitive as box body*
4,1,4,$2,$3,$4,$5,$6,$7,$8,$9,$2,$3,0*
0 Add four circle primitives for the rounded corners*
1,1,$1+$1,$2,$3*
1,1,$1+$1,$4,$5*
1,1,$1+$1,$6,$7*
1,1,$1+$1,$8,$9*
0 Add four rect primitives between the rounded corners*
20,1,$1+$1,$2,$3,$4,$5,0*
20,1,$1+$1,$4,$5,$6,$7,0*
20,1,$1+$1,$6,$7,$8,$9,0*
20,1,$1+$1,$8,$9,$2,$3,0*%
G04 Aperture macros list end*
G04 #@! TA.AperFunction,ComponentPad*
%ADD10C,2.000000*%
G04 #@! TD*
G04 #@! TA.AperFunction,ComponentPad*
%ADD11R,1.700000X1.700000*%
G04 #@! TD*
G04 #@! TA.AperFunction,ComponentPad*
%ADD12O,1.700000X1.700000*%
G04 #@! TD*
G04 #@! TA.AperFunction,ComponentPad*
%ADD13R,1.600000X1.600000*%
G04 #@! TD*
G04 #@! TA.AperFunction,ComponentPad*
%ADD14O,1.600000X1.600000*%
G04 #@! TD*
G04 #@! TA.AperFunction,SMDPad,CuDef*
%ADD15RoundRect,0.112500X-0.337500X-4.512500X0.337500X-4.512500X0.337500X4.512500X-0.337500X4.512500X0*%
G04 #@! TD*
G04 #@! TA.AperFunction,ViaPad*
%ADD16C,0.800000*%
G04 #@! TD*
G04 #@! TA.AperFunction,Conductor*
%ADD17C,0.250000*%
G04 #@! TD*
G04 #@! TA.AperFunction,Conductor*
%ADD18C,0.400000*%
G04 #@! TD*
G04 APERTURE END LIST*
D10*
X165989000Y-62738000D03*
X172489000Y-62738000D03*
X172489000Y-67238000D03*
X165989000Y-67238000D03*
D11*
X124348000Y-133351300D03*
D12*
X126888000Y-133351300D03*
X129428000Y-133351300D03*
D10*
X131087000Y-62738000D03*
X124587000Y-62738000D03*
X131087000Y-67238000D03*
X124587000Y-67238000D03*
D11*
X171323000Y-95504000D03*
D12*
X168783000Y-95504000D03*
X166243000Y-95504000D03*
X163703000Y-95504000D03*
X161163000Y-95504000D03*
X158623000Y-95504000D03*
D13*
X124460000Y-90678000D03*
D14*
X127000000Y-90678000D03*
X129540000Y-90678000D03*
X132080000Y-90678000D03*
X134620000Y-90678000D03*
X137160000Y-90678000D03*
X139700000Y-90678000D03*
X142240000Y-90678000D03*
X144780000Y-90678000D03*
X147320000Y-90678000D03*
X149860000Y-90678000D03*
X152400000Y-90678000D03*
X152400000Y-75438000D03*
X149860000Y-75438000D03*
X147320000Y-75438000D03*
X144780000Y-75438000D03*
X142240000Y-75438000D03*
X139700000Y-75438000D03*
X137160000Y-75438000D03*
X134620000Y-75438000D03*
X132080000Y-75438000D03*
X129540000Y-75438000D03*
X127000000Y-75438000D03*
X124460000Y-75438000D03*
X135890000Y-77978000D03*
X133350000Y-77978000D03*
X146050000Y-77978000D03*
X143510000Y-77978000D03*
D11*
X152400000Y-77978000D03*
D12*
X152400000Y-80518000D03*
X152400000Y-83058000D03*
D11*
X150236000Y-108966000D03*
D12*
X147696000Y-108966000D03*
X145156000Y-108966000D03*
X142616000Y-108966000D03*
X140076000Y-108966000D03*
D11*
X157734000Y-77724000D03*
D12*
X157734000Y-80264000D03*
X157734000Y-82804000D03*
X157734000Y-85344000D03*
X157734000Y-87884000D03*
X157734000Y-90424000D03*
X157454000Y-63881000D03*
X157454000Y-66421000D03*
X154914000Y-63881000D03*
X154914000Y-66421000D03*
X152374000Y-63881000D03*
X152374000Y-66421000D03*
X149834000Y-63881000D03*
X149834000Y-66421000D03*
X147294000Y-63881000D03*
X147294000Y-66421000D03*
X144754000Y-63881000D03*
X144754000Y-66421000D03*
X142214000Y-63881000D03*
X142214000Y-66421000D03*
X139674000Y-63881000D03*
D11*
X139674000Y-66421000D03*
D13*
X158623000Y-101219000D03*
D14*
X158623000Y-103759000D03*
X158623000Y-106299000D03*
X158623000Y-108839000D03*
X158623000Y-111379000D03*
X158623000Y-113919000D03*
X158623000Y-116459000D03*
X158623000Y-118999000D03*
X158623000Y-121539000D03*
X158623000Y-124079000D03*
X158623000Y-126619000D03*
X158623000Y-129159000D03*
X158623000Y-131699000D03*
X158623000Y-134239000D03*
X173863000Y-134239000D03*
X173863000Y-131699000D03*
X173863000Y-129159000D03*
X173863000Y-126619000D03*
X173863000Y-124079000D03*
X173863000Y-121539000D03*
X173863000Y-118999000D03*
X173863000Y-116459000D03*
X173863000Y-113919000D03*
X173863000Y-111379000D03*
X173863000Y-108839000D03*
X173863000Y-106299000D03*
X173863000Y-103759000D03*
X173863000Y-101219000D03*
D15*
X124501100Y-145503600D03*
X168501100Y-145503600D03*
X126501100Y-145503600D03*
X170501100Y-145503600D03*
X128501100Y-145503600D03*
X172501100Y-145503600D03*
X130501100Y-145503600D03*
X132501100Y-145503600D03*
X134501100Y-145503600D03*
X136501100Y-145503600D03*
X138501100Y-145503600D03*
X140501100Y-145503600D03*
X142501100Y-145503600D03*
X144501100Y-145503600D03*
X146501100Y-145503600D03*
X148501100Y-145503600D03*
X150501100Y-145503600D03*
X152501100Y-145503600D03*
X154501100Y-145503600D03*
X156501100Y-145503600D03*
X158501100Y-145503600D03*
X160501100Y-145503600D03*
X162501100Y-145503600D03*
X164501100Y-145503600D03*
X166501100Y-145503600D03*
D16*
X134280900Y-80103500D03*
X125216100Y-101248700D03*
X165592600Y-110404900D03*
X147240200Y-80256100D03*
X155045100Y-73280600D03*
X141272600Y-82634500D03*
X151142700Y-86076000D03*
X155291500Y-89353000D03*
X159953900Y-90632800D03*
X127297800Y-139879800D03*
X144259300Y-136094000D03*
X156774900Y-130994400D03*
X170579400Y-139793100D03*
X161097800Y-125574500D03*
X165078800Y-138161800D03*
X161090600Y-127209200D03*
X136279700Y-136760100D03*
X145709600Y-113449400D03*
X143127300Y-139981600D03*
X146973900Y-119412900D03*
X147502000Y-139428100D03*
X155686100Y-136704900D03*
X164892600Y-133211000D03*
X166003400Y-130277100D03*
X167045400Y-130048000D03*
X166502400Y-132223500D03*
X156512500Y-135005200D03*
X145450600Y-137526300D03*
X146065300Y-136791400D03*
X155073200Y-133355100D03*
X162778600Y-86152900D03*
X153906400Y-85902800D03*
X150725800Y-84272200D03*
X161386200Y-87952600D03*
X149847900Y-79662700D03*
X163383400Y-83599900D03*
X150731500Y-78337500D03*
X163385700Y-82377700D03*
X129356600Y-92789500D03*
X128157500Y-101264000D03*
X131137700Y-131663400D03*
X146153500Y-139267600D03*
X145166200Y-129003800D03*
X133337500Y-131057100D03*
X144301800Y-118307200D03*
X151704800Y-123351600D03*
X156098900Y-118629400D03*
X151896400Y-126686200D03*
X157306900Y-119945400D03*
X149645300Y-123539200D03*
X155384300Y-117546800D03*
X127615300Y-97131900D03*
X154940500Y-118631500D03*
X159747600Y-88968100D03*
X149117300Y-125001200D03*
X134241300Y-129346100D03*
X132916300Y-127991800D03*
X147750800Y-125087100D03*
X144167500Y-68860700D03*
X139785000Y-93376000D03*
X141113300Y-98308900D03*
X132162300Y-84130200D03*
X142200700Y-100972900D03*
X145829500Y-107550800D03*
X146208400Y-115562700D03*
X142269100Y-97775100D03*
X151104000Y-63125000D03*
X140939200Y-100344200D03*
X145839000Y-98734000D03*
X142540900Y-115085600D03*
X144466700Y-102278400D03*
X142498800Y-116099000D03*
X148751200Y-77954600D03*
X137830200Y-104820100D03*
X140185700Y-118046700D03*
X137204800Y-105544300D03*
X139047100Y-117082600D03*
X137509300Y-78127300D03*
X136543700Y-106490300D03*
X138656000Y-118174600D03*
X136100100Y-112103800D03*
X137527700Y-118254500D03*
X140284100Y-77719500D03*
X138630500Y-82190200D03*
X127651600Y-104538700D03*
X136316400Y-100461500D03*
X140951300Y-103315600D03*
X134165700Y-88283700D03*
X136858300Y-95956200D03*
X136906000Y-122137100D03*
X168512100Y-113071400D03*
X168375300Y-118183500D03*
X170883400Y-106704800D03*
X149738600Y-139060300D03*
X153676400Y-135325700D03*
X166988100Y-133087500D03*
X153031400Y-131543800D03*
X151978100Y-140308300D03*
X158651100Y-137397200D03*
X166376100Y-134115100D03*
X148082000Y-135685600D03*
X148961200Y-132765700D03*
X168658200Y-135439700D03*
X150070700Y-129656100D03*
X149149000Y-136053600D03*
X151683900Y-130863600D03*
X160428400Y-130621500D03*
X170945600Y-135117100D03*
X149774300Y-133430900D03*
X151523400Y-129323300D03*
X160651500Y-140228600D03*
X162883300Y-139367300D03*
X163914700Y-139227900D03*
X133920100Y-137055800D03*
X134660300Y-124860500D03*
X130239000Y-118071800D03*
X167525300Y-91098000D03*
X173830300Y-89170400D03*
X127297800Y-138107900D03*
X123467200Y-144656000D03*
X173534300Y-144843000D03*
X174877000Y-73280600D03*
X127826800Y-124041700D03*
X134603700Y-114741100D03*
X148330900Y-120595200D03*
X152494900Y-116399500D03*
X126883300Y-101128600D03*
X135718000Y-128449700D03*
X139595800Y-124101200D03*
X154486500Y-109157800D03*
X162880500Y-103489000D03*
X170533900Y-103788200D03*
X142012200Y-126147300D03*
X141241100Y-132909900D03*
X144035100Y-124705800D03*
X166189500Y-113449800D03*
X142698000Y-126842200D03*
X146301400Y-131452000D03*
X159021600Y-140128700D03*
X154742000Y-139302300D03*
X145090000Y-126144200D03*
X140623000Y-128874700D03*
X154301000Y-113182600D03*
X150597491Y-140242209D03*
X148104600Y-130979300D03*
X140526800Y-125091600D03*
X143401100Y-127566400D03*
X145082000Y-123363100D03*
X153761900Y-139490300D03*
X144264900Y-132617300D03*
X153829200Y-120314600D03*
X160238500Y-135797000D03*
X163121800Y-133340400D03*
X145347000Y-131366000D03*
X157422000Y-140059900D03*
X164492500Y-106632300D03*
X138334500Y-127293300D03*
X144265700Y-134376200D03*
X140782000Y-135461600D03*
D17*
X162501100Y-140990900D02*
X161591200Y-140081000D01*
X162501100Y-145503600D02*
X162501100Y-140990900D01*
X161591200Y-137149700D02*
X160238500Y-135797000D01*
X161591200Y-140081000D02*
X161591200Y-137149700D01*
X158501100Y-141139000D02*
X157422000Y-140059900D01*
X154501100Y-140229500D02*
X153761900Y-139490300D01*
X154501100Y-145503600D02*
X154501100Y-140229500D01*
X140501100Y-140030200D02*
X139535900Y-139065000D01*
X140501100Y-145503600D02*
X140501100Y-140030200D01*
X139535900Y-126082500D02*
X139535900Y-139065000D01*
X140526800Y-125091600D02*
X139535900Y-126082500D01*
X130501100Y-140336600D02*
X131137700Y-139700000D01*
X130501100Y-145503600D02*
X130501100Y-140336600D01*
X131137700Y-139700000D02*
X131137700Y-131663400D01*
X126501100Y-140676500D02*
X127297800Y-139879800D01*
X126501100Y-145503600D02*
X126501100Y-140676500D01*
X150671609Y-140242209D02*
X150597491Y-140242209D01*
X152501100Y-142071700D02*
X150671609Y-140242209D01*
X128377700Y-86006700D02*
X134280900Y-80103500D01*
X128377700Y-98087100D02*
X128377700Y-86006700D01*
X125216100Y-101248700D02*
X128377700Y-98087100D01*
X158623000Y-101219000D02*
X159702300Y-101219000D01*
X159702300Y-101271400D02*
X159702300Y-101219000D01*
X162972900Y-104542000D02*
X159702300Y-101271400D01*
X163362900Y-104542000D02*
X162972900Y-104542000D01*
X165592600Y-106771700D02*
X163362900Y-104542000D01*
X165592600Y-110404900D02*
X165592600Y-106771700D01*
X173751200Y-117538300D02*
X173863000Y-117538300D01*
X172783700Y-118505800D02*
X173751200Y-117538300D01*
X172783700Y-119460500D02*
X172783700Y-118505800D01*
X173782900Y-120459700D02*
X172783700Y-119460500D01*
X173863000Y-120459700D02*
X173782900Y-120459700D01*
X173863000Y-121539000D02*
X173863000Y-120459700D01*
X173863000Y-116459000D02*
X173863000Y-117538300D01*
X157454000Y-63881000D02*
X157454000Y-65010300D01*
X153114000Y-79388700D02*
X152400000Y-79388700D01*
X156093800Y-76408900D02*
X153114000Y-79388700D01*
X156093800Y-66088200D02*
X156093800Y-76408900D01*
X157171700Y-65010300D02*
X156093800Y-66088200D01*
X157454000Y-65010300D02*
X157171700Y-65010300D01*
X152400000Y-79953300D02*
X152400000Y-79388700D01*
X147831900Y-80847800D02*
X147240200Y-80256100D01*
X151505500Y-80847800D02*
X147831900Y-80847800D01*
X152400000Y-79953300D02*
X151505500Y-80847800D01*
X143510000Y-77978000D02*
X144589300Y-77978000D01*
X155045100Y-74344800D02*
X155045100Y-73280600D01*
X152541200Y-76848700D02*
X155045100Y-74344800D01*
X152400000Y-76848700D02*
X152541200Y-76848700D01*
X152400000Y-77978000D02*
X152400000Y-76848700D01*
X144589300Y-78089800D02*
X144589300Y-77978000D01*
X146076300Y-79576800D02*
X144589300Y-78089800D01*
X148506100Y-79576800D02*
X146076300Y-79576800D01*
X149318300Y-80389000D02*
X148506100Y-79576800D01*
X150082400Y-80389000D02*
X149318300Y-80389000D01*
X152400000Y-78071400D02*
X150082400Y-80389000D01*
X158613800Y-89292700D02*
X159953900Y-90632800D01*
X155351800Y-89292700D02*
X158613800Y-89292700D01*
X155291500Y-89353000D02*
X155351800Y-89292700D01*
X144714100Y-86076000D02*
X141272600Y-82634500D01*
X151142700Y-86076000D02*
X144714100Y-86076000D01*
X156618500Y-130838000D02*
X156774900Y-130994400D01*
X152723400Y-130838000D02*
X156618500Y-130838000D01*
X151998700Y-131562700D02*
X152723400Y-130838000D01*
X151998700Y-134165000D02*
X151998700Y-131562700D01*
X149427100Y-136736600D02*
X151998700Y-134165000D01*
X147875900Y-136736600D02*
X149427100Y-136736600D01*
X147233300Y-136094000D02*
X147875900Y-136736600D01*
X144259300Y-136094000D02*
X147233300Y-136094000D01*
X164213200Y-128689900D02*
X161097800Y-125574500D01*
X164213200Y-133493800D02*
X164213200Y-128689900D01*
X170512400Y-139793000D02*
X164213200Y-133493800D01*
X170579400Y-139793000D02*
X170512400Y-139793000D01*
X170579400Y-139793100D02*
X170579400Y-139793000D01*
X163808900Y-129927500D02*
X161090600Y-127209200D01*
X163808900Y-134240200D02*
X163808900Y-129927500D01*
X165078800Y-135510100D02*
X163808900Y-134240200D01*
X165078800Y-138161800D02*
X165078800Y-135510100D01*
X143587500Y-115571500D02*
X145709600Y-113449400D01*
X143587500Y-118505600D02*
X143587500Y-115571500D01*
X136397300Y-125695800D02*
X143587500Y-118505600D01*
X136397300Y-136642500D02*
X136397300Y-125695800D01*
X136279700Y-136760100D02*
X136397300Y-136642500D01*
X141461300Y-138315600D02*
X143127300Y-139981600D01*
X141461300Y-135180300D02*
X141461300Y-138315600D01*
X139941700Y-133660700D02*
X141461300Y-135180300D01*
X139941700Y-126685400D02*
X139941700Y-133660700D01*
X141784800Y-124842300D02*
X139941700Y-126685400D01*
X141784800Y-124602000D02*
X141784800Y-124842300D01*
X146973900Y-119412900D02*
X141784800Y-124602000D01*
X148413000Y-139428100D02*
X147502000Y-139428100D01*
X148731700Y-139746800D02*
X148413000Y-139428100D01*
X150132300Y-139746800D02*
X148731700Y-139746800D01*
X153174200Y-136704900D02*
X150132300Y-139746800D01*
X155686100Y-136704900D02*
X153174200Y-136704900D01*
X164892600Y-131387900D02*
X164892600Y-133211000D01*
X166003400Y-130277100D02*
X164892600Y-131387900D01*
X167045400Y-131680500D02*
X166502400Y-132223500D01*
X167045400Y-130048000D02*
X167045400Y-131680500D01*
X156151300Y-134644000D02*
X156512500Y-135005200D01*
X152951800Y-134644000D02*
X156151300Y-134644000D01*
X150016800Y-137579000D02*
X152951800Y-134644000D01*
X145503300Y-137579000D02*
X150016800Y-137579000D01*
X145450600Y-137526300D02*
X145503300Y-137579000D01*
X153605800Y-133355100D02*
X155073200Y-133355100D01*
X149820000Y-137140900D02*
X153605800Y-133355100D01*
X146414800Y-137140900D02*
X149820000Y-137140900D01*
X146065300Y-136791400D02*
X146414800Y-137140900D01*
X162534300Y-85908600D02*
X157734000Y-85908600D01*
X162778600Y-86152900D02*
X162534300Y-85908600D01*
X153912200Y-85908600D02*
X153906400Y-85902800D01*
X157734000Y-85908600D02*
X153912200Y-85908600D01*
X144780000Y-75438000D02*
X143700700Y-75438000D01*
X143700700Y-76213300D02*
X143700700Y-75438000D01*
X142425900Y-77488100D02*
X143700700Y-76213300D01*
X142425900Y-78436000D02*
X142425900Y-77488100D01*
X148262100Y-84272200D02*
X142425900Y-78436000D01*
X150725800Y-84272200D02*
X148262100Y-84272200D01*
X147320000Y-75438000D02*
X147320000Y-77484000D01*
X161317600Y-87884000D02*
X161386200Y-87952600D01*
X157734000Y-87884000D02*
X161317600Y-87884000D01*
X149498700Y-79662700D02*
X149847900Y-79662700D01*
X147320000Y-77484000D02*
X149498700Y-79662700D01*
X162587500Y-82804000D02*
X163383400Y-83599900D01*
X157734000Y-82804000D02*
X162587500Y-82804000D01*
X150731500Y-77388800D02*
X149860000Y-76517300D01*
X150731500Y-78337500D02*
X150731500Y-77388800D01*
X149860000Y-75438000D02*
X149860000Y-76517300D01*
X160977000Y-82377700D02*
X163385700Y-82377700D01*
X158863300Y-80264000D02*
X160977000Y-82377700D01*
X157734000Y-80264000D02*
X158863300Y-80264000D01*
X129356600Y-100064900D02*
X128157500Y-101264000D01*
X129356600Y-92789500D02*
X129356600Y-100064900D01*
X143580000Y-136694100D02*
X146153500Y-139267600D01*
X143580000Y-130590000D02*
X143580000Y-136694100D01*
X145166200Y-129003800D02*
X143580000Y-130590000D01*
X132501100Y-131893500D02*
X133337500Y-131057100D01*
X132501100Y-145503600D02*
X132501100Y-131893500D01*
X161163000Y-95504000D02*
X161163000Y-96633300D01*
X144424600Y-118307200D02*
X144301800Y-118307200D01*
X153305300Y-109426500D02*
X144424600Y-118307200D01*
X153305300Y-104491000D02*
X153305300Y-109426500D01*
X161163000Y-96633300D02*
X153305300Y-104491000D01*
X156098900Y-119005600D02*
X156098900Y-118629400D01*
X151752900Y-123351600D02*
X156098900Y-119005600D01*
X151704800Y-123351600D02*
X151752900Y-123351600D01*
X151896400Y-125355900D02*
X157306900Y-119945400D01*
X151896400Y-126686200D02*
X151896400Y-125355900D01*
X155064300Y-117546800D02*
X155384300Y-117546800D01*
X149645300Y-122965800D02*
X155064300Y-117546800D01*
X149645300Y-123539200D02*
X149645300Y-122965800D01*
X132080000Y-75438000D02*
X132080000Y-76517300D01*
X125913500Y-95430100D02*
X127615300Y-97131900D01*
X125913500Y-82683800D02*
X125913500Y-95430100D01*
X132080000Y-76517300D02*
X125913500Y-82683800D01*
X171323000Y-95504000D02*
X171323000Y-94374700D01*
X132916300Y-128021100D02*
X132916300Y-127991800D01*
X134241300Y-129346100D02*
X132916300Y-128021100D01*
X154551400Y-118631500D02*
X154940500Y-118631500D01*
X150621200Y-122561700D02*
X154551400Y-118631500D01*
X150621200Y-123545400D02*
X150621200Y-122561700D01*
X149165400Y-125001200D02*
X150621200Y-123545400D01*
X149117300Y-125001200D02*
X149165400Y-125001200D01*
X165154200Y-94374700D02*
X159747600Y-88968100D01*
X171323000Y-94374700D02*
X165154200Y-94374700D01*
X149031400Y-125087100D02*
X149117300Y-125001200D01*
X147750800Y-125087100D02*
X149031400Y-125087100D01*
X144167500Y-69891200D02*
X139700000Y-74358700D01*
X144167500Y-68860700D02*
X144167500Y-69891200D01*
X139700000Y-75438000D02*
X139700000Y-74358700D01*
X139785000Y-96980600D02*
X141113300Y-98308900D01*
X139785000Y-93376000D02*
X139785000Y-96980600D01*
X154914000Y-66421000D02*
X154914000Y-65291700D01*
X134620000Y-67302400D02*
X134620000Y-75438000D01*
X139617600Y-62304800D02*
X134620000Y-67302400D01*
X154961300Y-62304800D02*
X139617600Y-62304800D01*
X156047600Y-63391100D02*
X154961300Y-62304800D01*
X156047600Y-64440400D02*
X156047600Y-63391100D01*
X155196300Y-65291700D02*
X156047600Y-64440400D01*
X154914000Y-65291700D02*
X155196300Y-65291700D01*
X142150100Y-101023500D02*
X142200700Y-100972900D01*
X140657900Y-101023500D02*
X142150100Y-101023500D01*
X133295600Y-93661200D02*
X140657900Y-101023500D01*
X133295600Y-85263500D02*
X133295600Y-93661200D01*
X132162300Y-84130200D02*
X133295600Y-85263500D01*
X146391100Y-108112400D02*
X145829500Y-107550800D01*
X146391100Y-115380000D02*
X146391100Y-108112400D01*
X146208400Y-115562700D02*
X146391100Y-115380000D01*
X151244700Y-64115000D02*
X151244700Y-63881000D01*
X150084300Y-65275400D02*
X151244700Y-64115000D01*
X149333600Y-65275400D02*
X150084300Y-65275400D01*
X148564000Y-66045000D02*
X149333600Y-65275400D01*
X148564000Y-68034700D02*
X148564000Y-66045000D01*
X142240000Y-74358700D02*
X148564000Y-68034700D01*
X142240000Y-75438000D02*
X142240000Y-74358700D01*
X152374000Y-63881000D02*
X151244700Y-63881000D01*
X142240000Y-75438000D02*
X142240000Y-76517300D01*
X140785800Y-96291800D02*
X142269100Y-97775100D01*
X140785800Y-83108300D02*
X140785800Y-96291800D01*
X140593300Y-82915800D02*
X140785800Y-83108300D01*
X140593300Y-82353200D02*
X140593300Y-82915800D01*
X141367700Y-81578800D02*
X140593300Y-82353200D01*
X141367700Y-77389600D02*
X141367700Y-81578800D01*
X142240000Y-76517300D02*
X141367700Y-77389600D01*
X143402200Y-68116500D02*
X137160000Y-74358700D01*
X143402200Y-63632700D02*
X143402200Y-68116500D01*
X144283600Y-62751300D02*
X143402200Y-63632700D01*
X150730300Y-62751300D02*
X144283600Y-62751300D01*
X151104000Y-63125000D02*
X150730300Y-62751300D01*
X137160000Y-75073700D02*
X137160000Y-74358700D01*
X138316700Y-97721700D02*
X140939200Y-100344200D01*
X138316700Y-86520000D02*
X138316700Y-97721700D01*
X137900200Y-86103500D02*
X138316700Y-86520000D01*
X137900200Y-81848500D02*
X137900200Y-86103500D01*
X138204600Y-81544100D02*
X137900200Y-81848500D01*
X138204600Y-77561900D02*
X138204600Y-81544100D01*
X137160000Y-76517300D02*
X138204600Y-77561900D01*
X137160000Y-75438000D02*
X137160000Y-76517300D01*
X145839000Y-99945200D02*
X145839000Y-98734000D01*
X142034900Y-103749300D02*
X145839000Y-99945200D01*
X142034900Y-103764500D02*
X142034900Y-103749300D01*
X141476400Y-104323000D02*
X142034900Y-103764500D01*
X141476400Y-114021100D02*
X141476400Y-104323000D01*
X142540900Y-115085600D02*
X141476400Y-114021100D01*
X148751200Y-68633100D02*
X148751200Y-77954600D01*
X149834000Y-67550300D02*
X148751200Y-68633100D01*
X149834000Y-66421000D02*
X149834000Y-67550300D01*
X143886000Y-102859100D02*
X144466700Y-102278400D01*
X143886000Y-114701200D02*
X143886000Y-102859100D01*
X142498800Y-116088400D02*
X143886000Y-114701200D01*
X142498800Y-116099000D02*
X142498800Y-116088400D01*
X138405000Y-105394900D02*
X137830200Y-104820100D01*
X138405000Y-109193100D02*
X138405000Y-105394900D01*
X140185700Y-110973800D02*
X138405000Y-109193100D01*
X140185700Y-118046700D02*
X140185700Y-110973800D01*
X139700000Y-90678000D02*
X139700000Y-81827100D01*
X144754000Y-66421000D02*
X144754000Y-67550300D01*
X144868700Y-67665000D02*
X144754000Y-67550300D01*
X144868700Y-70129700D02*
X144868700Y-67665000D01*
X140963400Y-74035000D02*
X144868700Y-70129700D01*
X140963400Y-80563700D02*
X140963400Y-74035000D01*
X139700000Y-81827100D02*
X140963400Y-80563700D01*
X137982600Y-106322100D02*
X137204800Y-105544300D01*
X137982600Y-116018100D02*
X137982600Y-106322100D01*
X139047100Y-117082600D02*
X137982600Y-116018100D01*
X137160000Y-90678000D02*
X137160000Y-78476600D01*
X137160000Y-78476600D02*
X137509300Y-78127300D01*
X136882700Y-106829300D02*
X136543700Y-106490300D01*
X136882800Y-106829300D02*
X136882700Y-106829300D01*
X136882800Y-116401400D02*
X136882800Y-106829300D01*
X138656000Y-118174600D02*
X136882800Y-116401400D01*
X140284100Y-80536600D02*
X140284100Y-77719500D01*
X138630500Y-82190200D02*
X140284100Y-80536600D01*
X136100100Y-116826900D02*
X137527700Y-118254500D01*
X136100100Y-112103800D02*
X136100100Y-116826900D01*
X139674000Y-63881000D02*
X139674000Y-65010300D01*
X138968200Y-65010300D02*
X139674000Y-65010300D01*
X135996200Y-67982300D02*
X138968200Y-65010300D01*
X135996200Y-75588500D02*
X135996200Y-67982300D01*
X134804300Y-76780400D02*
X135996200Y-75588500D01*
X134804300Y-79666200D02*
X134804300Y-76780400D01*
X134960200Y-79822100D02*
X134804300Y-79666200D01*
X134960200Y-80389700D02*
X134960200Y-79822100D01*
X131899000Y-83450900D02*
X134960200Y-80389700D01*
X131881000Y-83450900D02*
X131899000Y-83450900D01*
X130876300Y-84455600D02*
X131881000Y-83450900D01*
X130876300Y-101314000D02*
X130876300Y-84455600D01*
X127651600Y-104538700D02*
X130876300Y-101314000D01*
X139170500Y-103315600D02*
X140951300Y-103315600D01*
X136316400Y-100461500D02*
X139170500Y-103315600D01*
X135835600Y-94933500D02*
X136858300Y-95956200D01*
X135835600Y-89953600D02*
X135835600Y-94933500D01*
X134165700Y-88283700D02*
X135835600Y-89953600D01*
X135397800Y-120628900D02*
X136662400Y-121893400D01*
X135397800Y-106737100D02*
X135397800Y-120628900D01*
X135756000Y-106378900D02*
X135397800Y-106737100D01*
X135756000Y-106037000D02*
X135756000Y-106378900D01*
X136525500Y-105267500D02*
X135756000Y-106037000D01*
X136525500Y-105263000D02*
X136525500Y-105267500D01*
X137150900Y-104637600D02*
X136525500Y-105263000D01*
X137150900Y-104538800D02*
X137150900Y-104637600D01*
X137548900Y-104140800D02*
X137150900Y-104538800D01*
X137652200Y-104140800D02*
X137548900Y-104140800D01*
X137652300Y-104140700D02*
X137652200Y-104140800D01*
X140499900Y-104140700D02*
X137652300Y-104140700D01*
X140645700Y-103994900D02*
X140499900Y-104140700D01*
X141232700Y-103994900D02*
X140645700Y-103994900D01*
X141630600Y-103597000D02*
X141232700Y-103994900D01*
X141630600Y-103010000D02*
X141630600Y-103597000D01*
X145159700Y-99480900D02*
X141630600Y-103010000D01*
X145159700Y-98452700D02*
X145159700Y-99480900D01*
X145557700Y-98054700D02*
X145159700Y-98452700D01*
X146584600Y-98054700D02*
X145557700Y-98054700D01*
X153481300Y-91158000D02*
X146584600Y-98054700D01*
X153481300Y-88144600D02*
X153481300Y-91158000D01*
X153184500Y-87847800D02*
X153481300Y-88144600D01*
X153184500Y-85664100D02*
X153184500Y-87847800D01*
X153621300Y-85227300D02*
X153184500Y-85664100D01*
X153621300Y-79453100D02*
X153621300Y-85227300D01*
X157454000Y-75620400D02*
X153621300Y-79453100D01*
X157454000Y-66421000D02*
X157454000Y-75620400D01*
X136662400Y-121893400D02*
X136906000Y-122137100D01*
X128501100Y-140991700D02*
X128501100Y-145503600D01*
X130596000Y-138896800D02*
X128501100Y-140991700D01*
X130596000Y-132687900D02*
X130596000Y-138896800D01*
X130458400Y-132550300D02*
X130596000Y-132687900D01*
X130458400Y-128097400D02*
X130458400Y-132550300D01*
X136662400Y-121893400D02*
X130458400Y-128097400D01*
D18*
X168512100Y-118046700D02*
X168375300Y-118183500D01*
X168512100Y-113071400D02*
X168512100Y-118046700D01*
X170883400Y-105064200D02*
X170883400Y-106704800D01*
X173574300Y-102373300D02*
X170883400Y-105064200D01*
X173863000Y-102373300D02*
X173574300Y-102373300D01*
X173863000Y-101219000D02*
X173863000Y-102373300D01*
D17*
X173863000Y-124079000D02*
X172783700Y-124079000D01*
X172783700Y-127291900D02*
X166988100Y-133087500D01*
X172783700Y-124079000D02*
X172783700Y-127291900D01*
X153473200Y-135325700D02*
X149738600Y-139060300D01*
X153676400Y-135325700D02*
X153473200Y-135325700D01*
X173375300Y-127698300D02*
X173863000Y-127698300D01*
X166958500Y-134115100D02*
X173375300Y-127698300D01*
X166376100Y-134115100D02*
X166958500Y-134115100D01*
X173863000Y-126619000D02*
X173863000Y-127698300D01*
X157193900Y-137397200D02*
X158651100Y-137397200D01*
X154889200Y-137397200D02*
X157193900Y-137397200D01*
X151978100Y-140308300D02*
X154889200Y-137397200D01*
X154295700Y-131543800D02*
X153031400Y-131543800D01*
X157193900Y-134442000D02*
X154295700Y-131543800D01*
X157193900Y-137397200D02*
X157193900Y-134442000D01*
X173751200Y-130238300D02*
X173863000Y-130238300D01*
X168658200Y-135331300D02*
X173751200Y-130238300D01*
X168658200Y-135439700D02*
X168658200Y-135331300D01*
X173863000Y-129159000D02*
X173863000Y-130238300D01*
X148961200Y-134806400D02*
X148961200Y-132765700D01*
X148082000Y-135685600D02*
X148961200Y-134806400D01*
X148961200Y-130765600D02*
X150070700Y-129656100D01*
X148961200Y-132765700D02*
X148961200Y-130765600D01*
X151544800Y-133657800D02*
X149149000Y-136053600D01*
X151544800Y-131002700D02*
X151544800Y-133657800D01*
X151683900Y-130863600D02*
X151544800Y-131002700D01*
X160095900Y-130289000D02*
X160428400Y-130621500D01*
X152258500Y-130289000D02*
X160095900Y-130289000D01*
X151683900Y-130863600D02*
X152258500Y-130289000D01*
X171905600Y-135117100D02*
X172783700Y-134239000D01*
X170945600Y-135117100D02*
X171905600Y-135117100D01*
X173863000Y-134239000D02*
X172783700Y-134239000D01*
X149774300Y-131072400D02*
X149774300Y-133430900D01*
X151523400Y-129323300D02*
X149774300Y-131072400D01*
X158623000Y-131699000D02*
X158623000Y-132778300D01*
X158734800Y-132778300D02*
X158623000Y-132778300D01*
X159702300Y-133745800D02*
X158734800Y-132778300D01*
X159702300Y-135372600D02*
X159702300Y-133745800D01*
X159559200Y-135515700D02*
X159702300Y-135372600D01*
X159559200Y-139136300D02*
X159559200Y-135515700D01*
X160651500Y-140228600D02*
X159559200Y-139136300D01*
X158623000Y-129159000D02*
X159926900Y-129159000D01*
X162883300Y-135485300D02*
X162883300Y-139367300D01*
X161583000Y-134185000D02*
X162883300Y-135485300D01*
X161583000Y-130815100D02*
X161583000Y-134185000D01*
X159926900Y-129159000D02*
X161583000Y-130815100D01*
X159085000Y-127698300D02*
X158623000Y-127698300D01*
X162038100Y-130651400D02*
X159085000Y-127698300D01*
X162038100Y-133929300D02*
X162038100Y-130651400D01*
X163717600Y-135608800D02*
X162038100Y-133929300D01*
X163717600Y-139030800D02*
X163717600Y-135608800D01*
X163914700Y-139227900D02*
X163717600Y-139030800D01*
X158623000Y-126619000D02*
X158623000Y-127698300D01*
X134920600Y-136055300D02*
X133920100Y-137055800D01*
X134920600Y-125120800D02*
X134920600Y-136055300D01*
X134660300Y-124860500D02*
X134920600Y-125120800D01*
X171902700Y-91098000D02*
X173830300Y-89170400D01*
X167525300Y-91098000D02*
X171902700Y-91098000D01*
X124501100Y-140904600D02*
X124501100Y-144656000D01*
X127297800Y-138107900D02*
X124501100Y-140904600D01*
X124501100Y-144656000D02*
X123467200Y-144656000D01*
X172873700Y-145503600D02*
X173534300Y-144843000D01*
X172501100Y-145503600D02*
X172873700Y-145503600D01*
X165989000Y-67238000D02*
X172489000Y-67238000D01*
X172489000Y-70892600D02*
X174877000Y-73280600D01*
X172489000Y-67238000D02*
X172489000Y-70892600D01*
X129428000Y-125642900D02*
X129428000Y-133351300D01*
X127826800Y-124041700D02*
X129428000Y-125642900D01*
X126883300Y-107742900D02*
X126883300Y-101128600D01*
X133725600Y-114585200D02*
X126883300Y-107742900D01*
X133881500Y-114741100D02*
X133725600Y-114585200D01*
X134603700Y-114741100D02*
X133881500Y-114741100D01*
X133725600Y-114585200D02*
X130239000Y-118071800D01*
X152494900Y-116431200D02*
X152494900Y-116399500D01*
X148330900Y-120595200D02*
X152494900Y-116431200D01*
X135718000Y-136359300D02*
X135718000Y-128449700D01*
X134501100Y-137576200D02*
X135718000Y-136359300D01*
X134501100Y-145503600D02*
X134501100Y-137576200D01*
X170234700Y-103489000D02*
X170533900Y-103788200D01*
X162880500Y-103489000D02*
X170234700Y-103489000D01*
X136992700Y-126704300D02*
X139595800Y-124101200D01*
X136992700Y-145012000D02*
X136992700Y-126704300D01*
X136501100Y-145503600D02*
X136992700Y-145012000D01*
X154486500Y-109210500D02*
X154486500Y-109157800D01*
X139595800Y-124101200D02*
X154486500Y-109210500D01*
X142269900Y-137591500D02*
X146501100Y-141822700D01*
X142269900Y-134845200D02*
X142269900Y-137591500D01*
X142012200Y-134587500D02*
X142269900Y-134845200D01*
X142012200Y-126147300D02*
X142012200Y-134587500D01*
X164688400Y-111379000D02*
X173863000Y-111379000D01*
X163572700Y-110263300D02*
X164688400Y-111379000D01*
X158211000Y-110263300D02*
X163572700Y-110263300D01*
X156265500Y-112208800D02*
X158211000Y-110263300D01*
X156265500Y-113621300D02*
X156265500Y-112208800D01*
X145844400Y-124042400D02*
X156265500Y-113621300D01*
X144800700Y-124042400D02*
X145844400Y-124042400D01*
X144762700Y-124004400D02*
X144800700Y-124042400D01*
X143717500Y-124004400D02*
X144762700Y-124004400D01*
X143322500Y-124399400D02*
X143717500Y-124004400D01*
X143322500Y-124837000D02*
X143322500Y-124399400D01*
X142012200Y-126147300D02*
X143322500Y-124837000D01*
X165557000Y-112817300D02*
X166189500Y-113449800D01*
X157641200Y-112817300D02*
X165557000Y-112817300D01*
X145752700Y-124705800D02*
X157641200Y-112817300D01*
X144035100Y-124705800D02*
X145752700Y-124705800D01*
X144501100Y-140394600D02*
X144501100Y-145503600D01*
X141865600Y-137759100D02*
X144501100Y-140394600D01*
X141865600Y-135012700D02*
X141865600Y-137759100D01*
X141241100Y-134388200D02*
X141865600Y-135012700D01*
X141241100Y-132909900D02*
X141241100Y-134388200D01*
X173863000Y-108839000D02*
X173863000Y-109918300D01*
X146946300Y-140536200D02*
X148501100Y-142091000D01*
X145889700Y-140536200D02*
X146946300Y-140536200D01*
X142698000Y-137344500D02*
X145889700Y-140536200D01*
X142698000Y-126842200D02*
X142698000Y-137344500D01*
X145352900Y-126842200D02*
X142698000Y-126842200D01*
X147071400Y-125123700D02*
X145352900Y-126842200D01*
X147071400Y-124805900D02*
X147071400Y-125123700D01*
X156497600Y-115379700D02*
X147071400Y-124805900D01*
X165227200Y-115379700D02*
X156497600Y-115379700D01*
X168217100Y-112389800D02*
X165227200Y-115379700D01*
X173294700Y-112389800D02*
X168217100Y-112389800D01*
X173390100Y-112485200D02*
X173294700Y-112389800D01*
X174369600Y-112485200D02*
X173390100Y-112485200D01*
X174963800Y-111891000D02*
X174369600Y-112485200D01*
X174963800Y-110907300D02*
X174963800Y-111891000D01*
X173974800Y-109918300D02*
X174963800Y-110907300D01*
X173863000Y-109918300D02*
X173974800Y-109918300D01*
X160501100Y-141608200D02*
X159021600Y-140128700D01*
X146301400Y-130287500D02*
X146301400Y-131452000D01*
X156339100Y-120249800D02*
X146301400Y-130287500D01*
X156339100Y-119931800D02*
X156339100Y-120249800D01*
X157271900Y-118999000D02*
X156339100Y-119931800D01*
X158623000Y-118999000D02*
X157271900Y-118999000D01*
X157315200Y-113919000D02*
X158623000Y-113919000D01*
X156501100Y-141061400D02*
X154742000Y-139302300D01*
X145090000Y-126144200D02*
X157315200Y-113919000D01*
X140623000Y-126575900D02*
X140623000Y-128874700D01*
X142237000Y-124961900D02*
X140623000Y-126575900D01*
X142237000Y-124896200D02*
X142237000Y-124961900D01*
X147041000Y-120092200D02*
X142237000Y-124896200D01*
X147255300Y-120092200D02*
X147041000Y-120092200D01*
X154164900Y-113182600D02*
X147255300Y-120092200D01*
X154301000Y-113182600D02*
X154164900Y-113182600D01*
X158623000Y-124079000D02*
X158623000Y-124932500D01*
X158623000Y-124932500D02*
X158623000Y-125158300D01*
X155477800Y-128077700D02*
X158623000Y-124932500D01*
X150688500Y-128077700D02*
X155477800Y-128077700D01*
X148104600Y-130661600D02*
X150688500Y-128077700D01*
X148104600Y-130979300D02*
X148104600Y-130661600D01*
X158734800Y-125158300D02*
X158623000Y-125158300D01*
X159784500Y-126208000D02*
X158734800Y-125158300D01*
X159784500Y-127437900D02*
X159784500Y-126208000D01*
X162442400Y-130095800D02*
X159784500Y-127437900D01*
X162442400Y-133624700D02*
X162442400Y-130095800D01*
X164266800Y-135449100D02*
X162442400Y-133624700D01*
X164266800Y-138329200D02*
X164266800Y-135449100D01*
X164671100Y-138733500D02*
X164266800Y-138329200D01*
X164671100Y-145333600D02*
X164671100Y-138733500D01*
X158623000Y-103759000D02*
X158623000Y-104838300D01*
X141451000Y-124167400D02*
X140526800Y-125091600D01*
X141451000Y-123764800D02*
X141451000Y-124167400D01*
X155570100Y-109645700D02*
X141451000Y-123764800D01*
X155570100Y-107793300D02*
X155570100Y-109645700D01*
X158525100Y-104838300D02*
X155570100Y-107793300D01*
X158623000Y-104838300D02*
X158525100Y-104838300D01*
X148538000Y-140124900D02*
X150501100Y-142088000D01*
X146050200Y-140124900D02*
X148538000Y-140124900D01*
X143126100Y-137200800D02*
X146050200Y-140124900D01*
X143126100Y-127841400D02*
X143126100Y-137200800D01*
X143401100Y-127566400D02*
X143126100Y-127841400D01*
X158543300Y-107378300D02*
X158623000Y-107378300D01*
X155660000Y-110261600D02*
X158543300Y-107378300D01*
X155660000Y-112814300D02*
X155660000Y-110261600D01*
X154372000Y-114102300D02*
X155660000Y-112814300D01*
X153824300Y-114102300D02*
X154372000Y-114102300D01*
X145082000Y-122844600D02*
X153824300Y-114102300D01*
X145082000Y-123363100D02*
X145082000Y-122844600D01*
X158623000Y-106299000D02*
X158623000Y-107378300D01*
X153707600Y-120314600D02*
X153829200Y-120314600D01*
X151025500Y-122996700D02*
X153707600Y-120314600D01*
X151025500Y-124419900D02*
X151025500Y-122996700D01*
X144264900Y-131180500D02*
X151025500Y-124419900D01*
X144264900Y-132617300D02*
X144264900Y-131180500D01*
X158623000Y-121539000D02*
X158623000Y-122618300D01*
X158734800Y-122618300D02*
X158623000Y-122618300D01*
X160410100Y-124293600D02*
X158734800Y-122618300D01*
X160410100Y-127489500D02*
X160410100Y-124293600D01*
X163121800Y-130201200D02*
X160410100Y-127489500D01*
X163121800Y-133340400D02*
X163121800Y-130201200D01*
X158623000Y-116459000D02*
X158623000Y-117538300D01*
X145347000Y-130670100D02*
X145347000Y-131366000D01*
X155934800Y-120082300D02*
X145347000Y-130670100D01*
X155934800Y-119764300D02*
X155934800Y-120082300D01*
X158160800Y-117538300D02*
X155934800Y-119764300D01*
X158623000Y-117538300D02*
X158160800Y-117538300D01*
X138415500Y-145418000D02*
X138415500Y-127293300D01*
X138415500Y-127293300D02*
X138334500Y-127293300D01*
X164261500Y-106632300D02*
X164492500Y-106632300D01*
X160226700Y-102597500D02*
X164261500Y-106632300D01*
X158258100Y-102597500D02*
X160226700Y-102597500D01*
X155165800Y-105689800D02*
X158258100Y-102597500D01*
X155165800Y-109465400D02*
X155165800Y-105689800D01*
X140302800Y-124328400D02*
X155165800Y-109465400D01*
X140302800Y-124355000D02*
X140302800Y-124328400D01*
X138415500Y-126242300D02*
X140302800Y-124355000D01*
X138415500Y-127293300D02*
X138415500Y-126242300D01*
X173863000Y-113919000D02*
X172783700Y-113919000D01*
X140782000Y-139092100D02*
X140782000Y-135461600D01*
X142501100Y-140811200D02*
X140782000Y-139092100D01*
X142501100Y-145503600D02*
X142501100Y-140811200D01*
X172783700Y-114745300D02*
X172783700Y-113919000D01*
X167260000Y-120269000D02*
X172783700Y-114745300D01*
X158286000Y-120269000D02*
X167260000Y-120269000D01*
X152944600Y-125610400D02*
X158286000Y-120269000D01*
X152944600Y-126685200D02*
X152944600Y-125610400D01*
X151956500Y-127673300D02*
X152944600Y-126685200D01*
X150448100Y-127673300D02*
X151956500Y-127673300D01*
X147424300Y-130697100D02*
X150448100Y-127673300D01*
X147424300Y-131289800D02*
X147424300Y-130697100D01*
X144337900Y-134376200D02*
X147424300Y-131289800D01*
X144265700Y-134376200D02*
X144337900Y-134376200D01*
G04 #@! TA.AperFunction,Conductor*
G36*
X175934721Y-60032102D02*
G01*
X175981214Y-60085758D01*
X175992600Y-60138100D01*
X175992600Y-79920068D01*
X175972598Y-79988189D01*
X175918942Y-80034682D01*
X175848668Y-80044786D01*
X175805900Y-80030483D01*
X175647013Y-79943135D01*
X175647008Y-79943133D01*
X175641613Y-79940167D01*
X175635746Y-79938306D01*
X175635744Y-79938305D01*
X175458964Y-79882227D01*
X175458963Y-79882227D01*
X175453094Y-79880365D01*
X175299173Y-79863100D01*
X175192631Y-79863100D01*
X175189575Y-79863400D01*
X175189568Y-79863400D01*
X175131060Y-79869137D01*
X175045567Y-79877520D01*
X175039666Y-79879302D01*
X175039664Y-79879302D01*
X175007520Y-79889007D01*
X174856231Y-79934684D01*
X174681604Y-80027534D01*
X174607516Y-80087959D01*
X174533113Y-80148640D01*
X174533110Y-80148643D01*
X174528338Y-80152535D01*
X174524411Y-80157282D01*
X174524409Y-80157284D01*
X174406199Y-80300175D01*
X174406197Y-80300179D01*
X174402270Y-80304925D01*
X174308202Y-80478899D01*
X174249718Y-80667832D01*
X174249074Y-80673957D01*
X174249074Y-80673958D01*
X174234832Y-80809469D01*
X174229045Y-80864525D01*
X174235009Y-80930055D01*
X174245916Y-81049903D01*
X174246970Y-81061488D01*
X174248708Y-81067394D01*
X174248709Y-81067398D01*
X174258788Y-81101643D01*
X174302810Y-81251219D01*
X174305663Y-81256677D01*
X174305665Y-81256681D01*
X174346149Y-81334118D01*
X174394440Y-81426490D01*
X174518368Y-81580625D01*
X174669874Y-81707754D01*
X174675272Y-81710721D01*
X174675277Y-81710725D01*
X174772586Y-81764220D01*
X174843187Y-81803033D01*
X174849054Y-81804894D01*
X174849056Y-81804895D01*
X175015868Y-81857811D01*
X175031706Y-81862835D01*
X175185627Y-81880100D01*
X175292169Y-81880100D01*
X175295225Y-81879800D01*
X175295232Y-81879800D01*
X175353740Y-81874063D01*
X175439233Y-81865680D01*
X175445134Y-81863898D01*
X175445136Y-81863898D01*
X175538041Y-81835848D01*
X175628569Y-81808516D01*
X175803196Y-81715666D01*
X175803888Y-81716968D01*
X175864688Y-81698109D01*
X175933105Y-81717075D01*
X175980406Y-81770019D01*
X175992600Y-81824094D01*
X175992600Y-87900068D01*
X175972598Y-87968189D01*
X175918942Y-88014682D01*
X175848668Y-88024786D01*
X175805900Y-88010483D01*
X175647013Y-87923135D01*
X175647008Y-87923133D01*
X175641613Y-87920167D01*
X175635746Y-87918306D01*
X175635744Y-87918305D01*
X175458964Y-87862227D01*
X175458963Y-87862227D01*
X175453094Y-87860365D01*
X175299173Y-87843100D01*
X175192631Y-87843100D01*
X175189575Y-87843400D01*
X175189568Y-87843400D01*
X175131060Y-87849137D01*
X175045567Y-87857520D01*
X175039666Y-87859302D01*
X175039664Y-87859302D01*
X175020686Y-87865032D01*
X174856231Y-87914684D01*
X174681604Y-88007534D01*
X174636021Y-88044711D01*
X174533113Y-88128640D01*
X174533110Y-88128643D01*
X174528338Y-88132535D01*
X174524411Y-88137282D01*
X174524409Y-88137284D01*
X174406199Y-88280175D01*
X174406197Y-88280179D01*
X174402270Y-88284925D01*
X174308202Y-88458899D01*
X174249718Y-88647832D01*
X174249074Y-88653957D01*
X174249074Y-88653958D01*
X174244340Y-88699005D01*
X174229045Y-88844525D01*
X174236553Y-88927024D01*
X174242078Y-88987729D01*
X174246970Y-89041488D01*
X174302810Y-89231219D01*
X174394440Y-89406490D01*
X174518368Y-89560625D01*
X174669874Y-89687754D01*
X174675272Y-89690721D01*
X174675277Y-89690725D01*
X174747227Y-89730279D01*
X174843187Y-89783033D01*
X174849054Y-89784894D01*
X174849056Y-89784895D01*
X175001594Y-89833283D01*
X175031706Y-89842835D01*
X175185627Y-89860100D01*
X175292169Y-89860100D01*
X175295225Y-89859800D01*
X175295232Y-89859800D01*
X175353740Y-89854063D01*
X175439233Y-89845680D01*
X175445134Y-89843898D01*
X175445136Y-89843898D01*
X175576972Y-89804094D01*
X175628569Y-89788516D01*
X175803196Y-89695666D01*
X175803888Y-89696968D01*
X175864688Y-89678109D01*
X175933105Y-89697075D01*
X175980406Y-89750019D01*
X175992600Y-89804094D01*
X175992600Y-139869100D01*
X175972598Y-139937221D01*
X175918942Y-139983714D01*
X175866600Y-139995100D01*
X174509723Y-139995100D01*
X174508953Y-139995098D01*
X174508137Y-139995093D01*
X174431379Y-139994624D01*
X174409018Y-140001015D01*
X174402947Y-140002750D01*
X174386185Y-140006328D01*
X174356913Y-140010520D01*
X174348745Y-140014234D01*
X174348744Y-140014234D01*
X174333538Y-140021148D01*
X174316014Y-140027596D01*
X174291329Y-140034651D01*
X174283735Y-140039443D01*
X174283732Y-140039444D01*
X174266320Y-140050430D01*
X174251237Y-140058569D01*
X174224318Y-140070808D01*
X174217516Y-140076669D01*
X174204865Y-140087570D01*
X174189861Y-140098673D01*
X174168142Y-140112376D01*
X174162203Y-140119101D01*
X174162199Y-140119104D01*
X174148568Y-140134538D01*
X174136376Y-140146582D01*
X174120773Y-140160027D01*
X174120771Y-140160030D01*
X174113973Y-140165887D01*
X174109093Y-140173416D01*
X174109092Y-140173417D01*
X174100006Y-140187435D01*
X174088715Y-140202309D01*
X174081872Y-140210058D01*
X174071722Y-140221551D01*
X174065412Y-140234991D01*
X174059158Y-140248311D01*
X174050837Y-140263291D01*
X174039629Y-140280583D01*
X174039627Y-140280588D01*
X174034748Y-140288115D01*
X174032178Y-140296708D01*
X174032176Y-140296713D01*
X174027389Y-140312720D01*
X174020728Y-140330164D01*
X174013669Y-140345199D01*
X174009819Y-140353400D01*
X174008438Y-140362267D01*
X174005813Y-140370854D01*
X174002675Y-140369895D01*
X173979275Y-140419607D01*
X173919109Y-140457298D01*
X173885010Y-140462000D01*
X173197369Y-140462000D01*
X173133230Y-140444453D01*
X173093818Y-140421145D01*
X173079376Y-140414895D01*
X172942616Y-140375162D01*
X172930029Y-140372864D01*
X172903725Y-140370793D01*
X172898798Y-140370600D01*
X172773215Y-140370600D01*
X172757976Y-140375075D01*
X172756771Y-140376465D01*
X172755100Y-140384148D01*
X172755100Y-140462000D01*
X172247100Y-140462000D01*
X172247100Y-140388715D01*
X172242625Y-140373476D01*
X172241235Y-140372271D01*
X172233552Y-140370600D01*
X172103402Y-140370600D01*
X172098475Y-140370793D01*
X172072171Y-140372864D01*
X172059584Y-140375162D01*
X171922824Y-140414895D01*
X171908382Y-140421145D01*
X171868970Y-140444453D01*
X171804831Y-140462000D01*
X171460493Y-140462000D01*
X171392372Y-140441998D01*
X171345879Y-140388342D01*
X171335775Y-140318068D01*
X171351374Y-140273000D01*
X171353788Y-140268820D01*
X171401475Y-140186223D01*
X171410623Y-140170379D01*
X171410624Y-140170378D01*
X171413927Y-140164656D01*
X171472942Y-139983028D01*
X171473776Y-139975098D01*
X171492214Y-139799665D01*
X171492904Y-139793100D01*
X171482744Y-139696435D01*
X171473632Y-139609735D01*
X171473632Y-139609733D01*
X171472942Y-139603172D01*
X171413927Y-139421544D01*
X171390539Y-139381034D01*
X171363901Y-139334897D01*
X171318440Y-139256156D01*
X171311059Y-139247958D01*
X171195075Y-139119145D01*
X171195074Y-139119144D01*
X171190653Y-139114234D01*
X171052268Y-139013691D01*
X171041494Y-139005863D01*
X171041493Y-139005862D01*
X171036152Y-139001982D01*
X171030124Y-138999298D01*
X171030122Y-138999297D01*
X170867719Y-138926991D01*
X170867718Y-138926991D01*
X170861688Y-138924306D01*
X170768287Y-138904453D01*
X170681344Y-138885972D01*
X170681339Y-138885972D01*
X170674887Y-138884600D01*
X170552094Y-138884600D01*
X170483973Y-138864598D01*
X170462999Y-138847695D01*
X168034127Y-136418823D01*
X168000101Y-136356511D01*
X168005166Y-136285696D01*
X168047713Y-136228860D01*
X168114233Y-136204049D01*
X168183607Y-136219140D01*
X168194111Y-136225785D01*
X168196107Y-136226937D01*
X168201448Y-136230818D01*
X168207476Y-136233502D01*
X168207478Y-136233503D01*
X168369881Y-136305809D01*
X168375912Y-136308494D01*
X168469312Y-136328347D01*
X168556256Y-136346828D01*
X168556261Y-136346828D01*
X168562713Y-136348200D01*
X168753687Y-136348200D01*
X168760139Y-136346828D01*
X168760144Y-136346828D01*
X168847088Y-136328347D01*
X168940488Y-136308494D01*
X168946519Y-136305809D01*
X169108922Y-136233503D01*
X169108924Y-136233502D01*
X169114952Y-136230818D01*
X169121880Y-136225785D01*
X169201474Y-136167956D01*
X169269453Y-136118566D01*
X169305637Y-136078380D01*
X169392821Y-135981552D01*
X169392822Y-135981551D01*
X169397240Y-135976644D01*
X169492727Y-135811256D01*
X169551742Y-135629628D01*
X169552582Y-135621642D01*
X169571014Y-135446265D01*
X169571704Y-135439700D01*
X169570206Y-135425444D01*
X169566003Y-135385450D01*
X169578776Y-135315612D01*
X169602218Y-135283186D01*
X169820215Y-135065189D01*
X169882527Y-135031163D01*
X169953342Y-135036228D01*
X170010178Y-135078775D01*
X170034620Y-135141114D01*
X170049285Y-135280640D01*
X170052058Y-135307028D01*
X170111073Y-135488656D01*
X170206560Y-135654044D01*
X170210978Y-135658951D01*
X170210979Y-135658952D01*
X170293052Y-135750103D01*
X170334347Y-135795966D01*
X170488848Y-135908218D01*
X170494876Y-135910902D01*
X170494878Y-135910903D01*
X170657281Y-135983209D01*
X170663312Y-135985894D01*
X170756713Y-136005747D01*
X170843656Y-136024228D01*
X170843661Y-136024228D01*
X170850113Y-136025600D01*
X171041087Y-136025600D01*
X171047539Y-136024228D01*
X171047544Y-136024228D01*
X171134487Y-136005747D01*
X171227888Y-135985894D01*
X171233919Y-135983209D01*
X171396322Y-135910903D01*
X171396324Y-135910902D01*
X171402352Y-135908218D01*
X171556853Y-135795966D01*
X171561268Y-135791063D01*
X171566180Y-135786640D01*
X171567305Y-135787889D01*
X171620614Y-135755049D01*
X171653800Y-135750600D01*
X171826833Y-135750600D01*
X171838016Y-135751127D01*
X171845509Y-135752802D01*
X171853435Y-135752553D01*
X171853436Y-135752553D01*
X171913586Y-135750662D01*
X171917545Y-135750600D01*
X171945456Y-135750600D01*
X171949391Y-135750103D01*
X171949456Y-135750095D01*
X171961293Y-135749162D01*
X171993551Y-135748148D01*
X171997570Y-135748022D01*
X172005489Y-135747773D01*
X172024943Y-135742121D01*
X172044300Y-135738113D01*
X172056530Y-135736568D01*
X172056531Y-135736568D01*
X172064397Y-135735574D01*
X172071768Y-135732655D01*
X172071770Y-135732655D01*
X172105512Y-135719296D01*
X172116742Y-135715451D01*
X172151583Y-135705329D01*
X172151584Y-135705329D01*
X172159193Y-135703118D01*
X172166012Y-135699085D01*
X172166017Y-135699083D01*
X172176628Y-135692807D01*
X172194376Y-135684112D01*
X172213217Y-135676652D01*
X172248987Y-135650664D01*
X172258907Y-135644148D01*
X172290135Y-135625680D01*
X172290138Y-135625678D01*
X172296962Y-135621642D01*
X172311283Y-135607321D01*
X172326317Y-135594480D01*
X172336294Y-135587231D01*
X172342707Y-135582572D01*
X172347758Y-135576467D01*
X172347763Y-135576462D01*
X172370899Y-135548496D01*
X172378877Y-135539728D01*
X172756959Y-135161646D01*
X172819271Y-135127621D01*
X172890087Y-135132686D01*
X172935149Y-135161647D01*
X173018700Y-135245198D01*
X173023208Y-135248355D01*
X173023211Y-135248357D01*
X173025232Y-135249772D01*
X173206251Y-135376523D01*
X173211233Y-135378846D01*
X173211238Y-135378849D01*
X173386341Y-135460500D01*
X173413757Y-135473284D01*
X173419065Y-135474706D01*
X173419067Y-135474707D01*
X173629598Y-135531119D01*
X173629600Y-135531119D01*
X173634913Y-135532543D01*
X173863000Y-135552498D01*
X174091087Y-135532543D01*
X174096400Y-135531119D01*
X174096402Y-135531119D01*
X174306933Y-135474707D01*
X174306935Y-135474706D01*
X174312243Y-135473284D01*
X174339659Y-135460500D01*
X174514762Y-135378849D01*
X174514767Y-135378846D01*
X174519749Y-135376523D01*
X174700768Y-135249772D01*
X174702789Y-135248357D01*
X174702792Y-135248355D01*
X174707300Y-135245198D01*
X174869198Y-135083300D01*
X174872367Y-135078775D01*
X174938803Y-134983894D01*
X175000523Y-134895749D01*
X175002846Y-134890767D01*
X175002849Y-134890762D01*
X175094961Y-134693225D01*
X175094961Y-134693224D01*
X175097284Y-134688243D01*
X175098929Y-134682106D01*
X175155119Y-134472402D01*
X175155119Y-134472400D01*
X175156543Y-134467087D01*
X175176498Y-134239000D01*
X175156543Y-134010913D01*
X175154930Y-134004893D01*
X175098707Y-133795067D01*
X175098706Y-133795065D01*
X175097284Y-133789757D01*
X175094961Y-133784775D01*
X175002849Y-133587238D01*
X175002846Y-133587233D01*
X175000523Y-133582251D01*
X174895873Y-133432796D01*
X174872357Y-133399211D01*
X174872355Y-133399208D01*
X174869198Y-133394700D01*
X174707300Y-133232802D01*
X174702792Y-133229645D01*
X174702789Y-133229643D01*
X174579020Y-133142979D01*
X174519749Y-133101477D01*
X174514767Y-133099154D01*
X174514762Y-133099151D01*
X174480543Y-133083195D01*
X174427258Y-133036278D01*
X174407797Y-132968001D01*
X174428339Y-132900041D01*
X174480543Y-132854805D01*
X174514762Y-132838849D01*
X174514767Y-132838846D01*
X174519749Y-132836523D01*
X174658249Y-132739544D01*
X174702789Y-132708357D01*
X174702792Y-132708355D01*
X174707300Y-132705198D01*
X174869198Y-132543300D01*
X174872361Y-132538784D01*
X174959759Y-132413966D01*
X175000523Y-132355749D01*
X175002846Y-132350767D01*
X175002849Y-132350762D01*
X175094961Y-132153225D01*
X175094961Y-132153224D01*
X175097284Y-132148243D01*
X175104139Y-132122662D01*
X175155119Y-131932402D01*
X175155119Y-131932400D01*
X175156543Y-131927087D01*
X175176498Y-131699000D01*
X175156543Y-131470913D01*
X175151864Y-131453451D01*
X175098707Y-131255067D01*
X175098706Y-131255065D01*
X175097284Y-131249757D01*
X175093142Y-131240874D01*
X175002849Y-131047238D01*
X175002846Y-131047233D01*
X175000523Y-131042251D01*
X174884227Y-130876163D01*
X174872357Y-130859211D01*
X174872355Y-130859208D01*
X174869198Y-130854700D01*
X174707300Y-130692802D01*
X174702792Y-130689645D01*
X174702789Y-130689643D01*
X174521658Y-130562814D01*
X174477330Y-130507357D01*
X174470021Y-130436738D01*
X174470304Y-130435623D01*
X174470283Y-130435619D01*
X174480805Y-130380457D01*
X174482532Y-130372729D01*
X174486639Y-130356734D01*
X174522954Y-130295728D01*
X174536404Y-130284861D01*
X174636327Y-130214894D01*
X174702789Y-130168357D01*
X174702792Y-130168355D01*
X174707300Y-130165198D01*
X174869198Y-130003300D01*
X175000523Y-129815749D01*
X175002846Y-129810767D01*
X175002849Y-129810762D01*
X175094961Y-129613225D01*
X175094961Y-129613224D01*
X175097284Y-129608243D01*
X175101007Y-129594351D01*
X175155119Y-129392402D01*
X175155119Y-129392400D01*
X175156543Y-129387087D01*
X175176498Y-129159000D01*
X175156543Y-128930913D01*
X175148340Y-128900300D01*
X175098707Y-128715067D01*
X175098706Y-128715065D01*
X175097284Y-128709757D01*
X175082449Y-128677943D01*
X175002849Y-128507238D01*
X175002846Y-128507233D01*
X175000523Y-128502251D01*
X174905547Y-128366612D01*
X174872357Y-128319211D01*
X174872355Y-128319208D01*
X174869198Y-128314700D01*
X174707300Y-128152802D01*
X174702792Y-128149645D01*
X174702789Y-128149643D01*
X174570959Y-128057335D01*
X174521657Y-128022813D01*
X174477330Y-127967357D01*
X174470021Y-127896738D01*
X174470304Y-127895623D01*
X174470283Y-127895619D01*
X174480805Y-127840457D01*
X174482532Y-127832729D01*
X174484315Y-127825787D01*
X174486640Y-127816733D01*
X174522954Y-127755728D01*
X174536404Y-127744861D01*
X174694517Y-127634149D01*
X174702789Y-127628357D01*
X174702792Y-127628355D01*
X174707300Y-127625198D01*
X174869198Y-127463300D01*
X174878548Y-127449948D01*
X174935054Y-127369248D01*
X175000523Y-127275749D01*
X175002846Y-127270767D01*
X175002849Y-127270762D01*
X175094961Y-127073225D01*
X175094961Y-127073224D01*
X175097284Y-127068243D01*
X175104906Y-127039800D01*
X175155119Y-126852402D01*
X175155119Y-126852400D01*
X175156543Y-126847087D01*
X175176498Y-126619000D01*
X175156543Y-126390913D01*
X175097284Y-126169757D01*
X175062830Y-126095870D01*
X175002849Y-125967238D01*
X175002846Y-125967233D01*
X175000523Y-125962251D01*
X174888637Y-125802462D01*
X174872357Y-125779211D01*
X174872355Y-125779208D01*
X174869198Y-125774700D01*
X174707300Y-125612802D01*
X174702792Y-125609645D01*
X174702789Y-125609643D01*
X174602423Y-125539366D01*
X174519749Y-125481477D01*
X174514767Y-125479154D01*
X174514762Y-125479151D01*
X174480543Y-125463195D01*
X174427258Y-125416278D01*
X174407797Y-125348001D01*
X174428339Y-125280041D01*
X174480543Y-125234805D01*
X174514762Y-125218849D01*
X174514767Y-125218846D01*
X174519749Y-125216523D01*
X174673532Y-125108843D01*
X174702789Y-125088357D01*
X174702792Y-125088355D01*
X174707300Y-125085198D01*
X174869198Y-124923300D01*
X174880629Y-124906976D01*
X174997366Y-124740257D01*
X175000523Y-124735749D01*
X175002846Y-124730767D01*
X175002849Y-124730762D01*
X175094961Y-124533225D01*
X175094961Y-124533224D01*
X175097284Y-124528243D01*
X175119524Y-124445245D01*
X175155119Y-124312402D01*
X175155119Y-124312400D01*
X175156543Y-124307087D01*
X175176498Y-124079000D01*
X175156543Y-123850913D01*
X175152814Y-123836997D01*
X175098707Y-123635067D01*
X175098706Y-123635065D01*
X175097284Y-123629757D01*
X175094961Y-123624775D01*
X175002849Y-123427238D01*
X175002846Y-123427233D01*
X175000523Y-123422251D01*
X174869198Y-123234700D01*
X174707300Y-123072802D01*
X174702792Y-123069645D01*
X174702789Y-123069643D01*
X174579565Y-122983361D01*
X174519749Y-122941477D01*
X174514767Y-122939154D01*
X174514762Y-122939151D01*
X174480543Y-122923195D01*
X174427258Y-122876278D01*
X174407797Y-122808001D01*
X174428339Y-122740041D01*
X174480543Y-122694805D01*
X174514762Y-122678849D01*
X174514767Y-122678846D01*
X174519749Y-122676523D01*
X174644542Y-122589142D01*
X174702789Y-122548357D01*
X174702792Y-122548355D01*
X174707300Y-122545198D01*
X174869198Y-122383300D01*
X175000523Y-122195749D01*
X175002846Y-122190767D01*
X175002849Y-122190762D01*
X175094961Y-121993225D01*
X175094961Y-121993224D01*
X175097284Y-121988243D01*
X175106531Y-121953735D01*
X175155119Y-121772402D01*
X175155119Y-121772400D01*
X175156543Y-121767087D01*
X175176498Y-121539000D01*
X175156543Y-121310913D01*
X175145846Y-121270991D01*
X175098707Y-121095067D01*
X175098706Y-121095065D01*
X175097284Y-121089757D01*
X175086209Y-121066007D01*
X175002849Y-120887238D01*
X175002846Y-120887233D01*
X175000523Y-120882251D01*
X174869198Y-120694700D01*
X174707300Y-120532802D01*
X174702792Y-120529645D01*
X174702789Y-120529643D01*
X174539941Y-120415615D01*
X174495613Y-120360158D01*
X174490382Y-120342539D01*
X174490225Y-120340050D01*
X174487679Y-120332213D01*
X174482506Y-120309069D01*
X174482468Y-120308765D01*
X174482467Y-120308760D01*
X174481474Y-120300903D01*
X174478556Y-120293532D01*
X174475457Y-120285703D01*
X174468979Y-120215003D01*
X174501754Y-120152024D01*
X174520339Y-120136110D01*
X174702789Y-120008357D01*
X174702792Y-120008355D01*
X174707300Y-120005198D01*
X174869198Y-119843300D01*
X174889850Y-119813807D01*
X174935027Y-119749287D01*
X175000523Y-119655749D01*
X175002846Y-119650767D01*
X175002849Y-119650762D01*
X175094961Y-119453225D01*
X175094961Y-119453224D01*
X175097284Y-119448243D01*
X175115106Y-119381733D01*
X175155119Y-119232402D01*
X175155119Y-119232400D01*
X175156543Y-119227087D01*
X175176498Y-118999000D01*
X175156543Y-118770913D01*
X175119262Y-118631779D01*
X175098707Y-118555067D01*
X175098706Y-118555065D01*
X175097284Y-118549757D01*
X175093489Y-118541619D01*
X175002849Y-118347238D01*
X175002846Y-118347233D01*
X175000523Y-118342251D01*
X174893961Y-118190065D01*
X174872357Y-118159211D01*
X174872355Y-118159208D01*
X174869198Y-118154700D01*
X174707300Y-117992802D01*
X174702792Y-117989645D01*
X174702789Y-117989643D01*
X174521658Y-117862814D01*
X174477330Y-117807357D01*
X174470021Y-117736738D01*
X174470304Y-117735623D01*
X174470283Y-117735619D01*
X174480805Y-117680457D01*
X174482532Y-117672729D01*
X174483382Y-117669421D01*
X174486640Y-117656733D01*
X174522954Y-117595728D01*
X174536404Y-117584861D01*
X174650980Y-117504634D01*
X174702789Y-117468357D01*
X174702792Y-117468355D01*
X174707300Y-117465198D01*
X174869198Y-117303300D01*
X174882663Y-117284071D01*
X174997366Y-117120257D01*
X175000523Y-117115749D01*
X175002846Y-117110767D01*
X175002849Y-117110762D01*
X175094961Y-116913225D01*
X175094961Y-116913224D01*
X175097284Y-116908243D01*
X175101956Y-116890809D01*
X175155119Y-116692402D01*
X175155119Y-116692400D01*
X175156543Y-116687087D01*
X175176498Y-116459000D01*
X175156543Y-116230913D01*
X175141320Y-116174100D01*
X175098707Y-116015067D01*
X175098706Y-116015065D01*
X175097284Y-116009757D01*
X175083273Y-115979710D01*
X175002849Y-115807238D01*
X175002846Y-115807233D01*
X175000523Y-115802251D01*
X174869198Y-115614700D01*
X174707300Y-115452802D01*
X174702792Y-115449645D01*
X174702789Y-115449643D01*
X174624611Y-115394902D01*
X174519749Y-115321477D01*
X174514767Y-115319154D01*
X174514762Y-115319151D01*
X174480543Y-115303195D01*
X174427258Y-115256278D01*
X174407797Y-115188001D01*
X174428339Y-115120041D01*
X174480543Y-115074805D01*
X174514762Y-115058849D01*
X174514767Y-115058846D01*
X174519749Y-115056523D01*
X174624611Y-114983098D01*
X174702789Y-114928357D01*
X174702792Y-114928355D01*
X174707300Y-114925198D01*
X174869198Y-114763300D01*
X174883188Y-114743321D01*
X174932748Y-114672542D01*
X175000523Y-114575749D01*
X175002846Y-114570767D01*
X175002849Y-114570762D01*
X175094961Y-114373225D01*
X175094961Y-114373224D01*
X175097284Y-114368243D01*
X175100056Y-114357900D01*
X175155119Y-114152402D01*
X175155119Y-114152400D01*
X175156543Y-114147087D01*
X175176498Y-113919000D01*
X175156543Y-113690913D01*
X175142828Y-113639728D01*
X175098707Y-113475067D01*
X175098706Y-113475065D01*
X175097284Y-113469757D01*
X175094961Y-113464775D01*
X175002849Y-113267238D01*
X175002846Y-113267233D01*
X175000523Y-113262251D01*
X174912211Y-113136129D01*
X174872357Y-113079211D01*
X174872355Y-113079208D01*
X174869198Y-113074700D01*
X174861696Y-113067198D01*
X174827670Y-113004886D01*
X174832735Y-112934071D01*
X174861696Y-112889008D01*
X175356047Y-112394657D01*
X175364337Y-112387113D01*
X175370818Y-112383000D01*
X175417459Y-112333332D01*
X175420213Y-112330491D01*
X175439935Y-112310769D01*
X175442419Y-112307567D01*
X175450117Y-112298555D01*
X175474961Y-112272098D01*
X175480386Y-112266321D01*
X175490147Y-112248566D01*
X175500998Y-112232047D01*
X175513414Y-112216041D01*
X175516564Y-112208762D01*
X175530974Y-112175463D01*
X175536191Y-112164813D01*
X175557495Y-112126060D01*
X175562533Y-112106437D01*
X175568937Y-112087734D01*
X175573833Y-112076420D01*
X175573833Y-112076419D01*
X175576981Y-112069145D01*
X175578220Y-112061322D01*
X175578223Y-112061312D01*
X175583899Y-112025476D01*
X175586305Y-112013856D01*
X175595328Y-111978711D01*
X175595328Y-111978710D01*
X175597300Y-111971030D01*
X175597300Y-111950776D01*
X175598851Y-111931065D01*
X175600780Y-111918886D01*
X175602020Y-111911057D01*
X175597859Y-111867038D01*
X175597300Y-111855181D01*
X175597300Y-110986067D01*
X175597827Y-110974884D01*
X175599502Y-110967391D01*
X175597362Y-110899314D01*
X175597300Y-110895355D01*
X175597300Y-110867444D01*
X175596795Y-110863444D01*
X175595862Y-110851601D01*
X175594722Y-110815329D01*
X175594473Y-110807410D01*
X175588822Y-110787958D01*
X175584814Y-110768606D01*
X175583267Y-110756363D01*
X175582274Y-110748503D01*
X175573166Y-110725498D01*
X175566000Y-110707397D01*
X175562155Y-110696170D01*
X175560877Y-110691771D01*
X175549818Y-110653707D01*
X175545784Y-110646885D01*
X175545781Y-110646879D01*
X175539506Y-110636268D01*
X175530810Y-110618518D01*
X175526272Y-110607056D01*
X175526269Y-110607051D01*
X175523352Y-110599683D01*
X175510701Y-110582270D01*
X175497373Y-110563925D01*
X175490857Y-110554007D01*
X175472375Y-110522757D01*
X175468342Y-110515937D01*
X175454018Y-110501613D01*
X175441176Y-110486578D01*
X175437765Y-110481883D01*
X175429272Y-110470193D01*
X175395206Y-110442011D01*
X175386427Y-110434022D01*
X174841547Y-109889142D01*
X174807521Y-109826830D01*
X174812586Y-109756015D01*
X174841547Y-109710952D01*
X174865303Y-109687196D01*
X174865308Y-109687190D01*
X174869198Y-109683300D01*
X174876116Y-109673421D01*
X174997366Y-109500257D01*
X175000523Y-109495749D01*
X175002846Y-109490767D01*
X175002849Y-109490762D01*
X175094961Y-109293225D01*
X175094961Y-109293224D01*
X175097284Y-109288243D01*
X175156543Y-109067087D01*
X175176498Y-108839000D01*
X175156543Y-108610913D01*
X175134030Y-108526894D01*
X175098707Y-108395067D01*
X175098706Y-108395065D01*
X175097284Y-108389757D01*
X175086524Y-108366682D01*
X175002849Y-108187238D01*
X175002846Y-108187233D01*
X175000523Y-108182251D01*
X174892848Y-108028476D01*
X174872357Y-107999211D01*
X174872355Y-107999208D01*
X174869198Y-107994700D01*
X174707300Y-107832802D01*
X174702792Y-107829645D01*
X174702789Y-107829643D01*
X174609342Y-107764211D01*
X174519749Y-107701477D01*
X174514767Y-107699154D01*
X174514762Y-107699151D01*
X174480543Y-107683195D01*
X174427258Y-107636278D01*
X174407797Y-107568001D01*
X174428339Y-107500041D01*
X174480543Y-107454805D01*
X174514762Y-107438849D01*
X174514767Y-107438846D01*
X174519749Y-107436523D01*
X174638031Y-107353701D01*
X174702789Y-107308357D01*
X174702792Y-107308355D01*
X174707300Y-107305198D01*
X174869198Y-107143300D01*
X175000523Y-106955749D01*
X175002846Y-106950767D01*
X175002849Y-106950762D01*
X175094961Y-106753225D01*
X175094961Y-106753224D01*
X175097284Y-106748243D01*
X175100616Y-106735810D01*
X175155119Y-106532402D01*
X175155119Y-106532400D01*
X175156543Y-106527087D01*
X175176498Y-106299000D01*
X175156543Y-106070913D01*
X175136721Y-105996935D01*
X175098707Y-105855067D01*
X175098706Y-105855065D01*
X175097284Y-105849757D01*
X175039398Y-105725619D01*
X175002849Y-105647238D01*
X175002846Y-105647233D01*
X175000523Y-105642251D01*
X174914563Y-105519488D01*
X174872357Y-105459211D01*
X174872355Y-105459208D01*
X174869198Y-105454700D01*
X174707300Y-105292802D01*
X174702792Y-105289645D01*
X174702789Y-105289643D01*
X174599852Y-105217566D01*
X174519749Y-105161477D01*
X174514767Y-105159154D01*
X174514762Y-105159151D01*
X174480543Y-105143195D01*
X174427258Y-105096278D01*
X174407797Y-105028001D01*
X174428339Y-104960041D01*
X174480543Y-104914805D01*
X174514762Y-104898849D01*
X174514767Y-104898846D01*
X174519749Y-104896523D01*
X174690764Y-104776777D01*
X174702789Y-104768357D01*
X174702792Y-104768355D01*
X174707300Y-104765198D01*
X174869198Y-104603300D01*
X174885991Y-104579318D01*
X174950295Y-104487482D01*
X175000523Y-104415749D01*
X175002846Y-104410767D01*
X175002849Y-104410762D01*
X175094961Y-104213225D01*
X175094961Y-104213224D01*
X175097284Y-104208243D01*
X175102195Y-104189917D01*
X175155119Y-103992402D01*
X175155119Y-103992400D01*
X175156543Y-103987087D01*
X175176498Y-103759000D01*
X175156543Y-103530913D01*
X175150995Y-103510206D01*
X175098707Y-103315067D01*
X175098706Y-103315065D01*
X175097284Y-103309757D01*
X175061287Y-103232561D01*
X175002849Y-103107238D01*
X175002846Y-103107233D01*
X175000523Y-103102251D01*
X174899003Y-102957266D01*
X174872357Y-102919211D01*
X174872355Y-102919208D01*
X174869198Y-102914700D01*
X174707300Y-102752802D01*
X174702792Y-102749645D01*
X174702789Y-102749643D01*
X174604305Y-102680684D01*
X174559977Y-102625227D01*
X174552694Y-102554863D01*
X174554282Y-102550791D01*
X174557235Y-102528363D01*
X174559192Y-102513493D01*
X174561910Y-102499241D01*
X174569225Y-102470118D01*
X174571076Y-102462751D01*
X174571287Y-102422624D01*
X174571335Y-102421265D01*
X174571500Y-102420006D01*
X174571500Y-102385878D01*
X174591502Y-102317757D01*
X174625229Y-102282665D01*
X174702789Y-102228357D01*
X174702792Y-102228355D01*
X174707300Y-102225198D01*
X174869198Y-102063300D01*
X174883761Y-102042503D01*
X174988942Y-101892288D01*
X175000523Y-101875749D01*
X175002846Y-101870767D01*
X175002849Y-101870762D01*
X175094961Y-101673225D01*
X175094961Y-101673224D01*
X175097284Y-101668243D01*
X175100821Y-101655045D01*
X175155119Y-101452402D01*
X175155119Y-101452400D01*
X175156543Y-101447087D01*
X175176498Y-101219000D01*
X175156543Y-100990913D01*
X175144810Y-100947125D01*
X175098707Y-100775067D01*
X175098706Y-100775065D01*
X175097284Y-100769757D01*
X175080039Y-100732774D01*
X175002849Y-100567238D01*
X175002846Y-100567233D01*
X175000523Y-100562251D01*
X174916094Y-100441674D01*
X174872357Y-100379211D01*
X174872355Y-100379208D01*
X174869198Y-100374700D01*
X174707300Y-100212802D01*
X174702792Y-100209645D01*
X174702789Y-100209643D01*
X174610369Y-100144930D01*
X174519749Y-100081477D01*
X174514767Y-100079154D01*
X174514762Y-100079151D01*
X174317225Y-99987039D01*
X174317224Y-99987039D01*
X174312243Y-99984716D01*
X174306935Y-99983294D01*
X174306933Y-99983293D01*
X174096402Y-99926881D01*
X174096400Y-99926881D01*
X174091087Y-99925457D01*
X173863000Y-99905502D01*
X173634913Y-99925457D01*
X173629600Y-99926881D01*
X173629598Y-99926881D01*
X173419067Y-99983293D01*
X173419065Y-99983294D01*
X173413757Y-99984716D01*
X173408776Y-99987039D01*
X173408775Y-99987039D01*
X173211238Y-100079151D01*
X173211233Y-100079154D01*
X173206251Y-100081477D01*
X173115631Y-100144930D01*
X173023211Y-100209643D01*
X173023208Y-100209645D01*
X173018700Y-100212802D01*
X172856802Y-100374700D01*
X172853645Y-100379208D01*
X172853643Y-100379211D01*
X172809906Y-100441674D01*
X172725477Y-100562251D01*
X172723154Y-100567233D01*
X172723151Y-100567238D01*
X172645961Y-100732774D01*
X172628716Y-100769757D01*
X172627294Y-100775065D01*
X172627293Y-100775067D01*
X172581190Y-100947125D01*
X172569457Y-100990913D01*
X172549502Y-101219000D01*
X172569457Y-101447087D01*
X172570881Y-101452400D01*
X172570881Y-101452402D01*
X172625180Y-101655045D01*
X172628716Y-101668243D01*
X172631039Y-101673224D01*
X172631039Y-101673225D01*
X172723151Y-101870762D01*
X172723154Y-101870767D01*
X172725477Y-101875749D01*
X172728633Y-101880256D01*
X172728634Y-101880258D01*
X172806673Y-101991709D01*
X172829361Y-102058983D01*
X172812076Y-102127844D01*
X172792555Y-102153075D01*
X171543307Y-103402323D01*
X171480995Y-103436349D01*
X171410180Y-103431284D01*
X171353344Y-103388737D01*
X171345093Y-103376228D01*
X171276241Y-103256974D01*
X171272940Y-103251256D01*
X171254702Y-103231000D01*
X171149575Y-103114245D01*
X171149574Y-103114244D01*
X171145153Y-103109334D01*
X170990652Y-102997082D01*
X170984624Y-102994398D01*
X170984622Y-102994397D01*
X170822219Y-102922091D01*
X170822218Y-102922091D01*
X170816188Y-102919406D01*
X170722788Y-102899553D01*
X170635844Y-102881072D01*
X170635839Y-102881072D01*
X170629387Y-102879700D01*
X170440576Y-102879700D01*
X170412854Y-102875754D01*
X170412844Y-102875818D01*
X170408787Y-102875175D01*
X170408711Y-102875164D01*
X170405017Y-102874579D01*
X170405010Y-102874577D01*
X170369176Y-102868901D01*
X170357556Y-102866495D01*
X170322411Y-102857472D01*
X170322410Y-102857472D01*
X170314730Y-102855500D01*
X170294476Y-102855500D01*
X170274765Y-102853949D01*
X170262586Y-102852020D01*
X170254757Y-102850780D01*
X170246865Y-102851526D01*
X170210739Y-102854941D01*
X170198881Y-102855500D01*
X163588700Y-102855500D01*
X163520579Y-102835498D01*
X163501353Y-102819157D01*
X163501080Y-102819460D01*
X163496168Y-102815037D01*
X163491753Y-102810134D01*
X163337252Y-102697882D01*
X163331224Y-102695198D01*
X163331222Y-102695197D01*
X163168819Y-102622891D01*
X163168818Y-102622891D01*
X163162788Y-102620206D01*
X163069388Y-102600353D01*
X162982444Y-102581872D01*
X162982439Y-102581872D01*
X162975987Y-102580500D01*
X162785013Y-102580500D01*
X162778561Y-102581872D01*
X162778556Y-102581872D01*
X162691613Y-102600353D01*
X162598212Y-102620206D01*
X162592182Y-102622891D01*
X162592181Y-102622891D01*
X162429778Y-102695197D01*
X162429776Y-102695198D01*
X162423748Y-102697882D01*
X162418407Y-102701762D01*
X162418406Y-102701763D01*
X162279676Y-102802556D01*
X162212808Y-102826415D01*
X162143656Y-102810334D01*
X162116520Y-102789715D01*
X160298993Y-100972188D01*
X160280971Y-100946547D01*
X160280063Y-100947123D01*
X160275650Y-100940169D01*
X160264885Y-100919042D01*
X160264771Y-100918754D01*
X160264768Y-100918749D01*
X160261852Y-100911383D01*
X160257196Y-100904975D01*
X160257193Y-100904969D01*
X160228842Y-100865948D01*
X160224392Y-100859401D01*
X160194300Y-100811982D01*
X160188293Y-100806341D01*
X160172612Y-100788554D01*
X160172434Y-100788309D01*
X160172432Y-100788307D01*
X160167772Y-100781893D01*
X160159521Y-100775067D01*
X160124504Y-100746097D01*
X160118570Y-100740866D01*
X160083402Y-100707842D01*
X160083399Y-100707840D01*
X160077621Y-100702414D01*
X160070397Y-100698442D01*
X160050794Y-100685119D01*
X160050554Y-100684920D01*
X160050547Y-100684916D01*
X160044444Y-100679867D01*
X160003852Y-100660766D01*
X159950731Y-100613664D01*
X159931500Y-100546758D01*
X159931500Y-100370866D01*
X159924745Y-100308684D01*
X159873615Y-100172295D01*
X159786261Y-100055739D01*
X159669705Y-99968385D01*
X159533316Y-99917255D01*
X159471134Y-99910500D01*
X159085895Y-99910500D01*
X159017774Y-99890498D01*
X158971281Y-99836842D01*
X158961177Y-99766568D01*
X158990671Y-99701988D01*
X158996800Y-99695405D01*
X161555253Y-97136952D01*
X161563539Y-97129412D01*
X161570018Y-97125300D01*
X161616644Y-97075648D01*
X161619398Y-97072807D01*
X161639135Y-97053070D01*
X161641615Y-97049873D01*
X161649320Y-97040851D01*
X161674159Y-97014400D01*
X161679586Y-97008621D01*
X161683405Y-97001675D01*
X161683407Y-97001672D01*
X161689348Y-96990866D01*
X161700199Y-96974347D01*
X161707758Y-96964601D01*
X161712614Y-96958341D01*
X161715759Y-96951072D01*
X161715762Y-96951068D01*
X161730174Y-96917763D01*
X161735391Y-96907113D01*
X161756695Y-96868360D01*
X161761733Y-96848737D01*
X161768137Y-96830034D01*
X161773033Y-96818720D01*
X161773033Y-96818719D01*
X161776181Y-96811445D01*
X161777420Y-96803622D01*
X161777423Y-96803612D01*
X161782256Y-96773098D01*
X161812669Y-96708946D01*
X161851269Y-96679661D01*
X161856352Y-96677171D01*
X161856361Y-96677166D01*
X161860994Y-96674896D01*
X162042860Y-96545173D01*
X162201096Y-96387489D01*
X162331453Y-96206077D01*
X162332776Y-96207028D01*
X162379645Y-96163857D01*
X162449580Y-96151625D01*
X162515026Y-96179144D01*
X162542875Y-96210994D01*
X162554830Y-96230502D01*
X162602987Y-96309088D01*
X162749250Y-96477938D01*
X162921126Y-96620632D01*
X163114000Y-96733338D01*
X163322692Y-96813030D01*
X163327760Y-96814061D01*
X163327763Y-96814062D01*
X163422862Y-96833410D01*
X163541597Y-96857567D01*
X163546772Y-96857757D01*
X163546774Y-96857757D01*
X163759673Y-96865564D01*
X163759677Y-96865564D01*
X163764837Y-96865753D01*
X163769957Y-96865097D01*
X163769959Y-96865097D01*
X163981288Y-96838025D01*
X163981289Y-96838025D01*
X163986416Y-96837368D01*
X163991366Y-96835883D01*
X164195429Y-96774661D01*
X164195434Y-96774659D01*
X164200384Y-96773174D01*
X164400994Y-96674896D01*
X164582860Y-96545173D01*
X164741096Y-96387489D01*
X164871453Y-96206077D01*
X164872776Y-96207028D01*
X164919645Y-96163857D01*
X164989580Y-96151625D01*
X165055026Y-96179144D01*
X165082875Y-96210994D01*
X165094830Y-96230502D01*
X165142987Y-96309088D01*
X165289250Y-96477938D01*
X165461126Y-96620632D01*
X165654000Y-96733338D01*
X165862692Y-96813030D01*
X165867760Y-96814061D01*
X165867763Y-96814062D01*
X165962862Y-96833410D01*
X166081597Y-96857567D01*
X166086772Y-96857757D01*
X166086774Y-96857757D01*
X166299673Y-96865564D01*
X166299677Y-96865564D01*
X166304837Y-96865753D01*
X166309957Y-96865097D01*
X166309959Y-96865097D01*
X166521288Y-96838025D01*
X166521289Y-96838025D01*
X166526416Y-96837368D01*
X166531366Y-96835883D01*
X166735429Y-96774661D01*
X166735434Y-96774659D01*
X166740384Y-96773174D01*
X166940994Y-96674896D01*
X167122860Y-96545173D01*
X167281096Y-96387489D01*
X167411453Y-96206077D01*
X167412776Y-96207028D01*
X167459645Y-96163857D01*
X167529580Y-96151625D01*
X167595026Y-96179144D01*
X167622875Y-96210994D01*
X167634830Y-96230502D01*
X167682987Y-96309088D01*
X167829250Y-96477938D01*
X168001126Y-96620632D01*
X168194000Y-96733338D01*
X168402692Y-96813030D01*
X168407760Y-96814061D01*
X168407763Y-96814062D01*
X168502862Y-96833410D01*
X168621597Y-96857567D01*
X168626772Y-96857757D01*
X168626774Y-96857757D01*
X168839673Y-96865564D01*
X168839677Y-96865564D01*
X168844837Y-96865753D01*
X168849957Y-96865097D01*
X168849959Y-96865097D01*
X169061288Y-96838025D01*
X169061289Y-96838025D01*
X169066416Y-96837368D01*
X169071366Y-96835883D01*
X169275429Y-96774661D01*
X169275434Y-96774659D01*
X169280384Y-96773174D01*
X169480994Y-96674896D01*
X169662860Y-96545173D01*
X169771091Y-96437319D01*
X169833462Y-96403404D01*
X169904268Y-96408592D01*
X169961030Y-96451238D01*
X169978012Y-96482341D01*
X170022385Y-96600705D01*
X170109739Y-96717261D01*
X170226295Y-96804615D01*
X170362684Y-96855745D01*
X170424866Y-96862500D01*
X172221134Y-96862500D01*
X172283316Y-96855745D01*
X172419705Y-96804615D01*
X172536261Y-96717261D01*
X172623615Y-96600705D01*
X172674745Y-96464316D01*
X172681500Y-96402134D01*
X172681500Y-94605866D01*
X172674745Y-94543684D01*
X172623615Y-94407295D01*
X172536261Y-94290739D01*
X172419705Y-94203385D01*
X172283316Y-94152255D01*
X172221134Y-94145500D01*
X171999045Y-94145500D01*
X171930924Y-94125498D01*
X171888630Y-94080201D01*
X171885469Y-94074451D01*
X171882552Y-94067083D01*
X171877895Y-94060673D01*
X171877891Y-94060666D01*
X171849542Y-94021648D01*
X171845092Y-94015101D01*
X171838420Y-94004587D01*
X171815000Y-93967682D01*
X171808993Y-93962041D01*
X171793312Y-93944254D01*
X171793134Y-93944009D01*
X171793132Y-93944007D01*
X171788472Y-93937593D01*
X171781987Y-93932228D01*
X171745204Y-93901797D01*
X171739270Y-93896566D01*
X171704102Y-93863542D01*
X171704099Y-93863540D01*
X171698321Y-93858114D01*
X171691097Y-93854142D01*
X171671494Y-93840819D01*
X171671254Y-93840620D01*
X171671247Y-93840616D01*
X171665144Y-93835567D01*
X171625600Y-93816959D01*
X171614324Y-93811653D01*
X171607292Y-93808071D01*
X171558060Y-93781005D01*
X171550385Y-93779035D01*
X171550379Y-93779032D01*
X171550081Y-93778956D01*
X171527772Y-93770924D01*
X171527497Y-93770794D01*
X171527489Y-93770791D01*
X171520318Y-93767417D01*
X171465151Y-93756894D01*
X171457442Y-93755171D01*
X171423449Y-93746443D01*
X171410707Y-93743171D01*
X171410706Y-93743171D01*
X171403030Y-93741200D01*
X171394793Y-93741200D01*
X171371184Y-93738968D01*
X171370881Y-93738910D01*
X171370877Y-93738910D01*
X171363094Y-93737425D01*
X171307049Y-93740951D01*
X171299138Y-93741200D01*
X165468794Y-93741200D01*
X165400673Y-93721198D01*
X165379699Y-93704295D01*
X160694722Y-89019317D01*
X160660696Y-88957005D01*
X160658507Y-88943392D01*
X160642967Y-88795535D01*
X160655739Y-88725697D01*
X160704241Y-88673850D01*
X160773074Y-88656456D01*
X160842338Y-88680429D01*
X160904644Y-88725697D01*
X160929448Y-88743718D01*
X160935476Y-88746402D01*
X160935478Y-88746403D01*
X161097881Y-88818709D01*
X161103912Y-88821394D01*
X161183900Y-88838396D01*
X161284256Y-88859728D01*
X161284261Y-88859728D01*
X161290713Y-88861100D01*
X161481687Y-88861100D01*
X161488139Y-88859728D01*
X161488144Y-88859728D01*
X161588500Y-88838396D01*
X161668488Y-88821394D01*
X161674519Y-88818709D01*
X161836922Y-88746403D01*
X161836924Y-88746402D01*
X161842952Y-88743718D01*
X161884643Y-88713428D01*
X161938726Y-88674134D01*
X161997453Y-88631466D01*
X162028897Y-88596544D01*
X162120821Y-88494452D01*
X162120822Y-88494451D01*
X162125240Y-88489544D01*
X162220727Y-88324156D01*
X162279742Y-88142528D01*
X162283297Y-88108710D01*
X162299014Y-87959165D01*
X162299704Y-87952600D01*
X162296113Y-87918429D01*
X162280432Y-87769235D01*
X162280432Y-87769233D01*
X162279742Y-87762672D01*
X162220727Y-87581044D01*
X162125240Y-87415656D01*
X161997453Y-87273734D01*
X161842952Y-87161482D01*
X161836924Y-87158798D01*
X161836922Y-87158797D01*
X161674519Y-87086491D01*
X161674518Y-87086491D01*
X161668488Y-87083806D01*
X161540575Y-87056617D01*
X161488144Y-87045472D01*
X161488139Y-87045472D01*
X161481687Y-87044100D01*
X161290713Y-87044100D01*
X161284261Y-87045472D01*
X161284256Y-87045472D01*
X161231825Y-87056617D01*
X161103912Y-87083806D01*
X161097882Y-87086491D01*
X161097881Y-87086491D01*
X160935478Y-87158797D01*
X160935476Y-87158798D01*
X160929448Y-87161482D01*
X160924107Y-87165362D01*
X160924106Y-87165363D01*
X160840047Y-87226436D01*
X160773180Y-87250294D01*
X160765986Y-87250500D01*
X159010805Y-87250500D01*
X158942684Y-87230498D01*
X158905013Y-87192940D01*
X158816822Y-87056617D01*
X158816820Y-87056614D01*
X158814014Y-87052277D01*
X158663670Y-86887051D01*
X158659619Y-86883852D01*
X158659615Y-86883848D01*
X158511637Y-86766982D01*
X158470574Y-86709065D01*
X158467342Y-86638142D01*
X158502968Y-86576730D01*
X158566139Y-86544328D01*
X158589729Y-86542100D01*
X161881514Y-86542100D01*
X161949635Y-86562102D01*
X161990633Y-86605100D01*
X162039560Y-86689844D01*
X162043978Y-86694751D01*
X162043979Y-86694752D01*
X162061508Y-86714220D01*
X162167347Y-86831766D01*
X162243440Y-86887051D01*
X162312602Y-86937300D01*
X162321848Y-86944018D01*
X162327876Y-86946702D01*
X162327878Y-86946703D01*
X162490281Y-87019009D01*
X162496312Y-87021694D01*
X162589713Y-87041547D01*
X162676656Y-87060028D01*
X162676661Y-87060028D01*
X162683113Y-87061400D01*
X162874087Y-87061400D01*
X162880539Y-87060028D01*
X162880544Y-87060028D01*
X162967487Y-87041547D01*
X163060888Y-87021694D01*
X163066919Y-87019009D01*
X163229322Y-86946703D01*
X163229324Y-86946702D01*
X163235352Y-86944018D01*
X163244599Y-86937300D01*
X163313760Y-86887051D01*
X163389853Y-86831766D01*
X163495692Y-86714220D01*
X163513221Y-86694752D01*
X163513222Y-86694751D01*
X163517640Y-86689844D01*
X163595747Y-86554559D01*
X163609823Y-86530179D01*
X163609824Y-86530178D01*
X163613127Y-86524456D01*
X163672142Y-86342828D01*
X163680225Y-86265928D01*
X163691414Y-86159465D01*
X163692104Y-86152900D01*
X163687312Y-86107302D01*
X163672832Y-85969535D01*
X163672832Y-85969533D01*
X163672142Y-85962972D01*
X163613127Y-85781344D01*
X163607525Y-85771640D01*
X163555574Y-85681659D01*
X163517640Y-85615956D01*
X163472461Y-85565779D01*
X163394275Y-85478945D01*
X163394274Y-85478944D01*
X163389853Y-85474034D01*
X163267431Y-85385089D01*
X163240694Y-85365663D01*
X163240693Y-85365662D01*
X163235352Y-85361782D01*
X163229324Y-85359098D01*
X163229322Y-85359097D01*
X163066919Y-85286791D01*
X163066918Y-85286791D01*
X163060888Y-85284106D01*
X162967488Y-85264253D01*
X162880544Y-85245772D01*
X162880539Y-85245772D01*
X162874087Y-85244400D01*
X162683113Y-85244400D01*
X162676661Y-85245772D01*
X162676656Y-85245772D01*
X162570886Y-85268255D01*
X162554296Y-85269735D01*
X162554357Y-85270380D01*
X162510339Y-85274541D01*
X162498481Y-85275100D01*
X159207557Y-85275100D01*
X159139436Y-85255098D01*
X159092943Y-85201442D01*
X159081981Y-85159423D01*
X159079276Y-85126522D01*
X159078852Y-85121361D01*
X159024431Y-84904702D01*
X158935354Y-84699840D01*
X158814014Y-84512277D01*
X158663670Y-84347051D01*
X158659619Y-84343852D01*
X158659615Y-84343848D01*
X158492414Y-84211800D01*
X158492410Y-84211798D01*
X158488359Y-84208598D01*
X158447053Y-84185796D01*
X158397084Y-84135364D01*
X158382312Y-84065921D01*
X158407428Y-83999516D01*
X158434780Y-83972909D01*
X158489337Y-83933994D01*
X158613860Y-83845173D01*
X158772096Y-83687489D01*
X158831594Y-83604689D01*
X158899435Y-83510277D01*
X158902453Y-83506077D01*
X158904746Y-83501437D01*
X158906446Y-83498608D01*
X158958674Y-83450518D01*
X159014451Y-83437500D01*
X162272906Y-83437500D01*
X162341027Y-83457502D01*
X162362001Y-83474405D01*
X162436278Y-83548682D01*
X162470304Y-83610994D01*
X162472492Y-83624603D01*
X162489858Y-83789828D01*
X162548873Y-83971456D01*
X162644360Y-84136844D01*
X162648778Y-84141751D01*
X162648779Y-84141752D01*
X162766235Y-84272200D01*
X162772147Y-84278766D01*
X162835280Y-84324635D01*
X162919476Y-84385807D01*
X162926648Y-84391018D01*
X162932676Y-84393702D01*
X162932678Y-84393703D01*
X163086364Y-84462128D01*
X163101112Y-84468694D01*
X163183179Y-84486138D01*
X163281456Y-84507028D01*
X163281461Y-84507028D01*
X163287913Y-84508400D01*
X163478887Y-84508400D01*
X163485339Y-84507028D01*
X163485344Y-84507028D01*
X163583621Y-84486138D01*
X163665688Y-84468694D01*
X163680436Y-84462128D01*
X163834122Y-84393703D01*
X163834124Y-84393702D01*
X163840152Y-84391018D01*
X163847325Y-84385807D01*
X163931520Y-84324635D01*
X163994653Y-84278766D01*
X164000565Y-84272200D01*
X164118021Y-84141752D01*
X164118022Y-84141751D01*
X164122440Y-84136844D01*
X164217927Y-83971456D01*
X164276942Y-83789828D01*
X164278603Y-83774031D01*
X164296214Y-83606465D01*
X164296904Y-83599900D01*
X164291521Y-83548682D01*
X164277632Y-83416535D01*
X164277632Y-83416533D01*
X164276942Y-83409972D01*
X164217927Y-83228344D01*
X164211046Y-83216425D01*
X164125743Y-83068676D01*
X164125740Y-83068672D01*
X164122440Y-83062956D01*
X164121934Y-83062394D01*
X164098809Y-82997567D01*
X164114894Y-82928417D01*
X164121266Y-82918503D01*
X164124740Y-82914644D01*
X164177072Y-82824002D01*
X164216923Y-82754979D01*
X164216924Y-82754978D01*
X164220227Y-82749256D01*
X164279242Y-82567628D01*
X164280550Y-82555189D01*
X164298514Y-82384265D01*
X164299204Y-82377700D01*
X164294538Y-82333305D01*
X164279932Y-82194335D01*
X164279932Y-82194333D01*
X164279242Y-82187772D01*
X164220227Y-82006144D01*
X164124740Y-81840756D01*
X164109738Y-81824094D01*
X164001375Y-81703745D01*
X164001374Y-81703744D01*
X163996953Y-81698834D01*
X163859347Y-81598857D01*
X163847794Y-81590463D01*
X163847793Y-81590462D01*
X163842452Y-81586582D01*
X163836424Y-81583898D01*
X163836422Y-81583897D01*
X163674019Y-81511591D01*
X163674018Y-81511591D01*
X163667988Y-81508906D01*
X163574587Y-81489053D01*
X163487644Y-81470572D01*
X163487639Y-81470572D01*
X163481187Y-81469200D01*
X163290213Y-81469200D01*
X163283761Y-81470572D01*
X163283756Y-81470572D01*
X163196812Y-81489053D01*
X163103412Y-81508906D01*
X163097382Y-81511591D01*
X163097381Y-81511591D01*
X162934978Y-81583897D01*
X162934976Y-81583898D01*
X162928948Y-81586582D01*
X162923607Y-81590462D01*
X162923606Y-81590463D01*
X162819496Y-81666104D01*
X162774447Y-81698834D01*
X162770032Y-81703737D01*
X162765120Y-81708160D01*
X162763995Y-81706911D01*
X162710686Y-81739751D01*
X162677500Y-81744200D01*
X161291595Y-81744200D01*
X161223474Y-81724198D01*
X161202500Y-81707295D01*
X159366952Y-79871747D01*
X159359412Y-79863461D01*
X159355300Y-79856982D01*
X159305648Y-79810356D01*
X159302807Y-79807602D01*
X159283070Y-79787865D01*
X159279873Y-79785385D01*
X159270851Y-79777680D01*
X159244400Y-79752841D01*
X159238621Y-79747414D01*
X159231675Y-79743595D01*
X159231672Y-79743593D01*
X159220866Y-79737652D01*
X159204347Y-79726801D01*
X159198429Y-79722211D01*
X159188341Y-79714386D01*
X159181072Y-79711241D01*
X159181068Y-79711238D01*
X159147763Y-79696826D01*
X159137113Y-79691609D01*
X159098360Y-79670305D01*
X159078737Y-79665267D01*
X159060034Y-79658863D01*
X159048720Y-79653967D01*
X159048719Y-79653967D01*
X159041445Y-79650819D01*
X159033620Y-79649580D01*
X159033618Y-79649579D01*
X159001109Y-79644430D01*
X158936956Y-79614017D01*
X158915028Y-79588421D01*
X158907072Y-79576122D01*
X158871964Y-79521854D01*
X158816822Y-79436617D01*
X158816820Y-79436614D01*
X158814014Y-79432277D01*
X158810532Y-79428450D01*
X158666798Y-79270488D01*
X158635746Y-79206642D01*
X158644141Y-79136143D01*
X158689317Y-79081375D01*
X158715761Y-79067706D01*
X158822297Y-79027767D01*
X158830705Y-79024615D01*
X158947261Y-78937261D01*
X159034615Y-78820705D01*
X159085745Y-78684316D01*
X159092500Y-78622134D01*
X159092500Y-76825866D01*
X159085745Y-76763684D01*
X159034615Y-76627295D01*
X158947261Y-76510739D01*
X158830705Y-76423385D01*
X158694316Y-76372255D01*
X158632134Y-76365500D01*
X157908994Y-76365500D01*
X157840873Y-76345498D01*
X157794380Y-76291842D01*
X157784276Y-76221568D01*
X157813770Y-76156988D01*
X157819899Y-76150405D01*
X157846247Y-76124057D01*
X157854537Y-76116513D01*
X157861018Y-76112400D01*
X157907659Y-76062732D01*
X157910413Y-76059891D01*
X157930134Y-76040170D01*
X157932612Y-76036975D01*
X157940318Y-76027953D01*
X157965158Y-76001501D01*
X157970586Y-75995721D01*
X157977691Y-75982797D01*
X157980346Y-75977968D01*
X157991199Y-75961445D01*
X157998753Y-75951706D01*
X158003613Y-75945441D01*
X158021176Y-75904857D01*
X158026383Y-75894227D01*
X158047695Y-75855460D01*
X158049666Y-75847783D01*
X158049668Y-75847778D01*
X158052732Y-75835842D01*
X158059138Y-75817130D01*
X158064033Y-75805819D01*
X158067181Y-75798545D01*
X158068421Y-75790717D01*
X158068423Y-75790710D01*
X158074099Y-75754876D01*
X158076505Y-75743256D01*
X158085528Y-75708111D01*
X158085528Y-75708110D01*
X158087500Y-75700430D01*
X158087500Y-75680176D01*
X158089051Y-75660465D01*
X158090980Y-75648286D01*
X158092220Y-75640457D01*
X158088059Y-75596438D01*
X158087500Y-75584581D01*
X158087500Y-68470670D01*
X165121160Y-68470670D01*
X165126887Y-68478320D01*
X165298042Y-68583205D01*
X165306837Y-68587687D01*
X165516988Y-68674734D01*
X165526373Y-68677783D01*
X165747554Y-68730885D01*
X165757301Y-68732428D01*
X165984070Y-68750275D01*
X165993930Y-68750275D01*
X166220699Y-68732428D01*
X166230446Y-68730885D01*
X166451627Y-68677783D01*
X166461012Y-68674734D01*
X166671163Y-68587687D01*
X166679958Y-68583205D01*
X166847445Y-68480568D01*
X166856400Y-68470670D01*
X171621160Y-68470670D01*
X171626887Y-68478320D01*
X171798042Y-68583205D01*
X171806837Y-68587687D01*
X172016988Y-68674734D01*
X172026373Y-68677783D01*
X172247554Y-68730885D01*
X172257301Y-68732428D01*
X172484070Y-68750275D01*
X172493930Y-68750275D01*
X172720699Y-68732428D01*
X172730446Y-68730885D01*
X172951627Y-68677783D01*
X172961012Y-68674734D01*
X173171163Y-68587687D01*
X173179958Y-68583205D01*
X173347445Y-68480568D01*
X173356907Y-68470110D01*
X173353124Y-68461334D01*
X172501812Y-67610022D01*
X172487868Y-67602408D01*
X172486035Y-67602539D01*
X172479420Y-67606790D01*
X171627920Y-68458290D01*
X171621160Y-68470670D01*
X166856400Y-68470670D01*
X166856907Y-68470110D01*
X166853124Y-68461334D01*
X166001812Y-67610022D01*
X165987868Y-67602408D01*
X165986035Y-67602539D01*
X165979420Y-67606790D01*
X165127920Y-68458290D01*
X165121160Y-68470670D01*
X158087500Y-68470670D01*
X158087500Y-67701427D01*
X158107502Y-67633306D01*
X158148618Y-67593550D01*
X158151994Y-67591896D01*
X158333860Y-67462173D01*
X158492096Y-67304489D01*
X158502339Y-67290235D01*
X158536331Y-67242930D01*
X164476725Y-67242930D01*
X164494572Y-67469699D01*
X164496115Y-67479446D01*
X164549217Y-67700627D01*
X164552266Y-67710012D01*
X164639313Y-67920163D01*
X164643795Y-67928958D01*
X164746432Y-68096445D01*
X164756890Y-68105907D01*
X164765666Y-68102124D01*
X165616978Y-67250812D01*
X165623356Y-67239132D01*
X166353408Y-67239132D01*
X166353539Y-67240965D01*
X166357790Y-67247580D01*
X167209290Y-68099080D01*
X167221670Y-68105840D01*
X167229320Y-68100113D01*
X167334205Y-67928958D01*
X167338687Y-67920163D01*
X167425734Y-67710012D01*
X167428783Y-67700627D01*
X167481885Y-67479446D01*
X167483428Y-67469699D01*
X167501275Y-67242930D01*
X170976725Y-67242930D01*
X170994572Y-67469699D01*
X170996115Y-67479446D01*
X171049217Y-67700627D01*
X171052266Y-67710012D01*
X171139313Y-67920163D01*
X171143795Y-67928958D01*
X171246432Y-68096445D01*
X171256890Y-68105907D01*
X171265666Y-68102124D01*
X172116978Y-67250812D01*
X172123356Y-67239132D01*
X172853408Y-67239132D01*
X172853539Y-67240965D01*
X172857790Y-67247580D01*
X173709290Y-68099080D01*
X173721670Y-68105840D01*
X173729320Y-68100113D01*
X173834205Y-67928958D01*
X173838687Y-67920163D01*
X173925734Y-67710012D01*
X173928783Y-67700627D01*
X173981885Y-67479446D01*
X173983428Y-67469699D01*
X174001275Y-67242930D01*
X174001275Y-67233070D01*
X173983428Y-67006301D01*
X173981885Y-66996554D01*
X173928783Y-66775373D01*
X173925734Y-66765988D01*
X173838687Y-66555837D01*
X173834205Y-66547042D01*
X173731568Y-66379555D01*
X173721110Y-66370093D01*
X173712334Y-66373876D01*
X172861022Y-67225188D01*
X172853408Y-67239132D01*
X172123356Y-67239132D01*
X172124592Y-67236868D01*
X172124461Y-67235035D01*
X172120210Y-67228420D01*
X171268710Y-66376920D01*
X171256330Y-66370160D01*
X171248680Y-66375887D01*
X171143795Y-66547042D01*
X171139313Y-66555837D01*
X171052266Y-66765988D01*
X171049217Y-66775373D01*
X170996115Y-66996554D01*
X170994572Y-67006301D01*
X170976725Y-67233070D01*
X170976725Y-67242930D01*
X167501275Y-67242930D01*
X167501275Y-67233070D01*
X167483428Y-67006301D01*
X167481885Y-66996554D01*
X167428783Y-66775373D01*
X167425734Y-66765988D01*
X167338687Y-66555837D01*
X167334205Y-66547042D01*
X167231568Y-66379555D01*
X167221110Y-66370093D01*
X167212334Y-66373876D01*
X166361022Y-67225188D01*
X166353408Y-67239132D01*
X165623356Y-67239132D01*
X165624592Y-67236868D01*
X165624461Y-67235035D01*
X165620210Y-67228420D01*
X164768710Y-66376920D01*
X164756330Y-66370160D01*
X164748680Y-66375887D01*
X164643795Y-66547042D01*
X164639313Y-66555837D01*
X164552266Y-66765988D01*
X164549217Y-66775373D01*
X164496115Y-66996554D01*
X164494572Y-67006301D01*
X164476725Y-67233070D01*
X164476725Y-67242930D01*
X158536331Y-67242930D01*
X158619435Y-67127277D01*
X158622453Y-67123077D01*
X158625467Y-67116980D01*
X158719136Y-66927453D01*
X158719137Y-66927451D01*
X158721430Y-66922811D01*
X158786370Y-66709069D01*
X158815529Y-66487590D01*
X158817156Y-66421000D01*
X158798852Y-66198361D01*
X158750507Y-66005890D01*
X165121093Y-66005890D01*
X165124876Y-66014666D01*
X165976188Y-66865978D01*
X165990132Y-66873592D01*
X165991965Y-66873461D01*
X165998580Y-66869210D01*
X166850080Y-66017710D01*
X166856534Y-66005890D01*
X171621093Y-66005890D01*
X171624876Y-66014666D01*
X172476188Y-66865978D01*
X172490132Y-66873592D01*
X172491965Y-66873461D01*
X172498580Y-66869210D01*
X173350080Y-66017710D01*
X173356840Y-66005330D01*
X173351113Y-65997680D01*
X173179958Y-65892795D01*
X173171163Y-65888313D01*
X172961012Y-65801266D01*
X172951627Y-65798217D01*
X172730446Y-65745115D01*
X172720699Y-65743572D01*
X172493930Y-65725725D01*
X172484070Y-65725725D01*
X172257301Y-65743572D01*
X172247554Y-65745115D01*
X172026373Y-65798217D01*
X172016988Y-65801266D01*
X171806837Y-65888313D01*
X171798042Y-65892795D01*
X171630555Y-65995432D01*
X171621093Y-66005890D01*
X166856534Y-66005890D01*
X166856840Y-66005330D01*
X166851113Y-65997680D01*
X166679958Y-65892795D01*
X166671163Y-65888313D01*
X166461012Y-65801266D01*
X166451627Y-65798217D01*
X166230446Y-65745115D01*
X166220699Y-65743572D01*
X165993930Y-65725725D01*
X165984070Y-65725725D01*
X165757301Y-65743572D01*
X165747554Y-65745115D01*
X165526373Y-65798217D01*
X165516988Y-65801266D01*
X165306837Y-65888313D01*
X165298042Y-65892795D01*
X165130555Y-65995432D01*
X165121093Y-66005890D01*
X158750507Y-66005890D01*
X158744431Y-65981702D01*
X158655354Y-65776840D01*
X158545250Y-65606645D01*
X158536822Y-65593617D01*
X158536820Y-65593614D01*
X158534014Y-65589277D01*
X158383670Y-65424051D01*
X158379619Y-65420852D01*
X158379615Y-65420848D01*
X158212414Y-65288800D01*
X158212410Y-65288798D01*
X158208359Y-65285598D01*
X158167053Y-65262796D01*
X158117084Y-65212364D01*
X158102312Y-65142921D01*
X158127428Y-65076516D01*
X158154780Y-65049909D01*
X158198603Y-65018650D01*
X158333860Y-64922173D01*
X158358323Y-64897796D01*
X158488435Y-64768137D01*
X158492096Y-64764489D01*
X158622453Y-64583077D01*
X158626370Y-64575153D01*
X158719136Y-64387453D01*
X158719137Y-64387451D01*
X158721430Y-64382811D01*
X158766970Y-64232923D01*
X158784865Y-64174023D01*
X158784865Y-64174021D01*
X158786370Y-64169069D01*
X158815529Y-63947590D01*
X158817156Y-63881000D01*
X158798852Y-63658361D01*
X158744431Y-63441702D01*
X158655354Y-63236840D01*
X158534014Y-63049277D01*
X158383670Y-62884051D01*
X158379619Y-62880852D01*
X158379615Y-62880848D01*
X158212414Y-62748800D01*
X158212410Y-62748798D01*
X158208359Y-62745598D01*
X158194596Y-62738000D01*
X164475835Y-62738000D01*
X164494465Y-62974711D01*
X164495619Y-62979518D01*
X164495620Y-62979524D01*
X164530640Y-63125391D01*
X164549895Y-63205594D01*
X164551788Y-63210165D01*
X164551789Y-63210167D01*
X164627275Y-63392406D01*
X164640760Y-63424963D01*
X164643346Y-63429183D01*
X164762241Y-63623202D01*
X164762245Y-63623208D01*
X164764824Y-63627416D01*
X164919031Y-63807969D01*
X165099584Y-63962176D01*
X165103792Y-63964755D01*
X165103798Y-63964759D01*
X165297817Y-64083654D01*
X165302037Y-64086240D01*
X165306607Y-64088133D01*
X165306611Y-64088135D01*
X165489620Y-64163939D01*
X165521406Y-64177105D01*
X165601609Y-64196360D01*
X165747476Y-64231380D01*
X165747482Y-64231381D01*
X165752289Y-64232535D01*
X165989000Y-64251165D01*
X166225711Y-64232535D01*
X166230518Y-64231381D01*
X166230524Y-64231380D01*
X166376391Y-64196360D01*
X166456594Y-64177105D01*
X166488380Y-64163939D01*
X166671389Y-64088135D01*
X166671393Y-64088133D01*
X166675963Y-64086240D01*
X166680183Y-64083654D01*
X166874202Y-63964759D01*
X166874208Y-63964755D01*
X166878416Y-63962176D01*
X167058969Y-63807969D01*
X167213176Y-63627416D01*
X167215755Y-63623208D01*
X167215759Y-63623202D01*
X167334654Y-63429183D01*
X167337240Y-63424963D01*
X167350726Y-63392406D01*
X167426211Y-63210167D01*
X167426212Y-63210165D01*
X167428105Y-63205594D01*
X167447360Y-63125391D01*
X167482380Y-62979524D01*
X167482381Y-62979518D01*
X167483535Y-62974711D01*
X167502165Y-62738000D01*
X170975835Y-62738000D01*
X170994465Y-62974711D01*
X170995619Y-62979518D01*
X170995620Y-62979524D01*
X171030640Y-63125391D01*
X171049895Y-63205594D01*
X171051788Y-63210165D01*
X171051789Y-63210167D01*
X171127275Y-63392406D01*
X171140760Y-63424963D01*
X171143346Y-63429183D01*
X171262241Y-63623202D01*
X171262245Y-63623208D01*
X171264824Y-63627416D01*
X171419031Y-63807969D01*
X171599584Y-63962176D01*
X171603792Y-63964755D01*
X171603798Y-63964759D01*
X171797817Y-64083654D01*
X171802037Y-64086240D01*
X171806607Y-64088133D01*
X171806611Y-64088135D01*
X171989620Y-64163939D01*
X172021406Y-64177105D01*
X172101609Y-64196360D01*
X172247476Y-64231380D01*
X172247482Y-64231381D01*
X172252289Y-64232535D01*
X172489000Y-64251165D01*
X172725711Y-64232535D01*
X172730518Y-64231381D01*
X172730524Y-64231380D01*
X172876391Y-64196360D01*
X172956594Y-64177105D01*
X172988380Y-64163939D01*
X173171389Y-64088135D01*
X173171393Y-64088133D01*
X173175963Y-64086240D01*
X173180183Y-64083654D01*
X173374202Y-63964759D01*
X173374208Y-63964755D01*
X173378416Y-63962176D01*
X173558969Y-63807969D01*
X173713176Y-63627416D01*
X173715755Y-63623208D01*
X173715759Y-63623202D01*
X173834654Y-63429183D01*
X173837240Y-63424963D01*
X173850726Y-63392406D01*
X173926211Y-63210167D01*
X173926212Y-63210165D01*
X173928105Y-63205594D01*
X173947360Y-63125391D01*
X173982380Y-62979524D01*
X173982381Y-62979518D01*
X173983535Y-62974711D01*
X174002165Y-62738000D01*
X173983535Y-62501289D01*
X173928105Y-62270406D01*
X173837240Y-62051037D01*
X173743325Y-61897782D01*
X173715759Y-61852798D01*
X173715755Y-61852792D01*
X173713176Y-61848584D01*
X173562829Y-61672550D01*
X173562177Y-61671787D01*
X173558969Y-61668031D01*
X173378416Y-61513824D01*
X173374208Y-61511245D01*
X173374202Y-61511241D01*
X173180183Y-61392346D01*
X173175963Y-61389760D01*
X173171393Y-61387867D01*
X173171389Y-61387865D01*
X172961167Y-61300789D01*
X172961165Y-61300788D01*
X172956594Y-61298895D01*
X172876391Y-61279640D01*
X172730524Y-61244620D01*
X172730518Y-61244619D01*
X172725711Y-61243465D01*
X172489000Y-61224835D01*
X172252289Y-61243465D01*
X172247482Y-61244619D01*
X172247476Y-61244620D01*
X172101609Y-61279640D01*
X172021406Y-61298895D01*
X172016835Y-61300788D01*
X172016833Y-61300789D01*
X171806611Y-61387865D01*
X171806607Y-61387867D01*
X171802037Y-61389760D01*
X171797817Y-61392346D01*
X171603798Y-61511241D01*
X171603792Y-61511245D01*
X171599584Y-61513824D01*
X171419031Y-61668031D01*
X171415823Y-61671787D01*
X171415171Y-61672550D01*
X171264824Y-61848584D01*
X171262245Y-61852792D01*
X171262241Y-61852798D01*
X171234675Y-61897782D01*
X171140760Y-62051037D01*
X171049895Y-62270406D01*
X170994465Y-62501289D01*
X170975835Y-62738000D01*
X167502165Y-62738000D01*
X167483535Y-62501289D01*
X167428105Y-62270406D01*
X167337240Y-62051037D01*
X167243325Y-61897782D01*
X167215759Y-61852798D01*
X167215755Y-61852792D01*
X167213176Y-61848584D01*
X167062829Y-61672550D01*
X167062177Y-61671787D01*
X167058969Y-61668031D01*
X166878416Y-61513824D01*
X166874208Y-61511245D01*
X166874202Y-61511241D01*
X166680183Y-61392346D01*
X166675963Y-61389760D01*
X166671393Y-61387867D01*
X166671389Y-61387865D01*
X166461167Y-61300789D01*
X166461165Y-61300788D01*
X166456594Y-61298895D01*
X166376391Y-61279640D01*
X166230524Y-61244620D01*
X166230518Y-61244619D01*
X166225711Y-61243465D01*
X165989000Y-61224835D01*
X165752289Y-61243465D01*
X165747482Y-61244619D01*
X165747476Y-61244620D01*
X165601609Y-61279640D01*
X165521406Y-61298895D01*
X165516835Y-61300788D01*
X165516833Y-61300789D01*
X165306611Y-61387865D01*
X165306607Y-61387867D01*
X165302037Y-61389760D01*
X165297817Y-61392346D01*
X165103798Y-61511241D01*
X165103792Y-61511245D01*
X165099584Y-61513824D01*
X164919031Y-61668031D01*
X164915823Y-61671787D01*
X164915171Y-61672550D01*
X164764824Y-61848584D01*
X164762245Y-61852792D01*
X164762241Y-61852798D01*
X164734675Y-61897782D01*
X164640760Y-62051037D01*
X164549895Y-62270406D01*
X164494465Y-62501289D01*
X164475835Y-62738000D01*
X158194596Y-62738000D01*
X158185665Y-62733070D01*
X158156136Y-62716769D01*
X158012789Y-62637638D01*
X158007920Y-62635914D01*
X158007916Y-62635912D01*
X157807087Y-62564795D01*
X157807083Y-62564794D01*
X157802212Y-62563069D01*
X157797119Y-62562162D01*
X157797116Y-62562161D01*
X157587373Y-62524800D01*
X157587367Y-62524799D01*
X157582284Y-62523894D01*
X157508452Y-62522992D01*
X157364081Y-62521228D01*
X157364079Y-62521228D01*
X157358911Y-62521165D01*
X157138091Y-62554955D01*
X156925756Y-62624357D01*
X156727607Y-62727507D01*
X156723474Y-62730610D01*
X156723471Y-62730612D01*
X156559336Y-62853848D01*
X156492851Y-62878754D01*
X156423455Y-62863762D01*
X156394588Y-62842183D01*
X155464952Y-61912547D01*
X155457412Y-61904261D01*
X155453300Y-61897782D01*
X155403648Y-61851156D01*
X155400807Y-61848402D01*
X155381070Y-61828665D01*
X155377873Y-61826185D01*
X155368851Y-61818480D01*
X155355422Y-61805869D01*
X155336621Y-61788214D01*
X155329675Y-61784395D01*
X155329672Y-61784393D01*
X155318866Y-61778452D01*
X155302347Y-61767601D01*
X155301883Y-61767241D01*
X155286341Y-61755186D01*
X155279072Y-61752041D01*
X155279068Y-61752038D01*
X155245763Y-61737626D01*
X155235113Y-61732409D01*
X155196360Y-61711105D01*
X155176737Y-61706067D01*
X155158034Y-61699663D01*
X155146720Y-61694767D01*
X155146719Y-61694767D01*
X155139445Y-61691619D01*
X155131622Y-61690380D01*
X155131612Y-61690377D01*
X155095776Y-61684701D01*
X155084156Y-61682295D01*
X155049011Y-61673272D01*
X155049010Y-61673272D01*
X155041330Y-61671300D01*
X155021076Y-61671300D01*
X155001365Y-61669749D01*
X154989186Y-61667820D01*
X154981357Y-61666580D01*
X154952086Y-61669347D01*
X154937339Y-61670741D01*
X154925481Y-61671300D01*
X139696368Y-61671300D01*
X139685185Y-61670773D01*
X139677692Y-61669098D01*
X139669766Y-61669347D01*
X139669765Y-61669347D01*
X139609602Y-61671238D01*
X139605644Y-61671300D01*
X139577744Y-61671300D01*
X139573754Y-61671804D01*
X139561920Y-61672736D01*
X139517711Y-61674126D01*
X139510097Y-61676338D01*
X139510092Y-61676339D01*
X139498259Y-61679777D01*
X139478896Y-61683788D01*
X139458803Y-61686326D01*
X139451436Y-61689243D01*
X139451431Y-61689244D01*
X139417692Y-61702602D01*
X139406465Y-61706446D01*
X139364007Y-61718782D01*
X139357181Y-61722819D01*
X139346572Y-61729093D01*
X139328824Y-61737788D01*
X139309983Y-61745248D01*
X139303567Y-61749910D01*
X139303566Y-61749910D01*
X139274213Y-61771236D01*
X139264293Y-61777752D01*
X139233065Y-61796220D01*
X139233062Y-61796222D01*
X139226238Y-61800258D01*
X139211917Y-61814579D01*
X139196884Y-61827419D01*
X139180493Y-61839328D01*
X139172836Y-61848584D01*
X139152302Y-61873405D01*
X139144312Y-61882184D01*
X134227747Y-66798748D01*
X134219461Y-66806288D01*
X134212982Y-66810400D01*
X134207557Y-66816177D01*
X134166357Y-66860051D01*
X134163602Y-66862893D01*
X134143865Y-66882630D01*
X134141385Y-66885827D01*
X134133682Y-66894847D01*
X134103414Y-66927079D01*
X134099595Y-66934025D01*
X134099593Y-66934028D01*
X134093652Y-66944834D01*
X134082801Y-66961353D01*
X134070386Y-66977359D01*
X134067241Y-66984628D01*
X134067238Y-66984632D01*
X134052826Y-67017937D01*
X134047609Y-67028587D01*
X134026305Y-67067340D01*
X134024334Y-67075015D01*
X134024334Y-67075016D01*
X134021267Y-67086962D01*
X134014863Y-67105666D01*
X134006819Y-67124255D01*
X134005580Y-67132078D01*
X134005577Y-67132088D01*
X133999901Y-67167924D01*
X133997495Y-67179544D01*
X133986500Y-67222370D01*
X133986500Y-67242624D01*
X133984949Y-67262334D01*
X133981780Y-67282343D01*
X133982526Y-67290235D01*
X133985941Y-67326361D01*
X133986500Y-67338219D01*
X133986500Y-74218606D01*
X133966498Y-74286727D01*
X133932771Y-74321819D01*
X133780211Y-74428643D01*
X133780208Y-74428645D01*
X133775700Y-74431802D01*
X133613802Y-74593700D01*
X133482477Y-74781251D01*
X133480154Y-74786233D01*
X133480151Y-74786238D01*
X133464195Y-74820457D01*
X133417278Y-74873742D01*
X133349001Y-74893203D01*
X133281041Y-74872661D01*
X133235805Y-74820457D01*
X133219849Y-74786238D01*
X133219846Y-74786233D01*
X133217523Y-74781251D01*
X133086198Y-74593700D01*
X132924300Y-74431802D01*
X132919792Y-74428645D01*
X132919789Y-74428643D01*
X132753411Y-74312144D01*
X132736749Y-74300477D01*
X132731767Y-74298154D01*
X132731762Y-74298151D01*
X132534225Y-74206039D01*
X132534224Y-74206039D01*
X132529243Y-74203716D01*
X132523935Y-74202294D01*
X132523933Y-74202293D01*
X132313402Y-74145881D01*
X132313400Y-74145881D01*
X132308087Y-74144457D01*
X132080000Y-74124502D01*
X131851913Y-74144457D01*
X131846600Y-74145881D01*
X131846598Y-74145881D01*
X131636067Y-74202293D01*
X131636065Y-74202294D01*
X131630757Y-74203716D01*
X131625776Y-74206039D01*
X131625775Y-74206039D01*
X131428238Y-74298151D01*
X131428233Y-74298154D01*
X131423251Y-74300477D01*
X131406589Y-74312144D01*
X131240211Y-74428643D01*
X131240208Y-74428645D01*
X131235700Y-74431802D01*
X131073802Y-74593700D01*
X130942477Y-74781251D01*
X130940154Y-74786233D01*
X130940151Y-74786238D01*
X130924195Y-74820457D01*
X130877278Y-74873742D01*
X130809001Y-74893203D01*
X130741041Y-74872661D01*
X130695805Y-74820457D01*
X130679849Y-74786238D01*
X130679846Y-74786233D01*
X130677523Y-74781251D01*
X130546198Y-74593700D01*
X130384300Y-74431802D01*
X130379792Y-74428645D01*
X130379789Y-74428643D01*
X130213411Y-74312144D01*
X130196749Y-74300477D01*
X130191767Y-74298154D01*
X130191762Y-74298151D01*
X129994225Y-74206039D01*
X129994224Y-74206039D01*
X129989243Y-74203716D01*
X129983935Y-74202294D01*
X129983933Y-74202293D01*
X129773402Y-74145881D01*
X129773400Y-74145881D01*
X129768087Y-74144457D01*
X129540000Y-74124502D01*
X129311913Y-74144457D01*
X129306600Y-74145881D01*
X129306598Y-74145881D01*
X129096067Y-74202293D01*
X129096065Y-74202294D01*
X129090757Y-74203716D01*
X129085776Y-74206039D01*
X129085775Y-74206039D01*
X128888238Y-74298151D01*
X128888233Y-74298154D01*
X128883251Y-74300477D01*
X128866589Y-74312144D01*
X128700211Y-74428643D01*
X128700208Y-74428645D01*
X128695700Y-74431802D01*
X128533802Y-74593700D01*
X128402477Y-74781251D01*
X128400154Y-74786233D01*
X128400151Y-74786238D01*
X128383919Y-74821049D01*
X128337002Y-74874334D01*
X128268725Y-74893795D01*
X128200765Y-74873253D01*
X128155529Y-74821049D01*
X128139414Y-74786489D01*
X128133931Y-74776993D01*
X128008972Y-74598533D01*
X128001916Y-74590125D01*
X127847875Y-74436084D01*
X127839467Y-74429028D01*
X127661007Y-74304069D01*
X127651511Y-74298586D01*
X127454053Y-74206510D01*
X127443761Y-74202764D01*
X127271497Y-74156606D01*
X127257401Y-74156942D01*
X127254000Y-74164884D01*
X127254000Y-76705967D01*
X127257973Y-76719498D01*
X127266522Y-76720727D01*
X127443761Y-76673236D01*
X127454053Y-76669490D01*
X127651511Y-76577414D01*
X127661007Y-76571931D01*
X127839467Y-76446972D01*
X127847875Y-76439916D01*
X128001916Y-76285875D01*
X128008972Y-76277467D01*
X128133931Y-76099007D01*
X128139414Y-76089511D01*
X128155529Y-76054951D01*
X128202446Y-76001666D01*
X128270723Y-75982205D01*
X128338683Y-76002747D01*
X128383919Y-76054951D01*
X128400151Y-76089762D01*
X128400154Y-76089767D01*
X128402477Y-76094749D01*
X128533802Y-76282300D01*
X128695700Y-76444198D01*
X128700208Y-76447355D01*
X128700211Y-76447357D01*
X128749301Y-76481730D01*
X128883251Y-76575523D01*
X128888233Y-76577846D01*
X128888238Y-76577849D01*
X129084765Y-76669490D01*
X129090757Y-76672284D01*
X129096065Y-76673706D01*
X129096067Y-76673707D01*
X129306598Y-76730119D01*
X129306600Y-76730119D01*
X129311913Y-76731543D01*
X129540000Y-76751498D01*
X129768087Y-76731543D01*
X129773400Y-76730119D01*
X129773402Y-76730119D01*
X129983933Y-76673707D01*
X129983935Y-76673706D01*
X129989243Y-76672284D01*
X129995235Y-76669490D01*
X130191762Y-76577849D01*
X130191767Y-76577846D01*
X130196749Y-76575523D01*
X130330699Y-76481730D01*
X130379789Y-76447357D01*
X130379792Y-76447355D01*
X130384300Y-76444198D01*
X130546198Y-76282300D01*
X130677523Y-76094749D01*
X130679846Y-76089767D01*
X130679849Y-76089762D01*
X130695805Y-76055543D01*
X130742722Y-76002258D01*
X130810999Y-75982797D01*
X130878959Y-76003339D01*
X130924195Y-76055543D01*
X130940151Y-76089762D01*
X130940154Y-76089767D01*
X130942477Y-76094749D01*
X131073802Y-76282300D01*
X131157354Y-76365852D01*
X131191380Y-76428164D01*
X131186315Y-76498979D01*
X131157355Y-76544041D01*
X128325667Y-79375728D01*
X125521247Y-82180148D01*
X125512961Y-82187688D01*
X125506482Y-82191800D01*
X125501057Y-82197577D01*
X125459857Y-82241451D01*
X125457102Y-82244293D01*
X125437365Y-82264030D01*
X125434885Y-82267227D01*
X125427182Y-82276247D01*
X125396914Y-82308479D01*
X125393095Y-82315425D01*
X125393093Y-82315428D01*
X125387152Y-82326234D01*
X125376301Y-82342753D01*
X125363886Y-82358759D01*
X125360741Y-82366028D01*
X125360738Y-82366032D01*
X125346326Y-82399337D01*
X125341109Y-82409987D01*
X125319805Y-82448740D01*
X125317834Y-82456415D01*
X125317834Y-82456416D01*
X125314767Y-82468362D01*
X125308363Y-82487066D01*
X125300319Y-82505655D01*
X125299080Y-82513478D01*
X125299077Y-82513488D01*
X125293401Y-82549324D01*
X125290995Y-82560944D01*
X125280000Y-82603770D01*
X125280000Y-82624024D01*
X125278449Y-82643734D01*
X125275280Y-82663743D01*
X125276026Y-82671635D01*
X125279441Y-82707761D01*
X125280000Y-82719619D01*
X125280000Y-89243500D01*
X125259998Y-89311621D01*
X125206342Y-89358114D01*
X125154000Y-89369500D01*
X123611866Y-89369500D01*
X123549684Y-89376255D01*
X123413295Y-89427385D01*
X123296739Y-89514739D01*
X123209385Y-89631295D01*
X123158255Y-89767684D01*
X123151500Y-89829866D01*
X123151500Y-91526134D01*
X123158255Y-91588316D01*
X123209385Y-91724705D01*
X123296739Y-91841261D01*
X123413295Y-91928615D01*
X123549684Y-91979745D01*
X123611866Y-91986500D01*
X125154000Y-91986500D01*
X125222121Y-92006502D01*
X125268614Y-92060158D01*
X125280000Y-92112500D01*
X125280000Y-95351333D01*
X125279473Y-95362516D01*
X125277798Y-95370009D01*
X125278047Y-95377935D01*
X125278047Y-95377936D01*
X125279938Y-95438086D01*
X125280000Y-95442045D01*
X125280000Y-95469956D01*
X125280497Y-95473890D01*
X125280497Y-95473891D01*
X125280505Y-95473956D01*
X125281438Y-95485793D01*
X125282827Y-95529989D01*
X125288478Y-95549439D01*
X125292487Y-95568800D01*
X125295026Y-95588897D01*
X125297945Y-95596268D01*
X125297945Y-95596270D01*
X125311304Y-95630012D01*
X125315149Y-95641242D01*
X125327482Y-95683693D01*
X125331515Y-95690512D01*
X125331517Y-95690517D01*
X125337793Y-95701128D01*
X125346488Y-95718876D01*
X125353948Y-95737717D01*
X125358610Y-95744133D01*
X125358610Y-95744134D01*
X125379936Y-95773487D01*
X125386452Y-95783407D01*
X125408958Y-95821462D01*
X125423279Y-95835783D01*
X125436119Y-95850816D01*
X125448028Y-95867207D01*
X125454134Y-95872258D01*
X125482105Y-95895398D01*
X125490884Y-95903388D01*
X126668178Y-97080682D01*
X126702204Y-97142994D01*
X126704392Y-97156603D01*
X126721758Y-97321828D01*
X126780773Y-97503456D01*
X126784076Y-97509178D01*
X126784077Y-97509179D01*
X126805406Y-97546122D01*
X126876260Y-97668844D01*
X127004047Y-97810766D01*
X127158548Y-97923018D01*
X127164574Y-97925701D01*
X127164581Y-97925705D01*
X127328266Y-97998581D01*
X127382362Y-98044561D01*
X127403012Y-98112488D01*
X127383660Y-98180796D01*
X127366113Y-98202783D01*
X126313494Y-99255401D01*
X125265600Y-100303295D01*
X125203288Y-100337321D01*
X125176505Y-100340200D01*
X125120613Y-100340200D01*
X125114161Y-100341572D01*
X125114156Y-100341572D01*
X125027213Y-100360053D01*
X124933812Y-100379906D01*
X124927782Y-100382591D01*
X124927781Y-100382591D01*
X124765378Y-100454897D01*
X124765376Y-100454898D01*
X124759348Y-100457582D01*
X124754007Y-100461462D01*
X124754006Y-100461463D01*
X124726454Y-100481481D01*
X124604847Y-100569834D01*
X124600426Y-100574744D01*
X124600425Y-100574745D01*
X124485472Y-100702414D01*
X124477060Y-100711756D01*
X124443573Y-100769757D01*
X124386642Y-100868365D01*
X124381573Y-100877144D01*
X124322558Y-101058772D01*
X124302596Y-101248700D01*
X124303286Y-101255265D01*
X124321706Y-101430518D01*
X124322558Y-101438628D01*
X124381573Y-101620256D01*
X124384876Y-101625978D01*
X124384877Y-101625979D01*
X124393711Y-101641279D01*
X124477060Y-101785644D01*
X124481478Y-101790551D01*
X124481479Y-101790552D01*
X124577519Y-101897215D01*
X124604847Y-101927566D01*
X124759348Y-102039818D01*
X124765376Y-102042502D01*
X124765378Y-102042503D01*
X124840758Y-102076064D01*
X124933812Y-102117494D01*
X125024239Y-102136715D01*
X125114156Y-102155828D01*
X125114161Y-102155828D01*
X125120613Y-102157200D01*
X125311587Y-102157200D01*
X125318039Y-102155828D01*
X125318044Y-102155828D01*
X125407961Y-102136715D01*
X125498388Y-102117494D01*
X125591442Y-102076064D01*
X125666822Y-102042503D01*
X125666824Y-102042502D01*
X125672852Y-102039818D01*
X125827353Y-101927566D01*
X125854681Y-101897215D01*
X125950721Y-101790552D01*
X125950722Y-101790551D01*
X125955140Y-101785644D01*
X126038489Y-101641279D01*
X126047323Y-101625979D01*
X126047324Y-101625978D01*
X126050627Y-101620256D01*
X126109642Y-101438628D01*
X126110495Y-101430518D01*
X126125880Y-101284132D01*
X126127007Y-101273406D01*
X126154020Y-101207750D01*
X126163222Y-101197482D01*
X128508005Y-98852699D01*
X128570317Y-98818673D01*
X128641132Y-98823738D01*
X128697968Y-98866285D01*
X128722779Y-98932805D01*
X128723100Y-98941794D01*
X128723100Y-99750305D01*
X128703098Y-99818426D01*
X128686195Y-99839400D01*
X128207000Y-100318595D01*
X128144688Y-100352621D01*
X128117905Y-100355500D01*
X128062013Y-100355500D01*
X128055561Y-100356872D01*
X128055556Y-100356872D01*
X127990018Y-100370803D01*
X127875212Y-100395206D01*
X127869182Y-100397891D01*
X127869181Y-100397891D01*
X127706778Y-100470197D01*
X127706776Y-100470198D01*
X127700748Y-100472882D01*
X127695407Y-100476762D01*
X127695406Y-100476763D01*
X127657380Y-100504391D01*
X127546247Y-100585134D01*
X127541826Y-100590044D01*
X127541825Y-100590045D01*
X127427088Y-100717474D01*
X127418460Y-100727056D01*
X127382954Y-100788554D01*
X127338271Y-100865948D01*
X127322973Y-100892444D01*
X127263958Y-101074072D01*
X127263268Y-101080633D01*
X127263268Y-101080635D01*
X127260979Y-101102411D01*
X127243996Y-101264000D01*
X127244686Y-101270565D01*
X127261498Y-101430518D01*
X127263958Y-101453928D01*
X127322973Y-101635556D01*
X127326276Y-101641278D01*
X127326277Y-101641279D01*
X127344536Y-101672905D01*
X127418460Y-101800944D01*
X127422878Y-101805851D01*
X127422879Y-101805852D01*
X127490584Y-101881046D01*
X127546247Y-101942866D01*
X127700748Y-102055118D01*
X127706776Y-102057802D01*
X127706778Y-102057803D01*
X127840847Y-102117494D01*
X127875212Y-102132794D01*
X127968612Y-102152647D01*
X128055556Y-102171128D01*
X128055561Y-102171128D01*
X128062013Y-102172500D01*
X128252987Y-102172500D01*
X128259439Y-102171128D01*
X128259444Y-102171128D01*
X128346387Y-102152647D01*
X128439788Y-102132794D01*
X128474153Y-102117494D01*
X128608222Y-102057803D01*
X128608224Y-102057802D01*
X128614252Y-102055118D01*
X128768753Y-101942866D01*
X128824416Y-101881046D01*
X128892121Y-101805852D01*
X128892122Y-101805851D01*
X128896540Y-101800944D01*
X128970464Y-101672905D01*
X128988723Y-101641279D01*
X128988724Y-101641278D01*
X128992027Y-101635556D01*
X129051042Y-101453928D01*
X129053503Y-101430518D01*
X129064036Y-101330294D01*
X129068407Y-101288706D01*
X129095420Y-101223050D01*
X129104622Y-101212782D01*
X129748847Y-100568557D01*
X129757137Y-100561013D01*
X129763618Y-100556900D01*
X129810259Y-100507232D01*
X129813013Y-100504391D01*
X129832734Y-100484670D01*
X129835212Y-100481475D01*
X129842918Y-100472453D01*
X129856883Y-100457582D01*
X129873186Y-100440221D01*
X129882946Y-100422468D01*
X129893799Y-100405945D01*
X129901353Y-100396206D01*
X129906213Y-100389941D01*
X129923776Y-100349357D01*
X129928983Y-100338727D01*
X129950295Y-100299960D01*
X129952266Y-100292283D01*
X129952268Y-100292278D01*
X129955332Y-100280342D01*
X129961738Y-100261630D01*
X129962027Y-100260964D01*
X129969781Y-100243045D01*
X129975072Y-100209643D01*
X129976697Y-100199381D01*
X129979104Y-100187760D01*
X129988128Y-100152611D01*
X129988128Y-100152610D01*
X129990100Y-100144930D01*
X129990100Y-100124669D01*
X129991652Y-100104956D01*
X129992352Y-100100537D01*
X130001647Y-100080930D01*
X129995904Y-100071993D01*
X129991359Y-100048351D01*
X129990659Y-100040945D01*
X129990100Y-100029089D01*
X129990100Y-93492024D01*
X130010102Y-93423903D01*
X130022484Y-93407692D01*
X130023187Y-93406911D01*
X130083643Y-93369688D01*
X130154627Y-93371059D01*
X130213600Y-93410589D01*
X130241841Y-93475727D01*
X130242800Y-93491247D01*
X130242800Y-100036495D01*
X130230483Y-100078443D01*
X130241761Y-100104104D01*
X130242800Y-100120250D01*
X130242800Y-100999405D01*
X130222798Y-101067526D01*
X130205895Y-101088500D01*
X127701100Y-103593295D01*
X127638788Y-103627321D01*
X127612005Y-103630200D01*
X127556113Y-103630200D01*
X127549661Y-103631572D01*
X127549656Y-103631572D01*
X127462713Y-103650053D01*
X127369312Y-103669906D01*
X127363282Y-103672591D01*
X127363281Y-103672591D01*
X127200878Y-103744897D01*
X127200876Y-103744898D01*
X127194848Y-103747582D01*
X127189507Y-103751462D01*
X127189506Y-103751463D01*
X127171597Y-103764475D01*
X127040347Y-103859834D01*
X126912560Y-104001756D01*
X126893278Y-104035153D01*
X126822526Y-104157700D01*
X126817073Y-104167144D01*
X126758058Y-104348772D01*
X126757368Y-104355333D01*
X126757368Y-104355335D01*
X126750687Y-104418899D01*
X126738096Y-104538700D01*
X126738786Y-104545265D01*
X126756267Y-104711583D01*
X126758058Y-104728628D01*
X126817073Y-104910256D01*
X126820376Y-104915978D01*
X126820377Y-104915979D01*
X126840049Y-104950052D01*
X126912560Y-105075644D01*
X126916978Y-105080551D01*
X126916979Y-105080552D01*
X126965537Y-105134481D01*
X127040347Y-105217566D01*
X127194848Y-105329818D01*
X127200876Y-105332502D01*
X127200878Y-105332503D01*
X127323059Y-105386901D01*
X127369312Y-105407494D01*
X127462713Y-105427347D01*
X127549656Y-105445828D01*
X127549661Y-105445828D01*
X127556113Y-105447200D01*
X127747087Y-105447200D01*
X127753539Y-105445828D01*
X127753544Y-105445828D01*
X127840488Y-105427347D01*
X127933888Y-105407494D01*
X127980141Y-105386901D01*
X128102322Y-105332503D01*
X128102324Y-105332502D01*
X128108352Y-105329818D01*
X128262853Y-105217566D01*
X128337663Y-105134481D01*
X128386221Y-105080552D01*
X128386222Y-105080551D01*
X128390640Y-105075644D01*
X128463151Y-104950052D01*
X128482823Y-104915979D01*
X128482824Y-104915978D01*
X128486127Y-104910256D01*
X128545142Y-104728628D01*
X128546934Y-104711583D01*
X128560195Y-104585404D01*
X128562507Y-104563406D01*
X128589520Y-104497750D01*
X128598722Y-104487482D01*
X131268547Y-101817657D01*
X131276837Y-101810113D01*
X131283318Y-101806000D01*
X131305021Y-101782889D01*
X131329958Y-101756333D01*
X131332713Y-101753491D01*
X131352434Y-101733770D01*
X131354912Y-101730575D01*
X131362618Y-101721553D01*
X131387458Y-101695101D01*
X131392886Y-101689321D01*
X131402646Y-101671568D01*
X131413499Y-101655045D01*
X131421053Y-101645306D01*
X131425913Y-101639041D01*
X131443476Y-101598457D01*
X131448683Y-101587827D01*
X131469995Y-101549060D01*
X131471966Y-101541383D01*
X131471968Y-101541378D01*
X131475032Y-101529442D01*
X131481438Y-101510730D01*
X131486334Y-101499417D01*
X131489481Y-101492145D01*
X131491419Y-101479913D01*
X131496397Y-101448481D01*
X131498804Y-101436860D01*
X131507828Y-101401711D01*
X131507828Y-101401710D01*
X131509800Y-101394030D01*
X131509800Y-101373769D01*
X131511351Y-101354058D01*
X131513279Y-101341885D01*
X131514519Y-101334057D01*
X131510359Y-101290046D01*
X131509800Y-101278189D01*
X131509800Y-92043563D01*
X131529802Y-91975442D01*
X131583458Y-91928949D01*
X131653732Y-91918845D01*
X131668411Y-91921856D01*
X131808503Y-91959394D01*
X131822599Y-91959058D01*
X131826000Y-91951116D01*
X131826000Y-89410033D01*
X131822027Y-89396502D01*
X131813478Y-89395273D01*
X131668411Y-89434144D01*
X131597435Y-89432454D01*
X131538639Y-89392660D01*
X131510691Y-89327396D01*
X131509800Y-89312437D01*
X131509800Y-85025744D01*
X131529802Y-84957623D01*
X131583458Y-84911130D01*
X131653732Y-84901026D01*
X131698803Y-84916626D01*
X131700201Y-84917433D01*
X131705548Y-84921318D01*
X131711583Y-84924005D01*
X131839206Y-84980826D01*
X131880012Y-84998994D01*
X131967151Y-85017516D01*
X132060356Y-85037328D01*
X132060361Y-85037328D01*
X132066813Y-85038700D01*
X132122706Y-85038700D01*
X132190827Y-85058702D01*
X132211801Y-85075605D01*
X132625195Y-85488999D01*
X132659221Y-85551311D01*
X132662100Y-85578094D01*
X132662100Y-89315625D01*
X132642098Y-89383746D01*
X132588442Y-89430239D01*
X132518168Y-89440343D01*
X132503489Y-89437332D01*
X132351497Y-89396606D01*
X132337401Y-89396942D01*
X132334000Y-89404884D01*
X132334000Y-91945967D01*
X132337973Y-91959498D01*
X132346522Y-91960727D01*
X132503489Y-91918668D01*
X132574466Y-91920358D01*
X132633261Y-91960152D01*
X132661209Y-92025417D01*
X132662100Y-92040375D01*
X132662100Y-93582433D01*
X132661573Y-93593616D01*
X132659898Y-93601109D01*
X132660147Y-93609035D01*
X132660147Y-93609036D01*
X132662038Y-93669186D01*
X132662100Y-93673145D01*
X132662100Y-93701056D01*
X132662597Y-93704990D01*
X132662597Y-93704991D01*
X132662605Y-93705056D01*
X132663538Y-93716893D01*
X132664927Y-93761089D01*
X132669258Y-93775995D01*
X132670578Y-93780539D01*
X132674587Y-93799900D01*
X132677126Y-93819997D01*
X132680045Y-93827368D01*
X132680045Y-93827370D01*
X132693404Y-93861112D01*
X132697249Y-93872342D01*
X132709582Y-93914793D01*
X132713615Y-93921612D01*
X132713617Y-93921617D01*
X132719893Y-93932228D01*
X132728588Y-93949976D01*
X132736048Y-93968817D01*
X132740710Y-93975233D01*
X132740710Y-93975234D01*
X132762036Y-94004587D01*
X132768552Y-94014507D01*
X132791058Y-94052562D01*
X132805379Y-94066883D01*
X132818219Y-94081916D01*
X132830128Y-94098307D01*
X132836234Y-94103358D01*
X132864205Y-94126498D01*
X132872984Y-94134488D01*
X140154243Y-101415747D01*
X140161787Y-101424037D01*
X140165900Y-101430518D01*
X140171677Y-101435943D01*
X140215567Y-101477158D01*
X140218409Y-101479913D01*
X140238131Y-101499635D01*
X140241255Y-101502058D01*
X140241259Y-101502062D01*
X140241324Y-101502112D01*
X140250345Y-101509817D01*
X140282579Y-101540086D01*
X140289527Y-101543905D01*
X140289529Y-101543907D01*
X140300332Y-101549846D01*
X140316859Y-101560702D01*
X140326598Y-101568257D01*
X140326600Y-101568258D01*
X140332860Y-101573114D01*
X140373440Y-101590674D01*
X140384088Y-101595891D01*
X140403177Y-101606385D01*
X140422840Y-101617195D01*
X140430516Y-101619166D01*
X140430519Y-101619167D01*
X140442462Y-101622233D01*
X140461166Y-101628637D01*
X140468395Y-101631765D01*
X140479755Y-101636681D01*
X140487578Y-101637920D01*
X140487588Y-101637923D01*
X140523424Y-101643599D01*
X140535044Y-101646005D01*
X140570189Y-101655028D01*
X140577870Y-101657000D01*
X140598124Y-101657000D01*
X140617834Y-101658551D01*
X140637843Y-101661720D01*
X140645735Y-101660974D01*
X140681861Y-101657559D01*
X140693719Y-101657000D01*
X141555711Y-101657000D01*
X141623832Y-101677002D01*
X141629772Y-101681064D01*
X141733371Y-101756333D01*
X141743948Y-101764018D01*
X141749974Y-101766701D01*
X141752328Y-101768060D01*
X141801321Y-101819443D01*
X141814756Y-101889157D01*
X141788369Y-101955067D01*
X141778422Y-101966273D01*
X141334993Y-102409702D01*
X141272681Y-102443728D01*
X141219701Y-102443854D01*
X141053244Y-102408472D01*
X141053239Y-102408472D01*
X141046787Y-102407100D01*
X140855813Y-102407100D01*
X140849361Y-102408472D01*
X140849356Y-102408472D01*
X140782703Y-102422640D01*
X140669012Y-102446806D01*
X140662982Y-102449491D01*
X140662981Y-102449491D01*
X140500578Y-102521797D01*
X140500576Y-102521798D01*
X140494548Y-102524482D01*
X140340047Y-102636734D01*
X140335632Y-102641637D01*
X140330720Y-102646060D01*
X140329595Y-102644811D01*
X140276286Y-102677651D01*
X140243100Y-102682100D01*
X139485094Y-102682100D01*
X139416973Y-102662098D01*
X139395999Y-102645195D01*
X137263522Y-100512717D01*
X137229496Y-100450405D01*
X137227307Y-100436792D01*
X137223219Y-100397891D01*
X137218763Y-100355500D01*
X137210632Y-100278135D01*
X137210632Y-100278133D01*
X137209942Y-100271572D01*
X137150927Y-100089944D01*
X137119224Y-100035032D01*
X137058741Y-99930274D01*
X137055440Y-99924556D01*
X136927653Y-99782634D01*
X136807593Y-99695405D01*
X136778494Y-99674263D01*
X136778493Y-99674262D01*
X136773152Y-99670382D01*
X136767124Y-99667698D01*
X136767122Y-99667697D01*
X136604719Y-99595391D01*
X136604718Y-99595391D01*
X136598688Y-99592706D01*
X136497280Y-99571151D01*
X136418344Y-99554372D01*
X136418339Y-99554372D01*
X136411887Y-99553000D01*
X136220913Y-99553000D01*
X136214461Y-99554372D01*
X136214456Y-99554372D01*
X136135520Y-99571151D01*
X136034112Y-99592706D01*
X136028082Y-99595391D01*
X136028081Y-99595391D01*
X135865678Y-99667697D01*
X135865676Y-99667698D01*
X135859648Y-99670382D01*
X135854307Y-99674262D01*
X135854306Y-99674263D01*
X135825207Y-99695405D01*
X135705147Y-99782634D01*
X135577360Y-99924556D01*
X135574059Y-99930274D01*
X135513577Y-100035032D01*
X135481873Y-100089944D01*
X135422858Y-100271572D01*
X135422168Y-100278133D01*
X135422168Y-100278135D01*
X135411182Y-100382665D01*
X135402896Y-100461500D01*
X135403586Y-100468065D01*
X135412386Y-100551788D01*
X135422858Y-100651428D01*
X135481873Y-100833056D01*
X135577360Y-100998444D01*
X135581778Y-101003351D01*
X135581779Y-101003352D01*
X135639803Y-101067794D01*
X135705147Y-101140366D01*
X135773118Y-101189750D01*
X135853394Y-101248074D01*
X135859648Y-101252618D01*
X135865676Y-101255302D01*
X135865678Y-101255303D01*
X136024838Y-101326165D01*
X136034112Y-101330294D01*
X136127513Y-101350147D01*
X136214456Y-101368628D01*
X136214461Y-101368628D01*
X136220913Y-101370000D01*
X136276806Y-101370000D01*
X136344927Y-101390002D01*
X136365901Y-101406905D01*
X138251100Y-103292105D01*
X138285126Y-103354417D01*
X138280061Y-103425233D01*
X138237514Y-103482068D01*
X138170994Y-103506879D01*
X138162005Y-103507200D01*
X137731063Y-103507200D01*
X137719879Y-103506673D01*
X137712391Y-103504999D01*
X137704468Y-103505248D01*
X137644333Y-103507138D01*
X137640375Y-103507200D01*
X137626616Y-103507200D01*
X137616197Y-103506709D01*
X137608991Y-103505098D01*
X137601069Y-103505347D01*
X137540914Y-103507238D01*
X137536955Y-103507300D01*
X137509044Y-103507300D01*
X137505110Y-103507797D01*
X137505109Y-103507797D01*
X137505044Y-103507805D01*
X137493207Y-103508738D01*
X137460949Y-103509752D01*
X137456930Y-103509878D01*
X137449011Y-103510127D01*
X137429557Y-103515779D01*
X137410200Y-103519787D01*
X137397970Y-103521332D01*
X137397969Y-103521332D01*
X137390103Y-103522326D01*
X137382732Y-103525245D01*
X137382730Y-103525245D01*
X137348988Y-103538604D01*
X137337758Y-103542449D01*
X137302917Y-103552571D01*
X137302916Y-103552571D01*
X137295307Y-103554782D01*
X137288488Y-103558815D01*
X137288483Y-103558817D01*
X137277872Y-103565093D01*
X137260124Y-103573788D01*
X137241283Y-103581248D01*
X137234867Y-103585910D01*
X137234866Y-103585910D01*
X137205513Y-103607236D01*
X137195592Y-103613752D01*
X137157538Y-103636258D01*
X137151931Y-103641864D01*
X137143215Y-103650580D01*
X137128182Y-103663420D01*
X137111793Y-103675328D01*
X137106741Y-103681435D01*
X137083612Y-103709393D01*
X137075622Y-103718174D01*
X136758642Y-104035153D01*
X136750363Y-104042687D01*
X136743882Y-104046800D01*
X136713532Y-104079120D01*
X136697256Y-104096452D01*
X136694501Y-104099294D01*
X136674765Y-104119030D01*
X136672285Y-104122227D01*
X136664582Y-104131247D01*
X136634314Y-104163479D01*
X136630495Y-104170425D01*
X136630493Y-104170428D01*
X136624552Y-104181234D01*
X136613701Y-104197753D01*
X136601286Y-104213759D01*
X136598141Y-104221028D01*
X136598138Y-104221032D01*
X136583726Y-104254337D01*
X136578509Y-104264987D01*
X136557205Y-104303740D01*
X136555234Y-104311416D01*
X136555233Y-104311419D01*
X136554842Y-104312942D01*
X136554149Y-104314156D01*
X136552316Y-104318787D01*
X136551657Y-104318526D01*
X136521897Y-104370698D01*
X136133247Y-104759348D01*
X136124961Y-104766888D01*
X136118482Y-104771000D01*
X136113057Y-104776777D01*
X136071857Y-104820651D01*
X136069102Y-104823493D01*
X136049365Y-104843230D01*
X136046885Y-104846427D01*
X136039182Y-104855447D01*
X136008914Y-104887679D01*
X136008840Y-104887609D01*
X136005056Y-104892039D01*
X135363747Y-105533348D01*
X135355461Y-105540888D01*
X135348982Y-105545000D01*
X135343557Y-105550777D01*
X135302357Y-105594651D01*
X135299602Y-105597493D01*
X135279865Y-105617230D01*
X135277385Y-105620427D01*
X135269682Y-105629447D01*
X135239414Y-105661679D01*
X135235595Y-105668625D01*
X135235593Y-105668628D01*
X135229652Y-105679434D01*
X135218801Y-105695953D01*
X135206386Y-105711959D01*
X135203241Y-105719228D01*
X135203238Y-105719232D01*
X135188826Y-105752537D01*
X135183609Y-105763187D01*
X135162305Y-105801940D01*
X135160334Y-105809615D01*
X135160334Y-105809616D01*
X135157267Y-105821562D01*
X135150863Y-105840266D01*
X135142819Y-105858855D01*
X135141580Y-105866678D01*
X135141577Y-105866688D01*
X135135901Y-105902524D01*
X135133495Y-105914144D01*
X135127814Y-105936273D01*
X135122500Y-105956970D01*
X135122500Y-105977224D01*
X135120949Y-105996934D01*
X135117780Y-106016943D01*
X135118526Y-106024833D01*
X135121206Y-106053181D01*
X135107704Y-106122882D01*
X135084860Y-106154135D01*
X135005547Y-106233448D01*
X134997261Y-106240988D01*
X134990782Y-106245100D01*
X134985357Y-106250877D01*
X134944157Y-106294751D01*
X134941402Y-106297593D01*
X134921665Y-106317330D01*
X134919185Y-106320527D01*
X134911486Y-106329542D01*
X134881214Y-106361779D01*
X134877395Y-106368725D01*
X134877393Y-106368728D01*
X134871452Y-106379534D01*
X134860601Y-106396053D01*
X134848186Y-106412059D01*
X134845041Y-106419328D01*
X134845038Y-106419332D01*
X134830626Y-106452637D01*
X134825409Y-106463287D01*
X134804105Y-106502040D01*
X134802134Y-106509715D01*
X134802134Y-106509716D01*
X134799067Y-106521662D01*
X134792663Y-106540366D01*
X134784619Y-106558955D01*
X134783380Y-106566778D01*
X134783377Y-106566788D01*
X134777701Y-106602624D01*
X134775295Y-106614244D01*
X134764300Y-106657070D01*
X134764300Y-106677324D01*
X134762749Y-106697034D01*
X134759580Y-106717043D01*
X134760326Y-106724935D01*
X134763741Y-106761061D01*
X134764300Y-106772919D01*
X134764300Y-120550127D01*
X134763771Y-120561338D01*
X134762096Y-120568834D01*
X134762345Y-120576751D01*
X134762345Y-120576752D01*
X134764238Y-120636907D01*
X134764300Y-120640870D01*
X134764300Y-120668756D01*
X134764795Y-120672678D01*
X134764796Y-120672687D01*
X134764807Y-120672770D01*
X134765739Y-120684602D01*
X134767130Y-120728814D01*
X134769340Y-120736421D01*
X134769341Y-120736425D01*
X134772779Y-120748254D01*
X134776788Y-120767608D01*
X134779326Y-120787697D01*
X134782244Y-120795067D01*
X134795608Y-120828821D01*
X134799450Y-120840043D01*
X134811792Y-120882516D01*
X134815829Y-120889341D01*
X134815830Y-120889344D01*
X134822095Y-120899937D01*
X134830795Y-120917695D01*
X134835328Y-120929144D01*
X134835331Y-120929149D01*
X134838248Y-120936517D01*
X134864257Y-120972315D01*
X134870759Y-120982214D01*
X134893274Y-121020282D01*
X134898882Y-121025890D01*
X134907585Y-121034592D01*
X134920429Y-121049628D01*
X134932328Y-121066007D01*
X134938436Y-121071060D01*
X134938437Y-121071061D01*
X134966407Y-121094200D01*
X134975183Y-121102185D01*
X135677376Y-121804323D01*
X135711403Y-121866634D01*
X135706341Y-121937450D01*
X135677379Y-121982517D01*
X132805960Y-124853935D01*
X130066147Y-127593748D01*
X130057861Y-127601288D01*
X130051382Y-127605400D01*
X130045957Y-127611177D01*
X130004757Y-127655051D01*
X130002002Y-127657893D01*
X129982265Y-127677630D01*
X129979785Y-127680827D01*
X129972082Y-127689847D01*
X129941814Y-127722079D01*
X129937995Y-127729025D01*
X129937993Y-127729028D01*
X129932052Y-127739834D01*
X129921201Y-127756353D01*
X129908786Y-127772359D01*
X129905641Y-127779628D01*
X129905638Y-127779632D01*
X129891226Y-127812937D01*
X129886009Y-127823587D01*
X129864705Y-127862340D01*
X129862734Y-127870015D01*
X129862734Y-127870016D01*
X129859667Y-127881962D01*
X129853263Y-127900666D01*
X129845219Y-127919255D01*
X129843980Y-127927078D01*
X129843977Y-127927088D01*
X129838301Y-127962924D01*
X129835895Y-127974544D01*
X129833001Y-127985818D01*
X129824900Y-128017370D01*
X129824900Y-128037624D01*
X129823349Y-128057334D01*
X129820180Y-128077343D01*
X129820926Y-128085235D01*
X129824341Y-128121361D01*
X129824900Y-128133219D01*
X129824900Y-131893618D01*
X129804898Y-131961739D01*
X129751242Y-132008232D01*
X129712648Y-132018866D01*
X129686541Y-132021732D01*
X129682000Y-132036289D01*
X129682000Y-134669817D01*
X129686064Y-134683659D01*
X129699478Y-134685693D01*
X129706184Y-134684834D01*
X129716266Y-134682691D01*
X129800293Y-134657482D01*
X129871288Y-134657066D01*
X129931239Y-134695098D01*
X129961110Y-134759505D01*
X129962500Y-134778168D01*
X129962500Y-138582206D01*
X129942498Y-138650327D01*
X129925595Y-138671301D01*
X128400576Y-140196319D01*
X128338264Y-140230345D01*
X128267448Y-140225280D01*
X128210613Y-140182733D01*
X128185802Y-140116213D01*
X128188235Y-140081025D01*
X128189301Y-140076009D01*
X128191342Y-140069728D01*
X128211304Y-139879800D01*
X128191342Y-139689872D01*
X128132327Y-139508244D01*
X128112559Y-139474004D01*
X128069717Y-139399800D01*
X128036840Y-139342856D01*
X128019777Y-139323905D01*
X127913475Y-139205845D01*
X127913474Y-139205844D01*
X127909053Y-139200934D01*
X127784377Y-139110351D01*
X127759894Y-139092563D01*
X127759893Y-139092562D01*
X127754552Y-139088682D01*
X127748524Y-139085998D01*
X127748522Y-139085997D01*
X127586119Y-139013691D01*
X127586118Y-139013691D01*
X127580088Y-139011006D01*
X127486688Y-138991153D01*
X127399744Y-138972672D01*
X127399739Y-138972672D01*
X127393287Y-138971300D01*
X127202313Y-138971300D01*
X127195861Y-138972672D01*
X127195856Y-138972672D01*
X127108912Y-138991153D01*
X127015512Y-139011006D01*
X127009482Y-139013691D01*
X127009481Y-139013691D01*
X126847078Y-139085997D01*
X126847076Y-139085998D01*
X126841048Y-139088682D01*
X126835707Y-139092562D01*
X126835706Y-139092563D01*
X126811223Y-139110351D01*
X126686547Y-139200934D01*
X126682126Y-139205844D01*
X126682125Y-139205845D01*
X126575824Y-139323905D01*
X126558760Y-139342856D01*
X126525883Y-139399800D01*
X126483042Y-139474004D01*
X126463273Y-139508244D01*
X126404258Y-139689872D01*
X126403568Y-139696433D01*
X126403568Y-139696435D01*
X126386893Y-139855092D01*
X126359880Y-139920749D01*
X126350679Y-139931017D01*
X126228358Y-140053337D01*
X126108842Y-140172853D01*
X126100563Y-140180387D01*
X126094082Y-140184500D01*
X126072611Y-140207365D01*
X126047457Y-140234151D01*
X126044702Y-140236993D01*
X126024965Y-140256730D01*
X126022485Y-140259927D01*
X126014782Y-140268947D01*
X125984514Y-140301179D01*
X125980695Y-140308125D01*
X125980693Y-140308128D01*
X125974752Y-140318934D01*
X125963901Y-140335453D01*
X125951486Y-140351459D01*
X125948340Y-140358729D01*
X125948337Y-140358734D01*
X125942379Y-140372502D01*
X125890884Y-140430912D01*
X125867990Y-140444452D01*
X125803849Y-140462000D01*
X125197369Y-140462000D01*
X125133230Y-140444453D01*
X125093818Y-140421145D01*
X125079376Y-140414895D01*
X124942616Y-140375162D01*
X124930029Y-140372864D01*
X124903725Y-140370793D01*
X124898798Y-140370600D01*
X124773215Y-140370600D01*
X124757976Y-140375075D01*
X124756771Y-140376465D01*
X124755100Y-140384148D01*
X124755100Y-140462000D01*
X124247100Y-140462000D01*
X124247100Y-140388715D01*
X124242625Y-140373476D01*
X124241235Y-140372271D01*
X124233552Y-140370600D01*
X124103402Y-140370600D01*
X124098475Y-140370793D01*
X124072171Y-140372864D01*
X124059584Y-140375162D01*
X123922824Y-140414895D01*
X123908382Y-140421145D01*
X123868970Y-140444453D01*
X123804831Y-140462000D01*
X123117284Y-140462000D01*
X123049163Y-140441998D01*
X123002670Y-140388342D01*
X122996348Y-140371362D01*
X122995453Y-140368300D01*
X122994180Y-140359413D01*
X122983551Y-140336036D01*
X122977104Y-140318513D01*
X122972516Y-140302462D01*
X122970049Y-140293829D01*
X122965256Y-140286232D01*
X122954270Y-140268820D01*
X122946130Y-140253735D01*
X122946018Y-140253488D01*
X122933892Y-140226818D01*
X122917130Y-140207365D01*
X122906027Y-140192361D01*
X122892324Y-140170642D01*
X122885599Y-140164703D01*
X122885596Y-140164699D01*
X122870162Y-140151068D01*
X122858118Y-140138876D01*
X122844673Y-140123273D01*
X122844670Y-140123271D01*
X122838813Y-140116473D01*
X122825109Y-140107590D01*
X122817265Y-140102506D01*
X122802391Y-140091215D01*
X122789883Y-140080169D01*
X122789882Y-140080168D01*
X122783149Y-140074222D01*
X122756387Y-140061657D01*
X122741409Y-140053337D01*
X122724117Y-140042129D01*
X122724112Y-140042127D01*
X122716585Y-140037248D01*
X122707992Y-140034678D01*
X122707987Y-140034676D01*
X122691980Y-140029889D01*
X122674536Y-140023228D01*
X122659424Y-140016133D01*
X122659422Y-140016132D01*
X122651300Y-140012319D01*
X122642433Y-140010938D01*
X122642432Y-140010938D01*
X122631578Y-140009248D01*
X122622083Y-140007770D01*
X122605368Y-140003987D01*
X122585634Y-139998085D01*
X122585628Y-139998084D01*
X122577034Y-139995514D01*
X122568063Y-139995459D01*
X122568062Y-139995459D01*
X122558003Y-139995398D01*
X122542594Y-139995304D01*
X122541811Y-139995271D01*
X122540714Y-139995100D01*
X122509723Y-139995100D01*
X122508953Y-139995098D01*
X122435315Y-139994648D01*
X122435314Y-139994648D01*
X122431379Y-139994624D01*
X122430035Y-139995008D01*
X122428690Y-139995100D01*
X121135600Y-139995100D01*
X121067479Y-139975098D01*
X121020986Y-139921442D01*
X121009600Y-139869100D01*
X121009600Y-134249434D01*
X122989500Y-134249434D01*
X122996255Y-134311616D01*
X123047385Y-134448005D01*
X123134739Y-134564561D01*
X123251295Y-134651915D01*
X123387684Y-134703045D01*
X123449866Y-134709800D01*
X125246134Y-134709800D01*
X125308316Y-134703045D01*
X125444705Y-134651915D01*
X125561261Y-134564561D01*
X125648615Y-134448005D01*
X125688313Y-134342111D01*
X125692598Y-134330682D01*
X125735240Y-134273918D01*
X125801802Y-134249218D01*
X125871150Y-134264426D01*
X125905817Y-134292414D01*
X125934250Y-134325238D01*
X126043489Y-134415930D01*
X126091788Y-134456028D01*
X126106126Y-134467932D01*
X126299000Y-134580638D01*
X126507692Y-134660330D01*
X126512760Y-134661361D01*
X126512763Y-134661362D01*
X126578086Y-134674652D01*
X126726597Y-134704867D01*
X126731772Y-134705057D01*
X126731774Y-134705057D01*
X126944673Y-134712864D01*
X126944677Y-134712864D01*
X126949837Y-134713053D01*
X126954957Y-134712397D01*
X126954959Y-134712397D01*
X127166288Y-134685325D01*
X127166289Y-134685325D01*
X127171416Y-134684668D01*
X127204801Y-134674652D01*
X127380429Y-134621961D01*
X127380434Y-134621959D01*
X127385384Y-134620474D01*
X127585994Y-134522196D01*
X127767860Y-134392473D01*
X127775448Y-134384912D01*
X127875821Y-134284889D01*
X127926096Y-134234789D01*
X127959288Y-134188598D01*
X128056453Y-134053377D01*
X128057640Y-134054230D01*
X128104960Y-134010662D01*
X128174897Y-133998445D01*
X128240338Y-134025978D01*
X128268166Y-134057811D01*
X128325694Y-134151688D01*
X128331777Y-134159999D01*
X128471213Y-134320967D01*
X128478580Y-134328183D01*
X128642434Y-134464216D01*
X128650881Y-134470131D01*
X128834756Y-134577579D01*
X128844042Y-134582029D01*
X129043001Y-134658003D01*
X129052899Y-134660879D01*
X129156250Y-134681906D01*
X129170299Y-134680710D01*
X129174000Y-134670365D01*
X129174000Y-132034402D01*
X129170082Y-132021058D01*
X129155806Y-132019071D01*
X129117324Y-132024960D01*
X129107288Y-132027351D01*
X128904868Y-132093512D01*
X128895359Y-132097509D01*
X128706463Y-132195842D01*
X128697738Y-132201336D01*
X128527433Y-132329205D01*
X128519726Y-132336048D01*
X128372590Y-132490017D01*
X128366109Y-132498022D01*
X128261498Y-132651374D01*
X128206587Y-132696376D01*
X128136062Y-132704547D01*
X128072315Y-132673293D01*
X128051618Y-132648809D01*
X127970822Y-132523917D01*
X127970820Y-132523914D01*
X127968014Y-132519577D01*
X127817670Y-132354351D01*
X127813619Y-132351152D01*
X127813615Y-132351148D01*
X127646414Y-132219100D01*
X127646410Y-132219098D01*
X127642359Y-132215898D01*
X127632572Y-132210495D01*
X127580498Y-132181749D01*
X127446789Y-132107938D01*
X127441920Y-132106214D01*
X127441916Y-132106212D01*
X127241087Y-132035095D01*
X127241083Y-132035094D01*
X127236212Y-132033369D01*
X127231119Y-132032462D01*
X127231116Y-132032461D01*
X127021373Y-131995100D01*
X127021367Y-131995099D01*
X127016284Y-131994194D01*
X126942452Y-131993292D01*
X126798081Y-131991528D01*
X126798079Y-131991528D01*
X126792911Y-131991465D01*
X126572091Y-132025255D01*
X126359756Y-132094657D01*
X126329443Y-132110437D01*
X126201001Y-132177300D01*
X126161607Y-132197807D01*
X126157474Y-132200910D01*
X126157471Y-132200912D01*
X125987100Y-132328830D01*
X125982965Y-132331935D01*
X125904575Y-132413966D01*
X125902283Y-132416364D01*
X125840759Y-132451794D01*
X125769846Y-132448337D01*
X125712060Y-132407091D01*
X125693207Y-132373543D01*
X125651767Y-132263003D01*
X125648615Y-132254595D01*
X125561261Y-132138039D01*
X125444705Y-132050685D01*
X125308316Y-131999555D01*
X125246134Y-131992800D01*
X123449866Y-131992800D01*
X123387684Y-131999555D01*
X123251295Y-132050685D01*
X123134739Y-132138039D01*
X123047385Y-132254595D01*
X122996255Y-132390984D01*
X122989500Y-132453166D01*
X122989500Y-134249434D01*
X121009600Y-134249434D01*
X121009600Y-75438000D01*
X123146502Y-75438000D01*
X123166457Y-75666087D01*
X123167881Y-75671400D01*
X123167881Y-75671402D01*
X123219061Y-75862405D01*
X123225716Y-75887243D01*
X123228039Y-75892224D01*
X123228039Y-75892225D01*
X123320151Y-76089762D01*
X123320154Y-76089767D01*
X123322477Y-76094749D01*
X123453802Y-76282300D01*
X123615700Y-76444198D01*
X123620208Y-76447355D01*
X123620211Y-76447357D01*
X123669301Y-76481730D01*
X123803251Y-76575523D01*
X123808233Y-76577846D01*
X123808238Y-76577849D01*
X124004765Y-76669490D01*
X124010757Y-76672284D01*
X124016065Y-76673706D01*
X124016067Y-76673707D01*
X124226598Y-76730119D01*
X124226600Y-76730119D01*
X124231913Y-76731543D01*
X124460000Y-76751498D01*
X124688087Y-76731543D01*
X124693400Y-76730119D01*
X124693402Y-76730119D01*
X124903933Y-76673707D01*
X124903935Y-76673706D01*
X124909243Y-76672284D01*
X124915235Y-76669490D01*
X125111762Y-76577849D01*
X125111767Y-76577846D01*
X125116749Y-76575523D01*
X125250699Y-76481730D01*
X125299789Y-76447357D01*
X125299792Y-76447355D01*
X125304300Y-76444198D01*
X125466198Y-76282300D01*
X125597523Y-76094749D01*
X125599846Y-76089767D01*
X125599849Y-76089762D01*
X125616081Y-76054951D01*
X125662998Y-76001666D01*
X125731275Y-75982205D01*
X125799235Y-76002747D01*
X125844471Y-76054951D01*
X125860586Y-76089511D01*
X125866069Y-76099007D01*
X125991028Y-76277467D01*
X125998084Y-76285875D01*
X126152125Y-76439916D01*
X126160533Y-76446972D01*
X126338993Y-76571931D01*
X126348489Y-76577414D01*
X126545947Y-76669490D01*
X126556239Y-76673236D01*
X126728503Y-76719394D01*
X126742599Y-76719058D01*
X126746000Y-76711116D01*
X126746000Y-74170033D01*
X126742027Y-74156502D01*
X126733478Y-74155273D01*
X126556239Y-74202764D01*
X126545947Y-74206510D01*
X126348489Y-74298586D01*
X126338993Y-74304069D01*
X126160533Y-74429028D01*
X126152125Y-74436084D01*
X125998084Y-74590125D01*
X125991028Y-74598533D01*
X125866069Y-74776993D01*
X125860586Y-74786489D01*
X125844471Y-74821049D01*
X125797554Y-74874334D01*
X125729277Y-74893795D01*
X125661317Y-74873253D01*
X125616081Y-74821049D01*
X125599849Y-74786238D01*
X125599846Y-74786233D01*
X125597523Y-74781251D01*
X125466198Y-74593700D01*
X125304300Y-74431802D01*
X125299792Y-74428645D01*
X125299789Y-74428643D01*
X125133411Y-74312144D01*
X125116749Y-74300477D01*
X125111767Y-74298154D01*
X125111762Y-74298151D01*
X124914225Y-74206039D01*
X124914224Y-74206039D01*
X124909243Y-74203716D01*
X124903935Y-74202294D01*
X124903933Y-74202293D01*
X124693402Y-74145881D01*
X124693400Y-74145881D01*
X124688087Y-74144457D01*
X124460000Y-74124502D01*
X124231913Y-74144457D01*
X124226600Y-74145881D01*
X124226598Y-74145881D01*
X124016067Y-74202293D01*
X124016065Y-74202294D01*
X124010757Y-74203716D01*
X124005776Y-74206039D01*
X124005775Y-74206039D01*
X123808238Y-74298151D01*
X123808233Y-74298154D01*
X123803251Y-74300477D01*
X123786589Y-74312144D01*
X123620211Y-74428643D01*
X123620208Y-74428645D01*
X123615700Y-74431802D01*
X123453802Y-74593700D01*
X123322477Y-74781251D01*
X123320154Y-74786233D01*
X123320151Y-74786238D01*
X123228039Y-74983775D01*
X123225716Y-74988757D01*
X123166457Y-75209913D01*
X123146502Y-75438000D01*
X121009600Y-75438000D01*
X121009600Y-68470670D01*
X123719160Y-68470670D01*
X123724887Y-68478320D01*
X123896042Y-68583205D01*
X123904837Y-68587687D01*
X124114988Y-68674734D01*
X124124373Y-68677783D01*
X124345554Y-68730885D01*
X124355301Y-68732428D01*
X124582070Y-68750275D01*
X124591930Y-68750275D01*
X124818699Y-68732428D01*
X124828446Y-68730885D01*
X125049627Y-68677783D01*
X125059012Y-68674734D01*
X125269163Y-68587687D01*
X125277958Y-68583205D01*
X125445445Y-68480568D01*
X125454400Y-68470670D01*
X130219160Y-68470670D01*
X130224887Y-68478320D01*
X130396042Y-68583205D01*
X130404837Y-68587687D01*
X130614988Y-68674734D01*
X130624373Y-68677783D01*
X130845554Y-68730885D01*
X130855301Y-68732428D01*
X131082070Y-68750275D01*
X131091930Y-68750275D01*
X131318699Y-68732428D01*
X131328446Y-68730885D01*
X131549627Y-68677783D01*
X131559012Y-68674734D01*
X131769163Y-68587687D01*
X131777958Y-68583205D01*
X131945445Y-68480568D01*
X131954907Y-68470110D01*
X131951124Y-68461334D01*
X131099812Y-67610022D01*
X131085868Y-67602408D01*
X131084035Y-67602539D01*
X131077420Y-67606790D01*
X130225920Y-68458290D01*
X130219160Y-68470670D01*
X125454400Y-68470670D01*
X125454907Y-68470110D01*
X125451124Y-68461334D01*
X124599812Y-67610022D01*
X124585868Y-67602408D01*
X124584035Y-67602539D01*
X124577420Y-67606790D01*
X123725920Y-68458290D01*
X123719160Y-68470670D01*
X121009600Y-68470670D01*
X121009600Y-67242930D01*
X123074725Y-67242930D01*
X123092572Y-67469699D01*
X123094115Y-67479446D01*
X123147217Y-67700627D01*
X123150266Y-67710012D01*
X123237313Y-67920163D01*
X123241795Y-67928958D01*
X123344432Y-68096445D01*
X123354890Y-68105907D01*
X123363666Y-68102124D01*
X124214978Y-67250812D01*
X124221356Y-67239132D01*
X124951408Y-67239132D01*
X124951539Y-67240965D01*
X124955790Y-67247580D01*
X125807290Y-68099080D01*
X125819670Y-68105840D01*
X125827320Y-68100113D01*
X125932205Y-67928958D01*
X125936687Y-67920163D01*
X126023734Y-67710012D01*
X126026783Y-67700627D01*
X126079885Y-67479446D01*
X126081428Y-67469699D01*
X126099275Y-67242930D01*
X129574725Y-67242930D01*
X129592572Y-67469699D01*
X129594115Y-67479446D01*
X129647217Y-67700627D01*
X129650266Y-67710012D01*
X129737313Y-67920163D01*
X129741795Y-67928958D01*
X129844432Y-68096445D01*
X129854890Y-68105907D01*
X129863666Y-68102124D01*
X130714978Y-67250812D01*
X130721356Y-67239132D01*
X131451408Y-67239132D01*
X131451539Y-67240965D01*
X131455790Y-67247580D01*
X132307290Y-68099080D01*
X132319670Y-68105840D01*
X132327320Y-68100113D01*
X132432205Y-67928958D01*
X132436687Y-67920163D01*
X132523734Y-67710012D01*
X132526783Y-67700627D01*
X132579885Y-67479446D01*
X132581428Y-67469699D01*
X132599275Y-67242930D01*
X132599275Y-67233070D01*
X132581428Y-67006301D01*
X132579885Y-66996554D01*
X132526783Y-66775373D01*
X132523734Y-66765988D01*
X132436687Y-66555837D01*
X132432205Y-66547042D01*
X132329568Y-66379555D01*
X132319110Y-66370093D01*
X132310334Y-66373876D01*
X131459022Y-67225188D01*
X131451408Y-67239132D01*
X130721356Y-67239132D01*
X130722592Y-67236868D01*
X130722461Y-67235035D01*
X130718210Y-67228420D01*
X129866710Y-66376920D01*
X129854330Y-66370160D01*
X129846680Y-66375887D01*
X129741795Y-66547042D01*
X129737313Y-66555837D01*
X129650266Y-66765988D01*
X129647217Y-66775373D01*
X129594115Y-66996554D01*
X129592572Y-67006301D01*
X129574725Y-67233070D01*
X129574725Y-67242930D01*
X126099275Y-67242930D01*
X126099275Y-67233070D01*
X126081428Y-67006301D01*
X126079885Y-66996554D01*
X126026783Y-66775373D01*
X126023734Y-66765988D01*
X125936687Y-66555837D01*
X125932205Y-66547042D01*
X125829568Y-66379555D01*
X125819110Y-66370093D01*
X125810334Y-66373876D01*
X124959022Y-67225188D01*
X124951408Y-67239132D01*
X124221356Y-67239132D01*
X124222592Y-67236868D01*
X124222461Y-67235035D01*
X124218210Y-67228420D01*
X123366710Y-66376920D01*
X123354330Y-66370160D01*
X123346680Y-66375887D01*
X123241795Y-66547042D01*
X123237313Y-66555837D01*
X123150266Y-66765988D01*
X123147217Y-66775373D01*
X123094115Y-66996554D01*
X123092572Y-67006301D01*
X123074725Y-67233070D01*
X123074725Y-67242930D01*
X121009600Y-67242930D01*
X121009600Y-66005890D01*
X123719093Y-66005890D01*
X123722876Y-66014666D01*
X124574188Y-66865978D01*
X124588132Y-66873592D01*
X124589965Y-66873461D01*
X124596580Y-66869210D01*
X125448080Y-66017710D01*
X125454534Y-66005890D01*
X130219093Y-66005890D01*
X130222876Y-66014666D01*
X131074188Y-66865978D01*
X131088132Y-66873592D01*
X131089965Y-66873461D01*
X131096580Y-66869210D01*
X131948080Y-66017710D01*
X131954840Y-66005330D01*
X131949113Y-65997680D01*
X131777958Y-65892795D01*
X131769163Y-65888313D01*
X131559012Y-65801266D01*
X131549627Y-65798217D01*
X131328446Y-65745115D01*
X131318699Y-65743572D01*
X131091930Y-65725725D01*
X131082070Y-65725725D01*
X130855301Y-65743572D01*
X130845554Y-65745115D01*
X130624373Y-65798217D01*
X130614988Y-65801266D01*
X130404837Y-65888313D01*
X130396042Y-65892795D01*
X130228555Y-65995432D01*
X130219093Y-66005890D01*
X125454534Y-66005890D01*
X125454840Y-66005330D01*
X125449113Y-65997680D01*
X125277958Y-65892795D01*
X125269163Y-65888313D01*
X125059012Y-65801266D01*
X125049627Y-65798217D01*
X124828446Y-65745115D01*
X124818699Y-65743572D01*
X124591930Y-65725725D01*
X124582070Y-65725725D01*
X124355301Y-65743572D01*
X124345554Y-65745115D01*
X124124373Y-65798217D01*
X124114988Y-65801266D01*
X123904837Y-65888313D01*
X123896042Y-65892795D01*
X123728555Y-65995432D01*
X123719093Y-66005890D01*
X121009600Y-66005890D01*
X121009600Y-62738000D01*
X123073835Y-62738000D01*
X123092465Y-62974711D01*
X123093619Y-62979518D01*
X123093620Y-62979524D01*
X123128640Y-63125391D01*
X123147895Y-63205594D01*
X123149788Y-63210165D01*
X123149789Y-63210167D01*
X123225275Y-63392406D01*
X123238760Y-63424963D01*
X123241346Y-63429183D01*
X123360241Y-63623202D01*
X123360245Y-63623208D01*
X123362824Y-63627416D01*
X123517031Y-63807969D01*
X123697584Y-63962176D01*
X123701792Y-63964755D01*
X123701798Y-63964759D01*
X123895817Y-64083654D01*
X123900037Y-64086240D01*
X123904607Y-64088133D01*
X123904611Y-64088135D01*
X124087620Y-64163939D01*
X124119406Y-64177105D01*
X124199609Y-64196360D01*
X124345476Y-64231380D01*
X124345482Y-64231381D01*
X124350289Y-64232535D01*
X124587000Y-64251165D01*
X124823711Y-64232535D01*
X124828518Y-64231381D01*
X124828524Y-64231380D01*
X124974391Y-64196360D01*
X125054594Y-64177105D01*
X125086380Y-64163939D01*
X125269389Y-64088135D01*
X125269393Y-64088133D01*
X125273963Y-64086240D01*
X125278183Y-64083654D01*
X125472202Y-63964759D01*
X125472208Y-63964755D01*
X125476416Y-63962176D01*
X125656969Y-63807969D01*
X125811176Y-63627416D01*
X125813755Y-63623208D01*
X125813759Y-63623202D01*
X125932654Y-63429183D01*
X125935240Y-63424963D01*
X125948726Y-63392406D01*
X126024211Y-63210167D01*
X126024212Y-63210165D01*
X126026105Y-63205594D01*
X126045360Y-63125391D01*
X126080380Y-62979524D01*
X126080381Y-62979518D01*
X126081535Y-62974711D01*
X126100165Y-62738000D01*
X129573835Y-62738000D01*
X129592465Y-62974711D01*
X129593619Y-62979518D01*
X129593620Y-62979524D01*
X129628640Y-63125391D01*
X129647895Y-63205594D01*
X129649788Y-63210165D01*
X129649789Y-63210167D01*
X129725275Y-63392406D01*
X129738760Y-63424963D01*
X129741346Y-63429183D01*
X129860241Y-63623202D01*
X129860245Y-63623208D01*
X129862824Y-63627416D01*
X130017031Y-63807969D01*
X130197584Y-63962176D01*
X130201792Y-63964755D01*
X130201798Y-63964759D01*
X130395817Y-64083654D01*
X130400037Y-64086240D01*
X130404607Y-64088133D01*
X130404611Y-64088135D01*
X130587620Y-64163939D01*
X130619406Y-64177105D01*
X130699609Y-64196360D01*
X130845476Y-64231380D01*
X130845482Y-64231381D01*
X130850289Y-64232535D01*
X131087000Y-64251165D01*
X131323711Y-64232535D01*
X131328518Y-64231381D01*
X131328524Y-64231380D01*
X131474391Y-64196360D01*
X131554594Y-64177105D01*
X131586380Y-64163939D01*
X131769389Y-64088135D01*
X131769393Y-64088133D01*
X131773963Y-64086240D01*
X131778183Y-64083654D01*
X131972202Y-63964759D01*
X131972208Y-63964755D01*
X131976416Y-63962176D01*
X132156969Y-63807969D01*
X132311176Y-63627416D01*
X132313755Y-63623208D01*
X132313759Y-63623202D01*
X132432654Y-63429183D01*
X132435240Y-63424963D01*
X132448726Y-63392406D01*
X132524211Y-63210167D01*
X132524212Y-63210165D01*
X132526105Y-63205594D01*
X132545360Y-63125391D01*
X132580380Y-62979524D01*
X132580381Y-62979518D01*
X132581535Y-62974711D01*
X132600165Y-62738000D01*
X132581535Y-62501289D01*
X132526105Y-62270406D01*
X132435240Y-62051037D01*
X132341325Y-61897782D01*
X132313759Y-61852798D01*
X132313755Y-61852792D01*
X132311176Y-61848584D01*
X132160829Y-61672550D01*
X132160177Y-61671787D01*
X132156969Y-61668031D01*
X131976416Y-61513824D01*
X131972208Y-61511245D01*
X131972202Y-61511241D01*
X131778183Y-61392346D01*
X131773963Y-61389760D01*
X131769393Y-61387867D01*
X131769389Y-61387865D01*
X131559167Y-61300789D01*
X131559165Y-61300788D01*
X131554594Y-61298895D01*
X131474391Y-61279640D01*
X131328524Y-61244620D01*
X131328518Y-61244619D01*
X131323711Y-61243465D01*
X131087000Y-61224835D01*
X130850289Y-61243465D01*
X130845482Y-61244619D01*
X130845476Y-61244620D01*
X130699609Y-61279640D01*
X130619406Y-61298895D01*
X130614835Y-61300788D01*
X130614833Y-61300789D01*
X130404611Y-61387865D01*
X130404607Y-61387867D01*
X130400037Y-61389760D01*
X130395817Y-61392346D01*
X130201798Y-61511241D01*
X130201792Y-61511245D01*
X130197584Y-61513824D01*
X130017031Y-61668031D01*
X130013823Y-61671787D01*
X130013171Y-61672550D01*
X129862824Y-61848584D01*
X129860245Y-61852792D01*
X129860241Y-61852798D01*
X129832675Y-61897782D01*
X129738760Y-62051037D01*
X129647895Y-62270406D01*
X129592465Y-62501289D01*
X129573835Y-62738000D01*
X126100165Y-62738000D01*
X126081535Y-62501289D01*
X126026105Y-62270406D01*
X125935240Y-62051037D01*
X125841325Y-61897782D01*
X125813759Y-61852798D01*
X125813755Y-61852792D01*
X125811176Y-61848584D01*
X125660829Y-61672550D01*
X125660177Y-61671787D01*
X125656969Y-61668031D01*
X125476416Y-61513824D01*
X125472208Y-61511245D01*
X125472202Y-61511241D01*
X125278183Y-61392346D01*
X125273963Y-61389760D01*
X125269393Y-61387867D01*
X125269389Y-61387865D01*
X125059167Y-61300789D01*
X125059165Y-61300788D01*
X125054594Y-61298895D01*
X124974391Y-61279640D01*
X124828524Y-61244620D01*
X124828518Y-61244619D01*
X124823711Y-61243465D01*
X124587000Y-61224835D01*
X124350289Y-61243465D01*
X124345482Y-61244619D01*
X124345476Y-61244620D01*
X124199609Y-61279640D01*
X124119406Y-61298895D01*
X124114835Y-61300788D01*
X124114833Y-61300789D01*
X123904611Y-61387865D01*
X123904607Y-61387867D01*
X123900037Y-61389760D01*
X123895817Y-61392346D01*
X123701798Y-61511241D01*
X123701792Y-61511245D01*
X123697584Y-61513824D01*
X123517031Y-61668031D01*
X123513823Y-61671787D01*
X123513171Y-61672550D01*
X123362824Y-61848584D01*
X123360245Y-61852792D01*
X123360241Y-61852798D01*
X123332675Y-61897782D01*
X123238760Y-62051037D01*
X123147895Y-62270406D01*
X123092465Y-62501289D01*
X123073835Y-62738000D01*
X121009600Y-62738000D01*
X121009600Y-60138100D01*
X121029602Y-60069979D01*
X121083258Y-60023486D01*
X121135600Y-60012100D01*
X175866600Y-60012100D01*
X175934721Y-60032102D01*
G37*
G04 #@! TD.AperFunction*
G04 #@! TA.AperFunction,Conductor*
G36*
X158819121Y-134005002D02*
G01*
X158865614Y-134058658D01*
X158877000Y-134111000D01*
X158877000Y-135506967D01*
X158881475Y-135522206D01*
X158882213Y-135522846D01*
X158920596Y-135582572D01*
X158925700Y-135618070D01*
X158925700Y-136371174D01*
X158905698Y-136439295D01*
X158852042Y-136485788D01*
X158781768Y-136495892D01*
X158773504Y-136494421D01*
X158753046Y-136490073D01*
X158753047Y-136490073D01*
X158746587Y-136488700D01*
X158555613Y-136488700D01*
X158549161Y-136490072D01*
X158549156Y-136490072D01*
X158462213Y-136508553D01*
X158368812Y-136528406D01*
X158362782Y-136531091D01*
X158362781Y-136531091D01*
X158200378Y-136603397D01*
X158200376Y-136603398D01*
X158194348Y-136606082D01*
X158189007Y-136609962D01*
X158189006Y-136609963D01*
X158047749Y-136712593D01*
X158039847Y-136718334D01*
X158036949Y-136721553D01*
X157973701Y-136751904D01*
X157903247Y-136743138D01*
X157848717Y-136697675D01*
X157827400Y-136627550D01*
X157827400Y-135509004D01*
X157847402Y-135440883D01*
X157901058Y-135394390D01*
X157971332Y-135384286D01*
X158006650Y-135394809D01*
X158168947Y-135470490D01*
X158179239Y-135474236D01*
X158351503Y-135520394D01*
X158365599Y-135520058D01*
X158369000Y-135512116D01*
X158369000Y-134111000D01*
X158389002Y-134042879D01*
X158442658Y-133996386D01*
X158495000Y-133985000D01*
X158751000Y-133985000D01*
X158819121Y-134005002D01*
G37*
G04 #@! TD.AperFunction*
G04 #@! TA.AperFunction,Conductor*
G36*
X156948994Y-86562102D02*
G01*
X156995487Y-86615758D01*
X157005591Y-86686032D01*
X156976097Y-86750612D01*
X156956528Y-86768858D01*
X156828965Y-86864635D01*
X156825393Y-86868373D01*
X156681442Y-87019009D01*
X156674629Y-87026138D01*
X156671715Y-87030410D01*
X156671714Y-87030411D01*
X156633459Y-87086491D01*
X156548743Y-87210680D01*
X156517195Y-87278645D01*
X156458453Y-87405195D01*
X156454688Y-87413305D01*
X156394989Y-87628570D01*
X156371251Y-87850695D01*
X156371548Y-87855848D01*
X156371548Y-87855851D01*
X156379786Y-87998730D01*
X156384110Y-88073715D01*
X156385247Y-88078761D01*
X156385248Y-88078767D01*
X156403969Y-88161834D01*
X156433222Y-88291639D01*
X156465081Y-88370099D01*
X156512060Y-88485796D01*
X156519156Y-88556437D01*
X156486934Y-88619701D01*
X156425624Y-88655501D01*
X156395317Y-88659200D01*
X155923138Y-88659200D01*
X155855017Y-88639198D01*
X155849077Y-88635136D01*
X155753594Y-88565763D01*
X155753593Y-88565762D01*
X155748252Y-88561882D01*
X155742224Y-88559198D01*
X155742222Y-88559197D01*
X155579819Y-88486891D01*
X155579818Y-88486891D01*
X155573788Y-88484206D01*
X155480388Y-88464353D01*
X155393444Y-88445872D01*
X155393439Y-88445872D01*
X155386987Y-88444500D01*
X155196013Y-88444500D01*
X155189561Y-88445872D01*
X155189556Y-88445872D01*
X155102613Y-88464353D01*
X155009212Y-88484206D01*
X155003182Y-88486891D01*
X155003181Y-88486891D01*
X154840778Y-88559197D01*
X154840776Y-88559198D01*
X154834748Y-88561882D01*
X154829407Y-88565762D01*
X154829406Y-88565763D01*
X154787040Y-88596544D01*
X154680247Y-88674134D01*
X154675826Y-88679044D01*
X154675825Y-88679045D01*
X154633820Y-88725697D01*
X154552460Y-88816056D01*
X154456973Y-88981444D01*
X154397958Y-89163072D01*
X154397268Y-89169633D01*
X154397268Y-89169635D01*
X154390221Y-89236681D01*
X154377996Y-89353000D01*
X154378686Y-89359565D01*
X154396951Y-89533343D01*
X154397958Y-89542928D01*
X154456973Y-89724556D01*
X154552460Y-89889944D01*
X154556878Y-89894851D01*
X154556879Y-89894852D01*
X154675825Y-90026955D01*
X154680247Y-90031866D01*
X154834748Y-90144118D01*
X154840776Y-90146802D01*
X154840778Y-90146803D01*
X155003181Y-90219109D01*
X155009212Y-90221794D01*
X155102612Y-90241647D01*
X155189556Y-90260128D01*
X155189561Y-90260128D01*
X155196013Y-90261500D01*
X155386987Y-90261500D01*
X155393439Y-90260128D01*
X155393444Y-90260128D01*
X155480388Y-90241647D01*
X155573788Y-90221794D01*
X155579819Y-90219109D01*
X155742222Y-90146803D01*
X155742224Y-90146802D01*
X155748252Y-90144118D01*
X155902753Y-90031866D01*
X155907821Y-90026238D01*
X155960357Y-89967890D01*
X156020803Y-89930650D01*
X156053993Y-89926200D01*
X156297026Y-89926200D01*
X156365147Y-89946202D01*
X156411640Y-89999858D01*
X156421744Y-90070132D01*
X156418443Y-90085873D01*
X156398389Y-90158184D01*
X156399912Y-90166607D01*
X156412292Y-90170000D01*
X157862000Y-90170000D01*
X157930121Y-90190002D01*
X157976614Y-90243658D01*
X157988000Y-90296000D01*
X157988000Y-91742517D01*
X157992064Y-91756359D01*
X158005478Y-91758393D01*
X158012184Y-91757534D01*
X158022262Y-91755392D01*
X158226255Y-91694191D01*
X158235842Y-91690433D01*
X158427095Y-91596739D01*
X158435945Y-91591464D01*
X158609328Y-91467792D01*
X158617200Y-91461139D01*
X158768052Y-91310812D01*
X158774730Y-91302965D01*
X158899003Y-91130020D01*
X158904313Y-91121184D01*
X158930276Y-91068651D01*
X158978389Y-91016444D01*
X159047091Y-90998537D01*
X159114567Y-91020615D01*
X159152352Y-91061478D01*
X159211558Y-91164026D01*
X159211560Y-91164029D01*
X159214860Y-91169744D01*
X159219278Y-91174651D01*
X159219279Y-91174652D01*
X159338225Y-91306755D01*
X159342647Y-91311666D01*
X159497148Y-91423918D01*
X159503176Y-91426602D01*
X159503178Y-91426603D01*
X159665581Y-91498909D01*
X159671612Y-91501594D01*
X159765013Y-91521447D01*
X159851956Y-91539928D01*
X159851961Y-91539928D01*
X159858413Y-91541300D01*
X160049387Y-91541300D01*
X160055839Y-91539928D01*
X160055844Y-91539928D01*
X160142787Y-91521447D01*
X160236188Y-91501594D01*
X160242219Y-91498909D01*
X160404622Y-91426603D01*
X160404624Y-91426602D01*
X160410652Y-91423918D01*
X160565153Y-91311666D01*
X160569575Y-91306755D01*
X160688521Y-91174652D01*
X160688522Y-91174651D01*
X160692940Y-91169744D01*
X160742754Y-91083465D01*
X160794134Y-91034473D01*
X160863847Y-91021036D01*
X160929758Y-91047423D01*
X160940966Y-91057371D01*
X163814086Y-93930491D01*
X163848112Y-93992803D01*
X163843047Y-94063618D01*
X163800500Y-94120454D01*
X163733980Y-94145265D01*
X163723461Y-94145577D01*
X163642205Y-94144584D01*
X163613080Y-94144228D01*
X163613078Y-94144228D01*
X163607911Y-94144165D01*
X163387091Y-94177955D01*
X163174756Y-94247357D01*
X162976607Y-94350507D01*
X162972474Y-94353610D01*
X162972471Y-94353612D01*
X162802100Y-94481530D01*
X162797965Y-94484635D01*
X162643629Y-94646138D01*
X162536201Y-94803621D01*
X162481293Y-94848621D01*
X162410768Y-94856792D01*
X162347021Y-94825538D01*
X162326324Y-94801054D01*
X162245822Y-94676617D01*
X162245820Y-94676614D01*
X162243014Y-94672277D01*
X162092670Y-94507051D01*
X162088619Y-94503852D01*
X162088615Y-94503848D01*
X161921414Y-94371800D01*
X161921410Y-94371798D01*
X161917359Y-94368598D01*
X161881028Y-94348542D01*
X161865135Y-94339769D01*
X161721789Y-94260638D01*
X161716920Y-94258914D01*
X161716916Y-94258912D01*
X161516087Y-94187795D01*
X161516083Y-94187794D01*
X161511212Y-94186069D01*
X161506119Y-94185162D01*
X161506116Y-94185161D01*
X161296373Y-94147800D01*
X161296367Y-94147799D01*
X161291284Y-94146894D01*
X161217452Y-94145992D01*
X161073081Y-94144228D01*
X161073079Y-94144228D01*
X161067911Y-94144165D01*
X160847091Y-94177955D01*
X160634756Y-94247357D01*
X160436607Y-94350507D01*
X160432474Y-94353610D01*
X160432471Y-94353612D01*
X160262100Y-94481530D01*
X160257965Y-94484635D01*
X160103629Y-94646138D01*
X160100720Y-94650403D01*
X160100714Y-94650411D01*
X160088404Y-94668457D01*
X159996204Y-94803618D01*
X159995898Y-94804066D01*
X159940987Y-94849069D01*
X159870462Y-94857240D01*
X159806715Y-94825986D01*
X159786018Y-94801502D01*
X159705426Y-94676926D01*
X159699136Y-94668757D01*
X159555806Y-94511240D01*
X159548273Y-94504215D01*
X159381139Y-94372222D01*
X159372552Y-94366517D01*
X159186117Y-94263599D01*
X159176705Y-94259369D01*
X158975959Y-94188280D01*
X158965988Y-94185646D01*
X158894837Y-94172972D01*
X158881540Y-94174432D01*
X158877000Y-94188989D01*
X158877000Y-96822517D01*
X158881064Y-96836359D01*
X158894478Y-96838393D01*
X158901184Y-96837534D01*
X158911262Y-96835392D01*
X159115255Y-96774191D01*
X159124842Y-96770433D01*
X159316095Y-96676739D01*
X159324945Y-96671464D01*
X159498328Y-96547792D01*
X159506200Y-96541139D01*
X159657052Y-96390812D01*
X159663730Y-96382965D01*
X159791022Y-96205819D01*
X159792279Y-96206722D01*
X159839373Y-96163362D01*
X159909311Y-96151145D01*
X159974751Y-96178678D01*
X160002579Y-96210511D01*
X160014830Y-96230502D01*
X160062987Y-96309088D01*
X160209250Y-96477938D01*
X160213231Y-96481244D01*
X160213233Y-96481245D01*
X160219393Y-96486360D01*
X160259026Y-96545264D01*
X160260522Y-96616245D01*
X160228000Y-96672396D01*
X156563074Y-100337321D01*
X152913047Y-103987348D01*
X152904761Y-103994888D01*
X152898282Y-103999000D01*
X152892857Y-104004777D01*
X152851657Y-104048651D01*
X152848902Y-104051493D01*
X152829165Y-104071230D01*
X152826685Y-104074427D01*
X152818982Y-104083447D01*
X152788714Y-104115679D01*
X152784895Y-104122625D01*
X152784893Y-104122628D01*
X152778952Y-104133434D01*
X152768101Y-104149953D01*
X152755686Y-104165959D01*
X152752541Y-104173228D01*
X152752538Y-104173232D01*
X152738126Y-104206537D01*
X152732909Y-104217187D01*
X152711605Y-104255940D01*
X152709634Y-104263615D01*
X152709634Y-104263616D01*
X152706567Y-104275562D01*
X152700163Y-104294266D01*
X152692119Y-104312855D01*
X152690880Y-104320678D01*
X152690877Y-104320688D01*
X152685201Y-104356524D01*
X152682795Y-104368144D01*
X152680989Y-104375178D01*
X152671800Y-104410970D01*
X152671800Y-104431224D01*
X152670249Y-104450934D01*
X152667080Y-104470943D01*
X152667826Y-104478835D01*
X152671241Y-104514961D01*
X152671800Y-104526819D01*
X152671800Y-109111905D01*
X152651798Y-109180026D01*
X152634895Y-109201000D01*
X151800614Y-110035281D01*
X151738302Y-110069307D01*
X151667487Y-110064242D01*
X151610651Y-110021695D01*
X151585840Y-109955175D01*
X151588180Y-109926363D01*
X151587745Y-109926316D01*
X151594131Y-109867531D01*
X151594500Y-109864134D01*
X151594500Y-108067866D01*
X151587745Y-108005684D01*
X151536615Y-107869295D01*
X151449261Y-107752739D01*
X151332705Y-107665385D01*
X151196316Y-107614255D01*
X151134134Y-107607500D01*
X149337866Y-107607500D01*
X149275684Y-107614255D01*
X149139295Y-107665385D01*
X149022739Y-107752739D01*
X148935385Y-107869295D01*
X148932233Y-107877703D01*
X148890919Y-107987907D01*
X148848277Y-108044671D01*
X148781716Y-108069371D01*
X148712367Y-108054163D01*
X148679743Y-108028476D01*
X148629151Y-107972875D01*
X148629142Y-107972866D01*
X148625670Y-107969051D01*
X148621619Y-107965852D01*
X148621615Y-107965848D01*
X148454414Y-107833800D01*
X148454410Y-107833798D01*
X148450359Y-107830598D01*
X148254789Y-107722638D01*
X148249920Y-107720914D01*
X148249916Y-107720912D01*
X148049087Y-107649795D01*
X148049083Y-107649794D01*
X148044212Y-107648069D01*
X148039119Y-107647162D01*
X148039116Y-107647161D01*
X147829373Y-107609800D01*
X147829367Y-107609799D01*
X147824284Y-107608894D01*
X147750452Y-107607992D01*
X147606081Y-107606228D01*
X147606079Y-107606228D01*
X147600911Y-107606165D01*
X147380091Y-107639955D01*
X147167756Y-107709357D01*
X147059846Y-107765532D01*
X146990189Y-107779244D01*
X146924174Y-107753119D01*
X146902111Y-107730997D01*
X146899676Y-107727858D01*
X146895642Y-107721037D01*
X146881318Y-107706713D01*
X146868476Y-107691678D01*
X146856572Y-107675293D01*
X146822506Y-107647111D01*
X146813727Y-107639122D01*
X146776622Y-107602017D01*
X146742596Y-107539705D01*
X146740407Y-107526092D01*
X146739622Y-107518618D01*
X146723042Y-107360872D01*
X146664027Y-107179244D01*
X146658254Y-107169244D01*
X146571841Y-107019574D01*
X146568540Y-107013856D01*
X146489406Y-106925968D01*
X146445175Y-106876845D01*
X146445174Y-106876844D01*
X146440753Y-106871934D01*
X146286252Y-106759682D01*
X146280224Y-106756998D01*
X146280222Y-106756997D01*
X146117819Y-106684691D01*
X146117818Y-106684691D01*
X146111788Y-106682006D01*
X146018388Y-106662153D01*
X145931444Y-106643672D01*
X145931439Y-106643672D01*
X145924987Y-106642300D01*
X145734013Y-106642300D01*
X145727561Y-106643672D01*
X145727556Y-106643672D01*
X145640612Y-106662153D01*
X145547212Y-106682006D01*
X145541182Y-106684691D01*
X145541181Y-106684691D01*
X145378778Y-106756997D01*
X145378776Y-106756998D01*
X145372748Y-106759682D01*
X145218247Y-106871934D01*
X145213826Y-106876844D01*
X145213825Y-106876845D01*
X145169595Y-106925968D01*
X145090460Y-107013856D01*
X145087159Y-107019574D01*
X145000747Y-107169244D01*
X144994973Y-107179244D01*
X144935958Y-107360872D01*
X144935269Y-107367431D01*
X144935268Y-107367434D01*
X144917529Y-107536213D01*
X144890516Y-107601869D01*
X144831365Y-107642807D01*
X144684644Y-107690763D01*
X144613682Y-107692914D01*
X144552820Y-107656358D01*
X144521383Y-107592701D01*
X144519500Y-107570998D01*
X144519500Y-103298007D01*
X144539502Y-103229886D01*
X144593158Y-103183393D01*
X144619303Y-103174761D01*
X144742522Y-103148569D01*
X144742527Y-103148567D01*
X144748988Y-103147194D01*
X144767763Y-103138835D01*
X144917422Y-103072203D01*
X144917424Y-103072202D01*
X144923452Y-103069518D01*
X145077953Y-102957266D01*
X145116280Y-102914700D01*
X145201321Y-102820252D01*
X145201322Y-102820251D01*
X145205740Y-102815344D01*
X145301227Y-102649956D01*
X145313921Y-102610888D01*
X145353995Y-102552282D01*
X145419392Y-102524646D01*
X145489349Y-102536753D01*
X145541655Y-102584760D01*
X145556862Y-102622982D01*
X145598514Y-102814017D01*
X145599687Y-102817444D01*
X145599689Y-102817450D01*
X145698294Y-103105451D01*
X145710897Y-103142261D01*
X145860263Y-103455412D01*
X145862194Y-103458491D01*
X145862195Y-103458492D01*
X145894586Y-103510127D01*
X146044632Y-103749321D01*
X146046904Y-103752157D01*
X146046909Y-103752164D01*
X146230728Y-103981607D01*
X146261559Y-104020091D01*
X146264137Y-104022642D01*
X146500457Y-104256500D01*
X146508171Y-104264134D01*
X146511029Y-104266375D01*
X146771933Y-104470949D01*
X146781198Y-104478214D01*
X146784287Y-104480107D01*
X146784290Y-104480109D01*
X146850814Y-104520875D01*
X147077021Y-104659495D01*
X147080306Y-104661020D01*
X147080310Y-104661022D01*
X147251984Y-104740710D01*
X147391720Y-104805573D01*
X147528392Y-104850773D01*
X147717678Y-104913374D01*
X147717683Y-104913375D01*
X147721123Y-104914513D01*
X147724678Y-104915249D01*
X147724681Y-104915250D01*
X148057314Y-104984135D01*
X148057317Y-104984135D01*
X148060864Y-104984870D01*
X148199321Y-104997227D01*
X148363176Y-105011851D01*
X148363182Y-105011851D01*
X148365969Y-105012100D01*
X148589532Y-105012100D01*
X148591351Y-105011995D01*
X148591355Y-105011995D01*
X148843854Y-104997436D01*
X148843859Y-104997435D01*
X148847474Y-104997227D01*
X148922488Y-104984135D01*
X149185685Y-104938200D01*
X149185692Y-104938198D01*
X149189258Y-104937576D01*
X149192733Y-104936547D01*
X149192740Y-104936545D01*
X149357707Y-104887679D01*
X149521920Y-104839037D01*
X149525259Y-104837613D01*
X149837714Y-104704340D01*
X149837717Y-104704338D01*
X149841052Y-104702916D01*
X149844199Y-104701121D01*
X149844203Y-104701119D01*
X150139284Y-104532808D01*
X150142424Y-104531017D01*
X150153646Y-104522774D01*
X150299342Y-104415749D01*
X150422040Y-104325618D01*
X150427346Y-104320688D01*
X150577416Y-104181234D01*
X150676196Y-104089442D01*
X150901522Y-103825619D01*
X151095031Y-103537647D01*
X151106319Y-103515778D01*
X151221765Y-103292105D01*
X151254160Y-103229341D01*
X151376798Y-102904789D01*
X151382756Y-102881072D01*
X151433851Y-102677651D01*
X151461320Y-102568292D01*
X151476215Y-102455152D01*
X151506132Y-102227915D01*
X151506133Y-102227907D01*
X151506606Y-102224311D01*
X151511345Y-101922655D01*
X151511999Y-101881046D01*
X151511999Y-101881042D01*
X151512056Y-101877404D01*
X151510626Y-101863070D01*
X151479976Y-101556005D01*
X151477597Y-101532169D01*
X151403686Y-101193183D01*
X151383922Y-101135455D01*
X151292476Y-100868365D01*
X151291303Y-100864939D01*
X151141937Y-100551788D01*
X150957568Y-100257879D01*
X150955296Y-100255043D01*
X150955291Y-100255036D01*
X150742913Y-99989945D01*
X150740641Y-99987109D01*
X150530090Y-99778751D01*
X150496607Y-99745617D01*
X150496606Y-99745616D01*
X150494029Y-99743066D01*
X150406281Y-99674263D01*
X150223859Y-99531226D01*
X150223857Y-99531225D01*
X150221002Y-99528986D01*
X149925179Y-99347705D01*
X149921894Y-99346180D01*
X149921890Y-99346178D01*
X149646270Y-99218240D01*
X149610480Y-99201627D01*
X149337294Y-99111279D01*
X149284522Y-99093826D01*
X149284517Y-99093825D01*
X149281077Y-99092687D01*
X149277522Y-99091951D01*
X149277519Y-99091950D01*
X148944886Y-99023065D01*
X148944883Y-99023065D01*
X148941336Y-99022330D01*
X148787047Y-99008560D01*
X148639024Y-98995349D01*
X148639018Y-98995349D01*
X148636231Y-98995100D01*
X148412668Y-98995100D01*
X148410849Y-98995205D01*
X148410845Y-98995205D01*
X148158346Y-99009764D01*
X148158341Y-99009765D01*
X148154726Y-99009973D01*
X148085769Y-99022008D01*
X147816515Y-99069000D01*
X147816508Y-99069002D01*
X147812942Y-99069624D01*
X147809467Y-99070653D01*
X147809460Y-99070655D01*
X147676237Y-99110118D01*
X147480280Y-99168163D01*
X147476944Y-99169586D01*
X147476941Y-99169587D01*
X147164486Y-99302860D01*
X147164483Y-99302862D01*
X147161148Y-99304284D01*
X147158001Y-99306079D01*
X147157997Y-99306081D01*
X147081702Y-99349599D01*
X146859776Y-99476183D01*
X146856864Y-99478322D01*
X146856861Y-99478324D01*
X146673094Y-99613315D01*
X146606352Y-99637523D01*
X146537117Y-99621805D01*
X146487371Y-99571151D01*
X146472500Y-99511768D01*
X146472500Y-99436524D01*
X146492502Y-99368403D01*
X146504858Y-99352221D01*
X146578040Y-99270944D01*
X146673527Y-99105556D01*
X146732542Y-98923928D01*
X146751116Y-98747211D01*
X146778128Y-98681555D01*
X146826386Y-98644744D01*
X146830576Y-98642931D01*
X146838193Y-98640718D01*
X146855628Y-98630407D01*
X146873376Y-98621712D01*
X146892217Y-98614252D01*
X146927987Y-98588264D01*
X146937907Y-98581748D01*
X146969135Y-98563280D01*
X146969138Y-98563278D01*
X146975962Y-98559242D01*
X146990283Y-98544921D01*
X147005317Y-98532080D01*
X147015294Y-98524831D01*
X147021707Y-98520172D01*
X147049898Y-98486095D01*
X147057888Y-98477316D01*
X149763238Y-95771966D01*
X157291257Y-95771966D01*
X157321565Y-95906446D01*
X157324645Y-95916275D01*
X157404770Y-96113603D01*
X157409413Y-96122794D01*
X157520694Y-96304388D01*
X157526777Y-96312699D01*
X157666213Y-96473667D01*
X157673580Y-96480883D01*
X157837434Y-96616916D01*
X157845881Y-96622831D01*
X158029756Y-96730279D01*
X158039042Y-96734729D01*
X158238001Y-96810703D01*
X158247899Y-96813579D01*
X158351250Y-96834606D01*
X158365299Y-96833410D01*
X158369000Y-96823065D01*
X158369000Y-95776115D01*
X158364525Y-95760876D01*
X158363135Y-95759671D01*
X158355452Y-95758000D01*
X157306225Y-95758000D01*
X157292694Y-95761973D01*
X157291257Y-95771966D01*
X149763238Y-95771966D01*
X150297021Y-95238183D01*
X157287389Y-95238183D01*
X157288912Y-95246607D01*
X157301292Y-95250000D01*
X158350885Y-95250000D01*
X158366124Y-95245525D01*
X158367329Y-95244135D01*
X158369000Y-95236452D01*
X158369000Y-94187102D01*
X158365082Y-94173758D01*
X158350806Y-94171771D01*
X158312324Y-94177660D01*
X158302288Y-94180051D01*
X158099868Y-94246212D01*
X158090359Y-94250209D01*
X157901463Y-94348542D01*
X157892738Y-94354036D01*
X157722433Y-94481905D01*
X157714726Y-94488748D01*
X157567590Y-94642717D01*
X157561104Y-94650727D01*
X157441098Y-94826649D01*
X157436000Y-94835623D01*
X157346338Y-95028783D01*
X157342775Y-95038470D01*
X157287389Y-95238183D01*
X150297021Y-95238183D01*
X153873547Y-91661657D01*
X153881837Y-91654113D01*
X153888318Y-91650000D01*
X153934959Y-91600332D01*
X153937713Y-91597491D01*
X153957435Y-91577769D01*
X153959912Y-91574576D01*
X153967617Y-91565555D01*
X153997886Y-91533321D01*
X154001707Y-91526371D01*
X154007646Y-91515568D01*
X154018502Y-91499041D01*
X154026057Y-91489302D01*
X154026058Y-91489300D01*
X154030914Y-91483040D01*
X154048474Y-91442460D01*
X154053691Y-91431812D01*
X154071175Y-91400009D01*
X154071176Y-91400007D01*
X154074995Y-91393060D01*
X154080033Y-91373437D01*
X154086437Y-91354734D01*
X154091333Y-91343420D01*
X154091333Y-91343419D01*
X154094481Y-91336145D01*
X154095720Y-91328322D01*
X154095723Y-91328312D01*
X154101399Y-91292476D01*
X154103805Y-91280856D01*
X154112828Y-91245711D01*
X154112828Y-91245710D01*
X154114800Y-91238030D01*
X154114800Y-91217776D01*
X154116351Y-91198065D01*
X154118280Y-91185886D01*
X154119520Y-91178057D01*
X154115359Y-91134038D01*
X154114800Y-91122181D01*
X154114800Y-90691966D01*
X156402257Y-90691966D01*
X156432565Y-90826446D01*
X156435645Y-90836275D01*
X156515770Y-91033603D01*
X156520413Y-91042794D01*
X156631694Y-91224388D01*
X156637777Y-91232699D01*
X156777213Y-91393667D01*
X156784580Y-91400883D01*
X156948434Y-91536916D01*
X156956881Y-91542831D01*
X157140756Y-91650279D01*
X157150042Y-91654729D01*
X157349001Y-91730703D01*
X157358899Y-91733579D01*
X157462250Y-91754606D01*
X157476299Y-91753410D01*
X157480000Y-91743065D01*
X157480000Y-90696115D01*
X157475525Y-90680876D01*
X157474135Y-90679671D01*
X157466452Y-90678000D01*
X156417225Y-90678000D01*
X156403694Y-90681973D01*
X156402257Y-90691966D01*
X154114800Y-90691966D01*
X154114800Y-88223368D01*
X154115327Y-88212185D01*
X154117002Y-88204692D01*
X154114862Y-88136587D01*
X154114800Y-88132644D01*
X154114800Y-88104744D01*
X154114296Y-88100753D01*
X154113363Y-88088911D01*
X154113319Y-88087494D01*
X154111974Y-88044711D01*
X154106321Y-88025252D01*
X154102312Y-88005893D01*
X154101407Y-87998730D01*
X154099774Y-87985803D01*
X154096858Y-87978437D01*
X154096856Y-87978431D01*
X154083500Y-87944698D01*
X154079655Y-87933468D01*
X154069530Y-87898617D01*
X154069530Y-87898616D01*
X154067319Y-87891007D01*
X154057005Y-87873566D01*
X154048308Y-87855813D01*
X154043772Y-87844358D01*
X154040852Y-87836983D01*
X154014863Y-87801212D01*
X154008347Y-87791292D01*
X154000402Y-87777858D01*
X153985842Y-87753238D01*
X153980238Y-87747633D01*
X153971520Y-87738915D01*
X153958679Y-87723881D01*
X153951431Y-87713905D01*
X153951430Y-87713904D01*
X153946772Y-87707493D01*
X153912701Y-87679307D01*
X153903922Y-87671318D01*
X153854905Y-87622301D01*
X153820879Y-87559989D01*
X153818000Y-87533206D01*
X153818000Y-86937300D01*
X153838002Y-86869179D01*
X153891658Y-86822686D01*
X153944000Y-86811300D01*
X154001887Y-86811300D01*
X154008339Y-86809928D01*
X154008344Y-86809928D01*
X154095288Y-86791447D01*
X154188688Y-86771594D01*
X154199047Y-86766982D01*
X154357122Y-86696603D01*
X154357124Y-86696602D01*
X154363152Y-86693918D01*
X154368494Y-86690037D01*
X154512309Y-86585549D01*
X154512311Y-86585547D01*
X154517653Y-86581666D01*
X154522072Y-86576758D01*
X154524621Y-86574463D01*
X154588629Y-86543746D01*
X154608931Y-86542100D01*
X156880873Y-86542100D01*
X156948994Y-86562102D01*
G37*
G04 #@! TD.AperFunction*
G04 #@! TA.AperFunction,Conductor*
G36*
X144515079Y-78927585D02*
G01*
X144560142Y-78956546D01*
X145572643Y-79969047D01*
X145580187Y-79977337D01*
X145584300Y-79983818D01*
X145590077Y-79989243D01*
X145633967Y-80030458D01*
X145636809Y-80033213D01*
X145656531Y-80052935D01*
X145659655Y-80055358D01*
X145659659Y-80055362D01*
X145659724Y-80055412D01*
X145668745Y-80063117D01*
X145700979Y-80093386D01*
X145707927Y-80097205D01*
X145707929Y-80097207D01*
X145718732Y-80103146D01*
X145735259Y-80114002D01*
X145744998Y-80121557D01*
X145745000Y-80121558D01*
X145751260Y-80126414D01*
X145791840Y-80143974D01*
X145802488Y-80149191D01*
X145826834Y-80162575D01*
X145841240Y-80170495D01*
X145848916Y-80172466D01*
X145848919Y-80172467D01*
X145860862Y-80175533D01*
X145879567Y-80181937D01*
X145898155Y-80189981D01*
X145905978Y-80191220D01*
X145905988Y-80191223D01*
X145941824Y-80196899D01*
X145953444Y-80199305D01*
X145988589Y-80208328D01*
X145996270Y-80210300D01*
X146016524Y-80210300D01*
X146036234Y-80211851D01*
X146056243Y-80215020D01*
X146064135Y-80214274D01*
X146100261Y-80210859D01*
X146112119Y-80210300D01*
X146208431Y-80210300D01*
X146276552Y-80230302D01*
X146323045Y-80283958D01*
X146333741Y-80323130D01*
X146343669Y-80417586D01*
X146346658Y-80446028D01*
X146405673Y-80627656D01*
X146408976Y-80633378D01*
X146408977Y-80633379D01*
X146432531Y-80674175D01*
X146501160Y-80793044D01*
X146505578Y-80797951D01*
X146505579Y-80797952D01*
X146578209Y-80878616D01*
X146628947Y-80934966D01*
X146783448Y-81047218D01*
X146789476Y-81049902D01*
X146789478Y-81049903D01*
X146841333Y-81072990D01*
X146957912Y-81124894D01*
X147051312Y-81144747D01*
X147138256Y-81163228D01*
X147138261Y-81163228D01*
X147144713Y-81164600D01*
X147200606Y-81164600D01*
X147268727Y-81184602D01*
X147289701Y-81201505D01*
X147328243Y-81240047D01*
X147335787Y-81248337D01*
X147339900Y-81254818D01*
X147345677Y-81260243D01*
X147389567Y-81301458D01*
X147392409Y-81304213D01*
X147412130Y-81323934D01*
X147415325Y-81326412D01*
X147424347Y-81334118D01*
X147456579Y-81364386D01*
X147463528Y-81368206D01*
X147474332Y-81374146D01*
X147490856Y-81384999D01*
X147506859Y-81397413D01*
X147547443Y-81414976D01*
X147558073Y-81420183D01*
X147596840Y-81441495D01*
X147604517Y-81443466D01*
X147604522Y-81443468D01*
X147616458Y-81446532D01*
X147635166Y-81452937D01*
X147653755Y-81460981D01*
X147661583Y-81462221D01*
X147661590Y-81462223D01*
X147697424Y-81467899D01*
X147709044Y-81470305D01*
X147744189Y-81479328D01*
X147751870Y-81481300D01*
X147772124Y-81481300D01*
X147791834Y-81482851D01*
X147811843Y-81486020D01*
X147819735Y-81485274D01*
X147855861Y-81481859D01*
X147867719Y-81481300D01*
X151387950Y-81481300D01*
X151456071Y-81501302D01*
X151468432Y-81510354D01*
X151618126Y-81634632D01*
X151650607Y-81653612D01*
X151691955Y-81677774D01*
X151740679Y-81729412D01*
X151753750Y-81799195D01*
X151727019Y-81864967D01*
X151686562Y-81898327D01*
X151678457Y-81902546D01*
X151669738Y-81908036D01*
X151499433Y-82035905D01*
X151491726Y-82042748D01*
X151344590Y-82196717D01*
X151338104Y-82204727D01*
X151218098Y-82380649D01*
X151213000Y-82389623D01*
X151123338Y-82582783D01*
X151119775Y-82592470D01*
X151064389Y-82792183D01*
X151065912Y-82800607D01*
X151078292Y-82804000D01*
X152528000Y-82804000D01*
X152596121Y-82824002D01*
X152642614Y-82877658D01*
X152654000Y-82930000D01*
X152654000Y-84376517D01*
X152658064Y-84390359D01*
X152671478Y-84392393D01*
X152678184Y-84391534D01*
X152688266Y-84389391D01*
X152825593Y-84348191D01*
X152896588Y-84347775D01*
X152956538Y-84385807D01*
X152986410Y-84450214D01*
X152987800Y-84468877D01*
X152987800Y-84912705D01*
X152967798Y-84980826D01*
X152950895Y-85001800D01*
X152792247Y-85160448D01*
X152783961Y-85167988D01*
X152777482Y-85172100D01*
X152772057Y-85177877D01*
X152730857Y-85221751D01*
X152728102Y-85224593D01*
X152708365Y-85244330D01*
X152705885Y-85247527D01*
X152698182Y-85256547D01*
X152667914Y-85288779D01*
X152664095Y-85295725D01*
X152664093Y-85295728D01*
X152658152Y-85306534D01*
X152647301Y-85323053D01*
X152634886Y-85339059D01*
X152631741Y-85346328D01*
X152631738Y-85346332D01*
X152617326Y-85379637D01*
X152612109Y-85390287D01*
X152590805Y-85429040D01*
X152588834Y-85436715D01*
X152588834Y-85436716D01*
X152585767Y-85448662D01*
X152579363Y-85467366D01*
X152571319Y-85485955D01*
X152570080Y-85493778D01*
X152570077Y-85493788D01*
X152564401Y-85529624D01*
X152561995Y-85541244D01*
X152556063Y-85564351D01*
X152551000Y-85584070D01*
X152551000Y-85604324D01*
X152549449Y-85624034D01*
X152546280Y-85644043D01*
X152547026Y-85651935D01*
X152550441Y-85688061D01*
X152551000Y-85699919D01*
X152551000Y-87769033D01*
X152550473Y-87780216D01*
X152548798Y-87787709D01*
X152549047Y-87795635D01*
X152549047Y-87795636D01*
X152550938Y-87855786D01*
X152551000Y-87859745D01*
X152551000Y-87887656D01*
X152551497Y-87891590D01*
X152551497Y-87891591D01*
X152551505Y-87891656D01*
X152552438Y-87903493D01*
X152553827Y-87947689D01*
X152559478Y-87967139D01*
X152563487Y-87986500D01*
X152566026Y-88006597D01*
X152568945Y-88013968D01*
X152568945Y-88013970D01*
X152582304Y-88047712D01*
X152586149Y-88058942D01*
X152590441Y-88073715D01*
X152598482Y-88101393D01*
X152602515Y-88108212D01*
X152602517Y-88108217D01*
X152608793Y-88118828D01*
X152617488Y-88136576D01*
X152624948Y-88155417D01*
X152629610Y-88161833D01*
X152629610Y-88161834D01*
X152650936Y-88191187D01*
X152657452Y-88201107D01*
X152679958Y-88239162D01*
X152694279Y-88253483D01*
X152707119Y-88268516D01*
X152719028Y-88284907D01*
X152725134Y-88289958D01*
X152753105Y-88313098D01*
X152761884Y-88321088D01*
X152810895Y-88370099D01*
X152844921Y-88432411D01*
X152847800Y-88459194D01*
X152847800Y-89279122D01*
X152827798Y-89347243D01*
X152774142Y-89393736D01*
X152703868Y-89403840D01*
X152689189Y-89400829D01*
X152633402Y-89385881D01*
X152633400Y-89385881D01*
X152628087Y-89384457D01*
X152400000Y-89364502D01*
X152171913Y-89384457D01*
X152166600Y-89385881D01*
X152166598Y-89385881D01*
X151956067Y-89442293D01*
X151956065Y-89442294D01*
X151950757Y-89443716D01*
X151945776Y-89446039D01*
X151945775Y-89446039D01*
X151748238Y-89538151D01*
X151748233Y-89538154D01*
X151743251Y-89540477D01*
X151655800Y-89601711D01*
X151560211Y-89668643D01*
X151560208Y-89668645D01*
X151555700Y-89671802D01*
X151393802Y-89833700D01*
X151390645Y-89838208D01*
X151390643Y-89838211D01*
X151375316Y-89860100D01*
X151262477Y-90021251D01*
X151260154Y-90026233D01*
X151260151Y-90026238D01*
X151244195Y-90060457D01*
X151197278Y-90113742D01*
X151129001Y-90133203D01*
X151061041Y-90112661D01*
X151015805Y-90060457D01*
X150999849Y-90026238D01*
X150999846Y-90026233D01*
X150997523Y-90021251D01*
X150884684Y-89860100D01*
X150869357Y-89838211D01*
X150869355Y-89838208D01*
X150866198Y-89833700D01*
X150704300Y-89671802D01*
X150699792Y-89668645D01*
X150699789Y-89668643D01*
X150604200Y-89601711D01*
X150516749Y-89540477D01*
X150511767Y-89538154D01*
X150511762Y-89538151D01*
X150314225Y-89446039D01*
X150314224Y-89446039D01*
X150309243Y-89443716D01*
X150303935Y-89442294D01*
X150303933Y-89442293D01*
X150093402Y-89385881D01*
X150093400Y-89385881D01*
X150088087Y-89384457D01*
X149860000Y-89364502D01*
X149631913Y-89384457D01*
X149626600Y-89385881D01*
X149626598Y-89385881D01*
X149416067Y-89442293D01*
X149416065Y-89442294D01*
X149410757Y-89443716D01*
X149405776Y-89446039D01*
X149405775Y-89446039D01*
X149208238Y-89538151D01*
X149208233Y-89538154D01*
X149203251Y-89540477D01*
X149115800Y-89601711D01*
X149020211Y-89668643D01*
X149020208Y-89668645D01*
X149015700Y-89671802D01*
X148853802Y-89833700D01*
X148850645Y-89838208D01*
X148850643Y-89838211D01*
X148835316Y-89860100D01*
X148722477Y-90021251D01*
X148720154Y-90026233D01*
X148720151Y-90026238D01*
X148704195Y-90060457D01*
X148657278Y-90113742D01*
X148589001Y-90133203D01*
X148521041Y-90112661D01*
X148475805Y-90060457D01*
X148459849Y-90026238D01*
X148459846Y-90026233D01*
X148457523Y-90021251D01*
X148344684Y-89860100D01*
X148329357Y-89838211D01*
X148329355Y-89838208D01*
X148326198Y-89833700D01*
X148164300Y-89671802D01*
X148159792Y-89668645D01*
X148159789Y-89668643D01*
X148064200Y-89601711D01*
X147976749Y-89540477D01*
X147971767Y-89538154D01*
X147971762Y-89538151D01*
X147774225Y-89446039D01*
X147774224Y-89446039D01*
X147769243Y-89443716D01*
X147763935Y-89442294D01*
X147763933Y-89442293D01*
X147553402Y-89385881D01*
X147553400Y-89385881D01*
X147548087Y-89384457D01*
X147320000Y-89364502D01*
X147091913Y-89384457D01*
X147086600Y-89385881D01*
X147086598Y-89385881D01*
X146876067Y-89442293D01*
X146876065Y-89442294D01*
X146870757Y-89443716D01*
X146865776Y-89446039D01*
X146865775Y-89446039D01*
X146668238Y-89538151D01*
X146668233Y-89538154D01*
X146663251Y-89540477D01*
X146575800Y-89601711D01*
X146480211Y-89668643D01*
X146480208Y-89668645D01*
X146475700Y-89671802D01*
X146313802Y-89833700D01*
X146310645Y-89838208D01*
X146310643Y-89838211D01*
X146295316Y-89860100D01*
X146182477Y-90021251D01*
X146180154Y-90026233D01*
X146180151Y-90026238D01*
X146164195Y-90060457D01*
X146117278Y-90113742D01*
X146049001Y-90133203D01*
X145981041Y-90112661D01*
X145935805Y-90060457D01*
X145919849Y-90026238D01*
X145919846Y-90026233D01*
X145917523Y-90021251D01*
X145804684Y-89860100D01*
X145789357Y-89838211D01*
X145789355Y-89838208D01*
X145786198Y-89833700D01*
X145624300Y-89671802D01*
X145619792Y-89668645D01*
X145619789Y-89668643D01*
X145524200Y-89601711D01*
X145436749Y-89540477D01*
X145431767Y-89538154D01*
X145431762Y-89538151D01*
X145234225Y-89446039D01*
X145234224Y-89446039D01*
X145229243Y-89443716D01*
X145223935Y-89442294D01*
X145223933Y-89442293D01*
X145013402Y-89385881D01*
X145013400Y-89385881D01*
X145008087Y-89384457D01*
X144780000Y-89364502D01*
X144551913Y-89384457D01*
X144546600Y-89385881D01*
X144546598Y-89385881D01*
X144336067Y-89442293D01*
X144336065Y-89442294D01*
X144330757Y-89443716D01*
X144325776Y-89446039D01*
X144325775Y-89446039D01*
X144128238Y-89538151D01*
X144128233Y-89538154D01*
X144123251Y-89540477D01*
X144035800Y-89601711D01*
X143940211Y-89668643D01*
X143940208Y-89668645D01*
X143935700Y-89671802D01*
X143773802Y-89833700D01*
X143770645Y-89838208D01*
X143770643Y-89838211D01*
X143755316Y-89860100D01*
X143642477Y-90021251D01*
X143640154Y-90026233D01*
X143640151Y-90026238D01*
X143624195Y-90060457D01*
X143577278Y-90113742D01*
X143509001Y-90133203D01*
X143441041Y-90112661D01*
X143395805Y-90060457D01*
X143379849Y-90026238D01*
X143379846Y-90026233D01*
X143377523Y-90021251D01*
X143264684Y-89860100D01*
X143249357Y-89838211D01*
X143249355Y-89838208D01*
X143246198Y-89833700D01*
X143084300Y-89671802D01*
X143079792Y-89668645D01*
X143079789Y-89668643D01*
X142984200Y-89601711D01*
X142896749Y-89540477D01*
X142891767Y-89538154D01*
X142891762Y-89538151D01*
X142694225Y-89446039D01*
X142694224Y-89446039D01*
X142689243Y-89443716D01*
X142683935Y-89442294D01*
X142683933Y-89442293D01*
X142473402Y-89385881D01*
X142473400Y-89385881D01*
X142468087Y-89384457D01*
X142240000Y-89364502D01*
X142011913Y-89384457D01*
X142006600Y-89385881D01*
X142006598Y-89385881D01*
X141796067Y-89442293D01*
X141796065Y-89442294D01*
X141790757Y-89443716D01*
X141785776Y-89446039D01*
X141785775Y-89446039D01*
X141598550Y-89533343D01*
X141528358Y-89544004D01*
X141463545Y-89515024D01*
X141424689Y-89455604D01*
X141419300Y-89419148D01*
X141419300Y-83981294D01*
X141439302Y-83913173D01*
X141492958Y-83866680D01*
X141563232Y-83856576D01*
X141627812Y-83886070D01*
X141634394Y-83892198D01*
X142922895Y-85180700D01*
X144210448Y-86468253D01*
X144217988Y-86476539D01*
X144222100Y-86483018D01*
X144227877Y-86488443D01*
X144271751Y-86529643D01*
X144274593Y-86532398D01*
X144294330Y-86552135D01*
X144297527Y-86554615D01*
X144306547Y-86562318D01*
X144338779Y-86592586D01*
X144345725Y-86596405D01*
X144345728Y-86596407D01*
X144356534Y-86602348D01*
X144373053Y-86613199D01*
X144389059Y-86625614D01*
X144396328Y-86628759D01*
X144396332Y-86628762D01*
X144429637Y-86643174D01*
X144440287Y-86648391D01*
X144479040Y-86669695D01*
X144486715Y-86671666D01*
X144486716Y-86671666D01*
X144498662Y-86674733D01*
X144517367Y-86681137D01*
X144535955Y-86689181D01*
X144543778Y-86690420D01*
X144543788Y-86690423D01*
X144579624Y-86696099D01*
X144591244Y-86698505D01*
X144626389Y-86707528D01*
X144634070Y-86709500D01*
X144654324Y-86709500D01*
X144674034Y-86711051D01*
X144694043Y-86714220D01*
X144701935Y-86713474D01*
X144738061Y-86710059D01*
X144749919Y-86709500D01*
X150434500Y-86709500D01*
X150502621Y-86729502D01*
X150521847Y-86745843D01*
X150522120Y-86745540D01*
X150527032Y-86749963D01*
X150531447Y-86754866D01*
X150685948Y-86867118D01*
X150691976Y-86869802D01*
X150691978Y-86869803D01*
X150723524Y-86883848D01*
X150860412Y-86944794D01*
X150953812Y-86964647D01*
X151040756Y-86983128D01*
X151040761Y-86983128D01*
X151047213Y-86984500D01*
X151238187Y-86984500D01*
X151244639Y-86983128D01*
X151244644Y-86983128D01*
X151331588Y-86964647D01*
X151424988Y-86944794D01*
X151561876Y-86883848D01*
X151593422Y-86869803D01*
X151593424Y-86869802D01*
X151599452Y-86867118D01*
X151753953Y-86754866D01*
X151790551Y-86714220D01*
X151877321Y-86617852D01*
X151877322Y-86617851D01*
X151881740Y-86612944D01*
X151977227Y-86447556D01*
X152036242Y-86265928D01*
X152042385Y-86207486D01*
X152055514Y-86082565D01*
X152056204Y-86076000D01*
X152046812Y-85986643D01*
X152036932Y-85892635D01*
X152036932Y-85892633D01*
X152036242Y-85886072D01*
X151977227Y-85704444D01*
X151881740Y-85539056D01*
X151873248Y-85529624D01*
X151758375Y-85402045D01*
X151758374Y-85402044D01*
X151753953Y-85397134D01*
X151599452Y-85284882D01*
X151593424Y-85282198D01*
X151593422Y-85282197D01*
X151431019Y-85209891D01*
X151431018Y-85209891D01*
X151424988Y-85207206D01*
X151418533Y-85205834D01*
X151418530Y-85205833D01*
X151387425Y-85199222D01*
X151361022Y-85193610D01*
X151298549Y-85159882D01*
X151264228Y-85097733D01*
X151268955Y-85026894D01*
X151313156Y-84968428D01*
X151337053Y-84951066D01*
X151363838Y-84921318D01*
X151460421Y-84814052D01*
X151460422Y-84814051D01*
X151464840Y-84809144D01*
X151542072Y-84675375D01*
X151557023Y-84649479D01*
X151557024Y-84649478D01*
X151560327Y-84643756D01*
X151619342Y-84462128D01*
X151627453Y-84384955D01*
X151654466Y-84319298D01*
X151712688Y-84278668D01*
X151783633Y-84275965D01*
X151807209Y-84284496D01*
X151816043Y-84288729D01*
X152015001Y-84364703D01*
X152024899Y-84367579D01*
X152128250Y-84388606D01*
X152142299Y-84387410D01*
X152146000Y-84377065D01*
X152146000Y-83330115D01*
X152141525Y-83314876D01*
X152140135Y-83313671D01*
X152132452Y-83312000D01*
X151083225Y-83312000D01*
X151067986Y-83316475D01*
X151047459Y-83340164D01*
X151045358Y-83344767D01*
X150985638Y-83383160D01*
X150923924Y-83385516D01*
X150827744Y-83365072D01*
X150827739Y-83365072D01*
X150821287Y-83363700D01*
X150630313Y-83363700D01*
X150623861Y-83365072D01*
X150623856Y-83365072D01*
X150538761Y-83383160D01*
X150443512Y-83403406D01*
X150437482Y-83406091D01*
X150437481Y-83406091D01*
X150275078Y-83478397D01*
X150275076Y-83478398D01*
X150269048Y-83481082D01*
X150263707Y-83484962D01*
X150263706Y-83484963D01*
X150176005Y-83548682D01*
X150114547Y-83593334D01*
X150110132Y-83598237D01*
X150105220Y-83602660D01*
X150104095Y-83601411D01*
X150050786Y-83634251D01*
X150017600Y-83638700D01*
X148576695Y-83638700D01*
X148508574Y-83618698D01*
X148487600Y-83601795D01*
X144175634Y-79289829D01*
X144141608Y-79227517D01*
X144146673Y-79156702D01*
X144192458Y-79097521D01*
X144193517Y-79096780D01*
X144330800Y-79000653D01*
X144349789Y-78987357D01*
X144349792Y-78987355D01*
X144354300Y-78984198D01*
X144381952Y-78956546D01*
X144444264Y-78922520D01*
X144515079Y-78927585D01*
G37*
G04 #@! TD.AperFunction*
G04 #@! TA.AperFunction,Conductor*
G36*
X139870121Y-66187002D02*
G01*
X139916614Y-66240658D01*
X139928000Y-66293000D01*
X139928000Y-67760884D01*
X139932475Y-67776123D01*
X139933865Y-67777328D01*
X139941548Y-67778999D01*
X140568669Y-67778999D01*
X140575490Y-67778629D01*
X140626352Y-67773105D01*
X140641604Y-67769479D01*
X140762054Y-67724324D01*
X140777649Y-67715786D01*
X140879724Y-67639285D01*
X140892285Y-67626724D01*
X140968786Y-67524649D01*
X140977324Y-67509054D01*
X141018225Y-67399952D01*
X141060867Y-67343188D01*
X141127428Y-67318488D01*
X141196777Y-67333696D01*
X141231444Y-67361684D01*
X141256865Y-67391031D01*
X141256869Y-67391035D01*
X141260250Y-67394938D01*
X141432126Y-67537632D01*
X141625000Y-67650338D01*
X141629825Y-67652180D01*
X141629826Y-67652181D01*
X141699833Y-67678914D01*
X141833692Y-67730030D01*
X141838760Y-67731061D01*
X141838763Y-67731062D01*
X141901211Y-67743767D01*
X142052597Y-67774567D01*
X142057772Y-67774757D01*
X142057774Y-67774757D01*
X142270673Y-67782564D01*
X142270677Y-67782564D01*
X142275837Y-67782753D01*
X142280957Y-67782097D01*
X142280959Y-67782097D01*
X142492288Y-67755025D01*
X142492289Y-67755025D01*
X142497416Y-67754368D01*
X142548743Y-67738969D01*
X142619739Y-67738552D01*
X142679689Y-67776585D01*
X142709561Y-67840991D01*
X142699870Y-67911323D01*
X142674046Y-67948750D01*
X136844795Y-73778000D01*
X136782483Y-73812026D01*
X136711668Y-73806961D01*
X136654832Y-73764414D01*
X136630021Y-73697894D01*
X136629700Y-73688905D01*
X136629700Y-68296894D01*
X136649702Y-68228773D01*
X136666605Y-68207799D01*
X138100906Y-66773498D01*
X138163218Y-66739472D01*
X138234033Y-66744537D01*
X138290869Y-66787084D01*
X138315680Y-66853604D01*
X138316001Y-66862593D01*
X138316001Y-67315669D01*
X138316371Y-67322490D01*
X138321895Y-67373352D01*
X138325521Y-67388604D01*
X138370676Y-67509054D01*
X138379214Y-67524649D01*
X138455715Y-67626724D01*
X138468276Y-67639285D01*
X138570351Y-67715786D01*
X138585946Y-67724324D01*
X138706394Y-67769478D01*
X138721649Y-67773105D01*
X138772514Y-67778631D01*
X138779328Y-67779000D01*
X139401885Y-67779000D01*
X139417124Y-67774525D01*
X139418329Y-67773135D01*
X139420000Y-67765452D01*
X139420000Y-66293000D01*
X139440002Y-66224879D01*
X139493658Y-66178386D01*
X139546000Y-66167000D01*
X139802000Y-66167000D01*
X139870121Y-66187002D01*
G37*
G04 #@! TD.AperFunction*
M02*
