G04 #@! TF.GenerationSoftware,KiCad,Pcbnew,9.0.1*
G04 #@! TF.CreationDate,2025-11-08T15:47:49+01:00*
G04 #@! TF.ProjectId,tcbm2sd,7463626d-3273-4642-9e6b-696361645f70,1.4*
G04 #@! TF.SameCoordinates,Original*
G04 #@! TF.FileFunction,Copper,L2,Bot*
G04 #@! TF.FilePolarity,Positive*
%FSLAX46Y46*%
G04 Gerber Fmt 4.6, Leading zero omitted, Abs format (unit mm)*
G04 Created by KiCad (PCBNEW 9.0.1) date 2025-11-08 15:47:49*
%MOMM*%
%LPD*%
G01*
G04 APERTURE LIST*
G04 Aperture macros list*
%AMRoundRect*
0 Rectangle with rounded corners*
0 $1 Rounding radius*
0 $2 $3 $4 $5 $6 $7 $8 $9 X,Y pos of 4 corners*
0 Add a 4 corners polygon primitive as box body*
4,1,4,$2,$3,$4,$5,$6,$7,$8,$9,$2,$3,0*
0 Add four circle primitives for the rounded corners*
1,1,$1+$1,$2,$3*
1,1,$1+$1,$4,$5*
1,1,$1+$1,$6,$7*
1,1,$1+$1,$8,$9*
0 Add four rect primitives between the rounded corners*
20,1,$1+$1,$2,$3,$4,$5,0*
20,1,$1+$1,$4,$5,$6,$7,0*
20,1,$1+$1,$6,$7,$8,$9,0*
20,1,$1+$1,$8,$9,$2,$3,0*%
G04 Aperture macros list end*
G04 #@! TA.AperFunction,ComponentPad*
%ADD10C,2.100000*%
G04 #@! TD*
G04 #@! TA.AperFunction,ComponentPad*
%ADD11C,2.000000*%
G04 #@! TD*
G04 #@! TA.AperFunction,ComponentPad*
%ADD12R,1.700000X1.700000*%
G04 #@! TD*
G04 #@! TA.AperFunction,ComponentPad*
%ADD13C,1.700000*%
G04 #@! TD*
G04 #@! TA.AperFunction,ComponentPad*
%ADD14R,1.600000X1.600000*%
G04 #@! TD*
G04 #@! TA.AperFunction,ComponentPad*
%ADD15O,1.600000X1.600000*%
G04 #@! TD*
G04 #@! TA.AperFunction,ComponentPad*
%ADD16RoundRect,0.250000X-0.550000X-0.550000X0.550000X-0.550000X0.550000X0.550000X-0.550000X0.550000X0*%
G04 #@! TD*
G04 #@! TA.AperFunction,ComponentPad*
%ADD17C,1.600000*%
G04 #@! TD*
G04 #@! TA.AperFunction,SMDPad,CuDef*
%ADD18RoundRect,0.112500X-0.337500X-4.512500X0.337500X-4.512500X0.337500X4.512500X-0.337500X4.512500X0*%
G04 #@! TD*
G04 #@! TA.AperFunction,ViaPad*
%ADD19C,0.800000*%
G04 #@! TD*
G04 #@! TA.AperFunction,Conductor*
%ADD20C,0.250000*%
G04 #@! TD*
G04 #@! TA.AperFunction,Conductor*
%ADD21C,0.400000*%
G04 #@! TD*
G04 APERTURE END LIST*
D10*
X173512600Y-64978300D03*
X166502600Y-64978300D03*
D11*
X167752600Y-62488300D03*
X167752600Y-68988300D03*
X172252600Y-62488300D03*
X172252600Y-68988300D03*
D12*
X124348000Y-133351300D03*
D13*
X126888000Y-133351300D03*
X129428000Y-133351300D03*
D10*
X132110600Y-64978300D03*
X125100600Y-64978300D03*
D11*
X126350600Y-62488300D03*
X126350600Y-68988300D03*
X130850600Y-62488300D03*
X130850600Y-68988300D03*
D12*
X171323000Y-95504000D03*
D13*
X168783000Y-95504000D03*
X166243000Y-95504000D03*
X163703000Y-95504000D03*
X161163000Y-95504000D03*
X158623000Y-95504000D03*
D14*
X124460000Y-90678000D03*
D15*
X127000000Y-90678000D03*
X129540000Y-90678000D03*
X152400000Y-75438000D03*
X132080000Y-90678000D03*
X149860000Y-75438000D03*
X134620000Y-90678000D03*
X147320000Y-75438000D03*
X137160000Y-90678000D03*
X144780000Y-75438000D03*
X139700000Y-90678000D03*
X142240000Y-75438000D03*
X142240000Y-90678000D03*
X139700000Y-75438000D03*
X144780000Y-90678000D03*
X137160000Y-75438000D03*
X147320000Y-90678000D03*
X134620000Y-75438000D03*
X149860000Y-90678000D03*
X132080000Y-75438000D03*
X152400000Y-90678000D03*
X129540000Y-75438000D03*
X127000000Y-75438000D03*
X124460000Y-75438000D03*
X133350000Y-77978000D03*
X135890000Y-77978000D03*
X143510000Y-77978000D03*
X146050000Y-77978000D03*
D12*
X152400000Y-77978000D03*
D13*
X152400000Y-80518000D03*
X152400000Y-83058000D03*
D12*
X157734000Y-77724000D03*
D13*
X157734000Y-80264000D03*
X157734000Y-82804000D03*
X157734000Y-85344000D03*
X157734000Y-87884000D03*
X157734000Y-90424000D03*
D12*
X139674000Y-66421000D03*
D13*
X139674000Y-63881000D03*
X142214000Y-66421000D03*
X142214000Y-63881000D03*
X144754000Y-66421000D03*
X144754000Y-63881000D03*
X147294000Y-66421000D03*
X147294000Y-63881000D03*
X149834000Y-66421000D03*
X149834000Y-63881000D03*
X152374000Y-66421000D03*
X152374000Y-63881000D03*
X154914000Y-66421000D03*
X154914000Y-63881000D03*
X157454000Y-66421000D03*
X157454000Y-63881000D03*
D16*
X158623000Y-101219000D03*
D17*
X158623000Y-103759000D03*
X158623000Y-106299000D03*
X158623000Y-108839000D03*
X158623000Y-111379000D03*
X158623000Y-113919000D03*
X158623000Y-116459000D03*
X158623000Y-118999000D03*
X158623000Y-121539000D03*
X158623000Y-124079000D03*
X158623000Y-126619000D03*
X158623000Y-129159000D03*
X158623000Y-131699000D03*
X158623000Y-134239000D03*
X173863000Y-134239000D03*
X173863000Y-131699000D03*
X173863000Y-129159000D03*
X173863000Y-126619000D03*
X173863000Y-124079000D03*
X173863000Y-121539000D03*
X173863000Y-118999000D03*
X173863000Y-116459000D03*
X173863000Y-113919000D03*
X173863000Y-111379000D03*
X173863000Y-108839000D03*
X173863000Y-106299000D03*
X173863000Y-103759000D03*
X173863000Y-101219000D03*
D18*
X124501100Y-145503600D03*
X168501100Y-145503600D03*
X126501100Y-145503600D03*
X170501100Y-145503600D03*
X128501100Y-145503600D03*
X172501100Y-145503600D03*
X130501100Y-145503600D03*
X132501100Y-145503600D03*
X134501100Y-145503600D03*
X136501100Y-145503600D03*
X138501100Y-145503600D03*
X140501100Y-145503600D03*
X142501100Y-145503600D03*
X144501100Y-145503600D03*
X146501100Y-145503600D03*
X148501100Y-145503600D03*
X150501100Y-145503600D03*
X152501100Y-145503600D03*
X154501100Y-145503600D03*
X156501100Y-145503600D03*
X158501100Y-145503600D03*
X160501100Y-145503600D03*
X162501100Y-145503600D03*
X164501100Y-145503600D03*
X166501100Y-145503600D03*
D19*
X134571101Y-67388101D03*
X134696200Y-82067400D03*
X137366323Y-93164637D03*
X145755600Y-126133500D03*
X138934898Y-138443115D03*
X142089000Y-124031800D03*
X145286000Y-131780200D03*
X156969700Y-119549400D03*
X151190100Y-136344400D03*
X149674000Y-133380200D03*
X156565600Y-112168600D03*
X156606100Y-124649800D03*
X148368600Y-135062400D03*
X152889700Y-120443100D03*
X149685200Y-140043400D03*
X141994600Y-132828600D03*
X140962900Y-125332900D03*
X149979700Y-115277400D03*
X140221700Y-139366200D03*
X150376500Y-132716700D03*
X151338400Y-140292900D03*
X143858600Y-133006800D03*
X155174400Y-120169000D03*
X150317600Y-135449700D03*
X155987300Y-119416200D03*
X145599100Y-130334800D03*
X151942500Y-128129200D03*
X156767200Y-137498100D03*
X146275100Y-131580200D03*
X147374300Y-139259400D03*
X157384000Y-122730700D03*
X145771300Y-127093600D03*
X167234800Y-118281400D03*
X145050000Y-128948100D03*
X155055900Y-121421900D03*
X138084300Y-126717700D03*
X169008100Y-104597200D03*
X136812200Y-129979000D03*
X150676500Y-129501400D03*
X173523700Y-144853600D03*
X174877000Y-73280600D03*
X136707700Y-116588000D03*
X154723200Y-133855600D03*
X163022000Y-89352700D03*
X174842400Y-92844000D03*
X148509200Y-130173400D03*
X143792200Y-123020000D03*
X165878800Y-137481400D03*
X146663500Y-133392300D03*
X145128000Y-121640100D03*
X127845300Y-138018000D03*
X148221900Y-120473300D03*
X128128100Y-123116000D03*
X124811800Y-100516700D03*
X138065100Y-117943800D03*
X123467200Y-144656000D03*
X167525300Y-92889200D03*
X154234800Y-109334400D03*
X151341200Y-117284600D03*
X131985500Y-140016200D03*
X131368900Y-133036600D03*
X163431100Y-138098600D03*
X156694700Y-127015000D03*
X160725800Y-133435500D03*
X162359600Y-138187100D03*
X160698400Y-139367700D03*
X158490100Y-136775000D03*
X164924400Y-137446700D03*
X159513800Y-139280900D03*
X155801700Y-136059100D03*
X157239400Y-140330600D03*
X154509600Y-137213700D03*
X164927500Y-136420500D03*
X164934500Y-135466100D03*
X152265400Y-135671800D03*
X159087000Y-135663800D03*
X164279200Y-134771000D03*
X146589000Y-137541400D03*
X162620100Y-135301500D03*
X146004400Y-128907600D03*
X153675100Y-139314100D03*
X148365300Y-139314100D03*
X124996400Y-131735800D03*
X128722700Y-131539000D03*
X127324400Y-100937300D03*
X128347200Y-104775000D03*
X126902400Y-105175600D03*
X135929000Y-117260700D03*
X138050400Y-119354000D03*
X128697600Y-84481400D03*
X139027600Y-119170800D03*
X136858300Y-73536800D03*
X134973000Y-93588658D03*
X141541700Y-121012400D03*
X141299300Y-108023900D03*
X136121200Y-81313500D03*
X139998300Y-118898500D03*
X138465900Y-70631000D03*
X140678100Y-118214100D03*
X142505900Y-79759900D03*
X141160200Y-114399100D03*
X145664100Y-73016900D03*
X142213600Y-115971000D03*
X144242800Y-112846600D03*
X148881300Y-97426800D03*
X144103800Y-115661300D03*
X150590700Y-86941500D03*
X137432300Y-82461900D03*
X144901100Y-102491200D03*
X144279700Y-68550400D03*
X144374200Y-93702000D03*
X145887300Y-108626200D03*
X138765700Y-79848600D03*
X140110300Y-87901700D03*
X140479700Y-81958900D03*
X150166800Y-70488800D03*
X155837300Y-108555700D03*
X136292000Y-123539900D03*
X139586300Y-124116800D03*
X128636100Y-96735400D03*
X170000100Y-74558100D03*
X135844300Y-130086600D03*
X130077700Y-81664100D03*
X158431000Y-75348300D03*
X152911400Y-116057800D03*
X149359400Y-123608700D03*
X160518900Y-118436900D03*
X152756700Y-126556300D03*
X150034300Y-122933800D03*
X157508400Y-114781100D03*
X145200300Y-113924500D03*
X148259800Y-111128700D03*
X132902000Y-133495500D03*
X148645600Y-131182100D03*
X145965741Y-140030059D03*
X130553900Y-134285300D03*
X137349900Y-121767900D03*
X130930800Y-131184100D03*
X128347200Y-100711000D03*
X155066400Y-76826600D03*
X163371700Y-82832700D03*
X150156500Y-77785200D03*
X163245200Y-83967100D03*
X149744400Y-82389700D03*
X162778600Y-86152900D03*
X148071100Y-78674900D03*
X138980000Y-135328100D03*
X148242100Y-123914700D03*
X137183300Y-139000000D03*
X147297400Y-122525100D03*
X147312800Y-121397300D03*
X137282100Y-137747600D03*
X146011700Y-123354300D03*
X139928300Y-130349000D03*
X128241400Y-140220900D03*
X138575600Y-132250700D03*
X151375600Y-119343600D03*
X135150736Y-80384519D03*
X167099500Y-72501900D03*
X160982900Y-73621200D03*
X168231600Y-114039400D03*
X149815600Y-117720900D03*
X126055300Y-96193600D03*
X125844700Y-100970700D03*
D20*
X134571101Y-68705099D02*
X134571101Y-67388101D01*
X131001600Y-72274600D02*
X134571101Y-68705099D01*
X131001600Y-77194786D02*
X131001600Y-72274600D01*
X134696200Y-80889386D02*
X131001600Y-77194786D01*
X134696200Y-82067400D02*
X134696200Y-80889386D01*
X133350000Y-77978000D02*
X134149999Y-78777999D01*
X134149999Y-79383782D02*
X135150736Y-80384519D01*
X137894300Y-70631000D02*
X138465900Y-70631000D01*
X133540700Y-74984600D02*
X137894300Y-70631000D01*
X134149999Y-78777999D02*
X134149999Y-79383782D01*
X133540700Y-76583000D02*
X133540700Y-74984600D01*
X134570300Y-77612600D02*
X133540700Y-76583000D01*
X136121200Y-80258967D02*
X134570300Y-78708067D01*
X134570300Y-78708067D02*
X134570300Y-77612600D01*
X136121200Y-81313500D02*
X136121200Y-80258967D01*
X133350000Y-93296100D02*
X134198000Y-93289814D01*
X137015344Y-92813658D02*
X137366323Y-93164637D01*
X133350000Y-80327300D02*
X133350000Y-93296100D01*
X129540000Y-76517300D02*
X133350000Y-80327300D01*
X129540000Y-75438000D02*
X129540000Y-76517300D01*
X135822900Y-94438558D02*
X134973000Y-93588658D01*
X139027600Y-119170800D02*
X139027600Y-117742900D01*
X134674156Y-92813658D02*
X137015344Y-92813658D01*
X134198000Y-93289814D02*
X134674156Y-92813658D01*
X135822900Y-114538200D02*
X135822900Y-94438558D01*
X139027600Y-117742900D02*
X135822900Y-114538200D01*
X151477400Y-122894300D02*
X153845900Y-120525800D01*
X158143900Y-115358700D02*
X171344000Y-115358700D01*
X142715000Y-129174100D02*
X145755600Y-126133500D01*
X151477400Y-123108700D02*
X151477400Y-122894300D01*
X142715000Y-145289700D02*
X142715000Y-129174100D01*
X153845900Y-120525800D02*
X153845900Y-119656700D01*
X173863000Y-113919000D02*
X172783700Y-113919000D01*
X145755600Y-126133500D02*
X147811200Y-126133500D01*
X153845900Y-119656700D02*
X158143900Y-115358700D01*
X149626000Y-124960100D02*
X151477400Y-123108700D01*
X147811200Y-126133500D02*
X148984600Y-124960100D01*
X171344000Y-115358700D02*
X172783700Y-113919000D01*
X148984600Y-124960100D02*
X149626000Y-124960100D01*
X149613300Y-116135200D02*
X142089000Y-123659500D01*
X138501100Y-138876913D02*
X138934898Y-138443115D01*
X168973700Y-110109000D02*
X156681800Y-110109000D01*
X173863000Y-106299000D02*
X172783700Y-106299000D01*
X156681800Y-110109000D02*
X150655600Y-116135200D01*
X142089000Y-123659500D02*
X142089000Y-124031800D01*
X172783700Y-106299000D02*
X168973700Y-110109000D01*
X138501100Y-145503600D02*
X138501100Y-138876913D01*
X150655600Y-116135200D02*
X149613300Y-116135200D01*
X155068800Y-122505500D02*
X149634700Y-127939600D01*
X149634700Y-127939600D02*
X149078300Y-127939600D01*
X149078300Y-127939600D02*
X146117000Y-130900900D01*
X156969700Y-119549400D02*
X156969700Y-120488300D01*
X146117000Y-130900900D02*
X145993800Y-130900900D01*
X156969700Y-120488300D02*
X156139500Y-121318500D01*
X154664800Y-136401600D02*
X158501100Y-140237900D01*
X155504800Y-122505500D02*
X155068800Y-122505500D01*
X158501100Y-140237900D02*
X158501100Y-145503600D01*
X151190100Y-136344400D02*
X151247300Y-136401600D01*
X145993800Y-130900900D02*
X145286000Y-131608700D01*
X156139500Y-121870800D02*
X155504800Y-122505500D01*
X145286000Y-131608700D02*
X145286000Y-131780200D01*
X156139500Y-121318500D02*
X156139500Y-121870800D01*
X151247300Y-136401600D02*
X154664800Y-136401600D01*
X158511200Y-122618300D02*
X157381300Y-123748200D01*
X161608000Y-138798800D02*
X161608000Y-136965400D01*
X157381300Y-123748200D02*
X157381300Y-124846500D01*
X153979700Y-133153400D02*
X153700100Y-133433000D01*
X149824700Y-133229500D02*
X149674000Y-133380200D01*
X161608000Y-136965400D02*
X160727900Y-136085300D01*
X162501100Y-145503600D02*
X162501100Y-139691900D01*
X158623000Y-121539000D02*
X158623000Y-122618300D01*
X150095200Y-132037400D02*
X149697200Y-132435400D01*
X159068300Y-133153400D02*
X153979700Y-133153400D01*
X162501100Y-139691900D02*
X161608000Y-138798800D01*
X149697200Y-132435400D02*
X149697200Y-133102000D01*
X150283700Y-132037400D02*
X150095200Y-132037400D01*
X158623000Y-122618300D02*
X158511200Y-122618300D01*
X153700100Y-133433000D02*
X150028200Y-133433000D01*
X160727900Y-134813000D02*
X159068300Y-133153400D01*
X149697200Y-133102000D02*
X149824700Y-133229500D01*
X155166500Y-127154600D02*
X150283700Y-132037400D01*
X156697200Y-125530600D02*
X156541600Y-125530600D01*
X157381300Y-124846500D02*
X156697200Y-125530600D01*
X150028200Y-133433000D02*
X149824700Y-133229500D01*
X155166500Y-126905700D02*
X155166500Y-127154600D01*
X156541600Y-125530600D02*
X155166500Y-126905700D01*
X160727900Y-136085300D02*
X160727900Y-134813000D01*
X153723700Y-138402000D02*
X154501100Y-139179400D01*
X156565600Y-112168600D02*
X156754100Y-112168600D01*
X156754100Y-112168600D02*
X157543700Y-111379000D01*
X154762200Y-126958800D02*
X150087900Y-131633100D01*
X151657700Y-138402000D02*
X153723700Y-138402000D01*
X154501100Y-139179400D02*
X154501100Y-145503600D01*
X148994700Y-135062400D02*
X148368600Y-135062400D01*
X156606100Y-124649800D02*
X154762200Y-126493700D01*
X148994700Y-132566100D02*
X148994700Y-135062400D01*
X149927700Y-131633100D02*
X148994700Y-132566100D01*
X148994700Y-135062400D02*
X148994700Y-135739000D01*
X148994700Y-135739000D02*
X151657700Y-138402000D01*
X150087900Y-131633100D02*
X149927700Y-131633100D01*
X158623000Y-111379000D02*
X157543700Y-111379000D01*
X154762200Y-126493700D02*
X154762200Y-126958800D01*
X150930600Y-123014100D02*
X149425000Y-124519700D01*
X148853200Y-124519700D02*
X147946400Y-125426500D01*
X150501100Y-145503600D02*
X150501100Y-140859300D01*
X145487800Y-125426500D02*
X141994600Y-128919700D01*
X147946400Y-125426500D02*
X145487800Y-125426500D01*
X152889700Y-120443100D02*
X150930600Y-122402200D01*
X141994600Y-128919700D02*
X141994600Y-132828600D01*
X150930600Y-122402200D02*
X150930600Y-123014100D01*
X150501100Y-140859300D02*
X149685200Y-140043400D01*
X149425000Y-124519700D02*
X148853200Y-124519700D01*
X149877400Y-115277400D02*
X140962900Y-124191900D01*
X140962900Y-124191900D02*
X140962900Y-125332900D01*
X140221700Y-145224200D02*
X140221700Y-139366200D01*
X149979700Y-115277400D02*
X149877400Y-115277400D01*
X164501100Y-145503600D02*
X164501100Y-138143000D01*
X156744100Y-125934900D02*
X155762500Y-126916500D01*
X164501100Y-138143000D02*
X161940800Y-135582700D01*
X158623000Y-125158300D02*
X158501200Y-125158300D01*
X161940800Y-128366300D02*
X158732800Y-125158300D01*
X155762500Y-127330700D02*
X150376500Y-132716700D01*
X161940800Y-135582700D02*
X161940800Y-128366300D01*
X158501200Y-125158300D02*
X157724600Y-125934900D01*
X155762500Y-126916500D02*
X155762500Y-127330700D01*
X158732800Y-125158300D02*
X158623000Y-125158300D01*
X157724600Y-125934900D02*
X156744100Y-125934900D01*
X158623000Y-124079000D02*
X158623000Y-125158300D01*
X147348900Y-127823900D02*
X145213400Y-127823900D01*
X155174400Y-120340900D02*
X152286000Y-123229300D01*
X152286000Y-123443700D02*
X149818800Y-125910900D01*
X152286000Y-123229300D02*
X152286000Y-123443700D01*
X149818800Y-125910900D02*
X149261900Y-125910900D01*
X152501100Y-141455600D02*
X151338400Y-140292900D01*
X155174400Y-120169000D02*
X155174400Y-120340900D01*
X149261900Y-125910900D02*
X147348900Y-127823900D01*
X143776800Y-132925000D02*
X143858600Y-133006800D01*
X143776800Y-129260500D02*
X143776800Y-132925000D01*
X145213400Y-127823900D02*
X143776800Y-129260500D01*
X155735200Y-121151000D02*
X155735200Y-121703300D01*
X155987300Y-120898900D02*
X155735200Y-121151000D01*
X146003900Y-130334800D02*
X145599100Y-130334800D01*
X156501100Y-145503600D02*
X156501100Y-140607600D01*
X155987300Y-119416200D02*
X155987300Y-120898900D01*
X155735200Y-121703300D02*
X155337300Y-122101200D01*
X148803400Y-127535300D02*
X146003900Y-130334800D01*
X151880800Y-137997700D02*
X150317600Y-136434500D01*
X154901300Y-122101200D02*
X149467200Y-127535300D01*
X153891200Y-137997700D02*
X151880800Y-137997700D01*
X156501100Y-140607600D02*
X153891200Y-137997700D01*
X155337300Y-122101200D02*
X154901300Y-122101200D01*
X149467200Y-127535300D02*
X148803400Y-127535300D01*
X150317600Y-136434500D02*
X150317600Y-135449700D01*
X156543800Y-121486000D02*
X158623000Y-119406800D01*
X160501100Y-141232000D02*
X156767200Y-137498100D01*
X151942500Y-128129200D02*
X151810400Y-128129200D01*
X155672300Y-122909800D02*
X156543800Y-122038300D01*
X151701600Y-128020400D02*
X151701600Y-126634500D01*
X156543800Y-122038300D02*
X156543800Y-121486000D01*
X149377600Y-128343900D02*
X151378100Y-128343900D01*
X151701600Y-126634500D02*
X155426300Y-122909800D01*
X146275100Y-131446400D02*
X149377600Y-128343900D01*
X151810400Y-128129200D02*
X151701600Y-128020400D01*
X155426300Y-122909800D02*
X155672300Y-122909800D01*
X151378100Y-128343900D02*
X151701600Y-128020400D01*
X146275100Y-131580200D02*
X146275100Y-131446400D01*
X154357900Y-125756800D02*
X154357900Y-126780700D01*
X147374300Y-139805100D02*
X147374300Y-139259400D01*
X148501100Y-145503600D02*
X148501100Y-140931900D01*
X148501100Y-140931900D02*
X147374300Y-139805100D01*
X157384000Y-122730700D02*
X154357900Y-125756800D01*
X154357900Y-126780700D02*
X150957900Y-130180700D01*
X147689300Y-134781100D02*
X147689300Y-138944400D01*
X150957900Y-130180700D02*
X150808300Y-130180700D01*
X150808300Y-130180700D02*
X147778600Y-133210400D01*
X147778600Y-133210400D02*
X147778600Y-134691800D01*
X147689300Y-138944400D02*
X147374300Y-139259400D01*
X147778600Y-134691800D02*
X147689300Y-134781100D01*
X151881700Y-123061800D02*
X154392700Y-120550800D01*
X166711000Y-117757600D02*
X167234800Y-118281400D01*
X145771300Y-127093600D02*
X147492500Y-127093600D01*
X144501100Y-145503600D02*
X144096800Y-145099300D01*
X144096800Y-145099300D02*
X144096800Y-135775100D01*
X144096800Y-135775100D02*
X143172200Y-134850500D01*
X149079500Y-125506600D02*
X149651300Y-125506600D01*
X151881700Y-123276200D02*
X151881700Y-123061800D01*
X147492500Y-127093600D02*
X149079500Y-125506600D01*
X149651300Y-125506600D02*
X151881700Y-123276200D01*
X154392700Y-119979000D02*
X156614100Y-117757600D01*
X143172200Y-129293300D02*
X145371900Y-127093600D01*
X154392700Y-120550800D02*
X154392700Y-119979000D01*
X145371900Y-127093600D02*
X145771300Y-127093600D01*
X156614100Y-117757600D02*
X166711000Y-117757600D01*
X143172200Y-134850500D02*
X143172200Y-129293300D01*
X145722000Y-128228200D02*
X147538700Y-128228200D01*
X145050000Y-128948100D02*
X144181100Y-129817000D01*
X144579100Y-139600700D02*
X146501100Y-141522700D01*
X149451700Y-126315200D02*
X149986300Y-126315200D01*
X145050000Y-128900200D02*
X145722000Y-128228200D01*
X144579100Y-132766300D02*
X144579100Y-139600700D01*
X144181100Y-132368300D02*
X144579100Y-132766300D01*
X154879600Y-121421900D02*
X155055900Y-121421900D01*
X149986300Y-126315200D02*
X154879600Y-121421900D01*
X144181100Y-129817000D02*
X144181100Y-132368300D01*
X147538700Y-128228200D02*
X149451700Y-126315200D01*
X145050000Y-128948100D02*
X145050000Y-128900200D01*
X152172400Y-112110600D02*
X140279200Y-124003800D01*
X140279200Y-124003800D02*
X140279200Y-124522800D01*
X138084300Y-126717700D02*
X138084300Y-129928400D01*
X169008100Y-104597200D02*
X166036300Y-107569000D01*
X140279200Y-124522800D02*
X138084300Y-126717700D01*
X138084300Y-129928400D02*
X136501100Y-131511600D01*
X166036300Y-107569000D02*
X158353900Y-107569000D01*
X136501100Y-131511600D02*
X136501100Y-145503600D01*
X153812300Y-112110600D02*
X152172400Y-112110600D01*
X158353900Y-107569000D02*
X153812300Y-112110600D01*
X134501100Y-132390500D02*
X136812200Y-130079400D01*
X134501100Y-145503600D02*
X134501100Y-132390500D01*
X136812200Y-130079400D02*
X136812200Y-129979000D01*
X133417900Y-66421000D02*
X130850600Y-68988300D01*
X154234800Y-109334400D02*
X154234800Y-101021500D01*
X152400000Y-84187300D02*
X157507400Y-89294700D01*
X147965100Y-130717500D02*
X147965100Y-131065000D01*
X136707700Y-116588000D02*
X136701100Y-116581400D01*
X145128000Y-121684200D02*
X145128000Y-121640100D01*
X147965100Y-131065000D02*
X146663500Y-132366600D01*
X146663500Y-132366600D02*
X146663500Y-133392300D01*
X174842400Y-92844000D02*
X167570500Y-92844000D01*
X127000000Y-74358700D02*
X130850600Y-70508100D01*
X167570500Y-92844000D02*
X167525300Y-92889200D01*
X136701100Y-116581400D02*
X131410900Y-116581400D01*
X130850600Y-70508100D02*
X130850600Y-68988300D01*
X150676500Y-129501400D02*
X150004500Y-130173400D01*
X151341200Y-117354000D02*
X151341200Y-117284600D01*
X167957900Y-137481400D02*
X165878800Y-137481400D01*
X127845300Y-138018000D02*
X124501100Y-141362200D01*
X139674000Y-66421000D02*
X133469800Y-66421000D01*
X154234800Y-101021500D02*
X158623000Y-96633300D01*
X157543700Y-134239000D02*
X157160300Y-133855600D01*
X148221900Y-120473300D02*
X151341200Y-117354000D01*
X133469800Y-66421000D02*
X133417900Y-66421000D01*
X172252600Y-68988300D02*
X174877000Y-71612700D01*
X157160300Y-133855600D02*
X154723200Y-133855600D01*
X172501100Y-145503600D02*
X172873700Y-145131000D01*
X133469800Y-64449200D02*
X131508900Y-62488300D01*
X128128100Y-119864200D02*
X128128100Y-123116000D01*
X152400000Y-83058000D02*
X152400000Y-84187300D01*
X124501100Y-144656000D02*
X123467200Y-144656000D01*
X133469800Y-66421000D02*
X133469800Y-64449200D01*
X131410900Y-116581400D02*
X124811800Y-109982300D01*
X150004500Y-130173400D02*
X148509200Y-130173400D01*
X158623000Y-95504000D02*
X158623000Y-96633300D01*
X128128100Y-123116000D02*
X129428000Y-124415900D01*
X124811800Y-109982300D02*
X124811800Y-100516700D01*
X172873700Y-142397200D02*
X167957900Y-137481400D01*
X158623000Y-134239000D02*
X157543700Y-134239000D01*
X172873700Y-144853600D02*
X172873700Y-142397200D01*
X162515400Y-89859300D02*
X163022000Y-89352700D01*
X146294800Y-120473300D02*
X148221900Y-120473300D01*
X138063500Y-117943800D02*
X136707700Y-116588000D01*
X138065100Y-117943800D02*
X138063500Y-117943800D01*
X127000000Y-75438000D02*
X127000000Y-76517300D01*
X174877000Y-71612700D02*
X174877000Y-73280600D01*
X143792200Y-123020000D02*
X145128000Y-121684200D01*
X172873700Y-145131000D02*
X172873700Y-144853600D01*
X157734000Y-89859300D02*
X162515400Y-89859300D01*
X172873700Y-144853600D02*
X173523700Y-144853600D01*
X131410900Y-116581400D02*
X128128100Y-119864200D01*
X157507400Y-89294700D02*
X157734000Y-89294700D01*
X145128000Y-121640100D02*
X146294800Y-120473300D01*
X148509200Y-130173400D02*
X147965100Y-130717500D01*
X127000000Y-76517300D02*
X132080000Y-81597300D01*
X132080000Y-90678000D02*
X132080000Y-81597300D01*
X129428000Y-124415900D02*
X129428000Y-133351300D01*
X157734000Y-89859300D02*
X157734000Y-89294700D01*
X127000000Y-75438000D02*
X127000000Y-74358700D01*
X131368900Y-133036600D02*
X131985500Y-133653200D01*
X131985500Y-133653200D02*
X131985500Y-140016200D01*
X163431100Y-137644800D02*
X163431100Y-138098600D01*
X158623000Y-127015000D02*
X156694700Y-127015000D01*
X158623000Y-127698300D02*
X158748400Y-127698300D01*
X161536500Y-135750200D02*
X163431100Y-137644800D01*
X158623000Y-127158600D02*
X158623000Y-127698300D01*
X158748400Y-127698300D02*
X161536500Y-130486400D01*
X161536500Y-130486400D02*
X161536500Y-135750200D01*
X161132200Y-133841900D02*
X160725800Y-133435500D01*
X162359600Y-137145200D02*
X161132200Y-135917800D01*
X161132200Y-135917800D02*
X161132200Y-133841900D01*
X162359600Y-138187100D02*
X162359600Y-137145200D01*
X158490100Y-137159400D02*
X158490100Y-136775000D01*
X160698400Y-139367700D02*
X158490100Y-137159400D01*
X168132100Y-134239000D02*
X164924400Y-137446700D01*
X155801700Y-136059100D02*
X156292000Y-136059100D01*
X173863000Y-134239000D02*
X168132100Y-134239000D01*
X156292000Y-136059100D02*
X159513800Y-139280900D01*
X169775200Y-131699000D02*
X165053700Y-136420500D01*
X173863000Y-131699000D02*
X169775200Y-131699000D01*
X165053700Y-136420500D02*
X164927500Y-136420500D01*
X154509600Y-137600800D02*
X154509600Y-137213700D01*
X157239400Y-140330600D02*
X154509600Y-137600800D01*
X171241600Y-129159000D02*
X164934500Y-135466100D01*
X173863000Y-129159000D02*
X171241600Y-129159000D01*
X173863000Y-126619000D02*
X172431200Y-126619000D01*
X158795900Y-135372700D02*
X152564500Y-135372700D01*
X152564500Y-135372700D02*
X152265400Y-135671800D01*
X172431200Y-126619000D02*
X164279200Y-134771000D01*
X159087000Y-135663800D02*
X158795900Y-135372700D01*
X173863000Y-125158300D02*
X172763300Y-125158300D01*
X144983400Y-132598900D02*
X144585400Y-132200900D01*
X146004400Y-128968900D02*
X146004400Y-128907600D01*
X144585400Y-132200900D02*
X144585400Y-130387900D01*
X146589000Y-137541400D02*
X144983400Y-135935800D01*
X144983400Y-135935800D02*
X144983400Y-132598900D01*
X153675100Y-139314100D02*
X148365300Y-139314100D01*
X172763300Y-125158300D02*
X162620100Y-135301500D01*
X173863000Y-124079000D02*
X173863000Y-125158300D01*
X144585400Y-130387900D02*
X146004400Y-128968900D01*
D21*
X124996400Y-131735800D02*
X124585200Y-132147000D01*
X124585200Y-132147000D02*
X124348000Y-132147000D01*
X124348000Y-133351300D02*
X124348000Y-132147000D01*
D20*
X128298700Y-137510700D02*
X128298700Y-131963000D01*
X128920700Y-145084000D02*
X128920700Y-138132700D01*
X128920700Y-138132700D02*
X128298700Y-137510700D01*
X128501100Y-145503600D02*
X128920700Y-145084000D01*
X128298700Y-131963000D02*
X128722700Y-131539000D01*
X127324400Y-103752200D02*
X128347200Y-104775000D01*
X127324400Y-100937300D02*
X127324400Y-103752200D01*
X125894600Y-92945600D02*
X126736400Y-93787400D01*
X135929000Y-117260700D02*
X138022300Y-119354000D01*
X125894600Y-87284400D02*
X125894600Y-92945600D01*
X126629400Y-104902600D02*
X126902400Y-105175600D01*
X138022300Y-119354000D02*
X138050400Y-119354000D01*
X126736400Y-93787400D02*
X126736400Y-99649600D01*
X126629400Y-99756600D02*
X126629400Y-104902600D01*
X126736400Y-99649600D02*
X126629400Y-99756600D01*
X128697600Y-84481400D02*
X125894600Y-87284400D01*
X136971200Y-81960200D02*
X134620000Y-84311400D01*
X136971200Y-77532800D02*
X136971200Y-81960200D01*
X136080700Y-76642300D02*
X136971200Y-77532800D01*
X136080700Y-74314400D02*
X136080700Y-76642300D01*
X134620000Y-84311400D02*
X134620000Y-90678000D01*
X136858300Y-73536800D02*
X136080700Y-74314400D01*
X138139700Y-88619000D02*
X137160000Y-89598700D01*
X142214000Y-65010300D02*
X141980000Y-65010300D01*
X138050300Y-76291400D02*
X138050300Y-81308000D01*
X141839500Y-108564100D02*
X141299300Y-108023900D01*
X141541700Y-121012400D02*
X141534300Y-121005000D01*
X140944000Y-66046300D02*
X140944000Y-71974200D01*
X138050300Y-81308000D02*
X138139700Y-81397400D01*
X137160000Y-90678000D02*
X137160000Y-89598700D01*
X141980000Y-65010300D02*
X140944000Y-66046300D01*
X141839500Y-114680500D02*
X141839500Y-108564100D01*
X141534300Y-114985700D02*
X141839500Y-114680500D01*
X140944000Y-71974200D02*
X138287500Y-74630700D01*
X138287500Y-76054200D02*
X138050300Y-76291400D01*
X138287500Y-74630700D02*
X138287500Y-76054200D01*
X142214000Y-63881000D02*
X142214000Y-65010300D01*
X138139700Y-81397400D02*
X138139700Y-88619000D01*
X141534300Y-121005000D02*
X141534300Y-114985700D01*
X139700000Y-90678000D02*
X139700000Y-118600200D01*
X139700000Y-118600200D02*
X139998300Y-118898500D01*
X141159100Y-88517800D02*
X142240000Y-89598700D01*
X144754000Y-65010300D02*
X144471700Y-65010300D01*
X142240000Y-90678000D02*
X142240000Y-89598700D01*
X140215700Y-117751700D02*
X140678100Y-118214100D01*
X140215700Y-93781600D02*
X140215700Y-117751700D01*
X143469100Y-70222100D02*
X141159100Y-72532100D01*
X141159100Y-72532100D02*
X141159100Y-88517800D01*
X142240000Y-91757300D02*
X140215700Y-93781600D01*
X142240000Y-90678000D02*
X142240000Y-91757300D01*
X143469100Y-66012900D02*
X143469100Y-70222100D01*
X144754000Y-63881000D02*
X144754000Y-65010300D01*
X144471700Y-65010300D02*
X143469100Y-66012900D01*
X145120100Y-92097400D02*
X145120100Y-93957200D01*
X144780000Y-91757300D02*
X145120100Y-92097400D01*
X147294000Y-67550300D02*
X145664100Y-69180200D01*
X145120100Y-93957200D02*
X140620000Y-98457300D01*
X142505900Y-79759900D02*
X144780000Y-82034000D01*
X147294000Y-66421000D02*
X147294000Y-67550300D01*
X145664100Y-69180200D02*
X145664100Y-73016900D01*
X140620000Y-113858900D02*
X141160200Y-114399100D01*
X144780000Y-90678000D02*
X144780000Y-91757300D01*
X140620000Y-98457300D02*
X140620000Y-113858900D01*
X144780000Y-82034000D02*
X144780000Y-90678000D01*
X144477500Y-69316200D02*
X144477500Y-74214100D01*
X146164700Y-67629000D02*
X144477500Y-69316200D01*
X147011600Y-65010300D02*
X146164700Y-65857200D01*
X147294000Y-63881000D02*
X147294000Y-65010300D01*
X144898100Y-80975700D02*
X147320000Y-83397600D01*
X147320000Y-83397600D02*
X147320000Y-90678000D01*
X143700700Y-74990900D02*
X143700700Y-76583000D01*
X147294000Y-65010300D02*
X147011600Y-65010300D01*
X144477500Y-74214100D02*
X143700700Y-74990900D01*
X142213600Y-115971000D02*
X142262900Y-115921700D01*
X142262900Y-97386100D02*
X147320000Y-92329000D01*
X146164700Y-65857200D02*
X146164700Y-67629000D01*
X144898100Y-77780400D02*
X144898100Y-80975700D01*
X147320000Y-90678000D02*
X147320000Y-92329000D01*
X142262900Y-115921700D02*
X142262900Y-97386100D01*
X143700700Y-76583000D02*
X144898100Y-77780400D01*
X149860000Y-90678000D02*
X149860000Y-89598700D01*
X144191100Y-101626200D02*
X144191100Y-112794900D01*
X149487500Y-67896800D02*
X149834000Y-67550300D01*
X148881300Y-97426800D02*
X148390500Y-97426800D01*
X151282300Y-85651600D02*
X150840400Y-85209700D01*
X144191100Y-112794900D02*
X144242800Y-112846600D01*
X151033900Y-73649000D02*
X149487500Y-72102600D01*
X149860000Y-89598700D02*
X151282300Y-88176400D01*
X149487500Y-72102600D02*
X149487500Y-67896800D01*
X151033900Y-81280200D02*
X151033900Y-73649000D01*
X150840400Y-81473700D02*
X151033900Y-81280200D01*
X151282300Y-88176400D02*
X151282300Y-85651600D01*
X148390500Y-97426800D02*
X144191100Y-101626200D01*
X149834000Y-66421000D02*
X149834000Y-67550300D01*
X150840400Y-85209700D02*
X150840400Y-81473700D01*
X152400000Y-90678000D02*
X152400000Y-107962200D01*
X150590700Y-86941500D02*
X150434600Y-86785400D01*
X149834000Y-63881000D02*
X149834000Y-65010300D01*
X149457200Y-77881500D02*
X148675600Y-77099900D01*
X148675600Y-65934700D02*
X149600000Y-65010300D01*
X149457200Y-80662600D02*
X149457200Y-77881500D01*
X150434600Y-86785400D02*
X150434600Y-81640000D01*
X150434600Y-81640000D02*
X149457200Y-80662600D01*
X148675600Y-77099900D02*
X148675600Y-65934700D01*
X149600000Y-65010300D02*
X149834000Y-65010300D01*
X144700900Y-115661300D02*
X152400000Y-107962200D01*
X144103800Y-115661300D02*
X144700900Y-115661300D01*
X137160000Y-76517300D02*
X137432300Y-76789600D01*
X137160000Y-75438000D02*
X137160000Y-76517300D01*
X137432300Y-76789600D02*
X137432300Y-82461900D01*
X142240000Y-75438000D02*
X142240000Y-74358700D01*
X142240000Y-75438000D02*
X142240000Y-76517300D01*
X141826600Y-86241000D02*
X141826600Y-76930700D01*
X143873400Y-68956700D02*
X144279700Y-68550400D01*
X144374200Y-93702000D02*
X143652500Y-92980300D01*
X143652500Y-92980300D02*
X143652500Y-88066900D01*
X144901100Y-107640000D02*
X145887300Y-108626200D01*
X141826600Y-76930700D02*
X142240000Y-76517300D01*
X143873400Y-72725300D02*
X143873400Y-68956700D01*
X143652500Y-88066900D02*
X141826600Y-86241000D01*
X142240000Y-74358700D02*
X143873400Y-72725300D01*
X144901100Y-102491200D02*
X144901100Y-107640000D01*
X138765700Y-86557100D02*
X138765700Y-79848600D01*
X140110300Y-87901700D02*
X138765700Y-86557100D01*
X154914000Y-65010300D02*
X154631600Y-65010300D01*
X139700000Y-75438000D02*
X139700000Y-76517300D01*
X153784700Y-65857200D02*
X153784700Y-66870900D01*
X153784700Y-66870900D02*
X150166800Y-70488800D01*
X154914000Y-63881000D02*
X154914000Y-65010300D01*
X140479700Y-77297000D02*
X140479700Y-81958900D01*
X139700000Y-76517300D02*
X140479700Y-77297000D01*
X154631600Y-65010300D02*
X153784700Y-65857200D01*
X135844300Y-124764300D02*
X135844300Y-130086600D01*
X171323000Y-95504000D02*
X170193700Y-95504000D01*
X128433600Y-96532900D02*
X128433600Y-88056500D01*
X157734000Y-77724000D02*
X157734000Y-76594700D01*
X136292000Y-123539900D02*
X136491800Y-123739700D01*
X157734000Y-76594700D02*
X158431000Y-75897700D01*
X159221200Y-74558100D02*
X158431000Y-75348300D01*
X136491800Y-123739700D02*
X136491800Y-124116800D01*
X136491800Y-124116800D02*
X135844300Y-124764300D01*
X158457800Y-104909700D02*
X161070300Y-104909700D01*
X128636100Y-96735400D02*
X128433600Y-96532900D01*
X139586300Y-124116800D02*
X136491800Y-124116800D01*
X130077700Y-86412400D02*
X130077700Y-81664100D01*
X128433600Y-88056500D02*
X130077700Y-86412400D01*
X158431000Y-75897700D02*
X158431000Y-75348300D01*
X170000100Y-74558100D02*
X159221200Y-74558100D01*
X170193700Y-95786300D02*
X170193700Y-95504000D01*
X155837300Y-107530200D02*
X158457800Y-104909700D01*
X155837300Y-108555700D02*
X155837300Y-107530200D01*
X161070300Y-104909700D02*
X170193700Y-95786300D01*
X149265100Y-123514400D02*
X149359400Y-123608700D01*
X152911400Y-118785100D02*
X149265100Y-122431400D01*
X149265100Y-122431400D02*
X149265100Y-123514400D01*
X152911400Y-116057800D02*
X152911400Y-118785100D01*
X156948100Y-122205800D02*
X156948100Y-121653400D01*
X158141800Y-120459700D02*
X158722300Y-120459700D01*
X160518900Y-118663100D02*
X160518900Y-118436900D01*
X152756700Y-126397200D02*
X156948100Y-122205800D01*
X156948100Y-121653400D02*
X158141800Y-120459700D01*
X158722300Y-120459700D02*
X160518900Y-118663100D01*
X152756700Y-126556300D02*
X152756700Y-126397200D01*
X150034300Y-122255200D02*
X157508400Y-114781100D01*
X150034300Y-122933800D02*
X150034300Y-122255200D01*
X148259800Y-111128700D02*
X147996100Y-111128700D01*
X147996100Y-111128700D02*
X145200300Y-113924500D01*
X132902000Y-133495500D02*
X132902000Y-145102700D01*
X132902000Y-145102700D02*
X132501100Y-145503600D01*
X147285000Y-138203100D02*
X145965741Y-139522359D01*
X147372900Y-132454800D02*
X147372900Y-134525700D01*
X145965741Y-139522359D02*
X145965741Y-140030059D01*
X147372900Y-134525700D02*
X147285000Y-134613600D01*
X148645600Y-131182100D02*
X147372900Y-132454800D01*
X147285000Y-134613600D02*
X147285000Y-138203100D01*
X130930800Y-127902100D02*
X137065000Y-121767900D01*
X137065000Y-121767900D02*
X137349900Y-121767900D01*
X130930800Y-131184100D02*
X130930800Y-127902100D01*
X130553900Y-145450800D02*
X130553900Y-134285300D01*
X127142300Y-91899600D02*
X127000000Y-91757300D01*
X127142300Y-96642200D02*
X127142300Y-91899600D01*
X127000000Y-90678000D02*
X127000000Y-91757300D01*
X128347200Y-97847100D02*
X127142300Y-96642200D01*
X128347200Y-100711000D02*
X128347200Y-97847100D01*
X160803000Y-80264000D02*
X157734000Y-80264000D01*
X163371700Y-82832700D02*
X160803000Y-80264000D01*
X157734000Y-79134700D02*
X156988000Y-79134700D01*
X155066400Y-77213100D02*
X155066400Y-76826600D01*
X157734000Y-80264000D02*
X157734000Y-79134700D01*
X156988000Y-79134700D02*
X155066400Y-77213100D01*
X162082100Y-82804000D02*
X163245200Y-83967100D01*
X150156500Y-77785200D02*
X150156500Y-76813800D01*
X150156500Y-76813800D02*
X149860000Y-76517300D01*
X149860000Y-75438000D02*
X149860000Y-76517300D01*
X157734000Y-82804000D02*
X162082100Y-82804000D01*
X149744400Y-82389700D02*
X148975700Y-81621000D01*
X147320000Y-75438000D02*
X147320000Y-76517300D01*
X148975700Y-81621000D02*
X148975700Y-78173000D01*
X148975700Y-78173000D02*
X147320000Y-76517300D01*
X162778600Y-86152800D02*
X162778600Y-86152900D01*
X157734000Y-85344000D02*
X158863300Y-85344000D01*
X158863300Y-85344000D02*
X159672100Y-86152800D01*
X148071100Y-78455100D02*
X145859300Y-76243300D01*
X144780000Y-75438000D02*
X145859300Y-75438000D01*
X145859300Y-76243300D02*
X145859300Y-75438000D01*
X159672100Y-86152800D02*
X162778600Y-86152800D01*
X148071100Y-78674900D02*
X148071100Y-78455100D01*
X145427500Y-124915000D02*
X141400900Y-128941600D01*
X141400900Y-128941600D02*
X141400900Y-132461700D01*
X147241800Y-124915000D02*
X145427500Y-124915000D01*
X138980000Y-134882600D02*
X138980000Y-135328100D01*
X141400900Y-132461700D02*
X138980000Y-134882600D01*
X148242100Y-123914700D02*
X147241800Y-124915000D01*
X139113500Y-129289900D02*
X145878300Y-122525100D01*
X138014200Y-134801600D02*
X137849800Y-134637200D01*
X137849800Y-131469000D02*
X139113500Y-130205300D01*
X137183300Y-139000000D02*
X138014200Y-138169100D01*
X145878300Y-122525100D02*
X147297400Y-122525100D01*
X138014200Y-138169100D02*
X138014200Y-134801600D01*
X137849800Y-134637200D02*
X137849800Y-131469000D01*
X139113500Y-130205300D02*
X139113500Y-129289900D01*
X137282100Y-131302400D02*
X137282100Y-137747600D01*
X138583800Y-129247800D02*
X138583800Y-130000700D01*
X146434300Y-121397300D02*
X138583800Y-129247800D01*
X147312800Y-121397300D02*
X146434300Y-121397300D01*
X138583800Y-130000700D02*
X137282100Y-131302400D01*
X145844600Y-123354300D02*
X139928300Y-129270600D01*
X139928300Y-129270600D02*
X139928300Y-130349000D01*
X146011700Y-123354300D02*
X145844600Y-123354300D01*
X145295300Y-124475400D02*
X140996600Y-128774100D01*
X140996600Y-128774100D02*
X140996600Y-130241400D01*
X151375600Y-119479300D02*
X146379500Y-124475400D01*
X151375600Y-119343600D02*
X151375600Y-119479300D01*
X140996600Y-130241400D02*
X138987300Y-132250700D01*
X126501100Y-141961200D02*
X128241400Y-140220900D01*
X146379500Y-124475400D02*
X145295300Y-124475400D01*
X138987300Y-132250700D02*
X138575600Y-132250700D01*
X167099500Y-69641400D02*
X167752600Y-68988300D01*
X167099500Y-72501900D02*
X165980200Y-73621200D01*
X167099500Y-72501900D02*
X167099500Y-69641400D01*
X165980200Y-73621200D02*
X160982900Y-73621200D01*
X156326200Y-63881000D02*
X157454000Y-63881000D01*
X127834900Y-61203800D02*
X126450500Y-62588200D01*
X156324700Y-63881000D02*
X156324700Y-63598700D01*
X156326200Y-63881000D02*
X156324700Y-63881000D01*
X153116000Y-79388700D02*
X152400000Y-79388700D01*
X153982700Y-75790900D02*
X153982700Y-78522000D01*
X126450500Y-62588200D02*
X126450500Y-68888400D01*
X156324700Y-63598700D02*
X153929800Y-61203800D01*
X152400000Y-80518000D02*
X152400000Y-79388700D01*
X156184000Y-64023200D02*
X156184000Y-73589600D01*
X153929800Y-61203800D02*
X127834900Y-61203800D01*
X153982700Y-78522000D02*
X153116000Y-79388700D01*
X156326200Y-63881000D02*
X156184000Y-64023200D01*
X156184000Y-73589600D02*
X153982700Y-75790900D01*
X157864500Y-112820600D02*
X167012800Y-112820600D01*
X173997900Y-120459700D02*
X174956000Y-119501600D01*
X174956000Y-119501600D02*
X174956000Y-118519500D01*
X173863000Y-120459700D02*
X173997900Y-120459700D01*
X167012800Y-112820600D02*
X168231600Y-114039400D01*
X173863000Y-121539000D02*
X173863000Y-120459700D01*
X173974800Y-117538300D02*
X173863000Y-117538300D01*
X173863000Y-116459000D02*
X173863000Y-117538300D01*
X149815600Y-117720900D02*
X152158000Y-115378500D01*
X155306600Y-115378500D02*
X157864500Y-112820600D01*
X152158000Y-115378500D02*
X155306600Y-115378500D01*
X174956000Y-118519500D02*
X173974800Y-117538300D01*
X126055300Y-96193600D02*
X126055300Y-100760100D01*
X126055300Y-100760100D02*
X125844700Y-100970700D01*
G04 #@! TA.AperFunction,Conductor*
G36*
X176442721Y-59524102D02*
G01*
X176489214Y-59577758D01*
X176500600Y-59630100D01*
X176500600Y-139624800D01*
X176480598Y-139692921D01*
X176426942Y-139739414D01*
X176374600Y-139750800D01*
X165260600Y-139750800D01*
X165192479Y-139730798D01*
X165145986Y-139677142D01*
X165134600Y-139624800D01*
X165134600Y-138427176D01*
X165154602Y-138359055D01*
X165208258Y-138312562D01*
X165212360Y-138310776D01*
X165354736Y-138251802D01*
X165503535Y-138152378D01*
X165630078Y-138025835D01*
X165729502Y-137877036D01*
X165797987Y-137711700D01*
X165832900Y-137536179D01*
X165832900Y-137486294D01*
X165852902Y-137418173D01*
X165869805Y-137397199D01*
X168357599Y-134909405D01*
X168419911Y-134875379D01*
X168446694Y-134872500D01*
X172641670Y-134872500D01*
X172709791Y-134892502D01*
X172743606Y-134924439D01*
X172773891Y-134966122D01*
X172864932Y-135091430D01*
X172864934Y-135091432D01*
X172864936Y-135091435D01*
X173010564Y-135237063D01*
X173010567Y-135237065D01*
X173010570Y-135237068D01*
X173177197Y-135358129D01*
X173360710Y-135451634D01*
X173556592Y-135515280D01*
X173760019Y-135547500D01*
X173760022Y-135547500D01*
X173965978Y-135547500D01*
X173965981Y-135547500D01*
X174169408Y-135515280D01*
X174365290Y-135451634D01*
X174548803Y-135358129D01*
X174715430Y-135237068D01*
X174861068Y-135091430D01*
X174982129Y-134924803D01*
X175075634Y-134741290D01*
X175139280Y-134545408D01*
X175171500Y-134341981D01*
X175171500Y-134136019D01*
X175139280Y-133932592D01*
X175075634Y-133736710D01*
X174982129Y-133553197D01*
X174861068Y-133386570D01*
X174861065Y-133386567D01*
X174861063Y-133386564D01*
X174715435Y-133240936D01*
X174715432Y-133240934D01*
X174715430Y-133240932D01*
X174554881Y-133124287D01*
X174548806Y-133119873D01*
X174548805Y-133119872D01*
X174548803Y-133119871D01*
X174473034Y-133081265D01*
X174421422Y-133032519D01*
X174404356Y-132963604D01*
X174427257Y-132896402D01*
X174473034Y-132856735D01*
X174548803Y-132818129D01*
X174715430Y-132697068D01*
X174861068Y-132551430D01*
X174982129Y-132384803D01*
X175075634Y-132201290D01*
X175139280Y-132005408D01*
X175171500Y-131801981D01*
X175171500Y-131596019D01*
X175139280Y-131392592D01*
X175075634Y-131196710D01*
X174982129Y-131013197D01*
X174861068Y-130846570D01*
X174861065Y-130846567D01*
X174861063Y-130846564D01*
X174715435Y-130700936D01*
X174715432Y-130700934D01*
X174715430Y-130700932D01*
X174548803Y-130579871D01*
X174473034Y-130541265D01*
X174421422Y-130492519D01*
X174404356Y-130423604D01*
X174427257Y-130356402D01*
X174473034Y-130316735D01*
X174548803Y-130278129D01*
X174715430Y-130157068D01*
X174861068Y-130011430D01*
X174982129Y-129844803D01*
X175075634Y-129661290D01*
X175139280Y-129465408D01*
X175171500Y-129261981D01*
X175171500Y-129056019D01*
X175139280Y-128852592D01*
X175075634Y-128656710D01*
X174982129Y-128473197D01*
X174861068Y-128306570D01*
X174861065Y-128306567D01*
X174861063Y-128306564D01*
X174715435Y-128160936D01*
X174715432Y-128160934D01*
X174715430Y-128160932D01*
X174548803Y-128039871D01*
X174473034Y-128001265D01*
X174421422Y-127952519D01*
X174404356Y-127883604D01*
X174427257Y-127816402D01*
X174473034Y-127776735D01*
X174548803Y-127738129D01*
X174715430Y-127617068D01*
X174861068Y-127471430D01*
X174982129Y-127304803D01*
X175075634Y-127121290D01*
X175139280Y-126925408D01*
X175171500Y-126721981D01*
X175171500Y-126516019D01*
X175139280Y-126312592D01*
X175075634Y-126116710D01*
X174982129Y-125933197D01*
X174861068Y-125766570D01*
X174861065Y-125766567D01*
X174861063Y-125766564D01*
X174715435Y-125620936D01*
X174715432Y-125620934D01*
X174715430Y-125620932D01*
X174548803Y-125499871D01*
X174535215Y-125492948D01*
X174514791Y-125473658D01*
X174492163Y-125457001D01*
X174489342Y-125449622D01*
X174483602Y-125444200D01*
X174476849Y-125416932D01*
X174466817Y-125390682D01*
X174467889Y-125380750D01*
X174466536Y-125375285D01*
X174469088Y-125354891D01*
X174470947Y-125346001D01*
X174472155Y-125343085D01*
X174483800Y-125284538D01*
X174483919Y-125283970D01*
X174500379Y-125253238D01*
X174516577Y-125222272D01*
X174517222Y-125221794D01*
X174517441Y-125221386D01*
X174518783Y-125220638D01*
X174544923Y-125201291D01*
X174544574Y-125200721D01*
X174548797Y-125198132D01*
X174548796Y-125198132D01*
X174548803Y-125198129D01*
X174715430Y-125077068D01*
X174861068Y-124931430D01*
X174982129Y-124764803D01*
X175075634Y-124581290D01*
X175139280Y-124385408D01*
X175171500Y-124181981D01*
X175171500Y-123976019D01*
X175139280Y-123772592D01*
X175075634Y-123576710D01*
X174982129Y-123393197D01*
X174861068Y-123226570D01*
X174861065Y-123226567D01*
X174861063Y-123226564D01*
X174715435Y-123080936D01*
X174715432Y-123080934D01*
X174715430Y-123080932D01*
X174550039Y-122960769D01*
X174548806Y-122959873D01*
X174548805Y-122959872D01*
X174548803Y-122959871D01*
X174473034Y-122921265D01*
X174421422Y-122872519D01*
X174404356Y-122803604D01*
X174427257Y-122736402D01*
X174473034Y-122696735D01*
X174548803Y-122658129D01*
X174715430Y-122537068D01*
X174861068Y-122391430D01*
X174982129Y-122224803D01*
X175075634Y-122041290D01*
X175139280Y-121845408D01*
X175171500Y-121641981D01*
X175171500Y-121436019D01*
X175139280Y-121232592D01*
X175075634Y-121036710D01*
X174982129Y-120853197D01*
X174861068Y-120686570D01*
X174861065Y-120686567D01*
X174861063Y-120686564D01*
X174853096Y-120678597D01*
X174819070Y-120616285D01*
X174824135Y-120545470D01*
X174853092Y-120500411D01*
X175448071Y-119905433D01*
X175517400Y-119801675D01*
X175565155Y-119686385D01*
X175589500Y-119563994D01*
X175589500Y-119439206D01*
X175589500Y-118457106D01*
X175565155Y-118334715D01*
X175517400Y-118219425D01*
X175448071Y-118115667D01*
X175359833Y-118027429D01*
X174841546Y-117509142D01*
X174807520Y-117446830D01*
X174812585Y-117376015D01*
X174841545Y-117330952D01*
X174861068Y-117311430D01*
X174982129Y-117144803D01*
X175075634Y-116961290D01*
X175139280Y-116765408D01*
X175171500Y-116561981D01*
X175171500Y-116356019D01*
X175139280Y-116152592D01*
X175075634Y-115956710D01*
X174982129Y-115773197D01*
X174861068Y-115606570D01*
X174861065Y-115606567D01*
X174861063Y-115606564D01*
X174715435Y-115460936D01*
X174715432Y-115460934D01*
X174715430Y-115460932D01*
X174548803Y-115339871D01*
X174473034Y-115301265D01*
X174421422Y-115252519D01*
X174404356Y-115183604D01*
X174427257Y-115116402D01*
X174473034Y-115076735D01*
X174548803Y-115038129D01*
X174715430Y-114917068D01*
X174861068Y-114771430D01*
X174982129Y-114604803D01*
X175075634Y-114421290D01*
X175139280Y-114225408D01*
X175171500Y-114021981D01*
X175171500Y-113816019D01*
X175139280Y-113612592D01*
X175075634Y-113416710D01*
X174982129Y-113233197D01*
X174861068Y-113066570D01*
X174861065Y-113066567D01*
X174861063Y-113066564D01*
X174715435Y-112920936D01*
X174715432Y-112920934D01*
X174715430Y-112920932D01*
X174589999Y-112829802D01*
X174548806Y-112799873D01*
X174548805Y-112799872D01*
X174548803Y-112799871D01*
X174473034Y-112761265D01*
X174421422Y-112712519D01*
X174404356Y-112643604D01*
X174427257Y-112576402D01*
X174473034Y-112536735D01*
X174548803Y-112498129D01*
X174715430Y-112377068D01*
X174861068Y-112231430D01*
X174982129Y-112064803D01*
X175075634Y-111881290D01*
X175139280Y-111685408D01*
X175171500Y-111481981D01*
X175171500Y-111276019D01*
X175139280Y-111072592D01*
X175075634Y-110876710D01*
X174982129Y-110693197D01*
X174861068Y-110526570D01*
X174861065Y-110526567D01*
X174861063Y-110526564D01*
X174715435Y-110380936D01*
X174715432Y-110380934D01*
X174715430Y-110380932D01*
X174548803Y-110259871D01*
X174473034Y-110221265D01*
X174421422Y-110172519D01*
X174404356Y-110103604D01*
X174427257Y-110036402D01*
X174473034Y-109996735D01*
X174548803Y-109958129D01*
X174715430Y-109837068D01*
X174861068Y-109691430D01*
X174982129Y-109524803D01*
X175075634Y-109341290D01*
X175139280Y-109145408D01*
X175171500Y-108941981D01*
X175171500Y-108736019D01*
X175139280Y-108532592D01*
X175075634Y-108336710D01*
X174982129Y-108153197D01*
X174861068Y-107986570D01*
X174861065Y-107986567D01*
X174861063Y-107986564D01*
X174715435Y-107840936D01*
X174715432Y-107840934D01*
X174715430Y-107840932D01*
X174548803Y-107719871D01*
X174473034Y-107681265D01*
X174421422Y-107632519D01*
X174404356Y-107563604D01*
X174427257Y-107496402D01*
X174473034Y-107456735D01*
X174548803Y-107418129D01*
X174715430Y-107297068D01*
X174861068Y-107151430D01*
X174982129Y-106984803D01*
X175075634Y-106801290D01*
X175139280Y-106605408D01*
X175171500Y-106401981D01*
X175171500Y-106196019D01*
X175139280Y-105992592D01*
X175075634Y-105796710D01*
X174982129Y-105613197D01*
X174861068Y-105446570D01*
X174861065Y-105446567D01*
X174861063Y-105446564D01*
X174715435Y-105300936D01*
X174715432Y-105300934D01*
X174715430Y-105300932D01*
X174548803Y-105179871D01*
X174473034Y-105141265D01*
X174421422Y-105092519D01*
X174404356Y-105023604D01*
X174427257Y-104956402D01*
X174473034Y-104916735D01*
X174548803Y-104878129D01*
X174715430Y-104757068D01*
X174861068Y-104611430D01*
X174982129Y-104444803D01*
X175075634Y-104261290D01*
X175139280Y-104065408D01*
X175171500Y-103861981D01*
X175171500Y-103656019D01*
X175139280Y-103452592D01*
X175075634Y-103256710D01*
X174982129Y-103073197D01*
X174861068Y-102906570D01*
X174861065Y-102906567D01*
X174861063Y-102906564D01*
X174715435Y-102760936D01*
X174715432Y-102760934D01*
X174715431Y-102760933D01*
X174715430Y-102760932D01*
X174548803Y-102639871D01*
X174473034Y-102601265D01*
X174421422Y-102552519D01*
X174404356Y-102483604D01*
X174427257Y-102416402D01*
X174473034Y-102376735D01*
X174548803Y-102338129D01*
X174715430Y-102217068D01*
X174861068Y-102071430D01*
X174982129Y-101904803D01*
X175075634Y-101721290D01*
X175139280Y-101525408D01*
X175171500Y-101321981D01*
X175171500Y-101116019D01*
X175139280Y-100912592D01*
X175075634Y-100716710D01*
X174982129Y-100533197D01*
X174861068Y-100366570D01*
X174861065Y-100366567D01*
X174861063Y-100366564D01*
X174715435Y-100220936D01*
X174715432Y-100220934D01*
X174715430Y-100220932D01*
X174548803Y-100099871D01*
X174365290Y-100006366D01*
X174365287Y-100006365D01*
X174365285Y-100006364D01*
X174169412Y-99942721D01*
X174169410Y-99942720D01*
X174169408Y-99942720D01*
X173965981Y-99910500D01*
X173760019Y-99910500D01*
X173556592Y-99942720D01*
X173556590Y-99942720D01*
X173556587Y-99942721D01*
X173360714Y-100006364D01*
X173360708Y-100006367D01*
X173177193Y-100099873D01*
X173010567Y-100220934D01*
X173010564Y-100220936D01*
X172864936Y-100366564D01*
X172864934Y-100366567D01*
X172743873Y-100533193D01*
X172650367Y-100716708D01*
X172650364Y-100716714D01*
X172586721Y-100912587D01*
X172586720Y-100912590D01*
X172586720Y-100912592D01*
X172554500Y-101116019D01*
X172554500Y-101321981D01*
X172585246Y-101516100D01*
X172586721Y-101525412D01*
X172635773Y-101676380D01*
X172650366Y-101721290D01*
X172743871Y-101904803D01*
X172864932Y-102071430D01*
X172864934Y-102071432D01*
X172864936Y-102071435D01*
X173010564Y-102217063D01*
X173010567Y-102217065D01*
X173010570Y-102217068D01*
X173177197Y-102338129D01*
X173252962Y-102376733D01*
X173304577Y-102425482D01*
X173321643Y-102494397D01*
X173298742Y-102561598D01*
X173252963Y-102601266D01*
X173184033Y-102636387D01*
X173177193Y-102639873D01*
X173010567Y-102760934D01*
X173010564Y-102760936D01*
X172864936Y-102906564D01*
X172864934Y-102906567D01*
X172743873Y-103073193D01*
X172650367Y-103256708D01*
X172650364Y-103256714D01*
X172586721Y-103452587D01*
X172586720Y-103452590D01*
X172586720Y-103452592D01*
X172554500Y-103656019D01*
X172554500Y-103861981D01*
X172586720Y-104065408D01*
X172586721Y-104065412D01*
X172648711Y-104256198D01*
X172650366Y-104261290D01*
X172743871Y-104444803D01*
X172864932Y-104611430D01*
X172864934Y-104611432D01*
X172864936Y-104611435D01*
X173010564Y-104757063D01*
X173010567Y-104757065D01*
X173010570Y-104757068D01*
X173177197Y-104878129D01*
X173252962Y-104916733D01*
X173304577Y-104965482D01*
X173321643Y-105034397D01*
X173298742Y-105101598D01*
X173252963Y-105141266D01*
X173184147Y-105176330D01*
X173177193Y-105179873D01*
X173010567Y-105300934D01*
X173010564Y-105300936D01*
X172864936Y-105446564D01*
X172864934Y-105446567D01*
X172743872Y-105613194D01*
X172741283Y-105617420D01*
X172740057Y-105616669D01*
X172695734Y-105663580D01*
X172656820Y-105678326D01*
X172598915Y-105689845D01*
X172598910Y-105689846D01*
X172598907Y-105689847D01*
X172565147Y-105703830D01*
X172565147Y-105703831D01*
X172510654Y-105726403D01*
X172483625Y-105737599D01*
X172379867Y-105806927D01*
X172379861Y-105806932D01*
X168748201Y-109438595D01*
X168685889Y-109472620D01*
X168659106Y-109475500D01*
X159965451Y-109475500D01*
X159897330Y-109455498D01*
X159850837Y-109401842D01*
X159840733Y-109331568D01*
X159845618Y-109310564D01*
X159879808Y-109205337D01*
X159899280Y-109145408D01*
X159931500Y-108941981D01*
X159931500Y-108736019D01*
X159899280Y-108532592D01*
X159875500Y-108459404D01*
X159845618Y-108367436D01*
X159843591Y-108296468D01*
X159880253Y-108235671D01*
X159943965Y-108204345D01*
X159965451Y-108202500D01*
X166098693Y-108202500D01*
X166098694Y-108202500D01*
X166221085Y-108178155D01*
X166336375Y-108130400D01*
X166440133Y-108061071D01*
X168958599Y-105542605D01*
X169020911Y-105508579D01*
X169047694Y-105505700D01*
X169097578Y-105505700D01*
X169097579Y-105505700D01*
X169273100Y-105470787D01*
X169438436Y-105402302D01*
X169587235Y-105302878D01*
X169713778Y-105176335D01*
X169813202Y-105027536D01*
X169881687Y-104862200D01*
X169916600Y-104686679D01*
X169916600Y-104507721D01*
X169881687Y-104332200D01*
X169813202Y-104166864D01*
X169713778Y-104018065D01*
X169587235Y-103891522D01*
X169438436Y-103792098D01*
X169321529Y-103743673D01*
X169273103Y-103723614D01*
X169273101Y-103723613D01*
X169273100Y-103723613D01*
X169184745Y-103706038D01*
X169097581Y-103688700D01*
X169097579Y-103688700D01*
X168918621Y-103688700D01*
X168918618Y-103688700D01*
X168787871Y-103714707D01*
X168743100Y-103723613D01*
X168743099Y-103723613D01*
X168743096Y-103723614D01*
X168577762Y-103792099D01*
X168428969Y-103891519D01*
X168428962Y-103891524D01*
X168302424Y-104018062D01*
X168302419Y-104018069D01*
X168202999Y-104166862D01*
X168134514Y-104332196D01*
X168099600Y-104507718D01*
X168099600Y-104557606D01*
X168079598Y-104625727D01*
X168062695Y-104646701D01*
X165810801Y-106898595D01*
X165748489Y-106932621D01*
X165721706Y-106935500D01*
X159965451Y-106935500D01*
X159897330Y-106915498D01*
X159850837Y-106861842D01*
X159840733Y-106791568D01*
X159845618Y-106770564D01*
X159868096Y-106701380D01*
X159899280Y-106605408D01*
X159931500Y-106401981D01*
X159931500Y-106196019D01*
X159899280Y-105992592D01*
X159835634Y-105796710D01*
X159799809Y-105726401D01*
X159786706Y-105656626D01*
X159813406Y-105590842D01*
X159871433Y-105549935D01*
X159912077Y-105543200D01*
X161132693Y-105543200D01*
X161132694Y-105543200D01*
X161255085Y-105518855D01*
X161370375Y-105471100D01*
X161474133Y-105401771D01*
X170060506Y-96815396D01*
X170122816Y-96781372D01*
X170193631Y-96786437D01*
X170225109Y-96803626D01*
X170226796Y-96804889D01*
X170226799Y-96804890D01*
X170363795Y-96855988D01*
X170363803Y-96855990D01*
X170424350Y-96862499D01*
X170424355Y-96862499D01*
X170424362Y-96862500D01*
X170424368Y-96862500D01*
X172221632Y-96862500D01*
X172221638Y-96862500D01*
X172221645Y-96862499D01*
X172221649Y-96862499D01*
X172282196Y-96855990D01*
X172282199Y-96855989D01*
X172282201Y-96855989D01*
X172419204Y-96804889D01*
X172425769Y-96799975D01*
X172536261Y-96717261D01*
X172623887Y-96600207D01*
X172623887Y-96600206D01*
X172623889Y-96600204D01*
X172674989Y-96463201D01*
X172675484Y-96458603D01*
X172681499Y-96402649D01*
X172681500Y-96402632D01*
X172681500Y-94605367D01*
X172681499Y-94605350D01*
X172674990Y-94544803D01*
X172674988Y-94544795D01*
X172623889Y-94407797D01*
X172623887Y-94407792D01*
X172536261Y-94290738D01*
X172419207Y-94203112D01*
X172419202Y-94203110D01*
X172282204Y-94152011D01*
X172282196Y-94152009D01*
X172221649Y-94145500D01*
X172221638Y-94145500D01*
X170424362Y-94145500D01*
X170424350Y-94145500D01*
X170363803Y-94152009D01*
X170363795Y-94152011D01*
X170226797Y-94203110D01*
X170226792Y-94203112D01*
X170109738Y-94290738D01*
X170022112Y-94407792D01*
X170022110Y-94407797D01*
X169978131Y-94525708D01*
X169935584Y-94582544D01*
X169869064Y-94607354D01*
X169799690Y-94592262D01*
X169770981Y-94570770D01*
X169668009Y-94467798D01*
X169668006Y-94467796D01*
X169668004Y-94467794D01*
X169495601Y-94342536D01*
X169495012Y-94342108D01*
X169495011Y-94342107D01*
X169495009Y-94342106D01*
X169304483Y-94245028D01*
X169304480Y-94245027D01*
X169304478Y-94245026D01*
X169101120Y-94178952D01*
X169101123Y-94178952D01*
X169030680Y-94167795D01*
X168889916Y-94145500D01*
X168676084Y-94145500D01*
X168464884Y-94178951D01*
X168464878Y-94178952D01*
X168261521Y-94245026D01*
X168261515Y-94245029D01*
X168070987Y-94342108D01*
X167897993Y-94467796D01*
X167897990Y-94467798D01*
X167746798Y-94618990D01*
X167746796Y-94618993D01*
X167621108Y-94791987D01*
X167620434Y-94793088D01*
X167620068Y-94793418D01*
X167618196Y-94795996D01*
X167617654Y-94795602D01*
X167567787Y-94840721D01*
X167497745Y-94852328D01*
X167432547Y-94824226D01*
X167407976Y-94795870D01*
X167407804Y-94795996D01*
X167406341Y-94793982D01*
X167405566Y-94793088D01*
X167404896Y-94791996D01*
X167404894Y-94791991D01*
X167279206Y-94618996D01*
X167279203Y-94618993D01*
X167279201Y-94618990D01*
X167128009Y-94467798D01*
X167128006Y-94467796D01*
X167128004Y-94467794D01*
X166955601Y-94342536D01*
X166955012Y-94342108D01*
X166955011Y-94342107D01*
X166955009Y-94342106D01*
X166764483Y-94245028D01*
X166764480Y-94245027D01*
X166764478Y-94245026D01*
X166561120Y-94178952D01*
X166561123Y-94178952D01*
X166490680Y-94167795D01*
X166349916Y-94145500D01*
X166136084Y-94145500D01*
X165924884Y-94178951D01*
X165924878Y-94178952D01*
X165721521Y-94245026D01*
X165721515Y-94245029D01*
X165530987Y-94342108D01*
X165357993Y-94467796D01*
X165357990Y-94467798D01*
X165206798Y-94618990D01*
X165206796Y-94618993D01*
X165081108Y-94791987D01*
X165080434Y-94793088D01*
X165080068Y-94793418D01*
X165078196Y-94795996D01*
X165077654Y-94795602D01*
X165027787Y-94840721D01*
X164957745Y-94852328D01*
X164892547Y-94824226D01*
X164867976Y-94795870D01*
X164867804Y-94795996D01*
X164866341Y-94793982D01*
X164865566Y-94793088D01*
X164864896Y-94791996D01*
X164864894Y-94791991D01*
X164739206Y-94618996D01*
X164739203Y-94618993D01*
X164739201Y-94618990D01*
X164588009Y-94467798D01*
X164588006Y-94467796D01*
X164588004Y-94467794D01*
X164415601Y-94342536D01*
X164415012Y-94342108D01*
X164415011Y-94342107D01*
X164415009Y-94342106D01*
X164224483Y-94245028D01*
X164224480Y-94245027D01*
X164224478Y-94245026D01*
X164021120Y-94178952D01*
X164021123Y-94178952D01*
X163950680Y-94167795D01*
X163809916Y-94145500D01*
X163596084Y-94145500D01*
X163384884Y-94178951D01*
X163384878Y-94178952D01*
X163181521Y-94245026D01*
X163181515Y-94245029D01*
X162990987Y-94342108D01*
X162817993Y-94467796D01*
X162817990Y-94467798D01*
X162666798Y-94618990D01*
X162666796Y-94618993D01*
X162541108Y-94791987D01*
X162540434Y-94793088D01*
X162540068Y-94793418D01*
X162538196Y-94795996D01*
X162537654Y-94795602D01*
X162487787Y-94840721D01*
X162417745Y-94852328D01*
X162352547Y-94824226D01*
X162327976Y-94795870D01*
X162327804Y-94795996D01*
X162326341Y-94793982D01*
X162325566Y-94793088D01*
X162324896Y-94791996D01*
X162324894Y-94791991D01*
X162199206Y-94618996D01*
X162199203Y-94618993D01*
X162199201Y-94618990D01*
X162048009Y-94467798D01*
X162048006Y-94467796D01*
X162048004Y-94467794D01*
X161875601Y-94342536D01*
X161875012Y-94342108D01*
X161875011Y-94342107D01*
X161875009Y-94342106D01*
X161684483Y-94245028D01*
X161684480Y-94245027D01*
X161684478Y-94245026D01*
X161481120Y-94178952D01*
X161481123Y-94178952D01*
X161410680Y-94167795D01*
X161269916Y-94145500D01*
X161056084Y-94145500D01*
X160844884Y-94178951D01*
X160844878Y-94178952D01*
X160641521Y-94245026D01*
X160641515Y-94245029D01*
X160450987Y-94342108D01*
X160277993Y-94467796D01*
X160277990Y-94467798D01*
X160126798Y-94618990D01*
X160126796Y-94618993D01*
X160001100Y-94791998D01*
X160000131Y-94793580D01*
X159999606Y-94794054D01*
X159998196Y-94795996D01*
X159997787Y-94795699D01*
X159947479Y-94841206D01*
X159877437Y-94852807D01*
X159812242Y-94824697D01*
X159787514Y-94796157D01*
X159787376Y-94796258D01*
X159786199Y-94794639D01*
X159785270Y-94793566D01*
X159784461Y-94792247D01*
X159746378Y-94739831D01*
X159107157Y-95379051D01*
X159088925Y-95311007D01*
X159023099Y-95196993D01*
X158930007Y-95103901D01*
X158815993Y-95038075D01*
X158747947Y-95019841D01*
X159387168Y-94380621D01*
X159387167Y-94380620D01*
X159334750Y-94342536D01*
X159334748Y-94342535D01*
X159144292Y-94245493D01*
X159144286Y-94245490D01*
X158941003Y-94179440D01*
X158729874Y-94146000D01*
X158516126Y-94146000D01*
X158304996Y-94179440D01*
X158101713Y-94245490D01*
X158101707Y-94245493D01*
X157911253Y-94342534D01*
X157858831Y-94380621D01*
X157858831Y-94380622D01*
X158498051Y-95019842D01*
X158430007Y-95038075D01*
X158315993Y-95103901D01*
X158222901Y-95196993D01*
X158157075Y-95311007D01*
X158138842Y-95379051D01*
X157499622Y-94739831D01*
X157499621Y-94739831D01*
X157461534Y-94792253D01*
X157364493Y-94982707D01*
X157364490Y-94982713D01*
X157298440Y-95185996D01*
X157265000Y-95397126D01*
X157265000Y-95610873D01*
X157298440Y-95822003D01*
X157364490Y-96025286D01*
X157364493Y-96025292D01*
X157461535Y-96215748D01*
X157461536Y-96215750D01*
X157499620Y-96268167D01*
X157499621Y-96268168D01*
X158138841Y-95628947D01*
X158157075Y-95696993D01*
X158222901Y-95811007D01*
X158315993Y-95904099D01*
X158430007Y-95969925D01*
X158498051Y-95988157D01*
X157858831Y-96627378D01*
X157911249Y-96665463D01*
X157911251Y-96665464D01*
X158101707Y-96762506D01*
X158101713Y-96762509D01*
X158304996Y-96828559D01*
X158516126Y-96862000D01*
X158729874Y-96862000D01*
X158941003Y-96828559D01*
X159144286Y-96762509D01*
X159144292Y-96762506D01*
X159334750Y-96665463D01*
X159387167Y-96627378D01*
X159387167Y-96627376D01*
X158747948Y-95988157D01*
X158815993Y-95969925D01*
X158930007Y-95904099D01*
X159023099Y-95811007D01*
X159088925Y-95696993D01*
X159107157Y-95628948D01*
X159746376Y-96268167D01*
X159746378Y-96268167D01*
X159784459Y-96215756D01*
X159785259Y-96214451D01*
X159785694Y-96214057D01*
X159787377Y-96211741D01*
X159787863Y-96212094D01*
X159837897Y-96166809D01*
X159907936Y-96155188D01*
X159973140Y-96183278D01*
X159998097Y-96212075D01*
X159998196Y-96212004D01*
X159999025Y-96213145D01*
X160000136Y-96214427D01*
X160001103Y-96216006D01*
X160065807Y-96305062D01*
X160126794Y-96389004D01*
X160126796Y-96389006D01*
X160126798Y-96389009D01*
X160277990Y-96540201D01*
X160277993Y-96540203D01*
X160277996Y-96540206D01*
X160450991Y-96665894D01*
X160641517Y-96762972D01*
X160844878Y-96829047D01*
X160844879Y-96829047D01*
X160844884Y-96829049D01*
X161056084Y-96862500D01*
X161056087Y-96862500D01*
X161269913Y-96862500D01*
X161269916Y-96862500D01*
X161481116Y-96829049D01*
X161684483Y-96762972D01*
X161875009Y-96665894D01*
X162048004Y-96540206D01*
X162199206Y-96389004D01*
X162324894Y-96216009D01*
X162324899Y-96215997D01*
X162325561Y-96214920D01*
X162325924Y-96214591D01*
X162327804Y-96212004D01*
X162328347Y-96212398D01*
X162378204Y-96167283D01*
X162448244Y-96155670D01*
X162513445Y-96183766D01*
X162538021Y-96212130D01*
X162538196Y-96212004D01*
X162539668Y-96214030D01*
X162540439Y-96214920D01*
X162541104Y-96216006D01*
X162541106Y-96216009D01*
X162666794Y-96389004D01*
X162666796Y-96389006D01*
X162666798Y-96389009D01*
X162817990Y-96540201D01*
X162817993Y-96540203D01*
X162817996Y-96540206D01*
X162990991Y-96665894D01*
X163181517Y-96762972D01*
X163384878Y-96829047D01*
X163384879Y-96829047D01*
X163384884Y-96829049D01*
X163596084Y-96862500D01*
X163596087Y-96862500D01*
X163809913Y-96862500D01*
X163809916Y-96862500D01*
X164021116Y-96829049D01*
X164224483Y-96762972D01*
X164415009Y-96665894D01*
X164588004Y-96540206D01*
X164739206Y-96389004D01*
X164864894Y-96216009D01*
X164864899Y-96215997D01*
X164865561Y-96214920D01*
X164865924Y-96214591D01*
X164867804Y-96212004D01*
X164868347Y-96212398D01*
X164918204Y-96167283D01*
X164988244Y-96155670D01*
X165053445Y-96183766D01*
X165078021Y-96212130D01*
X165078196Y-96212004D01*
X165079668Y-96214030D01*
X165080439Y-96214920D01*
X165081104Y-96216006D01*
X165081106Y-96216009D01*
X165206794Y-96389004D01*
X165206796Y-96389006D01*
X165206798Y-96389009D01*
X165357990Y-96540201D01*
X165357993Y-96540203D01*
X165357996Y-96540206D01*
X165530991Y-96665894D01*
X165721517Y-96762972D01*
X165924878Y-96829047D01*
X165924879Y-96829047D01*
X165924884Y-96829049D01*
X166136084Y-96862500D01*
X166136087Y-96862500D01*
X166349913Y-96862500D01*
X166349916Y-96862500D01*
X166561116Y-96829049D01*
X166764483Y-96762972D01*
X166955009Y-96665894D01*
X167128004Y-96540206D01*
X167279206Y-96389004D01*
X167404894Y-96216009D01*
X167404899Y-96215997D01*
X167405561Y-96214920D01*
X167405924Y-96214591D01*
X167407804Y-96212004D01*
X167408347Y-96212398D01*
X167458204Y-96167283D01*
X167528244Y-96155670D01*
X167593445Y-96183766D01*
X167618021Y-96212130D01*
X167618196Y-96212004D01*
X167619668Y-96214030D01*
X167620439Y-96214920D01*
X167621104Y-96216006D01*
X167621106Y-96216009D01*
X167746794Y-96389004D01*
X167746796Y-96389006D01*
X167746798Y-96389009D01*
X167897990Y-96540201D01*
X167897993Y-96540203D01*
X167897996Y-96540206D01*
X168070991Y-96665894D01*
X168146483Y-96704359D01*
X168198097Y-96753106D01*
X168215163Y-96822021D01*
X168192262Y-96889223D01*
X168178374Y-96905720D01*
X160844801Y-104239295D01*
X160782489Y-104273321D01*
X160755706Y-104276200D01*
X160004214Y-104276200D01*
X159936093Y-104256198D01*
X159889600Y-104202542D01*
X159879496Y-104132268D01*
X159884381Y-104111264D01*
X159890841Y-104091378D01*
X159899280Y-104065408D01*
X159931500Y-103861981D01*
X159931500Y-103656019D01*
X159899280Y-103452592D01*
X159835634Y-103256710D01*
X159742129Y-103073197D01*
X159621068Y-102906570D01*
X159621065Y-102906567D01*
X159621063Y-102906564D01*
X159475435Y-102760936D01*
X159475432Y-102760934D01*
X159475431Y-102760933D01*
X159475430Y-102760932D01*
X159397013Y-102703959D01*
X159353660Y-102647738D01*
X159347585Y-102577002D01*
X159380716Y-102514210D01*
X159431440Y-102482420D01*
X159495738Y-102461115D01*
X159646652Y-102368030D01*
X159772030Y-102242652D01*
X159865115Y-102091738D01*
X159920887Y-101923426D01*
X159931500Y-101819545D01*
X159931499Y-100618456D01*
X159920887Y-100514574D01*
X159865115Y-100346262D01*
X159772030Y-100195348D01*
X159772029Y-100195347D01*
X159772024Y-100195341D01*
X159646658Y-100069975D01*
X159646652Y-100069970D01*
X159629981Y-100059687D01*
X159495738Y-99976885D01*
X159374752Y-99936795D01*
X159327427Y-99921113D01*
X159327420Y-99921112D01*
X159223553Y-99910500D01*
X158022455Y-99910500D01*
X157918574Y-99921112D01*
X157750261Y-99976885D01*
X157599347Y-100069970D01*
X157599341Y-100069975D01*
X157473975Y-100195341D01*
X157473970Y-100195347D01*
X157380885Y-100346262D01*
X157325113Y-100514572D01*
X157325112Y-100514579D01*
X157314500Y-100618446D01*
X157314500Y-101819544D01*
X157325112Y-101923425D01*
X157380885Y-102091738D01*
X157473970Y-102242652D01*
X157473975Y-102242658D01*
X157599341Y-102368024D01*
X157599347Y-102368029D01*
X157599348Y-102368030D01*
X157750262Y-102461115D01*
X157814557Y-102482419D01*
X157872928Y-102522833D01*
X157900184Y-102588389D01*
X157887671Y-102658274D01*
X157848985Y-102703960D01*
X157770567Y-102760933D01*
X157624936Y-102906564D01*
X157624934Y-102906567D01*
X157503873Y-103073193D01*
X157410367Y-103256708D01*
X157410364Y-103256714D01*
X157346721Y-103452587D01*
X157346720Y-103452590D01*
X157346720Y-103452592D01*
X157314500Y-103656019D01*
X157314500Y-103861981D01*
X157346720Y-104065408D01*
X157346721Y-104065412D01*
X157408711Y-104256198D01*
X157410366Y-104261290D01*
X157503871Y-104444803D01*
X157624932Y-104611430D01*
X157624934Y-104611432D01*
X157624936Y-104611435D01*
X157653452Y-104639951D01*
X157687478Y-104702263D01*
X157682413Y-104773078D01*
X157653452Y-104818141D01*
X155433467Y-107038129D01*
X155345231Y-107126364D01*
X155345226Y-107126371D01*
X155275901Y-107230123D01*
X155228146Y-107345412D01*
X155203800Y-107467803D01*
X155203800Y-107852197D01*
X155183798Y-107920318D01*
X155166895Y-107941292D01*
X155131624Y-107976562D01*
X155131619Y-107976569D01*
X155032199Y-108125362D01*
X154963714Y-108290696D01*
X154963713Y-108290699D01*
X154963713Y-108290700D01*
X154954807Y-108335471D01*
X154928800Y-108466218D01*
X154928800Y-108466221D01*
X154928800Y-108645179D01*
X154963713Y-108820700D01*
X155032198Y-108986036D01*
X155131622Y-109134835D01*
X155258165Y-109261378D01*
X155406964Y-109360802D01*
X155415911Y-109364508D01*
X155416051Y-109364566D01*
X155471331Y-109409116D01*
X155493750Y-109476480D01*
X155476190Y-109545271D01*
X155456925Y-109570069D01*
X153586799Y-111440196D01*
X153524489Y-111474220D01*
X153497706Y-111477100D01*
X152110000Y-111477100D01*
X151987617Y-111501444D01*
X151987609Y-111501446D01*
X151953847Y-111515430D01*
X151953847Y-111515431D01*
X151872325Y-111549199D01*
X151768571Y-111618525D01*
X151768564Y-111618530D01*
X142614355Y-120772739D01*
X142552043Y-120806765D01*
X142481228Y-120801700D01*
X142424392Y-120759153D01*
X142408851Y-120731863D01*
X142406793Y-120726895D01*
X142346802Y-120582064D01*
X142247378Y-120433265D01*
X142204705Y-120390592D01*
X142170679Y-120328280D01*
X142167800Y-120301497D01*
X142167800Y-117005500D01*
X142187802Y-116937379D01*
X142241458Y-116890886D01*
X142293800Y-116879500D01*
X142303078Y-116879500D01*
X142303079Y-116879500D01*
X142478600Y-116844587D01*
X142643936Y-116776102D01*
X142792735Y-116676678D01*
X142919278Y-116550135D01*
X143018702Y-116401336D01*
X143087187Y-116236000D01*
X143098492Y-116179164D01*
X143131398Y-116116258D01*
X143193093Y-116081125D01*
X143263988Y-116084925D01*
X143321574Y-116126450D01*
X143326835Y-116133746D01*
X143395158Y-116236000D01*
X143398122Y-116240435D01*
X143524665Y-116366978D01*
X143673464Y-116466402D01*
X143838800Y-116534887D01*
X144014321Y-116569800D01*
X144014322Y-116569800D01*
X144193278Y-116569800D01*
X144193279Y-116569800D01*
X144368800Y-116534887D01*
X144534136Y-116466402D01*
X144682935Y-116366978D01*
X144726056Y-116323856D01*
X144788363Y-116289834D01*
X144790536Y-116289381D01*
X144885685Y-116270455D01*
X145000975Y-116222700D01*
X145104733Y-116153371D01*
X152892072Y-108366033D01*
X152961401Y-108262275D01*
X153009155Y-108146984D01*
X153010673Y-108139355D01*
X153033500Y-108024594D01*
X153033500Y-91899328D01*
X153053502Y-91831207D01*
X153085440Y-91797391D01*
X153085795Y-91797133D01*
X153085803Y-91797129D01*
X153252430Y-91676068D01*
X153398068Y-91530430D01*
X153519129Y-91363803D01*
X153612634Y-91180290D01*
X153676280Y-90984408D01*
X153708500Y-90780981D01*
X153708500Y-90575019D01*
X153676280Y-90371592D01*
X153612634Y-90175710D01*
X153519129Y-89992197D01*
X153398068Y-89825570D01*
X153398065Y-89825567D01*
X153398063Y-89825564D01*
X153252435Y-89679936D01*
X153252432Y-89679934D01*
X153252430Y-89679932D01*
X153105602Y-89573256D01*
X153085806Y-89558873D01*
X153085805Y-89558872D01*
X153085803Y-89558871D01*
X152902290Y-89465366D01*
X152902287Y-89465365D01*
X152902285Y-89465364D01*
X152706412Y-89401721D01*
X152706410Y-89401720D01*
X152706408Y-89401720D01*
X152502981Y-89369500D01*
X152297019Y-89369500D01*
X152093592Y-89401720D01*
X152093590Y-89401720D01*
X152093587Y-89401721D01*
X151897714Y-89465364D01*
X151897708Y-89465367D01*
X151714193Y-89558873D01*
X151547567Y-89679934D01*
X151547564Y-89679936D01*
X151401936Y-89825564D01*
X151401934Y-89825567D01*
X151280873Y-89992193D01*
X151242267Y-90067962D01*
X151193518Y-90119577D01*
X151124603Y-90136643D01*
X151057402Y-90113742D01*
X151017733Y-90067962D01*
X151016117Y-90064790D01*
X150979129Y-89992197D01*
X150858068Y-89825570D01*
X150858065Y-89825567D01*
X150858063Y-89825564D01*
X150782646Y-89750147D01*
X150748620Y-89687835D01*
X150753685Y-89617020D01*
X150782644Y-89571959D01*
X151774371Y-88580233D01*
X151843700Y-88476475D01*
X151891455Y-88361185D01*
X151915800Y-88238794D01*
X151915800Y-88114006D01*
X151915800Y-85589206D01*
X151891455Y-85466815D01*
X151843700Y-85351525D01*
X151774371Y-85247767D01*
X151686133Y-85159529D01*
X151510805Y-84984201D01*
X151476779Y-84921889D01*
X151473900Y-84895106D01*
X151473900Y-84311018D01*
X151493902Y-84242897D01*
X151547558Y-84196404D01*
X151617832Y-84186300D01*
X151673963Y-84209083D01*
X151688252Y-84219465D01*
X151878707Y-84316506D01*
X151878713Y-84316509D01*
X152081996Y-84382559D01*
X152293126Y-84416000D01*
X152506874Y-84416000D01*
X152718003Y-84382559D01*
X152921286Y-84316509D01*
X152921292Y-84316506D01*
X153111750Y-84219463D01*
X153164167Y-84181378D01*
X153164167Y-84181377D01*
X152524947Y-83542158D01*
X152592993Y-83523925D01*
X152707007Y-83458099D01*
X152800099Y-83365007D01*
X152865925Y-83250993D01*
X152884157Y-83182948D01*
X153523376Y-83822167D01*
X153523378Y-83822167D01*
X153561463Y-83769750D01*
X153658506Y-83579292D01*
X153658509Y-83579286D01*
X153724559Y-83376003D01*
X153758000Y-83164873D01*
X153758000Y-82951126D01*
X153724559Y-82739996D01*
X153658509Y-82536713D01*
X153658506Y-82536707D01*
X153561464Y-82346251D01*
X153561463Y-82346249D01*
X153523378Y-82293831D01*
X152884157Y-82933051D01*
X152865925Y-82865007D01*
X152800099Y-82750993D01*
X152707007Y-82657901D01*
X152592993Y-82592075D01*
X152524947Y-82573841D01*
X153164168Y-81934621D01*
X153164167Y-81934620D01*
X153111750Y-81896536D01*
X153110428Y-81895726D01*
X153110030Y-81895286D01*
X153107742Y-81893624D01*
X153108091Y-81893143D01*
X153062797Y-81843078D01*
X153051191Y-81773036D01*
X153079295Y-81707839D01*
X153108075Y-81682903D01*
X153108004Y-81682804D01*
X153109158Y-81681965D01*
X153110441Y-81680854D01*
X153111992Y-81679902D01*
X153112009Y-81679894D01*
X153285004Y-81554206D01*
X153436206Y-81403004D01*
X153561894Y-81230009D01*
X153658972Y-81039483D01*
X153725049Y-80836116D01*
X153758500Y-80624916D01*
X153758500Y-80411084D01*
X153725049Y-80199884D01*
X153658972Y-79996517D01*
X153614496Y-79909230D01*
X153601393Y-79839456D01*
X153628093Y-79773671D01*
X153637660Y-79762942D01*
X154474771Y-78925833D01*
X154544100Y-78822075D01*
X154591855Y-78706785D01*
X154616200Y-78584394D01*
X154616200Y-78459606D01*
X154616200Y-77962994D01*
X154636202Y-77894873D01*
X154689858Y-77848380D01*
X154760132Y-77838276D01*
X154824712Y-77867770D01*
X154831293Y-77873897D01*
X155662481Y-78705086D01*
X156486203Y-79528808D01*
X156520229Y-79591120D01*
X156515164Y-79661936D01*
X156509375Y-79675105D01*
X156475029Y-79742512D01*
X156408952Y-79945878D01*
X156408951Y-79945883D01*
X156408951Y-79945884D01*
X156375500Y-80157084D01*
X156375500Y-80370916D01*
X156404308Y-80552799D01*
X156408952Y-80582121D01*
X156475026Y-80785478D01*
X156475028Y-80785483D01*
X156563145Y-80958422D01*
X156572108Y-80976012D01*
X156603182Y-81018781D01*
X156697794Y-81149004D01*
X156697796Y-81149006D01*
X156697798Y-81149009D01*
X156848990Y-81300201D01*
X156848993Y-81300203D01*
X156848996Y-81300206D01*
X157021991Y-81425894D01*
X157021996Y-81425896D01*
X157023088Y-81426566D01*
X157023418Y-81426931D01*
X157025996Y-81428804D01*
X157025602Y-81429345D01*
X157070721Y-81479213D01*
X157082328Y-81549255D01*
X157054226Y-81614453D01*
X157025870Y-81639023D01*
X157025996Y-81639196D01*
X157023982Y-81640658D01*
X157023088Y-81641434D01*
X157021987Y-81642108D01*
X156848993Y-81767796D01*
X156848990Y-81767798D01*
X156697798Y-81918990D01*
X156697796Y-81918993D01*
X156572108Y-82091987D01*
X156475029Y-82282515D01*
X156475026Y-82282521D01*
X156408952Y-82485878D01*
X156408951Y-82485883D01*
X156408951Y-82485884D01*
X156375500Y-82697084D01*
X156375500Y-82910916D01*
X156408589Y-83119832D01*
X156408952Y-83122121D01*
X156466163Y-83298199D01*
X156475028Y-83325483D01*
X156550908Y-83474405D01*
X156572108Y-83516012D01*
X156577857Y-83523925D01*
X156697794Y-83689004D01*
X156697796Y-83689006D01*
X156697798Y-83689009D01*
X156848990Y-83840201D01*
X156848993Y-83840203D01*
X156848996Y-83840206D01*
X157021991Y-83965894D01*
X157021996Y-83965896D01*
X157023088Y-83966566D01*
X157023418Y-83966931D01*
X157025996Y-83968804D01*
X157025602Y-83969345D01*
X157070721Y-84019213D01*
X157082328Y-84089255D01*
X157054226Y-84154453D01*
X157025870Y-84179023D01*
X157025996Y-84179196D01*
X157023982Y-84180658D01*
X157023088Y-84181434D01*
X157021987Y-84182108D01*
X156848993Y-84307796D01*
X156848990Y-84307798D01*
X156697798Y-84458990D01*
X156697796Y-84458993D01*
X156572108Y-84631987D01*
X156475029Y-84822515D01*
X156475026Y-84822521D01*
X156408952Y-85025878D01*
X156408951Y-85025883D01*
X156408951Y-85025884D01*
X156375500Y-85237084D01*
X156375500Y-85450916D01*
X156408951Y-85662116D01*
X156408952Y-85662121D01*
X156428591Y-85722564D01*
X156475028Y-85865483D01*
X156572106Y-86056009D01*
X156697794Y-86229004D01*
X156697796Y-86229006D01*
X156697798Y-86229009D01*
X156848990Y-86380201D01*
X156848993Y-86380203D01*
X156848996Y-86380206D01*
X157021991Y-86505894D01*
X157021996Y-86505896D01*
X157023088Y-86506566D01*
X157023418Y-86506931D01*
X157025996Y-86508804D01*
X157025602Y-86509345D01*
X157070721Y-86559213D01*
X157082328Y-86629255D01*
X157054226Y-86694453D01*
X157025870Y-86719023D01*
X157025996Y-86719196D01*
X157023982Y-86720658D01*
X157023088Y-86721434D01*
X157021987Y-86722108D01*
X156848993Y-86847796D01*
X156848990Y-86847798D01*
X156697798Y-86998990D01*
X156697796Y-86998993D01*
X156572108Y-87171987D01*
X156475029Y-87362515D01*
X156475026Y-87362521D01*
X156408952Y-87565878D01*
X156408951Y-87565883D01*
X156408951Y-87565884D01*
X156375500Y-87777084D01*
X156375500Y-87990916D01*
X156392952Y-88101100D01*
X156408952Y-88202121D01*
X156475026Y-88405478D01*
X156475028Y-88405483D01*
X156564068Y-88580233D01*
X156572108Y-88596012D01*
X156598751Y-88632683D01*
X156697794Y-88769004D01*
X156697796Y-88769006D01*
X156697798Y-88769009D01*
X156848990Y-88920201D01*
X156848993Y-88920203D01*
X156848996Y-88920206D01*
X157021991Y-89045894D01*
X157022001Y-89045899D01*
X157023567Y-89046859D01*
X157024042Y-89047384D01*
X157025996Y-89048804D01*
X157025697Y-89049214D01*
X157071200Y-89099505D01*
X157082808Y-89169546D01*
X157054707Y-89234745D01*
X157026157Y-89259484D01*
X157026259Y-89259624D01*
X157024639Y-89260800D01*
X157023574Y-89261724D01*
X157022261Y-89262528D01*
X156969831Y-89300621D01*
X156969831Y-89300622D01*
X157609051Y-89939842D01*
X157541007Y-89958075D01*
X157426993Y-90023901D01*
X157333901Y-90116993D01*
X157268075Y-90231007D01*
X157249842Y-90299051D01*
X156610622Y-89659831D01*
X156610621Y-89659831D01*
X156572534Y-89712253D01*
X156475493Y-89902707D01*
X156475490Y-89902713D01*
X156409440Y-90105996D01*
X156376000Y-90317126D01*
X156376000Y-90530873D01*
X156409440Y-90742003D01*
X156475490Y-90945286D01*
X156475493Y-90945292D01*
X156572535Y-91135748D01*
X156572536Y-91135750D01*
X156610620Y-91188167D01*
X156610621Y-91188168D01*
X157249841Y-90548947D01*
X157268075Y-90616993D01*
X157333901Y-90731007D01*
X157426993Y-90824099D01*
X157541007Y-90889925D01*
X157609051Y-90908157D01*
X156969831Y-91547378D01*
X157022249Y-91585463D01*
X157022251Y-91585464D01*
X157212707Y-91682506D01*
X157212713Y-91682509D01*
X157415996Y-91748559D01*
X157627126Y-91782000D01*
X157840874Y-91782000D01*
X158052003Y-91748559D01*
X158255286Y-91682509D01*
X158255292Y-91682506D01*
X158445750Y-91585463D01*
X158498167Y-91547378D01*
X158498167Y-91547376D01*
X157858948Y-90908157D01*
X157926993Y-90889925D01*
X158041007Y-90824099D01*
X158134099Y-90731007D01*
X158199925Y-90616993D01*
X158218157Y-90548948D01*
X158857376Y-91188167D01*
X158857378Y-91188167D01*
X158895463Y-91135750D01*
X158992506Y-90945292D01*
X158992509Y-90945286D01*
X159058559Y-90742003D01*
X159092000Y-90530873D01*
X159092000Y-90317126D01*
X159058559Y-90105996D01*
X158992509Y-89902713D01*
X158992506Y-89902707D01*
X158895464Y-89712251D01*
X158895463Y-89712249D01*
X158857378Y-89659831D01*
X158218157Y-90299051D01*
X158199925Y-90231007D01*
X158134099Y-90116993D01*
X158041007Y-90023901D01*
X157926993Y-89958075D01*
X157858947Y-89939841D01*
X158498168Y-89300621D01*
X158498167Y-89300620D01*
X158445750Y-89262536D01*
X158444428Y-89261726D01*
X158444030Y-89261286D01*
X158441742Y-89259624D01*
X158442091Y-89259143D01*
X158396797Y-89209078D01*
X158385191Y-89139036D01*
X158413295Y-89073839D01*
X158442075Y-89048903D01*
X158442004Y-89048804D01*
X158443158Y-89047965D01*
X158444441Y-89046854D01*
X158445992Y-89045902D01*
X158446009Y-89045894D01*
X158619004Y-88920206D01*
X158761528Y-88777682D01*
X174491900Y-88777682D01*
X174491900Y-88925518D01*
X174511258Y-89022833D01*
X174520742Y-89070513D01*
X174520743Y-89070516D01*
X174532751Y-89099505D01*
X174577316Y-89207095D01*
X174659449Y-89330016D01*
X174763984Y-89434551D01*
X174886905Y-89516684D01*
X175023487Y-89573258D01*
X175168482Y-89602100D01*
X175168487Y-89602100D01*
X175316313Y-89602100D01*
X175316318Y-89602100D01*
X175461313Y-89573258D01*
X175597895Y-89516684D01*
X175720816Y-89434551D01*
X175825351Y-89330016D01*
X175907484Y-89207095D01*
X175964058Y-89070513D01*
X175992900Y-88925518D01*
X175992900Y-88777682D01*
X175964058Y-88632687D01*
X175907484Y-88496105D01*
X175825351Y-88373184D01*
X175720816Y-88268649D01*
X175597895Y-88186516D01*
X175550055Y-88166700D01*
X175461316Y-88129943D01*
X175461313Y-88129942D01*
X175316318Y-88101100D01*
X175168482Y-88101100D01*
X175103601Y-88114006D01*
X175023486Y-88129942D01*
X175023483Y-88129943D01*
X174886904Y-88186516D01*
X174763988Y-88268646D01*
X174763981Y-88268651D01*
X174659451Y-88373181D01*
X174659446Y-88373188D01*
X174577316Y-88496104D01*
X174520743Y-88632683D01*
X174520742Y-88632686D01*
X174520742Y-88632687D01*
X174491900Y-88777682D01*
X158761528Y-88777682D01*
X158770206Y-88769004D01*
X158818462Y-88702585D01*
X158822207Y-88697431D01*
X158840175Y-88672698D01*
X158895894Y-88596009D01*
X158992972Y-88405483D01*
X159059049Y-88202116D01*
X159092500Y-87990916D01*
X159092500Y-87777084D01*
X159059049Y-87565884D01*
X158992972Y-87362517D01*
X158895894Y-87171991D01*
X158770206Y-86998996D01*
X158770203Y-86998993D01*
X158770201Y-86998990D01*
X158619009Y-86847798D01*
X158619006Y-86847796D01*
X158619004Y-86847794D01*
X158446009Y-86722106D01*
X158446007Y-86722105D01*
X158444920Y-86721439D01*
X158444591Y-86721075D01*
X158442004Y-86719196D01*
X158442398Y-86718652D01*
X158397283Y-86668796D01*
X158385670Y-86598756D01*
X158413766Y-86533555D01*
X158442130Y-86508978D01*
X158442004Y-86508804D01*
X158444030Y-86507331D01*
X158444920Y-86506561D01*
X158445997Y-86505899D01*
X158446009Y-86505894D01*
X158619004Y-86380206D01*
X158722209Y-86277000D01*
X158784519Y-86242977D01*
X158855335Y-86248041D01*
X158900398Y-86277002D01*
X159180029Y-86556633D01*
X159268267Y-86644871D01*
X159372025Y-86714200D01*
X159487315Y-86761955D01*
X159609706Y-86786300D01*
X162074997Y-86786300D01*
X162143118Y-86806302D01*
X162164092Y-86823205D01*
X162199465Y-86858578D01*
X162348264Y-86958002D01*
X162513600Y-87026487D01*
X162689121Y-87061400D01*
X162689122Y-87061400D01*
X162868078Y-87061400D01*
X162868079Y-87061400D01*
X163043600Y-87026487D01*
X163208936Y-86958002D01*
X163357735Y-86858578D01*
X163484278Y-86732035D01*
X163583702Y-86583236D01*
X163652187Y-86417900D01*
X163687100Y-86242379D01*
X163687100Y-86063421D01*
X163652187Y-85887900D01*
X163583702Y-85722564D01*
X163484278Y-85573765D01*
X163357735Y-85447222D01*
X163208936Y-85347798D01*
X163060951Y-85286500D01*
X163043603Y-85279314D01*
X163043601Y-85279313D01*
X163043600Y-85279313D01*
X162955245Y-85261738D01*
X162868081Y-85244400D01*
X162868079Y-85244400D01*
X162689121Y-85244400D01*
X162689118Y-85244400D01*
X162558371Y-85270407D01*
X162513600Y-85279313D01*
X162513599Y-85279313D01*
X162513596Y-85279314D01*
X162348262Y-85347799D01*
X162199469Y-85447219D01*
X162199462Y-85447224D01*
X162164292Y-85482395D01*
X162101980Y-85516421D01*
X162075197Y-85519300D01*
X159986694Y-85519300D01*
X159918573Y-85499298D01*
X159897599Y-85482395D01*
X159267135Y-84851931D01*
X159267133Y-84851929D01*
X159163375Y-84782600D01*
X159048085Y-84734845D01*
X159048083Y-84734844D01*
X159048079Y-84734843D01*
X158996984Y-84724679D01*
X158934075Y-84691771D01*
X158909302Y-84658305D01*
X158895893Y-84631990D01*
X158891536Y-84625993D01*
X158770206Y-84458996D01*
X158770203Y-84458993D01*
X158770201Y-84458990D01*
X158619009Y-84307798D01*
X158619006Y-84307796D01*
X158619004Y-84307794D01*
X158446009Y-84182106D01*
X158446007Y-84182105D01*
X158444920Y-84181439D01*
X158444591Y-84181075D01*
X158442004Y-84179196D01*
X158442398Y-84178652D01*
X158397283Y-84128796D01*
X158385670Y-84058756D01*
X158413766Y-83993555D01*
X158442130Y-83968978D01*
X158442004Y-83968804D01*
X158444030Y-83967331D01*
X158444920Y-83966561D01*
X158445997Y-83965899D01*
X158446009Y-83965894D01*
X158619004Y-83840206D01*
X158770206Y-83689004D01*
X158895894Y-83516009D01*
X158900844Y-83506294D01*
X158949593Y-83454680D01*
X159013109Y-83437500D01*
X161767506Y-83437500D01*
X161835627Y-83457502D01*
X161856601Y-83474405D01*
X162299795Y-83917599D01*
X162333821Y-83979911D01*
X162336700Y-84006694D01*
X162336700Y-84056581D01*
X162350631Y-84126615D01*
X162371613Y-84232100D01*
X162440098Y-84397436D01*
X162539522Y-84546235D01*
X162666065Y-84672778D01*
X162814864Y-84772202D01*
X162980200Y-84840687D01*
X163155721Y-84875600D01*
X163155722Y-84875600D01*
X163334678Y-84875600D01*
X163334679Y-84875600D01*
X163510200Y-84840687D01*
X163675536Y-84772202D01*
X163824335Y-84672778D01*
X163950878Y-84546235D01*
X164050302Y-84397436D01*
X164118787Y-84232100D01*
X164153700Y-84056579D01*
X164153700Y-83877621D01*
X164118787Y-83702100D01*
X164113364Y-83689009D01*
X164053860Y-83545354D01*
X164046270Y-83474764D01*
X164074813Y-83417738D01*
X164073451Y-83416620D01*
X164077373Y-83411839D01*
X164077378Y-83411835D01*
X164176802Y-83263036D01*
X164245287Y-83097700D01*
X164280200Y-82922179D01*
X164280200Y-82743221D01*
X164245287Y-82567700D01*
X164176802Y-82402364D01*
X164077378Y-82253565D01*
X163950835Y-82127022D01*
X163802036Y-82027598D01*
X163685129Y-81979173D01*
X163636703Y-81959114D01*
X163636701Y-81959113D01*
X163636700Y-81959113D01*
X163548345Y-81941538D01*
X163461181Y-81924200D01*
X163461179Y-81924200D01*
X163411294Y-81924200D01*
X163343173Y-81904198D01*
X163322199Y-81887295D01*
X162232586Y-80797682D01*
X174491900Y-80797682D01*
X174491900Y-80945518D01*
X174517177Y-81072590D01*
X174520742Y-81090513D01*
X174520743Y-81090516D01*
X174544972Y-81149009D01*
X174577316Y-81227095D01*
X174659449Y-81350016D01*
X174763984Y-81454551D01*
X174886905Y-81536684D01*
X175023487Y-81593258D01*
X175168482Y-81622100D01*
X175168487Y-81622100D01*
X175316313Y-81622100D01*
X175316318Y-81622100D01*
X175461313Y-81593258D01*
X175597895Y-81536684D01*
X175720816Y-81454551D01*
X175825351Y-81350016D01*
X175907484Y-81227095D01*
X175964058Y-81090513D01*
X175992900Y-80945518D01*
X175992900Y-80797682D01*
X175964058Y-80652687D01*
X175907484Y-80516105D01*
X175825351Y-80393184D01*
X175720816Y-80288649D01*
X175597895Y-80206516D01*
X175478563Y-80157087D01*
X175461316Y-80149943D01*
X175461313Y-80149942D01*
X175316318Y-80121100D01*
X175168482Y-80121100D01*
X175095984Y-80135521D01*
X175023486Y-80149942D01*
X175023483Y-80149943D01*
X174886904Y-80206516D01*
X174763988Y-80288646D01*
X174763981Y-80288651D01*
X174659451Y-80393181D01*
X174659446Y-80393188D01*
X174577316Y-80516104D01*
X174520743Y-80652683D01*
X174520742Y-80652686D01*
X174520742Y-80652687D01*
X174491900Y-80797682D01*
X162232586Y-80797682D01*
X161206835Y-79771931D01*
X161206833Y-79771929D01*
X161103075Y-79702600D01*
X160987785Y-79654845D01*
X160914086Y-79640185D01*
X160865396Y-79630500D01*
X160865394Y-79630500D01*
X159013109Y-79630500D01*
X158944988Y-79610498D01*
X158900844Y-79561706D01*
X158900830Y-79561678D01*
X158895894Y-79551991D01*
X158770206Y-79378996D01*
X158770203Y-79378993D01*
X158770201Y-79378990D01*
X158667229Y-79276018D01*
X158633203Y-79213706D01*
X158638268Y-79142891D01*
X158680815Y-79086055D01*
X158712284Y-79068871D01*
X158830204Y-79024889D01*
X158895423Y-78976067D01*
X158947261Y-78937261D01*
X159034887Y-78820207D01*
X159034887Y-78820206D01*
X159034889Y-78820204D01*
X159085989Y-78683201D01*
X159087109Y-78672789D01*
X159092499Y-78622649D01*
X159092500Y-78622632D01*
X159092500Y-76825367D01*
X159092499Y-76825350D01*
X159085990Y-76764803D01*
X159085988Y-76764795D01*
X159050362Y-76669281D01*
X159034889Y-76627796D01*
X159034888Y-76627794D01*
X159034887Y-76627792D01*
X158947261Y-76510738D01*
X158930192Y-76497961D01*
X158887645Y-76441126D01*
X158882580Y-76370310D01*
X158916603Y-76308000D01*
X158923071Y-76301533D01*
X158992400Y-76197775D01*
X159040155Y-76082485D01*
X159047230Y-76046911D01*
X159080137Y-75984004D01*
X159081714Y-75982398D01*
X159085305Y-75978807D01*
X159136678Y-75927435D01*
X159236102Y-75778636D01*
X159304587Y-75613300D01*
X159339500Y-75437779D01*
X159339500Y-75387895D01*
X159348285Y-75357974D01*
X159354913Y-75327509D01*
X159358726Y-75322414D01*
X159359502Y-75319774D01*
X159376405Y-75298799D01*
X159446701Y-75228504D01*
X159509014Y-75194479D01*
X159535796Y-75191600D01*
X169296597Y-75191600D01*
X169364718Y-75211602D01*
X169385691Y-75228504D01*
X169420965Y-75263778D01*
X169569764Y-75363202D01*
X169735100Y-75431687D01*
X169910621Y-75466600D01*
X169910622Y-75466600D01*
X170089578Y-75466600D01*
X170089579Y-75466600D01*
X170265100Y-75431687D01*
X170430436Y-75363202D01*
X170579235Y-75263778D01*
X170705778Y-75137235D01*
X170805202Y-74988436D01*
X170873687Y-74823100D01*
X170908600Y-74647579D01*
X170908600Y-74468621D01*
X170873687Y-74293100D01*
X170805202Y-74127764D01*
X170705778Y-73978965D01*
X170579235Y-73852422D01*
X170430436Y-73752998D01*
X170313529Y-73704573D01*
X170265103Y-73684514D01*
X170265101Y-73684513D01*
X170265100Y-73684513D01*
X170176745Y-73666938D01*
X170089581Y-73649600D01*
X170089579Y-73649600D01*
X169910621Y-73649600D01*
X169910618Y-73649600D01*
X169779871Y-73675607D01*
X169735100Y-73684513D01*
X169735099Y-73684513D01*
X169735096Y-73684514D01*
X169569762Y-73752999D01*
X169420969Y-73852419D01*
X169420962Y-73852424D01*
X169385692Y-73887695D01*
X169323380Y-73921721D01*
X169296597Y-73924600D01*
X166876894Y-73924600D01*
X166808773Y-73904598D01*
X166762280Y-73850942D01*
X166752176Y-73780668D01*
X166781670Y-73716088D01*
X166787799Y-73709505D01*
X167049999Y-73447305D01*
X167112311Y-73413279D01*
X167139094Y-73410400D01*
X167188978Y-73410400D01*
X167188979Y-73410400D01*
X167364500Y-73375487D01*
X167529836Y-73307002D01*
X167678635Y-73207578D01*
X167805178Y-73081035D01*
X167904602Y-72932236D01*
X167973087Y-72766900D01*
X168008000Y-72591379D01*
X168008000Y-72412421D01*
X167973087Y-72236900D01*
X167904602Y-72071564D01*
X167805178Y-71922765D01*
X167769905Y-71887492D01*
X167735879Y-71825180D01*
X167733000Y-71798397D01*
X167733000Y-70622800D01*
X167753002Y-70554679D01*
X167806658Y-70508186D01*
X167859000Y-70496800D01*
X167871319Y-70496800D01*
X167871322Y-70496800D01*
X168105841Y-70459656D01*
X168331663Y-70386282D01*
X168543227Y-70278485D01*
X168735322Y-70138920D01*
X168735327Y-70138915D01*
X168792293Y-70081950D01*
X168903215Y-69971027D01*
X168903220Y-69971022D01*
X169042785Y-69778927D01*
X169150582Y-69567363D01*
X169223956Y-69341541D01*
X169261100Y-69107022D01*
X169261100Y-68869621D01*
X170744600Y-68869621D01*
X170744600Y-69106978D01*
X170781733Y-69341429D01*
X170855080Y-69567167D01*
X170962846Y-69778668D01*
X171021830Y-69859856D01*
X171021832Y-69859856D01*
X171727616Y-69154071D01*
X171740082Y-69200592D01*
X171812490Y-69326008D01*
X171914892Y-69428410D01*
X172040308Y-69500818D01*
X172086826Y-69513282D01*
X171381042Y-70219066D01*
X171462236Y-70278056D01*
X171462237Y-70278057D01*
X171673732Y-70385819D01*
X171899470Y-70459166D01*
X172133921Y-70496300D01*
X172371279Y-70496300D01*
X172605729Y-70459166D01*
X172831467Y-70385819D01*
X173042967Y-70278054D01*
X173124156Y-70219067D01*
X173124156Y-70219065D01*
X172418373Y-69513282D01*
X172464892Y-69500818D01*
X172590308Y-69428410D01*
X172692710Y-69326008D01*
X172765118Y-69200592D01*
X172777582Y-69154073D01*
X173483365Y-69859856D01*
X173483367Y-69859856D01*
X173542354Y-69778667D01*
X173650119Y-69567167D01*
X173723466Y-69341429D01*
X173760600Y-69106978D01*
X173760600Y-68869621D01*
X173723466Y-68635170D01*
X173650119Y-68409432D01*
X173542357Y-68197937D01*
X173542356Y-68197936D01*
X173483366Y-68116742D01*
X172777582Y-68822526D01*
X172765118Y-68776008D01*
X172692710Y-68650592D01*
X172590308Y-68548190D01*
X172464892Y-68475782D01*
X172418371Y-68463316D01*
X173124156Y-67757532D01*
X173124156Y-67757530D01*
X173042968Y-67698546D01*
X172831467Y-67590780D01*
X172605729Y-67517433D01*
X172371279Y-67480300D01*
X172133921Y-67480300D01*
X171899470Y-67517433D01*
X171673732Y-67590780D01*
X171462234Y-67698543D01*
X171381042Y-67757531D01*
X172086827Y-68463317D01*
X172040308Y-68475782D01*
X171914892Y-68548190D01*
X171812490Y-68650592D01*
X171740082Y-68776008D01*
X171727617Y-68822527D01*
X171021831Y-68116742D01*
X170962843Y-68197934D01*
X170855080Y-68409432D01*
X170781733Y-68635170D01*
X170744600Y-68869621D01*
X169261100Y-68869621D01*
X169261100Y-68869578D01*
X169223956Y-68635059D01*
X169150582Y-68409237D01*
X169042785Y-68197673D01*
X168903220Y-68005578D01*
X168903217Y-68005575D01*
X168903215Y-68005572D01*
X168735327Y-67837684D01*
X168735324Y-67837682D01*
X168735322Y-67837680D01*
X168556450Y-67707722D01*
X168543230Y-67698117D01*
X168543229Y-67698116D01*
X168543227Y-67698115D01*
X168331663Y-67590318D01*
X168331660Y-67590317D01*
X168331658Y-67590316D01*
X168105846Y-67516945D01*
X168105842Y-67516944D01*
X168105841Y-67516944D01*
X167871322Y-67479800D01*
X167633878Y-67479800D01*
X167399359Y-67516944D01*
X167399353Y-67516945D01*
X167173541Y-67590316D01*
X167173535Y-67590319D01*
X166961969Y-67698117D01*
X166769875Y-67837682D01*
X166769872Y-67837684D01*
X166601984Y-68005572D01*
X166601982Y-68005575D01*
X166462417Y-68197669D01*
X166354619Y-68409235D01*
X166354616Y-68409241D01*
X166281245Y-68635053D01*
X166281244Y-68635058D01*
X166281244Y-68635059D01*
X166244100Y-68869578D01*
X166244100Y-69107022D01*
X166258920Y-69200592D01*
X166281245Y-69341546D01*
X166354554Y-69567167D01*
X166354618Y-69567363D01*
X166354619Y-69567364D01*
X166452267Y-69759010D01*
X166466000Y-69816213D01*
X166466000Y-71798397D01*
X166445998Y-71866518D01*
X166429095Y-71887492D01*
X166393824Y-71922762D01*
X166393819Y-71922769D01*
X166294399Y-72071562D01*
X166225914Y-72236896D01*
X166191000Y-72412418D01*
X166191000Y-72462306D01*
X166170998Y-72530427D01*
X166154095Y-72551401D01*
X165754701Y-72950795D01*
X165692389Y-72984821D01*
X165665606Y-72987700D01*
X161686403Y-72987700D01*
X161618282Y-72967698D01*
X161597308Y-72950795D01*
X161562037Y-72915524D01*
X161562035Y-72915522D01*
X161413236Y-72816098D01*
X161258240Y-72751896D01*
X161247903Y-72747614D01*
X161247901Y-72747613D01*
X161247900Y-72747613D01*
X161159545Y-72730038D01*
X161072381Y-72712700D01*
X161072379Y-72712700D01*
X160893421Y-72712700D01*
X160893418Y-72712700D01*
X160762671Y-72738707D01*
X160717900Y-72747613D01*
X160717899Y-72747613D01*
X160717896Y-72747614D01*
X160552562Y-72816099D01*
X160403769Y-72915519D01*
X160403762Y-72915524D01*
X160277224Y-73042062D01*
X160277219Y-73042069D01*
X160177799Y-73190862D01*
X160109314Y-73356196D01*
X160074400Y-73531718D01*
X160074400Y-73710681D01*
X160086999Y-73774018D01*
X160080671Y-73844732D01*
X160037117Y-73900800D01*
X159970165Y-73924419D01*
X159963420Y-73924600D01*
X159158800Y-73924600D01*
X159036417Y-73948944D01*
X159036409Y-73948946D01*
X159002647Y-73962930D01*
X159002647Y-73962931D01*
X158936506Y-73990328D01*
X158921125Y-73996699D01*
X158817371Y-74066025D01*
X158817364Y-74066030D01*
X158480500Y-74402895D01*
X158418188Y-74436921D01*
X158391405Y-74439800D01*
X158341518Y-74439800D01*
X158210771Y-74465807D01*
X158166000Y-74474713D01*
X158165999Y-74474713D01*
X158165996Y-74474714D01*
X158000662Y-74543199D01*
X157851869Y-74642619D01*
X157851862Y-74642624D01*
X157725324Y-74769162D01*
X157725319Y-74769169D01*
X157625899Y-74917962D01*
X157557414Y-75083296D01*
X157522500Y-75258818D01*
X157522500Y-75437781D01*
X157557414Y-75613305D01*
X157601956Y-75720838D01*
X157609545Y-75791428D01*
X157577766Y-75854915D01*
X157574643Y-75858151D01*
X157330167Y-76102629D01*
X157241927Y-76190869D01*
X157241926Y-76190871D01*
X157172599Y-76294625D01*
X157170316Y-76298898D01*
X157120563Y-76349545D01*
X157059195Y-76365500D01*
X156835350Y-76365500D01*
X156774803Y-76372009D01*
X156774795Y-76372011D01*
X156637797Y-76423110D01*
X156637792Y-76423112D01*
X156520738Y-76510738D01*
X156433112Y-76627792D01*
X156433110Y-76627797D01*
X156382011Y-76764795D01*
X156382009Y-76764803D01*
X156375500Y-76825350D01*
X156375500Y-77322104D01*
X156355498Y-77390225D01*
X156301842Y-77436718D01*
X156231568Y-77446822D01*
X156166988Y-77417328D01*
X156160405Y-77411200D01*
X155970304Y-77221100D01*
X155936279Y-77158788D01*
X155938828Y-77095416D01*
X155939980Y-77091616D01*
X155939987Y-77091600D01*
X155974900Y-76916079D01*
X155974900Y-76737121D01*
X155939987Y-76561600D01*
X155871502Y-76396264D01*
X155772078Y-76247465D01*
X155645535Y-76120922D01*
X155496736Y-76021498D01*
X155379829Y-75973073D01*
X155331403Y-75953014D01*
X155331401Y-75953013D01*
X155331400Y-75953013D01*
X155243045Y-75935438D01*
X155155881Y-75918100D01*
X155155879Y-75918100D01*
X155055593Y-75918100D01*
X154987472Y-75898098D01*
X154940979Y-75844442D01*
X154930875Y-75774168D01*
X154960369Y-75709588D01*
X154966482Y-75703020D01*
X156676071Y-73993433D01*
X156745400Y-73889675D01*
X156793155Y-73774385D01*
X156817500Y-73651994D01*
X156817500Y-73527207D01*
X156817500Y-67816024D01*
X156837502Y-67747903D01*
X156891158Y-67701410D01*
X156961432Y-67691306D01*
X156982431Y-67696189D01*
X157135878Y-67746047D01*
X157135879Y-67746047D01*
X157135884Y-67746049D01*
X157347084Y-67779500D01*
X157347087Y-67779500D01*
X157560913Y-67779500D01*
X157560916Y-67779500D01*
X157772116Y-67746049D01*
X157975483Y-67679972D01*
X158166009Y-67582894D01*
X158339004Y-67457206D01*
X158490206Y-67306004D01*
X158615894Y-67133009D01*
X158712972Y-66942483D01*
X158779049Y-66739116D01*
X158812500Y-66527916D01*
X158812500Y-66314084D01*
X158779049Y-66102884D01*
X158712972Y-65899517D01*
X158615894Y-65708991D01*
X158490206Y-65535996D01*
X158490203Y-65535993D01*
X158490201Y-65535990D01*
X158339009Y-65384798D01*
X158339006Y-65384796D01*
X158339004Y-65384794D01*
X158166009Y-65259106D01*
X158166005Y-65259104D01*
X158164920Y-65258439D01*
X158164591Y-65258075D01*
X158162004Y-65256196D01*
X158162398Y-65255652D01*
X158117283Y-65205796D01*
X158105670Y-65135756D01*
X158133766Y-65070555D01*
X158162130Y-65045978D01*
X158162004Y-65045804D01*
X158164030Y-65044331D01*
X158164920Y-65043561D01*
X158165997Y-65042899D01*
X158166009Y-65042894D01*
X158339004Y-64917206D01*
X158400567Y-64855643D01*
X164944100Y-64855643D01*
X164944100Y-65100957D01*
X164964334Y-65228705D01*
X164982476Y-65343252D01*
X165014766Y-65442629D01*
X165051027Y-65554229D01*
X165058282Y-65576555D01*
X165058285Y-65576563D01*
X165169651Y-65795132D01*
X165313844Y-65993596D01*
X165487303Y-66167055D01*
X165487306Y-66167057D01*
X165685768Y-66311249D01*
X165904344Y-66422618D01*
X166137650Y-66498424D01*
X166379943Y-66536800D01*
X166379946Y-66536800D01*
X166625254Y-66536800D01*
X166625257Y-66536800D01*
X166867550Y-66498424D01*
X167100856Y-66422618D01*
X167319432Y-66311249D01*
X167517894Y-66167057D01*
X167691357Y-65993594D01*
X167835549Y-65795132D01*
X167946918Y-65576556D01*
X168022724Y-65343250D01*
X168061100Y-65100957D01*
X168061100Y-64855643D01*
X168022724Y-64613350D01*
X167946918Y-64380044D01*
X167839314Y-64168858D01*
X167826211Y-64099084D01*
X167852911Y-64033299D01*
X167910939Y-63992393D01*
X167931862Y-63987211D01*
X168105841Y-63959656D01*
X168331663Y-63886282D01*
X168543227Y-63778485D01*
X168735322Y-63638920D01*
X168735327Y-63638915D01*
X168792293Y-63581950D01*
X168903215Y-63471027D01*
X168903220Y-63471022D01*
X169042785Y-63278927D01*
X169150582Y-63067363D01*
X169223956Y-62841541D01*
X169261100Y-62607022D01*
X169261100Y-62369621D01*
X170744600Y-62369621D01*
X170744600Y-62606978D01*
X170781733Y-62841429D01*
X170855080Y-63067167D01*
X170962846Y-63278668D01*
X171021830Y-63359856D01*
X171021832Y-63359856D01*
X171727616Y-62654071D01*
X171740082Y-62700592D01*
X171812490Y-62826008D01*
X171914892Y-62928410D01*
X172040308Y-63000818D01*
X172086827Y-63013282D01*
X171381042Y-63719066D01*
X171462236Y-63778056D01*
X171462237Y-63778057D01*
X171673732Y-63885819D01*
X171899470Y-63959166D01*
X172082820Y-63988206D01*
X172146973Y-64018618D01*
X172184500Y-64078887D01*
X172183486Y-64149876D01*
X172175376Y-64169857D01*
X172068285Y-64380036D01*
X172068282Y-64380044D01*
X171992476Y-64613347D01*
X171992476Y-64613350D01*
X171954100Y-64855643D01*
X171954100Y-65100957D01*
X171974334Y-65228705D01*
X171992476Y-65343252D01*
X172024766Y-65442629D01*
X172061027Y-65554229D01*
X172068282Y-65576555D01*
X172068285Y-65576563D01*
X172179651Y-65795132D01*
X172323844Y-65993596D01*
X172497303Y-66167055D01*
X172497306Y-66167057D01*
X172695768Y-66311249D01*
X172914344Y-66422618D01*
X173147650Y-66498424D01*
X173389943Y-66536800D01*
X173389946Y-66536800D01*
X173635254Y-66536800D01*
X173635257Y-66536800D01*
X173877550Y-66498424D01*
X174110856Y-66422618D01*
X174329432Y-66311249D01*
X174527894Y-66167057D01*
X174701357Y-65993594D01*
X174845549Y-65795132D01*
X174956918Y-65576556D01*
X175032724Y-65343250D01*
X175071100Y-65100957D01*
X175071100Y-64855643D01*
X175032724Y-64613350D01*
X174956918Y-64380044D01*
X174845549Y-64161468D01*
X174719455Y-63987916D01*
X174701355Y-63963003D01*
X174527896Y-63789544D01*
X174329432Y-63645351D01*
X174110863Y-63533985D01*
X174110858Y-63533983D01*
X174110856Y-63533982D01*
X174033087Y-63508713D01*
X173877552Y-63458176D01*
X173654040Y-63422775D01*
X173589887Y-63392362D01*
X173552360Y-63332094D01*
X173553374Y-63261104D01*
X173561484Y-63241123D01*
X173650119Y-63067167D01*
X173723466Y-62841429D01*
X173760600Y-62606978D01*
X173760600Y-62369621D01*
X173723466Y-62135170D01*
X173650119Y-61909432D01*
X173542357Y-61697937D01*
X173542356Y-61697936D01*
X173483366Y-61616742D01*
X172777582Y-62322527D01*
X172765118Y-62276008D01*
X172692710Y-62150592D01*
X172590308Y-62048190D01*
X172464892Y-61975782D01*
X172418371Y-61963316D01*
X173124156Y-61257532D01*
X173124156Y-61257530D01*
X173042968Y-61198546D01*
X172831467Y-61090780D01*
X172605729Y-61017433D01*
X172371279Y-60980300D01*
X172133921Y-60980300D01*
X171899470Y-61017433D01*
X171673732Y-61090780D01*
X171462234Y-61198543D01*
X171381042Y-61257531D01*
X172086827Y-61963317D01*
X172040308Y-61975782D01*
X171914892Y-62048190D01*
X171812490Y-62150592D01*
X171740082Y-62276008D01*
X171727617Y-62322527D01*
X171021831Y-61616742D01*
X170962843Y-61697934D01*
X170855080Y-61909432D01*
X170781733Y-62135170D01*
X170744600Y-62369621D01*
X169261100Y-62369621D01*
X169261100Y-62369578D01*
X169223956Y-62135059D01*
X169150582Y-61909237D01*
X169042785Y-61697673D01*
X168903220Y-61505578D01*
X168903217Y-61505575D01*
X168903215Y-61505572D01*
X168735327Y-61337684D01*
X168735324Y-61337682D01*
X168735322Y-61337680D01*
X168543227Y-61198115D01*
X168331663Y-61090318D01*
X168331660Y-61090317D01*
X168331658Y-61090316D01*
X168105846Y-61016945D01*
X168105842Y-61016944D01*
X168105841Y-61016944D01*
X167871322Y-60979800D01*
X167633878Y-60979800D01*
X167399359Y-61016944D01*
X167399353Y-61016945D01*
X167173541Y-61090316D01*
X167173535Y-61090319D01*
X166961969Y-61198117D01*
X166769875Y-61337682D01*
X166769872Y-61337684D01*
X166601984Y-61505572D01*
X166601982Y-61505575D01*
X166462417Y-61697669D01*
X166354619Y-61909235D01*
X166354616Y-61909241D01*
X166281245Y-62135053D01*
X166281244Y-62135058D01*
X166281244Y-62135059D01*
X166244100Y-62369578D01*
X166244100Y-62607022D01*
X166261853Y-62719108D01*
X166281245Y-62841546D01*
X166354554Y-63067167D01*
X166354618Y-63067363D01*
X166431229Y-63217721D01*
X166443942Y-63242671D01*
X166457046Y-63312448D01*
X166430346Y-63378233D01*
X166372318Y-63419139D01*
X166351386Y-63424323D01*
X166137647Y-63458176D01*
X165904344Y-63533982D01*
X165904336Y-63533985D01*
X165685767Y-63645351D01*
X165487303Y-63789544D01*
X165313844Y-63963003D01*
X165169651Y-64161467D01*
X165058285Y-64380036D01*
X165058282Y-64380044D01*
X164982476Y-64613347D01*
X164982476Y-64613350D01*
X164944100Y-64855643D01*
X158400567Y-64855643D01*
X158490206Y-64766004D01*
X158615894Y-64593009D01*
X158712972Y-64402483D01*
X158779049Y-64199116D01*
X158812500Y-63987916D01*
X158812500Y-63774084D01*
X158779049Y-63562884D01*
X158712972Y-63359517D01*
X158615894Y-63168991D01*
X158490206Y-62995996D01*
X158490203Y-62995993D01*
X158490201Y-62995990D01*
X158339009Y-62844798D01*
X158339006Y-62844796D01*
X158339004Y-62844794D01*
X158166009Y-62719106D01*
X157975483Y-62622028D01*
X157975480Y-62622027D01*
X157975478Y-62622026D01*
X157772120Y-62555952D01*
X157772123Y-62555952D01*
X157732801Y-62549724D01*
X157560916Y-62522500D01*
X157347084Y-62522500D01*
X157135884Y-62555951D01*
X157135878Y-62555952D01*
X156932521Y-62622026D01*
X156932515Y-62622029D01*
X156741987Y-62719108D01*
X156596807Y-62824588D01*
X156529939Y-62848447D01*
X156460788Y-62832366D01*
X156433651Y-62811747D01*
X154333635Y-60711731D01*
X154333633Y-60711729D01*
X154229875Y-60642400D01*
X154114585Y-60594645D01*
X154040886Y-60579985D01*
X153992196Y-60570300D01*
X153992194Y-60570300D01*
X127897294Y-60570300D01*
X127772506Y-60570300D01*
X127772503Y-60570300D01*
X127699468Y-60584828D01*
X127650115Y-60594645D01*
X127650113Y-60594645D01*
X127650112Y-60594646D01*
X127534823Y-60642401D01*
X127431071Y-60711726D01*
X127431069Y-60711727D01*
X127075753Y-61067041D01*
X127013441Y-61101066D01*
X126942625Y-61096000D01*
X126930234Y-61090553D01*
X126929671Y-61090321D01*
X126929665Y-61090319D01*
X126929663Y-61090318D01*
X126841423Y-61061647D01*
X126703846Y-61016945D01*
X126703842Y-61016944D01*
X126703841Y-61016944D01*
X126469322Y-60979800D01*
X126231878Y-60979800D01*
X125997359Y-61016944D01*
X125997353Y-61016945D01*
X125771541Y-61090316D01*
X125771535Y-61090319D01*
X125559969Y-61198117D01*
X125367875Y-61337682D01*
X125367872Y-61337684D01*
X125199984Y-61505572D01*
X125199982Y-61505575D01*
X125060417Y-61697669D01*
X124952619Y-61909235D01*
X124952616Y-61909241D01*
X124879245Y-62135053D01*
X124879244Y-62135058D01*
X124879244Y-62135059D01*
X124842100Y-62369578D01*
X124842100Y-62607022D01*
X124859853Y-62719108D01*
X124879245Y-62841546D01*
X124952554Y-63067167D01*
X124952618Y-63067363D01*
X125029229Y-63217721D01*
X125041942Y-63242671D01*
X125055046Y-63312448D01*
X125028346Y-63378233D01*
X124970318Y-63419139D01*
X124949386Y-63424323D01*
X124735647Y-63458176D01*
X124502344Y-63533982D01*
X124502336Y-63533985D01*
X124283767Y-63645351D01*
X124085303Y-63789544D01*
X123911844Y-63963003D01*
X123767651Y-64161467D01*
X123656285Y-64380036D01*
X123656282Y-64380044D01*
X123580476Y-64613347D01*
X123580476Y-64613350D01*
X123542100Y-64855643D01*
X123542100Y-65100957D01*
X123562334Y-65228705D01*
X123580476Y-65343252D01*
X123612766Y-65442629D01*
X123649027Y-65554229D01*
X123656282Y-65576555D01*
X123656285Y-65576563D01*
X123767651Y-65795132D01*
X123911844Y-65993596D01*
X124085303Y-66167055D01*
X124085306Y-66167057D01*
X124283768Y-66311249D01*
X124502344Y-66422618D01*
X124735650Y-66498424D01*
X124977943Y-66536800D01*
X124977946Y-66536800D01*
X125223254Y-66536800D01*
X125223257Y-66536800D01*
X125465550Y-66498424D01*
X125652066Y-66437820D01*
X125723031Y-66435793D01*
X125783829Y-66472455D01*
X125815154Y-66536167D01*
X125817000Y-66557654D01*
X125817000Y-67489940D01*
X125796998Y-67558061D01*
X125748203Y-67602207D01*
X125559969Y-67698117D01*
X125367875Y-67837682D01*
X125367872Y-67837684D01*
X125199984Y-68005572D01*
X125199982Y-68005575D01*
X125060417Y-68197669D01*
X124952619Y-68409235D01*
X124952616Y-68409241D01*
X124879245Y-68635053D01*
X124879244Y-68635058D01*
X124879244Y-68635059D01*
X124842100Y-68869578D01*
X124842100Y-69107022D01*
X124856920Y-69200592D01*
X124879245Y-69341546D01*
X124952554Y-69567167D01*
X124952618Y-69567363D01*
X125060415Y-69778927D01*
X125199980Y-69971022D01*
X125199982Y-69971024D01*
X125199984Y-69971027D01*
X125367872Y-70138915D01*
X125367875Y-70138917D01*
X125367878Y-70138920D01*
X125559973Y-70278485D01*
X125771537Y-70386282D01*
X125997359Y-70459656D01*
X126231878Y-70496800D01*
X126231881Y-70496800D01*
X126469319Y-70496800D01*
X126469322Y-70496800D01*
X126703841Y-70459656D01*
X126929663Y-70386282D01*
X127141227Y-70278485D01*
X127333322Y-70138920D01*
X127333327Y-70138915D01*
X127390293Y-70081950D01*
X127501215Y-69971027D01*
X127501220Y-69971022D01*
X127640785Y-69778927D01*
X127748582Y-69567363D01*
X127821956Y-69341541D01*
X127859100Y-69107022D01*
X127859100Y-68869621D01*
X129342600Y-68869621D01*
X129342600Y-69106978D01*
X129379733Y-69341429D01*
X129453080Y-69567167D01*
X129560846Y-69778668D01*
X129619830Y-69859856D01*
X129619832Y-69859856D01*
X130325616Y-69154071D01*
X130338082Y-69200592D01*
X130410490Y-69326008D01*
X130512892Y-69428410D01*
X130638308Y-69500818D01*
X130684826Y-69513282D01*
X129979042Y-70219066D01*
X130060236Y-70278056D01*
X130060237Y-70278057D01*
X130271732Y-70385819D01*
X130497470Y-70459166D01*
X130731921Y-70496300D01*
X130969279Y-70496300D01*
X131203729Y-70459166D01*
X131429467Y-70385819D01*
X131640967Y-70278054D01*
X131722156Y-70219067D01*
X131722156Y-70219065D01*
X131016373Y-69513282D01*
X131062892Y-69500818D01*
X131188308Y-69428410D01*
X131290710Y-69326008D01*
X131363118Y-69200592D01*
X131375582Y-69154073D01*
X132081365Y-69859856D01*
X132081367Y-69859856D01*
X132140354Y-69778667D01*
X132248119Y-69567167D01*
X132321466Y-69341429D01*
X132358600Y-69106978D01*
X132358600Y-68869621D01*
X132321466Y-68635170D01*
X132248119Y-68409432D01*
X132140357Y-68197937D01*
X132140356Y-68197936D01*
X132081366Y-68116742D01*
X131375582Y-68822526D01*
X131363118Y-68776008D01*
X131290710Y-68650592D01*
X131188308Y-68548190D01*
X131062892Y-68475782D01*
X131016371Y-68463316D01*
X131722156Y-67757532D01*
X131722156Y-67757530D01*
X131640968Y-67698546D01*
X131429467Y-67590780D01*
X131203729Y-67517433D01*
X130969279Y-67480300D01*
X130731921Y-67480300D01*
X130497470Y-67517433D01*
X130271732Y-67590780D01*
X130060234Y-67698543D01*
X129979042Y-67757531D01*
X130684827Y-68463317D01*
X130638308Y-68475782D01*
X130512892Y-68548190D01*
X130410490Y-68650592D01*
X130338082Y-68776008D01*
X130325617Y-68822527D01*
X129619831Y-68116742D01*
X129560843Y-68197934D01*
X129453080Y-68409432D01*
X129379733Y-68635170D01*
X129342600Y-68869621D01*
X127859100Y-68869621D01*
X127859100Y-68869578D01*
X127821956Y-68635059D01*
X127748582Y-68409237D01*
X127640785Y-68197673D01*
X127501220Y-68005578D01*
X127501217Y-68005575D01*
X127501215Y-68005572D01*
X127333327Y-67837684D01*
X127333324Y-67837682D01*
X127333322Y-67837680D01*
X127154450Y-67707722D01*
X127137222Y-67695205D01*
X127138409Y-67693570D01*
X127096510Y-67647217D01*
X127084000Y-67592482D01*
X127084000Y-63884117D01*
X127104002Y-63815996D01*
X127138109Y-63782616D01*
X127137222Y-63781395D01*
X127223010Y-63719066D01*
X127333322Y-63638920D01*
X127501220Y-63471022D01*
X127640785Y-63278927D01*
X127748582Y-63067363D01*
X127821956Y-62841541D01*
X127859100Y-62607022D01*
X127859100Y-62369578D01*
X127828934Y-62179118D01*
X127838034Y-62108710D01*
X127864285Y-62070317D01*
X128060400Y-61874204D01*
X128122712Y-61840179D01*
X128149495Y-61837300D01*
X129303094Y-61837300D01*
X129371215Y-61857302D01*
X129417708Y-61910958D01*
X129427812Y-61981232D01*
X129422927Y-62002236D01*
X129379733Y-62135170D01*
X129342600Y-62369621D01*
X129342600Y-62606978D01*
X129379733Y-62841429D01*
X129453080Y-63067167D01*
X129560846Y-63278668D01*
X129619830Y-63359856D01*
X129619833Y-63359856D01*
X130325617Y-62654072D01*
X130338082Y-62700592D01*
X130410490Y-62826008D01*
X130512892Y-62928410D01*
X130638308Y-63000818D01*
X130684825Y-63013282D01*
X129979042Y-63719065D01*
X129979042Y-63719066D01*
X130060236Y-63778056D01*
X130060237Y-63778057D01*
X130271732Y-63885819D01*
X130497470Y-63959166D01*
X130680820Y-63988206D01*
X130744973Y-64018618D01*
X130782500Y-64078887D01*
X130781486Y-64149876D01*
X130773376Y-64169857D01*
X130666285Y-64380036D01*
X130666282Y-64380044D01*
X130590476Y-64613347D01*
X130590476Y-64613350D01*
X130552100Y-64855643D01*
X130552100Y-65100957D01*
X130572334Y-65228705D01*
X130590476Y-65343252D01*
X130622766Y-65442629D01*
X130659027Y-65554229D01*
X130666282Y-65576555D01*
X130666285Y-65576563D01*
X130777651Y-65795132D01*
X130921844Y-65993596D01*
X131095303Y-66167055D01*
X131095306Y-66167057D01*
X131293768Y-66311249D01*
X131512344Y-66422618D01*
X131745650Y-66498424D01*
X131987943Y-66536800D01*
X131987946Y-66536800D01*
X132233254Y-66536800D01*
X132233257Y-66536800D01*
X132475550Y-66498424D01*
X132708856Y-66422618D01*
X132927432Y-66311249D01*
X133125894Y-66167057D01*
X133299357Y-65993594D01*
X133443549Y-65795132D01*
X133554918Y-65576556D01*
X133630724Y-65343250D01*
X133669100Y-65100957D01*
X133669100Y-64855643D01*
X133630724Y-64613350D01*
X133554918Y-64380044D01*
X133443549Y-64161468D01*
X133317455Y-63987916D01*
X133299355Y-63963003D01*
X133125896Y-63789544D01*
X132927432Y-63645351D01*
X132708863Y-63533985D01*
X132708858Y-63533983D01*
X132708856Y-63533982D01*
X132631087Y-63508713D01*
X132475552Y-63458176D01*
X132252040Y-63422775D01*
X132187887Y-63392362D01*
X132150360Y-63332094D01*
X132151374Y-63261104D01*
X132159484Y-63241123D01*
X132248119Y-63067167D01*
X132321466Y-62841429D01*
X132358600Y-62606978D01*
X132358600Y-62369621D01*
X132321466Y-62135170D01*
X132278273Y-62002236D01*
X132276245Y-61931269D01*
X132312908Y-61870471D01*
X132376620Y-61839145D01*
X132398106Y-61837300D01*
X153615206Y-61837300D01*
X153683327Y-61857302D01*
X153704301Y-61874205D01*
X154309375Y-62479279D01*
X154343401Y-62541591D01*
X154338336Y-62612406D01*
X154295789Y-62669242D01*
X154277483Y-62680641D01*
X154201987Y-62719108D01*
X154028993Y-62844796D01*
X154028990Y-62844798D01*
X153877798Y-62995990D01*
X153877796Y-62995993D01*
X153752108Y-63168987D01*
X153751434Y-63170088D01*
X153751068Y-63170418D01*
X153749196Y-63172996D01*
X153748654Y-63172602D01*
X153698787Y-63217721D01*
X153628745Y-63229328D01*
X153563547Y-63201226D01*
X153538976Y-63172870D01*
X153538804Y-63172996D01*
X153537341Y-63170982D01*
X153536566Y-63170088D01*
X153535896Y-63168996D01*
X153535894Y-63168991D01*
X153410206Y-62995996D01*
X153410203Y-62995993D01*
X153410201Y-62995990D01*
X153259009Y-62844798D01*
X153259006Y-62844796D01*
X153259004Y-62844794D01*
X153086009Y-62719106D01*
X152895483Y-62622028D01*
X152895480Y-62622027D01*
X152895478Y-62622026D01*
X152692120Y-62555952D01*
X152692123Y-62555952D01*
X152652801Y-62549724D01*
X152480916Y-62522500D01*
X152267084Y-62522500D01*
X152055884Y-62555951D01*
X152055878Y-62555952D01*
X151852521Y-62622026D01*
X151852515Y-62622029D01*
X151661987Y-62719108D01*
X151488993Y-62844796D01*
X151488990Y-62844798D01*
X151337798Y-62995990D01*
X151337796Y-62995993D01*
X151212108Y-63168987D01*
X151211434Y-63170088D01*
X151211068Y-63170418D01*
X151209196Y-63172996D01*
X151208654Y-63172602D01*
X151158787Y-63217721D01*
X151088745Y-63229328D01*
X151023547Y-63201226D01*
X150998976Y-63172870D01*
X150998804Y-63172996D01*
X150997341Y-63170982D01*
X150996566Y-63170088D01*
X150995896Y-63168996D01*
X150995894Y-63168991D01*
X150870206Y-62995996D01*
X150870203Y-62995993D01*
X150870201Y-62995990D01*
X150719009Y-62844798D01*
X150719006Y-62844796D01*
X150719004Y-62844794D01*
X150546009Y-62719106D01*
X150355483Y-62622028D01*
X150355480Y-62622027D01*
X150355478Y-62622026D01*
X150152120Y-62555952D01*
X150152123Y-62555952D01*
X150112801Y-62549724D01*
X149940916Y-62522500D01*
X149727084Y-62522500D01*
X149515884Y-62555951D01*
X149515878Y-62555952D01*
X149312521Y-62622026D01*
X149312515Y-62622029D01*
X149121987Y-62719108D01*
X148948993Y-62844796D01*
X148948990Y-62844798D01*
X148797798Y-62995990D01*
X148797796Y-62995993D01*
X148672108Y-63168987D01*
X148671434Y-63170088D01*
X148671068Y-63170418D01*
X148669196Y-63172996D01*
X148668654Y-63172602D01*
X148618787Y-63217721D01*
X148548745Y-63229328D01*
X148483547Y-63201226D01*
X148458976Y-63172870D01*
X148458804Y-63172996D01*
X148457341Y-63170982D01*
X148456566Y-63170088D01*
X148455896Y-63168996D01*
X148455894Y-63168991D01*
X148330206Y-62995996D01*
X148330203Y-62995993D01*
X148330201Y-62995990D01*
X148179009Y-62844798D01*
X148179006Y-62844796D01*
X148179004Y-62844794D01*
X148006009Y-62719106D01*
X147815483Y-62622028D01*
X147815480Y-62622027D01*
X147815478Y-62622026D01*
X147612120Y-62555952D01*
X147612123Y-62555952D01*
X147572801Y-62549724D01*
X147400916Y-62522500D01*
X147187084Y-62522500D01*
X146975884Y-62555951D01*
X146975878Y-62555952D01*
X146772521Y-62622026D01*
X146772515Y-62622029D01*
X146581987Y-62719108D01*
X146408993Y-62844796D01*
X146408990Y-62844798D01*
X146257798Y-62995990D01*
X146257796Y-62995993D01*
X146132108Y-63168987D01*
X146131434Y-63170088D01*
X146131068Y-63170418D01*
X146129196Y-63172996D01*
X146128654Y-63172602D01*
X146078787Y-63217721D01*
X146008745Y-63229328D01*
X145943547Y-63201226D01*
X145918976Y-63172870D01*
X145918804Y-63172996D01*
X145917341Y-63170982D01*
X145916566Y-63170088D01*
X145915896Y-63168996D01*
X145915894Y-63168991D01*
X145790206Y-62995996D01*
X145790203Y-62995993D01*
X145790201Y-62995990D01*
X145639009Y-62844798D01*
X145639006Y-62844796D01*
X145639004Y-62844794D01*
X145466009Y-62719106D01*
X145275483Y-62622028D01*
X145275480Y-62622027D01*
X145275478Y-62622026D01*
X145072120Y-62555952D01*
X145072123Y-62555952D01*
X145032801Y-62549724D01*
X144860916Y-62522500D01*
X144647084Y-62522500D01*
X144435884Y-62555951D01*
X144435878Y-62555952D01*
X144232521Y-62622026D01*
X144232515Y-62622029D01*
X144041987Y-62719108D01*
X143868993Y-62844796D01*
X143868990Y-62844798D01*
X143717798Y-62995990D01*
X143717796Y-62995993D01*
X143592108Y-63168987D01*
X143591434Y-63170088D01*
X143591068Y-63170418D01*
X143589196Y-63172996D01*
X143588654Y-63172602D01*
X143538787Y-63217721D01*
X143468745Y-63229328D01*
X143403547Y-63201226D01*
X143378976Y-63172870D01*
X143378804Y-63172996D01*
X143377341Y-63170982D01*
X143376566Y-63170088D01*
X143375896Y-63168996D01*
X143375894Y-63168991D01*
X143250206Y-62995996D01*
X143250203Y-62995993D01*
X143250201Y-62995990D01*
X143099009Y-62844798D01*
X143099006Y-62844796D01*
X143099004Y-62844794D01*
X142926009Y-62719106D01*
X142735483Y-62622028D01*
X142735480Y-62622027D01*
X142735478Y-62622026D01*
X142532120Y-62555952D01*
X142532123Y-62555952D01*
X142492801Y-62549724D01*
X142320916Y-62522500D01*
X142107084Y-62522500D01*
X141895884Y-62555951D01*
X141895878Y-62555952D01*
X141692521Y-62622026D01*
X141692515Y-62622029D01*
X141501987Y-62719108D01*
X141328993Y-62844796D01*
X141328990Y-62844798D01*
X141177798Y-62995990D01*
X141177796Y-62995993D01*
X141052108Y-63168987D01*
X141051434Y-63170088D01*
X141051068Y-63170418D01*
X141049196Y-63172996D01*
X141048654Y-63172602D01*
X140998787Y-63217721D01*
X140928745Y-63229328D01*
X140863547Y-63201226D01*
X140838976Y-63172870D01*
X140838804Y-63172996D01*
X140837341Y-63170982D01*
X140836566Y-63170088D01*
X140835896Y-63168996D01*
X140835894Y-63168991D01*
X140710206Y-62995996D01*
X140710203Y-62995993D01*
X140710201Y-62995990D01*
X140559009Y-62844798D01*
X140559006Y-62844796D01*
X140559004Y-62844794D01*
X140386009Y-62719106D01*
X140195483Y-62622028D01*
X140195480Y-62622027D01*
X140195478Y-62622026D01*
X139992120Y-62555952D01*
X139992123Y-62555952D01*
X139952801Y-62549724D01*
X139780916Y-62522500D01*
X139567084Y-62522500D01*
X139355884Y-62555951D01*
X139355878Y-62555952D01*
X139152521Y-62622026D01*
X139152515Y-62622029D01*
X138961987Y-62719108D01*
X138788993Y-62844796D01*
X138788990Y-62844798D01*
X138637798Y-62995990D01*
X138637796Y-62995993D01*
X138512108Y-63168987D01*
X138415029Y-63359515D01*
X138415026Y-63359521D01*
X138348952Y-63562878D01*
X138348951Y-63562883D01*
X138348951Y-63562884D01*
X138315500Y-63774084D01*
X138315500Y-63987916D01*
X138341152Y-64149876D01*
X138348952Y-64199121D01*
X138407737Y-64380044D01*
X138415028Y-64402483D01*
X138512106Y-64593009D01*
X138512108Y-64593012D01*
X138543182Y-64635781D01*
X138637794Y-64766004D01*
X138637796Y-64766006D01*
X138637798Y-64766009D01*
X138741159Y-64869370D01*
X138775185Y-64931682D01*
X138770120Y-65002497D01*
X138727573Y-65059333D01*
X138696097Y-65076521D01*
X138578033Y-65120556D01*
X138461095Y-65208095D01*
X138373555Y-65325034D01*
X138373555Y-65325035D01*
X138322505Y-65461906D01*
X138316000Y-65522402D01*
X138316000Y-66167000D01*
X139243297Y-66167000D01*
X139208075Y-66228007D01*
X139174000Y-66355174D01*
X139174000Y-66486826D01*
X139208075Y-66613993D01*
X139243297Y-66675000D01*
X138316000Y-66675000D01*
X138316000Y-67319597D01*
X138322505Y-67380093D01*
X138373555Y-67516964D01*
X138373555Y-67516965D01*
X138461095Y-67633904D01*
X138578034Y-67721444D01*
X138714906Y-67772494D01*
X138775402Y-67778999D01*
X138775415Y-67779000D01*
X139420000Y-67779000D01*
X139420000Y-66851702D01*
X139481007Y-66886925D01*
X139608174Y-66921000D01*
X139739826Y-66921000D01*
X139866993Y-66886925D01*
X139928000Y-66851702D01*
X139928000Y-67779000D01*
X140184500Y-67779000D01*
X140252621Y-67799002D01*
X140299114Y-67852658D01*
X140310500Y-67905000D01*
X140310500Y-71659606D01*
X140290498Y-71727727D01*
X140273595Y-71748701D01*
X137883668Y-74138627D01*
X137883667Y-74138629D01*
X137864371Y-74157925D01*
X137816213Y-74206082D01*
X137753900Y-74240106D01*
X137683085Y-74235040D01*
X137669916Y-74229251D01*
X137660737Y-74224574D01*
X137628749Y-74194362D01*
X137626250Y-74192492D01*
X137625968Y-74191736D01*
X137609122Y-74175826D01*
X137592056Y-74106911D01*
X137613175Y-74042306D01*
X137631871Y-74014325D01*
X137663402Y-73967136D01*
X137731887Y-73801800D01*
X137766800Y-73626279D01*
X137766800Y-73447321D01*
X137731887Y-73271800D01*
X137663402Y-73106464D01*
X137563978Y-72957665D01*
X137437435Y-72831122D01*
X137288636Y-72731698D01*
X137171729Y-72683273D01*
X137123303Y-72663214D01*
X137123301Y-72663213D01*
X137123300Y-72663213D01*
X137079273Y-72654455D01*
X137049796Y-72648592D01*
X136986887Y-72615684D01*
X136951756Y-72553988D01*
X136955557Y-72483093D01*
X136985280Y-72435922D01*
X137940350Y-71480852D01*
X138002660Y-71446828D01*
X138073475Y-71451893D01*
X138077661Y-71453540D01*
X138200894Y-71504585D01*
X138200896Y-71504585D01*
X138200900Y-71504587D01*
X138376421Y-71539500D01*
X138376422Y-71539500D01*
X138555378Y-71539500D01*
X138555379Y-71539500D01*
X138730900Y-71504587D01*
X138896236Y-71436102D01*
X139045035Y-71336678D01*
X139171578Y-71210135D01*
X139271002Y-71061336D01*
X139339487Y-70896000D01*
X139374400Y-70720479D01*
X139374400Y-70541521D01*
X139339487Y-70366000D01*
X139271002Y-70200664D01*
X139171578Y-70051865D01*
X139045035Y-69925322D01*
X138896236Y-69825898D01*
X138779329Y-69777473D01*
X138730903Y-69757414D01*
X138730901Y-69757413D01*
X138730900Y-69757413D01*
X138642545Y-69739838D01*
X138555381Y-69722500D01*
X138555379Y-69722500D01*
X138376421Y-69722500D01*
X138376418Y-69722500D01*
X138245671Y-69748507D01*
X138200900Y-69757413D01*
X138200899Y-69757413D01*
X138200896Y-69757414D01*
X138137049Y-69783861D01*
X138058946Y-69816213D01*
X138035562Y-69825899D01*
X137984742Y-69859856D01*
X137886770Y-69925319D01*
X137886764Y-69925323D01*
X137886761Y-69925324D01*
X137837311Y-69974774D01*
X137774998Y-70008798D01*
X137772801Y-70009255D01*
X137709520Y-70021843D01*
X137709512Y-70021846D01*
X137594223Y-70069601D01*
X137490471Y-70138926D01*
X137490464Y-70138931D01*
X133150042Y-74479353D01*
X133087730Y-74513379D01*
X133016914Y-74508314D01*
X132971852Y-74479353D01*
X132932435Y-74439936D01*
X132932432Y-74439934D01*
X132932430Y-74439932D01*
X132802100Y-74345242D01*
X132765806Y-74318873D01*
X132765805Y-74318872D01*
X132765803Y-74318871D01*
X132582290Y-74225366D01*
X132582287Y-74225365D01*
X132582285Y-74225364D01*
X132386412Y-74161721D01*
X132386410Y-74161720D01*
X132386408Y-74161720D01*
X132182981Y-74129500D01*
X131977019Y-74129500D01*
X131780809Y-74160576D01*
X131710400Y-74151477D01*
X131656086Y-74105755D01*
X131635113Y-74037927D01*
X131635100Y-74036128D01*
X131635100Y-72589194D01*
X131655102Y-72521073D01*
X131672005Y-72500099D01*
X135063168Y-69108937D01*
X135063168Y-69108936D01*
X135063173Y-69108932D01*
X135132502Y-69005174D01*
X135180256Y-68889883D01*
X135204601Y-68767492D01*
X135204601Y-68642705D01*
X135204601Y-68091604D01*
X135224603Y-68023483D01*
X135241506Y-68002509D01*
X135257689Y-67986326D01*
X135276779Y-67967236D01*
X135376203Y-67818437D01*
X135444688Y-67653101D01*
X135479601Y-67477580D01*
X135479601Y-67298622D01*
X135444688Y-67123101D01*
X135376203Y-66957765D01*
X135276779Y-66808966D01*
X135150236Y-66682423D01*
X135001437Y-66582999D01*
X134868456Y-66527916D01*
X134836104Y-66514515D01*
X134836102Y-66514514D01*
X134836101Y-66514514D01*
X134747746Y-66496939D01*
X134660582Y-66479601D01*
X134660580Y-66479601D01*
X134481622Y-66479601D01*
X134481619Y-66479601D01*
X134350872Y-66505608D01*
X134306101Y-66514514D01*
X134306100Y-66514514D01*
X134306097Y-66514515D01*
X134140763Y-66583000D01*
X133991970Y-66682420D01*
X133991963Y-66682425D01*
X133865425Y-66808963D01*
X133865420Y-66808970D01*
X133766000Y-66957763D01*
X133697515Y-67123097D01*
X133697514Y-67123100D01*
X133697514Y-67123101D01*
X133695937Y-67131030D01*
X133662601Y-67298619D01*
X133662601Y-67477582D01*
X133679150Y-67560779D01*
X133691144Y-67621079D01*
X133697515Y-67653104D01*
X133708644Y-67679972D01*
X133765999Y-67818437D01*
X133865423Y-67967236D01*
X133865425Y-67967238D01*
X133900696Y-68002509D01*
X133934722Y-68064821D01*
X133937601Y-68091604D01*
X133937601Y-68390504D01*
X133917599Y-68458625D01*
X133900696Y-68479599D01*
X130597767Y-71782529D01*
X130509531Y-71870764D01*
X130509526Y-71870771D01*
X130440201Y-71974523D01*
X130392446Y-72089812D01*
X130368100Y-72212203D01*
X130368100Y-74185761D01*
X130348098Y-74253882D01*
X130294442Y-74300375D01*
X130224168Y-74310479D01*
X130184897Y-74298028D01*
X130115114Y-74262472D01*
X130042290Y-74225366D01*
X130042287Y-74225365D01*
X130042285Y-74225364D01*
X129846412Y-74161721D01*
X129846410Y-74161720D01*
X129846408Y-74161720D01*
X129642981Y-74129500D01*
X129437019Y-74129500D01*
X129233592Y-74161720D01*
X129233590Y-74161720D01*
X129233587Y-74161721D01*
X129037714Y-74225364D01*
X129037708Y-74225367D01*
X128854193Y-74318873D01*
X128687567Y-74439934D01*
X128687564Y-74439936D01*
X128541936Y-74585564D01*
X128541934Y-74585567D01*
X128420872Y-74752193D01*
X128392011Y-74808838D01*
X128381988Y-74828510D01*
X128381987Y-74828511D01*
X128333238Y-74880126D01*
X128264323Y-74897192D01*
X128197122Y-74874291D01*
X128157453Y-74828511D01*
X128118700Y-74752455D01*
X127997684Y-74585892D01*
X127997682Y-74585889D01*
X127852110Y-74440317D01*
X127852107Y-74440315D01*
X127685545Y-74319300D01*
X127502099Y-74225829D01*
X127502093Y-74225826D01*
X127306294Y-74162208D01*
X127306296Y-74162208D01*
X127254000Y-74153925D01*
X127254000Y-75126314D01*
X127245606Y-75117920D01*
X127154394Y-75065259D01*
X127052661Y-75038000D01*
X126947339Y-75038000D01*
X126845606Y-75065259D01*
X126754394Y-75117920D01*
X126746000Y-75126314D01*
X126746000Y-74153925D01*
X126693704Y-74162208D01*
X126497906Y-74225826D01*
X126497900Y-74225829D01*
X126314454Y-74319300D01*
X126147892Y-74440315D01*
X126147889Y-74440317D01*
X126002317Y-74585889D01*
X126002315Y-74585892D01*
X125881299Y-74752455D01*
X125842545Y-74828513D01*
X125793796Y-74880127D01*
X125724881Y-74897192D01*
X125657680Y-74874290D01*
X125618013Y-74828511D01*
X125579129Y-74752197D01*
X125458068Y-74585570D01*
X125458065Y-74585567D01*
X125458063Y-74585564D01*
X125312435Y-74439936D01*
X125312432Y-74439934D01*
X125312430Y-74439932D01*
X125182100Y-74345242D01*
X125145806Y-74318873D01*
X125145805Y-74318872D01*
X125145803Y-74318871D01*
X124962290Y-74225366D01*
X124962287Y-74225365D01*
X124962285Y-74225364D01*
X124766412Y-74161721D01*
X124766410Y-74161720D01*
X124766408Y-74161720D01*
X124562981Y-74129500D01*
X124357019Y-74129500D01*
X124153592Y-74161720D01*
X124153590Y-74161720D01*
X124153587Y-74161721D01*
X123957714Y-74225364D01*
X123957708Y-74225367D01*
X123774193Y-74318873D01*
X123607567Y-74439934D01*
X123607564Y-74439936D01*
X123461936Y-74585564D01*
X123461934Y-74585567D01*
X123340873Y-74752193D01*
X123247367Y-74935708D01*
X123247364Y-74935714D01*
X123183721Y-75131587D01*
X123183720Y-75131590D01*
X123183720Y-75131592D01*
X123151500Y-75335019D01*
X123151500Y-75540981D01*
X123178205Y-75709588D01*
X123183721Y-75744412D01*
X123243188Y-75927434D01*
X123247366Y-75940290D01*
X123340871Y-76123803D01*
X123461932Y-76290430D01*
X123461934Y-76290432D01*
X123461936Y-76290435D01*
X123607564Y-76436063D01*
X123607567Y-76436065D01*
X123607570Y-76436068D01*
X123774197Y-76557129D01*
X123957710Y-76650634D01*
X124153592Y-76714280D01*
X124357019Y-76746500D01*
X124357022Y-76746500D01*
X124562978Y-76746500D01*
X124562981Y-76746500D01*
X124766408Y-76714280D01*
X124962290Y-76650634D01*
X125145803Y-76557129D01*
X125312430Y-76436068D01*
X125458068Y-76290430D01*
X125579129Y-76123803D01*
X125618014Y-76047486D01*
X125666759Y-75995874D01*
X125735674Y-75978807D01*
X125802876Y-76001707D01*
X125842545Y-76047487D01*
X125881298Y-76123542D01*
X126002315Y-76290107D01*
X126002317Y-76290110D01*
X126147889Y-76435682D01*
X126147892Y-76435684D01*
X126314454Y-76556699D01*
X126497900Y-76650170D01*
X126497906Y-76650173D01*
X126693705Y-76713791D01*
X126693717Y-76713794D01*
X126745999Y-76722074D01*
X126746000Y-76722074D01*
X126746000Y-75749686D01*
X126754394Y-75758080D01*
X126845606Y-75810741D01*
X126947339Y-75838000D01*
X127052661Y-75838000D01*
X127154394Y-75810741D01*
X127245606Y-75758080D01*
X127254000Y-75749686D01*
X127254000Y-76722074D01*
X127306282Y-76713794D01*
X127306294Y-76713791D01*
X127502093Y-76650173D01*
X127502099Y-76650170D01*
X127685545Y-76556699D01*
X127852107Y-76435684D01*
X127852110Y-76435682D01*
X127997682Y-76290110D01*
X127997684Y-76290107D01*
X128118699Y-76123545D01*
X128157453Y-76047488D01*
X128206201Y-75995873D01*
X128275116Y-75978807D01*
X128342318Y-76001708D01*
X128381985Y-76047486D01*
X128420871Y-76123803D01*
X128541932Y-76290430D01*
X128541934Y-76290432D01*
X128541936Y-76290435D01*
X128687564Y-76436063D01*
X128687567Y-76436065D01*
X128687570Y-76436068D01*
X128741277Y-76475088D01*
X128854195Y-76557128D01*
X128858420Y-76559717D01*
X128857665Y-76560948D01*
X128904564Y-76605239D01*
X128919326Y-76644177D01*
X128930845Y-76702085D01*
X128978600Y-76817375D01*
X129047929Y-76921133D01*
X129047931Y-76921135D01*
X132679595Y-80552799D01*
X132713621Y-80615111D01*
X132716500Y-80641894D01*
X132716500Y-89336074D01*
X132696498Y-89404195D01*
X132642842Y-89450688D01*
X132572568Y-89460792D01*
X132551564Y-89455907D01*
X132386295Y-89402208D01*
X132386296Y-89402208D01*
X132334000Y-89393925D01*
X132334000Y-90366314D01*
X132325606Y-90357920D01*
X132234394Y-90305259D01*
X132132661Y-90278000D01*
X132027339Y-90278000D01*
X131925606Y-90305259D01*
X131834394Y-90357920D01*
X131826000Y-90366314D01*
X131826000Y-89393925D01*
X131773704Y-89402208D01*
X131577906Y-89465826D01*
X131577900Y-89465829D01*
X131394454Y-89559300D01*
X131227892Y-89680315D01*
X131227889Y-89680317D01*
X131082317Y-89825889D01*
X131082315Y-89825892D01*
X130961299Y-89992455D01*
X130922545Y-90068513D01*
X130873796Y-90120127D01*
X130804881Y-90137192D01*
X130737680Y-90114290D01*
X130698013Y-90068511D01*
X130659129Y-89992197D01*
X130538068Y-89825570D01*
X130538065Y-89825567D01*
X130538063Y-89825564D01*
X130392435Y-89679936D01*
X130392432Y-89679934D01*
X130392430Y-89679932D01*
X130245602Y-89573256D01*
X130225806Y-89558873D01*
X130225805Y-89558872D01*
X130225803Y-89558871D01*
X130042290Y-89465366D01*
X130042287Y-89465365D01*
X130042285Y-89465364D01*
X129846412Y-89401721D01*
X129846410Y-89401720D01*
X129846408Y-89401720D01*
X129642981Y-89369500D01*
X129437019Y-89369500D01*
X129233592Y-89401720D01*
X129233590Y-89401720D01*
X129233587Y-89401721D01*
X129232031Y-89402227D01*
X129231405Y-89402244D01*
X129228772Y-89402877D01*
X129228639Y-89402323D01*
X129161063Y-89404251D01*
X129100267Y-89367586D01*
X129068944Y-89303872D01*
X129067100Y-89282392D01*
X129067100Y-88371094D01*
X129087102Y-88302973D01*
X129104000Y-88282003D01*
X130569772Y-86816233D01*
X130639101Y-86712475D01*
X130677614Y-86619494D01*
X130686855Y-86597185D01*
X130711200Y-86474794D01*
X130711200Y-82367603D01*
X130731202Y-82299482D01*
X130748105Y-82278508D01*
X130764025Y-82262588D01*
X130783378Y-82243235D01*
X130882802Y-82094436D01*
X130951287Y-81929100D01*
X130986200Y-81753579D01*
X130986200Y-81574621D01*
X130951287Y-81399100D01*
X130882802Y-81233764D01*
X130783378Y-81084965D01*
X130656835Y-80958422D01*
X130508036Y-80858998D01*
X130391129Y-80810573D01*
X130342703Y-80790514D01*
X130342701Y-80790513D01*
X130342700Y-80790513D01*
X130254345Y-80772938D01*
X130167181Y-80755600D01*
X130167179Y-80755600D01*
X129988221Y-80755600D01*
X129988218Y-80755600D01*
X129857471Y-80781607D01*
X129812700Y-80790513D01*
X129812699Y-80790513D01*
X129812696Y-80790514D01*
X129647362Y-80858999D01*
X129498569Y-80958419D01*
X129498562Y-80958424D01*
X129372024Y-81084962D01*
X129372019Y-81084969D01*
X129272599Y-81233762D01*
X129204114Y-81399096D01*
X129204113Y-81399099D01*
X129204113Y-81399100D01*
X129200734Y-81416087D01*
X129169200Y-81574618D01*
X129169200Y-81753581D01*
X129172028Y-81767796D01*
X129204113Y-81929100D01*
X129272598Y-82094436D01*
X129372022Y-82243235D01*
X129372024Y-82243237D01*
X129407295Y-82278508D01*
X129441321Y-82340820D01*
X129444200Y-82367603D01*
X129444200Y-83651889D01*
X129424198Y-83720010D01*
X129370542Y-83766503D01*
X129300268Y-83776607D01*
X129248199Y-83756654D01*
X129127940Y-83676300D01*
X129127939Y-83676299D01*
X128962603Y-83607814D01*
X128962601Y-83607813D01*
X128962600Y-83607813D01*
X128874245Y-83590238D01*
X128787081Y-83572900D01*
X128787079Y-83572900D01*
X128608121Y-83572900D01*
X128608118Y-83572900D01*
X128477371Y-83598907D01*
X128432600Y-83607813D01*
X128432599Y-83607813D01*
X128432596Y-83607814D01*
X128267262Y-83676299D01*
X128118469Y-83775719D01*
X128118462Y-83775724D01*
X127991924Y-83902262D01*
X127991919Y-83902269D01*
X127919051Y-84011325D01*
X127892498Y-84051064D01*
X127890214Y-84056579D01*
X127824014Y-84216396D01*
X127824013Y-84216399D01*
X127824013Y-84216400D01*
X127817527Y-84249006D01*
X127789100Y-84391918D01*
X127789100Y-84441805D01*
X127769098Y-84509926D01*
X127752195Y-84530900D01*
X125490767Y-86792329D01*
X125402531Y-86880564D01*
X125402526Y-86880571D01*
X125333201Y-86984323D01*
X125285446Y-87099612D01*
X125261100Y-87222003D01*
X125261100Y-89243500D01*
X125241098Y-89311621D01*
X125187442Y-89358114D01*
X125135100Y-89369500D01*
X123611350Y-89369500D01*
X123550803Y-89376009D01*
X123550795Y-89376011D01*
X123413797Y-89427110D01*
X123413792Y-89427112D01*
X123296738Y-89514738D01*
X123209112Y-89631792D01*
X123209110Y-89631797D01*
X123158011Y-89768795D01*
X123158009Y-89768803D01*
X123151500Y-89829350D01*
X123151500Y-91526649D01*
X123158009Y-91587196D01*
X123158011Y-91587204D01*
X123209110Y-91724202D01*
X123209112Y-91724207D01*
X123296738Y-91841261D01*
X123413792Y-91928887D01*
X123413794Y-91928888D01*
X123413796Y-91928889D01*
X123467418Y-91948889D01*
X123550795Y-91979988D01*
X123550803Y-91979990D01*
X123611350Y-91986499D01*
X123611355Y-91986499D01*
X123611362Y-91986500D01*
X125135100Y-91986500D01*
X125203221Y-92006502D01*
X125249714Y-92060158D01*
X125261100Y-92112500D01*
X125261100Y-92883206D01*
X125261100Y-93007994D01*
X125285445Y-93130385D01*
X125333200Y-93245675D01*
X125402529Y-93349433D01*
X125402531Y-93349435D01*
X126065995Y-94012899D01*
X126100021Y-94075211D01*
X126102900Y-94101994D01*
X126102900Y-95159100D01*
X126082898Y-95227221D01*
X126029242Y-95273714D01*
X125976900Y-95285100D01*
X125965818Y-95285100D01*
X125835577Y-95311007D01*
X125790300Y-95320013D01*
X125790299Y-95320013D01*
X125790296Y-95320014D01*
X125624962Y-95388499D01*
X125476169Y-95487919D01*
X125476162Y-95487924D01*
X125349624Y-95614462D01*
X125349619Y-95614469D01*
X125250199Y-95763262D01*
X125181714Y-95928596D01*
X125146800Y-96104118D01*
X125146800Y-96283081D01*
X125151173Y-96305064D01*
X125181713Y-96458600D01*
X125250198Y-96623936D01*
X125349622Y-96772735D01*
X125349624Y-96772737D01*
X125384895Y-96808008D01*
X125418921Y-96870320D01*
X125421800Y-96897103D01*
X125421800Y-100093281D01*
X125401798Y-100161402D01*
X125365802Y-100198046D01*
X125265569Y-100265019D01*
X125265562Y-100265024D01*
X125139024Y-100391562D01*
X125139019Y-100391569D01*
X125039599Y-100540362D01*
X124971114Y-100705696D01*
X124971113Y-100705699D01*
X124971113Y-100705700D01*
X124968923Y-100716710D01*
X124936200Y-100881218D01*
X124936200Y-100881221D01*
X124936200Y-101060179D01*
X124968460Y-101222364D01*
X124971114Y-101235703D01*
X124973293Y-101240964D01*
X125039598Y-101401036D01*
X125139022Y-101549835D01*
X125265565Y-101676378D01*
X125414364Y-101775802D01*
X125579700Y-101844287D01*
X125755221Y-101879200D01*
X125755222Y-101879200D01*
X125869900Y-101879200D01*
X125938021Y-101899202D01*
X125984514Y-101952858D01*
X125995900Y-102005200D01*
X125995900Y-104964996D01*
X126002057Y-104995951D01*
X126002057Y-105045107D01*
X125993900Y-105086119D01*
X125993900Y-105265081D01*
X126001419Y-105302880D01*
X126021089Y-105401771D01*
X126028814Y-105440603D01*
X126031286Y-105446570D01*
X126097298Y-105605936D01*
X126196722Y-105754735D01*
X126323265Y-105881278D01*
X126472064Y-105980702D01*
X126637400Y-106049187D01*
X126812921Y-106084100D01*
X126812922Y-106084100D01*
X126991878Y-106084100D01*
X126991879Y-106084100D01*
X127167400Y-106049187D01*
X127332736Y-105980702D01*
X127481535Y-105881278D01*
X127608078Y-105754735D01*
X127707502Y-105605936D01*
X127707502Y-105605935D01*
X127710941Y-105600789D01*
X127712051Y-105601530D01*
X127756983Y-105555783D01*
X127826219Y-105540068D01*
X127888362Y-105561057D01*
X127916864Y-105580102D01*
X128082200Y-105648587D01*
X128257721Y-105683500D01*
X128257722Y-105683500D01*
X128436678Y-105683500D01*
X128436679Y-105683500D01*
X128612200Y-105648587D01*
X128777536Y-105580102D01*
X128926335Y-105480678D01*
X129052878Y-105354135D01*
X129152302Y-105205336D01*
X129220787Y-105040000D01*
X129255700Y-104864479D01*
X129255700Y-104685521D01*
X129220787Y-104510000D01*
X129152302Y-104344664D01*
X129052878Y-104195865D01*
X128926335Y-104069322D01*
X128777536Y-103969898D01*
X128660629Y-103921473D01*
X128612203Y-103901414D01*
X128612201Y-103901413D01*
X128612200Y-103901413D01*
X128523845Y-103883838D01*
X128436681Y-103866500D01*
X128436679Y-103866500D01*
X128386795Y-103866500D01*
X128318674Y-103846498D01*
X128297700Y-103829595D01*
X127994805Y-103526700D01*
X127960779Y-103464388D01*
X127957900Y-103437605D01*
X127957900Y-101713393D01*
X127977902Y-101645272D01*
X128031558Y-101598779D01*
X128101832Y-101588675D01*
X128108454Y-101589809D01*
X128257721Y-101619500D01*
X128257722Y-101619500D01*
X128436678Y-101619500D01*
X128436679Y-101619500D01*
X128612200Y-101584587D01*
X128777536Y-101516102D01*
X128926335Y-101416678D01*
X129052878Y-101290135D01*
X129152302Y-101141336D01*
X129220787Y-100976000D01*
X129255700Y-100800479D01*
X129255700Y-100621521D01*
X129220787Y-100446000D01*
X129152302Y-100280664D01*
X129052878Y-100131865D01*
X129017605Y-100096592D01*
X128983579Y-100034280D01*
X128980700Y-100007497D01*
X128980700Y-97784707D01*
X128980699Y-97784703D01*
X128962522Y-97693319D01*
X128968850Y-97622605D01*
X129012404Y-97566537D01*
X129037880Y-97552330D01*
X129066436Y-97540502D01*
X129215235Y-97441078D01*
X129341778Y-97314535D01*
X129441202Y-97165736D01*
X129509687Y-97000400D01*
X129544600Y-96824879D01*
X129544600Y-96645921D01*
X129509687Y-96470400D01*
X129441202Y-96305064D01*
X129341778Y-96156265D01*
X129215235Y-96029722D01*
X129123097Y-95968157D01*
X129077570Y-95913679D01*
X129067100Y-95863392D01*
X129067100Y-92073607D01*
X129087102Y-92005486D01*
X129140758Y-91958993D01*
X129211032Y-91948889D01*
X129232044Y-91953777D01*
X129233592Y-91954280D01*
X129437019Y-91986500D01*
X129437022Y-91986500D01*
X129642978Y-91986500D01*
X129642981Y-91986500D01*
X129846408Y-91954280D01*
X130042290Y-91890634D01*
X130225803Y-91797129D01*
X130392430Y-91676068D01*
X130538068Y-91530430D01*
X130659129Y-91363803D01*
X130698014Y-91287486D01*
X130746759Y-91235874D01*
X130815674Y-91218807D01*
X130882876Y-91241707D01*
X130922545Y-91287487D01*
X130961298Y-91363542D01*
X131082315Y-91530107D01*
X131082317Y-91530110D01*
X131227889Y-91675682D01*
X131227892Y-91675684D01*
X131394454Y-91796699D01*
X131577900Y-91890170D01*
X131577906Y-91890173D01*
X131773705Y-91953791D01*
X131773717Y-91953794D01*
X131825999Y-91962074D01*
X131826000Y-91962074D01*
X131826000Y-90989686D01*
X131834394Y-90998080D01*
X131925606Y-91050741D01*
X132027339Y-91078000D01*
X132132661Y-91078000D01*
X132234394Y-91050741D01*
X132325606Y-90998080D01*
X132334000Y-90989686D01*
X132334000Y-91962074D01*
X132386282Y-91953794D01*
X132386294Y-91953791D01*
X132551564Y-91900092D01*
X132622531Y-91898064D01*
X132683329Y-91934727D01*
X132714655Y-91998439D01*
X132716500Y-92019925D01*
X132716500Y-93236076D01*
X132716055Y-93238404D01*
X132716500Y-93298435D01*
X132716500Y-93358660D01*
X132716677Y-93360332D01*
X132716771Y-93361250D01*
X132716945Y-93363023D01*
X132729035Y-93421539D01*
X132729161Y-93422149D01*
X132740845Y-93480885D01*
X132741748Y-93483066D01*
X132742229Y-93485391D01*
X132765410Y-93540201D01*
X132765770Y-93541062D01*
X132788597Y-93596171D01*
X132789863Y-93598538D01*
X132789863Y-93598540D01*
X132789868Y-93598549D01*
X132790742Y-93600184D01*
X132824263Y-93649557D01*
X132824783Y-93650329D01*
X132857926Y-93699930D01*
X132859665Y-93702049D01*
X132859680Y-93702067D01*
X132860815Y-93703450D01*
X132860936Y-93703569D01*
X132903682Y-93745686D01*
X132946167Y-93788171D01*
X132948138Y-93789488D01*
X132949826Y-93791151D01*
X132999620Y-93823892D01*
X132999621Y-93823892D01*
X132999983Y-93824130D01*
X133049925Y-93857500D01*
X133052115Y-93858407D01*
X133054095Y-93859709D01*
X133109746Y-93882279D01*
X133165215Y-93905255D01*
X133167538Y-93905717D01*
X133169735Y-93906608D01*
X133228366Y-93917818D01*
X133229002Y-93917942D01*
X133287606Y-93929600D01*
X133287614Y-93929600D01*
X133290385Y-93929873D01*
X133290403Y-93929875D01*
X133292130Y-93930045D01*
X133292297Y-93930043D01*
X133292304Y-93930045D01*
X133352336Y-93929600D01*
X133412394Y-93929600D01*
X133414718Y-93929137D01*
X134043621Y-93924475D01*
X134111888Y-93943972D01*
X134158778Y-93997282D01*
X134160963Y-94002253D01*
X134167895Y-94018989D01*
X134167897Y-94018993D01*
X134204074Y-94073136D01*
X134267322Y-94167793D01*
X134393865Y-94294336D01*
X134542664Y-94393760D01*
X134708000Y-94462245D01*
X134883521Y-94497158D01*
X134933406Y-94497158D01*
X134963321Y-94505941D01*
X134993791Y-94512570D01*
X134998886Y-94516384D01*
X135001527Y-94517160D01*
X135022501Y-94534063D01*
X135152495Y-94664057D01*
X135186521Y-94726369D01*
X135189400Y-94753152D01*
X135189400Y-114600596D01*
X135199085Y-114649286D01*
X135213745Y-114722985D01*
X135261500Y-114838275D01*
X135330829Y-114942033D01*
X135330831Y-114942035D01*
X138357195Y-117968399D01*
X138391221Y-118030711D01*
X138394100Y-118057494D01*
X138394100Y-118342536D01*
X138389545Y-118358045D01*
X138390056Y-118374203D01*
X138379749Y-118391410D01*
X138374098Y-118410657D01*
X138361880Y-118421243D01*
X138353575Y-118435110D01*
X138335602Y-118444013D01*
X138320442Y-118457150D01*
X138303671Y-118459831D01*
X138289957Y-118466626D01*
X138263036Y-118466329D01*
X138254111Y-118467757D01*
X138248778Y-118467161D01*
X138139879Y-118445500D01*
X138054878Y-118445500D01*
X138047905Y-118444721D01*
X138021373Y-118433602D01*
X137993773Y-118425498D01*
X137984821Y-118418283D01*
X137982426Y-118417280D01*
X137980994Y-118415199D01*
X137972799Y-118408595D01*
X136874405Y-117310201D01*
X136840379Y-117247889D01*
X136837500Y-117221106D01*
X136837500Y-117171222D01*
X136837499Y-117171218D01*
X136802587Y-116995700D01*
X136734102Y-116830364D01*
X136634678Y-116681565D01*
X136508135Y-116555022D01*
X136359336Y-116455598D01*
X136242429Y-116407173D01*
X136194003Y-116387114D01*
X136194001Y-116387113D01*
X136194000Y-116387113D01*
X136092759Y-116366975D01*
X136018481Y-116352200D01*
X136018479Y-116352200D01*
X135839521Y-116352200D01*
X135839518Y-116352200D01*
X135708771Y-116378207D01*
X135664000Y-116387113D01*
X135663999Y-116387113D01*
X135663996Y-116387114D01*
X135498662Y-116455599D01*
X135349869Y-116555019D01*
X135349862Y-116555024D01*
X135223324Y-116681562D01*
X135223319Y-116681569D01*
X135160155Y-116776102D01*
X135123898Y-116830364D01*
X135118007Y-116844587D01*
X135055414Y-116995696D01*
X135020500Y-117171218D01*
X135020500Y-117350181D01*
X135025019Y-117372900D01*
X135055413Y-117525700D01*
X135123898Y-117691036D01*
X135223322Y-117839835D01*
X135349865Y-117966378D01*
X135498664Y-118065802D01*
X135664000Y-118134287D01*
X135839521Y-118169200D01*
X135889406Y-118169200D01*
X135957527Y-118189202D01*
X135978501Y-118206105D01*
X137104995Y-119332599D01*
X137139021Y-119394911D01*
X137141900Y-119421694D01*
X137141900Y-119443481D01*
X137153398Y-119501285D01*
X137176813Y-119619000D01*
X137245298Y-119784336D01*
X137344722Y-119933135D01*
X137471265Y-120059678D01*
X137620064Y-120159102D01*
X137785400Y-120227587D01*
X137960921Y-120262500D01*
X137960922Y-120262500D01*
X138139878Y-120262500D01*
X138139879Y-120262500D01*
X138315400Y-120227587D01*
X138480736Y-120159102D01*
X138629535Y-120059678D01*
X138629534Y-120059678D01*
X138634682Y-120056239D01*
X138635618Y-120057640D01*
X138693487Y-120033046D01*
X138756324Y-120041787D01*
X138762600Y-120044387D01*
X138938121Y-120079300D01*
X138938122Y-120079300D01*
X139117078Y-120079300D01*
X139117079Y-120079300D01*
X139292600Y-120044387D01*
X139457936Y-119975902D01*
X139606735Y-119876478D01*
X139667183Y-119816029D01*
X139729492Y-119782005D01*
X139780854Y-119781546D01*
X139908821Y-119807000D01*
X139908822Y-119807000D01*
X140087778Y-119807000D01*
X140087779Y-119807000D01*
X140263300Y-119772087D01*
X140428636Y-119703602D01*
X140577435Y-119604178D01*
X140685705Y-119495908D01*
X140748017Y-119461882D01*
X140818832Y-119466947D01*
X140875668Y-119509494D01*
X140900479Y-119576014D01*
X140900800Y-119585003D01*
X140900800Y-120316297D01*
X140880798Y-120384418D01*
X140863895Y-120405392D01*
X140836024Y-120433262D01*
X140836019Y-120433269D01*
X140736599Y-120582062D01*
X140668114Y-120747396D01*
X140633200Y-120922918D01*
X140633200Y-120922921D01*
X140633200Y-121101879D01*
X140668113Y-121277400D01*
X140736598Y-121442736D01*
X140836022Y-121591535D01*
X140962565Y-121718078D01*
X141111364Y-121817502D01*
X141261163Y-121879551D01*
X141316444Y-121924100D01*
X141338865Y-121991463D01*
X141321307Y-122060254D01*
X141302040Y-122085055D01*
X140117718Y-123269376D01*
X140055406Y-123303402D01*
X139984590Y-123298337D01*
X139980405Y-123296690D01*
X139851305Y-123243214D01*
X139675781Y-123208300D01*
X139675779Y-123208300D01*
X139496821Y-123208300D01*
X139496818Y-123208300D01*
X139366071Y-123234307D01*
X139321300Y-123243213D01*
X139321299Y-123243213D01*
X139321296Y-123243214D01*
X139155962Y-123311699D01*
X139007169Y-123411119D01*
X139007162Y-123411124D01*
X138971892Y-123446395D01*
X138909580Y-123480421D01*
X138882797Y-123483300D01*
X137310446Y-123483300D01*
X137242325Y-123463298D01*
X137195832Y-123409642D01*
X137186867Y-123381882D01*
X137177588Y-123335234D01*
X137165587Y-123274900D01*
X137097102Y-123109564D01*
X136997678Y-122960765D01*
X136971953Y-122935040D01*
X136967545Y-122926968D01*
X136960180Y-122921455D01*
X136950795Y-122896293D01*
X136937927Y-122872728D01*
X136938583Y-122863552D01*
X136935369Y-122854935D01*
X136941076Y-122828698D01*
X136942992Y-122801913D01*
X136948903Y-122792713D01*
X136950460Y-122785560D01*
X136971949Y-122756853D01*
X137039295Y-122689507D01*
X137101603Y-122655485D01*
X137152965Y-122655026D01*
X137260421Y-122676400D01*
X137260422Y-122676400D01*
X137439378Y-122676400D01*
X137439379Y-122676400D01*
X137614900Y-122641487D01*
X137780236Y-122573002D01*
X137929035Y-122473578D01*
X138055578Y-122347035D01*
X138155002Y-122198236D01*
X138223487Y-122032900D01*
X138258400Y-121857379D01*
X138258400Y-121678421D01*
X138223487Y-121502900D01*
X138155002Y-121337564D01*
X138055578Y-121188765D01*
X137929035Y-121062222D01*
X137780236Y-120962798D01*
X137641251Y-120905228D01*
X137614903Y-120894314D01*
X137614901Y-120894313D01*
X137614900Y-120894313D01*
X137526545Y-120876738D01*
X137439381Y-120859400D01*
X137439379Y-120859400D01*
X137260421Y-120859400D01*
X137260418Y-120859400D01*
X137129671Y-120885407D01*
X137084900Y-120894313D01*
X137084899Y-120894313D01*
X137084896Y-120894314D01*
X136919562Y-120962799D01*
X136770769Y-121062219D01*
X136770762Y-121062224D01*
X136644224Y-121188762D01*
X136644219Y-121188769D01*
X136544797Y-121337565D01*
X136544794Y-121337571D01*
X136515755Y-121407676D01*
X136488442Y-121448552D01*
X130526967Y-127410029D01*
X130438731Y-127498264D01*
X130438726Y-127498271D01*
X130386314Y-127576712D01*
X130369400Y-127602025D01*
X130321645Y-127717315D01*
X130312305Y-127764269D01*
X130297300Y-127839703D01*
X130297300Y-130480597D01*
X130277298Y-130548718D01*
X130260395Y-130569692D01*
X130225124Y-130604962D01*
X130225119Y-130604969D01*
X130160998Y-130700934D01*
X130125698Y-130753764D01*
X130117229Y-130774211D01*
X130057214Y-130919096D01*
X130022300Y-131094618D01*
X130022300Y-131273581D01*
X130057214Y-131449103D01*
X130067375Y-131473633D01*
X130125698Y-131614436D01*
X130225122Y-131763235D01*
X130351665Y-131889778D01*
X130500464Y-131989202D01*
X130665800Y-132057687D01*
X130778098Y-132080024D01*
X130841007Y-132112932D01*
X130876139Y-132174627D01*
X130872339Y-132245521D01*
X130830813Y-132303107D01*
X130823519Y-132308367D01*
X130789772Y-132330916D01*
X130789767Y-132330920D01*
X130663222Y-132457464D01*
X130616349Y-132527613D01*
X130583158Y-132555349D01*
X129912157Y-133226350D01*
X129893925Y-133158307D01*
X129828099Y-133044293D01*
X129735007Y-132951201D01*
X129620993Y-132885375D01*
X129552947Y-132867141D01*
X130192168Y-132227921D01*
X130192167Y-132227920D01*
X130139750Y-132189836D01*
X130139748Y-132189835D01*
X129949292Y-132092793D01*
X129949286Y-132092790D01*
X129745998Y-132026738D01*
X129746000Y-132026738D01*
X129676783Y-132015775D01*
X129612631Y-131985362D01*
X129575105Y-131925094D01*
X129576120Y-131854104D01*
X129580088Y-131843107D01*
X129596285Y-131804005D01*
X129596285Y-131804004D01*
X129596287Y-131804000D01*
X129631200Y-131628479D01*
X129631200Y-131449521D01*
X129596287Y-131274000D01*
X129527802Y-131108664D01*
X129428378Y-130959865D01*
X129301835Y-130833322D01*
X129153036Y-130733898D01*
X129036129Y-130685473D01*
X128987703Y-130665414D01*
X128987701Y-130665413D01*
X128987700Y-130665413D01*
X128899345Y-130647838D01*
X128812181Y-130630500D01*
X128812179Y-130630500D01*
X128633221Y-130630500D01*
X128633218Y-130630500D01*
X128502471Y-130656507D01*
X128457700Y-130665413D01*
X128457699Y-130665413D01*
X128457696Y-130665414D01*
X128292362Y-130733899D01*
X128143569Y-130833319D01*
X128143562Y-130833324D01*
X128017024Y-130959862D01*
X128017019Y-130959869D01*
X127917599Y-131108662D01*
X127849114Y-131273996D01*
X127849113Y-131273999D01*
X127849113Y-131274000D01*
X127840207Y-131318771D01*
X127814200Y-131449518D01*
X127814200Y-131509614D01*
X127794198Y-131577735D01*
X127792965Y-131579616D01*
X127738115Y-131661705D01*
X127737300Y-131662925D01*
X127689545Y-131778215D01*
X127684818Y-131801981D01*
X127665200Y-131900603D01*
X127665200Y-132017009D01*
X127645198Y-132085130D01*
X127591542Y-132131623D01*
X127521268Y-132141727D01*
X127481997Y-132129276D01*
X127479689Y-132128100D01*
X127409483Y-132092328D01*
X127409480Y-132092327D01*
X127409478Y-132092326D01*
X127206120Y-132026252D01*
X127206123Y-132026252D01*
X127166801Y-132020024D01*
X126994916Y-131992800D01*
X126781084Y-131992800D01*
X126569884Y-132026251D01*
X126569878Y-132026252D01*
X126366521Y-132092326D01*
X126366515Y-132092329D01*
X126175987Y-132189408D01*
X126002993Y-132315096D01*
X125999711Y-132318378D01*
X125937396Y-132352398D01*
X125866581Y-132347328D01*
X125809748Y-132304778D01*
X125784942Y-132238255D01*
X125799504Y-132169872D01*
X125801496Y-132166143D01*
X125801502Y-132166136D01*
X125869987Y-132000800D01*
X125904900Y-131825279D01*
X125904900Y-131646321D01*
X125869987Y-131470800D01*
X125801502Y-131305464D01*
X125702078Y-131156665D01*
X125575535Y-131030122D01*
X125426736Y-130930698D01*
X125309829Y-130882273D01*
X125261403Y-130862214D01*
X125261401Y-130862213D01*
X125261400Y-130862213D01*
X125173045Y-130844638D01*
X125085881Y-130827300D01*
X125085879Y-130827300D01*
X124906921Y-130827300D01*
X124906918Y-130827300D01*
X124776171Y-130853307D01*
X124731400Y-130862213D01*
X124731399Y-130862213D01*
X124731396Y-130862214D01*
X124600302Y-130916516D01*
X124594074Y-130919096D01*
X124566062Y-130930699D01*
X124417269Y-131030119D01*
X124417262Y-131030124D01*
X124290724Y-131156662D01*
X124290719Y-131156669D01*
X124191297Y-131305464D01*
X124191295Y-131305469D01*
X124141484Y-131425721D01*
X124096936Y-131481002D01*
X124073297Y-131493909D01*
X124012402Y-131519134D01*
X124012398Y-131519136D01*
X123896362Y-131596669D01*
X123896355Y-131596674D01*
X123797674Y-131695355D01*
X123797669Y-131695362D01*
X123725077Y-131804005D01*
X123720136Y-131811399D01*
X123678329Y-131912330D01*
X123677215Y-131915019D01*
X123632666Y-131970299D01*
X123565303Y-131992720D01*
X123560806Y-131992800D01*
X123449350Y-131992800D01*
X123388803Y-131999309D01*
X123388795Y-131999311D01*
X123251797Y-132050410D01*
X123251792Y-132050412D01*
X123134738Y-132138038D01*
X123047112Y-132255092D01*
X123047110Y-132255097D01*
X122996011Y-132392095D01*
X122996009Y-132392103D01*
X122989500Y-132452650D01*
X122989500Y-134249949D01*
X122996009Y-134310496D01*
X122996011Y-134310504D01*
X123047110Y-134447502D01*
X123047112Y-134447507D01*
X123134738Y-134564561D01*
X123251792Y-134652187D01*
X123251794Y-134652188D01*
X123251796Y-134652189D01*
X123304056Y-134671681D01*
X123388795Y-134703288D01*
X123388803Y-134703290D01*
X123449350Y-134709799D01*
X123449355Y-134709799D01*
X123449362Y-134709800D01*
X123449368Y-134709800D01*
X125246632Y-134709800D01*
X125246638Y-134709800D01*
X125246645Y-134709799D01*
X125246649Y-134709799D01*
X125307196Y-134703290D01*
X125307199Y-134703289D01*
X125307201Y-134703289D01*
X125320875Y-134698189D01*
X125332829Y-134693730D01*
X125444204Y-134652189D01*
X125453880Y-134644946D01*
X125561261Y-134564561D01*
X125648887Y-134447507D01*
X125648887Y-134447506D01*
X125648889Y-134447504D01*
X125692869Y-134329588D01*
X125735414Y-134272756D01*
X125801934Y-134247945D01*
X125871308Y-134263036D01*
X125900018Y-134284529D01*
X126002990Y-134387501D01*
X126002993Y-134387503D01*
X126002996Y-134387506D01*
X126175991Y-134513194D01*
X126366517Y-134610272D01*
X126569878Y-134676347D01*
X126569879Y-134676347D01*
X126569884Y-134676349D01*
X126781084Y-134709800D01*
X126781087Y-134709800D01*
X126994913Y-134709800D01*
X126994916Y-134709800D01*
X127206116Y-134676349D01*
X127409483Y-134610272D01*
X127481998Y-134573323D01*
X127551773Y-134560219D01*
X127617558Y-134586919D01*
X127658465Y-134644946D01*
X127665200Y-134685590D01*
X127665200Y-137448306D01*
X127665200Y-137573094D01*
X127689545Y-137695485D01*
X127737300Y-137810775D01*
X127806629Y-137914533D01*
X127806631Y-137914535D01*
X128250295Y-138358199D01*
X128284321Y-138420511D01*
X128287200Y-138447294D01*
X128287200Y-139186400D01*
X128267198Y-139254521D01*
X128213542Y-139301014D01*
X128161200Y-139312400D01*
X128151918Y-139312400D01*
X128025362Y-139337574D01*
X127976400Y-139347313D01*
X127976399Y-139347313D01*
X127976396Y-139347314D01*
X127811062Y-139415799D01*
X127662269Y-139515219D01*
X127662262Y-139515224D01*
X127535724Y-139641762D01*
X127535715Y-139641773D01*
X127500284Y-139694801D01*
X127445808Y-139740329D01*
X127395519Y-139750800D01*
X120627600Y-139750800D01*
X120559479Y-139730798D01*
X120512986Y-139677142D01*
X120501600Y-139624800D01*
X120501600Y-59630100D01*
X120521602Y-59561979D01*
X120575258Y-59515486D01*
X120627600Y-59504100D01*
X176374600Y-59504100D01*
X176442721Y-59524102D01*
G37*
G04 #@! TD.AperFunction*
G04 #@! TA.AperFunction,Conductor*
G36*
X146699258Y-132467588D02*
G01*
X146735486Y-132528646D01*
X146739400Y-132559807D01*
X146739400Y-134252403D01*
X146725565Y-134307639D01*
X146725969Y-134307807D01*
X146724841Y-134310528D01*
X146724525Y-134311793D01*
X146723604Y-134313515D01*
X146675846Y-134428812D01*
X146651500Y-134551203D01*
X146651500Y-136403806D01*
X146631498Y-136471927D01*
X146577842Y-136518420D01*
X146507568Y-136528524D01*
X146442988Y-136499030D01*
X146436405Y-136492901D01*
X145653805Y-135710301D01*
X145619779Y-135647989D01*
X145616900Y-135621206D01*
X145616900Y-132710680D01*
X145636902Y-132642559D01*
X145690558Y-132596066D01*
X145694683Y-132594271D01*
X145702609Y-132590988D01*
X145716336Y-132585302D01*
X145865135Y-132485878D01*
X145870752Y-132480260D01*
X145933061Y-132446234D01*
X146003877Y-132451295D01*
X146008037Y-132452932D01*
X146010100Y-132453787D01*
X146185621Y-132488700D01*
X146185622Y-132488700D01*
X146364578Y-132488700D01*
X146364579Y-132488700D01*
X146540100Y-132453787D01*
X146565181Y-132443397D01*
X146635771Y-132435809D01*
X146699258Y-132467588D01*
G37*
G04 #@! TD.AperFunction*
G04 #@! TA.AperFunction,Conductor*
G36*
X157241000Y-133792251D02*
G01*
X157259995Y-133792523D01*
X157274358Y-133802046D01*
X157290895Y-133806902D01*
X157303335Y-133821259D01*
X157319167Y-133831756D01*
X157326101Y-133847532D01*
X157337388Y-133860558D01*
X157340091Y-133879361D01*
X157347735Y-133896751D01*
X157347270Y-133929290D01*
X157347492Y-133930832D01*
X157347223Y-133932611D01*
X157315000Y-134136061D01*
X157315000Y-134341938D01*
X157347208Y-134545294D01*
X157356621Y-134574264D01*
X157358649Y-134645231D01*
X157321986Y-134706029D01*
X157258274Y-134737355D01*
X157236788Y-134739200D01*
X152502100Y-134739200D01*
X152390644Y-134761370D01*
X152361067Y-134762826D01*
X152361067Y-134763300D01*
X152175918Y-134763300D01*
X152045171Y-134789307D01*
X152000400Y-134798213D01*
X152000399Y-134798213D01*
X152000396Y-134798214D01*
X151869302Y-134852516D01*
X151840528Y-134864435D01*
X151835062Y-134866699D01*
X151686269Y-134966119D01*
X151686262Y-134966124D01*
X151559724Y-135092662D01*
X151559719Y-135092669D01*
X151460297Y-135241464D01*
X151460296Y-135241466D01*
X151445073Y-135278218D01*
X151400524Y-135333498D01*
X151333160Y-135355918D01*
X151264369Y-135338359D01*
X151215992Y-135286396D01*
X151205087Y-135254583D01*
X151191187Y-135184700D01*
X151122702Y-135019364D01*
X151023278Y-134870565D01*
X150896735Y-134744022D01*
X150747936Y-134644598D01*
X150631029Y-134596173D01*
X150582603Y-134576114D01*
X150582601Y-134576113D01*
X150582600Y-134576113D01*
X150494245Y-134558538D01*
X150407081Y-134541200D01*
X150407079Y-134541200D01*
X150228121Y-134541200D01*
X150228118Y-134541200D01*
X150110676Y-134564561D01*
X150052600Y-134576113D01*
X150052599Y-134576113D01*
X150052596Y-134576114D01*
X149887263Y-134644598D01*
X149824201Y-134686735D01*
X149814346Y-134689820D01*
X149806542Y-134696583D01*
X149781036Y-134700250D01*
X149756448Y-134707949D01*
X149746490Y-134705217D01*
X149736268Y-134706687D01*
X149712827Y-134695981D01*
X149687981Y-134689165D01*
X149681080Y-134681482D01*
X149671688Y-134677193D01*
X149657759Y-134655520D01*
X149640538Y-134636348D01*
X149637863Y-134624562D01*
X149633304Y-134617467D01*
X149628200Y-134581969D01*
X149628200Y-134414700D01*
X149648202Y-134346579D01*
X149701858Y-134300086D01*
X149754200Y-134288700D01*
X149763478Y-134288700D01*
X149763479Y-134288700D01*
X149939000Y-134253787D01*
X150104336Y-134185302D01*
X150250356Y-134087735D01*
X150318109Y-134066520D01*
X150320358Y-134066500D01*
X153762493Y-134066500D01*
X153762494Y-134066500D01*
X153884885Y-134042155D01*
X154000175Y-133994400D01*
X154103933Y-133925071D01*
X154205199Y-133823805D01*
X154267511Y-133789779D01*
X154294294Y-133786900D01*
X157222774Y-133786900D01*
X157241000Y-133792251D01*
G37*
G04 #@! TD.AperFunction*
G04 #@! TA.AperFunction,Conductor*
G36*
X151029226Y-128997402D02*
G01*
X151075719Y-129051058D01*
X151085823Y-129121332D01*
X151056329Y-129185912D01*
X151050204Y-129192490D01*
X150961442Y-129281252D01*
X150710004Y-129532690D01*
X150647692Y-129566715D01*
X150645494Y-129567172D01*
X150623520Y-129571543D01*
X150623517Y-129571544D01*
X150508224Y-129619300D01*
X150404471Y-129688626D01*
X150404469Y-129688627D01*
X149509799Y-130583296D01*
X149447487Y-130617321D01*
X149376671Y-130612256D01*
X149331609Y-130583296D01*
X149281100Y-130532787D01*
X149224735Y-130476422D01*
X149075936Y-130376998D01*
X148930445Y-130316733D01*
X148910603Y-130308514D01*
X148910601Y-130308513D01*
X148910600Y-130308513D01*
X148822245Y-130290938D01*
X148735081Y-130273600D01*
X148735079Y-130273600D01*
X148647994Y-130273600D01*
X148579873Y-130253598D01*
X148533380Y-130199942D01*
X148523276Y-130129668D01*
X148552770Y-130065088D01*
X148558899Y-130058505D01*
X148956114Y-129661291D01*
X149603100Y-129014305D01*
X149665412Y-128980279D01*
X149692195Y-128977400D01*
X150961105Y-128977400D01*
X151029226Y-128997402D01*
G37*
G04 #@! TD.AperFunction*
G04 #@! TA.AperFunction,Conductor*
G36*
X152065961Y-116470607D02*
G01*
X152122797Y-116513154D01*
X152126694Y-116518661D01*
X152147725Y-116550137D01*
X152205722Y-116636935D01*
X152241813Y-116673026D01*
X152242561Y-116673801D01*
X152258524Y-116704309D01*
X152275021Y-116734520D01*
X152275199Y-116736178D01*
X152275476Y-116736707D01*
X152275376Y-116737824D01*
X152277900Y-116761303D01*
X152277900Y-118470504D01*
X152257898Y-118538625D01*
X152240995Y-118559600D01*
X152147798Y-118652796D01*
X152085486Y-118686821D01*
X152014670Y-118681755D01*
X151969608Y-118652795D01*
X151954737Y-118637924D01*
X151954735Y-118637922D01*
X151805936Y-118538498D01*
X151665708Y-118480413D01*
X151640603Y-118470014D01*
X151640601Y-118470013D01*
X151640600Y-118470013D01*
X151534854Y-118448979D01*
X151465081Y-118435100D01*
X151465079Y-118435100D01*
X151286121Y-118435100D01*
X151286118Y-118435100D01*
X151175488Y-118457106D01*
X151110600Y-118470013D01*
X151110599Y-118470013D01*
X151110596Y-118470014D01*
X150945262Y-118538499D01*
X150796469Y-118637919D01*
X150796462Y-118637924D01*
X150669924Y-118764462D01*
X150669919Y-118764469D01*
X150570499Y-118913262D01*
X150502014Y-119078596D01*
X150467100Y-119254118D01*
X150467100Y-119439269D01*
X150464265Y-119439269D01*
X150453303Y-119497069D01*
X150430234Y-119528760D01*
X148436395Y-121522600D01*
X148374083Y-121556625D01*
X148303268Y-121551561D01*
X148246432Y-121509014D01*
X148221621Y-121442494D01*
X148221300Y-121433505D01*
X148221300Y-121307822D01*
X148221299Y-121307818D01*
X148186387Y-121132300D01*
X148117902Y-120966964D01*
X148018478Y-120818165D01*
X147891935Y-120691622D01*
X147743136Y-120592198D01*
X147587353Y-120527670D01*
X147577803Y-120523714D01*
X147577801Y-120523713D01*
X147577800Y-120523713D01*
X147460627Y-120500406D01*
X147402281Y-120488800D01*
X147402279Y-120488800D01*
X147223321Y-120488800D01*
X147223318Y-120488800D01*
X147092571Y-120514807D01*
X147047800Y-120523713D01*
X147047799Y-120523713D01*
X147047796Y-120523714D01*
X146931943Y-120571703D01*
X146888971Y-120589503D01*
X146882462Y-120592199D01*
X146733669Y-120691619D01*
X146733662Y-120691624D01*
X146698392Y-120726895D01*
X146636080Y-120760921D01*
X146609297Y-120763800D01*
X146371903Y-120763800D01*
X146249517Y-120788144D01*
X146249515Y-120788145D01*
X146228466Y-120796864D01*
X146163408Y-120823811D01*
X146092818Y-120831400D01*
X146029331Y-120799620D01*
X145993105Y-120738561D01*
X145995639Y-120667610D01*
X146026095Y-120618308D01*
X148728292Y-117916111D01*
X148790602Y-117882087D01*
X148861417Y-117887152D01*
X148918253Y-117929699D01*
X148940963Y-117980621D01*
X148942013Y-117985901D01*
X148959215Y-118027429D01*
X149010498Y-118151236D01*
X149109922Y-118300035D01*
X149236465Y-118426578D01*
X149385264Y-118526002D01*
X149550600Y-118594487D01*
X149726121Y-118629400D01*
X149726122Y-118629400D01*
X149905078Y-118629400D01*
X149905079Y-118629400D01*
X150080600Y-118594487D01*
X150245936Y-118526002D01*
X150394735Y-118426578D01*
X150521278Y-118300035D01*
X150620702Y-118151236D01*
X150689187Y-117985900D01*
X150724100Y-117810379D01*
X150724100Y-117760493D01*
X150744102Y-117692372D01*
X150761000Y-117671403D01*
X151932836Y-116499566D01*
X151995146Y-116465543D01*
X152065961Y-116470607D01*
G37*
G04 #@! TD.AperFunction*
M02*
