M48
; DRILL file {KiCad (6.0.11)} date Wed Jun 19 21:48:18 2024
; FORMAT={-:-/ absolute / metric / decimal}
; #@! TF.CreationDate,2024-06-19T21:48:18+02:00
; #@! TF.GenerationSoftware,Kicad,Pcbnew,(6.0.11)
; #@! TF.FileFunction,Plated,1,2,PTH
FMAT,2
METRIC
; #@! TA.AperFunction,Plated,PTH,ViaDrill
T1C0.400
; #@! TA.AperFunction,Plated,PTH,ComponentDrill
T2C0.800
; #@! TA.AperFunction,Plated,PTH,ComponentDrill
T3C1.000
%
G90
G05
T1
X121.669Y-115.631
X123.467Y-144.656
X123.844Y-100.035
X124.794Y-73.119
X125.313Y-139.605
X126.081Y-104.243
X127.069Y-117.967
X127.114Y-115.571
X127.818Y-96.155
X128.041Y-85.559
X130.363Y-74.335
X131.552Y-77.857
X131.552Y-87.257
X132.08Y-73.337
X132.501Y-135.969
X132.702Y-124.429
X132.702Y-133.749
X135.95Y-129.526
X136.031Y-135.311
X136.629Y-131.841
X136.708Y-92.855
X136.893Y-95.171
X136.939Y-133.995
X137.16Y-87.897
X137.442Y-136.097
X138.064Y-95.201
X138.16Y-127.391
X138.266Y-79.207
X138.298Y-134.279
X138.399Y-124.429
X138.459Y-126.137
X138.489Y-76.953
X138.966Y-128.195
X138.972Y-139.034
X139.039Y-112.555
X139.578Y-94.176
X139.754Y-126.4
X140.232Y-120.062
X140.434Y-129.733
X140.468Y-116.741
X140.978Y-114.146
X141.04Y-136.09
X141.245Y-117.988
X141.464Y-126.488
X141.682Y-121.578
X142.07Y-139.294
X142.683Y-136.725
X142.968Y-106.642
X143.366Y-134.127
X143.428Y-109.268
X143.444Y-127.091
X144.027Y-123.305
X144.078Y-106.827
X144.127Y-136.672
X144.16Y-129.665
X144.258Y-109.975
X144.795Y-135.86
X145.304Y-111.022
X145.35Y-108.302
X145.397Y-118.678
X145.604Y-125.338
X145.752Y-135.348
X146.029Y-113.613
X146.171Y-118.007
X146.431Y-133.154
X146.473Y-126.065
X147.069Y-131.932
X147.156Y-125.36
X147.157Y-114.403
X147.173Y-119.637
X147.395Y-135.917
X147.486Y-78.058
X147.701Y-129.791
X148.134Y-134.854
X148.347Y-130.496
X148.832Y-131.595
X149.464Y-129.463
X149.688Y-108.438
X149.774Y-126.535
X149.909Y-117.313
X150.217Y-137.711
X150.427Y-119.721
X150.52Y-94.141
X150.733Y-135.248
X150.79Y-124.61
X150.812Y-118.373
X150.944Y-86.938
X151.713Y-119.719
X151.752Y-128.836
X151.863Y-134.354
X152.101Y-95.47
X152.658Y-129.295
X152.696Y-116.404
X152.947Y-123.483
X153.326Y-127.873
X153.525Y-116.975
X154.688Y-126.103
X154.863Y-116.653
X155.065Y-122.345
X155.324Y-124.914
X155.535Y-119.002
X155.542Y-113.809
X156.031Y-124.214
X156.25Y-132.69
X156.51Y-138.1
X156.768Y-127.575
X156.804Y-123.429
X157.188Y-69.892
X157.209Y-136.885
X157.679Y-118.999
X157.958Y-127.923
X158.106Y-121.519
X158.547Y-137.616
X158.558Y-109.24
X158.931Y-75.705
X159.373Y-107.667
X159.543Y-79.882
X159.793Y-105.011
X160.328Y-118.144
X160.501Y-126.291
X160.54Y-122.245
X161.334Y-136.562
X161.922Y-133.391
X162.072Y-78.809
X162.47Y-116.598
X162.781Y-80.062
X163.125Y-134.518
X163.153Y-99.159
X163.798Y-99.974
X163.804Y-124.336
X164.501Y-123.535
X165.648Y-133.768
X165.702Y-76.173
X167.398Y-76.408
X167.398Y-140.586
X169.684Y-137.761
X169.947Y-139.354
X171.39Y-123.972
X171.419Y-114.439
X173.512Y-144.858
X174.194Y-69.33
X174.954Y-89.871
X175.785Y-62.383
T2
X124.46Y-75.438
X124.46Y-90.678
X127.0Y-75.438
X127.0Y-90.678
X129.54Y-75.438
X129.54Y-90.678
X132.08Y-75.438
X132.08Y-90.678
X133.35Y-77.978
X134.62Y-75.438
X134.62Y-90.678
X135.89Y-77.978
X137.16Y-75.438
X137.16Y-90.678
X139.7Y-75.438
X139.7Y-90.678
X142.24Y-75.438
X142.24Y-90.678
X143.51Y-77.978
X144.78Y-75.438
X144.78Y-90.678
X146.05Y-77.978
X147.32Y-75.438
X147.32Y-90.678
X149.86Y-75.438
X149.86Y-90.678
X152.4Y-75.438
X152.4Y-90.678
T3
X122.682Y-95.504
X122.682Y-98.044
X124.348Y-133.351
X124.556Y-62.23
X124.556Y-67.33
X126.556Y-62.23
X126.556Y-67.33
X126.888Y-133.351
X128.556Y-62.23
X128.556Y-67.33
X129.428Y-133.351
X130.556Y-62.23
X130.556Y-67.33
X132.556Y-62.23
X132.556Y-67.33
X134.556Y-62.23
X134.556Y-67.33
X136.556Y-62.23
X136.556Y-67.33
X138.556Y-62.23
X138.556Y-67.33
X140.556Y-62.23
X140.556Y-67.33
X142.556Y-62.23
X142.556Y-67.33
X144.556Y-62.23
X144.556Y-67.33
X146.556Y-62.23
X146.556Y-67.33
X148.556Y-62.23
X148.556Y-67.33
X150.556Y-62.23
X150.556Y-67.33
X152.556Y-62.23
X152.556Y-67.33
X154.556Y-62.23
X154.556Y-67.33
X156.556Y-62.23
X156.556Y-67.33
X157.734Y-77.724
X157.734Y-80.264
X157.734Y-82.804
X157.734Y-85.344
X157.734Y-87.884
X157.734Y-90.424
X158.556Y-62.23
X158.556Y-67.33
X160.556Y-62.23
X160.556Y-67.33
X162.556Y-62.23
X162.556Y-67.33
X164.556Y-62.23
X164.556Y-67.33
X166.556Y-62.23
X166.556Y-67.33
X168.556Y-62.23
X168.556Y-67.33
X170.556Y-62.23
X170.556Y-67.33
X172.556Y-62.23
X172.556Y-67.33
X173.731Y-130.81
X173.731Y-133.35
X173.736Y-111.76
X173.736Y-114.3
X173.736Y-116.84
X173.736Y-119.38
X173.736Y-121.92
X173.736Y-124.46
T0
M30
